<svg xmlns="http://www.w3.org/2000/svg" xmlns:xlink="http://www.w3.org/1999/xlink" viewBox="0 0 1080 1920"><defs><style>.cls-1,.cls-42,.cls-43{fill:none;}.cls-2{fill:#00aeef;}.cls-3{fill:#91651f;}.cls-4{fill:#aa7723;}.cls-5{fill:#855107;}.cls-6{fill:#567601;}.cls-7{fill:#638800;}.cls-8{fill:#769c11;}.cls-9{fill:#06395b;}.cls-10{fill:#414c5c;}.cls-11{fill:#293237;}.cls-12{fill:url(#Namnlös_övertoning_68);}.cls-13{fill:#a1a1a1;}.cls-14{fill:url(#Namnlös_övertoning_69);}.cls-15{fill:#d3d3d3;}.cls-16{fill:#b6b6b6;}.cls-17{fill:url(#Namnlös_övertoning_68-2);}.cls-18{fill:url(#Namnlös_övertoning_69-2);}.cls-19{fill:#73a538;}.cls-20{fill:#79b53b;}.cls-21{fill:#577729;}.cls-22{fill:#546672;}.cls-23{fill:#409e4e;}.cls-24{fill:#529ba3;}.cls-25{fill:#141e25;}.cls-26{fill:#9cb7d2;}.cls-27{fill:#768a99;}.cls-28{fill:#c4c4c4;}.cls-29{fill:#bed5df;}.cls-30{fill:#12181d;}.cls-31{fill:#efec82;}.cls-32{fill:#d3a944;}.cls-33{fill:#e8f0f3;}.cls-34{fill:#88d5de;}.cls-35{fill:#3d7d87;}.cls-36{fill:#3e2f37;}.cls-37{fill:#95c9b1;}.cls-38{fill:#e08a35;}.cls-39{fill:#e06e18;}.cls-40{fill:#e0ab35;}.cls-41{fill:#5b949c;}.cls-42,.cls-43{stroke:#fff;stroke-miterlimit:10;stroke-width:1.49px;}.cls-43{stroke-dasharray:6.01 6.01;}.cls-44{fill:#fff;}.cls-45{clip-path:url(#clip-path);}.cls-46{clip-path:url(#clip-path-2);}.cls-47{fill:#6e7071;}.cls-48{fill:#c9c9c9;}.cls-49{fill:#efefef;}.cls-50{fill:#b5ac96;}.cls-51{fill:#d1d1d1;}.cls-52{fill:#c6beb7;}</style><linearGradient id="Namnlös_övertoning_68" x1="-1751.65" y1="3206.48" x2="-1634.22" y2="3206.48" gradientTransform="matrix(1, 0, 0, -1, 0, 3862)" gradientUnits="userSpaceOnUse"><stop offset="0.16" stop-color="#3c4851"/><stop offset="0.56" stop-color="#556773"/><stop offset="0.87" stop-color="#51626e"/></linearGradient><linearGradient id="Namnlös_övertoning_69" x1="-484.72" y1="1552.77" x2="-447.04" y2="1599.59" gradientTransform="matrix(1, 0, 0, -1, 0, 3862)" gradientUnits="userSpaceOnUse"><stop offset="0.16" stop-color="#e3e3e3"/><stop offset="0.56" stop-color="#ccc"/><stop offset="0.87" stop-color="#b7b7b7"/></linearGradient><linearGradient id="Namnlös_övertoning_68-2" x1="-1469.16" y1="3279.98" x2="-1352.46" y2="3279.98" xlink:href="#Namnlös_övertoning_68"/><linearGradient id="Namnlös_övertoning_69-2" x1="-431.93" y1="1850.37" x2="-394.27" y2="1897.22" xlink:href="#Namnlös_övertoning_69"/><clipPath id="clip-path"><polygon class="cls-1" points="1837.47 71.57 1299.26 388.11 1299.26 0.66 1837.47 0.05 1837.47 71.57"/></clipPath><clipPath id="clip-path-2"><rect class="cls-1" x="1299.26" y="-2.7" width="555.23" height="558.19"/></clipPath></defs><title>ledtec-notext</title><g id="Lager_1" data-name="Lager 1"><rect class="cls-2" y="1830" width="1080" height="90"/><rect class="cls-2" width="540" height="915"/><path class="cls-3" d="M328.71,708.19a14.94,14.94,0,0,1-6.48,1c-9.34-1.22-1.63-17.86,0-22.93s2.23-9.54,3.44-14,4.47-12.58,6.3-19.07a1.32,1.32,0,0,0,.16-.61A1.26,1.26,0,0,0,332,652c-1.22,2-1.83,4.46-3.05,6.7s-2.64,5.48-3.85,8.32c-2.24,6.09-4.27,12.38-6.3,18.67A196,196,0,0,1,295,731.93c-2.23,3.65-4.47,7.31-6.5,11.16a63.83,63.83,0,0,0-8.93,20.3,115.47,115.47,0,0,0,0,14.41,63.82,63.82,0,0,1-1.42,10.75A256.82,256.82,0,0,1,274.12,817l3.66-16.44a287.88,287.88,0,0,1,9.74-32.68,94.67,94.67,0,0,1,14.2-28.61A83.4,83.4,0,0,1,314.1,725a123.57,123.57,0,0,1,20.3-10.76,68.88,68.88,0,0,0,17.46-16,174.78,174.78,0,0,0,24.35-40.59,31.84,31.84,0,0,0,3.85-20.29,186.73,186.73,0,0,0-15,29.83A107.13,107.13,0,0,1,348.4,696,52.25,52.25,0,0,1,328.71,708.19Z"/><path class="cls-4" d="M277.37,797.08a4.47,4.47,0,0,0,0-1.63,70.84,70.84,0,0,0,1.42-11,86.67,86.67,0,0,1,0-14.41,59.59,59.59,0,0,1,8.93-19.28c2-3.85,4.06-7.5,6.29-10.95A202.6,202.6,0,0,0,318,693.37c1.83-6.29,3.86-12.58,6.29-18.67a34,34,0,0,1,2.44-5.68c1.62-5.28,3.85-10.35,5.28-15.83a1.32,1.32,0,0,0,.16-.61A1.26,1.26,0,0,0,332,652h0c-1.22,2-1.83,4.46-3.05,6.7s-2.64,5.47-3.85,8.32c-2.24,6.08-4.27,12.38-6.3,18.67A196,196,0,0,1,295,731.93c-2.23,3.65-4.47,7.31-6.5,11.16a63.83,63.83,0,0,0-8.93,20.3,115.47,115.47,0,0,0,0,14.41,63.82,63.82,0,0,1-1.42,10.75A256.82,256.82,0,0,1,274.12,817l3.66-16.44Z"/><path class="cls-3" d="M216.49,691.34a6.89,6.89,0,0,0,9.13,0,10.2,10.2,0,0,0,2.23-8.93c0-2.43-1-4.87-1.42-7.3-2-10.36-4.26-20.3-6.5-31.06a186.75,186.75,0,0,1-4.67-42.41h1q4.26,16.85,7.31,33.48a165.49,165.49,0,0,0,4.46,20.3,79.69,79.69,0,0,0,2.85,9.33c0,2.64,1.41,5.28,2.23,7.92a154.77,154.77,0,0,0,6.09,16.24c2.43,5.48,5.07,10.75,7.5,16.23a202.51,202.51,0,0,0,11,20.3,65.09,65.09,0,0,1,8.92,20.29,82.24,82.24,0,0,1,0,14.21,94.35,94.35,0,0,0,1.63,11,194.59,194.59,0,0,0,4.06,28.41c-1.42-5.48-2.64-11-3.86-16.44A302.83,302.83,0,0,0,258.9,750a97.48,97.48,0,0,0-14.41-28.61,100.8,100.8,0,0,0-12.18-14,153.94,153.94,0,0,0-14.81-8.52,49.88,49.88,0,0,1-12-11.57,69.2,69.2,0,0,1-20.29-38.15,31.07,31.07,0,0,0,5.89,10.35l9.53,14A76,76,0,0,0,216.49,691.34Z"/><path class="cls-4" d="M221.16,641.42a174,174,0,0,0,4.46,20.29c1,3,1.62,6.29,2.84,9.34s1.42,5.27,2.24,7.91,3.85,11,6.08,16.24,5.27,10.75,7.51,16.23a200.42,200.42,0,0,0,11,20.3A59.53,59.53,0,0,1,264.18,752a115.47,115.47,0,0,1,0,14.41,9.53,9.53,0,0,0,0,3.45c1.22,4.67,2.63,9.54,3.66,14.41s2.43,11,3.85,16.44a194.39,194.39,0,0,1-4.06-28.41,92.23,92.23,0,0,1-1.62-11,84.29,84.29,0,0,0,0-14.21,65.14,65.14,0,0,0-8.94-20.29,202.35,202.35,0,0,1-10.95-20.3c-2.44-5.48-5.08-10.75-7.51-16.23a157,157,0,0,1-6.09-16.24c0-2.64-1.42-5.28-2.24-7.92a85.81,85.81,0,0,1-2.84-9.33,167.36,167.36,0,0,1-4.46-20.3q-3-16.63-7.31-33.48h-1a107.62,107.62,0,0,0,0,11.36A170.53,170.53,0,0,1,221.16,641.42Z"/><path class="cls-3" d="M283.26,906.87v1.22a4.23,4.23,0,0,1,0,1.42,18.73,18.73,0,0,1-16,5.28c-7.3,0-13.19-3.45-14.4-7.31v-1.62a21.7,21.7,0,0,1,1.62-3.05,8.13,8.13,0,0,0,1.42-2.23l1-1.83a62,62,0,0,0,4.06-17.45c1-6.29,1.42-12.58,1.83-18.87v-42c-1.22-35.11,0-70.22,1.42-105.33V707a169.54,169.54,0,0,1,1-22.73c1-7.51,0-16.44,1.41-24.56V643.24a50.09,50.09,0,0,0,0-5.48,10.51,10.51,0,0,1,1-5.48,51.28,51.28,0,0,1,1-5.48,96.55,96.55,0,0,1,2.43-10.35s0-2.43,2-2.64a3.25,3.25,0,0,1,1.42,1.42v2.24c0,28.41,1.62,56.82,2.23,85,0,18.07,0,36.13-1,54.39v31.66c0,14.41,1.42,28.82,1.83,43.23a273.54,273.54,0,0,1-1.43,34.1c0,7.1-1.62,14.2-2.23,21.51v1.42a2.85,2.85,0,0,1,0,1.42,12.26,12.26,0,0,0,0,2.84,7.58,7.58,0,0,0,0,2.23,11.88,11.88,0,0,0,1.83,5.08l1.42,1.62Z"/><path class="cls-5" d="M277.37,616.66a193.06,193.06,0,0,0-5.48,29c-3,22.93-3.24,46.88-4.46,69.61-1.83,35.11-2.64,70.22-1.42,105.33v42a149.17,149.17,0,0,1-1.83,18.87A62.78,62.78,0,0,1,260.12,899a17.63,17.63,0,0,1-7.51,8.72v-1.62a22.15,22.15,0,0,1,1.62-3,8.63,8.63,0,0,0,1.43-2.24l1-1.82a62.43,62.43,0,0,0,4.06-17.46c1-6.29,1.42-12.58,1.83-18.87v-42c-1.22-35.11,0-70.22,1.42-105.33v-8.12a171.21,171.21,0,0,1,1-22.73c1-7.51,0-16.44,1.42-24.56V643.44a50.09,50.09,0,0,0,0-5.48,10.47,10.47,0,0,1,1-5.47,52.87,52.87,0,0,1,1-5.48,93.71,93.71,0,0,1,2.44-10.35s0-2.44,2-2.64h4.46Z"/><path class="cls-4" d="M283.26,906.87v1.22a4.23,4.23,0,0,1,0,1.42H281l-2-1.22a13,13,0,0,1-3.85-2.63A16.89,16.89,0,0,1,271.08,890c0-7.31,1.22-14.41,2-21.51a318.27,318.27,0,0,0,1.62-34.1c0-14.41-1.42-28.82-1.82-43.23V759.53c0-18.06,1.21-36.33,0-54.39s0-39.37-1.43-59.06V627.41a94.25,94.25,0,0,1,2.44-10.35s0-2.43,2-2.64a3.25,3.25,0,0,1,1.42,1.42v2.24c0,28.41,1.62,56.82,2.23,85,0,18.06,0,36.13-1,54.39v31.66c0,14.41,1.42,28.82,1.83,43.23a275.48,275.48,0,0,1-1.43,34.1c0,7.1-1.62,14.2-2.23,21.51v1.42a3.1,3.1,0,0,1,0,1.42,12.26,12.26,0,0,0,0,2.84,7.58,7.58,0,0,0,0,2.23,11.88,11.88,0,0,0,1.83,5.08l1.42,1.62Z"/><path class="cls-6" d="M169,549.48c-9.74-3.65-18.88-27.6-18.88-27.6a101.24,101.24,0,0,1,22.33-7.71v-3.45a129.82,129.82,0,0,1-17.86,0s2.23-26.59,10.15-33.29l2-1.22a83.43,83.43,0,0,1-22.33-23.34,91.92,91.92,0,0,1,27.8-12.78,24.21,24.21,0,0,1-11-5.68c-7.1-7.72-4.46-33.29-4.46-33.29a102.51,102.51,0,0,1,15.63,1.42V399.7l8.31,4.87A20.23,20.23,0,0,1,185,406.2a87.08,87.08,0,0,1,31.26-5.08V413.5h.2c6.08,1.22,13,9.34,17.85,15.83a114.27,114.27,0,0,1,17-8.12,118.41,118.41,0,0,1,4.67,15.63c0,1,6.5,0,7.31,0a63.14,63.14,0,0,0,7.1-4.06,11.85,11.85,0,0,1,9.13-2.23,1,1,0,0,1,1,0,2.3,2.3,0,0,1,0,1.22c1,4.26,0,9.33,2,13.6s0,2.43,3.25,1.62h2.63s9.54,25,5.28,34.5a17,17,0,0,1-3.45,4.47,37.39,37.39,0,0,1-5.68,20.29,109.06,109.06,0,0,1,14.2,9.54A111.23,111.23,0,0,1,282,533a57,57,0,0,1,6.29,30,11.72,11.72,0,0,1-2.23,3.65,70.28,70.28,0,0,1,15.83,28.41,100.44,100.44,0,0,1-10.35,3.45,13.56,13.56,0,0,0,0,4.67c0,3.25,4.26,4.06,7.3,5.68h0a37,37,0,0,1-8.32,10.15c-2.23,1.83-5.47,2.84-6.7,5.48-3.44,6.7,7.11,5.89,11.58,6.9,0,0-3.86,24.35-12.18,30.65v15.42a23,23,0,0,1,0,12.38v13.19L280,701.29c-1.83,5.07-3.65,8.93-3.65,8.93s-24.16-8.73-28-18.47a13.24,13.24,0,0,1-1-4.06,115.86,115.86,0,0,1-17.05,12.38,109.47,109.47,0,0,1-10.95-21.31,14.49,14.49,0,0,1-2.64,2.43c-9.14,5.08-33.69-2.43-33.69-2.43a124,124,0,0,1,5.48-17,99.11,99.11,0,0,1-23.74,3s-2-25.77,5.07-33.28a12,12,0,0,1,4.67-3.25,90.4,90.4,0,0,1-19.08-24.35l7.3-3.65A46.7,46.7,0,0,1,169,598a4.26,4.26,0,0,0,2.84-4.66,8.91,8.91,0,0,0-2.44-3.66l-3.25-3.45a3.4,3.4,0,0,1,0-1.42,111.85,111.85,0,0,1-12.78-18.06,111.21,111.21,0,0,1,20.29-9.94v-5.28Z"/><path class="cls-7" d="M384.73,549.48c9.74-3.65,18.88-27.6,18.88-27.6a101.42,101.42,0,0,0-22.33-7.71v-3.45a129.82,129.82,0,0,0,17.86,0s-2.23-26.59-10.14-33.29l-2-1.22a83.68,83.68,0,0,0,22.32-23.34,91.81,91.81,0,0,0-27.8-12.78,26.09,26.09,0,0,0,11.15-5.68c6.91-7.72,4.27-33.29,4.27-33.29a102.28,102.28,0,0,0-15.63,1.42V399.7L373,404.57a25.81,25.81,0,0,0-4.26,1.63,87.06,87.06,0,0,0-31.25-5.08,111.15,111.15,0,0,0,0,12.38H336c-5.88,1.22-13,9.34-17.86,15.83a113.69,113.69,0,0,0-17-8.12,119.94,119.94,0,0,0-4.67,15.63c0,1-6.29,0-7.11,0a51,51,0,0,1-7.3-4.06,11.85,11.85,0,0,0-9.13-2.23,1,1,0,0,0-.51-.14,1,1,0,0,0-.51.14,2.3,2.3,0,0,0,0,1.22c-1,4.26,0,9.33-2,13.6s0,2.43-3,1.62H264s-9.54,25-5.28,34.5a14.34,14.34,0,0,0,3.65,4.47,35.64,35.64,0,0,0,5.49,20.29,107.83,107.83,0,0,0-14.21,9.54A111.23,111.23,0,0,0,270.47,533a57,57,0,0,0-6.29,30,11.72,11.72,0,0,0,2.23,3.65,70.28,70.28,0,0,0-15.83,28.41,100.44,100.44,0,0,0,10.35,3.45,13.56,13.56,0,0,1,0,4.67c0,3.25-4.26,4.06-7.3,5.68h0a37,37,0,0,0,8.31,10.15c2.24,1.83,5.49,2.84,6.91,5.48,3.24,6.7-7.31,5.89-11.78,6.9,0,0,3.86,24.35,12.18,30.65v15.42a23,23,0,0,0,0,12.38v13.19l3.25-1.82c1.82,5.07,3.65,8.93,3.65,8.93s24.16-8.73,28.21-18.47a22.94,22.94,0,0,0,0-4.06,116.39,116.39,0,0,0,17.05,12.38,97.86,97.86,0,0,0,11-21.31,14.49,14.49,0,0,0,2.64,2.43c9.13,5.08,33.69-2.43,33.69-2.43a124,124,0,0,0-5.48-17,99,99,0,0,0,23.75,3s2-25.77-5.08-33.28a12,12,0,0,0-4.67-3.25,90.6,90.6,0,0,0,19.08-24.35l-7.3-3.65a39,39,0,0,0-6.3-2.24,4,4,0,0,1-2.2-1.83,4.11,4.11,0,0,1-.44-2.83,6.87,6.87,0,0,1,2.24-3.66l3.24-3.45a3.1,3.1,0,0,0,0-1.42,111.29,111.29,0,0,0,12.79-18.06,111,111,0,0,0-20.3-9.94v-5.28Z"/><path class="cls-8" d="M366.67,378.8h-3.25l-6.9-4.06a3.4,3.4,0,0,0,0-1.42c-1.62-11.16-25.37-28.21-25.37-28.21s-2,2.84-4.67,7.1c-2.64-11.16-27.6-26.38-27.6-26.38s-2,3.45-4.46,8.32a116.63,116.63,0,0,0-23.34-19.08,127.88,127.88,0,0,0-11,22.73c-1.62-4.26-3.05-7.1-3.05-7.1S230.9,340.85,226.63,351a20.14,20.14,0,0,0,0,8.11h-1a99.72,99.72,0,0,0-29,2.44,127.71,127.71,0,0,0,2.64,13l-6.7,3.85a16.92,16.92,0,0,0-7.92-1.62c-11.37,0-30,23.14-30,23.14s22.12,18.87,33.48,17.86a12.68,12.68,0,0,0,5.07-1.43h1a6.24,6.24,0,0,0,0,1.83c1.42,11.37,24.56,27.4,24.56,27.4s3.65-4.47,7.71-10.55l4.27,2.43a107.58,107.58,0,0,0,17.65,26,129.73,129.73,0,0,0,10-9.95l3.44,1.83a11.6,11.6,0,0,0,2,3.05A28,28,0,0,0,276.56,464h1.83a122.16,122.16,0,0,0,21.92,2.23V451.86a109.35,109.35,0,0,0,12.58,11.37,103,103,0,0,0,15.82-27.61l3.26-2A154.37,154.37,0,0,0,346.58,447,94.28,94.28,0,0,0,363,416.34a18.65,18.65,0,0,0,8.12,1.63c11.37-1.22,29.63-24,29.63-24S378.85,377.78,366.67,378.8Z"/><rect class="cls-9" y="915" width="540" height="915"/><path class="cls-2" d="M136.77,1381.82s21.72-117.32,139.6-62.12c0,0,57.8-43.43,115.91,10.87,0,0,38.73,27.48,20.11,96.75,0,0,42.16,38.74,5.06,99.08,0,0-24.43,44.7-89.24,32,0,0-21.6,58.11-106.52,40.23,0,0-55.87-19.78-58.11-75.07,0,0-56.61-2.4-68.53-62.74S136.77,1381.82,136.77,1381.82Z"/><rect class="cls-9" x="540" width="540" height="915"/><path class="cls-10" d="M882.62,562.74a9.12,9.12,0,0,1,.87-10.85c3.78-5.52,6.68-3.68,6.68-3.68a6.19,6.19,0,0,1,1.46,8.23c-1.74,3.3-3.49,7.85-4.75,7.85s-1.84,4.06-1.84,4.06l-3.58-3.68Z"/><path class="cls-11" d="M828.29,652.61l24.31-13.47-29.34-12.29Z"/><path class="cls-11" d="M700,579l24.3-13.46L695,553.25Z"/><path class="cls-12" d="M834,641.56l4.36,7,10.36,17,5.13,8.43,6.88-4a7.57,7.57,0,0,0,3.19-4.65v-1.17a2.54,2.54,0,0,0,0-.87v-1.74a29.63,29.63,0,0,0-13.75-23l-1.26-.68a9.7,9.7,0,0,0-8.33,0Z"/><path class="cls-10" d="M830.72,650.47a29.64,29.64,0,0,0,13.84,23c7.56,4.17,13.56.68,13.47-7.74a29.62,29.62,0,0,0-13.85-23C836.33,638.56,830.72,642.05,830.72,650.47Z"/><path class="cls-13" d="M834.4,652.7a11.79,11.79,0,0,0,0,2.52,22.63,22.63,0,0,0,3,7.36,20.41,20.41,0,0,0,3.19,3.87,13.08,13.08,0,0,0,3.3,2.52A8.82,8.82,0,0,0,846.6,670a4.21,4.21,0,0,0,5.71-1.75v-4.55a9.09,9.09,0,0,0,0-1.65,10,10,0,0,0,0-1.55,21.54,21.54,0,0,0-2.13-5.22l-.48-.78a27.82,27.82,0,0,0-2.52-3.29v-.58a16.53,16.53,0,0,0-2.52-2l-1-.58-1-.48H840.4a7,7,0,0,0-1.45,0,3.36,3.36,0,0,0-1.36.58,5.32,5.32,0,0,0-2.71,3.87C834.71,652.25,834.55,652.47,834.4,652.7Z"/><path class="cls-11" d="M841.56,649.21a11,11,0,0,0,0,2.43,22.11,22.11,0,0,0,3,7.36,21.44,21.44,0,0,0,3.2,4,19.53,19.53,0,0,0,3.29,2.52l2,.88v-4.94a13.36,13.36,0,0,0,0-1.55,19.38,19.38,0,0,0-2.13-5.23l-.49-.78a29.39,29.39,0,0,0-2.61-3.39v-.58a20.61,20.61,0,0,0-3.49-2.61l-1-.49h-1.06v.58A16.36,16.36,0,0,0,841.56,649.21Z"/><path class="cls-14" d="M837.88,646.31a6.75,6.75,0,0,0-1.64,2.53,6.62,6.62,0,0,0-.39,3,21.2,21.2,0,0,0,9.68,16.37,7.68,7.68,0,0,0,6.1,1,6.45,6.45,0,0,1-7.55,0,20.86,20.86,0,0,1-9.68-16.27A6.13,6.13,0,0,1,835,649,6.21,6.21,0,0,1,837.88,646.31Z"/><path class="cls-13" d="M837,653.48l6,3.48-2.72,8.91c0,.49,1.75,0,1.75,0l4.16-4.45,3,7.45c1,0,0,1.75,1.17,1.55a4.22,4.22,0,0,0,1.83-1.26l-2.13-8.23,3.3,1.84a11.36,11.36,0,0,0,0-1.65,14.34,14.34,0,0,0-.87-3.09l-2.81-2.13,1-1.94a30.14,30.14,0,0,0-2.52-3.29l-1.36,1.64-2.32-4.74-1-.48h-3.1l2.42,5.9-6.39-2.52s-1.64.78-1.64,1.65S836.91,652.61,837,653.48Z"/><path class="cls-15" d="M834.49,654.54l6.2,4.07-2.23,5A5.79,5.79,0,0,0,840.4,666l3.39-3.29,3.58,7.55a3.55,3.55,0,0,0,1.51.34,3.61,3.61,0,0,0,1.5-.34l-2.33-7.07,5.52,2.81a7.6,7.6,0,0,0,0-2.13,9.09,9.09,0,0,0,0-1.65l-6.1-4,2.71-4.74a9.57,9.57,0,0,0-2.22-2.71l-3.59,3.38-3.78-7.84a3.63,3.63,0,0,0-2.71,0l2.33,7.36-5.72-2.62a9.09,9.09,0,0,0,0,1.65A14.12,14.12,0,0,0,834.49,654.54Z"/><path class="cls-16" d="M842,657a4.72,4.72,0,0,0,2.13,3.58,1.34,1.34,0,0,0,2.13-1.25,4.72,4.72,0,0,0-2.13-3.58C842.92,655.12,842,655.61,842,657Z"/><path class="cls-17" d="M705.7,567.87l4.26,7,10.46,17,5.13,8.42,6.78-4a7.42,7.42,0,0,0,3.1-4.65,2.51,2.51,0,0,0,0-.67v-1.36a6.18,6.18,0,0,0,0-1.36,29.08,29.08,0,0,0-13.85-22.95l-1.16-.68a9.7,9.7,0,0,0-8.33,0Z"/><path class="cls-10" d="M702.12,576.39A29.64,29.64,0,0,0,716,599.44c7.46,4.16,13.47.68,13.37-7.75a29.86,29.86,0,0,0-13.75-23C708,564.09,702,568,702.12,576.39Z"/><path class="cls-11" d="M713.25,575.13a11,11,0,0,0,0,2.43,18.49,18.49,0,0,0,3,7.36,18.18,18.18,0,0,0,3.19,4,16.37,16.37,0,0,0,3.29,2.51,9.64,9.64,0,0,0,2,.87,2.54,2.54,0,0,1,0-.87v-1.93a8.44,8.44,0,0,0,0-2.13,13.36,13.36,0,0,0,0-1.55,24.65,24.65,0,0,0-2.23-5.23,3.39,3.39,0,0,0,0-.78,29.47,29.47,0,0,0-2.62-3.39l-.58-.58a14.82,14.82,0,0,0-3.48-2.61l-.87-.49h-1.07v.58A17.68,17.68,0,0,0,713.25,575.13Z"/><path class="cls-18" d="M709.48,572.23a6.66,6.66,0,0,0-1.94,5.52,21,21,0,0,0,9.68,16.36,7.63,7.63,0,0,0,6.1,1,6.49,6.49,0,0,1-7.55,0,20.86,20.86,0,0,1-9.68-16.27,6,6,0,0,1,3.39-6.58Z"/><path class="cls-13" d="M708.7,579.4l6,3.48-2.81,8.91,1.84-.48,4.16-4.46,3,7.46c1,0,0,1.74,1.17,1.55a4.43,4.43,0,0,0,1.74-1.26l-1.74-7.46,3.29,1.84a11.22,11.22,0,0,0,0-1.64,12.59,12.59,0,0,0-.78-3.1l-2.9-2.13,1-1.94a21.87,21.87,0,0,0-2.62-3.29l-1.26,1.64-2.42-4.74-.87-.49h-2.91L715,579.2l-6.49-2.52s-1.55.78-1.55,1.65S708.51,578.52,708.7,579.4Z"/><path class="cls-15" d="M706.18,580.46l6.2,4.07-2.32,5a7.62,7.62,0,0,0,1.93,2.33l3.49-3.29,3.58,7.55a3.56,3.56,0,0,0,1.5.33,3.61,3.61,0,0,0,1.51-.33l-2.43-7.07,5.52,2.81a6.92,6.92,0,0,0,0-2.13,10.11,10.11,0,0,0,0-1.74l-6.1-3.88,2.62-4.74a9.73,9.73,0,0,0-2.13-2.72L716,580.07l-3.87-7.84a3.63,3.63,0,0,0-2.71,0l2.32,7.36L706.09,577a4.58,4.58,0,0,0,0,1.65A6,6,0,0,0,706.18,580.46Z"/><path class="cls-16" d="M713.64,582.88a4.72,4.72,0,0,0,2.13,3.58,1.34,1.34,0,0,0,2.13-1.25,4.91,4.91,0,0,0-.73-2,5.16,5.16,0,0,0-1.49-1.56C714.51,581,713.64,581.52,713.64,582.88Z"/><path class="cls-19" d="M693.69,549.76v7.36l8.14,11.82c.48-.59.87-1.17,1.35-1.65a8.85,8.85,0,0,1,6.59-2.62,14.71,14.71,0,0,1,7.07,2,30.27,30.27,0,0,1,10.75,11,29.08,29.08,0,0,1,4.16,13.85,15.59,15.59,0,0,1-.68,5l97.42,56v-2.14a12.78,12.78,0,0,1,3.1-9.1,8.84,8.84,0,0,1,2.23-1.65,9.7,9.7,0,0,1,4.35-1.06,14.71,14.71,0,0,1,7.07,2.13,31.5,31.5,0,0,1,11.53,12.3,29.77,29.77,0,0,1,3.48,12.68,17.33,17.33,0,0,1-.58,4.65l2.71,1.45,9.1-2.13,5.82-8.32-3.1-1.94L878,644.66l-58.1-38.73a170.76,170.76,0,0,0-21.3-37.86c-11.24-10.75-55.78-30.7-55.78-30.7l-24.6,9.1-18.78-8.23-3.68,4.36Z"/><path class="cls-20" d="M695.63,543l180.6,102.35-56.36-38.83L718.1,546.86l-18.79-8.23Z"/><path class="cls-19" d="M731.56,591.6a16.16,16.16,0,0,1-.68,5l97.41,56v-2.14a12.88,12.88,0,0,1,3.1-9.1,9.21,9.21,0,0,1,2.23-1.65l-106.52-62A29,29,0,0,1,731.56,591.6Z"/><path class="cls-21" d="M809.8,638.37l.48-18,2.23-12.4-.87-.19-2.32,12.39-.39,16.66-41.45-22.56-1.64-18,2.9-15.79-.1-.1-16.26-28.27-.39.29-15.79,9.39V562l-3.58,15.79,3.58,20,.88-.1-3.49-19.85,3.49-15.4L752,553.44l15.69,27.22-2.81,15.49v.1l1.74,18.69.19.09Z"/><path class="cls-22" d="M828.29,647.09v4.16l-97.41-55.88a16.45,16.45,0,0,0,.68-3.87Z"/><path class="cls-23" d="M828.2,646.31a13.36,13.36,0,0,1,2.42-8.23l2.91,1.64a8.84,8.84,0,0,0-2.23,1.65,11.88,11.88,0,0,0-3,7.07C828.29,647.76,828.2,647,828.2,646.31Z"/><path class="cls-10" d="M828.29,648.44v4.17l-97.41-56a14.65,14.65,0,0,0,.68-3.78Z"/><path class="cls-10" d="M690.21,556.06v5.62l1.93,5.81,4.75,4.84,2.13,6,1.06.68a12.75,12.75,0,0,1,0-2.62,13.93,13.93,0,0,1,1.75-7.45c.48-.59.87-1.17,1.35-1.65a9.68,9.68,0,0,1,3.1-2l-9.2-5.33-1.93-1.16Z"/><path class="cls-10" d="M725.75,551.41l3,7.55,6.87,3.88.78.48.77.49,2.13,1.25,1.65,1.07,1.16.58,1.45.87,1.17.68,24.2,14.52,3.1,1.94,32.64,19.56,1.45.87,8.23,4.94,1-5.23L802,580.46l-1.45-2.71-4.35-7.94L747.24,543l-.48-.39-1.65-.87Z"/><path class="cls-24" d="M746,543.76l-16,10.07.58,4.55,82.79,49.48.49-2.7-18.79-34.38Z"/><path class="cls-10" d="M736.59,562.93l1.07,1.16.77.39.78.49,10.65-19.66-.49-1.16-.58-.39-1.16.58Z"/><path class="cls-10" d="M767,581.14l3.1,1.84,5.32-23.34-3.1-1.55Z"/><path class="cls-10" d="M800.11,577.56V600.8l1.56.87.28-21.21-1.45-2.71Z"/><path class="cls-22" d="M825.87,635.27V641l-94.12-59.26,1.36-.68Z"/><path class="cls-10" d="M824.61,636v5.72l-92.86-54.33v-5.71Z"/><path class="cls-11" d="M937.24,622.87,938.69,610,877.1,644.47l-2.71,13.65S915.26,648.15,937.24,622.87Z"/><path class="cls-11" d="M874.88,656v-2.13a215.73,215.73,0,0,0,61.39-34.67c.48,0,.58-2.22.58-2.22v1.94s0,1.84-.58,2.22A212.87,212.87,0,0,1,874.88,656Z"/><path class="cls-11" d="M874.88,653v-2.13a215.73,215.73,0,0,0,61.39-34.67c.48,0,.58-2.22.58-2.22v1.93s0,1.84-.58,2.23A212.87,212.87,0,0,1,874.88,653Z"/><path class="cls-11" d="M874.88,650v-2.13a216.21,216.21,0,0,0,61.39-34.67c.48,0,.58-2.32.58-2.32v1.93s0,1.94-.58,2.33A215.89,215.89,0,0,1,874.88,650Z"/><path class="cls-22" d="M874.88,656.57v-2.22a212.27,212.27,0,0,0,61.39-34.57c.48,0,.58-2.33.58-2.33v1.94s0,1.94-.58,2.32A215.65,215.65,0,0,1,874.88,656.57Z"/><path class="cls-22" d="M874.88,653.57v-2.22a215.06,215.06,0,0,0,61.39-34.57c.48,0,.58-2.33.58-2.33v1.94s0,1.93-.58,2.32A215.89,215.89,0,0,1,874.88,653.57Z"/><path class="cls-22" d="M874.88,650.57v-2.23a213.14,213.14,0,0,0,61.39-34.66c.48,0,.58-2.23.58-2.23v1.94s0,1.93-.58,2.22A214.47,214.47,0,0,1,874.88,650.57Z"/><path class="cls-22" d="M875.26,645.34A215.6,215.6,0,0,0,936.37,611l.58,1.26v.49a214.49,214.49,0,0,1-61.79,34.86Z"/><path class="cls-25" d="M934.14,639.72l-62.46,35.45-.48-5.33,62.36-35.54Z"/><path class="cls-10" d="M859.77,665.78a17.72,17.72,0,0,1-.58,4.64L862,672l9.69,3.2-.48-5.33h1.93c1.94,0,3.78,1.26,5.52,0l1.26-.58L938,636.34a6,6,0,0,0,1.65-1.36,6.34,6.34,0,0,0,1.06-2.81l.49-7.84-1.55.77-60.53,34-1.64.87-20.53-8v.87A29.79,29.79,0,0,1,859.77,665.78Z"/><path class="cls-11" d="M879.13,659.09v11.53l1.26-.58A193,193,0,0,0,907,658.12a166.2,166.2,0,0,0,15.11-8.81,161.07,161.07,0,0,0,16.17-12.2,7.88,7.88,0,0,0,1.65-1.45V626Z"/><path class="cls-26" d="M876.33,646.6l11.33-5.32a1.23,1.23,0,0,1,.63-.1,1.28,1.28,0,0,1,.59.24,1.15,1.15,0,0,1,.41.49,1.2,1.2,0,0,1,.11.62v4.17a3.82,3.82,0,0,1-.67,1.9,3.7,3.7,0,0,1-1.56,1.29l-9.68,4.36Z"/><path class="cls-26" d="M927.56,619.39l8.71-6.78-.68,9.68-8.42,6.59a1.08,1.08,0,0,1-.59.25A1.12,1.12,0,0,1,926,629a1.14,1.14,0,0,1-.44-.46,1.12,1.12,0,0,1-.1-.63v-4.74A4.66,4.66,0,0,1,926,621,4.46,4.46,0,0,1,927.56,619.39Z"/><path class="cls-20" d="M935.2,613.1c0-.78,3-2.62,3-2.62a11.58,11.58,0,0,1-1,9.68l-2,1.94A42.31,42.31,0,0,0,935.2,613.1Z"/><path class="cls-27" d="M910.51,631.88a5.61,5.61,0,0,1-2.62,4.26,1.52,1.52,0,0,1-2.42-1.45,5.54,5.54,0,0,1,2.52-4.26,1.57,1.57,0,0,1,1.77-.15,1.65,1.65,0,0,1,.63.68A1.54,1.54,0,0,1,910.51,631.88Z"/><path class="cls-28" d="M911.19,632.46a5.36,5.36,0,0,1-2.52,4.17,1.57,1.57,0,0,1-.86.35,1.54,1.54,0,0,1-1.53-.89,1.53,1.53,0,0,1-.13-.92,5.43,5.43,0,0,1,2.62-4.16C910.12,630.24,911.19,630.82,911.19,632.46Z"/><path class="cls-22" d="M858.22,651.25l-1.75.87,18.21,8.33a5.33,5.33,0,0,0,4.55,0s45.71-18.21,60.91-34.57c.78-.87,1.17-1.94,0-2.62L937,620.45s0,1.94-.58,2.33a214.55,214.55,0,0,1-62.07,34.86Z"/><path class="cls-22" d="M888.82,658.9v2a1.68,1.68,0,0,1-.27.92,1.7,1.7,0,0,1-.7.63l-6.78,2.62a1.18,1.18,0,0,1-.46,0,1.07,1.07,0,0,1-.42-.19,1,1,0,0,1-.29-.36,1.17,1.17,0,0,1-.09-.45l5.72-2.23a1.52,1.52,0,0,0,.73-.62,1.46,1.46,0,0,0,.23-.93v-1.06l1.07-.49a1,1,0,0,1,.65-.18A1,1,0,0,1,888.82,658.9Z"/><path class="cls-29" d="M886.49,658.41v1.07a1.46,1.46,0,0,1-.23.93,1.52,1.52,0,0,1-.73.62l-5.72,2.23v-1.17a1.68,1.68,0,0,1,.29-.94,1.62,1.62,0,0,1,.78-.61Z"/><path class="cls-22" d="M938.3,629.46v1.16a1.84,1.84,0,0,1-.11.84,1.88,1.88,0,0,1-.47.71l-4.07,3.39s-.77,0-.77-.58l3.39-2.9a2.1,2.1,0,0,0,.52-.7,1.92,1.92,0,0,0,.16-.85v-.68l.58-.58S938.3,629,938.3,629.46Z"/><path class="cls-29" d="M937.24,629.46v.68a2.07,2.07,0,0,1-.16.85,2,2,0,0,1-.52.7l-3.39,2.9v-.77a2,2,0,0,1,.16-.85,1.89,1.89,0,0,1,.52-.7Z"/><path class="cls-30" d="M906.44,652.22v5.42a166.2,166.2,0,0,0,15.11-8.81,1,1,0,0,0,0-.49v-5c0-1-.77-1.36-1.65-.78l-12,7a3.66,3.66,0,0,0-1.45,2.71Z"/><path class="cls-15" d="M920.1,650a3.36,3.36,0,0,0,1.17-1.14,3.26,3.26,0,0,0,.47-1.57v-4.94c0-1-.68-1.36-1.64-.87l-12,7.07A3.61,3.61,0,0,0,907,649.7a3.69,3.69,0,0,0-.51,1.55v4.94c0,1,.78,1.35,1.65.87Z"/><path class="cls-31" d="M908.19,656.67l12-7a3,3,0,0,0,.95-1,3.06,3.06,0,0,0,.41-1.28v-4.94c0-.87-.58-1.16-1.36-.67l-12,7a3.14,3.14,0,0,0-.88,1,3.08,3.08,0,0,0-.38,1.25V656C906.83,656.87,907.41,657.16,908.19,656.67Z"/><path class="cls-32" d="M906.83,651.25a3.07,3.07,0,0,1,.37-1.26,2.85,2.85,0,0,1,.89-1l12-7c.77-.49,1.35,0,1.35.58Z"/><path class="cls-32" d="M921.45,647.47a2.59,2.59,0,0,1-.38,1.3,2.62,2.62,0,0,1-1,.93l-12,7a.74.74,0,0,1-1.26-.58Z"/><path class="cls-20" d="M762.93,501.64l-63.91,37,18.79,8.23,67.78-39.22L771,501.25a9.17,9.17,0,0,0-4.07-.76A9,9,0,0,0,762.93,501.64Z"/><path class="cls-33" d="M876.33,646.6l10.65-5V645a3.82,3.82,0,0,1-.67,1.91,3.77,3.77,0,0,1-1.56,1.29l-7,3.2Z"/><path class="cls-33" d="M925.42,622.78a4.6,4.6,0,0,1,1.75-3.39l5.9-4.65V619a4.05,4.05,0,0,1-.49,1.73,4.21,4.21,0,0,1-1.15,1.37l-6,4.75Z"/><path class="cls-10" d="M785.88,507.64c-23.14,8.13-67.78,39.22-67.78,39.22l24.59-9.11L807.86,499S792,506,785.88,507.64Z"/><path class="cls-34" d="M742.89,536.79c29.72-19.85,53.26-32.44,53.26-32.44L786.46,508a351,351,0,0,0-59.84,34.37A89.15,89.15,0,0,0,742.89,536.79Z"/><path class="cls-19" d="M937.24,610.87a309.7,309.7,0,0,1-60.91,34.47L819.87,606.6l67.79-39.21,50.74,42.8Z"/><path class="cls-10" d="M880,575.91s-2.33,7.36-19.37,16.94a56.81,56.81,0,0,1-25.95,9.21l-15.11,4.45,67.11-39.41Z"/><path class="cls-10" d="M863.06,530.88a227.75,227.75,0,0,1-64.59,37.57s11.43,18.31,21.31,37.87a244.15,244.15,0,0,0,67.78-39.22S876.52,550.25,863.06,530.88Z"/><path class="cls-35" d="M800.11,568.94c3,4,11.82,19.36,20.25,36a243.27,243.27,0,0,0,65.94-38.15c-1.55-3.39-12.1-17.72-23.43-34.48l-2.23,1.94a189.33,189.33,0,0,1-16,11.43A304.47,304.47,0,0,1,800.11,568.94Z"/><path class="cls-19" d="M925.52,617,880,575.91s6.68-7.75,8.81-6.3a322.74,322.74,0,0,1,45,38.74Z"/><path class="cls-20" d="M925.52,617l-44.64-42.22,6.78-7.65A429.16,429.16,0,0,1,938.59,610Z"/><path class="cls-20" d="M877.78,644.76l-57.91-38.25,15-4.45,57.42,34.57Z"/><path class="cls-36" d="M844.47,604.86l1.06.68a2.74,2.74,0,0,0,2.33,0l10.65-4.74c1.26-.59,1.36-1.65,0-2.13l-1-.49a3.24,3.24,0,0,0-2.13,0l-10.55,4.65C843.88,603.41,843.6,604.28,844.47,604.86Z"/><path class="cls-19" d="M849.21,605.35l-.87.29L843.69,603l.68-.38Z"/><path class="cls-19" d="M851.44,604.57l-.87.2L846,602.15l.68-.38Z"/><path class="cls-19" d="M853.76,603.7l-.87.2-4.65-2.62.68-.29Z"/><path class="cls-19" d="M856,602.83l-.87.29-4.55-2.61.68-.39Z"/><path class="cls-19" d="M858.12,601.86l-.87.29-4.65-2.61.78-.39Z"/><path class="cls-19" d="M859.87,600.8l-.78.19-4.65-2.62.68-.38Z"/><path class="cls-36" d="M883.88,581.62l-1.07-.68a1.72,1.72,0,0,0-1-.29,1.75,1.75,0,0,0-1,.29l-8.33,6.59a1.5,1.5,0,0,0-.53.53,1.43,1.43,0,0,0-.2.73,1.46,1.46,0,0,0,.2.73,1.5,1.5,0,0,0,.53.53l1,.48a2.12,2.12,0,0,0,1.84,0l8.13-6.29C884.65,583.46,884.75,582.2,883.88,581.62Z"/><path class="cls-19" d="M879.72,581.43l.67-.39,4.46,2.71-.48.49Z"/><path class="cls-19" d="M878,582.59l.68-.29,4.36,2.62-.48.58Z"/><path class="cls-19" d="M876.13,583.85l.68-.39,4.46,2.72-.49.48Z"/><path class="cls-19" d="M874.39,585l.68-.29,4.36,2.62-.49.58Z"/><path class="cls-19" d="M872.74,586.37l.68-.39,4.36,2.71-.48.49Z"/><path class="cls-19" d="M871.39,587.82l.68-.38,4.45,2.71-.58.58Z"/><path class="cls-37" d="M864.51,540.08,880.59,564l-.49,2.81-12.3-7.36Z"/><path class="cls-37" d="M844.66,545.7l21.6,12.88-3.59-21.21-2-3.1A189.33,189.33,0,0,1,844.66,545.7Z"/><path class="cls-20" d="M807.86,499.41c2.62-1,55.2,31.47,55.2,31.47a223.56,223.56,0,0,1-64.59,37.57l-55.78-30.7A456.54,456.54,0,0,1,807.86,499.41Z"/><path class="cls-22" d="M690.21,556.06l3.39-4,.19,2.81,14.52,9-2.22,1.36Z"/><path class="cls-38" d="M695.63,543l.77.48a4.13,4.13,0,0,1,1,1.36,3.42,3.42,0,0,1,0,1.74v5.81a1.94,1.94,0,0,1,0,1.26h-1.16l-1.45-1c-.58,0,0,0-.78-.68v-2Z"/><path class="cls-11" d="M824.61,636v5.72l1.26-.78v-5.71Z"/><path class="cls-22" d="M856.47,653.09A45.09,45.09,0,0,0,843.4,640a10.44,10.44,0,0,0-12.1,1.35,11.11,11.11,0,0,0-3.1,7.56v3.68l-.58-7.27a11.05,11.05,0,0,1,8.6-9.64,10.83,10.83,0,0,1,4.57,0c12.2,1.74,19.36,16.65,19.36,16.65Z"/><path class="cls-10" d="M832.56,636.82a12.34,12.34,0,0,1,6.48-.58c12.21,1.64,18.89,17.33,18.89,17.33h-1.16a47.73,47.73,0,0,0-13.37-13.75,11.33,11.33,0,0,0-10.84,0c-1.45,0-3.59,4.07-4.26,12.3l-2.13-1.26C826.94,643.12,829,639.24,832.56,636.82Z"/><path class="cls-22" d="M705.7,565.45a19.32,19.32,0,0,1,12.49,2.23,29,29,0,0,1,11.43,17.82l1.94,7.35.77-.87s-.77-6.19-1.45-8.71a24.88,24.88,0,0,0-11-16.66,14.24,14.24,0,0,0-11.62-2.71Z"/><path class="cls-10" d="M730.88,596.63l-1.16-.77a36.71,36.71,0,0,0-.88-11.91,26.2,26.2,0,0,0-11.52-15.21,13.8,13.8,0,0,0-11.62-1.84,10.53,10.53,0,0,0-5.42,5.62c-.58,2.33-1.65-1-1.65-1l4.07-6.29h3a19.32,19.32,0,0,1,9,0,27.89,27.89,0,0,1,15,18.2,35.67,35.67,0,0,1,1.84,8.91l1.54,3.39Z"/><path class="cls-39" d="M832.75,625.88l2,1.16a1.81,1.81,0,0,1,.61.62,1.88,1.88,0,0,1,.26.83v.78a1.08,1.08,0,0,1-.16.42.9.9,0,0,1-.33.31.93.93,0,0,1-.43.12,1,1,0,0,1-.44-.08l-1.94-1.16a1.51,1.51,0,0,1-.65-.6,1.57,1.57,0,0,1-.22-.85v-.78a.91.91,0,0,1,.11-.42.84.84,0,0,1,.31-.31.86.86,0,0,1,.41-.13A.8.8,0,0,1,832.75,625.88Z"/><path class="cls-40" d="M832.36,626.17l2,1.16a1.56,1.56,0,0,1,.87,1.45v.78a.91.91,0,0,1-.11.42,1,1,0,0,1-.31.32.85.85,0,0,1-.41.12.8.8,0,0,1-.43-.09l-2-1.16a1.51,1.51,0,0,1-.65-.6,1.43,1.43,0,0,1-.22-.85v-.78a.78.78,0,0,1,.11-.42.75.75,0,0,1,.3-.31.77.77,0,0,1,.42-.13A.78.78,0,0,1,832.36,626.17Z"/><path class="cls-20" d="M877.1,646.31h-1.74a3.52,3.52,0,0,0-1.55,1.74c-.19.78-1,1.55-1.26,2.52a4.63,4.63,0,0,0-.37,1.79,4.55,4.55,0,0,0,.37,1.79s1.94,1.55,2.33,1.36l2.42-1.16A12,12,0,0,0,877.1,646.31Z"/><path class="cls-41" d="M873.91,565a19.37,19.37,0,0,0,11.13-.49c.58,1.07,1.07,1.84,1.26,2.33A243.27,243.27,0,0,1,820.36,605l-3.59-6.87C829.65,590.14,846.31,580.56,873.91,565Z"/><path class="cls-10" d="M792,602.83a5.14,5.14,0,0,0,1,3.25,5.07,5.07,0,0,0,2.84,1.88,8.84,8.84,0,0,0,2.41,0c4.27,0,9.69,0,10.37-.68s4.94,0,4.94,0a3,3,0,0,0,.78-1,3,3,0,0,0,.28-1.23,3,3,0,0,0-1.06-2.23l-.88-.68h-2.51a5.13,5.13,0,0,0,0-1,8.31,8.31,0,0,0-9.69-4.07C790.72,599.83,792,602.83,792,602.83Z"/><path class="cls-10" d="M769.42,591.11l7,4.07c0-1.26,0-2-1.16-2.91a39.32,39.32,0,0,0-4.17-2.42C769.32,588.89,769.42,591.11,769.42,591.11Z"/><path class="cls-10" d="M738,572.23l7,4.07c0-1.36,0-2.13-1.16-2.91a42.76,42.76,0,0,0-4.07-2.42C737.85,570,738,572.23,738,572.23Z"/><line class="cls-42" x1="803.28" y1="306.58" x2="803.28" y2="309.55"/><line class="cls-43" x1="803.28" y1="315.56" x2="803.28" y2="516.96"/><line class="cls-42" x1="803.28" y1="519.97" x2="803.28" y2="522.94"/><rect class="cls-44" x="540" y="915" width="540" height="915"/><g class="cls-45"><g class="cls-46"><path class="cls-47" d="M1325.17,916,203.61,269.87,1381.84-411,2503.4,235.17Z"/><path class="cls-28" d="M1891,40.5,396.68,158.3l649.68,375.87L1891,46.35Z"/><path class="cls-20" d="M1241.36-335.36,396.68,152.45l649.68,375.87L1891,40.5Z"/><path class="cls-48" d="M962-175,396.68,152.45l649.68,375.87,565.31-327.44Z"/><path class="cls-49" d="M1307.69-454.29l359,207.19L944,169.33,585-37.86Z"/><path class="cls-50" d="M607.13-37.86l700.56-403.69L1644.54-247.1,944,156.59Z"/><path class="cls-51" d="M1644.54-247.1,944,156.59l-12.24-7.06,668.1-385.27-304-175.65,11.86-30.16Z"/><path class="cls-51" d="M1360.45-74.79l-58.36,5.31,46.24-37.64L1107.69-82.26,871.13,47.1l81,42.49,146.62-13.33.25-.17,8.06-.71,59.77-34.79,15.38-12.49Z"/><path class="cls-52" d="M1368.39-179.63,1216.33-99.85,1189.68,92.34,981.83,360.14,1289.6,331l26.07-53.3,79.62-112.37,115.54-27.65Z"/></g></g></g><g id="Ramar"><path d="M0,.05v1920H1080V.05ZM1109.2,1958.79H-29.2V-37.33H1109.2Z"/><path d="M0,.05v1920H1080V.05ZM1109.2,1958.79H-29.2V-37.33H1109.2Z"/></g></svg>