<svg xmlns="http://www.w3.org/2000/svg" xmlns:xlink="http://www.w3.org/1999/xlink" viewBox="0 0 1080 1920"><defs><style>.cls-1,.cls-2{fill:none;}.cls-1,.cls-10,.cls-11,.cls-4,.cls-6,.cls-7,.cls-8,.cls-9{stroke:#00aeef;}.cls-3{fill:#fff;}.cls-4{fill:#00aeef;}.cls-5{clip-path:url(#clip-path);}.cls-6{fill:#91651f;}.cls-7{fill:#aa7723;}.cls-8{fill:#855107;}.cls-9{fill:#567601;}.cls-10{fill:#638800;}.cls-11{fill:#769c11;}.cls-12{clip-path:url(#clip-path-2);}.cls-13{clip-path:url(#clip-path-3);}.cls-14{fill:#6e7071;}.cls-15{fill:#79b53b;}.cls-16{fill:#c9c9c9;}.cls-17{fill:#efefef;}</style><clipPath id="clip-path"><rect class="cls-1" x="18.58" y="646.06" width="972.86" height="1183.94"/></clipPath><clipPath id="clip-path-2"><polygon class="cls-2" points="3586.53 2258.47 2506.53 2893.66 2506.53 2116.18 3586.53 2114.95 3586.53 2258.47"/></clipPath><clipPath id="clip-path-3"><rect class="cls-2" x="2506.53" y="2109.44" width="1114.15" height="1120.09"/></clipPath></defs><title>ledtec-notext</title><g id="Lager_1" data-name="Lager 1"><rect class="cls-3" x="1" y="1830" width="1078" height="90"/><rect class="cls-4" width="1080" height="1830"/><g class="cls-5"><path class="cls-6" d="M658.52,1445a30.37,30.37,0,0,1-13.1,2c-18.85-2.46-3.28-36,0-46.29s4.5-19.26,7-28.27,9-25.4,12.71-38.51a2.39,2.39,0,0,0,.33-1.23,2.44,2.44,0,0,0-.33-1.23c-2.46,4.1-3.69,9-6.14,13.52s-5.33,11.06-7.79,16.8c-4.51,12.29-8.61,25-12.7,37.69a395.71,395.71,0,0,1-47.93,93.4c-4.5,7.37-9,14.75-13.12,22.53a129,129,0,0,0-18,41,231.28,231.28,0,0,0,0,29.08,130,130,0,0,1-2.88,21.71,520.14,520.14,0,0,1-8.19,57.35l7.38-33.18a584.75,584.75,0,0,1,19.66-66A190.7,190.7,0,0,1,604,1507.67,167.78,167.78,0,0,1,629,1479a248.15,248.15,0,0,1,41-21.71,139.26,139.26,0,0,0,35.24-32.36A352.81,352.81,0,0,0,754.38,1343a64.29,64.29,0,0,0,7.78-41,375.87,375.87,0,0,0-30.3,60.22,216.26,216.26,0,0,1-33.6,58.17A105.22,105.22,0,0,1,658.52,1445Z"/><path class="cls-7" d="M554.88,1624.42a9.51,9.51,0,0,0,0-3.28,142,142,0,0,0,2.86-22.12,174.42,174.42,0,0,1,0-29.09,120.19,120.19,0,0,1,18-38.91c4.11-7.79,8.21-15.16,12.71-22.13a409,409,0,0,0,48.34-93.81c3.69-12.7,7.78-25.4,12.7-37.69a70.33,70.33,0,0,1,4.91-11.47c3.28-10.65,7.78-20.89,10.66-32a2.41,2.41,0,0,0,.33-1.23,2.44,2.44,0,0,0-.33-1.23h0c-2.46,4.1-3.69,9-6.14,13.52s-5.33,11.06-7.79,16.8c-4.51,12.29-8.61,25-12.7,37.69a395.71,395.71,0,0,1-47.93,93.4c-4.5,7.37-9,14.75-13.12,22.53a129,129,0,0,0-18,41,231.28,231.28,0,0,0,0,29.08,130,130,0,0,1-2.88,21.71,520.14,520.14,0,0,1-8.19,57.35l7.38-33.18Z"/><path class="cls-6" d="M432,1411a13.94,13.94,0,0,0,18.43,0,20.5,20.5,0,0,0,4.52-18c0-4.91-2.05-9.83-2.88-14.74-4.09-20.9-8.59-41-13.11-62.68a376.56,376.56,0,0,1-9.42-85.62h2q8.61,34,14.76,67.59a335.6,335.6,0,0,0,9,41,161,161,0,0,0,5.74,18.84c0,5.33,2.86,10.65,4.5,16a312.07,312.07,0,0,0,12.3,32.77c4.91,11.06,10.24,21.71,15.14,32.77a411.24,411.24,0,0,0,22.13,41,131,131,0,0,1,18,41,165.37,165.37,0,0,1,0,28.67,194,194,0,0,0,3.28,22.12,395.85,395.85,0,0,0,8.19,57.35c-2.86-11.06-5.33-22.12-7.78-33.18a614.45,614.45,0,0,0-19.25-66.36,196.42,196.42,0,0,0-29.09-57.76,204.15,204.15,0,0,0-24.58-28.27,309.79,309.79,0,0,0-29.9-17.2,100.25,100.25,0,0,1-24.17-23.36,139.75,139.75,0,0,1-41-77,62.61,62.61,0,0,0,11.88,20.89L400,1374.94A153.44,153.44,0,0,0,432,1411Z"/><path class="cls-7" d="M441.41,1310.21a354.19,354.19,0,0,0,9,41c2,6.14,3.28,12.7,5.74,18.84s2.87,10.65,4.51,16,7.78,22.12,12.29,32.77,10.64,21.71,15.16,32.77a403,403,0,0,0,22.11,41,120.14,120.14,0,0,1,18,41,231.44,231.44,0,0,1,0,29.09,19.44,19.44,0,0,0,0,7c2.46,9.42,5.32,19.25,7.38,29.08s4.91,22.12,7.78,33.18a393.32,393.32,0,0,1-8.2-57.35,189.63,189.63,0,0,1-3.27-22.12,167.49,167.49,0,0,0,0-28.68,131.75,131.75,0,0,0-18-41,406.16,406.16,0,0,1-22.12-41c-4.92-11.06-10.25-21.71-15.16-32.77a316.46,316.46,0,0,1-12.28-32.77c0-5.33-2.87-10.65-4.52-16a167,167,0,0,1-5.73-18.84,337.51,337.51,0,0,1-9-41q-6.13-33.59-14.74-67.59h-2a214.07,214.07,0,0,0,0,22.94C434,1272.11,438.13,1291,441.41,1310.21Z"/><path class="cls-6" d="M566.76,1846v2.46a7.69,7.69,0,0,1,0,2.87A37.69,37.69,0,0,1,534.4,1862c-14.76,0-26.63-7-29.09-14.75V1844a43.59,43.59,0,0,1,3.28-6.14,16.74,16.74,0,0,0,2.86-4.51l2.05-3.68a125.66,125.66,0,0,0,8.19-35.23c2-12.7,2.88-25.4,3.69-38.1v-84.8c-2.46-70.87,0-141.74,2.87-212.61v-16.39c0-15.16,0-30.72,2-45.88s0-33.18,2.86-49.57V1313.9a97.16,97.16,0,0,0,0-11.06c0-3.69,0-7.38,2.05-11.06a105.58,105.58,0,0,1,2.06-11.06,194.44,194.44,0,0,1,4.91-20.9s0-4.91,4.09-5.32a6.63,6.63,0,0,1,2.88,2.86v4.51c0,57.35,3.27,114.7,4.5,171.65,0,36.46,0,72.92-2,109.79v63.9c0,29.09,2.86,58.17,3.69,87.26a551.09,551.09,0,0,1-2.87,68.82c0,14.34-3.27,28.68-4.51,43.43v2.86a5.81,5.81,0,0,1,0,2.87,26.14,26.14,0,0,0,0,5.73,16.22,16.22,0,0,0,0,4.51,23.91,23.91,0,0,0,3.69,10.24l2.86,3.28Z"/><path class="cls-8" d="M554.88,1260.23a388.75,388.75,0,0,0-11.06,58.58c-6.14,46.3-6.55,94.64-9,140.52-3.69,70.87-5.31,141.74-2.86,212.61v84.8a300.51,300.51,0,0,1-3.69,38.1,126.72,126.72,0,0,1-8.19,35.23,35.68,35.68,0,0,1-15.15,17.61v-3.28a43.47,43.47,0,0,1,3.26-6.14,16.81,16.81,0,0,0,2.88-4.51l2-3.68a125.32,125.32,0,0,0,8.19-35.23c2.05-12.7,2.88-25.4,3.69-38.1v-84.8c-2.45-70.87,0-141.74,2.88-212.61v-16.39c0-15.16,0-30.72,2-45.88s0-33.18,2.87-49.57v-33.18a102,102,0,0,0,0-11.06c0-3.69,0-7.38,2-11.06a111.53,111.53,0,0,1,2.05-11.06,192.12,192.12,0,0,1,4.92-20.9s0-4.91,4.1-5.32h9Z"/><path class="cls-7" d="M566.76,1846v2.46a7.69,7.69,0,0,1,0,2.87h-4.51l-4.1-2.46a26.25,26.25,0,0,1-7.78-5.32,34,34,0,0,1-8.19-31.55c0-14.75,2.45-29.08,4.09-43.42a643,643,0,0,0,3.29-68.82c0-29.09-2.88-58.17-3.69-87.26v-63.91c0-36.46,2.45-73.32,0-109.79s0-79.47-2.88-119.21V1282a192.12,192.12,0,0,1,4.92-20.9s0-4.91,4.1-5.32a6.51,6.51,0,0,1,2.86,2.87v4.5c0,57.35,3.28,114.71,4.52,171.65,0,36.46,0,72.92-2,109.79v63.9c0,29.09,2.86,58.18,3.69,87.26a556.9,556.9,0,0,1-2.88,68.82c0,14.34-3.28,28.68-4.5,43.43v2.86a6.32,6.32,0,0,1,0,2.87,25,25,0,0,0,0,5.74,14.76,14.76,0,0,0,0,4.5,23.7,23.7,0,0,0,3.69,10.24l2.86,3.28Z"/><path class="cls-9" d="M336.12,1124.64c-19.66-7.38-38.1-55.72-38.1-55.72a204.63,204.63,0,0,1,45.07-15.56v-7a258.17,258.17,0,0,1-36,0s4.5-53.66,20.49-67.18l4.09-2.46a168.67,168.67,0,0,1-45.07-47.11,185.39,185.39,0,0,1,56.12-25.81,48.68,48.68,0,0,1-22.11-11.47c-14.35-15.57-9-67.18-9-67.18a204.69,204.69,0,0,1,31.55,2.87v-5.74l16.79,9.83a41.53,41.53,0,0,1,8.61,3.28,175.3,175.3,0,0,1,63.09-10.24v25h.4c12.29,2.45,26.21,18.84,36,32a228.87,228.87,0,0,1,34.42-16.39,239.23,239.23,0,0,1,9.42,31.55c0,2.05,13.11,0,14.75,0a126,126,0,0,0,14.33-8.2,24,24,0,0,1,8.76-4.17,23.61,23.61,0,0,1,9.69-.33,2,2,0,0,1,1-.28,2,2,0,0,1,1,.28,4.47,4.47,0,0,1,0,2.46c2.05,8.6,0,18.84,4.1,27.44s0,4.92,6.56,3.28h5.31s19.26,50.39,10.66,69.64a33.61,33.61,0,0,1-7,9,75.34,75.34,0,0,1-11.47,41,222,222,0,0,1,28.68,19.25,224,224,0,0,1-34,34.83A115.17,115.17,0,0,1,577,1152.08a23.69,23.69,0,0,1-4.5,7.38,141.73,141.73,0,0,1,31.94,57.35,204.4,204.4,0,0,1-20.88,7,27.15,27.15,0,0,0,0,9.43c0,6.55,8.6,8.19,14.74,11.47h0a74.87,74.87,0,0,1-16.8,20.48c-4.5,3.69-11,5.73-13.52,11.06-7,13.52,14.35,11.88,23.36,13.93,0,0-7.78,49.16-24.58,61.86v31.13a46.12,46.12,0,0,1,0,25v26.63l-6.56-3.69c-3.69,10.24-7.36,18-7.36,18s-48.76-17.62-56.55-37.28a26.69,26.69,0,0,1-2-8.2,232.6,232.6,0,0,1-34.42,25,219.37,219.37,0,0,1-22.11-43,29.22,29.22,0,0,1-5.33,4.91c-18.44,10.25-68-4.91-68-4.91a251.55,251.55,0,0,1,11.05-34.41,199.53,199.53,0,0,1-47.91,6.14s-4.11-52,10.23-67.18a24.19,24.19,0,0,1,9.43-6.56,182.66,182.66,0,0,1-38.51-49.15l14.74-7.38a94.82,94.82,0,0,1,12.7-4.5,8.62,8.62,0,0,0,5.74-9.43,18,18,0,0,0-4.92-7.37l-6.55-7a6.28,6.28,0,0,1,0-2.86,225,225,0,0,1-25.81-36.46,225.13,225.13,0,0,1,41-20.08v-10.65Z"/><path class="cls-10" d="M771.58,1124.64c19.66-7.38,38.11-55.72,38.11-55.72a205.08,205.08,0,0,0-45.06-15.56v-7a258,258,0,0,0,36,0s-4.5-53.66-20.48-67.18l-4.09-2.46a168.92,168.92,0,0,0,45.06-47.11A185.39,185.39,0,0,0,765,903.83a52.8,52.8,0,0,0,22.52-11.47c13.94-15.57,8.61-67.18,8.61-67.18a204.45,204.45,0,0,0-31.54,2.87v-5.74l-16.8,9.83a53.94,53.94,0,0,0-8.61,3.28,175.25,175.25,0,0,0-63.08-10.24,231.47,231.47,0,0,0,0,25h-2.87c-11.88,2.45-26.21,18.84-36.06,32a228.08,228.08,0,0,0-34.39-16.39,237.77,237.77,0,0,0-9.43,31.55c0,2.05-12.7,0-14.34,0a103,103,0,0,1-14.74-8.2,24,24,0,0,0-8.76-4.17,23.57,23.57,0,0,0-9.68-.33,2.1,2.1,0,0,0-1-.28,2,2,0,0,0-1,.28,4.47,4.47,0,0,0,0,2.46c-2.05,8.6,0,18.84-4.09,27.44s0,4.92-6.15,3.28h-5.73s-19.26,50.39-10.66,69.64a28.46,28.46,0,0,0,7.38,9,72,72,0,0,0,11.06,41A220.6,220.6,0,0,0,507,1056.63a224.4,224.4,0,0,0,34,34.83,115.17,115.17,0,0,0-12.69,60.62,23.35,23.35,0,0,0,4.51,7.38,141.77,141.77,0,0,0-32,57.35,206.22,206.22,0,0,0,20.89,7,27.15,27.15,0,0,1,0,9.43c0,6.55-8.6,8.19-14.74,11.47h0a74.84,74.84,0,0,0,16.79,20.48c4.51,3.69,11.06,5.73,13.94,11.06,6.55,13.52-14.76,11.88-23.77,13.93,0,0,7.78,49.16,24.58,61.86v31.13a46.31,46.31,0,0,0,0,25v26.63l6.56-3.69c3.68,10.24,7.37,18,7.37,18s48.75-17.62,56.94-37.28a46.78,46.78,0,0,0,0-8.2,233.12,233.12,0,0,0,34.42,25,197.26,197.26,0,0,0,22.11-43,29.55,29.55,0,0,0,5.33,4.91c18.44,10.25,68-4.91,68-4.91a251.55,251.55,0,0,0-11.05-34.41,199.62,199.62,0,0,0,47.93,6.14s4.09-52-10.25-67.18a24.15,24.15,0,0,0-9.42-6.56,182.63,182.63,0,0,0,38.5-49.15l-14.74-7.38a77.9,77.9,0,0,0-12.7-4.5,8.21,8.21,0,0,1-5.33-9.43,13.92,13.92,0,0,1,4.52-7.37l6.55-7a6.57,6.57,0,0,0,0-2.86,225,225,0,0,0,25.8-36.46,225.36,225.36,0,0,0-41-20.08v-10.65Z"/><path class="cls-11" d="M735.12,780.12h-6.54l-13.93-8.2a7.25,7.25,0,0,0,0-2.86c-3.28-22.53-51.21-56.95-51.21-56.95s-4.1,5.74-9.43,14.34c-5.33-22.53-55.71-53.25-55.71-53.25s-4.1,7-9,16.79a234.43,234.43,0,0,0-47.1-38.51,258.56,258.56,0,0,0-22.13,45.89c-3.27-8.61-6.14-14.34-6.14-14.34s-52.84,20.48-61.45,41a40.75,40.75,0,0,0,0,16.39h-2a201,201,0,0,0-58.57,4.92,257.24,257.24,0,0,0,5.33,26.21l-13.52,7.79a33.94,33.94,0,0,0-16-3.28c-22.94,0-60.62,46.7-60.62,46.7s44.65,38.1,67.59,36a25.71,25.71,0,0,0,10.24-2.87h2a12.67,12.67,0,0,0,0,3.69c2.88,22.94,49.58,55.3,49.58,55.3s7.37-9,15.56-21.3l8.61,4.92a217.53,217.53,0,0,0,35.63,52.43,260.57,260.57,0,0,0,20.09-20.07l7,3.69a23.06,23.06,0,0,0,4.1,6.14,56.2,56.2,0,0,0,25.81,11.47h3.69a245.23,245.23,0,0,0,44.24,4.51V927.59a221,221,0,0,0,25.4,22.94,207.65,207.65,0,0,0,31.95-55.71l6.56-4.1a311.78,311.78,0,0,0,29.49,27,190.29,190.29,0,0,0,33.18-61.86,37.63,37.63,0,0,0,16.39,3.28c22.94-2.46,59.81-48.34,59.81-48.34S759.71,778.07,735.12,780.12Z"/></g><rect class="cls-1" x="18.58" y="646.06" width="972.86" height="1183.94"/><g class="cls-12"><g class="cls-13"><path class="cls-14" d="M2558.52,3953,307.94,2656.4,2672.22,1290.18,4922.8,2586.77Z"/><path class="cls-15" d="M2390.33,1441.9l-1695,978.88L1999.05,3175l1695-978.88Z"/><path class="cls-16" d="M1829.73,1763.72,695.36,2420.78,1999.05,3175,3133.42,2518Z"/><path class="cls-17" d="M2523.44,1203.26,3243.72,1619,1793.6,2454.64l-720.28-415.76Z"/></g></g></g><g id="Ramar"><path d="M0-.68v1920H1080V-.68ZM1109.2,1958.06H-29.2V-38.06H1109.2Z"/></g></svg>