<svg xmlns="http://www.w3.org/2000/svg" xmlns:xlink="http://www.w3.org/1999/xlink" viewBox="0 0 1080 1920"><defs><style>.cls-1,.cls-54,.cls-55{fill:none;}.cls-2{clip-path:url(#clip-path);}.cls-3{clip-path:url(#clip-path-2);}.cls-4{fill:#6e7071;}.cls-5{fill:#00aeef;}.cls-6{fill:#91651f;}.cls-7{fill:#aa7723;}.cls-8{fill:#855107;}.cls-9{fill:#567601;}.cls-10{fill:#638800;}.cls-11{fill:#769c11;}.cls-12{fill:#06395b;}.cls-13{fill:#1595bc;}.cls-14{fill:#414c5c;}.cls-15{fill:#293237;}.cls-16{fill:url(#Namnlös_övertoning_68);}.cls-17{fill:#a1a1a1;}.cls-18{fill:url(#Namnlös_övertoning_69);}.cls-19{fill:#d3d3d3;}.cls-20{fill:#b6b6b6;}.cls-21{fill:url(#Namnlös_övertoning_68-2);}.cls-22{fill:url(#Namnlös_övertoning_69-2);}.cls-23{fill:#73a538;}.cls-24{fill:#79b53b;}.cls-25{fill:#577729;}.cls-26{fill:#546672;}.cls-27{fill:#409e4e;}.cls-28{fill:#529ba3;}.cls-29{fill:#141e25;}.cls-30{fill:#9cb7d2;}.cls-31{fill:#768a99;}.cls-32{fill:#c4c4c4;}.cls-33{fill:#bed5df;}.cls-34{fill:#12181d;}.cls-35{fill:#efec82;}.cls-36{fill:#d3a944;}.cls-37{fill:#e8f0f3;}.cls-38{fill:#88d5de;}.cls-39{fill:#3d7d87;}.cls-40{fill:#3e2f37;}.cls-41{fill:#95c9b1;}.cls-42{fill:#e08a35;}.cls-43{fill:#e06e18;}.cls-44{fill:#e0ab35;}.cls-45{fill:#5b949c;}.cls-46{fill:url(#Namnlös_övertoning_68-3);}.cls-47{fill:url(#Namnlös_övertoning_69-3);}.cls-48{fill:url(#Namnlös_övertoning_68-4);}.cls-49{fill:url(#Namnlös_övertoning_69-4);}.cls-50{fill:url(#Namnlös_övertoning_68-5);}.cls-51{fill:url(#Namnlös_övertoning_69-5);}.cls-52{fill:url(#Namnlös_övertoning_68-6);}.cls-53{fill:url(#Namnlös_övertoning_69-6);}.cls-54,.cls-55{stroke:#fff;stroke-miterlimit:10;stroke-width:1.49px;}.cls-55{stroke-dasharray:6.01 6.01;}</style><clipPath id="clip-path"><polygon class="cls-1" points="-1294.97 2212.47 -2374.97 2847.66 -2374.97 2070.18 -1294.97 2068.95 -1294.97 2212.47"/></clipPath><clipPath id="clip-path-2"><rect class="cls-1" x="-2374.98" y="2063.44" width="1114.15" height="1120.09"/></clipPath><linearGradient id="Namnlös_övertoning_68" x1="-429.48" y1="2502.84" x2="-367.59" y2="2502.84" gradientTransform="matrix(1, 0, 0, -1, 0, 3862)" gradientUnits="userSpaceOnUse"><stop offset="0.16" stop-color="#3c4851"/><stop offset="0.56" stop-color="#556773"/><stop offset="0.87" stop-color="#51626e"/></linearGradient><linearGradient id="Namnlös_övertoning_69" x1="238.15" y1="1631.41" x2="258" y2="1656.08" gradientTransform="matrix(1, 0, 0, -1, 0, 3862)" gradientUnits="userSpaceOnUse"><stop offset="0.16" stop-color="#e3e3e3"/><stop offset="0.56" stop-color="#ccc"/><stop offset="0.87" stop-color="#b7b7b7"/></linearGradient><linearGradient id="Namnlös_övertoning_68-2" x1="-280.61" y1="2541.57" x2="-219.12" y2="2541.57" xlink:href="#Namnlös_övertoning_68"/><linearGradient id="Namnlös_övertoning_69-2" x1="265.97" y1="1788.23" x2="285.81" y2="1812.92" xlink:href="#Namnlös_övertoning_69"/><linearGradient id="Namnlös_övertoning_68-3" x1="-650.27" y1="2580.07" x2="-588.38" y2="2580.07" xlink:href="#Namnlös_övertoning_68"/><linearGradient id="Namnlös_övertoning_69-3" x1="17.36" y1="1708.63" x2="37.21" y2="1733.3" xlink:href="#Namnlös_övertoning_69"/><linearGradient id="Namnlös_övertoning_68-4" x1="-501.4" y1="2618.8" x2="-439.91" y2="2618.8" xlink:href="#Namnlös_övertoning_68"/><linearGradient id="Namnlös_övertoning_69-4" x1="45.17" y1="1865.45" x2="65.02" y2="1890.14" xlink:href="#Namnlös_övertoning_69"/><linearGradient id="Namnlös_övertoning_68-5" x1="-1751.65" y1="3206.48" x2="-1634.22" y2="3206.48" xlink:href="#Namnlös_övertoning_68"/><linearGradient id="Namnlös_övertoning_69-5" x1="-484.72" y1="1552.77" x2="-447.04" y2="1599.59" xlink:href="#Namnlös_övertoning_69"/><linearGradient id="Namnlös_övertoning_68-6" x1="-1469.16" y1="3279.98" x2="-1352.46" y2="3279.98" xlink:href="#Namnlös_övertoning_68"/><linearGradient id="Namnlös_övertoning_69-6" x1="-431.93" y1="1850.37" x2="-394.27" y2="1897.22" xlink:href="#Namnlös_övertoning_69"/></defs><title>ledtec-notext</title><g id="Lager_1" data-name="Lager 1"><g class="cls-2"><g class="cls-3"><path class="cls-4" d="M-2323,3907-4573.56,2610.4l2364.28-1366.22L41.3,2540.77Z"/></g></g><rect class="cls-5" y="0.05" width="540" height="915"/><path class="cls-6" d="M328.71,730.52a14.94,14.94,0,0,1-6.48,1c-9.34-1.22-1.63-17.86,0-22.94s2.23-9.53,3.44-14,4.47-12.58,6.3-19.08a1.22,1.22,0,0,0,0-1.21c-1.22,2-1.83,4.46-3.05,6.69s-2.64,5.48-3.85,8.32c-2.24,6.09-4.27,12.38-6.3,18.67A195.87,195.87,0,0,1,295,754.27c-2.23,3.65-4.47,7.3-6.5,11.16a63.78,63.78,0,0,0-8.93,20.29,115.47,115.47,0,0,0,0,14.41,63.94,63.94,0,0,1-1.42,10.76,256.64,256.64,0,0,1-4.06,28.41l3.66-16.44a288.32,288.32,0,0,1,9.74-32.67,94.72,94.72,0,0,1,14.2-28.62,83.33,83.33,0,0,1,12.38-14.2,123.57,123.57,0,0,1,20.3-10.76,69.07,69.07,0,0,0,17.46-16A174.78,174.78,0,0,0,376.21,680a31.86,31.86,0,0,0,3.85-20.3,186.83,186.83,0,0,0-15,29.84,107.28,107.28,0,0,1-16.65,28.82A52.1,52.1,0,0,1,328.71,730.52Z"/><path class="cls-7" d="M277.37,819.41a4.41,4.41,0,0,0,0-1.62,70.84,70.84,0,0,0,1.42-11,86.67,86.67,0,0,1,0-14.41,59.59,59.59,0,0,1,8.93-19.28c2-3.85,4.06-7.51,6.29-11A202.33,202.33,0,0,0,318,715.71c1.83-6.29,3.86-12.59,6.29-18.67a34.45,34.45,0,0,1,2.44-5.69c1.62-5.27,3.85-10.35,5.28-15.83a1.22,1.22,0,0,0,0-1.21h0c-1.22,2-1.83,4.46-3.05,6.69s-2.64,5.48-3.85,8.32c-2.24,6.09-4.27,12.38-6.3,18.67A195.87,195.87,0,0,1,295,754.27c-2.23,3.65-4.47,7.3-6.5,11.16a63.78,63.78,0,0,0-8.93,20.29,115.47,115.47,0,0,0,0,14.41,63.94,63.94,0,0,1-1.42,10.76,256.64,256.64,0,0,1-4.06,28.41l3.66-16.44Z"/><path class="cls-6" d="M216.49,713.68a6.92,6.92,0,0,0,9.13,0,10.19,10.19,0,0,0,2.18-4.2,10.08,10.08,0,0,0,0-4.73c0-2.44-1-4.87-1.42-7.31-2-10.35-4.26-20.29-6.5-31.05A186.84,186.84,0,0,1,215.26,624h1q4.26,16.85,7.31,33.49a165.9,165.9,0,0,0,4.46,20.3,80.27,80.27,0,0,0,2.85,9.33c0,2.64,1.41,5.28,2.23,7.92a153.77,153.77,0,0,0,6.09,16.23c2.43,5.48,5.07,10.76,7.5,16.24a202.36,202.36,0,0,0,11,20.29,65.14,65.14,0,0,1,8.92,20.3,82.12,82.12,0,0,1,0,14.2,93.72,93.72,0,0,0,1.63,11,194.53,194.53,0,0,0,4.06,28.42c-1.42-5.48-2.64-11-3.86-16.44a302.83,302.83,0,0,0-9.54-32.88,97.41,97.41,0,0,0-14.41-28.62,100.72,100.72,0,0,0-12.18-14,151.86,151.86,0,0,0-14.81-8.52,49.88,49.88,0,0,1-12-11.57,69.26,69.26,0,0,1-20.29-38.16,30.88,30.88,0,0,0,5.89,10.35l9.53,14A76,76,0,0,0,216.49,713.68Z"/><path class="cls-7" d="M221.16,663.75a173.69,173.69,0,0,0,4.46,20.3c1,3,1.62,6.29,2.84,9.33s1.42,5.28,2.24,7.92,3.85,11,6.08,16.23,5.27,10.76,7.51,16.24a200.27,200.27,0,0,0,11,20.29,59.58,59.58,0,0,1,8.93,20.3,115.47,115.47,0,0,1,0,14.41,9.53,9.53,0,0,0,0,3.45c1.22,4.67,2.63,9.54,3.66,14.41s2.43,11,3.85,16.44a194.53,194.53,0,0,1-4.06-28.42A91.76,91.76,0,0,1,266,783.7a84.29,84.29,0,0,0,0-14.21,65.19,65.19,0,0,0-8.94-20.3,202.19,202.19,0,0,1-10.95-20.29c-2.44-5.48-5.08-10.76-7.51-16.24a156,156,0,0,1-6.09-16.23c0-2.64-1.42-5.28-2.24-7.92a86.49,86.49,0,0,1-2.84-9.33,167.78,167.78,0,0,1-4.46-20.3q-3-16.64-7.31-33.48h-1a107.62,107.62,0,0,0,0,11.36A170.4,170.4,0,0,1,221.16,663.75Z"/><path class="cls-6" d="M283.26,929.21v1.22a4.23,4.23,0,0,1,0,1.42,18.83,18.83,0,0,1-7.39,4.55,18.52,18.52,0,0,1-8.65.72c-7.3,0-13.19-3.45-14.4-7.3v-1.63a22.15,22.15,0,0,1,1.62-3,8.29,8.29,0,0,0,1.42-2.23l1-1.83a62,62,0,0,0,4.06-17.45c1-6.29,1.42-12.59,1.83-18.88v-42c-1.22-35.11,0-70.22,1.42-105.33V729.3a169.54,169.54,0,0,1,1-22.73c1-7.51,0-16.44,1.41-24.55V665.58a50.09,50.09,0,0,0,0-5.48,10.51,10.51,0,0,1,1-5.48,51.28,51.28,0,0,1,1-5.48,96.55,96.55,0,0,1,2.43-10.35s0-2.44,2-2.64a3.25,3.25,0,0,1,1.42,1.42v2.23c0,28.42,1.62,56.83,2.23,85,0,18.06,0,36.12-1,54.39v31.66c0,14.41,1.42,28.82,1.83,43.23a273.3,273.3,0,0,1-1.43,34.09c0,7.11-1.62,14.21-2.23,21.52v1.42a2.85,2.85,0,0,1,0,1.42,12.26,12.26,0,0,0,0,2.84,7.58,7.58,0,0,0,0,2.23,11.79,11.79,0,0,0,1.83,5.07l1.42,1.63Z"/><path class="cls-8" d="M277.37,639a193.3,193.3,0,0,0-5.48,29c-3,22.94-3.24,46.89-4.46,69.62C265.6,772.74,264.79,807.85,266,843v42a149.35,149.35,0,0,1-1.83,18.87,62.71,62.71,0,0,1-4.06,17.45,17.66,17.66,0,0,1-7.51,8.73V928.4a21.7,21.7,0,0,1,1.62-3,8.41,8.41,0,0,0,1.43-2.23l1-1.83a62.36,62.36,0,0,0,4.06-17.45c1-6.29,1.42-12.58,1.83-18.87V843c-1.22-35.11,0-70.22,1.42-105.33v-8.12a171.21,171.21,0,0,1,1-22.73c1-7.51,0-16.44,1.42-24.56V665.78a50.09,50.09,0,0,0,0-5.48,10.53,10.53,0,0,1,1-5.48,53.86,53.86,0,0,1,1-5.48A94.25,94.25,0,0,1,270.88,639s0-2.43,2-2.64h4.46Z"/><path class="cls-7" d="M283.26,929.21v1.22a4.23,4.23,0,0,1,0,1.42H281l-2-1.22a12.88,12.88,0,0,1-3.85-2.64,16.86,16.86,0,0,1-4.06-15.62c0-7.31,1.22-14.41,2-21.52a318.21,318.21,0,0,0,1.62-34.09c0-14.41-1.42-28.82-1.82-43.23V781.87c0-18.06,1.21-36.33,0-54.39s0-39.37-1.43-59.06V649.75a94.25,94.25,0,0,1,2.44-10.35s0-2.44,2-2.64a3.25,3.25,0,0,1,1.42,1.42v2.23c0,28.42,1.62,56.83,2.23,85,0,18.06,0,36.12-1,54.39V811.5c0,14.41,1.42,28.82,1.83,43.23A275.23,275.23,0,0,1,279,888.82c0,7.11-1.62,14.21-2.23,21.52v1.42a3.1,3.1,0,0,1,0,1.42,12.26,12.26,0,0,0,0,2.84,7.58,7.58,0,0,0,0,2.23,11.79,11.79,0,0,0,1.83,5.07L280,925Z"/><path class="cls-9" d="M169,571.82c-9.74-3.66-18.88-27.61-18.88-27.61a101.76,101.76,0,0,1,22.33-7.71v-3.45a126.74,126.74,0,0,1-17.86,0s2.23-26.58,10.15-33.28l2-1.22a83.43,83.43,0,0,1-22.33-23.34,91.68,91.68,0,0,1,27.8-12.78,24.23,24.23,0,0,1-11-5.69c-7.1-7.71-4.46-33.28-4.46-33.28a101.25,101.25,0,0,1,15.63,1.42V422l8.31,4.87a20.2,20.2,0,0,1,4.27,1.62,86.85,86.85,0,0,1,31.26-5.07v12.38h.2c6.08,1.22,13,9.34,17.85,15.83a113.29,113.29,0,0,1,17-8.12,118.41,118.41,0,0,1,4.67,15.63c0,1,6.5,0,7.31,0a63.14,63.14,0,0,0,7.1-4.06,11.85,11.85,0,0,1,4.34-2.07,11.71,11.71,0,0,1,4.79-.16,1,1,0,0,1,1,0,2.3,2.3,0,0,1,0,1.22c1,4.26,0,9.33,2,13.59s0,2.44,3.25,1.63h2.63s9.54,25,5.28,34.5a16.83,16.83,0,0,1-3.45,4.46,37.42,37.42,0,0,1-5.68,20.3,109.06,109.06,0,0,1,14.2,9.54A111.23,111.23,0,0,1,282,555.38a57,57,0,0,1,6.29,30,11.65,11.65,0,0,1-2.23,3.66,70.28,70.28,0,0,1,15.83,28.41,102.91,102.91,0,0,1-10.35,3.45,13.56,13.56,0,0,0,0,4.67c0,3.24,4.26,4.06,7.3,5.68h0a37,37,0,0,1-8.32,10.15c-2.23,1.82-5.47,2.84-6.7,5.48-3.44,6.69,7.11,5.88,11.58,6.9,0,0-3.86,24.35-12.18,30.64v15.43a23,23,0,0,1,0,12.38v13.19L280,723.62c-1.83,5.08-3.65,8.93-3.65,8.93s-24.16-8.73-28-18.47a13.24,13.24,0,0,1-1-4.06,114.42,114.42,0,0,1-17.05,12.38,108.9,108.9,0,0,1-10.95-21.31,14.54,14.54,0,0,1-2.64,2.44c-9.14,5.07-33.69-2.44-33.69-2.44a124.31,124.31,0,0,1,5.48-17,99.11,99.11,0,0,1-23.74,3s-2-25.77,5.07-33.28a11.92,11.92,0,0,1,4.67-3.25,90.56,90.56,0,0,1-19.08-24.35l7.3-3.66a48.07,48.07,0,0,1,6.3-2.23,4.28,4.28,0,0,0,2.84-4.67A9,9,0,0,0,169.4,612l-3.25-3.45a3.4,3.4,0,0,1,0-1.42,111.85,111.85,0,0,1-12.78-18.06,111.26,111.26,0,0,1,20.29-10v-5.27Z"/><path class="cls-10" d="M384.73,571.82c9.74-3.66,18.88-27.61,18.88-27.61a101.94,101.94,0,0,0-22.33-7.71v-3.45a126.74,126.74,0,0,0,17.86,0s-2.23-26.58-10.14-33.28l-2-1.22a83.68,83.68,0,0,0,22.32-23.34,91.57,91.57,0,0,0-27.8-12.78,26.22,26.22,0,0,0,11.15-5.69c6.91-7.71,4.27-33.28,4.27-33.28a101,101,0,0,0-15.63,1.42V422L373,426.91a26.69,26.69,0,0,0-4.26,1.62,86.84,86.84,0,0,0-31.25-5.07,111.15,111.15,0,0,0,0,12.38H336c-5.88,1.22-13,9.34-17.86,15.83a112.72,112.72,0,0,0-17-8.12,119.94,119.94,0,0,0-4.67,15.63c0,1-6.29,0-7.11,0a51,51,0,0,1-7.3-4.06,11.92,11.92,0,0,0-4.34-2.07,11.71,11.71,0,0,0-4.79-.16,1,1,0,0,0-.51-.14,1,1,0,0,0-.51.14,2.3,2.3,0,0,0,0,1.22c-1,4.26,0,9.33-2,13.59s0,2.44-3,1.63H264s-9.54,25-5.28,34.5a14.18,14.18,0,0,0,3.65,4.46,35.68,35.68,0,0,0,5.49,20.3,107.83,107.83,0,0,0-14.21,9.54,111.23,111.23,0,0,0,16.84,17.25,57,57,0,0,0-6.29,30,11.65,11.65,0,0,0,2.23,3.66,70.28,70.28,0,0,0-15.83,28.41,102.91,102.91,0,0,0,10.35,3.45,13.56,13.56,0,0,1,0,4.67c0,3.24-4.26,4.06-7.3,5.68h0a37,37,0,0,0,8.31,10.15c2.24,1.82,5.49,2.84,6.91,5.48,3.24,6.69-7.31,5.88-11.78,6.9,0,0,3.86,24.35,12.18,30.64v15.43a23,23,0,0,0,0,12.38v13.19l3.25-1.83c1.82,5.08,3.65,8.93,3.65,8.93s24.16-8.73,28.21-18.47a22.94,22.94,0,0,0,0-4.06,114.93,114.93,0,0,0,17.05,12.38,97.41,97.41,0,0,0,11-21.31,14.54,14.54,0,0,0,2.64,2.44c9.13,5.07,33.69-2.44,33.69-2.44a124.31,124.31,0,0,0-5.48-17,99,99,0,0,0,23.75,3s2-25.77-5.08-33.28a11.92,11.92,0,0,0-4.67-3.25,90.76,90.76,0,0,0,19.08-24.35l-7.3-3.66a39,39,0,0,0-6.3-2.23,4.07,4.07,0,0,1-2.64-4.67A6.88,6.88,0,0,1,382.3,612l3.24-3.45a3.1,3.1,0,0,0,0-1.42,111.29,111.29,0,0,0,12.79-18.06,111,111,0,0,0-20.3-10v-5.27Z"/><path class="cls-11" d="M366.67,401.14h-3.25l-6.9-4.06a3.4,3.4,0,0,0,0-1.42c-1.62-11.17-25.37-28.21-25.37-28.21s-2,2.84-4.67,7.1c-2.64-11.16-27.6-26.38-27.6-26.38s-2,3.45-4.46,8.32a116.29,116.29,0,0,0-23.34-19.08,127.88,127.88,0,0,0-11,22.73c-1.62-4.26-3.05-7.1-3.05-7.1s-26.17,10.14-30.44,20.29a20.19,20.19,0,0,0,0,8.12h-1a99.72,99.72,0,0,0-29,2.44,127.53,127.53,0,0,0,2.64,13l-6.7,3.86a16.8,16.8,0,0,0-7.92-1.62c-11.37,0-30,23.13-30,23.13s22.12,18.88,33.48,17.86a12.67,12.67,0,0,0,5.07-1.42h1a6.24,6.24,0,0,0,0,1.83c1.42,11.36,24.56,27.4,24.56,27.4s3.65-4.47,7.71-10.56l4.27,2.44a108,108,0,0,0,17.65,26,129.73,129.73,0,0,0,10-9.95l3.44,1.83a11.54,11.54,0,0,0,2,3,27.75,27.75,0,0,0,12.79,5.68h1.83a121.26,121.26,0,0,0,21.92,2.24V474.2a110.19,110.19,0,0,0,12.58,11.36A102.79,102.79,0,0,0,328.71,458l3.26-2a154.47,154.47,0,0,0,14.61,13.4A94.28,94.28,0,0,0,363,438.68a18.8,18.8,0,0,0,8.12,1.63c11.37-1.22,29.63-23.95,29.63-23.95S378.85,400.12,366.67,401.14Z"/><rect class="cls-5" x="540" y="915" width="540" height="915"/><polygon class="cls-12" points="942.15 1586.18 852.59 1524.03 852.59 1319.15 942.15 1381.3 942.15 1586.18"/><polygon class="cls-13" points="986.86 1561.26 942.15 1586.18 942.15 1380.82 986.86 1355.89 986.86 1561.26"/><polygon class="cls-12" points="892.96 1287.24 986.86 1355.89 942.15 1380.82 851.22 1319.71 892.96 1287.24"/><path class="cls-14" d="M958.68,1310.26a4.82,4.82,0,0,1,.46-5.71c2-2.91,3.52-1.94,3.52-1.94a3.26,3.26,0,0,1,.77,4.34c-.92,1.73-1.84,4.13-2.5,4.13s-1,2.14-1,2.14l-1.89-1.94Z"/><path class="cls-15" d="M930.06,1357.62l12.8-7.09-15.46-6.48Z"/><path class="cls-15" d="M862.44,1318.84l12.81-7.1-15.46-6.48Z"/><path class="cls-16" d="M933.07,1351.8l2.29,3.68,5.46,9,2.71,4.44,3.62-2.1a4,4,0,0,0,1.69-2.44v-.62a1.77,1.77,0,0,0,0-.46v-.91a15.66,15.66,0,0,0-7.25-12.1l-.66-.36a5.23,5.23,0,0,0-2.2-.49,5.15,5.15,0,0,0-2.19.49Z"/><path class="cls-14" d="M931.33,1356.5a15.61,15.61,0,0,0,7.3,12.14c4,2.2,7.14.36,7.09-4.08a15.61,15.61,0,0,0-7.3-12.15C934.29,1350.22,931.33,1352.06,931.33,1356.5Z"/><path class="cls-17" d="M933.27,1357.67a5.92,5.92,0,0,0,0,1.33,12,12,0,0,0,1.58,3.87,10.73,10.73,0,0,0,1.69,2.05,6.73,6.73,0,0,0,1.73,1.32,4.4,4.4,0,0,0,1.43.56,2.9,2.9,0,0,0,2.09,0,2.86,2.86,0,0,0,.92-.91v-2.4a4.22,4.22,0,0,0,0-.87,5.61,5.61,0,0,0,0-.82,11.35,11.35,0,0,0-1.12-2.75l-.26-.41a14.9,14.9,0,0,0-1.32-1.73v-.31a8.54,8.54,0,0,0-1.33-1.07l-.51-.31-.51-.26h-1.23a4.82,4.82,0,0,0-.76,0,1.92,1.92,0,0,0-.72.31,2.89,2.89,0,0,0-1,.86,2.69,2.69,0,0,0-.47,1.18Z"/><path class="cls-15" d="M937.05,1355.83a5.48,5.48,0,0,0,0,1.28,11.43,11.43,0,0,0,1.58,3.88,11.24,11.24,0,0,0,1.68,2.09,10.27,10.27,0,0,0,1.74,1.33l1.07.46v-2.61a5.47,5.47,0,0,0,0-.81,10.53,10.53,0,0,0-1.12-2.76l-.26-.41a13.89,13.89,0,0,0-1.38-1.78v-.31a11.25,11.25,0,0,0-1.83-1.38l-.51-.25h-.57v.3A9,9,0,0,0,937.05,1355.83Z"/><path class="cls-18" d="M935.11,1354.3a3.54,3.54,0,0,0-1.07,2.91,11.12,11.12,0,0,0,1.53,4.92,11.3,11.3,0,0,0,3.57,3.71,4.12,4.12,0,0,0,1.55.59,4,4,0,0,0,1.66-.08,3.46,3.46,0,0,1-4,0,11.07,11.07,0,0,1-5.1-8.58,3.28,3.28,0,0,1,.34-2A3.25,3.25,0,0,1,935.11,1354.3Z"/><path class="cls-17" d="M934.65,1358.08l3.16,1.84-1.43,4.69c0,.26.92,0,.92,0l2.2-2.35,1.58,3.93c.51,0,0,.92.61.82a2.24,2.24,0,0,0,1-.66l-1.12-4.34,1.73,1a4.22,4.22,0,0,0,0-.87,7.06,7.06,0,0,0-.46-1.63l-1.48-1.13.51-1a14.9,14.9,0,0,0-1.32-1.73l-.72.87-1.22-2.5-.51-.26h-1.64l1.28,3.11-3.37-1.32s-.86.41-.86.86S934.6,1357.62,934.65,1358.08Z"/><path class="cls-19" d="M933.32,1358.64l3.27,2.14-1.18,2.66a3.1,3.1,0,0,0,1,1.22l1.79-1.73,1.89,4a1.92,1.92,0,0,0,1.58,0l-1.22-3.73,2.9,1.48a3.51,3.51,0,0,0,0-1.12,4.22,4.22,0,0,0,0-.87l-3.21-2.09,1.43-2.5a5.07,5.07,0,0,0-1.17-1.43l-1.89,1.79-2-4.14a2,2,0,0,0-1.43,0l1.22,3.88-3-1.38a4.22,4.22,0,0,0,0,.87A7.85,7.85,0,0,0,933.32,1358.64Z"/><path class="cls-20" d="M937.25,1359.92a2.47,2.47,0,0,0,1.12,1.88c.62.31,1.13,0,1.13-.66a2.38,2.38,0,0,0-.35-1.07,2.45,2.45,0,0,0-.78-.82C937.76,1359,937.25,1359.2,937.25,1359.92Z"/><path class="cls-21" d="M865.45,1313l2.25,3.67,5.51,9,2.7,4.44,3.58-2.09a3.93,3.93,0,0,0,1.63-2.45,1.09,1.09,0,0,0,0-.36v-.71a2.81,2.81,0,0,0,0-.71,15.32,15.32,0,0,0-7.3-12.1l-.61-.36a5.16,5.16,0,0,0-4.39,0Z"/><path class="cls-14" d="M863.56,1317.46a15.69,15.69,0,0,0,2.2,7,15.44,15.44,0,0,0,5.1,5.19c3.93,2.2,7.09.36,7-4.08a15.73,15.73,0,0,0-7.24-12.14C866.68,1311,863.51,1313,863.56,1317.46Z"/><path class="cls-15" d="M869.43,1316.8a5.4,5.4,0,0,0,0,1.27A9.78,9.78,0,0,0,871,1322a9.45,9.45,0,0,0,1.69,2.09,8.57,8.57,0,0,0,1.73,1.33,5.16,5.16,0,0,0,1.08.46,1.19,1.19,0,0,1,0-.46v-1a4.2,4.2,0,0,0,0-1.12,5.61,5.61,0,0,0,0-.82,13.19,13.19,0,0,0-1.18-2.76,1.34,1.34,0,0,0,0-.4,14,14,0,0,0-1.38-1.79l-.3-.31a8.06,8.06,0,0,0-1.84-1.38l-.46-.25h-.56v.31A8,8,0,0,0,869.43,1316.8Z"/><path class="cls-22" d="M867.44,1315.26a3.58,3.58,0,0,0-1,2.91,11.09,11.09,0,0,0,5.11,8.63,4.12,4.12,0,0,0,1.55.59,4,4,0,0,0,1.66-.08,3.41,3.41,0,0,1-4,0,11.15,11.15,0,0,1-3.58-3.68,11,11,0,0,1-1.52-4.9,3.14,3.14,0,0,1,.29-2A3.18,3.18,0,0,1,867.44,1315.26Z"/><path class="cls-17" d="M867,1319l3.17,1.84-1.48,4.69,1-.25,2.19-2.35,1.58,3.93c.51,0,0,.92.62.82a2.23,2.23,0,0,0,.91-.67l-.91-3.93,1.73,1a4.12,4.12,0,0,0,0-.86,6.68,6.68,0,0,0-.41-1.64l-1.53-1.12.51-1a11.46,11.46,0,0,0-1.38-1.74l-.66.87-1.27-2.5-.46-.25h-1.53l1.27,3.11-3.42-1.33s-.81.41-.81.87S866.93,1318.58,867,1319Z"/><path class="cls-19" d="M865.71,1319.6l3.26,2.15-1.22,2.65a4,4,0,0,0,1,1.22l1.84-1.73,1.88,4a1.94,1.94,0,0,0,1.59,0l-1.28-3.73,2.91,1.48a4.2,4.2,0,0,0,0-1.12,7.06,7.06,0,0,0,0-.92l-3.22-2,1.38-2.5a5,5,0,0,0-1.12-1.43l-1.89,1.79-2-4.14a2,2,0,0,0-1.43,0l1.23,3.88-3-1.38a2.12,2.12,0,0,0,0,.87A2.87,2.87,0,0,0,865.71,1319.6Z"/><path class="cls-20" d="M869.64,1320.88A2.54,2.54,0,0,0,870,1322a2.45,2.45,0,0,0,.78.82.71.71,0,0,0,1.12-.67,2.75,2.75,0,0,0-.38-1.07,2.65,2.65,0,0,0-.79-.81C870.1,1319.91,869.64,1320.16,869.64,1320.88Z"/><path class="cls-23" d="M859.13,1303.43v3.87l4.28,6.23c.26-.31.46-.61.72-.87a5.07,5.07,0,0,1,1.63-1.07,5.23,5.23,0,0,1,1.84-.31,7.76,7.76,0,0,1,3.72,1.08,16,16,0,0,1,5.67,5.81,15.43,15.43,0,0,1,2.19,7.3,8.48,8.48,0,0,1-.36,2.65l51.34,29.5v-1.12a6.74,6.74,0,0,1,1.63-4.8,4.62,4.62,0,0,1,1.18-.87,5.19,5.19,0,0,1,2.29-.56,7.92,7.92,0,0,1,3.73,1.12,16.66,16.66,0,0,1,6.07,6.48,15.83,15.83,0,0,1,1.84,6.69,9.68,9.68,0,0,1-.31,2.45l1.43.76,4.79-1.12,3.07-4.39-1.64-1,2-7.81L925.62,1333a90.08,90.08,0,0,0-11.23-20c-5.92-5.66-29.39-16.18-29.39-16.18l-13,4.8-9.9-4.34-1.94,2.3Z"/><path class="cls-24" d="M860.15,1299.85l95.17,53.94-29.7-20.46L872,1301.89l-9.9-4.33Z"/><path class="cls-23" d="M879.08,1325.47a8.48,8.48,0,0,1-.36,2.65l51.34,29.5v-1.12a6.74,6.74,0,0,1,1.63-4.8,4.75,4.75,0,0,1,1.17-.87l-56.13-32.66A15.33,15.33,0,0,1,879.08,1325.47Z"/><path class="cls-25" d="M920.31,1350.12l.25-9.49,1.18-6.53-.46-.11-1.23,6.53-.2,8.78L898,1337.41l-.87-9.49,1.53-8.32,0,0-8.57-14.9-.2.15-8.32,5v.1l-1.89,8.32,1.89,10.52.46-.06-1.84-10.46,1.84-8.11,7.86-4.69,8.26,14.34-1.48,8.16v.05l.92,9.85.1,0Z"/><path class="cls-26" d="M930.06,1354.71v2.2l-51.34-29.45a8.82,8.82,0,0,0,.36-2Z"/><path class="cls-27" d="M930,1354.3a7,7,0,0,1,1.28-4.33l1.53.86a4.75,4.75,0,0,0-1.17.87,6.16,6.16,0,0,0-1.58,3.73C930.06,1355.07,930,1354.66,930,1354.3Z"/><path class="cls-14" d="M930.06,1355.42v2.2l-51.34-29.5a7.43,7.43,0,0,0,.36-2Z"/><path class="cls-14" d="M857.29,1306.74v3l1,3.07,2.5,2.55,1.12,3.16.56.36a6.37,6.37,0,0,1,0-1.38,7.39,7.39,0,0,1,.92-3.93c.26-.31.46-.61.72-.87a5.07,5.07,0,0,1,1.63-1.07l-4.85-2.81-1-.61Z"/><path class="cls-14" d="M876,1304.29l1.58,4,3.62,2,.41.26.41.26,1.12.66.87.56.61.31.76.46.62.35,12.75,7.66,1.64,1,17.19,10.3.77.46,4.34,2.61.51-2.76-7.05-12.86-.76-1.43-2.3-4.18-25.77-14.14-.25-.2-.87-.46Z"/><path class="cls-28" d="M886.68,1300.26l-8.42,5.31.31,2.4L922.2,1334l.25-1.42-9.9-18.12Z"/><path class="cls-14" d="M881.73,1310.37l.56.61.41.2.41.26,5.61-10.36-.25-.61-.31-.21-.61.31Z"/><path class="cls-14" d="M897.75,1320l1.64,1,2.8-12.3-1.63-.82Z"/><path class="cls-14" d="M915.21,1318.07v12.25l.81.46.15-11.18-.76-1.43Z"/><path class="cls-26" d="M928.78,1348.49v3l-49.6-31.23.71-.36Z"/><path class="cls-14" d="M928.12,1348.89v3l-48.94-28.62v-3Z"/><path class="cls-15" d="M987.46,1342l.77-6.78-32.45,18.16-1.43,7.2S975.88,1355.27,987.46,1342Z"/><path class="cls-15" d="M954.6,1359.41v-1.13A113.68,113.68,0,0,0,987,1340c.26,0,.31-1.17.31-1.17v1s0,1-.31,1.18A112.6,112.6,0,0,1,954.6,1359.41Z"/><path class="cls-15" d="M954.6,1357.82v-1.12A113.68,113.68,0,0,0,987,1338.43c.26,0,.31-1.17.31-1.17v1s0,1-.31,1.17A112.13,112.13,0,0,1,954.6,1357.82Z"/><path class="cls-15" d="M954.6,1356.24v-1.12A113.92,113.92,0,0,0,987,1336.85c.26,0,.31-1.22.31-1.22v1s0,1-.31,1.22A113.47,113.47,0,0,1,954.6,1356.24Z"/><path class="cls-26" d="M954.6,1359.71v-1.17A111.82,111.82,0,0,0,987,1340.32c.26,0,.31-1.23.31-1.23v1s0,1-.31,1.22A113.47,113.47,0,0,1,954.6,1359.71Z"/><path class="cls-26" d="M954.6,1358.13V1357A113.16,113.16,0,0,0,987,1338.74c.26,0,.31-1.23.31-1.23v1s0,1-.31,1.23A113.71,113.71,0,0,1,954.6,1358.13Z"/><path class="cls-26" d="M954.6,1356.55v-1.18A112.17,112.17,0,0,0,987,1337.11c.26,0,.31-1.18.31-1.18v1s0,1-.31,1.18A113.12,113.12,0,0,1,954.6,1356.55Z"/><path class="cls-26" d="M954.81,1353.79A113.73,113.73,0,0,0,987,1335.68l.31.66v.26A113.1,113.1,0,0,1,954.75,1355Z"/><path class="cls-29" d="M985.83,1350.83l-32.91,18.68-.26-2.81L985.53,1348Z"/><path class="cls-14" d="M946.64,1364.56a8.86,8.86,0,0,1-.31,2.45l1.48.81,5.11,1.69-.26-2.81h1c1,0,2,.67,2.91,0l.66-.3,30.62-17.35a3.19,3.19,0,0,0,.87-.72,3.43,3.43,0,0,0,.56-1.48l.25-4.13-.81.41L956.85,1361l-.87.46-10.82-4.24v.46A15.7,15.7,0,0,1,946.64,1364.56Z"/><path class="cls-15" d="M956.85,1361v6.07l.66-.31a101.22,101.22,0,0,0,14-6.27,87.91,87.91,0,0,0,8-4.65,84.76,84.76,0,0,0,8.52-6.42,4.29,4.29,0,0,0,.87-.77v-5.1Z"/><path class="cls-30" d="M955.37,1354.45l6-2.8a.62.62,0,0,1,.33-.05.69.69,0,0,1,.31.12.78.78,0,0,1,.22.26,1,1,0,0,1,.06.33v2.2a2,2,0,0,1-.36,1,1.94,1.94,0,0,1-.82.68l-5.1,2.3Z"/><path class="cls-30" d="M982.36,1340.12l4.59-3.58-.35,5.11-4.44,3.47a.61.61,0,0,1-.31.13.55.55,0,0,1-.33-.07.55.55,0,0,1-.28-.57v-2.5a2.4,2.4,0,0,1,.31-1.14A2.28,2.28,0,0,1,982.36,1340.12Z"/><path class="cls-24" d="M986.39,1336.8c0-.41,1.58-1.38,1.58-1.38a6.06,6.06,0,0,1-.51,5.1l-1.07,1A22.18,22.18,0,0,0,986.39,1336.8Z"/><path class="cls-31" d="M973.38,1346.7A3,3,0,0,1,973,1348a2.81,2.81,0,0,1-1,1,.8.8,0,0,1-1.27-.76,2.9,2.9,0,0,1,.39-1.28,3,3,0,0,1,.93-1,.85.85,0,0,1,.46-.18.77.77,0,0,1,.47.1.82.82,0,0,1,.33.36A.83.83,0,0,1,973.38,1346.7Z"/><path class="cls-32" d="M973.74,1347a2.82,2.82,0,0,1-1.33,2.2.77.77,0,0,1-.45.18.8.8,0,0,1-.48-.1.88.88,0,0,1-.33-.36.91.91,0,0,1-.07-.49,2.83,2.83,0,0,1,.43-1.26,2.91,2.91,0,0,1,1-.93C973.18,1345.83,973.74,1346.14,973.74,1347Z"/><path class="cls-26" d="M945.82,1356.91l-.92.45,9.6,4.39a2.74,2.74,0,0,0,1.2.27,2.8,2.8,0,0,0,1.2-.27s24.08-9.59,32.09-18.21c.41-.46.62-1,0-1.38l-1.68-1.48s0,1-.31,1.22a112.57,112.57,0,0,1-32.7,18.37Z"/><path class="cls-26" d="M962,1360.94V1362a.92.92,0,0,1-.14.48.91.91,0,0,1-.37.33l-3.57,1.38a.52.52,0,0,1-.25,0,.62.62,0,0,1-.22-.1.7.7,0,0,1-.15-.19.49.49,0,0,1,0-.24l3-1.17a.84.84,0,0,0,.39-.33.77.77,0,0,0,.12-.49v-.56l.57-.26a.52.52,0,0,1,.66.06Z"/><path class="cls-33" d="M960.72,1360.68v.56a.77.77,0,0,1-.12.49.79.79,0,0,1-.39.33l-3,1.17v-.61a.9.9,0,0,1,.16-.5,1,1,0,0,1,.4-.32Z"/><path class="cls-26" d="M988,1345.42v.62a.83.83,0,0,1-.06.44.91.91,0,0,1-.24.37l-2.14,1.79s-.41,0-.41-.31l1.78-1.53a1,1,0,0,0,.28-.37,1,1,0,0,0,.08-.45v-.35l.31-.31S988,1345.17,988,1345.42Z"/><path class="cls-33" d="M987.46,1345.42v.36a1,1,0,0,1-.08.45,1.11,1.11,0,0,1-.27.37l-1.79,1.53v-.41a.89.89,0,0,1,.09-.45,1,1,0,0,1,.27-.37Z"/><path class="cls-34" d="M971.24,1357.42v2.85a90.22,90.22,0,0,0,8-4.64.57.57,0,0,0,0-.26v-2.65c0-.51-.41-.71-.87-.41L972,1356a1.89,1.89,0,0,0-.54.62A1.92,1.92,0,0,0,971.24,1357.42Z"/><path class="cls-19" d="M978.43,1356.24a1.7,1.7,0,0,0,.62-.6,1.75,1.75,0,0,0,.25-.83v-2.6c0-.51-.36-.71-.87-.46l-6.33,3.73a1.84,1.84,0,0,0-.86,1.43v2.6c0,.51.4.71.86.46Z"/><path class="cls-35" d="M972.16,1359.76l6.32-3.67a1.7,1.7,0,0,0,.5-.5,1.65,1.65,0,0,0,.22-.68v-2.6c0-.46-.31-.61-.72-.36l-6.32,3.68a1.63,1.63,0,0,0-.67,1.17v2.61C971.44,1359.86,971.75,1360,972.16,1359.76Z"/><path class="cls-36" d="M971.44,1356.91a1.54,1.54,0,0,1,.2-.67,1.5,1.5,0,0,1,.46-.51l6.33-3.67c.41-.26.72,0,.72.3Z"/><path class="cls-36" d="M979.15,1354.91a1.4,1.4,0,0,1-.21.69,1.41,1.41,0,0,1-.51.49l-6.33,3.67a.39.39,0,0,1-.66-.3Z"/><path class="cls-24" d="M895.61,1278.06l-33.68,19.5,9.9,4.33,35.72-20.66-7.7-3.37a4.75,4.75,0,0,0-4.24.2Z"/><path class="cls-37" d="M955.37,1354.45l5.61-2.65v1.79a2,2,0,0,1-.35,1,2,2,0,0,1-.82.68l-3.68,1.69Z"/><path class="cls-37" d="M981.24,1341.9a2.32,2.32,0,0,1,.26-1,2.29,2.29,0,0,1,.66-.79l3.11-2.45v2.24a2.22,2.22,0,0,1-.26.91,2.25,2.25,0,0,1-.61.73l-3.16,2.5Z"/><path class="cls-14" d="M907.7,1281.23c-12.19,4.28-35.72,20.66-35.72,20.66l13-4.79,34.34-20.41S910.92,1280.36,907.7,1281.23Z"/><path class="cls-38" d="M885.05,1296.59c15.66-10.46,28.06-17.1,28.06-17.1l-5.1,1.94a185.55,185.55,0,0,0-31.54,18.12A47.3,47.3,0,0,0,885.05,1296.59Z"/><path class="cls-23" d="M987.46,1335.63a162.69,162.69,0,0,1-32.09,18.16l-29.75-20.41,35.72-20.67,26.74,22.56Z"/><path class="cls-14" d="M957.31,1317.2s-1.23,3.88-10.21,8.93a29.85,29.85,0,0,1-13.68,4.85l-8,2.35,35.37-20.77Z"/><path class="cls-14" d="M948.38,1293.48a120.46,120.46,0,0,1-34,19.8s6,9.64,11.23,20a128.58,128.58,0,0,0,35.72-20.67S955.47,1303.68,948.38,1293.48Z"/><path class="cls-39" d="M915.21,1313.53c1.58,2.09,6.22,10.21,10.66,19a128.06,128.06,0,0,0,34.75-20.1c-.81-1.79-6.38-9.34-12.35-18.17l-1.17,1a99.81,99.81,0,0,1-8.42,6A161,161,0,0,1,915.21,1313.53Z"/><path class="cls-23" d="M981.29,1338.84l-24-21.64s3.52-4.08,4.64-3.31a170.27,170.27,0,0,1,23.73,20.41Z"/><path class="cls-24" d="M981.29,1338.84l-23.53-22.25,3.58-4a227.1,227.1,0,0,1,26.84,22.61Z"/><path class="cls-24" d="M956.13,1353.49l-30.51-20.16,7.91-2.35,30.26,18.22Z"/><path class="cls-40" d="M938.58,1332.46l.56.36a1.4,1.4,0,0,0,1.22,0l5.62-2.5c.66-.31.71-.87,0-1.12l-.51-.26a1.69,1.69,0,0,0-1.13,0l-5.56,2.45C938.27,1331.7,938.12,1332.15,938.58,1332.46Z"/><path class="cls-23" d="M941.08,1332.72l-.46.15-2.45-1.38.36-.2Z"/><path class="cls-23" d="M942.25,1332.31l-.46.1-2.4-1.38.36-.2Z"/><path class="cls-23" d="M943.48,1331.85l-.46.1-2.45-1.38.36-.15Z"/><path class="cls-23" d="M944.65,1331.39l-.46.15-2.4-1.37.36-.21Z"/><path class="cls-23" d="M945.77,1330.88l-.46.15-2.45-1.37.41-.21Z"/><path class="cls-23" d="M946.69,1330.32l-.41.1-2.45-1.38.36-.2Z"/><path class="cls-40" d="M959.35,1320.22l-.57-.36a.91.91,0,0,0-.51-.16,1,1,0,0,0-.51.16l-4.38,3.47a.69.69,0,0,0-.28.28.73.73,0,0,0-.11.38.7.7,0,0,0,.11.38.63.63,0,0,0,.28.28l.51.26a1.13,1.13,0,0,0,.48.11,1.21,1.21,0,0,0,.49-.11l4.28-3.32C959.75,1321.18,959.81,1320.52,959.35,1320.22Z"/><path class="cls-23" d="M957.15,1320.11l.36-.2,2.35,1.43-.26.25Z"/><path class="cls-23" d="M956.23,1320.73l.36-.16,2.3,1.38-.26.31Z"/><path class="cls-23" d="M955.26,1321.39l.36-.21,2.35,1.43-.26.26Z"/><path class="cls-23" d="M954.35,1322l.35-.15,2.3,1.38-.26.3Z"/><path class="cls-23" d="M953.48,1322.72l.36-.21,2.29,1.43-.25.25Z"/><path class="cls-23" d="M952.76,1323.48l.36-.2,2.35,1.43-.31.3Z"/><path class="cls-41" d="M949.14,1298.32l8.47,12.61-.25,1.48-6.48-3.88Z"/><path class="cls-41" d="M938.68,1301.28l11.38,6.79-1.89-11.18-1.07-1.63A99.81,99.81,0,0,1,938.68,1301.28Z"/><path class="cls-24" d="M919.29,1276.89c1.38-.51,29.09,16.59,29.09,16.59a118.19,118.19,0,0,1-34,19.8L885,1297.1A238.89,238.89,0,0,1,919.29,1276.89Z"/><path class="cls-26" d="M857.29,1306.74l1.78-2.09.11,1.48,7.65,4.75-1.17.71Z"/><path class="cls-42" d="M860.15,1299.85l.4.26a2.11,2.11,0,0,1,.51.71,1.79,1.79,0,0,1,0,.92v3.06a1.1,1.1,0,0,1,0,.67h-.61l-.76-.51c-.31,0,0,0-.41-.36v-1.07Z"/><path class="cls-15" d="M928.12,1348.89v3l.66-.4v-3Z"/><path class="cls-26" d="M944.9,1357.87A23.74,23.74,0,0,0,938,1351a5.51,5.51,0,0,0-6.38.71,5.9,5.9,0,0,0-1.64,4v1.94l-.3-3.83a5.66,5.66,0,0,1,.74-2.29,5.74,5.74,0,0,1,1.6-1.8,5.88,5.88,0,0,1,2.19-1,5.76,5.76,0,0,1,2.41,0c6.43.92,10.2,8.78,10.2,8.78Z"/><path class="cls-14" d="M932.3,1349.3a6.42,6.42,0,0,1,3.42-.3c6.43.86,9.95,9.13,9.95,9.13h-.61a25.2,25.2,0,0,0-7-7.25,6,6,0,0,0-5.72,0c-.76,0-1.89,2.15-2.24,6.48l-1.13-.66C929.34,1352.62,930.41,1350.58,932.3,1349.3Z"/><path class="cls-26" d="M865.45,1311.69a10.21,10.21,0,0,1,6.59,1.18,15.34,15.34,0,0,1,6,9.39l1,3.87.41-.46s-.41-3.26-.77-4.59a13.11,13.11,0,0,0-5.77-8.77,7.29,7.29,0,0,0-2.9-1.39,7.44,7.44,0,0,0-3.22,0Z"/><path class="cls-14" d="M878.72,1328.12l-.61-.4a19.49,19.49,0,0,0-.46-6.28,13.84,13.84,0,0,0-6.07-8,7.11,7.11,0,0,0-3-1.17,7.23,7.23,0,0,0-3.17.2,5.56,5.56,0,0,0-2.86,3c-.3,1.22-.86-.51-.86-.51l2.14-3.32h1.58a10.3,10.3,0,0,1,4.75,0,14.65,14.65,0,0,1,5,3.92,14.83,14.83,0,0,1,2.89,5.67,18.9,18.9,0,0,1,1,4.7l.81,1.79Z"/><path class="cls-43" d="M932.4,1343.54l1.08.61a1,1,0,0,1,.32.32,1,1,0,0,1,.13.44v.41a.42.42,0,0,1-.08.22.46.46,0,0,1-.4.23.45.45,0,0,1-.23,0l-1-.61a.89.89,0,0,1-.35-.32.77.77,0,0,1-.11-.45v-.41a.46.46,0,0,1,.06-.22.48.48,0,0,1,.38-.23A.34.34,0,0,1,932.4,1343.54Z"/><path class="cls-44" d="M932.2,1343.69l1.07.61a.81.81,0,0,1,.34.32.71.71,0,0,1,.12.45v.4a.46.46,0,0,1-.06.23.49.49,0,0,1-.16.16.44.44,0,0,1-.22.07.42.42,0,0,1-.22,0l-1.07-.61a.81.81,0,0,1-.35-.31.83.83,0,0,1-.11-.46v-.4a.59.59,0,0,1,.05-.23.61.61,0,0,1,.16-.16.47.47,0,0,1,.22-.07A.46.46,0,0,1,932.2,1343.69Z"/><path class="cls-24" d="M955.78,1354.3h-.92a1.85,1.85,0,0,0-.82.92c-.1.41-.51.82-.66,1.33a2.33,2.33,0,0,0,0,1.89s1,.81,1.22.71l1.28-.61A6.42,6.42,0,0,0,955.78,1354.3Z"/><path class="cls-45" d="M954.09,1311.44a10.21,10.21,0,0,0,5.87-.26c.3.56.56,1,.66,1.23a128.06,128.06,0,0,1-34.75,20.1l-1.89-3.62C930.77,1324.7,939.55,1319.65,954.09,1311.44Z"/><path class="cls-14" d="M910.92,1331.39a2.68,2.68,0,0,0,.54,1.71,2.73,2.73,0,0,0,1.5,1,4.57,4.57,0,0,0,1.28,0c2.24,0,5.1,0,5.46-.35s2.6,0,2.6,0a1.64,1.64,0,0,0,.41-.53,1.44,1.44,0,0,0,.15-.65,1.76,1.76,0,0,0-.15-.64,1.54,1.54,0,0,0-.41-.53l-.46-.36h-1.33a2.18,2.18,0,0,0,0-.51,4.37,4.37,0,0,0-5.1-2.14C910.26,1329.81,910.92,1331.39,910.92,1331.39Z"/><path class="cls-14" d="M899,1325.22l3.67,2.14a1.53,1.53,0,0,0-.61-1.53,19.88,19.88,0,0,0-2.19-1.28C899,1324,899,1325.22,899,1325.22Z"/><path class="cls-14" d="M882.45,1315.26l3.67,2.15c0-.72,0-1.12-.61-1.53a22.14,22.14,0,0,0-2.15-1.28C882.39,1314.09,882.45,1315.26,882.45,1315.26Z"/><polygon class="cls-12" points="721.36 1586.18 631.8 1524.03 631.8 1241.92 721.36 1304.08 721.36 1586.18"/><polygon class="cls-13" points="766.07 1561.26 721.36 1586.18 721.36 1303.6 766.07 1278.67 766.07 1561.26"/><polygon class="cls-12" points="672.16 1210.02 766.07 1278.67 721.36 1303.6 630.42 1242.48 672.16 1210.02"/><path class="cls-14" d="M737.89,1233a4.79,4.79,0,0,1,.46-5.72c2-2.91,3.52-1.94,3.52-1.94a3.26,3.26,0,0,1,.77,4.34c-.92,1.74-1.84,4.14-2.5,4.14s-1,2.14-1,2.14l-1.89-1.94Z"/><path class="cls-15" d="M709.26,1280.39l12.81-7.09-15.46-6.48Z"/><path class="cls-15" d="M641.65,1241.61l12.81-7.09L639,1228Z"/><path class="cls-46" d="M712.28,1274.58l2.29,3.67,5.46,9,2.71,4.44,3.62-2.09a4,4,0,0,0,1.68-2.45v-.61a1.19,1.19,0,0,0,0-.46v-.92a15.62,15.62,0,0,0-7.24-12.09l-.67-.36a5,5,0,0,0-2.19-.5,5.09,5.09,0,0,0-2.2.5Z"/><path class="cls-14" d="M710.54,1279.27a15.61,15.61,0,0,0,7.3,12.15c4,2.19,7.14.35,7.09-4.09a15.57,15.57,0,0,0-7.3-12.14C713.5,1273,710.54,1274.83,710.54,1279.27Z"/><path class="cls-17" d="M712.48,1280.44a5.91,5.91,0,0,0,0,1.33,11.85,11.85,0,0,0,1.58,3.88,11,11,0,0,0,1.68,2,7.05,7.05,0,0,0,1.74,1.33,4.79,4.79,0,0,0,1.43.56,2.23,2.23,0,0,0,3-.92v-2.4a6.31,6.31,0,0,0,0-.87,5.47,5.47,0,0,0,0-.81,11.42,11.42,0,0,0-1.12-2.76l-.26-.41a14.9,14.9,0,0,0-1.32-1.73v-.31a8.54,8.54,0,0,0-1.33-1.07l-.51-.3-.51-.26h-1.23a3.22,3.22,0,0,0-.76,0,1.77,1.77,0,0,0-.72.31,2.77,2.77,0,0,0-.95.85,2.82,2.82,0,0,0-.48,1.19Z"/><path class="cls-15" d="M716.26,1278.61a5.4,5.4,0,0,0,0,1.27,11.35,11.35,0,0,0,1.58,3.88,10.93,10.93,0,0,0,1.68,2.09,9.78,9.78,0,0,0,1.74,1.33l1.07.46V1285a5.61,5.61,0,0,0,0-.82,10.22,10.22,0,0,0-1.13-2.76l-.25-.4a15,15,0,0,0-1.38-1.79v-.3a10.21,10.21,0,0,0-1.83-1.38l-.51-.26h-.57v.31A8.24,8.24,0,0,0,716.26,1278.61Z"/><path class="cls-47" d="M714.32,1277.08a3.46,3.46,0,0,0-.87,1.33,3.53,3.53,0,0,0-.21,1.58,11.39,11.39,0,0,0,1.53,4.91,11.14,11.14,0,0,0,3.58,3.71,4,4,0,0,0,1.55.59,4,4,0,0,0,1.66-.08,3.41,3.41,0,0,1-4,0,11.08,11.08,0,0,1-5.1-8.57,3.31,3.31,0,0,1,.34-2A3.28,3.28,0,0,1,714.32,1277.08Z"/><path class="cls-17" d="M713.86,1280.85l3.16,1.84-1.43,4.69c0,.26.92,0,.92,0l2.2-2.34,1.58,3.93c.51,0,0,.91.61.81a2.24,2.24,0,0,0,1-.66l-1.12-4.34,1.73,1a4.22,4.22,0,0,0,0-.87,7.2,7.2,0,0,0-.46-1.63l-1.48-1.12.51-1a15.92,15.92,0,0,0-1.32-1.74l-.72.87-1.22-2.5-.51-.25h-1.64l1.28,3.11-3.37-1.33s-.87.41-.87.87S713.81,1280.39,713.86,1280.85Z"/><path class="cls-19" d="M712.53,1281.41l3.27,2.15-1.18,2.65a3.13,3.13,0,0,0,1,1.23l1.79-1.74,1.89,4a1.76,1.76,0,0,0,.79.18,1.82,1.82,0,0,0,.79-.18l-1.23-3.72,2.91,1.48a3.57,3.57,0,0,0,0-1.13,4.12,4.12,0,0,0,0-.86l-3.21-2.1,1.43-2.5a5.07,5.07,0,0,0-1.18-1.43l-1.88,1.79-2-4.13a1.84,1.84,0,0,0-1.42,0l1.22,3.87-3-1.37a4.12,4.12,0,0,0,0,.86A7.85,7.85,0,0,0,712.53,1281.41Z"/><path class="cls-20" d="M716.46,1282.69a2.49,2.49,0,0,0,.34,1.07,2.55,2.55,0,0,0,.78.82c.62.3,1.13,0,1.13-.67a2.6,2.6,0,0,0-.35-1.07,2.42,2.42,0,0,0-.78-.81C717,1281.72,716.46,1282,716.46,1282.69Z"/><path class="cls-48" d="M644.66,1235.74l2.25,3.68,5.51,9,2.7,4.44,3.57-2.09a4,4,0,0,0,1.64-2.45,2.16,2.16,0,0,0,0-.36v-.72a4.21,4.21,0,0,0,0-.71,15.28,15.28,0,0,0-7.3-12.09l-.61-.36a5.09,5.09,0,0,0-2.2-.5,5,5,0,0,0-2.19.5Z"/><path class="cls-14" d="M642.77,1240.23a15.61,15.61,0,0,0,7.3,12.15c3.93,2.19,7.09.35,7-4.08a15.73,15.73,0,0,0-7.24-12.15C645.89,1233.75,642.72,1235.79,642.77,1240.23Z"/><path class="cls-15" d="M648.64,1239.57a5.48,5.48,0,0,0,0,1.28,9.73,9.73,0,0,0,1.58,3.87,9.5,9.5,0,0,0,1.69,2.1,8.52,8.52,0,0,0,1.73,1.32,4.8,4.8,0,0,0,1.07.46,1.77,1.77,0,0,1,0-.46v-1a4.2,4.2,0,0,0,0-1.12,5.61,5.61,0,0,0,0-.82,12.57,12.57,0,0,0-1.17-2.75,1.41,1.41,0,0,0,0-.41,14,14,0,0,0-1.38-1.79l-.3-.3a8,8,0,0,0-1.84-1.38l-.46-.26H649v.31A8.72,8.72,0,0,0,648.64,1239.57Z"/><path class="cls-49" d="M646.65,1238a3.42,3.42,0,0,0-.84,1.34,3.49,3.49,0,0,0-.18,1.57,11,11,0,0,0,1.52,4.92,11.11,11.11,0,0,0,3.58,3.7,3.8,3.8,0,0,0,1.56.59,4,4,0,0,0,1.66-.08,3.41,3.41,0,0,1-4,0,11,11,0,0,1-3.58-3.67,10.9,10.9,0,0,1-1.52-4.9,3.16,3.16,0,0,1,1.78-3.47Z"/><path class="cls-17" d="M646.24,1241.82l3.17,1.83-1.48,4.7,1-.26,2.19-2.35,1.58,3.93c.51,0,0,.92.61.82a2.26,2.26,0,0,0,.92-.66l-.92-3.93,1.74,1a6.31,6.31,0,0,0,0-.87,7,7,0,0,0-.41-1.63l-1.53-1.13.51-1a10.92,10.92,0,0,0-1.38-1.73l-.66.87-1.28-2.5-.45-.26h-1.54l1.28,3.11-3.42-1.32s-.82.41-.82.86S646.14,1241.36,646.24,1241.82Z"/><path class="cls-19" d="M644.92,1242.38l3.26,2.14-1.22,2.65a3.91,3.91,0,0,0,1,1.23l1.84-1.74,1.88,4a1.85,1.85,0,0,0,1.59,0l-1.28-3.72,2.91,1.48a4.28,4.28,0,0,0,0-1.13,6.91,6.91,0,0,0,0-.91l-3.22-2,1.38-2.5a4.74,4.74,0,0,0-1.12-1.43l-1.89,1.78-2-4.13a2,2,0,0,0-1.43,0l1.23,3.88-3-1.38a2.13,2.13,0,0,0,0,.87A2.88,2.88,0,0,0,644.92,1242.38Z"/><path class="cls-20" d="M648.85,1243.65a2.45,2.45,0,0,0,.34,1.08,2.51,2.51,0,0,0,.78.81.71.71,0,0,0,1.12-.66,2.69,2.69,0,0,0-.38-1.07,2.58,2.58,0,0,0-.79-.82C649.31,1242.68,648.85,1242.94,648.85,1243.65Z"/><path class="cls-23" d="M638.33,1226.2v3.88l4.29,6.22c.26-.3.46-.61.71-.86a4.68,4.68,0,0,1,3.47-1.38,7.64,7.64,0,0,1,3.73,1.07,15.87,15.87,0,0,1,5.66,5.82,15.32,15.32,0,0,1,2.2,7.29,8.54,8.54,0,0,1-.36,2.66l51.34,29.49v-1.12a6.74,6.74,0,0,1,1.63-4.8,4.48,4.48,0,0,1,1.17-.86,5,5,0,0,1,2.3-.56,7.7,7.7,0,0,1,3.73,1.12,16.6,16.6,0,0,1,6.07,6.48,15.63,15.63,0,0,1,1.83,6.68,9.19,9.19,0,0,1-.3,2.45l1.43.77,4.79-1.13,3.07-4.38-1.64-1,2-7.81-30.62-20.41a90.11,90.11,0,0,0-11.22-20c-5.92-5.66-29.39-16.17-29.39-16.17l-13,4.79-9.9-4.33-1.93,2.29Z"/><path class="cls-24" d="M639.35,1222.63l95.17,53.94-29.7-20.47-53.63-31.43-9.9-4.34Z"/><path class="cls-23" d="M658.29,1248.25a8.52,8.52,0,0,1-.36,2.65l51.33,29.49v-1.12a6.75,6.75,0,0,1,1.64-4.8,4.48,4.48,0,0,1,1.17-.86L655.94,1241A15.26,15.26,0,0,1,658.29,1248.25Z"/><path class="cls-25" d="M699.52,1272.89l.25-9.49,1.18-6.53-.46-.1-1.23,6.53-.2,8.78-21.84-11.89-.87-9.5,1.53-8.31,0-.05-8.57-14.9-.21.15-8.31,5v.1l-1.89,8.32,1.89,10.51.45,0L659.36,1241l1.83-8.12,7.86-4.69,8.27,14.34-1.48,8.16v0l.92,9.85.1,0Z"/><path class="cls-26" d="M709.26,1277.49v2.19l-51.33-29.44a8.9,8.9,0,0,0,.36-2Z"/><path class="cls-27" d="M709.21,1277.08a7.08,7.08,0,0,1,1.28-4.34l1.53.87a4.48,4.48,0,0,0-1.17.86,6.25,6.25,0,0,0-1.59,3.73C709.26,1277.84,709.21,1277.43,709.21,1277.08Z"/><path class="cls-14" d="M709.26,1278.2v2.19l-51.33-29.49a8,8,0,0,0,.36-2Z"/><path class="cls-14" d="M636.5,1229.52v3l1,3.06,2.5,2.55,1.12,3.16.56.36a6.37,6.37,0,0,1,0-1.38,7.39,7.39,0,0,1,.92-3.93c.26-.3.46-.61.71-.86a5,5,0,0,1,1.64-1.07l-4.85-2.81-1-.61Z"/><path class="cls-14" d="M655.22,1227.07l1.59,4,3.62,2,.41.25.41.26,1.12.66.87.56.61.31.76.46.62.36L678,1243.6l1.64,1,17.19,10.31.77.46,4.34,2.6.51-2.75-7-12.86-.76-1.43-2.3-4.19-25.77-14.13-.25-.21-.87-.46Z"/><path class="cls-28" d="M665.89,1223l-8.42,5.3.31,2.4,43.63,26.08.25-1.43-9.9-18.12Z"/><path class="cls-14" d="M660.94,1233.14l.56.61.41.21.41.25,5.61-10.36-.25-.61-.31-.2-.61.3Z"/><path class="cls-14" d="M677,1242.73l1.64,1,2.8-12.3-1.63-.81Z"/><path class="cls-14" d="M694.41,1240.85v12.24l.82.46.15-11.17-.76-1.43Z"/><path class="cls-26" d="M708,1271.26v3L658.39,1243l.71-.36Z"/><path class="cls-14" d="M707.32,1271.67v3l-48.93-28.63v-3Z"/><path class="cls-15" d="M766.67,1264.73l.77-6.79L735,1276.11l-1.43,7.19S755.09,1278.05,766.67,1264.73Z"/><path class="cls-15" d="M733.81,1282.18v-1.12a113.92,113.92,0,0,0,32.35-18.27c.26,0,.31-1.18.31-1.18v1s0,1-.31,1.17A112.13,112.13,0,0,1,733.81,1282.18Z"/><path class="cls-15" d="M733.81,1280.6v-1.12a113.92,113.92,0,0,0,32.35-18.27c.26,0,.31-1.18.31-1.18v1s0,1-.31,1.18A112.13,112.13,0,0,1,733.81,1280.6Z"/><path class="cls-15" d="M733.81,1279v-1.13a113.44,113.44,0,0,0,32.35-18.27c.26,0,.31-1.22.31-1.22v1s0,1-.31,1.22A113.74,113.74,0,0,1,733.81,1279Z"/><path class="cls-26" d="M733.81,1282.48v-1.17a111.69,111.69,0,0,0,32.35-18.21c.26,0,.31-1.23.31-1.23v1s0,1-.31,1.23A113.68,113.68,0,0,1,733.81,1282.48Z"/><path class="cls-26" d="M733.81,1280.9v-1.17a113.16,113.16,0,0,0,32.35-18.22c.26,0,.31-1.22.31-1.22v1s0,1-.31,1.22A113.47,113.47,0,0,1,733.81,1280.9Z"/><path class="cls-26" d="M733.81,1279.32v-1.17a112.34,112.34,0,0,0,32.35-18.27c.26,0,.31-1.17.31-1.17v1s0,1-.31,1.17A112.88,112.88,0,0,1,733.81,1279.32Z"/><path class="cls-26" d="M734,1276.57a113.92,113.92,0,0,0,32.2-18.12l.31.66v.26A113.13,113.13,0,0,1,734,1277.74Z"/><path class="cls-29" d="M765,1273.61l-32.91,18.67-.26-2.8,32.86-18.73Z"/><path class="cls-14" d="M725.85,1287.33a9.2,9.2,0,0,1-.31,2.45l1.48.82,5.11,1.68-.26-2.8h1c1,0,2,.66,2.91,0l.66-.31,30.62-17.35a3.12,3.12,0,0,0,.87-.71,3.47,3.47,0,0,0,.56-1.48l.25-4.14-.81.41-31.9,17.91-.86.46L724.37,1280v.46A15.62,15.62,0,0,1,725.85,1287.33Z"/><path class="cls-15" d="M736.05,1283.81v6.07l.67-.3a101.28,101.28,0,0,0,14-6.28,90.22,90.22,0,0,0,8-4.64,84.48,84.48,0,0,0,8.52-6.43,4,4,0,0,0,.87-.77v-5.1Z"/><path class="cls-30" d="M734.57,1277.23l6-2.81a.72.72,0,0,1,.33-.05.71.71,0,0,1,.31.13.54.54,0,0,1,.21.26.61.61,0,0,1,.06.33v2.19a1.89,1.89,0,0,1-.35,1,2,2,0,0,1-.82.69l-5.1,2.29Z"/><path class="cls-30" d="M761.57,1262.89l4.59-3.57-.36,5.1-4.43,3.47a.61.61,0,0,1-.31.13.56.56,0,0,1-.61-.64v-2.5a2.3,2.3,0,0,1,.31-1.14A2.35,2.35,0,0,1,761.57,1262.89Z"/><path class="cls-24" d="M765.6,1259.57c0-.41,1.58-1.37,1.58-1.37a6,6,0,0,1,.31,2.6,6.2,6.2,0,0,1-.82,2.5l-1.07,1A23.56,23.56,0,0,0,765.6,1259.57Z"/><path class="cls-31" d="M752.59,1269.47a3,3,0,0,1-.43,1.29,2.91,2.91,0,0,1-.95,1,.81.81,0,0,1-1.28-.77,3,3,0,0,1,.4-1.28,2.85,2.85,0,0,1,.93-1,.86.86,0,0,1,.45-.19.8.8,0,0,1,.48.11.82.82,0,0,1,.33.36A.8.8,0,0,1,752.59,1269.47Z"/><path class="cls-32" d="M753,1269.78a3,3,0,0,1-.4,1.26,2.76,2.76,0,0,1-.93.93.86.86,0,0,1-.45.19.8.8,0,0,1-.48-.11.77.77,0,0,1-.33-.36.8.8,0,0,1-.07-.48,2.87,2.87,0,0,1,1.38-2.2C752.38,1268.61,753,1268.91,753,1269.78Z"/><path class="cls-26" d="M725,1279.68l-.92.46,9.6,4.39a2.88,2.88,0,0,0,1.2.27,3,3,0,0,0,1.2-.27s24.08-9.6,32.09-18.22c.41-.46.62-1,0-1.38l-1.68-1.48s0,1-.31,1.23a113.08,113.08,0,0,1-32.71,18.37Z"/><path class="cls-26" d="M741.16,1283.71v1.07a.9.9,0,0,1-.14.48.93.93,0,0,1-.37.34l-3.58,1.38a.48.48,0,0,1-.24,0,.44.44,0,0,1-.22-.1.4.4,0,0,1-.15-.19.46.46,0,0,1-.05-.23l3-1.18a.82.82,0,0,0,.39-.32.78.78,0,0,0,.12-.49v-.57l.56-.25a.52.52,0,0,1,.34-.1A.51.51,0,0,1,741.16,1283.71Z"/><path class="cls-33" d="M739.93,1283.45v.57a.78.78,0,0,1-.12.49.77.77,0,0,1-.39.32l-3,1.18v-.62a.94.94,0,0,1,.15-.49.86.86,0,0,1,.41-.32Z"/><path class="cls-26" d="M767.23,1268.2v.61a.94.94,0,0,1-.06.44,1,1,0,0,1-.24.38l-2.15,1.78s-.4,0-.4-.3l1.78-1.53a1.07,1.07,0,0,0,.27-.37.89.89,0,0,0,.09-.45v-.36l.3-.31S767.23,1267.94,767.23,1268.2Z"/><path class="cls-33" d="M766.67,1268.2v.35a1,1,0,0,1-.08.45.93.93,0,0,1-.28.37l-1.78,1.53v-.41a1,1,0,0,1,.08-.45,1.09,1.09,0,0,1,.28-.36Z"/><path class="cls-34" d="M750.44,1280.19v2.86a86.55,86.55,0,0,0,8-4.65.53.53,0,0,0,0-.25v-2.66c0-.51-.4-.71-.86-.4l-6.33,3.67a1.93,1.93,0,0,0-.54.63A2,2,0,0,0,750.44,1280.19Z"/><path class="cls-19" d="M757.64,1279a1.81,1.81,0,0,0,.62-.61,1.71,1.71,0,0,0,.25-.82V1275c0-.51-.36-.71-.87-.46l-6.33,3.73a2.05,2.05,0,0,0-.6.61,2,2,0,0,0-.27.82v2.6c0,.51.41.72.87.46Z"/><path class="cls-35" d="M751.36,1282.54l6.33-3.68a1.59,1.59,0,0,0,.5-.5,1.43,1.43,0,0,0,.21-.67v-2.6c0-.46-.3-.62-.71-.36l-6.33,3.67a1.91,1.91,0,0,0-.46.52,1.64,1.64,0,0,0-.2.66v2.6C750.65,1282.64,751,1282.79,751.36,1282.54Z"/><path class="cls-36" d="M750.65,1279.68a1.5,1.5,0,0,1,.66-1.17l6.33-3.68c.41-.25.71,0,.71.31Z"/><path class="cls-36" d="M758.35,1277.69a1.38,1.38,0,0,1-.71,1.17l-6.33,3.68a.39.39,0,0,1-.66-.31Z"/><path class="cls-24" d="M674.82,1200.84l-33.68,19.49,9.9,4.34L686.76,1204l-7.71-3.37a4.74,4.74,0,0,0-2.14-.39A4.67,4.67,0,0,0,674.82,1200.84Z"/><path class="cls-37" d="M734.57,1277.23l5.62-2.65v1.78a2.06,2.06,0,0,1-.36,1,2,2,0,0,1-.82.68l-3.67,1.68Z"/><path class="cls-37" d="M760.45,1264.68a2.32,2.32,0,0,1,.26-1,2.29,2.29,0,0,1,.66-.79l3.11-2.45v2.25a2.31,2.31,0,0,1-.26.91,2.34,2.34,0,0,1-.61.72l-3.16,2.5Z"/><path class="cls-14" d="M686.91,1204c-12.19,4.29-35.72,20.67-35.72,20.67l13-4.8,34.35-20.41S690.13,1203.14,686.91,1204Z"/><path class="cls-38" d="M664.26,1219.36c15.66-10.46,28.06-17.09,28.06-17.09l-5.1,1.94a185.5,185.5,0,0,0-31.54,18.11A47.3,47.3,0,0,0,664.26,1219.36Z"/><path class="cls-23" d="M766.67,1258.4a163,163,0,0,1-32.1,18.17l-29.75-20.42,35.73-20.66L767.28,1258Z"/><path class="cls-14" d="M736.51,1240s-1.22,3.88-10.2,8.93a30,30,0,0,1-13.68,4.85l-8,2.34L740,1235.33Z"/><path class="cls-14" d="M727.58,1216.25a119.8,119.8,0,0,1-34,19.8s6,9.64,11.22,20a128.29,128.29,0,0,0,35.72-20.67S734.68,1226.46,727.58,1216.25Z"/><path class="cls-39" d="M694.41,1236.3c1.59,2.1,6.23,10.21,10.67,19a128.24,128.24,0,0,0,34.75-20.11c-.82-1.78-6.38-9.34-12.35-18.17l-1.17,1a99.81,99.81,0,0,1-8.42,6A160.08,160.08,0,0,1,694.41,1236.3Z"/><path class="cls-23" d="M760.5,1261.61l-24-21.63s3.53-4.08,4.65-3.32a170.27,170.27,0,0,1,23.73,20.41Z"/><path class="cls-24" d="M760.5,1261.61,737,1239.37l3.58-4a227.1,227.1,0,0,1,26.84,22.61Z"/><path class="cls-24" d="M735.34,1276.26l-30.52-20.16,7.91-2.34L743,1272Z"/><path class="cls-40" d="M717.79,1255.24l.56.35a1.4,1.4,0,0,0,1.22,0l5.62-2.5c.66-.3.71-.87,0-1.12l-.52-.26a1.79,1.79,0,0,0-1.12,0l-5.56,2.45C717.48,1254.47,717.33,1254.93,717.79,1255.24Z"/><path class="cls-23" d="M720.29,1255.49l-.46.15-2.45-1.37.36-.21Z"/><path class="cls-23" d="M721.46,1255.08l-.46.11-2.4-1.38.36-.21Z"/><path class="cls-23" d="M722.68,1254.62l-.46.11-2.44-1.38.35-.16Z"/><path class="cls-23" d="M723.86,1254.16l-.46.16-2.4-1.38.36-.21Z"/><path class="cls-23" d="M725,1253.65l-.46.16-2.45-1.38.41-.21Z"/><path class="cls-23" d="M725.9,1253.09l-.41.1-2.45-1.37.36-.21Z"/><path class="cls-40" d="M738.56,1243l-.57-.36a.9.9,0,0,0-.51-.15,1,1,0,0,0-.51.15l-4.38,3.47a.79.79,0,0,0-.39.66.77.77,0,0,0,.11.39.69.69,0,0,0,.28.28l.51.25a1.1,1.1,0,0,0,1,0l4.29-3.31C739,1244,739,1243.3,738.56,1243Z"/><path class="cls-23" d="M736.36,1242.89l.36-.21,2.35,1.43-.26.26Z"/><path class="cls-23" d="M735.44,1243.5l.36-.15,2.3,1.37-.26.31Z"/><path class="cls-23" d="M734.47,1244.16l.36-.2,2.35,1.43-.26.25Z"/><path class="cls-23" d="M733.55,1244.77l.36-.15,2.3,1.38-.26.31Z"/><path class="cls-23" d="M732.69,1245.49l.35-.21,2.3,1.43-.25.26Z"/><path class="cls-23" d="M732,1246.25l.36-.2,2.35,1.43-.31.31Z"/><path class="cls-41" d="M728.35,1221.1l8.47,12.6-.26,1.48-6.48-3.88Z"/><path class="cls-41" d="M717.89,1224.06l11.38,6.78-1.89-11.17-1.07-1.63A99.81,99.81,0,0,1,717.89,1224.06Z"/><path class="cls-24" d="M698.5,1199.66c1.37-.51,29.08,16.59,29.08,16.59a118,118,0,0,1-34,19.8l-29.4-16.18A241.41,241.41,0,0,1,698.5,1199.66Z"/><path class="cls-26" d="M636.5,1229.52l1.78-2.09.1,1.47,7.66,4.75-1.17.72Z"/><path class="cls-42" d="M639.35,1222.63l.41.25a2.25,2.25,0,0,1,.51.72,1.79,1.79,0,0,1,0,.92v3.06a1.06,1.06,0,0,1,0,.66h-.61l-.77-.51c-.3,0,0,0-.4-.36v-1.07Z"/><path class="cls-15" d="M707.32,1271.67v3l.67-.41v-3Z"/><path class="cls-26" d="M724.11,1280.65a23.77,23.77,0,0,0-6.88-6.89,5.51,5.51,0,0,0-6.38.71,5.89,5.89,0,0,0-1.64,4v1.94l-.3-3.82a5.86,5.86,0,0,1,2.34-4.09,5.78,5.78,0,0,1,4.6-1c6.43.92,10.2,8.78,10.2,8.78Z"/><path class="cls-14" d="M711.51,1272.08a6.43,6.43,0,0,1,3.42-.31c6.43.87,10,9.13,10,9.13h-.61a25.29,25.29,0,0,0-7-7.24,6,6,0,0,0-5.72,0c-.77,0-1.89,2.14-2.24,6.48l-1.13-.66C708.55,1275.39,709.62,1273.35,711.51,1272.08Z"/><path class="cls-26" d="M644.66,1234.47a10.19,10.19,0,0,1,6.58,1.17,15.31,15.31,0,0,1,6,9.39l1,3.88.4-.46s-.4-3.27-.76-4.59a13.16,13.16,0,0,0-5.77-8.78,7.46,7.46,0,0,0-6.12-1.43Z"/><path class="cls-14" d="M657.93,1250.9l-.61-.41a19.53,19.53,0,0,0-.46-6.28,13.88,13.88,0,0,0-6.08-8,7.26,7.26,0,0,0-6.12-1,5.63,5.63,0,0,0-2.86,3c-.3,1.23-.86-.51-.86-.51l2.14-3.31h1.58a10,10,0,0,1,4.75,0,14.64,14.64,0,0,1,7.91,9.59,18.73,18.73,0,0,1,1,4.69l.81,1.79Z"/><path class="cls-43" d="M711.61,1266.31l1.07.61a.87.87,0,0,1,.33.33.94.94,0,0,1,.13.44v.4a.49.49,0,0,1-.08.23.44.44,0,0,1-.17.16.62.62,0,0,1-.23.07.46.46,0,0,1-.23,0l-1-.61a.78.78,0,0,1-.46-.76v-.41a.4.4,0,0,1,.06-.22.44.44,0,0,1,.16-.17.52.52,0,0,1,.22-.07A.59.59,0,0,1,711.61,1266.31Z"/><path class="cls-44" d="M711.41,1266.46l1.07.61a.81.81,0,0,1,.34.32.87.87,0,0,1,.12.45v.41a.43.43,0,0,1-.06.22.44.44,0,0,1-.16.17.43.43,0,0,1-.22.06.41.41,0,0,1-.22,0l-1.08-.62a.73.73,0,0,1-.34-.31.89.89,0,0,1-.12-.45v-.41a.43.43,0,0,1,.06-.22.52.52,0,0,1,.16-.17.57.57,0,0,1,.22-.07A.59.59,0,0,1,711.41,1266.46Z"/><path class="cls-24" d="M735,1277.08h-.92a1.84,1.84,0,0,0-.81.92c-.1.4-.51.81-.66,1.32a2.33,2.33,0,0,0,0,1.89s1,.82,1.22.71l1.28-.61A6.33,6.33,0,0,0,735,1277.08Z"/><path class="cls-45" d="M733.3,1234.21a10.21,10.21,0,0,0,5.87-.25c.3.56.56,1,.66,1.22a128.24,128.24,0,0,1-34.75,20.11l-1.89-3.63C710,1247.48,718.76,1242.43,733.3,1234.21Z"/><path class="cls-14" d="M690.13,1254.16a2.71,2.71,0,0,0,2,2.71,4.5,4.5,0,0,0,1.27,0c2.25,0,5.11,0,5.47-.36s2.6,0,2.6,0a1.6,1.6,0,0,0,.41-.52,1.51,1.51,0,0,0,.15-.65,1.66,1.66,0,0,0-.56-1.18l-.46-.35h-1.33a2.18,2.18,0,0,0,0-.51,4.39,4.39,0,0,0-5.1-2.15C689.47,1252.58,690.13,1254.16,690.13,1254.16Z"/><path class="cls-14" d="M678.24,1248l3.67,2.14a1.53,1.53,0,0,0-.61-1.53,18.47,18.47,0,0,0-2.2-1.27C678.19,1246.82,678.24,1248,678.24,1248Z"/><path class="cls-14" d="M661.65,1238l3.68,2.14c0-.71,0-1.12-.61-1.53a22.06,22.06,0,0,0-2.15-1.27C661.6,1236.87,661.65,1238,661.65,1238Z"/><rect class="cls-12" y="915" width="540" height="915"/><path class="cls-5" d="M136.77,1381.82s21.72-117.32,139.6-62.12c0,0,57.8-43.43,115.91,10.87,0,0,38.73,27.48,20.11,96.75,0,0,42.16,38.74,5.06,99.08,0,0-24.43,44.7-89.24,32,0,0-21.6,58.11-106.52,40.23,0,0-55.87-19.78-58.11-75.07,0,0-56.61-2.4-68.53-62.74S136.77,1381.82,136.77,1381.82Z"/><rect class="cls-12" x="540" width="540" height="915"/><path class="cls-14" d="M882.62,562.74a9.12,9.12,0,0,1,.87-10.85c3.78-5.52,6.68-3.68,6.68-3.68a6.19,6.19,0,0,1,1.46,8.23c-1.74,3.3-3.49,7.85-4.75,7.85s-1.84,4.06-1.84,4.06l-3.58-3.68Z"/><path class="cls-15" d="M828.29,652.61l24.31-13.47-29.34-12.29Z"/><path class="cls-15" d="M700,579l24.3-13.46L695,553.25Z"/><path class="cls-50" d="M834,641.56l4.36,7,10.36,17,5.13,8.43,6.88-4a7.57,7.57,0,0,0,3.19-4.65v-1.17a2.54,2.54,0,0,0,0-.87v-1.74a29.63,29.63,0,0,0-13.75-23l-1.26-.68a9.7,9.7,0,0,0-8.33,0Z"/><path class="cls-14" d="M830.72,650.47a29.64,29.64,0,0,0,13.84,23c7.56,4.17,13.56.68,13.47-7.74a29.62,29.62,0,0,0-13.85-23C836.33,638.56,830.72,642.05,830.72,650.47Z"/><path class="cls-17" d="M834.4,652.7a11.79,11.79,0,0,0,0,2.52,22.63,22.63,0,0,0,3,7.36,20.41,20.41,0,0,0,3.19,3.87,13.08,13.08,0,0,0,3.3,2.52A8.82,8.82,0,0,0,846.6,670a4.21,4.21,0,0,0,5.71-1.75v-4.55a9.09,9.09,0,0,0,0-1.65,10,10,0,0,0,0-1.55,21.54,21.54,0,0,0-2.13-5.22l-.48-.78a27.82,27.82,0,0,0-2.52-3.29v-.58a16.53,16.53,0,0,0-2.52-2l-1-.58-1-.48H840.4a7,7,0,0,0-1.45,0,3.36,3.36,0,0,0-1.36.58,5.32,5.32,0,0,0-2.71,3.87C834.71,652.25,834.55,652.47,834.4,652.7Z"/><path class="cls-15" d="M841.56,649.21a11,11,0,0,0,0,2.43,22.11,22.11,0,0,0,3,7.36,21.44,21.44,0,0,0,3.2,4,19.53,19.53,0,0,0,3.29,2.52l2,.88v-4.94a13.36,13.36,0,0,0,0-1.55,19.38,19.38,0,0,0-2.13-5.23l-.49-.78a29.39,29.39,0,0,0-2.61-3.39v-.58a20.61,20.61,0,0,0-3.49-2.61l-1-.49h-1.06v.58A16.36,16.36,0,0,0,841.56,649.21Z"/><path class="cls-51" d="M837.88,646.31a6.75,6.75,0,0,0-1.64,2.53,6.62,6.62,0,0,0-.39,3,21.2,21.2,0,0,0,9.68,16.37,7.68,7.68,0,0,0,6.1,1,6.45,6.45,0,0,1-7.55,0,20.86,20.86,0,0,1-9.68-16.27A6.13,6.13,0,0,1,835,649,6.21,6.21,0,0,1,837.88,646.31Z"/><path class="cls-17" d="M837,653.48l6,3.48-2.72,8.91c0,.49,1.75,0,1.75,0l4.16-4.45,3,7.45c1,0,0,1.75,1.17,1.55a4.22,4.22,0,0,0,1.83-1.26l-2.13-8.23,3.3,1.84a11.36,11.36,0,0,0,0-1.65,14.34,14.34,0,0,0-.87-3.09l-2.81-2.13,1-1.94a30.14,30.14,0,0,0-2.52-3.29l-1.36,1.64-2.32-4.74-1-.48h-3.1l2.42,5.9-6.39-2.52s-1.64.78-1.64,1.65S836.91,652.61,837,653.48Z"/><path class="cls-19" d="M834.49,654.54l6.2,4.07-2.23,5A5.79,5.79,0,0,0,840.4,666l3.39-3.29,3.58,7.55a3.55,3.55,0,0,0,1.51.34,3.61,3.61,0,0,0,1.5-.34l-2.33-7.07,5.52,2.81a7.6,7.6,0,0,0,0-2.13,9.09,9.09,0,0,0,0-1.65l-6.1-4,2.71-4.74a9.57,9.57,0,0,0-2.22-2.71l-3.59,3.38-3.78-7.84a3.63,3.63,0,0,0-2.71,0l2.33,7.36-5.72-2.62a9.09,9.09,0,0,0,0,1.65A14.12,14.12,0,0,0,834.49,654.54Z"/><path class="cls-20" d="M842,657a4.72,4.72,0,0,0,2.13,3.58,1.34,1.34,0,0,0,2.13-1.25,4.72,4.72,0,0,0-2.13-3.58C842.92,655.12,842,655.61,842,657Z"/><path class="cls-52" d="M705.7,567.87l4.26,7,10.46,17,5.13,8.42,6.78-4a7.42,7.42,0,0,0,3.1-4.65,2.51,2.51,0,0,0,0-.67v-1.36a6.18,6.18,0,0,0,0-1.36,29.08,29.08,0,0,0-13.85-22.95l-1.16-.68a9.7,9.7,0,0,0-8.33,0Z"/><path class="cls-14" d="M702.12,576.39A29.64,29.64,0,0,0,716,599.44c7.46,4.16,13.47.68,13.37-7.75a29.86,29.86,0,0,0-13.75-23C708,564.09,702,568,702.12,576.39Z"/><path class="cls-15" d="M713.25,575.13a11,11,0,0,0,0,2.43,18.49,18.49,0,0,0,3,7.36,18.18,18.18,0,0,0,3.19,4,16.37,16.37,0,0,0,3.29,2.51,9.64,9.64,0,0,0,2,.87,2.54,2.54,0,0,1,0-.87v-1.93a8.44,8.44,0,0,0,0-2.13,13.36,13.36,0,0,0,0-1.55,24.65,24.65,0,0,0-2.23-5.23,3.39,3.39,0,0,0,0-.78,29.47,29.47,0,0,0-2.62-3.39l-.58-.58a14.82,14.82,0,0,0-3.48-2.61l-.87-.49h-1.07v.58A17.68,17.68,0,0,0,713.25,575.13Z"/><path class="cls-53" d="M709.48,572.23a6.66,6.66,0,0,0-1.94,5.52,21,21,0,0,0,9.68,16.36,7.63,7.63,0,0,0,6.1,1,6.49,6.49,0,0,1-7.55,0,20.86,20.86,0,0,1-9.68-16.27,6,6,0,0,1,3.39-6.58Z"/><path class="cls-17" d="M708.7,579.4l6,3.48-2.81,8.91,1.84-.48,4.16-4.46,3,7.46c1,0,0,1.74,1.17,1.55a4.43,4.43,0,0,0,1.74-1.26l-1.74-7.46,3.29,1.84a11.22,11.22,0,0,0,0-1.64,12.59,12.59,0,0,0-.78-3.1l-2.9-2.13,1-1.94a21.87,21.87,0,0,0-2.62-3.29l-1.26,1.64-2.42-4.74-.87-.49h-2.91L715,579.2l-6.49-2.52s-1.55.78-1.55,1.65S708.51,578.52,708.7,579.4Z"/><path class="cls-19" d="M706.18,580.46l6.2,4.07-2.32,5a7.62,7.62,0,0,0,1.93,2.33l3.49-3.29,3.58,7.55a3.56,3.56,0,0,0,1.5.33,3.61,3.61,0,0,0,1.51-.33l-2.43-7.07,5.52,2.81a6.92,6.92,0,0,0,0-2.13,10.11,10.11,0,0,0,0-1.74l-6.1-3.88,2.62-4.74a9.73,9.73,0,0,0-2.13-2.72L716,580.07l-3.87-7.84a3.63,3.63,0,0,0-2.71,0l2.32,7.36L706.09,577a4.58,4.58,0,0,0,0,1.65A6,6,0,0,0,706.18,580.46Z"/><path class="cls-20" d="M713.64,582.88a4.72,4.72,0,0,0,2.13,3.58,1.34,1.34,0,0,0,2.13-1.25,4.91,4.91,0,0,0-.73-2,5.16,5.16,0,0,0-1.49-1.56C714.51,581,713.64,581.52,713.64,582.88Z"/><path class="cls-23" d="M693.69,549.76v7.36l8.14,11.82c.48-.59.87-1.17,1.35-1.65a8.85,8.85,0,0,1,6.59-2.62,14.71,14.71,0,0,1,7.07,2,30.27,30.27,0,0,1,10.75,11,29.08,29.08,0,0,1,4.16,13.85,15.59,15.59,0,0,1-.68,5l97.42,56v-2.14a12.78,12.78,0,0,1,3.1-9.1,8.84,8.84,0,0,1,2.23-1.65,9.7,9.7,0,0,1,4.35-1.06,14.71,14.71,0,0,1,7.07,2.13,31.5,31.5,0,0,1,11.53,12.3,29.77,29.77,0,0,1,3.48,12.68,17.33,17.33,0,0,1-.58,4.65l2.71,1.45,9.1-2.13,5.82-8.32-3.1-1.94L878,644.66l-58.1-38.73a170.76,170.76,0,0,0-21.3-37.86c-11.24-10.75-55.78-30.7-55.78-30.7l-24.6,9.1-18.78-8.23-3.68,4.36Z"/><path class="cls-24" d="M695.63,543l180.6,102.35-56.36-38.83L718.1,546.86l-18.79-8.23Z"/><path class="cls-23" d="M731.56,591.6a16.16,16.16,0,0,1-.68,5l97.41,56v-2.14a12.88,12.88,0,0,1,3.1-9.1,9.21,9.21,0,0,1,2.23-1.65l-106.52-62A29,29,0,0,1,731.56,591.6Z"/><path class="cls-25" d="M809.8,638.37l.48-18,2.23-12.4-.87-.19-2.32,12.39-.39,16.66-41.45-22.56-1.64-18,2.9-15.79-.1-.1-16.26-28.27-.39.29-15.79,9.39V562l-3.58,15.79,3.58,20,.88-.1-3.49-19.85,3.49-15.4L752,553.44l15.69,27.22-2.81,15.49v.1l1.74,18.69.19.09Z"/><path class="cls-26" d="M828.29,647.09v4.16l-97.41-55.88a16.45,16.45,0,0,0,.68-3.87Z"/><path class="cls-27" d="M828.2,646.31a13.36,13.36,0,0,1,2.42-8.23l2.91,1.64a8.84,8.84,0,0,0-2.23,1.65,11.88,11.88,0,0,0-3,7.07C828.29,647.76,828.2,647,828.2,646.31Z"/><path class="cls-14" d="M828.29,648.44v4.17l-97.41-56a14.65,14.65,0,0,0,.68-3.78Z"/><path class="cls-14" d="M690.21,556.06v5.62l1.93,5.81,4.75,4.84,2.13,6,1.06.68a12.75,12.75,0,0,1,0-2.62,13.93,13.93,0,0,1,1.75-7.45c.48-.59.87-1.17,1.35-1.65a9.68,9.68,0,0,1,3.1-2l-9.2-5.33-1.93-1.16Z"/><path class="cls-14" d="M725.75,551.41l3,7.55,6.87,3.88.78.48.77.49,2.13,1.25,1.65,1.07,1.16.58,1.45.87,1.17.68,24.2,14.52,3.1,1.94,32.64,19.56,1.45.87,8.23,4.94,1-5.23L802,580.46l-1.45-2.71-4.35-7.94L747.24,543l-.48-.39-1.65-.87Z"/><path class="cls-28" d="M746,543.76l-16,10.07.58,4.55,82.79,49.48.49-2.7-18.79-34.38Z"/><path class="cls-14" d="M736.59,562.93l1.07,1.16.77.39.78.49,10.65-19.66-.49-1.16-.58-.39-1.16.58Z"/><path class="cls-14" d="M767,581.14l3.1,1.84,5.32-23.34-3.1-1.55Z"/><path class="cls-14" d="M800.11,577.56V600.8l1.56.87.28-21.21-1.45-2.71Z"/><path class="cls-26" d="M825.87,635.27V641l-94.12-59.26,1.36-.68Z"/><path class="cls-14" d="M824.61,636v5.72l-92.86-54.33v-5.71Z"/><path class="cls-15" d="M937.24,622.87,938.69,610,877.1,644.47l-2.71,13.65S915.26,648.15,937.24,622.87Z"/><path class="cls-15" d="M874.88,656v-2.13a215.73,215.73,0,0,0,61.39-34.67c.48,0,.58-2.22.58-2.22v1.94s0,1.84-.58,2.22A212.87,212.87,0,0,1,874.88,656Z"/><path class="cls-15" d="M874.88,653v-2.13a215.73,215.73,0,0,0,61.39-34.67c.48,0,.58-2.22.58-2.22v1.93s0,1.84-.58,2.23A212.87,212.87,0,0,1,874.88,653Z"/><path class="cls-15" d="M874.88,650v-2.13a216.21,216.21,0,0,0,61.39-34.67c.48,0,.58-2.32.58-2.32v1.93s0,1.94-.58,2.33A215.89,215.89,0,0,1,874.88,650Z"/><path class="cls-26" d="M874.88,656.57v-2.22a212.27,212.27,0,0,0,61.39-34.57c.48,0,.58-2.33.58-2.33v1.94s0,1.94-.58,2.32A215.65,215.65,0,0,1,874.88,656.57Z"/><path class="cls-26" d="M874.88,653.57v-2.22a215.06,215.06,0,0,0,61.39-34.57c.48,0,.58-2.33.58-2.33v1.94s0,1.93-.58,2.32A215.89,215.89,0,0,1,874.88,653.57Z"/><path class="cls-26" d="M874.88,650.57v-2.23a213.14,213.14,0,0,0,61.39-34.66c.48,0,.58-2.23.58-2.23v1.94s0,1.93-.58,2.22A214.47,214.47,0,0,1,874.88,650.57Z"/><path class="cls-26" d="M875.26,645.34A215.6,215.6,0,0,0,936.37,611l.58,1.26v.49a214.49,214.49,0,0,1-61.79,34.86Z"/><path class="cls-29" d="M934.14,639.72l-62.46,35.45-.48-5.33,62.36-35.54Z"/><path class="cls-14" d="M859.77,665.78a17.72,17.72,0,0,1-.58,4.64L862,672l9.69,3.2-.48-5.33h1.93c1.94,0,3.78,1.26,5.52,0l1.26-.58L938,636.34a6,6,0,0,0,1.65-1.36,6.34,6.34,0,0,0,1.06-2.81l.49-7.84-1.55.77-60.53,34-1.64.87-20.53-8v.87A29.79,29.79,0,0,1,859.77,665.78Z"/><path class="cls-15" d="M879.13,659.09v11.53l1.26-.58A193,193,0,0,0,907,658.12a166.2,166.2,0,0,0,15.11-8.81,161.07,161.07,0,0,0,16.17-12.2,7.88,7.88,0,0,0,1.65-1.45V626Z"/><path class="cls-30" d="M876.33,646.6l11.33-5.32a1.23,1.23,0,0,1,.63-.1,1.28,1.28,0,0,1,.59.24,1.15,1.15,0,0,1,.41.49,1.2,1.2,0,0,1,.11.62v4.17a3.82,3.82,0,0,1-.67,1.9,3.7,3.7,0,0,1-1.56,1.29l-9.68,4.36Z"/><path class="cls-30" d="M927.56,619.39l8.71-6.78-.68,9.68-8.42,6.59a1.08,1.08,0,0,1-.59.25A1.12,1.12,0,0,1,926,629a1.14,1.14,0,0,1-.44-.46,1.12,1.12,0,0,1-.1-.63v-4.74A4.66,4.66,0,0,1,926,621,4.46,4.46,0,0,1,927.56,619.39Z"/><path class="cls-24" d="M935.2,613.1c0-.78,3-2.62,3-2.62a11.58,11.58,0,0,1-1,9.68l-2,1.94A42.31,42.31,0,0,0,935.2,613.1Z"/><path class="cls-31" d="M910.51,631.88a5.61,5.61,0,0,1-2.62,4.26,1.52,1.52,0,0,1-2.42-1.45,5.54,5.54,0,0,1,2.52-4.26,1.57,1.57,0,0,1,1.77-.15,1.65,1.65,0,0,1,.63.68A1.54,1.54,0,0,1,910.51,631.88Z"/><path class="cls-32" d="M911.19,632.46a5.36,5.36,0,0,1-2.52,4.17,1.57,1.57,0,0,1-.86.35,1.54,1.54,0,0,1-1.53-.89,1.53,1.53,0,0,1-.13-.92,5.43,5.43,0,0,1,2.62-4.16C910.12,630.24,911.19,630.82,911.19,632.46Z"/><path class="cls-26" d="M858.22,651.25l-1.75.87,18.21,8.33a5.33,5.33,0,0,0,4.55,0s45.71-18.21,60.91-34.57c.78-.87,1.17-1.94,0-2.62L937,620.45s0,1.94-.58,2.33a214.55,214.55,0,0,1-62.07,34.86Z"/><path class="cls-26" d="M888.82,658.9v2a1.68,1.68,0,0,1-.27.92,1.7,1.7,0,0,1-.7.63l-6.78,2.62a1.18,1.18,0,0,1-.46,0,1.07,1.07,0,0,1-.42-.19,1,1,0,0,1-.29-.36,1.17,1.17,0,0,1-.09-.45l5.72-2.23a1.52,1.52,0,0,0,.73-.62,1.46,1.46,0,0,0,.23-.93v-1.06l1.07-.49a1,1,0,0,1,.65-.18A1,1,0,0,1,888.82,658.9Z"/><path class="cls-33" d="M886.49,658.41v1.07a1.46,1.46,0,0,1-.23.93,1.52,1.52,0,0,1-.73.62l-5.72,2.23v-1.17a1.68,1.68,0,0,1,.29-.94,1.62,1.62,0,0,1,.78-.61Z"/><path class="cls-26" d="M938.3,629.46v1.16a1.84,1.84,0,0,1-.11.84,1.88,1.88,0,0,1-.47.71l-4.07,3.39s-.77,0-.77-.58l3.39-2.9a2.1,2.1,0,0,0,.52-.7,1.92,1.92,0,0,0,.16-.85v-.68l.58-.58S938.3,629,938.3,629.46Z"/><path class="cls-33" d="M937.24,629.46v.68a2.07,2.07,0,0,1-.16.85,2,2,0,0,1-.52.7l-3.39,2.9v-.77a2,2,0,0,1,.16-.85,1.89,1.89,0,0,1,.52-.7Z"/><path class="cls-34" d="M906.44,652.22v5.42a166.2,166.2,0,0,0,15.11-8.81,1,1,0,0,0,0-.49v-5c0-1-.77-1.36-1.65-.78l-12,7a3.66,3.66,0,0,0-1.45,2.71Z"/><path class="cls-19" d="M920.1,650a3.36,3.36,0,0,0,1.17-1.14,3.26,3.26,0,0,0,.47-1.57v-4.94c0-1-.68-1.36-1.64-.87l-12,7.07A3.61,3.61,0,0,0,907,649.7a3.69,3.69,0,0,0-.51,1.55v4.94c0,1,.78,1.35,1.65.87Z"/><path class="cls-35" d="M908.19,656.67l12-7a3,3,0,0,0,.95-1,3.06,3.06,0,0,0,.41-1.28v-4.94c0-.87-.58-1.16-1.36-.67l-12,7a3.14,3.14,0,0,0-.88,1,3.08,3.08,0,0,0-.38,1.25V656C906.83,656.87,907.41,657.16,908.19,656.67Z"/><path class="cls-36" d="M906.83,651.25a3.07,3.07,0,0,1,.37-1.26,2.85,2.85,0,0,1,.89-1l12-7c.77-.49,1.35,0,1.35.58Z"/><path class="cls-36" d="M921.45,647.47a2.59,2.59,0,0,1-.38,1.3,2.62,2.62,0,0,1-1,.93l-12,7a.74.74,0,0,1-1.26-.58Z"/><path class="cls-24" d="M762.93,501.64l-63.91,37,18.79,8.23,67.78-39.22L771,501.25a9.17,9.17,0,0,0-4.07-.76A9,9,0,0,0,762.93,501.64Z"/><path class="cls-37" d="M876.33,646.6l10.65-5V645a3.82,3.82,0,0,1-.67,1.91,3.77,3.77,0,0,1-1.56,1.29l-7,3.2Z"/><path class="cls-37" d="M925.42,622.78a4.6,4.6,0,0,1,1.75-3.39l5.9-4.65V619a4.05,4.05,0,0,1-.49,1.73,4.21,4.21,0,0,1-1.15,1.37l-6,4.75Z"/><path class="cls-14" d="M785.88,507.64c-23.14,8.13-67.78,39.22-67.78,39.22l24.59-9.11L807.86,499S792,506,785.88,507.64Z"/><path class="cls-38" d="M742.89,536.79c29.72-19.85,53.26-32.44,53.26-32.44L786.46,508a351,351,0,0,0-59.84,34.37A89.15,89.15,0,0,0,742.89,536.79Z"/><path class="cls-23" d="M937.24,610.87a309.7,309.7,0,0,1-60.91,34.47L819.87,606.6l67.79-39.21,50.74,42.8Z"/><path class="cls-14" d="M880,575.91s-2.33,7.36-19.37,16.94a56.81,56.81,0,0,1-25.95,9.21l-15.11,4.45,67.11-39.41Z"/><path class="cls-14" d="M863.06,530.88a227.75,227.75,0,0,1-64.59,37.57s11.43,18.31,21.31,37.87a244.15,244.15,0,0,0,67.78-39.22S876.52,550.25,863.06,530.88Z"/><path class="cls-39" d="M800.11,568.94c3,4,11.82,19.36,20.25,36a243.27,243.27,0,0,0,65.94-38.15c-1.55-3.39-12.1-17.72-23.43-34.48l-2.23,1.94a189.33,189.33,0,0,1-16,11.43A304.47,304.47,0,0,1,800.11,568.94Z"/><path class="cls-23" d="M925.52,617,880,575.91s6.68-7.75,8.81-6.3a322.74,322.74,0,0,1,45,38.74Z"/><path class="cls-24" d="M925.52,617l-44.64-42.22,6.78-7.65A429.16,429.16,0,0,1,938.59,610Z"/><path class="cls-24" d="M877.78,644.76l-57.91-38.25,15-4.45,57.42,34.57Z"/><path class="cls-40" d="M844.47,604.86l1.06.68a2.74,2.74,0,0,0,2.33,0l10.65-4.74c1.26-.59,1.36-1.65,0-2.13l-1-.49a3.24,3.24,0,0,0-2.13,0l-10.55,4.65C843.88,603.41,843.6,604.28,844.47,604.86Z"/><path class="cls-23" d="M849.21,605.35l-.87.29L843.69,603l.68-.38Z"/><path class="cls-23" d="M851.44,604.57l-.87.2L846,602.15l.68-.38Z"/><path class="cls-23" d="M853.76,603.7l-.87.2-4.65-2.62.68-.29Z"/><path class="cls-23" d="M856,602.83l-.87.29-4.55-2.61.68-.39Z"/><path class="cls-23" d="M858.12,601.86l-.87.29-4.65-2.61.78-.39Z"/><path class="cls-23" d="M859.87,600.8l-.78.19-4.65-2.62.68-.38Z"/><path class="cls-40" d="M883.88,581.62l-1.07-.68a1.72,1.72,0,0,0-1-.29,1.75,1.75,0,0,0-1,.29l-8.33,6.59a1.5,1.5,0,0,0-.53.53,1.43,1.43,0,0,0-.2.73,1.46,1.46,0,0,0,.2.73,1.5,1.5,0,0,0,.53.53l1,.48a2.12,2.12,0,0,0,1.84,0l8.13-6.29C884.65,583.46,884.75,582.2,883.88,581.62Z"/><path class="cls-23" d="M879.72,581.43l.67-.39,4.46,2.71-.48.49Z"/><path class="cls-23" d="M878,582.59l.68-.29,4.36,2.62-.48.58Z"/><path class="cls-23" d="M876.13,583.85l.68-.39,4.46,2.72-.49.48Z"/><path class="cls-23" d="M874.39,585l.68-.29,4.36,2.62-.49.58Z"/><path class="cls-23" d="M872.74,586.37l.68-.39,4.36,2.71-.48.49Z"/><path class="cls-23" d="M871.39,587.82l.68-.38,4.45,2.71-.58.58Z"/><path class="cls-41" d="M864.51,540.08,880.59,564l-.49,2.81-12.3-7.36Z"/><path class="cls-41" d="M844.66,545.7l21.6,12.88-3.59-21.21-2-3.1A189.33,189.33,0,0,1,844.66,545.7Z"/><path class="cls-24" d="M807.86,499.41c2.62-1,55.2,31.47,55.2,31.47a223.56,223.56,0,0,1-64.59,37.57l-55.78-30.7A456.54,456.54,0,0,1,807.86,499.41Z"/><path class="cls-26" d="M690.21,556.06l3.39-4,.19,2.81,14.52,9-2.22,1.36Z"/><path class="cls-42" d="M695.63,543l.77.48a4.13,4.13,0,0,1,1,1.36,3.42,3.42,0,0,1,0,1.74v5.81a1.94,1.94,0,0,1,0,1.26h-1.16l-1.45-1c-.58,0,0,0-.78-.68v-2Z"/><path class="cls-15" d="M824.61,636v5.72l1.26-.78v-5.71Z"/><path class="cls-26" d="M856.47,653.09A45.09,45.09,0,0,0,843.4,640a10.44,10.44,0,0,0-12.1,1.35,11.11,11.11,0,0,0-3.1,7.56v3.68l-.58-7.27a11.05,11.05,0,0,1,8.6-9.64,10.83,10.83,0,0,1,4.57,0c12.2,1.74,19.36,16.65,19.36,16.65Z"/><path class="cls-14" d="M832.56,636.82a12.34,12.34,0,0,1,6.48-.58c12.21,1.64,18.89,17.33,18.89,17.33h-1.16a47.73,47.73,0,0,0-13.37-13.75,11.33,11.33,0,0,0-10.84,0c-1.45,0-3.59,4.07-4.26,12.3l-2.13-1.26C826.94,643.12,829,639.24,832.56,636.82Z"/><path class="cls-26" d="M705.7,565.45a19.32,19.32,0,0,1,12.49,2.23,29,29,0,0,1,11.43,17.82l1.94,7.35.77-.87s-.77-6.19-1.45-8.71a24.88,24.88,0,0,0-11-16.66,14.24,14.24,0,0,0-11.62-2.71Z"/><path class="cls-14" d="M730.88,596.63l-1.16-.77a36.71,36.71,0,0,0-.88-11.91,26.2,26.2,0,0,0-11.52-15.21,13.8,13.8,0,0,0-11.62-1.84,10.53,10.53,0,0,0-5.42,5.62c-.58,2.33-1.65-1-1.65-1l4.07-6.29h3a19.32,19.32,0,0,1,9,0,27.89,27.89,0,0,1,15,18.2,35.67,35.67,0,0,1,1.84,8.91l1.54,3.39Z"/><path class="cls-43" d="M832.75,625.88l2,1.16a1.81,1.81,0,0,1,.61.62,1.88,1.88,0,0,1,.26.83v.78a1.08,1.08,0,0,1-.16.42.9.9,0,0,1-.33.31.93.93,0,0,1-.43.12,1,1,0,0,1-.44-.08l-1.94-1.16a1.51,1.51,0,0,1-.65-.6,1.57,1.57,0,0,1-.22-.85v-.78a.91.91,0,0,1,.11-.42.84.84,0,0,1,.31-.31.86.86,0,0,1,.41-.13A.8.8,0,0,1,832.75,625.88Z"/><path class="cls-44" d="M832.36,626.17l2,1.16a1.56,1.56,0,0,1,.87,1.45v.78a.91.91,0,0,1-.11.42,1,1,0,0,1-.31.32.85.85,0,0,1-.41.12.8.8,0,0,1-.43-.09l-2-1.16a1.51,1.51,0,0,1-.65-.6,1.43,1.43,0,0,1-.22-.85v-.78a.78.78,0,0,1,.11-.42.75.75,0,0,1,.3-.31.77.77,0,0,1,.42-.13A.78.78,0,0,1,832.36,626.17Z"/><path class="cls-24" d="M877.1,646.31h-1.74a3.52,3.52,0,0,0-1.55,1.74c-.19.78-1,1.55-1.26,2.52a4.63,4.63,0,0,0-.37,1.79,4.55,4.55,0,0,0,.37,1.79s1.94,1.55,2.33,1.36l2.42-1.16A12,12,0,0,0,877.1,646.31Z"/><path class="cls-45" d="M873.91,565a19.37,19.37,0,0,0,11.13-.49c.58,1.07,1.07,1.84,1.26,2.33A243.27,243.27,0,0,1,820.36,605l-3.59-6.87C829.65,590.14,846.31,580.56,873.91,565Z"/><path class="cls-14" d="M792,602.83a5.14,5.14,0,0,0,1,3.25,5.07,5.07,0,0,0,2.84,1.88,8.84,8.84,0,0,0,2.41,0c4.27,0,9.69,0,10.37-.68s4.94,0,4.94,0a3,3,0,0,0,.78-1,3,3,0,0,0,.28-1.23,3,3,0,0,0-1.06-2.23l-.88-.68h-2.51a5.13,5.13,0,0,0,0-1,8.31,8.31,0,0,0-9.69-4.07C790.72,599.83,792,602.83,792,602.83Z"/><path class="cls-14" d="M769.42,591.11l7,4.07c0-1.26,0-2-1.16-2.91a39.32,39.32,0,0,0-4.17-2.42C769.32,588.89,769.42,591.11,769.42,591.11Z"/><path class="cls-14" d="M738,572.23l7,4.07c0-1.36,0-2.13-1.16-2.91a42.76,42.76,0,0,0-4.07-2.42C737.85,570,738,572.23,738,572.23Z"/><line class="cls-54" x1="803.28" y1="306.58" x2="803.28" y2="309.55"/><line class="cls-55" x1="803.28" y1="315.56" x2="803.28" y2="516.96"/><line class="cls-54" x1="803.28" y1="519.97" x2="803.28" y2="522.94"/></g><g id="Ramar"><path d="M0,.05v1920H1080V.05ZM1109.2,1958.79H-29.2V-37.33H1109.2Z"/></g></svg>