<svg xmlns="http://www.w3.org/2000/svg" xmlns:xlink="http://www.w3.org/1999/xlink" viewBox="0 0 1080 1920"><defs><style>.cls-1,.cls-35,.cls-36{fill:none;}.cls-2{fill:#06395b;}.cls-3{fill:#414c5c;}.cls-4{fill:#293237;}.cls-5{fill:url(#Namnlös_övertoning_68);}.cls-6{fill:#a1a1a1;}.cls-7{fill:url(#Namnlös_övertoning_69);}.cls-8{fill:#d3d3d3;}.cls-9{fill:#b6b6b6;}.cls-10{fill:url(#Namnlös_övertoning_68-2);}.cls-11{fill:url(#Namnlös_övertoning_69-2);}.cls-12{fill:#73a538;}.cls-13{fill:#79b53b;}.cls-14{fill:#577729;}.cls-15{fill:#546672;}.cls-16{fill:#409e4e;}.cls-17{fill:#529ba3;}.cls-18{fill:#141e25;}.cls-19{fill:#9cb7d2;}.cls-20{fill:#768a99;}.cls-21{fill:#c4c4c4;}.cls-22{fill:#bed5df;}.cls-23{fill:#12181d;}.cls-24{fill:#efec82;}.cls-25{fill:#d3a944;}.cls-26{fill:#e8f0f3;}.cls-27{fill:#88d5de;}.cls-28{fill:#3d7d87;}.cls-29{fill:#3e2f37;}.cls-30{fill:#95c9b1;}.cls-31{fill:#e08a35;}.cls-32{fill:#e06e18;}.cls-33{fill:#e0ab35;}.cls-34{fill:#5b949c;}.cls-35,.cls-36{stroke:#fff;stroke-miterlimit:10;stroke-width:3px;}.cls-36{stroke-dasharray:12.13 12.13;}.cls-37{clip-path:url(#clip-path);}.cls-38{clip-path:url(#clip-path-2);}.cls-39{fill:#6e7071;}.cls-40{fill:#c9c9c9;}.cls-41{fill:#efefef;}.cls-42{fill:#b5ac96;}.cls-43{fill:#d1d1d1;}.cls-44{fill:#c6beb7;}</style><linearGradient id="Namnlös_övertoning_68" x1="-4630.75" y1="2594.29" x2="-4393.7" y2="2594.29" gradientTransform="matrix(1, 0, 0, -1, 0, 3954)" gradientUnits="userSpaceOnUse"><stop offset="0.16" stop-color="#3c4851"/><stop offset="0.56" stop-color="#556773"/><stop offset="0.87" stop-color="#51626e"/></linearGradient><linearGradient id="Namnlös_övertoning_69" x1="-2073.41" y1="-743.74" x2="-1997.36" y2="-649.24" gradientTransform="matrix(1, 0, 0, -1, 0, 3954)" gradientUnits="userSpaceOnUse"><stop offset="0.16" stop-color="#e3e3e3"/><stop offset="0.56" stop-color="#ccc"/><stop offset="0.87" stop-color="#b7b7b7"/></linearGradient><linearGradient id="Namnlös_övertoning_68-2" x1="-4060.52" y1="2742.65" x2="-3824.98" y2="2742.65" xlink:href="#Namnlös_övertoning_68"/><linearGradient id="Namnlös_övertoning_69-2" x1="-1966.86" y1="-143.05" x2="-1890.84" y2="-48.47" xlink:href="#Namnlös_övertoning_69"/><clipPath id="clip-path"><polygon class="cls-1" points="2431.38 2258.47 1351.38 2893.66 1351.38 2116.18 2431.38 2114.95 2431.38 2258.47"/></clipPath><clipPath id="clip-path-2"><rect class="cls-1" x="1351.38" y="2109.44" width="1114.15" height="1120.09"/></clipPath></defs><title>ledtec-notext</title><g id="Lager_1" data-name="Lager 1"><rect class="cls-2" width="1080" height="1830"/><path class="cls-3" d="M686.59,1172.43a18.39,18.39,0,0,1,1.76-21.9c7.62-11.14,13.48-7.42,13.48-7.42a12.51,12.51,0,0,1,2.94,16.61c-3.52,6.65-7,15.84-9.58,15.84s-3.72,8.2-3.72,8.2l-7.23-7.43Z"/><path class="cls-4" d="M576.93,1353.82,626,1326.65l-59.23-24.82Z"/><path class="cls-4" d="M317.94,1205.27,367,1178.09l-59.23-24.82Z"/><path class="cls-5" d="M588.46,1331.54l8.8,14.07,20.91,34.4,10.37,17,13.87-8a15.23,15.23,0,0,0,6.45-9.38v-2.35a5.77,5.77,0,0,0,0-1.76V1372a59.78,59.78,0,0,0-27.76-46.33l-2.53-1.36a19.47,19.47,0,0,0-16.82,0Z"/><path class="cls-3" d="M581.82,1349.52a59.9,59.9,0,0,0,27.95,46.53c15.25,8.4,27.36,1.36,27.17-15.64a59.85,59.85,0,0,0-28-46.53C593.15,1325.48,581.82,1332.51,581.82,1349.52Z"/><path class="cls-6" d="M589.25,1354a24,24,0,0,0,0,5.08,45.87,45.87,0,0,0,6,14.85,41.76,41.76,0,0,0,6.45,7.82,26.55,26.55,0,0,0,6.65,5.09,17.65,17.65,0,0,0,5.48,2.15,11.17,11.17,0,0,0,8,0,11.37,11.37,0,0,0,3.52-3.52v-9.19a20.57,20.57,0,0,0,0-3.33,27.06,27.06,0,0,0,0-3.12,44.06,44.06,0,0,0-4.3-10.55l-1-1.57a58.6,58.6,0,0,0-5.08-6.64v-1.18a33.48,33.48,0,0,0-5.09-4.1l-2-1.17-2-1h-4.69a15.93,15.93,0,0,0-2.93,0,6.8,6.8,0,0,0-2.73,1.18,10.52,10.52,0,0,0-3.65,3.27,10.72,10.72,0,0,0-1.83,4.55C589.88,1353.1,589.56,1353.55,589.25,1354Z"/><path class="cls-4" d="M603.71,1347a21,21,0,0,0,0,4.89,44.22,44.22,0,0,0,6.06,14.85,42.59,42.59,0,0,0,6.45,8,39,39,0,0,0,6.64,5.09l4.11,1.76v-10a23.35,23.35,0,0,0,0-3.13,39.1,39.1,0,0,0-4.3-10.55l-1-1.57a58,58,0,0,0-5.28-6.84v-1.17a40.63,40.63,0,0,0-7-5.28l-2-1h-2.16v1.18A34.6,34.6,0,0,0,603.71,1347Z"/><path class="cls-7" d="M596.29,1341.12a13.44,13.44,0,0,0-3.33,5.1,13.64,13.64,0,0,0-.78,6,42.79,42.79,0,0,0,19.54,33,15.44,15.44,0,0,0,5.95,2.28,15.73,15.73,0,0,0,6.37-.32,13.13,13.13,0,0,1-15.25,0,42.19,42.19,0,0,1-19.54-32.84,12.46,12.46,0,0,1,7-13.29Z"/><path class="cls-6" d="M594.53,1355.58l12.11,7-5.47,18c0,1,3.52,0,3.52,0l8.4-9,6.07,15.05c2,0,0,3.52,2.34,3.13a8.67,8.67,0,0,0,3.71-2.54l-4.3-16.62,6.65,3.72a20.57,20.57,0,0,0,0-3.33,28.91,28.91,0,0,0-1.76-6.25l-5.67-4.3,2-3.91a59.7,59.7,0,0,0-5.09-6.65l-2.74,3.33-4.69-9.58-2-1h-6.26l4.89,11.93-12.9-5.09s-3.32,1.57-3.32,3.33S594.32,1353.82,594.53,1355.58Z"/><path class="cls-8" d="M589.44,1357.73l12.51,8.21-4.49,10.17a11.69,11.69,0,0,0,3.9,4.69l6.85-6.65,7.23,15.24a7,7,0,0,0,6.06,0l-4.69-14.26L628,1380.8a14.82,14.82,0,0,0,0-4.31,20.32,20.32,0,0,0,0-3.31l-12.31-8,5.47-9.58a19.63,19.63,0,0,0-4.5-5.47l-7.23,6.84-7.63-15.83a7.39,7.39,0,0,0-5.47,0L601,1356l-11.54-5.28a18.52,18.52,0,0,0,0,3.33A25.52,25.52,0,0,0,589.44,1357.73Z"/><path class="cls-9" d="M604.49,1362.62a9.64,9.64,0,0,0,4.3,7.23c2.35,1.17,4.3,0,4.3-2.54a9.38,9.38,0,0,0-1.31-4.11,9.49,9.49,0,0,0-3-3.12C606.45,1358.9,604.49,1359.88,604.49,1362.62Z"/><path class="cls-10" d="M329.47,1182.78l8.6,14.08,21.11,34.4,10.36,17,13.68-8a15.08,15.08,0,0,0,6.26-9.39,5.24,5.24,0,0,0,0-1.37v-2.73a12.55,12.55,0,0,0,0-2.74,58.66,58.66,0,0,0-28-46.32l-2.35-1.38a19.63,19.63,0,0,0-16.81,0Z"/><path class="cls-3" d="M322.24,1200a59.74,59.74,0,0,0,27.95,46.52c15.05,8.41,27.17,1.37,27-15.64a60.25,60.25,0,0,0-27.75-46.52C334.16,1175.16,322,1183,322.24,1200Z"/><path class="cls-4" d="M344.71,1197.45a21,21,0,0,0,0,4.89,37.41,37.41,0,0,0,6.06,14.85,36.46,36.46,0,0,0,6.46,8,33.51,33.51,0,0,0,6.64,5.08,19.66,19.66,0,0,0,4.11,1.76,5.2,5.2,0,0,1,0-1.76v-3.91a16.29,16.29,0,0,0,0-4.3,23.35,23.35,0,0,0,0-3.13,48.72,48.72,0,0,0-4.5-10.56,5.82,5.82,0,0,0,0-1.56,58.23,58.23,0,0,0-5.28-6.84l-1.17-1.17a30,30,0,0,0-7-5.28l-1.76-1h-2.15v1.17A34.47,34.47,0,0,0,344.71,1197.45Z"/><path class="cls-11" d="M337.09,1191.58a13.48,13.48,0,0,0-3.91,11.14,42.46,42.46,0,0,0,19.55,33,15.47,15.47,0,0,0,12.31,2,13.07,13.07,0,0,1-15.24,0,42.24,42.24,0,0,1-19.55-32.84,12.14,12.14,0,0,1,6.84-13.29Z"/><path class="cls-6" d="M335.53,1206.05l12.12,7-5.67,18,3.71-1,8.41-9,6.06,15.05c1.95,0,0,3.52,2.34,3.13a8.74,8.74,0,0,0,3.52-2.54l-3.52-15,6.65,3.71a20.45,20.45,0,0,0,0-3.32,25.81,25.81,0,0,0-1.57-6.25l-5.86-4.31,1.95-3.9a44,44,0,0,0-5.27-6.66l-2.54,3.33-4.89-9.57-1.76-1h-5.86l4.88,11.93-13.09-5.08s-3.13,1.56-3.13,3.32S335.14,1204.29,335.53,1206.05Z"/><path class="cls-8" d="M330.45,1208.2l12.51,8.21-4.69,10.16a15.48,15.48,0,0,0,3.9,4.69l7-6.64,7.23,15.25a7.29,7.29,0,0,0,6.06,0l-4.88-14.28,11.14,5.67a14.75,14.75,0,0,0,0-4.3,22.85,22.85,0,0,0,0-3.51l-12.32-7.83,5.28-9.57a19.36,19.36,0,0,0-4.3-5.47l-7.23,6.84-7.82-15.84a7.39,7.39,0,0,0-5.47,0l4.69,14.86-11.34-5.28a9.26,9.26,0,0,0,0,3.32A11.92,11.92,0,0,0,330.45,1208.2Z"/><path class="cls-9" d="M345.5,1213.08a9.56,9.56,0,0,0,4.3,7.24c2.34,1.17,4.3,0,4.3-2.54a10.33,10.33,0,0,0-4.5-7.23C347.26,1209.37,345.5,1210.35,345.5,1213.08Z"/><path class="cls-12" d="M305.23,1146.24v14.85l16.42,23.85c1-1.18,1.76-2.35,2.74-3.33a19.42,19.42,0,0,1,6.25-4.1,19.66,19.66,0,0,1,7-1.18,29.65,29.65,0,0,1,14.27,4.11,61,61,0,0,1,21.69,22.28,58.57,58.57,0,0,1,8.41,28,32.07,32.07,0,0,1-1.37,10.17l196.64,113v-4.3a25.78,25.78,0,0,1,6.26-18.37,17.76,17.76,0,0,1,4.5-3.33,19.73,19.73,0,0,1,8.79-2.15,29.92,29.92,0,0,1,14.27,4.31,63.47,63.47,0,0,1,23.26,24.82,60.2,60.2,0,0,1,7,25.6,35.4,35.4,0,0,1-1.18,9.39l5.47,2.93,18.38-4.3,11.73-16.81-6.26-3.91,7.63-29.91-117.28-78.18a345.09,345.09,0,0,0-43-76.43c-22.67-21.7-112.59-62-112.59-62l-49.65,18.38L316.76,1123l-7.42,8.8Z"/><path class="cls-13" d="M309.14,1132.55l364.55,206.61-113.76-78.38L354.49,1140.37l-37.92-16.61Z"/><path class="cls-12" d="M381.66,1230.68a32,32,0,0,1-1.37,10.16l196.64,113v-4.3a25.86,25.86,0,0,1,6.25-18.37,18.12,18.12,0,0,1,4.5-3.33l-215-125.1A58.7,58.7,0,0,1,381.66,1230.68Z"/><path class="cls-14" d="M539.6,1325.09l1-36.36,4.5-25-1.76-.39-4.69,25-.78,33.62-83.66-45.55-3.33-36.35,5.87-31.86-.2-.2-32.83-57.07-.79.58-31.86,19v.39l-7.23,31.86L391,1243l1.76-.19-7-40.08,7-31.08,30.1-18,31.67,54.92-5.67,31.28v.19l3.52,37.73.39.19Z"/><path class="cls-15" d="M576.93,1342.68v8.41L380.29,1238.3a33,33,0,0,0,1.37-7.82Z"/><path class="cls-16" d="M576.73,1341.12a26.94,26.94,0,0,1,4.9-16.62l5.86,3.32a17.94,17.94,0,0,0-4.5,3.33,23.84,23.84,0,0,0-6.06,14.27C576.93,1344.05,576.73,1342.48,576.73,1341.12Z"/><path class="cls-3" d="M576.93,1345.41v8.41l-196.64-113a29.48,29.48,0,0,0,1.37-7.62Z"/><path class="cls-3" d="M298.19,1158.94v11.34L302.1,1182l9.58,9.77,4.3,12.12,2.15,1.37a24.53,24.53,0,0,1,0-5.28,28.22,28.22,0,0,1,3.52-15c1-1.18,1.76-2.35,2.74-3.33a19.42,19.42,0,0,1,6.25-4.1l-18.57-10.75-3.91-2.35Z"/><path class="cls-3" d="M369.93,1149.56l6.06,15.25,13.88,7.81,1.56,1,1.57,1,4.3,2.54,3.32,2.15,2.34,1.17,2.94,1.76,2.34,1.37,48.87,29.32,6.26,3.91,65.86,39.48,2.94,1.76,16.61,10,2-10.55-27-49.26-2.93-5.48-8.79-16-98.72-54.15-1-.78L409,1130Z"/><path class="cls-17" d="M410.78,1134.12l-32.25,20.33,1.17,9.18,167.13,99.88,1-5.46-37.93-69.4Z"/><path class="cls-3" d="M391.82,1172.82l2.15,2.34,1.57.79,1.56,1,21.5-39.68-1-2.34-1.17-.78-2.34,1.17Z"/><path class="cls-3" d="M453.2,1209.57l6.26,3.71,10.74-47.11-6.25-3.12Z"/><path class="cls-3" d="M520.05,1202.34v46.91l3.13,1.76.58-42.81-2.93-5.48Z"/><path class="cls-15" d="M572,1318.84v11.52l-190-119.62,2.74-1.37Z"/><path class="cls-3" d="M569.5,1320.4v11.53L382.05,1222.27v-11.53Z"/><path class="cls-4" d="M796.83,1293.81l2.93-26L675.45,1337.4,670,1365S752.46,1344.83,796.83,1293.81Z"/><path class="cls-4" d="M671,1360.66v-4.3a436,436,0,0,0,123.93-70c1,0,1.17-4.49,1.17-4.49v3.91s0,3.72-1.17,4.5A430.24,430.24,0,0,1,671,1360.66Z"/><path class="cls-4" d="M671,1354.61v-4.31a435.71,435.71,0,0,0,123.93-70c1,0,1.17-4.5,1.17-4.5v3.91s0,3.71-1.17,4.5A430.5,430.5,0,0,1,671,1354.61Z"/><path class="cls-4" d="M671,1348.54v-4.3a436.19,436.19,0,0,0,123.93-70c1,0,1.17-4.69,1.17-4.69v3.9s0,3.92-1.17,4.69A435.14,435.14,0,0,1,671,1348.54Z"/><path class="cls-15" d="M671,1361.83v-4.49a428.12,428.12,0,0,0,123.93-69.78c1,0,1.17-4.7,1.17-4.7v3.92s0,3.91-1.17,4.69A435.59,435.59,0,0,1,671,1361.83Z"/><path class="cls-15" d="M671,1355.78v-4.5a433.44,433.44,0,0,0,123.93-69.78c1,0,1.17-4.69,1.17-4.69v3.91s0,3.9-1.17,4.69A435.85,435.85,0,0,1,671,1355.78Z"/><path class="cls-15" d="M671,1349.72v-4.5a430,430,0,0,0,123.93-70c1,0,1.17-4.49,1.17-4.49v3.91s0,3.91-1.17,4.49A433,433,0,0,1,671,1349.72Z"/><path class="cls-15" d="M671.73,1339.16a436.06,436.06,0,0,0,123.34-69.39l1.17,2.54v1a432.91,432.91,0,0,1-124.71,70.36Z"/><path class="cls-18" d="M790.58,1327.82,664.5,1399.36l-1-10.75,125.89-71.73Z"/><path class="cls-3" d="M640.45,1380.41a35,35,0,0,1-1.17,9.38l5.67,3.12,19.55,6.45-1-10.75h3.91c3.91,0,7.62,2.54,11.14,0l2.55-1.17L798.39,1321a11.84,11.84,0,0,0,3.33-2.73,12.67,12.67,0,0,0,2.14-5.67l1-15.84-3.12,1.57-122.17,68.61-3.33,1.76-41.43-16.23v1.76A60.14,60.14,0,0,1,640.45,1380.41Z"/><path class="cls-4" d="M679.55,1366.92v23.26l2.54-1.17a389.41,389.41,0,0,0,53.75-24,338.74,338.74,0,0,0,30.5-17.8A325.39,325.39,0,0,0,799,1322.55a16.08,16.08,0,0,0,3.33-2.94v-19.54Z"/><path class="cls-19" d="M673.88,1341.7,696.75,1331a2.54,2.54,0,0,1,2.48.29,2.45,2.45,0,0,1,.81,1,2.51,2.51,0,0,1,.23,1.27v8.4a7.56,7.56,0,0,1-1.36,3.85,7.69,7.69,0,0,1-3.13,2.6l-19.56,8.79Z"/><path class="cls-19" d="M777.29,1286.78l17.59-13.68-1.37,19.54-17,13.3a2.25,2.25,0,0,1-1.19.49A2.15,2.15,0,0,1,773,1304v-9.58a9.14,9.14,0,0,1,4.3-7.62Z"/><path class="cls-13" d="M792.72,1274.07c0-1.56,6.07-5.28,6.07-5.28a23.41,23.41,0,0,1-2,19.55l-4.11,3.91A87.67,87.67,0,0,0,792.72,1274.07Z"/><path class="cls-20" d="M742.88,1312a11.3,11.3,0,0,1-1.63,4.92,11.16,11.16,0,0,1-3.65,3.68c-2.73,1.37-4.88,0-4.88-2.93a11.13,11.13,0,0,1,5.08-8.6,3.09,3.09,0,0,1,1.74-.71,3.06,3.06,0,0,1,1.82.41,3.1,3.1,0,0,1,1.52,3.23Z"/><path class="cls-21" d="M744.25,1313.16a10.8,10.8,0,0,1-5.08,8.41,3.16,3.16,0,0,1-1.73.71,3,3,0,0,1-1.83-.41,3.12,3.12,0,0,1-1.52-3.23,10.85,10.85,0,0,1,1.63-4.84,11,11,0,0,1,3.64-3.57C742.1,1308.67,744.25,1309.84,744.25,1313.16Z"/><path class="cls-15" d="M637.33,1351.09l-3.52,1.76,36.75,16.81a10.74,10.74,0,0,0,9.18,0s92.27-36.75,123-69.79c1.57-1.76,2.35-3.9,0-5.28l-6.45-5.66s0,3.9-1.17,4.69A432.78,432.78,0,0,1,669.78,1364Z"/><path class="cls-15" d="M699.09,1366.52v4.11a3.48,3.48,0,0,1-.53,1.85,3.58,3.58,0,0,1-1.42,1.28L683.46,1379a2.09,2.09,0,0,1-.93.06,2,2,0,0,1-.85-.38,1.93,1.93,0,0,1-.58-.72,2,2,0,0,1-.18-.92l11.53-4.49a3.12,3.12,0,0,0,1.95-3.13v-2.15l2.16-1a1.89,1.89,0,0,1,1.3-.37A2,2,0,0,1,699.09,1366.52Z"/><path class="cls-22" d="M694.4,1365.55v2.15a3.12,3.12,0,0,1-1.95,3.13l-11.53,4.49V1373a3.37,3.37,0,0,1,.58-1.89,3.28,3.28,0,0,1,1.57-1.23Z"/><path class="cls-15" d="M799,1307.11v2.34a4,4,0,0,1-1.17,3.13l-8.21,6.84s-1.57,0-1.57-1.17l6.85-5.86a4,4,0,0,0,1-1.41,3.83,3.83,0,0,0,.32-1.73v-1.36l1.17-1.18S799,1306.13,799,1307.11Z"/><path class="cls-22" d="M796.83,1307.11v1.36a4.07,4.07,0,0,1-.32,1.73,3.92,3.92,0,0,1-1,1.4l-6.84,5.86v-1.56a3.78,3.78,0,0,1,.33-1.72,3.9,3.9,0,0,1,1-1.41Z"/><path class="cls-23" d="M734.67,1353v11a339.47,339.47,0,0,0,30.49-17.79,2,2,0,0,0,0-1v-10.16c0-2-1.56-2.74-3.32-1.57l-24.24,14.08a7.28,7.28,0,0,0-2.08,2.4A7.5,7.5,0,0,0,734.67,1353Z"/><path class="cls-8" d="M762.23,1348.54a6.6,6.6,0,0,0,3.33-5.47v-10c0-1.95-1.37-2.74-3.33-1.76L738,1345.61a7.17,7.17,0,0,0-2.3,2.35,7.25,7.25,0,0,0-1,3.13v10c0,2,1.57,2.73,3.33,1.76Z"/><path class="cls-24" d="M738.19,1362,762.43,1348a6.11,6.11,0,0,0,1.9-1.92,5.94,5.94,0,0,0,.83-2.58v-10c0-1.76-1.17-2.35-2.73-1.38l-24.24,14.08a6.2,6.2,0,0,0-2.54,4.49v10C735.45,1362.42,736.63,1363,738.19,1362Z"/><path class="cls-25" d="M735.45,1351.09a6.13,6.13,0,0,1,.75-2.55,6,6,0,0,1,1.8-2l24.23-14.08c1.57-1,2.74,0,2.74,1.18Z"/><path class="cls-25" d="M765,1343.46a5.16,5.16,0,0,1-.77,2.62,5.39,5.39,0,0,1-2,1.88L738,1362a1.51,1.51,0,0,1-2.55-1.17Z"/><path class="cls-13" d="M445,1049.09l-129,74.67,37.92,16.61,136.83-79.16-29.52-12.9a18.11,18.11,0,0,0-16.22.78Z"/><path class="cls-26" d="M673.88,1341.7l21.5-10.16v6.84a7.6,7.6,0,0,1-4.5,6.45l-14.07,6.45Z"/><path class="cls-26" d="M773,1293.62a9.17,9.17,0,0,1,3.52-6.84l11.92-9.39V1286a8.6,8.6,0,0,1-3.33,6.25L773,1301.83Z"/><path class="cls-3" d="M491.31,1061.21c-46.71,16.42-136.82,79.16-136.82,79.16L404.14,1122l131.55-78.19S503.63,1057.89,491.31,1061.21Z"/><path class="cls-27" d="M404.53,1120c60-40.06,107.51-65.48,107.51-65.48L492.49,1062a708.92,708.92,0,0,0-120.8,69.39A180.13,180.13,0,0,0,404.53,1120Z"/><path class="cls-12" d="M796.83,1269.58a624.87,624.87,0,0,1-123,69.58l-114-78.19,136.82-79.16,102.42,86.39Z"/><path class="cls-3" d="M681.31,1199s-4.69,14.86-39.1,34.21a114.54,114.54,0,0,1-52.38,18.57l-30.49,9,135.46-79.55Z"/><path class="cls-3" d="M647.1,1108.12A459.69,459.69,0,0,1,516.73,1184s23.06,36.94,43,76.43a492.69,492.69,0,0,0,136.83-79.16S674.27,1147.21,647.1,1108.12Z"/><path class="cls-28" d="M520.05,1184.94c6.06,8,23.84,39.09,40.85,72.71a491.28,491.28,0,0,0,133.12-77c-3.14-6.84-24.44-35.77-47.31-69.59l-4.5,3.91A377.85,377.85,0,0,1,610,1138,616.16,616.16,0,0,1,520.05,1184.94Z"/><path class="cls-12" d="M773.18,1281.89,681.31,1199s13.49-15.64,17.78-12.71a650.63,650.63,0,0,1,90.9,78.19Z"/><path class="cls-13" d="M773.18,1281.89l-90.11-85.22,13.68-15.44a866.38,866.38,0,0,1,102.82,86.59Z"/><path class="cls-13" d="M676.81,1338l-116.88-77.21,30.29-9,115.91,69.78Z"/><path class="cls-29" d="M609.57,1257.46l2.15,1.36a5.49,5.49,0,0,0,2.35.53,5.41,5.41,0,0,0,2.34-.53l21.51-9.57c2.53-1.18,2.73-3.33,0-4.3l-2-1a6.47,6.47,0,0,0-4.3,0l-21.3,9.38C608.4,1254.53,607.81,1256.28,609.57,1257.46Z"/><path class="cls-12" d="M619.15,1258.44l-1.76.58-9.38-5.28,1.37-.78Z"/><path class="cls-12" d="M623.65,1256.87l-1.76.39L612.7,1252l1.37-.78Z"/><path class="cls-12" d="M628.34,1255.11l-1.76.39-9.38-5.27,1.37-.59Z"/><path class="cls-12" d="M632.83,1253.35l-1.76.59-9.18-5.28,1.37-.78Z"/><path class="cls-12" d="M637.13,1251.4l-1.75.58-9.39-5.27,1.57-.79Z"/><path class="cls-12" d="M640.65,1249.25l-1.56.39-9.38-5.28,1.36-.78Z"/><path class="cls-29" d="M689.13,1210.55l-2.15-1.38a3.58,3.58,0,0,0-3.91,0l-16.81,13.3a3,3,0,0,0-1.47,2.54,3,3,0,0,0,1.47,2.54l2,1a4.31,4.31,0,0,0,3.71,0l16.42-12.71C690.69,1214.26,690.89,1211.72,689.13,1210.55Z"/><path class="cls-12" d="M680.72,1210.15l1.37-.78,9,5.47-1,1Z"/><path class="cls-12" d="M677.21,1212.5l1.36-.59,8.8,5.28-1,1.17Z"/><path class="cls-12" d="M673.49,1215l1.37-.78,9,5.47-1,1Z"/><path class="cls-12" d="M670,1217.38l1.36-.58,8.8,5.28-1,1.17Z"/><path class="cls-12" d="M666.65,1220.12l1.37-.78,8.79,5.47-1,1Z"/><path class="cls-12" d="M663.91,1223.05l1.37-.77,9,5.47-1.17,1.17Z"/><path class="cls-30" d="M650,1126.69,682.48,1175l-1,5.67-24.82-14.86Z"/><path class="cls-30" d="M610,1138l43.6,26-7.24-42.81-4.11-6.25A377.85,377.85,0,0,1,610,1138Z"/><path class="cls-13" d="M535.69,1044.59c5.27-1.95,111.41,63.53,111.41,63.53A451.55,451.55,0,0,1,516.73,1184l-112.59-62A918.76,918.76,0,0,1,535.69,1044.59Z"/><path class="cls-15" d="M298.19,1158.94l6.85-8,.39,5.67,29.32,18.18-4.5,2.73Z"/><path class="cls-31" d="M309.14,1132.55l1.56,1a8.88,8.88,0,0,1,2,2.74,7.23,7.23,0,0,1,0,3.52v11.72a4.08,4.08,0,0,1,0,2.54h-2.35l-2.93-2c-1.17,0,0,0-1.56-1.37v-4.1Z"/><path class="cls-4" d="M569.5,1320.4v11.53l2.54-1.57v-11.52Z"/><path class="cls-15" d="M633.81,1354.8a91.37,91.37,0,0,0-26.38-26.39,21.1,21.1,0,0,0-24.44,2.74,22.53,22.53,0,0,0-6.26,15.25v7.42l-1.17-14.66a22.31,22.31,0,0,1,26.59-19.55c24.63,3.52,39.09,33.63,39.09,33.63Z"/><path class="cls-3" d="M585.53,1322a24.77,24.77,0,0,1,13.1-1.17c24.63,3.32,38.12,35,38.12,35H634.4a96.4,96.4,0,0,0-27-27.76,22.88,22.88,0,0,0-21.9,0c-2.93,0-7.23,8.21-8.6,24.83l-4.3-2.55C574.2,1334.67,578.3,1326.85,585.53,1322Z"/><path class="cls-15" d="M329.47,1177.9a39.1,39.1,0,0,1,25.21,4.5,58.62,58.62,0,0,1,23.07,36l3.91,14.86,1.56-1.76s-1.56-12.51-2.93-17.59a50.2,50.2,0,0,0-22.09-33.62,28.72,28.72,0,0,0-23.45-5.47Z"/><path class="cls-3" d="M380.29,1240.84l-2.35-1.56a74.2,74.2,0,0,0-1.75-24,53,53,0,0,0-23.27-30.7,27.84,27.84,0,0,0-23.45-3.71,21.34,21.34,0,0,0-11,11.34c-1.17,4.69-3.32-2-3.32-2l8.21-12.71h6.06a39.33,39.33,0,0,1,18.18,0,56.29,56.29,0,0,1,30.29,36.75,70.43,70.43,0,0,1,3.72,18l3.13,6.84Z"/><path class="cls-32" d="M585.92,1299.87l4.11,2.35a3.59,3.59,0,0,1,1.23,1.25,3.73,3.73,0,0,1,.53,1.68v1.56a2.17,2.17,0,0,1-.31.86,2,2,0,0,1-.67.62,1.87,1.87,0,0,1-.87.25,1.93,1.93,0,0,1-.89-.16l-3.91-2.34a3.13,3.13,0,0,1-1.76-2.94v-1.56a1.77,1.77,0,0,1,.23-.85,1.7,1.7,0,0,1,.61-.64,1.88,1.88,0,0,1,.84-.26A1.8,1.8,0,0,1,585.92,1299.87Z"/><path class="cls-33" d="M585.14,1300.46l4.11,2.34a3.17,3.17,0,0,1,1.76,2.93v1.57a1.93,1.93,0,0,1-.23.85,1.87,1.87,0,0,1-.61.64,2,2,0,0,1-.85.26,1.82,1.82,0,0,1-.86-.18l-4.1-2.35a3.06,3.06,0,0,1-1.31-1.21,3,3,0,0,1-.45-1.72V1302a1.79,1.79,0,0,1,.22-.85,1.76,1.76,0,0,1,.61-.63,1.73,1.73,0,0,1,.85-.26A1.61,1.61,0,0,1,585.14,1300.46Z"/><path class="cls-13" d="M675.45,1341.12h-3.52a7.05,7.05,0,0,0-3.13,3.52c-.39,1.56-2,3.12-2.54,5.08a9.2,9.2,0,0,0,0,7.23s3.91,3.12,4.69,2.74l4.89-2.35A24.22,24.22,0,0,0,675.45,1341.12Z"/><path class="cls-34" d="M669,1176.92a39,39,0,0,0,22.47-1c1.17,2.14,2.15,3.71,2.55,4.69a491.28,491.28,0,0,1-133.12,77l-7.23-13.88C579.66,1227.74,613.29,1208.39,669,1176.92Z"/><path class="cls-3" d="M503.63,1253.35a10.38,10.38,0,0,0,7.82,10.36,18.12,18.12,0,0,0,4.88,0c8.61,0,19.55,0,20.92-1.37s10,0,10,0a5.83,5.83,0,0,0,1.57-2,5.75,5.75,0,0,0,.58-2.48,6.06,6.06,0,0,0-2.15-4.5l-1.76-1.37h-5.09a9.08,9.08,0,0,0,0-2,16.78,16.78,0,0,0-19.54-8.21C501.09,1247.29,503.63,1253.35,503.63,1253.35Z"/><path class="cls-3" d="M458.09,1229.7l14.07,8.21c0-2.54,0-4.1-2.34-5.86a74.37,74.37,0,0,0-8.42-4.89C457.89,1225.21,458.09,1229.7,458.09,1229.7Z"/><path class="cls-3" d="M394.56,1191.58l14.07,8.21c0-2.73,0-4.3-2.34-5.86a83.79,83.79,0,0,0-8.21-4.89C394.36,1187.09,394.56,1191.58,394.56,1191.58Z"/><line class="cls-35" x1="526.44" y1="655.37" x2="526.44" y2="661.37"/><line class="cls-36" x1="526.44" y1="673.5" x2="526.44" y2="1080.02"/><line class="cls-35" x1="526.44" y1="1086.09" x2="526.44" y2="1092.09"/><g class="cls-37"><g class="cls-38"><path class="cls-39" d="M1403.38,3953-847.21,2656.4,1517.08,1290.18,3767.66,2586.77Z"/><path class="cls-13" d="M1235.18,1441.9l-1695,978.88L843.9,3175l1695-978.88Z"/><path class="cls-40" d="M674.59,1763.72-459.78,2420.78,843.9,3175,1978.28,2518Z"/><path class="cls-41" d="M1368.29,1203.26,2088.58,1619,638.46,2454.64-81.83,2038.88Z"/><path class="cls-42" d="M-37.48,2038.88l1405.77-810.05,676,390.19L638.46,2429.07Z"/><path class="cls-43" d="M2044.24,1619,638.46,2429.07l-24.56-14.16,1340.65-773.09-610.06-352.47,23.8-60.52Z"/><path class="cls-43" d="M1474.16,1964.78l-117.1,10.65,92.79-75.52L967,1949.78l-474.69,259.6,162.53,85.24L949,2267.88l.5-.33,16.18-1.43,120-69.82,30.84-25.06Z"/><path class="cls-44" d="M1490.09,1754.39,1185,1914.49l-53.48,385.67L714.4,2837.54l617.6-58.42,52.3-107,159.77-225.48,231.85-55.49Z"/></g></g></g><g id="Ramar"><path d="M0-.68v1920H1080V-.68ZM1109.2,1958.06H-29.2V-38.06H1109.2Z"/><path d="M0-.68v1920H1080V-.68ZM1109.2,1958.06H-29.2V-38.06H1109.2Z"/></g></svg>