<svg id="Lager_1" data-name="Lager 1" xmlns="http://www.w3.org/2000/svg" xmlns:xlink="http://www.w3.org/1999/xlink" viewBox="0 0 1080 1920"><defs><style>.cls-1,.cls-52,.cls-53{fill:none;}.cls-2{fill:#00aeef;}.cls-3{fill:#91651f;}.cls-4{fill:#aa7723;}.cls-5{fill:#855107;}.cls-6{fill:#567601;}.cls-7{fill:#638800;}.cls-8{fill:#769c11;}.cls-9{fill:#06395b;}.cls-10{fill:#1595bc;}.cls-11{fill:#414c5c;}.cls-12{fill:#293237;}.cls-13{fill:url(#Namnlös_övertoning_68);}.cls-14{fill:#a1a1a1;}.cls-15{fill:url(#Namnlös_övertoning_69);}.cls-16{fill:#d3d3d3;}.cls-17{fill:#b6b6b6;}.cls-18{fill:url(#Namnlös_övertoning_68-2);}.cls-19{fill:url(#Namnlös_övertoning_69-2);}.cls-20{fill:#73a538;}.cls-21{fill:#79b53b;}.cls-22{fill:#577729;}.cls-23{fill:#546672;}.cls-24{fill:#409e4e;}.cls-25{fill:#529ba3;}.cls-26{fill:#141e25;}.cls-27{fill:#9cb7d2;}.cls-28{fill:#768a99;}.cls-29{fill:#c4c4c4;}.cls-30{fill:#bed5df;}.cls-31{fill:#12181d;}.cls-32{fill:#efec82;}.cls-33{fill:#d3a944;}.cls-34{fill:#e8f0f3;}.cls-35{fill:#88d5de;}.cls-36{fill:#3d7d87;}.cls-37{fill:#3e2f37;}.cls-38{fill:#95c9b1;}.cls-39{fill:#e08a35;}.cls-40{fill:#e06e18;}.cls-41{fill:#e0ab35;}.cls-42{fill:#5b949c;}.cls-43{fill:url(#Namnlös_övertoning_68-3);}.cls-44{fill:url(#Namnlös_övertoning_69-3);}.cls-45{fill:url(#Namnlös_övertoning_68-4);}.cls-46{fill:url(#Namnlös_övertoning_69-4);}.cls-47{fill:#fff;}.cls-48{fill:url(#Namnlös_övertoning_68-5);}.cls-49{fill:url(#Namnlös_övertoning_69-5);}.cls-50{fill:url(#Namnlös_övertoning_68-6);}.cls-51{fill:url(#Namnlös_övertoning_69-6);}.cls-52,.cls-53{stroke:#fff;stroke-miterlimit:10;stroke-width:1.49px;}.cls-53{stroke-dasharray:6.01 6.01;}.cls-54{clip-path:url(#clip-path);}.cls-55{clip-path:url(#clip-path-2);}.cls-56{fill:#6e7071;}.cls-57{fill:#c9c9c9;}.cls-58{fill:#dbcc65;}.cls-59{fill:#efefef;}.cls-60{fill:#b5ac96;}.cls-61{fill:#d1d1d1;}.cls-62{fill:#686868;}.cls-63{fill:#ceccca;}.cls-64{fill:#96eb4b;}.cls-65{fill:#5ab42c;}.cls-66{fill:#c6beb7;}.cls-67{fill:#e1d7ad;}.cls-68{fill:#084985;}.cls-69{fill:#877a75;}.cls-70{fill:#aba06f;}.cls-71{fill:#322f36;}</style><linearGradient id="Namnlös_övertoning_68" x1="-429.48" y1="2435.34" x2="-367.59" y2="2435.34" gradientTransform="matrix(1, 0, 0, -1, 0, 3862)" gradientUnits="userSpaceOnUse"><stop offset="0.16" stop-color="#3c4851"/><stop offset="0.56" stop-color="#556773"/><stop offset="0.87" stop-color="#51626e"/></linearGradient><linearGradient id="Namnlös_övertoning_69" x1="238.15" y1="1563.91" x2="258" y2="1588.58" gradientTransform="matrix(1, 0, 0, -1, 0, 3862)" gradientUnits="userSpaceOnUse"><stop offset="0.16" stop-color="#e3e3e3"/><stop offset="0.56" stop-color="#ccc"/><stop offset="0.87" stop-color="#b7b7b7"/></linearGradient><linearGradient id="Namnlös_övertoning_68-2" x1="-280.61" y1="2474.07" x2="-219.12" y2="2474.07" xlink:href="#Namnlös_övertoning_68"/><linearGradient id="Namnlös_övertoning_69-2" x1="265.97" y1="1720.73" x2="285.81" y2="1745.42" xlink:href="#Namnlös_övertoning_69"/><linearGradient id="Namnlös_övertoning_68-3" x1="-650.27" y1="2512.57" x2="-588.38" y2="2512.57" xlink:href="#Namnlös_övertoning_68"/><linearGradient id="Namnlös_övertoning_69-3" x1="17.36" y1="1641.13" x2="37.21" y2="1665.8" xlink:href="#Namnlös_övertoning_69"/><linearGradient id="Namnlös_övertoning_68-4" x1="-501.4" y1="2551.3" x2="-439.91" y2="2551.3" xlink:href="#Namnlös_övertoning_68"/><linearGradient id="Namnlös_övertoning_69-4" x1="45.17" y1="1797.95" x2="65.02" y2="1822.64" xlink:href="#Namnlös_övertoning_69"/><linearGradient id="Namnlös_övertoning_68-5" x1="-1751.65" y1="3183.98" x2="-1634.22" y2="3183.98" xlink:href="#Namnlös_övertoning_68"/><linearGradient id="Namnlös_övertoning_69-5" x1="-484.72" y1="1530.27" x2="-447.04" y2="1577.09" xlink:href="#Namnlös_övertoning_69"/><linearGradient id="Namnlös_övertoning_68-6" x1="-1469.16" y1="3257.48" x2="-1352.46" y2="3257.48" xlink:href="#Namnlös_övertoning_68"/><linearGradient id="Namnlös_övertoning_69-6" x1="-431.93" y1="1827.87" x2="-394.27" y2="1874.72" xlink:href="#Namnlös_övertoning_69"/><clipPath id="clip-path"><polygon class="cls-1" points="1196.6 2212.47 116.6 2847.66 116.6 2070.18 1196.6 2068.95 1196.6 2212.47"/></clipPath><clipPath id="clip-path-2"><rect class="cls-1" x="116.6" y="2063.44" width="1114.15" height="1120.09"/></clipPath></defs><title>ledtec-notext</title><rect class="cls-2" width="540" height="960"/><path class="cls-3" d="M328.71,753a14.94,14.94,0,0,1-6.48,1c-9.34-1.22-1.63-17.86,0-22.94s2.23-9.53,3.44-14,4.47-12.58,6.3-19.08a1.22,1.22,0,0,0,0-1.21c-1.22,2-1.83,4.46-3.05,6.69s-2.64,5.48-3.85,8.32c-2.24,6.09-4.27,12.38-6.3,18.68A196,196,0,0,1,295,776.72c-2.23,3.65-4.47,7.3-6.5,11.16a63.73,63.73,0,0,0-8.93,20.3,115.31,115.31,0,0,0,0,14.4,63.94,63.94,0,0,1-1.42,10.76,256.31,256.31,0,0,1-4.06,28.41l3.66-16.44a288.32,288.32,0,0,1,9.74-32.67A94.72,94.72,0,0,1,301.72,784a83.33,83.33,0,0,1,12.38-14.2,123.57,123.57,0,0,1,20.3-10.76,69.07,69.07,0,0,0,17.46-16,174.78,174.78,0,0,0,24.35-40.59,31.86,31.86,0,0,0,3.85-20.3,186.83,186.83,0,0,0-15,29.84A107.28,107.28,0,0,1,348.4,740.8,52.1,52.1,0,0,1,328.71,753Z"/><path class="cls-4" d="M277.37,841.86a4.41,4.41,0,0,0,0-1.62,70.84,70.84,0,0,0,1.42-11,86.67,86.67,0,0,1,0-14.41,59.59,59.59,0,0,1,8.93-19.28c2-3.85,4.06-7.51,6.29-11A202.33,202.33,0,0,0,318,738.16c1.83-6.29,3.86-12.59,6.29-18.67a34.45,34.45,0,0,1,2.44-5.69c1.62-5.27,3.85-10.35,5.28-15.83a1.22,1.22,0,0,0,0-1.21h0c-1.22,2-1.83,4.46-3.05,6.69s-2.64,5.48-3.85,8.32c-2.24,6.09-4.27,12.38-6.3,18.68A196,196,0,0,1,295,776.72c-2.23,3.65-4.47,7.3-6.5,11.16a63.78,63.78,0,0,0-8.93,20.29,115.47,115.47,0,0,0,0,14.41,63.94,63.94,0,0,1-1.42,10.76,256.64,256.64,0,0,1-4.06,28.41l3.66-16.44Z"/><path class="cls-3" d="M216.49,736.13a6.89,6.89,0,0,0,9.13,0,10.19,10.19,0,0,0,2.18-4.2,10.08,10.08,0,0,0,0-4.73c0-2.44-1-4.87-1.42-7.31-2-10.35-4.26-20.29-6.5-31a186.78,186.78,0,0,1-4.67-42.42h1q4.26,16.85,7.31,33.49a165.9,165.9,0,0,0,4.46,20.3,80.27,80.27,0,0,0,2.85,9.33c0,2.64,1.41,5.28,2.23,7.92a153.77,153.77,0,0,0,6.09,16.23c2.43,5.48,5.07,10.76,7.5,16.24a202.36,202.36,0,0,0,11,20.29,65.14,65.14,0,0,1,8.92,20.3,82.12,82.12,0,0,1,0,14.2,93.72,93.72,0,0,0,1.63,11,194.53,194.53,0,0,0,4.06,28.42c-1.42-5.48-2.64-11-3.86-16.44a302.83,302.83,0,0,0-9.54-32.88,97.41,97.41,0,0,0-14.41-28.62,100.72,100.72,0,0,0-12.18-14,151.86,151.86,0,0,0-14.81-8.52,49.88,49.88,0,0,1-12-11.57,69.26,69.26,0,0,1-20.29-38.16,31,31,0,0,0,5.89,10.36l9.53,14A76,76,0,0,0,216.49,736.13Z"/><path class="cls-4" d="M221.16,686.2a173.69,173.69,0,0,0,4.46,20.3c1,3,1.62,6.29,2.84,9.33s1.42,5.28,2.24,7.92,3.85,11,6.08,16.23,5.27,10.76,7.51,16.24a201.5,201.5,0,0,0,11,20.3,59.45,59.45,0,0,1,8.93,20.29,115.47,115.47,0,0,1,0,14.41,9.53,9.53,0,0,0,0,3.45c1.22,4.67,2.63,9.54,3.66,14.41s2.43,11,3.85,16.44a194.53,194.53,0,0,1-4.06-28.42,91.76,91.76,0,0,1-1.62-11,84.29,84.29,0,0,0,0-14.21,65.19,65.19,0,0,0-8.94-20.3,202.19,202.19,0,0,1-10.95-20.29c-2.44-5.48-5.08-10.76-7.51-16.24a156,156,0,0,1-6.09-16.23c0-2.64-1.42-5.28-2.24-7.92a86.49,86.49,0,0,1-2.84-9.33,167.78,167.78,0,0,1-4.46-20.3q-3-16.64-7.31-33.48h-1a107.62,107.62,0,0,0,0,11.36A170.4,170.4,0,0,1,221.16,686.2Z"/><path class="cls-3" d="M283.26,951.66v1.22a4.23,4.23,0,0,1,0,1.42,18.83,18.83,0,0,1-7.39,4.55,18.52,18.52,0,0,1-8.65.72c-7.3,0-13.19-3.45-14.4-7.3v-1.62a21.7,21.7,0,0,1,1.62-3,8.29,8.29,0,0,0,1.42-2.23l1-1.83a62,62,0,0,0,4.06-17.45c1-6.29,1.42-12.58,1.83-18.88v-42c-1.22-35.11,0-70.22,1.42-105.33v-8.12a169.62,169.62,0,0,1,1-22.73c1-7.5,0-16.43,1.41-24.55V688a50.09,50.09,0,0,0,0-5.48,10.51,10.51,0,0,1,1-5.48,51.28,51.28,0,0,1,1-5.48,96.55,96.55,0,0,1,2.43-10.35s0-2.44,2-2.64a3.25,3.25,0,0,1,1.42,1.42v2.23c0,28.42,1.62,56.83,2.23,85,0,18.06,0,36.12-1,54.39v31.66c0,14.41,1.42,28.82,1.83,43.23a273.3,273.3,0,0,1-1.43,34.09c0,7.11-1.62,14.21-2.23,21.52v1.42a2.85,2.85,0,0,1,0,1.42,12.26,12.26,0,0,0,0,2.84,7.58,7.58,0,0,0,0,2.23,11.88,11.88,0,0,0,1.83,5.08l1.42,1.62Z"/><path class="cls-5" d="M277.37,661.44a193.3,193.3,0,0,0-5.48,29c-3,22.94-3.24,46.89-4.46,69.62-1.83,35.11-2.64,70.22-1.42,105.33v42a149.17,149.17,0,0,1-1.83,18.87,62.86,62.86,0,0,1-4.06,17.46,17.68,17.68,0,0,1-7.51,8.72v-1.62a21.7,21.7,0,0,1,1.62-3.05,8.41,8.41,0,0,0,1.43-2.23l1-1.82a62.51,62.51,0,0,0,4.06-17.46c1-6.29,1.42-12.58,1.83-18.87v-42c-1.22-35.11,0-70.22,1.42-105.33V752a171.21,171.21,0,0,1,1-22.73c1-7.51,0-16.44,1.42-24.56V688.23a50.09,50.09,0,0,0,0-5.48,10.53,10.53,0,0,1,1-5.48,53.86,53.86,0,0,1,1-5.48,94.25,94.25,0,0,1,2.44-10.35s0-2.43,2-2.64h4.46Z"/><path class="cls-4" d="M283.26,951.66v1.22a4.23,4.23,0,0,1,0,1.42H281l-2-1.22a12.88,12.88,0,0,1-3.85-2.64,16.86,16.86,0,0,1-4.06-15.62c0-7.31,1.22-14.41,2-21.52a318.08,318.08,0,0,0,1.62-34.09c0-14.41-1.42-28.82-1.82-43.23V804.32c0-18.06,1.21-36.33,0-54.39s0-39.37-1.43-59.06V672.2a94.25,94.25,0,0,1,2.44-10.35s0-2.44,2-2.64a3.25,3.25,0,0,1,1.42,1.42v2.23c0,28.42,1.62,56.83,2.23,85,0,18.06,0,36.12-1,54.39V834c0,14.41,1.42,28.82,1.83,43.23A275.23,275.23,0,0,1,279,911.27c0,7.11-1.62,14.21-2.23,21.52v1.42a3.1,3.1,0,0,1,0,1.42,12.26,12.26,0,0,0,0,2.84,7.58,7.58,0,0,0,0,2.23,11.88,11.88,0,0,0,1.83,5.08L280,947.4Z"/><path class="cls-6" d="M169,594.27c-9.74-3.66-18.88-27.6-18.88-27.6A101.26,101.26,0,0,1,172.45,559V555.5a126.74,126.74,0,0,1-17.86,0s2.23-26.58,10.15-33.28l2-1.22a83.43,83.43,0,0,1-22.33-23.34,91.68,91.68,0,0,1,27.8-12.78,24.23,24.23,0,0,1-11-5.69c-7.1-7.71-4.46-33.28-4.46-33.28a102.51,102.51,0,0,1,15.63,1.42v-2.84l8.31,4.87A20.2,20.2,0,0,1,185,451a86.85,86.85,0,0,1,31.26-5.07v12.38h.2c6.08,1.22,13,9.34,17.85,15.83a113.29,113.29,0,0,1,17-8.12,118.41,118.41,0,0,1,4.67,15.63c0,1,6.5,0,7.31,0a63.14,63.14,0,0,0,7.1-4.06,11.85,11.85,0,0,1,4.34-2.07,11.71,11.71,0,0,1,4.79-.16,1,1,0,0,1,1,0,2.3,2.3,0,0,1,0,1.22c1,4.26,0,9.33,2,13.59s0,2.44,3.25,1.63h2.63s9.54,25,5.28,34.5a16.83,16.83,0,0,1-3.45,4.46,37.42,37.42,0,0,1-5.68,20.3,109.06,109.06,0,0,1,14.2,9.54A111.23,111.23,0,0,1,282,577.83a57,57,0,0,1,6.29,30,11.65,11.65,0,0,1-2.23,3.66,70.28,70.28,0,0,1,15.83,28.41,100.44,100.44,0,0,1-10.35,3.45,13.56,13.56,0,0,0,0,4.67c0,3.24,4.26,4.06,7.3,5.68h0a37,37,0,0,1-8.32,10.15c-2.23,1.82-5.47,2.84-6.7,5.48-3.44,6.7,7.11,5.88,11.58,6.9,0,0-3.86,24.35-12.18,30.64v15.43a23,23,0,0,1,0,12.38V747.9L280,746.07c-1.83,5.08-3.65,8.93-3.65,8.93s-24.16-8.72-28-18.47a13.24,13.24,0,0,1-1-4.06,114.42,114.42,0,0,1-17.05,12.38,109.1,109.1,0,0,1-10.95-21.3,14.85,14.85,0,0,1-2.64,2.43c-9.14,5.07-33.69-2.43-33.69-2.43a124,124,0,0,1,5.48-17,99.11,99.11,0,0,1-23.74,3s-2-25.77,5.07-33.28a11.92,11.92,0,0,1,4.67-3.25,90.56,90.56,0,0,1-19.08-24.35l7.3-3.66a48.07,48.07,0,0,1,6.3-2.23,4.28,4.28,0,0,0,2.84-4.67,9,9,0,0,0-2.44-3.65L166.15,631a3.4,3.4,0,0,1,0-1.42,111.85,111.85,0,0,1-12.78-18.06,111.26,111.26,0,0,1,20.29-9.95V596.3Z"/><path class="cls-7" d="M384.73,594.27c9.74-3.66,18.88-27.6,18.88-27.6A101.44,101.44,0,0,0,381.28,559V555.5a126.74,126.74,0,0,0,17.86,0s-2.23-26.58-10.14-33.28L387,521a83.68,83.68,0,0,0,22.32-23.34,91.57,91.57,0,0,0-27.8-12.78,26.22,26.22,0,0,0,11.15-5.69c6.91-7.71,4.27-33.28,4.27-33.28a102.28,102.28,0,0,0-15.63,1.42v-2.84L373,449.36A26.69,26.69,0,0,0,368.7,451a86.84,86.84,0,0,0-31.25-5.07,111.15,111.15,0,0,0,0,12.38H336c-5.88,1.22-13,9.34-17.86,15.83a112.72,112.72,0,0,0-17-8.12,119.94,119.94,0,0,0-4.67,15.63c0,1-6.29,0-7.11,0a51,51,0,0,1-7.3-4.06,11.92,11.92,0,0,0-4.34-2.07,11.71,11.71,0,0,0-4.79-.16,1,1,0,0,0-.51-.14,1,1,0,0,0-.51.14,2.3,2.3,0,0,0,0,1.22c-1,4.26,0,9.33-2,13.59s0,2.44-3,1.63H264s-9.54,25-5.28,34.5a14.18,14.18,0,0,0,3.65,4.46,35.68,35.68,0,0,0,5.49,20.3,107.83,107.83,0,0,0-14.21,9.54,111.23,111.23,0,0,0,16.84,17.25,57,57,0,0,0-6.29,30,11.65,11.65,0,0,0,2.23,3.66,70.28,70.28,0,0,0-15.83,28.41,100.44,100.44,0,0,0,10.35,3.45,13.56,13.56,0,0,1,0,4.67c0,3.24-4.26,4.06-7.3,5.68h0a37,37,0,0,0,8.31,10.15c2.24,1.82,5.49,2.84,6.91,5.48,3.24,6.7-7.31,5.88-11.78,6.9,0,0,3.86,24.35,12.18,30.64v15.43a23,23,0,0,0,0,12.38V747.9l3.25-1.83c1.82,5.08,3.65,8.93,3.65,8.93s24.16-8.72,28.21-18.47a22.94,22.94,0,0,0,0-4.06,114.93,114.93,0,0,0,17.05,12.38,97.57,97.57,0,0,0,11-21.3A14.85,14.85,0,0,0,335,726c9.13,5.07,33.69-2.43,33.69-2.43a124,124,0,0,0-5.48-17,99,99,0,0,0,23.75,3s2-25.77-5.08-33.28a11.92,11.92,0,0,0-4.67-3.25,90.76,90.76,0,0,0,19.08-24.35L389,645a39,39,0,0,0-6.3-2.23,4.07,4.07,0,0,1-2.64-4.67,6.88,6.88,0,0,1,2.24-3.65l3.24-3.45a3.1,3.1,0,0,0,0-1.42,111.29,111.29,0,0,0,12.79-18.06,111,111,0,0,0-20.3-9.95V596.3Z"/><path class="cls-8" d="M366.67,423.59h-3.25l-6.9-4.06a3.4,3.4,0,0,0,0-1.42c-1.62-11.17-25.37-28.21-25.37-28.21s-2,2.84-4.67,7.1c-2.64-11.16-27.6-26.38-27.6-26.38s-2,3.45-4.46,8.32a116.29,116.29,0,0,0-23.34-19.08,127.88,127.88,0,0,0-11,22.73c-1.62-4.26-3.05-7.1-3.05-7.1s-26.17,10.15-30.44,20.29a20.19,20.19,0,0,0,0,8.12h-1a99.72,99.72,0,0,0-29,2.44,127.53,127.53,0,0,0,2.64,13l-6.7,3.86a16.92,16.92,0,0,0-7.92-1.62c-11.37,0-30,23.13-30,23.13s22.12,18.88,33.48,17.86a12.67,12.67,0,0,0,5.07-1.42h1a6.24,6.24,0,0,0,0,1.83c1.42,11.36,24.56,27.4,24.56,27.4s3.65-4.47,7.71-10.56l4.27,2.44a108,108,0,0,0,17.65,26,129.73,129.73,0,0,0,10-10l3.44,1.83a11.54,11.54,0,0,0,2,3,27.87,27.87,0,0,0,12.79,5.69h1.83a122.16,122.16,0,0,0,21.92,2.23V496.65A110.19,110.19,0,0,0,312.89,508a102.79,102.79,0,0,0,15.82-27.6l3.26-2a154.47,154.47,0,0,0,14.61,13.4A94.28,94.28,0,0,0,363,461.13a18.8,18.8,0,0,0,8.12,1.63c11.37-1.22,29.63-23.95,29.63-23.95S378.85,422.57,366.67,423.59Z"/><rect class="cls-2" x="540" y="960" width="540" height="960"/><polygon class="cls-9" points="942.15 1653.68 852.59 1591.53 852.59 1386.65 942.15 1448.8 942.15 1653.68"/><polygon class="cls-10" points="986.86 1628.76 942.15 1653.68 942.15 1448.32 986.86 1423.39 986.86 1628.76"/><polygon class="cls-9" points="892.96 1354.74 986.86 1423.39 942.15 1448.32 851.22 1387.21 892.96 1354.74"/><path class="cls-11" d="M958.68,1377.76a4.82,4.82,0,0,1,.46-5.71c2-2.91,3.52-1.94,3.52-1.94a3.26,3.26,0,0,1,.77,4.34c-.92,1.73-1.84,4.13-2.5,4.13s-1,2.14-1,2.14l-1.89-1.94Z"/><path class="cls-12" d="M930.06,1425.12l12.8-7.09-15.46-6.48Z"/><path class="cls-12" d="M862.44,1386.34l12.81-7.1-15.46-6.48Z"/><path class="cls-13" d="M933.07,1419.3l2.29,3.68,5.46,9,2.71,4.44,3.62-2.1a4,4,0,0,0,1.69-2.44v-.62a1.77,1.77,0,0,0,0-.46v-.91a15.66,15.66,0,0,0-7.25-12.1l-.66-.36a5.23,5.23,0,0,0-2.2-.49,5.15,5.15,0,0,0-2.19.49Z"/><path class="cls-11" d="M931.33,1424a15.61,15.61,0,0,0,7.3,12.14c4,2.2,7.14.36,7.09-4.08a15.61,15.61,0,0,0-7.3-12.15C934.29,1417.72,931.33,1419.56,931.33,1424Z"/><path class="cls-14" d="M933.27,1425.17a5.92,5.92,0,0,0,0,1.33,12,12,0,0,0,1.58,3.87,10.73,10.73,0,0,0,1.69,2.05,6.73,6.73,0,0,0,1.73,1.32,4.4,4.4,0,0,0,1.43.56,2.9,2.9,0,0,0,2.09,0,2.86,2.86,0,0,0,.92-.91V1431a4.22,4.22,0,0,0,0-.87,5.61,5.61,0,0,0,0-.82,11.35,11.35,0,0,0-1.12-2.75l-.26-.41a14.9,14.9,0,0,0-1.32-1.73v-.31a8.54,8.54,0,0,0-1.33-1.07l-.51-.31-.51-.26h-1.23a4.82,4.82,0,0,0-.76,0,1.92,1.92,0,0,0-.72.31,2.89,2.89,0,0,0-1,.86,2.69,2.69,0,0,0-.47,1.18Z"/><path class="cls-12" d="M937.05,1423.33a5.48,5.48,0,0,0,0,1.28,11.43,11.43,0,0,0,1.58,3.88,11.24,11.24,0,0,0,1.68,2.09,10.27,10.27,0,0,0,1.74,1.33l1.07.46v-2.61a5.47,5.47,0,0,0,0-.81,10.53,10.53,0,0,0-1.12-2.76l-.26-.41a13.89,13.89,0,0,0-1.38-1.78v-.31a11.25,11.25,0,0,0-1.83-1.38l-.51-.25h-.57v.3A9,9,0,0,0,937.05,1423.33Z"/><path class="cls-15" d="M935.11,1421.8a3.54,3.54,0,0,0-1.07,2.91,11.12,11.12,0,0,0,1.53,4.92,11.3,11.3,0,0,0,3.57,3.71,4.12,4.12,0,0,0,1.55.59,4,4,0,0,0,1.66-.08,3.46,3.46,0,0,1-4,0,11.07,11.07,0,0,1-5.1-8.58,3.28,3.28,0,0,1,.34-2A3.25,3.25,0,0,1,935.11,1421.8Z"/><path class="cls-14" d="M934.65,1425.58l3.16,1.84-1.43,4.69c0,.26.92,0,.92,0l2.2-2.35,1.58,3.93c.51,0,0,.92.61.82a2.24,2.24,0,0,0,1-.66l-1.12-4.34,1.73,1a4.22,4.22,0,0,0,0-.87,7.06,7.06,0,0,0-.46-1.63l-1.48-1.13.51-1a14.9,14.9,0,0,0-1.32-1.73l-.72.87-1.22-2.5-.51-.26h-1.64l1.28,3.11-3.37-1.32s-.86.41-.86.86S934.6,1425.12,934.65,1425.58Z"/><path class="cls-16" d="M933.32,1426.14l3.27,2.14-1.18,2.66a3.1,3.1,0,0,0,1,1.22l1.79-1.73,1.89,4a1.92,1.92,0,0,0,1.58,0l-1.22-3.73,2.9,1.48a3.51,3.51,0,0,0,0-1.12,4.22,4.22,0,0,0,0-.87l-3.21-2.09,1.43-2.5a5.07,5.07,0,0,0-1.17-1.43l-1.89,1.79-2-4.14a2,2,0,0,0-1.43,0l1.22,3.88-3-1.38a4.22,4.22,0,0,0,0,.87A7.85,7.85,0,0,0,933.32,1426.14Z"/><path class="cls-17" d="M937.25,1427.42a2.47,2.47,0,0,0,1.12,1.88c.62.31,1.13,0,1.13-.66a2.38,2.38,0,0,0-.35-1.07,2.45,2.45,0,0,0-.78-.82C937.76,1426.45,937.25,1426.7,937.25,1427.42Z"/><path class="cls-18" d="M865.45,1380.47l2.25,3.67,5.51,9,2.7,4.44,3.58-2.09a3.93,3.93,0,0,0,1.63-2.45,1.09,1.09,0,0,0,0-.36V1392a2.81,2.81,0,0,0,0-.71,15.32,15.32,0,0,0-7.3-12.1l-.61-.36a5.16,5.16,0,0,0-4.39,0Z"/><path class="cls-11" d="M863.56,1385a15.69,15.69,0,0,0,2.2,7,15.44,15.44,0,0,0,5.1,5.19c3.93,2.2,7.09.36,7-4.08a15.73,15.73,0,0,0-7.24-12.14C866.68,1378.48,863.51,1380.52,863.56,1385Z"/><path class="cls-12" d="M869.43,1384.3a5.4,5.4,0,0,0,0,1.27,9.78,9.78,0,0,0,1.58,3.88,9.45,9.45,0,0,0,1.69,2.09,8.57,8.57,0,0,0,1.73,1.33,5.16,5.16,0,0,0,1.08.46,1.19,1.19,0,0,1,0-.46v-1a4.2,4.2,0,0,0,0-1.12,5.61,5.61,0,0,0,0-.82,13.19,13.19,0,0,0-1.18-2.76,1.34,1.34,0,0,0,0-.4A14,14,0,0,0,873,1385l-.3-.31a8.06,8.06,0,0,0-1.84-1.38l-.46-.25h-.56v.31A8,8,0,0,0,869.43,1384.3Z"/><path class="cls-19" d="M867.44,1382.76a3.58,3.58,0,0,0-1,2.91,11.09,11.09,0,0,0,5.11,8.63,4.12,4.12,0,0,0,1.55.59,4,4,0,0,0,1.66-.08,3.41,3.41,0,0,1-4,0,11.15,11.15,0,0,1-3.58-3.68,11,11,0,0,1-1.52-4.9,3.14,3.14,0,0,1,.29-2A3.18,3.18,0,0,1,867.44,1382.76Z"/><path class="cls-14" d="M867,1386.54l3.17,1.84-1.48,4.69,1-.25,2.19-2.35,1.58,3.93c.51,0,0,.92.62.82a2.23,2.23,0,0,0,.91-.67l-.91-3.93,1.73,1a4.12,4.12,0,0,0,0-.86,6.68,6.68,0,0,0-.41-1.64l-1.53-1.12.51-1a11.46,11.46,0,0,0-1.38-1.74l-.66.87-1.27-2.5-.46-.25h-1.53l1.27,3.11-3.42-1.33s-.81.41-.81.87S866.93,1386.08,867,1386.54Z"/><path class="cls-16" d="M865.71,1387.1l3.26,2.15-1.22,2.65a4,4,0,0,0,1,1.22l1.84-1.73,1.88,4a1.94,1.94,0,0,0,1.59,0l-1.28-3.73,2.91,1.48a4.2,4.2,0,0,0,0-1.12,7.06,7.06,0,0,0,0-.92l-3.22-2,1.38-2.5a5,5,0,0,0-1.12-1.43l-1.89,1.79-2-4.14a2,2,0,0,0-1.43,0l1.23,3.88-3-1.38a2.12,2.12,0,0,0,0,.87A2.87,2.87,0,0,0,865.71,1387.1Z"/><path class="cls-17" d="M869.64,1388.38a2.54,2.54,0,0,0,.34,1.07,2.45,2.45,0,0,0,.78.82.71.71,0,0,0,1.12-.67,2.75,2.75,0,0,0-.38-1.07,2.65,2.65,0,0,0-.79-.81C870.1,1387.41,869.64,1387.66,869.64,1388.38Z"/><path class="cls-20" d="M859.13,1370.93v3.87l4.28,6.23c.26-.31.46-.61.72-.87a5.07,5.07,0,0,1,1.63-1.07,5.23,5.23,0,0,1,1.84-.31,7.76,7.76,0,0,1,3.72,1.08,16,16,0,0,1,5.67,5.81,15.43,15.43,0,0,1,2.19,7.3,8.48,8.48,0,0,1-.36,2.65l51.34,29.5V1424a6.74,6.74,0,0,1,1.63-4.8,4.62,4.62,0,0,1,1.18-.87,5.19,5.19,0,0,1,2.29-.56,7.92,7.92,0,0,1,3.73,1.12,16.66,16.66,0,0,1,6.07,6.48,15.83,15.83,0,0,1,1.84,6.69,9.68,9.68,0,0,1-.31,2.45l1.43.76,4.79-1.12,3.07-4.39-1.64-1,2-7.81-30.61-20.41a90.08,90.08,0,0,0-11.23-20c-5.92-5.66-29.39-16.18-29.39-16.18l-13,4.8-9.9-4.34-1.94,2.3Z"/><path class="cls-21" d="M860.15,1367.35l95.17,53.94-29.7-20.46L872,1369.39l-9.9-4.33Z"/><path class="cls-20" d="M879.08,1393a8.48,8.48,0,0,1-.36,2.65l51.34,29.5V1424a6.74,6.74,0,0,1,1.63-4.8,4.75,4.75,0,0,1,1.17-.87l-56.13-32.66A15.33,15.33,0,0,1,879.08,1393Z"/><path class="cls-22" d="M920.31,1417.62l.25-9.49,1.18-6.53-.46-.11-1.23,6.53-.2,8.78L898,1404.91l-.87-9.49,1.53-8.32,0,0-8.57-14.9-.2.15-8.32,5v.1l-1.89,8.32,1.89,10.52.46-.06-1.84-10.46,1.84-8.11,7.86-4.69,8.26,14.34-1.48,8.16v.05l.92,9.85.1,0Z"/><path class="cls-23" d="M930.06,1422.21v2.2L878.72,1395a8.82,8.82,0,0,0,.36-2Z"/><path class="cls-24" d="M930,1421.8a7,7,0,0,1,1.28-4.33l1.53.86a4.75,4.75,0,0,0-1.17.87,6.16,6.16,0,0,0-1.58,3.73C930.06,1422.57,930,1422.16,930,1421.8Z"/><path class="cls-11" d="M930.06,1422.92v2.2l-51.34-29.5a7.43,7.43,0,0,0,.36-2Z"/><path class="cls-11" d="M857.29,1374.24v3l1,3.07,2.5,2.55,1.12,3.16.56.36a6.37,6.37,0,0,1,0-1.38,7.39,7.39,0,0,1,.92-3.93c.26-.31.46-.61.72-.87a5.07,5.07,0,0,1,1.63-1.07l-4.85-2.81-1-.61Z"/><path class="cls-11" d="M876,1371.79l1.58,4,3.62,2,.41.26.41.26,1.12.66.87.56.61.31.76.46.62.35,12.75,7.66,1.64,1,17.19,10.3.77.46,4.34,2.61.51-2.76-7.05-12.86-.76-1.43-2.3-4.18-25.77-14.14-.25-.2-.87-.46Z"/><path class="cls-25" d="M886.68,1367.76l-8.42,5.31.31,2.4,43.63,26.07.25-1.42-9.9-18.12Z"/><path class="cls-11" d="M881.73,1377.87l.56.61.41.2.41.26,5.61-10.36-.25-.61-.31-.21-.61.31Z"/><path class="cls-11" d="M897.75,1387.46l1.64,1,2.8-12.3-1.63-.82Z"/><path class="cls-11" d="M915.21,1385.57v12.25l.81.46.15-11.18-.76-1.43Z"/><path class="cls-23" d="M928.78,1416v3l-49.6-31.23.71-.36Z"/><path class="cls-11" d="M928.12,1416.39v3l-48.94-28.62v-3Z"/><path class="cls-12" d="M987.46,1409.45l.77-6.78-32.45,18.16-1.43,7.2S975.88,1422.77,987.46,1409.45Z"/><path class="cls-12" d="M954.6,1426.91v-1.13A113.68,113.68,0,0,0,987,1407.51c.26,0,.31-1.17.31-1.17v1s0,1-.31,1.18A112.6,112.6,0,0,1,954.6,1426.91Z"/><path class="cls-12" d="M954.6,1425.32v-1.12A113.68,113.68,0,0,0,987,1405.93c.26,0,.31-1.17.31-1.17v1s0,1-.31,1.17A112.13,112.13,0,0,1,954.6,1425.32Z"/><path class="cls-12" d="M954.6,1423.74v-1.12A113.92,113.92,0,0,0,987,1404.35c.26,0,.31-1.22.31-1.22v1s0,1-.31,1.22A113.47,113.47,0,0,1,954.6,1423.74Z"/><path class="cls-23" d="M954.6,1427.21V1426A111.82,111.82,0,0,0,987,1407.82c.26,0,.31-1.23.31-1.23v1s0,1-.31,1.22A113.47,113.47,0,0,1,954.6,1427.21Z"/><path class="cls-23" d="M954.6,1425.63v-1.17A113.16,113.16,0,0,0,987,1406.24c.26,0,.31-1.23.31-1.23v1s0,1-.31,1.23A113.71,113.71,0,0,1,954.6,1425.63Z"/><path class="cls-23" d="M954.6,1424.05v-1.18A112.17,112.17,0,0,0,987,1404.61c.26,0,.31-1.18.31-1.18v1s0,1-.31,1.18A113.12,113.12,0,0,1,954.6,1424.05Z"/><path class="cls-23" d="M954.81,1421.29A113.73,113.73,0,0,0,987,1403.18l.31.66v.26a113.1,113.1,0,0,1-32.56,18.36Z"/><path class="cls-26" d="M985.83,1418.33,952.92,1437l-.26-2.81,32.87-18.73Z"/><path class="cls-11" d="M946.64,1432.06a8.86,8.86,0,0,1-.31,2.45l1.48.81,5.11,1.69-.26-2.81h1c1,0,2,.67,2.91,0l.66-.3,30.62-17.35a3.19,3.19,0,0,0,.87-.72,3.43,3.43,0,0,0,.56-1.48l.25-4.13-.81.41-31.89,17.91-.87.46-10.82-4.24v.46A15.7,15.7,0,0,1,946.64,1432.06Z"/><path class="cls-12" d="M956.85,1428.54v6.07l.66-.31a101.22,101.22,0,0,0,14-6.27,87.91,87.91,0,0,0,8-4.65A84.76,84.76,0,0,0,988,1417a4.29,4.29,0,0,0,.87-.77v-5.1Z"/><path class="cls-27" d="M955.37,1422l6-2.8a.62.62,0,0,1,.33-.05.69.69,0,0,1,.31.12.78.78,0,0,1,.22.26,1,1,0,0,1,.06.33v2.2a2,2,0,0,1-.36,1,1.94,1.94,0,0,1-.82.68L956,1426Z"/><path class="cls-27" d="M982.36,1407.62,987,1404l-.35,5.11-4.44,3.47a.61.61,0,0,1-.31.13.55.55,0,0,1-.33-.07.55.55,0,0,1-.28-.57v-2.5a2.4,2.4,0,0,1,.31-1.14A2.28,2.28,0,0,1,982.36,1407.62Z"/><path class="cls-21" d="M986.39,1404.3c0-.41,1.58-1.38,1.58-1.38a6.06,6.06,0,0,1-.51,5.1l-1.07,1A22.18,22.18,0,0,0,986.39,1404.3Z"/><path class="cls-28" d="M973.38,1414.2a3,3,0,0,1-.43,1.28,2.81,2.81,0,0,1-1,1,.8.8,0,0,1-1.27-.76,2.9,2.9,0,0,1,.39-1.28,3,3,0,0,1,.93-1,.85.85,0,0,1,.46-.18.77.77,0,0,1,.47.1.82.82,0,0,1,.33.36A.83.83,0,0,1,973.38,1414.2Z"/><path class="cls-29" d="M973.74,1414.5a2.82,2.82,0,0,1-1.33,2.2.77.77,0,0,1-.45.18.8.8,0,0,1-.48-.1.88.88,0,0,1-.33-.36.91.91,0,0,1-.07-.49,2.83,2.83,0,0,1,.43-1.26,2.91,2.91,0,0,1,1-.93C973.18,1413.33,973.74,1413.64,973.74,1414.5Z"/><path class="cls-23" d="M945.82,1424.41l-.92.45,9.6,4.39a2.74,2.74,0,0,0,1.2.27,2.8,2.8,0,0,0,1.2-.27S981,1419.66,989,1411c.41-.46.62-1,0-1.38l-1.68-1.48s0,1-.31,1.22a112.57,112.57,0,0,1-32.7,18.37Z"/><path class="cls-23" d="M962,1428.44v1.07a.92.92,0,0,1-.14.48.91.91,0,0,1-.37.33l-3.57,1.38a.52.52,0,0,1-.25,0,.62.62,0,0,1-.22-.1.7.7,0,0,1-.15-.19.49.49,0,0,1,0-.24l3-1.17a.84.84,0,0,0,.39-.33.77.77,0,0,0,.12-.49v-.56l.57-.26a.52.52,0,0,1,.66.06Z"/><path class="cls-30" d="M960.72,1428.18v.56a.77.77,0,0,1-.12.49.79.79,0,0,1-.39.33l-3,1.17v-.61a.9.9,0,0,1,.16-.5,1,1,0,0,1,.4-.32Z"/><path class="cls-23" d="M988,1412.92v.62a.83.83,0,0,1-.06.44.91.91,0,0,1-.24.37l-2.14,1.79s-.41,0-.41-.31l1.78-1.53a1,1,0,0,0,.28-.37,1,1,0,0,0,.08-.45v-.35l.31-.31S988,1412.67,988,1412.92Z"/><path class="cls-30" d="M987.46,1412.92v.36a1,1,0,0,1-.08.45,1.11,1.11,0,0,1-.27.37l-1.79,1.53v-.41a.89.89,0,0,1,.09-.45,1,1,0,0,1,.27-.37Z"/><path class="cls-31" d="M971.24,1424.92v2.85a90.22,90.22,0,0,0,8-4.64.57.57,0,0,0,0-.26v-2.65c0-.51-.41-.71-.87-.41l-6.33,3.68a1.89,1.89,0,0,0-.54.62A1.92,1.92,0,0,0,971.24,1424.92Z"/><path class="cls-16" d="M978.43,1423.74a1.7,1.7,0,0,0,.62-.6,1.75,1.75,0,0,0,.25-.83v-2.6c0-.51-.36-.71-.87-.46L972.1,1423a1.84,1.84,0,0,0-.86,1.43v2.6c0,.51.4.71.86.46Z"/><path class="cls-32" d="M972.16,1427.26l6.32-3.67a1.7,1.7,0,0,0,.5-.5,1.65,1.65,0,0,0,.22-.68v-2.6c0-.46-.31-.61-.72-.36l-6.32,3.68a1.63,1.63,0,0,0-.67,1.17v2.61C971.44,1427.36,971.75,1427.52,972.16,1427.26Z"/><path class="cls-33" d="M971.44,1424.41a1.54,1.54,0,0,1,.2-.67,1.5,1.5,0,0,1,.46-.51l6.33-3.67c.41-.26.72,0,.72.3Z"/><path class="cls-33" d="M979.15,1422.41a1.4,1.4,0,0,1-.21.69,1.41,1.41,0,0,1-.51.49l-6.33,3.67a.39.39,0,0,1-.66-.3Z"/><path class="cls-21" d="M895.61,1345.56l-33.68,19.5,9.9,4.33,35.72-20.66-7.7-3.37a4.75,4.75,0,0,0-4.24.2Z"/><path class="cls-34" d="M955.37,1422l5.61-2.65v1.79a2,2,0,0,1-.35,1,2,2,0,0,1-.82.68l-3.68,1.69Z"/><path class="cls-34" d="M981.24,1409.4a2.32,2.32,0,0,1,.26-1,2.29,2.29,0,0,1,.66-.79l3.11-2.45v2.24a2.22,2.22,0,0,1-.26.91,2.25,2.25,0,0,1-.61.73l-3.16,2.5Z"/><path class="cls-11" d="M907.7,1348.73C895.51,1353,872,1369.39,872,1369.39l13-4.79,34.34-20.41S910.92,1347.86,907.7,1348.73Z"/><path class="cls-35" d="M885.05,1364.09c15.66-10.46,28.06-17.1,28.06-17.1l-5.1,1.94a185.55,185.55,0,0,0-31.54,18.12A47.3,47.3,0,0,0,885.05,1364.09Z"/><path class="cls-20" d="M987.46,1403.13a162.69,162.69,0,0,1-32.09,18.16l-29.75-20.41,35.72-20.67,26.74,22.56Z"/><path class="cls-11" d="M957.31,1384.7s-1.23,3.88-10.21,8.93a29.85,29.85,0,0,1-13.68,4.85l-8,2.35,35.37-20.77Z"/><path class="cls-11" d="M948.38,1361a120.46,120.46,0,0,1-34,19.8s6,9.64,11.23,20a128.58,128.58,0,0,0,35.72-20.67S955.47,1371.18,948.38,1361Z"/><path class="cls-36" d="M915.21,1381c1.58,2.09,6.22,10.21,10.66,19a128.06,128.06,0,0,0,34.75-20.1c-.81-1.79-6.38-9.34-12.35-18.17l-1.17,1a99.81,99.81,0,0,1-8.42,6A161,161,0,0,1,915.21,1381Z"/><path class="cls-20" d="M981.29,1406.34l-24-21.64s3.52-4.08,4.64-3.31a170.27,170.27,0,0,1,23.73,20.41Z"/><path class="cls-21" d="M981.29,1406.34l-23.53-22.25,3.58-4a227.1,227.1,0,0,1,26.84,22.61Z"/><path class="cls-21" d="M956.13,1421l-30.51-20.16,7.91-2.35,30.26,18.22Z"/><path class="cls-37" d="M938.58,1400l.56.36a1.4,1.4,0,0,0,1.22,0l5.62-2.5c.66-.31.71-.87,0-1.12l-.51-.26a1.69,1.69,0,0,0-1.13,0l-5.56,2.45C938.27,1399.2,938.12,1399.65,938.58,1400Z"/><path class="cls-20" d="M941.08,1400.22l-.46.15-2.45-1.38.36-.2Z"/><path class="cls-20" d="M942.25,1399.81l-.46.1-2.4-1.38.36-.2Z"/><path class="cls-20" d="M943.48,1399.35l-.46.1-2.45-1.38.36-.15Z"/><path class="cls-20" d="M944.65,1398.89l-.46.15-2.4-1.37.36-.21Z"/><path class="cls-20" d="M945.77,1398.38l-.46.15-2.45-1.37.41-.21Z"/><path class="cls-20" d="M946.69,1397.82l-.41.1-2.45-1.38.36-.2Z"/><path class="cls-37" d="M959.35,1387.72l-.57-.36a.91.91,0,0,0-.51-.16,1,1,0,0,0-.51.16l-4.38,3.47a.69.69,0,0,0-.28.28.73.73,0,0,0-.11.38.7.7,0,0,0,.11.38.63.63,0,0,0,.28.28l.51.26a1.13,1.13,0,0,0,.48.11,1.21,1.21,0,0,0,.49-.11l4.28-3.32C959.75,1388.68,959.81,1388,959.35,1387.72Z"/><path class="cls-20" d="M957.15,1387.61l.36-.2,2.35,1.43-.26.25Z"/><path class="cls-20" d="M956.23,1388.23l.36-.16,2.3,1.38-.26.31Z"/><path class="cls-20" d="M955.26,1388.89l.36-.21,2.35,1.43-.26.26Z"/><path class="cls-20" d="M954.35,1389.5l.35-.15,2.3,1.38-.26.3Z"/><path class="cls-20" d="M953.48,1390.22l.36-.21,2.29,1.43-.25.25Z"/><path class="cls-20" d="M952.76,1391l.36-.2,2.35,1.43-.31.3Z"/><path class="cls-38" d="M949.14,1365.82l8.47,12.61-.25,1.48-6.48-3.88Z"/><path class="cls-38" d="M938.68,1368.78l11.38,6.79-1.89-11.18-1.07-1.63A99.81,99.81,0,0,1,938.68,1368.78Z"/><path class="cls-21" d="M919.29,1344.39c1.38-.51,29.09,16.59,29.09,16.59a118.19,118.19,0,0,1-34,19.8L885,1364.6A238.89,238.89,0,0,1,919.29,1344.39Z"/><path class="cls-23" d="M857.29,1374.24l1.78-2.09.11,1.48,7.65,4.75-1.17.71Z"/><path class="cls-39" d="M860.15,1367.35l.4.26a2.11,2.11,0,0,1,.51.71,1.79,1.79,0,0,1,0,.92v3.06a1.1,1.1,0,0,1,0,.67h-.61l-.76-.51c-.31,0,0,0-.41-.36V1371Z"/><path class="cls-12" d="M928.12,1416.39v3l.66-.4v-3Z"/><path class="cls-23" d="M944.9,1425.37a23.74,23.74,0,0,0-6.88-6.88,5.51,5.51,0,0,0-6.38.71,5.9,5.9,0,0,0-1.64,4v1.94l-.3-3.83a5.66,5.66,0,0,1,.74-2.29,5.74,5.74,0,0,1,1.6-1.8,5.88,5.88,0,0,1,2.19-1,5.76,5.76,0,0,1,2.41,0c6.43.92,10.2,8.78,10.2,8.78Z"/><path class="cls-11" d="M932.3,1416.8a6.42,6.42,0,0,1,3.42-.3c6.43.86,9.95,9.13,9.95,9.13h-.61a25.2,25.2,0,0,0-7-7.25,6,6,0,0,0-5.72,0c-.76,0-1.89,2.15-2.24,6.48l-1.13-.66C929.34,1420.12,930.41,1418.08,932.3,1416.8Z"/><path class="cls-23" d="M865.45,1379.19a10.21,10.21,0,0,1,6.59,1.18,15.34,15.34,0,0,1,6,9.39l1,3.87.41-.46s-.41-3.26-.77-4.59a13.11,13.11,0,0,0-5.77-8.77,7.29,7.29,0,0,0-2.9-1.39,7.44,7.44,0,0,0-3.22,0Z"/><path class="cls-11" d="M878.72,1395.62l-.61-.4a19.49,19.49,0,0,0-.46-6.28,13.84,13.84,0,0,0-6.07-8,7.11,7.11,0,0,0-3-1.17,7.23,7.23,0,0,0-3.17.2,5.56,5.56,0,0,0-2.86,3c-.3,1.22-.86-.51-.86-.51l2.14-3.32h1.58a10.3,10.3,0,0,1,4.75,0,14.65,14.65,0,0,1,5,3.92,14.83,14.83,0,0,1,2.89,5.67,18.9,18.9,0,0,1,1,4.7l.81,1.79Z"/><path class="cls-40" d="M932.4,1411l1.08.61a1,1,0,0,1,.32.32,1,1,0,0,1,.13.44v.41a.42.42,0,0,1-.08.22.46.46,0,0,1-.4.23.45.45,0,0,1-.23,0l-1-.61a.89.89,0,0,1-.35-.32.77.77,0,0,1-.11-.45v-.41a.46.46,0,0,1,.06-.22.48.48,0,0,1,.38-.23A.34.34,0,0,1,932.4,1411Z"/><path class="cls-41" d="M932.2,1411.19l1.07.61a.81.81,0,0,1,.34.32.71.71,0,0,1,.12.45v.4a.46.46,0,0,1-.06.23.49.49,0,0,1-.16.16.44.44,0,0,1-.22.07.42.42,0,0,1-.22,0l-1.07-.61a.81.81,0,0,1-.35-.31.83.83,0,0,1-.11-.46v-.4a.59.59,0,0,1,.05-.23.61.61,0,0,1,.16-.16.47.47,0,0,1,.22-.07A.46.46,0,0,1,932.2,1411.19Z"/><path class="cls-21" d="M955.78,1421.8h-.92a1.85,1.85,0,0,0-.82.92c-.1.41-.51.82-.66,1.33a2.33,2.33,0,0,0,0,1.89s1,.81,1.22.71l1.28-.61A6.42,6.42,0,0,0,955.78,1421.8Z"/><path class="cls-42" d="M954.09,1378.94a10.21,10.21,0,0,0,5.87-.26c.3.56.56,1,.66,1.23a128.06,128.06,0,0,1-34.75,20.1l-1.89-3.62C930.77,1392.2,939.55,1387.15,954.09,1378.94Z"/><path class="cls-11" d="M910.92,1398.89a2.68,2.68,0,0,0,.54,1.71,2.73,2.73,0,0,0,1.5,1,4.57,4.57,0,0,0,1.28,0c2.24,0,5.1,0,5.46-.35s2.6,0,2.6,0a1.64,1.64,0,0,0,.41-.53,1.44,1.44,0,0,0,.15-.65,1.76,1.76,0,0,0-.15-.64,1.54,1.54,0,0,0-.41-.53l-.46-.36h-1.33a2.18,2.18,0,0,0,0-.51,4.37,4.37,0,0,0-5.1-2.14C910.26,1397.31,910.92,1398.89,910.92,1398.89Z"/><path class="cls-11" d="M899,1392.72l3.67,2.14a1.53,1.53,0,0,0-.61-1.53,19.88,19.88,0,0,0-2.19-1.28C899,1391.54,899,1392.72,899,1392.72Z"/><path class="cls-11" d="M882.45,1382.76l3.67,2.15c0-.72,0-1.12-.61-1.53a22.14,22.14,0,0,0-2.15-1.28C882.39,1381.59,882.45,1382.76,882.45,1382.76Z"/><polygon class="cls-9" points="721.36 1653.68 631.8 1591.53 631.8 1309.42 721.36 1371.58 721.36 1653.68"/><polygon class="cls-10" points="766.07 1628.76 721.36 1653.68 721.36 1371.1 766.07 1346.17 766.07 1628.76"/><polygon class="cls-9" points="672.16 1277.52 766.07 1346.17 721.36 1371.1 630.42 1309.98 672.16 1277.52"/><path class="cls-11" d="M737.89,1300.54a4.79,4.79,0,0,1,.46-5.72c2-2.91,3.52-1.94,3.52-1.94a3.26,3.26,0,0,1,.77,4.34c-.92,1.74-1.84,4.14-2.5,4.14s-1,2.14-1,2.14l-1.89-1.94Z"/><path class="cls-12" d="M709.26,1347.89l12.81-7.09-15.46-6.48Z"/><path class="cls-12" d="M641.65,1309.11l12.81-7.09L639,1295.54Z"/><path class="cls-43" d="M712.28,1342.08l2.29,3.67,5.46,9,2.71,4.44,3.62-2.09a4,4,0,0,0,1.68-2.45V1354a1.19,1.19,0,0,0,0-.46v-.92a15.62,15.62,0,0,0-7.24-12.09l-.67-.36a5,5,0,0,0-2.19-.5,5.09,5.09,0,0,0-2.2.5Z"/><path class="cls-11" d="M710.54,1346.77a15.61,15.61,0,0,0,7.3,12.15c4,2.19,7.14.35,7.09-4.09a15.57,15.57,0,0,0-7.3-12.14C713.5,1340.49,710.54,1342.33,710.54,1346.77Z"/><path class="cls-14" d="M712.48,1347.94a5.91,5.91,0,0,0,0,1.33,11.85,11.85,0,0,0,1.58,3.88,11,11,0,0,0,1.68,2,7.05,7.05,0,0,0,1.74,1.33,4.79,4.79,0,0,0,1.43.56,2.23,2.23,0,0,0,3-.92v-2.4a6.31,6.31,0,0,0,0-.87,5.47,5.47,0,0,0,0-.81,11.42,11.42,0,0,0-1.12-2.76l-.26-.41a14.9,14.9,0,0,0-1.32-1.73v-.31a8.54,8.54,0,0,0-1.33-1.07l-.51-.3-.51-.26h-1.23a3.22,3.22,0,0,0-.76,0,1.77,1.77,0,0,0-.72.31,2.77,2.77,0,0,0-.95.85,2.82,2.82,0,0,0-.48,1.19Z"/><path class="cls-12" d="M716.26,1346.11a5.4,5.4,0,0,0,0,1.27,11.35,11.35,0,0,0,1.58,3.88,10.93,10.93,0,0,0,1.68,2.09,9.78,9.78,0,0,0,1.74,1.33l1.07.46v-2.6a5.61,5.61,0,0,0,0-.82,10.22,10.22,0,0,0-1.13-2.76l-.25-.4a15,15,0,0,0-1.38-1.79v-.3a10.21,10.21,0,0,0-1.83-1.38l-.51-.26h-.57v.31A8.24,8.24,0,0,0,716.26,1346.11Z"/><path class="cls-44" d="M714.32,1344.58a3.46,3.46,0,0,0-.87,1.33,3.53,3.53,0,0,0-.21,1.58,11.39,11.39,0,0,0,1.53,4.91,11.14,11.14,0,0,0,3.58,3.71,4,4,0,0,0,1.55.59,4,4,0,0,0,1.66-.08,3.41,3.41,0,0,1-4,0,11.08,11.08,0,0,1-5.1-8.57,3.31,3.31,0,0,1,.34-2A3.28,3.28,0,0,1,714.32,1344.58Z"/><path class="cls-14" d="M713.86,1348.35l3.16,1.84-1.43,4.69c0,.26.92,0,.92,0l2.2-2.34,1.58,3.93c.51,0,0,.91.61.81a2.24,2.24,0,0,0,1-.66l-1.12-4.34,1.73,1a4.22,4.22,0,0,0,0-.87,7.2,7.2,0,0,0-.46-1.63l-1.48-1.12.51-1a15.92,15.92,0,0,0-1.32-1.74l-.72.87-1.22-2.5-.51-.25h-1.64l1.28,3.11-3.37-1.33s-.87.41-.87.87S713.81,1347.89,713.86,1348.35Z"/><path class="cls-16" d="M712.53,1348.91l3.27,2.15-1.18,2.65a3.13,3.13,0,0,0,1,1.23l1.79-1.74,1.89,4a1.76,1.76,0,0,0,.79.18,1.82,1.82,0,0,0,.79-.18l-1.23-3.72,2.91,1.48a3.57,3.57,0,0,0,0-1.13,4.12,4.12,0,0,0,0-.86l-3.21-2.1,1.43-2.5a5.07,5.07,0,0,0-1.18-1.43l-1.88,1.79-2-4.13a1.84,1.84,0,0,0-1.42,0l1.22,3.87-3-1.37a4.12,4.12,0,0,0,0,.86A7.85,7.85,0,0,0,712.53,1348.91Z"/><path class="cls-17" d="M716.46,1350.19a2.49,2.49,0,0,0,.34,1.07,2.55,2.55,0,0,0,.78.82c.62.3,1.13,0,1.13-.67a2.6,2.6,0,0,0-.35-1.07,2.42,2.42,0,0,0-.78-.81C717,1349.22,716.46,1349.47,716.46,1350.19Z"/><path class="cls-45" d="M644.66,1303.24l2.25,3.68,5.51,9,2.7,4.44,3.57-2.09a4,4,0,0,0,1.64-2.45,2.16,2.16,0,0,0,0-.36v-.72a4.21,4.21,0,0,0,0-.71,15.28,15.28,0,0,0-7.3-12.09l-.61-.36a5.09,5.09,0,0,0-2.2-.5,5,5,0,0,0-2.19.5Z"/><path class="cls-11" d="M642.77,1307.73a15.61,15.61,0,0,0,7.3,12.15c3.93,2.19,7.09.35,7-4.08a15.73,15.73,0,0,0-7.24-12.15C645.89,1301.25,642.72,1303.29,642.77,1307.73Z"/><path class="cls-12" d="M648.64,1307.07a5.48,5.48,0,0,0,0,1.28,9.73,9.73,0,0,0,1.58,3.87,9.5,9.5,0,0,0,1.69,2.1,8.52,8.52,0,0,0,1.73,1.32,4.8,4.8,0,0,0,1.07.46,1.77,1.77,0,0,1,0-.46v-1a4.2,4.2,0,0,0,0-1.12,5.61,5.61,0,0,0,0-.82,12.57,12.57,0,0,0-1.17-2.75,1.41,1.41,0,0,0,0-.41,14,14,0,0,0-1.38-1.79l-.3-.3a8,8,0,0,0-1.84-1.38l-.46-.26H649v.31A8.72,8.72,0,0,0,648.64,1307.07Z"/><path class="cls-46" d="M646.65,1305.54a3.42,3.42,0,0,0-.84,1.34,3.49,3.49,0,0,0-.18,1.57,11,11,0,0,0,1.52,4.92,11.11,11.11,0,0,0,3.58,3.7,3.8,3.8,0,0,0,1.56.59,4,4,0,0,0,1.66-.08,3.41,3.41,0,0,1-4,0,11,11,0,0,1-3.58-3.67,10.9,10.9,0,0,1-1.52-4.9,3.16,3.16,0,0,1,1.78-3.47Z"/><path class="cls-14" d="M646.24,1309.32l3.17,1.83-1.48,4.7,1-.26,2.19-2.35,1.58,3.93c.51,0,0,.92.61.82a2.26,2.26,0,0,0,.92-.66l-.92-3.93,1.74,1a6.31,6.31,0,0,0,0-.87,7,7,0,0,0-.41-1.63l-1.53-1.13.51-1a10.92,10.92,0,0,0-1.38-1.73l-.66.87-1.28-2.5-.45-.26h-1.54l1.28,3.11-3.42-1.32s-.82.41-.82.86S646.14,1308.86,646.24,1309.32Z"/><path class="cls-16" d="M644.92,1309.88l3.26,2.14-1.22,2.65a3.91,3.91,0,0,0,1,1.23l1.84-1.74,1.88,4a1.85,1.85,0,0,0,1.59,0l-1.28-3.72,2.91,1.48a4.28,4.28,0,0,0,0-1.13,6.91,6.91,0,0,0,0-.91l-3.22-2,1.38-2.5a4.74,4.74,0,0,0-1.12-1.43l-1.89,1.78-2-4.13a2,2,0,0,0-1.43,0l1.23,3.88-3-1.38a2.13,2.13,0,0,0,0,.87A2.88,2.88,0,0,0,644.92,1309.88Z"/><path class="cls-17" d="M648.85,1311.15a2.45,2.45,0,0,0,.34,1.08,2.51,2.51,0,0,0,.78.81.71.71,0,0,0,1.12-.66,2.69,2.69,0,0,0-.38-1.07,2.58,2.58,0,0,0-.79-.82C649.31,1310.18,648.85,1310.44,648.85,1311.15Z"/><path class="cls-20" d="M638.33,1293.7v3.88l4.29,6.22c.26-.3.46-.61.71-.86a4.68,4.68,0,0,1,3.47-1.38,7.64,7.64,0,0,1,3.73,1.07,15.87,15.87,0,0,1,5.66,5.82,15.32,15.32,0,0,1,2.2,7.29,8.54,8.54,0,0,1-.36,2.66l51.34,29.49v-1.12A6.74,6.74,0,0,1,711,1342a4.48,4.48,0,0,1,1.17-.86,5,5,0,0,1,2.3-.56,7.7,7.7,0,0,1,3.73,1.12,16.6,16.6,0,0,1,6.07,6.48,15.63,15.63,0,0,1,1.83,6.68,9.19,9.19,0,0,1-.3,2.45l1.43.77,4.79-1.13,3.07-4.38-1.64-1,2-7.81-30.62-20.41a90.11,90.11,0,0,0-11.22-20c-5.92-5.66-29.39-16.17-29.39-16.17l-13,4.79-9.9-4.33-1.93,2.29Z"/><path class="cls-21" d="M639.35,1290.13l95.17,53.94-29.7-20.47-53.63-31.43-9.9-4.34Z"/><path class="cls-20" d="M658.29,1315.75a8.52,8.52,0,0,1-.36,2.65l51.33,29.49v-1.12a6.75,6.75,0,0,1,1.64-4.8,4.48,4.48,0,0,1,1.17-.86l-56.13-32.66A15.26,15.26,0,0,1,658.29,1315.75Z"/><path class="cls-22" d="M699.52,1340.39l.25-9.49,1.18-6.53-.46-.1-1.23,6.53-.2,8.78-21.84-11.89-.87-9.5,1.53-8.31,0-.05-8.57-14.9-.21.15-8.31,5v.1l-1.89,8.32,1.89,10.51.45,0-1.83-10.46,1.83-8.12,7.86-4.69,8.27,14.34-1.48,8.16v0l.92,9.85.1,0Z"/><path class="cls-23" d="M709.26,1345v2.19l-51.33-29.44a8.9,8.9,0,0,0,.36-2Z"/><path class="cls-24" d="M709.21,1344.58a7.08,7.08,0,0,1,1.28-4.34l1.53.87a4.48,4.48,0,0,0-1.17.86,6.25,6.25,0,0,0-1.59,3.73C709.26,1345.34,709.21,1344.93,709.21,1344.58Z"/><path class="cls-11" d="M709.26,1345.7v2.19l-51.33-29.49a8,8,0,0,0,.36-2Z"/><path class="cls-11" d="M636.5,1297v3l1,3.06,2.5,2.55,1.12,3.16.56.36a6.37,6.37,0,0,1,0-1.38,7.39,7.39,0,0,1,.92-3.93c.26-.3.46-.61.71-.86a5,5,0,0,1,1.64-1.07l-4.85-2.81-1-.61Z"/><path class="cls-11" d="M655.22,1294.57l1.59,4,3.62,2,.41.25.41.26,1.12.66.87.56.61.31.76.46.62.36L678,1311.1l1.64,1,17.19,10.31.77.46,4.34,2.6.51-2.75-7-12.86-.76-1.43-2.3-4.19-25.77-14.13-.25-.21-.87-.46Z"/><path class="cls-25" d="M665.89,1290.54l-8.42,5.3.31,2.4,43.63,26.08.25-1.43-9.9-18.12Z"/><path class="cls-11" d="M660.94,1300.64l.56.61.41.21.41.25,5.61-10.36-.25-.61-.31-.2-.61.3Z"/><path class="cls-11" d="M677,1310.23l1.64,1,2.8-12.3-1.63-.81Z"/><path class="cls-11" d="M694.41,1308.35v12.24l.82.46.15-11.17-.76-1.43Z"/><path class="cls-23" d="M708,1338.76v3l-49.6-31.23.71-.36Z"/><path class="cls-11" d="M707.32,1339.17v3l-48.93-28.63v-3Z"/><path class="cls-12" d="M766.67,1332.23l.77-6.79L735,1343.61l-1.43,7.19S755.09,1345.55,766.67,1332.23Z"/><path class="cls-12" d="M733.81,1349.68v-1.12a113.92,113.92,0,0,0,32.35-18.27c.26,0,.31-1.18.31-1.18v1s0,1-.31,1.17A112.13,112.13,0,0,1,733.81,1349.68Z"/><path class="cls-12" d="M733.81,1348.1V1347a113.92,113.92,0,0,0,32.35-18.27c.26,0,.31-1.18.31-1.18v1s0,1-.31,1.18A112.13,112.13,0,0,1,733.81,1348.1Z"/><path class="cls-12" d="M733.81,1346.52v-1.13a113.44,113.44,0,0,0,32.35-18.27c.26,0,.31-1.22.31-1.22v1s0,1-.31,1.22A113.74,113.74,0,0,1,733.81,1346.52Z"/><path class="cls-23" d="M733.81,1350v-1.17a111.69,111.69,0,0,0,32.35-18.21c.26,0,.31-1.23.31-1.23v1s0,1-.31,1.23A113.68,113.68,0,0,1,733.81,1350Z"/><path class="cls-23" d="M733.81,1348.4v-1.17A113.16,113.16,0,0,0,766.16,1329c.26,0,.31-1.22.31-1.22v1s0,1-.31,1.22A113.47,113.47,0,0,1,733.81,1348.4Z"/><path class="cls-23" d="M733.81,1346.82v-1.17a112.34,112.34,0,0,0,32.35-18.27c.26,0,.31-1.17.31-1.17v1s0,1-.31,1.17A112.88,112.88,0,0,1,733.81,1346.82Z"/><path class="cls-23" d="M734,1344.07a113.92,113.92,0,0,0,32.2-18.12l.31.66v.26A113.13,113.13,0,0,1,734,1345.24Z"/><path class="cls-26" d="M765,1341.11l-32.91,18.67-.26-2.8,32.86-18.73Z"/><path class="cls-11" d="M725.85,1354.83a9.2,9.2,0,0,1-.31,2.45l1.48.82,5.11,1.68-.26-2.8h1c1,0,2,.66,2.91,0l.66-.31,30.62-17.35a3.12,3.12,0,0,0,.87-.71,3.47,3.47,0,0,0,.56-1.48l.25-4.14-.81.41-31.9,17.91-.86.46-10.82-4.23v.46A15.62,15.62,0,0,1,725.85,1354.83Z"/><path class="cls-12" d="M736.05,1351.31v6.07l.67-.3a101.28,101.28,0,0,0,14-6.28,90.22,90.22,0,0,0,8-4.64,84.48,84.48,0,0,0,8.52-6.43,4,4,0,0,0,.87-.77v-5.1Z"/><path class="cls-27" d="M734.57,1344.73l6-2.81a.72.72,0,0,1,.33-.05.71.71,0,0,1,.31.13.54.54,0,0,1,.21.26.61.61,0,0,1,.06.33v2.19a1.89,1.89,0,0,1-.35,1,2,2,0,0,1-.82.69l-5.1,2.29Z"/><path class="cls-27" d="M761.57,1330.39l4.59-3.57-.36,5.1-4.43,3.47a.61.61,0,0,1-.31.13.56.56,0,0,1-.61-.64v-2.5a2.3,2.3,0,0,1,.31-1.14A2.35,2.35,0,0,1,761.57,1330.39Z"/><path class="cls-21" d="M765.6,1327.07c0-.41,1.58-1.37,1.58-1.37a6,6,0,0,1,.31,2.6,6.2,6.2,0,0,1-.82,2.5l-1.07,1A23.56,23.56,0,0,0,765.6,1327.07Z"/><path class="cls-28" d="M752.59,1337a3,3,0,0,1-.43,1.29,2.91,2.91,0,0,1-.95,1,.81.81,0,0,1-1.28-.77,3,3,0,0,1,.4-1.28,2.85,2.85,0,0,1,.93-1,.86.86,0,0,1,.45-.19.8.8,0,0,1,.48.11.82.82,0,0,1,.33.36A.8.8,0,0,1,752.59,1337Z"/><path class="cls-29" d="M753,1337.28a3,3,0,0,1-.4,1.26,2.76,2.76,0,0,1-.93.93.86.86,0,0,1-.45.19.8.8,0,0,1-.48-.11.77.77,0,0,1-.33-.36.8.8,0,0,1-.07-.48,2.87,2.87,0,0,1,1.38-2.2C752.38,1336.11,753,1336.41,753,1337.28Z"/><path class="cls-23" d="M725,1347.18l-.92.46,9.6,4.39a2.88,2.88,0,0,0,1.2.27,3,3,0,0,0,1.2-.27s24.08-9.6,32.09-18.22c.41-.46.62-1,0-1.38l-1.68-1.48s0,1-.31,1.23a113.08,113.08,0,0,1-32.71,18.37Z"/><path class="cls-23" d="M741.16,1351.21v1.07a.9.9,0,0,1-.14.48.93.93,0,0,1-.37.34l-3.58,1.38a.48.48,0,0,1-.24,0,.44.44,0,0,1-.22-.1.4.4,0,0,1-.15-.19.46.46,0,0,1-.05-.23l3-1.18a.82.82,0,0,0,.39-.32.78.78,0,0,0,.12-.49v-.57l.56-.25a.52.52,0,0,1,.34-.1A.51.51,0,0,1,741.16,1351.21Z"/><path class="cls-30" d="M739.93,1351v.57a.78.78,0,0,1-.12.49.77.77,0,0,1-.39.32l-3,1.18v-.62a.94.94,0,0,1,.15-.49.86.86,0,0,1,.41-.32Z"/><path class="cls-23" d="M767.23,1335.7v.61a.94.94,0,0,1-.06.44,1,1,0,0,1-.24.38l-2.15,1.78s-.4,0-.4-.3l1.78-1.53a1.07,1.07,0,0,0,.27-.37.89.89,0,0,0,.09-.45v-.36l.3-.31S767.23,1335.44,767.23,1335.7Z"/><path class="cls-30" d="M766.67,1335.7v.35a1,1,0,0,1-.08.45.93.93,0,0,1-.28.37l-1.78,1.53V1338a1,1,0,0,1,.08-.45,1.09,1.09,0,0,1,.28-.36Z"/><path class="cls-31" d="M750.44,1347.69v2.86a86.55,86.55,0,0,0,8-4.65.53.53,0,0,0,0-.25V1343c0-.51-.4-.71-.86-.4l-6.33,3.67a1.93,1.93,0,0,0-.54.63A2,2,0,0,0,750.44,1347.69Z"/><path class="cls-16" d="M757.64,1346.52a1.81,1.81,0,0,0,.62-.61,1.71,1.71,0,0,0,.25-.82v-2.61c0-.51-.36-.71-.87-.46l-6.33,3.73a2.05,2.05,0,0,0-.6.61,2,2,0,0,0-.27.82v2.6c0,.51.41.72.87.46Z"/><path class="cls-32" d="M751.36,1350l6.33-3.68a1.59,1.59,0,0,0,.5-.5,1.43,1.43,0,0,0,.21-.67v-2.6c0-.46-.3-.62-.71-.36l-6.33,3.67a1.91,1.91,0,0,0-.46.52,1.64,1.64,0,0,0-.2.66v2.6C750.65,1350.14,751,1350.29,751.36,1350Z"/><path class="cls-33" d="M750.65,1347.18a1.5,1.5,0,0,1,.66-1.17l6.33-3.68c.41-.25.71,0,.71.31Z"/><path class="cls-33" d="M758.35,1345.19a1.38,1.38,0,0,1-.71,1.17l-6.33,3.68a.39.39,0,0,1-.66-.31Z"/><path class="cls-21" d="M674.82,1268.34l-33.68,19.49,9.9,4.34,35.72-20.67-7.71-3.37a4.74,4.74,0,0,0-2.14-.39A4.67,4.67,0,0,0,674.82,1268.34Z"/><path class="cls-34" d="M734.57,1344.73l5.62-2.65v1.78a2.06,2.06,0,0,1-.36,1,2,2,0,0,1-.82.68l-3.67,1.68Z"/><path class="cls-34" d="M760.45,1332.18a2.32,2.32,0,0,1,.26-1,2.29,2.29,0,0,1,.66-.79l3.11-2.45v2.25a2.31,2.31,0,0,1-.26.91,2.34,2.34,0,0,1-.61.72l-3.16,2.5Z"/><path class="cls-11" d="M686.91,1271.5c-12.19,4.29-35.72,20.67-35.72,20.67l13-4.8L698.5,1267S690.13,1270.64,686.91,1271.5Z"/><path class="cls-35" d="M664.26,1286.86c15.66-10.46,28.06-17.09,28.06-17.09l-5.1,1.94a185.5,185.5,0,0,0-31.54,18.11A47.3,47.3,0,0,0,664.26,1286.86Z"/><path class="cls-20" d="M766.67,1325.9a163,163,0,0,1-32.1,18.17l-29.75-20.42L740.55,1303l26.73,22.55Z"/><path class="cls-11" d="M736.51,1307.48s-1.22,3.88-10.2,8.93a30,30,0,0,1-13.68,4.85l-8,2.34L740,1302.83Z"/><path class="cls-11" d="M727.58,1283.75a119.8,119.8,0,0,1-34,19.8s6,9.64,11.22,20a128.29,128.29,0,0,0,35.72-20.67S734.68,1294,727.58,1283.75Z"/><path class="cls-36" d="M694.41,1303.8c1.59,2.1,6.23,10.21,10.67,19a128.24,128.24,0,0,0,34.75-20.11c-.82-1.78-6.38-9.34-12.35-18.17l-1.17,1a99.81,99.81,0,0,1-8.42,6A160.08,160.08,0,0,1,694.41,1303.8Z"/><path class="cls-20" d="M760.5,1329.11l-24-21.63s3.53-4.08,4.65-3.32a170.27,170.27,0,0,1,23.73,20.41Z"/><path class="cls-21" d="M760.5,1329.11,737,1306.87l3.58-4a227.1,227.1,0,0,1,26.84,22.61Z"/><path class="cls-21" d="M735.34,1343.76l-30.52-20.16,7.91-2.34L743,1339.47Z"/><path class="cls-37" d="M717.79,1322.74l.56.35a1.4,1.4,0,0,0,1.22,0l5.62-2.5c.66-.3.71-.87,0-1.12l-.52-.26a1.79,1.79,0,0,0-1.12,0l-5.56,2.45C717.48,1322,717.33,1322.43,717.79,1322.74Z"/><path class="cls-20" d="M720.29,1323l-.46.15-2.45-1.37.36-.21Z"/><path class="cls-20" d="M721.46,1322.58l-.46.11-2.4-1.38.36-.21Z"/><path class="cls-20" d="M722.68,1322.12l-.46.11-2.44-1.38.35-.16Z"/><path class="cls-20" d="M723.86,1321.66l-.46.16-2.4-1.38.36-.21Z"/><path class="cls-20" d="M725,1321.15l-.46.16-2.45-1.38.41-.21Z"/><path class="cls-20" d="M725.9,1320.59l-.41.1-2.45-1.37.36-.21Z"/><path class="cls-37" d="M738.56,1310.49l-.57-.36a.9.9,0,0,0-.51-.15,1,1,0,0,0-.51.15l-4.38,3.47a.79.79,0,0,0-.39.66.77.77,0,0,0,.11.39.69.69,0,0,0,.28.28l.51.25a1.1,1.1,0,0,0,1,0l4.29-3.31C739,1311.46,739,1310.8,738.56,1310.49Z"/><path class="cls-20" d="M736.36,1310.39l.36-.21,2.35,1.43-.26.26Z"/><path class="cls-20" d="M735.44,1311l.36-.15,2.3,1.37-.26.31Z"/><path class="cls-20" d="M734.47,1311.66l.36-.2,2.35,1.43-.26.25Z"/><path class="cls-20" d="M733.55,1312.27l.36-.15,2.3,1.38-.26.31Z"/><path class="cls-20" d="M732.69,1313l.35-.21,2.3,1.43-.25.26Z"/><path class="cls-20" d="M732,1313.75l.36-.2,2.35,1.43-.31.31Z"/><path class="cls-38" d="M728.35,1288.6l8.47,12.6-.26,1.48-6.48-3.88Z"/><path class="cls-38" d="M717.89,1291.56l11.38,6.78-1.89-11.17-1.07-1.63A99.81,99.81,0,0,1,717.89,1291.56Z"/><path class="cls-21" d="M698.5,1267.16c1.37-.51,29.08,16.59,29.08,16.59a118,118,0,0,1-34,19.8l-29.4-16.18A241.41,241.41,0,0,1,698.5,1267.16Z"/><path class="cls-23" d="M636.5,1297l1.78-2.09.1,1.47,7.66,4.75-1.17.72Z"/><path class="cls-39" d="M639.35,1290.13l.41.25a2.25,2.25,0,0,1,.51.72,1.79,1.79,0,0,1,0,.92v3.06a1.06,1.06,0,0,1,0,.66h-.61l-.77-.51c-.3,0,0,0-.4-.36v-1.07Z"/><path class="cls-12" d="M707.32,1339.17v3l.67-.41v-3Z"/><path class="cls-23" d="M724.11,1348.15a23.77,23.77,0,0,0-6.88-6.89,5.51,5.51,0,0,0-6.38.71,5.89,5.89,0,0,0-1.64,4v1.94l-.3-3.82a5.86,5.86,0,0,1,2.34-4.09,5.78,5.78,0,0,1,4.6-1c6.43.92,10.2,8.78,10.2,8.78Z"/><path class="cls-11" d="M711.51,1339.58a6.43,6.43,0,0,1,3.42-.31c6.43.87,10,9.13,10,9.13h-.61a25.29,25.29,0,0,0-7-7.24,6,6,0,0,0-5.72,0c-.77,0-1.89,2.14-2.24,6.48l-1.13-.66C708.55,1342.89,709.62,1340.85,711.51,1339.58Z"/><path class="cls-23" d="M644.66,1302a10.19,10.19,0,0,1,6.58,1.17,15.31,15.31,0,0,1,6,9.39l1,3.88.4-.46s-.4-3.27-.76-4.59a13.16,13.16,0,0,0-5.77-8.78,7.46,7.46,0,0,0-6.12-1.43Z"/><path class="cls-11" d="M657.93,1318.4l-.61-.41a19.53,19.53,0,0,0-.46-6.28,13.88,13.88,0,0,0-6.08-8,7.26,7.26,0,0,0-6.12-1,5.63,5.63,0,0,0-2.86,3c-.3,1.23-.86-.51-.86-.51l2.14-3.31h1.58a10,10,0,0,1,4.75,0,14.64,14.64,0,0,1,7.91,9.59,18.73,18.73,0,0,1,1,4.69l.81,1.79Z"/><path class="cls-40" d="M711.61,1333.81l1.07.61a.87.87,0,0,1,.33.33.94.94,0,0,1,.13.44v.4a.49.49,0,0,1-.08.23.44.44,0,0,1-.17.16.62.62,0,0,1-.23.07.46.46,0,0,1-.23,0l-1-.61a.78.78,0,0,1-.46-.76v-.41a.4.4,0,0,1,.06-.22.44.44,0,0,1,.16-.17.52.52,0,0,1,.22-.07A.59.59,0,0,1,711.61,1333.81Z"/><path class="cls-41" d="M711.41,1334l1.07.61a.81.81,0,0,1,.34.32.87.87,0,0,1,.12.45v.41a.43.43,0,0,1-.06.22.44.44,0,0,1-.16.17.43.43,0,0,1-.22.06.41.41,0,0,1-.22,0l-1.08-.62a.73.73,0,0,1-.34-.31.89.89,0,0,1-.12-.45v-.41a.43.43,0,0,1,.06-.22.52.52,0,0,1,.16-.17.57.57,0,0,1,.22-.07A.59.59,0,0,1,711.41,1334Z"/><path class="cls-21" d="M735,1344.58h-.92a1.84,1.84,0,0,0-.81.92c-.1.4-.51.81-.66,1.32a2.33,2.33,0,0,0,0,1.89s1,.82,1.22.71l1.28-.61A6.33,6.33,0,0,0,735,1344.58Z"/><path class="cls-42" d="M733.3,1301.71a10.21,10.21,0,0,0,5.87-.25c.3.56.56,1,.66,1.22a128.24,128.24,0,0,1-34.75,20.11l-1.89-3.63C710,1315,718.76,1309.93,733.3,1301.71Z"/><path class="cls-11" d="M690.13,1321.66a2.71,2.71,0,0,0,2,2.71,4.5,4.5,0,0,0,1.27,0c2.25,0,5.11,0,5.47-.36s2.6,0,2.6,0a1.6,1.6,0,0,0,.41-.52,1.51,1.51,0,0,0,.15-.65,1.66,1.66,0,0,0-.56-1.18l-.46-.35h-1.33a2.18,2.18,0,0,0,0-.51,4.39,4.39,0,0,0-5.1-2.15C689.47,1320.08,690.13,1321.66,690.13,1321.66Z"/><path class="cls-11" d="M678.24,1315.49l3.67,2.14a1.53,1.53,0,0,0-.61-1.53,18.47,18.47,0,0,0-2.2-1.27C678.19,1314.32,678.24,1315.49,678.24,1315.49Z"/><path class="cls-11" d="M661.65,1305.54l3.68,2.14c0-.71,0-1.12-.61-1.53a22.06,22.06,0,0,0-2.15-1.27C661.6,1304.37,661.65,1305.54,661.65,1305.54Z"/><rect class="cls-47" y="960" width="540" height="960"/><path class="cls-2" d="M136.77,1449.32s21.72-117.32,139.6-62.12c0,0,57.8-43.43,115.91,10.87,0,0,38.73,27.48,20.11,96.75,0,0,42.16,38.74,5.06,99.08,0,0-24.43,44.7-89.24,32,0,0-21.6,58.11-106.52,40.23,0,0-55.87-19.78-58.11-75.07,0,0-56.61-2.4-68.53-62.74S136.77,1449.32,136.77,1449.32Z"/><rect class="cls-9" x="540" width="540" height="960"/><path class="cls-11" d="M882.62,585.24a9.12,9.12,0,0,1,.87-10.85c3.78-5.52,6.68-3.68,6.68-3.68a6.19,6.19,0,0,1,1.46,8.23c-1.74,3.3-3.49,7.85-4.75,7.85s-1.84,4.06-1.84,4.06l-3.58-3.68Z"/><path class="cls-12" d="M828.29,675.11l24.31-13.47-29.34-12.29Z"/><path class="cls-12" d="M700,601.51l24.3-13.46L695,575.75Z"/><path class="cls-48" d="M834,664.06l4.36,7,10.36,17,5.13,8.43,6.88-4a7.57,7.57,0,0,0,3.19-4.65v-1.17a2.54,2.54,0,0,0,0-.87v-1.74a29.63,29.63,0,0,0-13.75-23l-1.26-.68a9.7,9.7,0,0,0-8.33,0Z"/><path class="cls-11" d="M830.72,673a29.64,29.64,0,0,0,13.84,23c7.56,4.17,13.56.68,13.47-7.74a29.62,29.62,0,0,0-13.85-23C836.33,661.06,830.72,664.55,830.72,673Z"/><path class="cls-14" d="M834.4,675.2a11.79,11.79,0,0,0,0,2.52,22.63,22.63,0,0,0,3,7.36,20.41,20.41,0,0,0,3.19,3.87,13.08,13.08,0,0,0,3.3,2.52,8.82,8.82,0,0,0,2.71,1.07,4.21,4.21,0,0,0,5.71-1.75v-4.55a9.09,9.09,0,0,0,0-1.65,10,10,0,0,0,0-1.55,21.54,21.54,0,0,0-2.13-5.22l-.48-.78a27.82,27.82,0,0,0-2.52-3.29v-.58a16.53,16.53,0,0,0-2.52-2l-1-.58-1-.48H840.4a7,7,0,0,0-1.45,0,3.36,3.36,0,0,0-1.36.58,5.32,5.32,0,0,0-2.71,3.87C834.71,674.75,834.55,675,834.4,675.2Z"/><path class="cls-12" d="M841.56,671.71a11,11,0,0,0,0,2.43,22.11,22.11,0,0,0,3,7.36,21.44,21.44,0,0,0,3.2,4,19.53,19.53,0,0,0,3.29,2.52l2,.88v-4.94a13.36,13.36,0,0,0,0-1.55,19.38,19.38,0,0,0-2.13-5.23l-.49-.78a29.39,29.39,0,0,0-2.61-3.39v-.58a20.61,20.61,0,0,0-3.49-2.61l-1-.49h-1.06v.58A16.36,16.36,0,0,0,841.56,671.71Z"/><path class="cls-49" d="M837.88,668.81a6.75,6.75,0,0,0-1.64,2.53,6.62,6.62,0,0,0-.39,3,21.2,21.2,0,0,0,9.68,16.37,7.68,7.68,0,0,0,6.1,1,6.45,6.45,0,0,1-7.55,0,20.86,20.86,0,0,1-9.68-16.27,6.13,6.13,0,0,1,.64-3.87A6.21,6.21,0,0,1,837.88,668.81Z"/><path class="cls-14" d="M837,676l6,3.48-2.72,8.91c0,.49,1.75,0,1.75,0l4.16-4.45,3,7.45c1,0,0,1.75,1.17,1.55a4.22,4.22,0,0,0,1.83-1.26l-2.13-8.23,3.3,1.84a11.36,11.36,0,0,0,0-1.65,14.34,14.34,0,0,0-.87-3.09l-2.81-2.13,1-1.94a30.14,30.14,0,0,0-2.52-3.29l-1.36,1.64-2.32-4.74-1-.48h-3.1l2.42,5.9L836.43,673s-1.64.78-1.64,1.65S836.91,675.11,837,676Z"/><path class="cls-16" d="M834.49,677l6.2,4.07-2.23,5a5.79,5.79,0,0,0,1.94,2.33l3.39-3.29,3.58,7.55a3.55,3.55,0,0,0,1.51.34,3.61,3.61,0,0,0,1.5-.34l-2.33-7.07,5.52,2.81a7.6,7.6,0,0,0,0-2.13,9.09,9.09,0,0,0,0-1.65l-6.1-4,2.71-4.74a9.57,9.57,0,0,0-2.22-2.71l-3.59,3.38-3.78-7.84a3.63,3.63,0,0,0-2.71,0l2.33,7.36-5.72-2.62a9.09,9.09,0,0,0,0,1.65A14.12,14.12,0,0,0,834.49,677Z"/><path class="cls-17" d="M842,679.46a4.72,4.72,0,0,0,2.13,3.58,1.34,1.34,0,0,0,2.13-1.25,4.72,4.72,0,0,0-2.13-3.58C842.92,677.62,842,678.11,842,679.46Z"/><path class="cls-50" d="M705.7,590.37l4.26,7,10.46,17,5.13,8.42,6.78-4a7.42,7.42,0,0,0,3.1-4.65,2.51,2.51,0,0,0,0-.67v-1.36a6.18,6.18,0,0,0,0-1.36,29.08,29.08,0,0,0-13.85-22.95l-1.16-.68a9.7,9.7,0,0,0-8.33,0Z"/><path class="cls-11" d="M702.12,598.89A29.64,29.64,0,0,0,716,621.94c7.46,4.16,13.47.68,13.37-7.75a29.86,29.86,0,0,0-13.75-23C708,586.59,702,590.47,702.12,598.89Z"/><path class="cls-12" d="M713.25,597.63a11,11,0,0,0,0,2.43,18.49,18.49,0,0,0,3,7.36,18.18,18.18,0,0,0,3.19,4,16.37,16.37,0,0,0,3.29,2.51,9.64,9.64,0,0,0,2,.87,2.54,2.54,0,0,1,0-.87V612a8.44,8.44,0,0,0,0-2.13,13.36,13.36,0,0,0,0-1.55,24.65,24.65,0,0,0-2.23-5.23,3.39,3.39,0,0,0,0-.78,29.47,29.47,0,0,0-2.62-3.39l-.58-.58a14.82,14.82,0,0,0-3.48-2.61l-.87-.49h-1.07v.58A17.68,17.68,0,0,0,713.25,597.63Z"/><path class="cls-51" d="M709.48,594.73a6.66,6.66,0,0,0-1.94,5.52,21,21,0,0,0,9.68,16.36,7.63,7.63,0,0,0,6.1,1,6.49,6.49,0,0,1-7.55,0,20.86,20.86,0,0,1-9.68-16.27,6,6,0,0,1,3.39-6.58Z"/><path class="cls-14" d="M708.7,601.9l6,3.48-2.81,8.91,1.84-.48,4.16-4.46,3,7.46c1,0,0,1.74,1.17,1.55a4.43,4.43,0,0,0,1.74-1.26l-1.74-7.46,3.29,1.84a11.22,11.22,0,0,0,0-1.64,12.59,12.59,0,0,0-.78-3.1l-2.9-2.13,1-1.94a21.87,21.87,0,0,0-2.62-3.29L718.77,601l-2.42-4.74-.87-.49h-2.91L715,601.7l-6.49-2.52S707,600,707,600.83,708.51,601,708.7,601.9Z"/><path class="cls-16" d="M706.18,603l6.2,4.07-2.32,5a7.62,7.62,0,0,0,1.93,2.33l3.49-3.29,3.58,7.55a3.56,3.56,0,0,0,1.5.33,3.61,3.61,0,0,0,1.51-.33l-2.43-7.07,5.52,2.81a6.92,6.92,0,0,0,0-2.13,10.11,10.11,0,0,0,0-1.74l-6.1-3.88,2.62-4.74a9.73,9.73,0,0,0-2.13-2.72L716,602.57l-3.87-7.84a3.63,3.63,0,0,0-2.71,0l2.32,7.36-5.61-2.62a4.58,4.58,0,0,0,0,1.65A6,6,0,0,0,706.18,603Z"/><path class="cls-17" d="M713.64,605.38a4.72,4.72,0,0,0,2.13,3.58,1.34,1.34,0,0,0,2.13-1.25,4.91,4.91,0,0,0-.73-2,5.16,5.16,0,0,0-1.49-1.56C714.51,603.54,713.64,604,713.64,605.38Z"/><path class="cls-20" d="M693.69,572.26v7.36l8.14,11.82c.48-.59.87-1.17,1.35-1.65a8.85,8.85,0,0,1,6.59-2.62,14.71,14.71,0,0,1,7.07,2,30.27,30.27,0,0,1,10.75,11,29.08,29.08,0,0,1,4.16,13.85,15.59,15.59,0,0,1-.68,5l97.42,56V673a12.78,12.78,0,0,1,3.1-9.1,8.84,8.84,0,0,1,2.23-1.65,9.7,9.7,0,0,1,4.35-1.06,14.71,14.71,0,0,1,7.07,2.13,31.5,31.5,0,0,1,11.53,12.3,29.77,29.77,0,0,1,3.48,12.68,17.33,17.33,0,0,1-.58,4.65l2.71,1.45,9.1-2.13,5.82-8.32L874.2,682,878,667.16l-58.1-38.73a170.76,170.76,0,0,0-21.3-37.86c-11.24-10.75-55.78-30.7-55.78-30.7l-24.6,9.1-18.78-8.23-3.68,4.36Z"/><path class="cls-21" d="M695.63,565.49l180.6,102.35L819.87,629,718.1,569.36l-18.79-8.23Z"/><path class="cls-20" d="M731.56,614.1a16.16,16.16,0,0,1-.68,5l97.41,56V673a12.88,12.88,0,0,1,3.1-9.1,9.21,9.21,0,0,1,2.23-1.65l-106.52-62A29,29,0,0,1,731.56,614.1Z"/><path class="cls-22" d="M809.8,660.87l.48-18,2.23-12.4-.87-.19-2.32,12.39-.39,16.66-41.45-22.56-1.64-18,2.9-15.79-.1-.1-16.26-28.27-.39.29-15.79,9.39v.19l-3.58,15.79,3.58,20,.88-.1-3.49-19.85,3.49-15.4L752,575.94l15.69,27.22-2.81,15.49v.1l1.74,18.69.19.09Z"/><path class="cls-23" d="M828.29,669.59v4.16l-97.41-55.88a16.45,16.45,0,0,0,.68-3.87Z"/><path class="cls-24" d="M828.2,668.81a13.36,13.36,0,0,1,2.42-8.23l2.91,1.64a8.84,8.84,0,0,0-2.23,1.65,11.88,11.88,0,0,0-3,7.07C828.29,670.26,828.2,669.49,828.2,668.81Z"/><path class="cls-11" d="M828.29,670.94v4.17l-97.41-56a14.65,14.65,0,0,0,.68-3.78Z"/><path class="cls-11" d="M690.21,578.56v5.62l1.93,5.81,4.75,4.84,2.13,6,1.06.68a12.75,12.75,0,0,1,0-2.62,13.93,13.93,0,0,1,1.75-7.45c.48-.59.87-1.17,1.35-1.65a9.68,9.68,0,0,1,3.1-2l-9.2-5.33-1.93-1.16Z"/><path class="cls-11" d="M725.75,573.91l3,7.55,6.87,3.88.78.48.77.49,2.13,1.25,1.65,1.07,1.16.58,1.45.87,1.17.68,24.2,14.52,3.1,1.94,32.64,19.56,1.45.87,8.23,4.94,1-5.23L802,603l-1.45-2.71-4.35-7.94-48.91-26.82-.48-.39-1.65-.87Z"/><path class="cls-25" d="M746,566.26l-16,10.07.58,4.55,82.79,49.48.49-2.7-18.79-34.38Z"/><path class="cls-11" d="M736.59,585.43l1.07,1.16.77.39.78.49,10.65-19.66-.49-1.16-.58-.39-1.16.58Z"/><path class="cls-11" d="M767,603.64l3.1,1.84,5.32-23.34-3.1-1.55Z"/><path class="cls-11" d="M800.11,600.06V623.3l1.56.87L802,603l-1.45-2.71Z"/><path class="cls-23" d="M825.87,657.77v5.71l-94.12-59.26,1.36-.68Z"/><path class="cls-11" d="M824.61,658.54v5.72l-92.86-54.33v-5.71Z"/><path class="cls-12" d="M937.24,645.37l1.45-12.87L877.1,667l-2.71,13.65S915.26,670.65,937.24,645.37Z"/><path class="cls-12" d="M874.88,678.49v-2.13a215.73,215.73,0,0,0,61.39-34.67c.48,0,.58-2.22.58-2.22v1.94s0,1.84-.58,2.22A212.87,212.87,0,0,1,874.88,678.49Z"/><path class="cls-12" d="M874.88,675.49v-2.13a215.73,215.73,0,0,0,61.39-34.67c.48,0,.58-2.22.58-2.22v1.93s0,1.84-.58,2.23A212.87,212.87,0,0,1,874.88,675.49Z"/><path class="cls-12" d="M874.88,672.49v-2.13a216.21,216.21,0,0,0,61.39-34.67c.48,0,.58-2.32.58-2.32v1.93s0,1.94-.58,2.33A215.89,215.89,0,0,1,874.88,672.49Z"/><path class="cls-23" d="M874.88,679.07v-2.22a212.27,212.27,0,0,0,61.39-34.57c.48,0,.58-2.33.58-2.33v1.94s0,1.94-.58,2.32A215.65,215.65,0,0,1,874.88,679.07Z"/><path class="cls-23" d="M874.88,676.07v-2.22a215.06,215.06,0,0,0,61.39-34.57c.48,0,.58-2.33.58-2.33v1.94s0,1.93-.58,2.32A215.89,215.89,0,0,1,874.88,676.07Z"/><path class="cls-23" d="M874.88,673.07v-2.23a213.14,213.14,0,0,0,61.39-34.66c.48,0,.58-2.23.58-2.23v1.94s0,1.93-.58,2.22A214.47,214.47,0,0,1,874.88,673.07Z"/><path class="cls-23" d="M875.26,667.84a215.6,215.6,0,0,0,61.11-34.38l.58,1.26v.49a214.49,214.49,0,0,1-61.79,34.86Z"/><path class="cls-26" d="M934.14,662.22l-62.46,35.45-.48-5.33,62.36-35.54Z"/><path class="cls-11" d="M859.77,688.28a17.72,17.72,0,0,1-.58,4.64l2.8,1.55,9.69,3.2-.48-5.33h1.93c1.94,0,3.78,1.26,5.52,0l1.26-.58L938,658.84a6,6,0,0,0,1.65-1.36,6.34,6.34,0,0,0,1.06-2.81l.49-7.84-1.55.77-60.53,34-1.64.87-20.53-8v.87A29.79,29.79,0,0,1,859.77,688.28Z"/><path class="cls-12" d="M879.13,681.59v11.53l1.26-.58A193,193,0,0,0,907,680.62a166.2,166.2,0,0,0,15.11-8.81,161.07,161.07,0,0,0,16.17-12.2,7.88,7.88,0,0,0,1.65-1.45v-9.69Z"/><path class="cls-27" d="M876.33,669.1l11.33-5.32a1.23,1.23,0,0,1,.63-.1,1.28,1.28,0,0,1,.59.24,1.15,1.15,0,0,1,.41.49,1.2,1.2,0,0,1,.11.62v4.17a3.82,3.82,0,0,1-.67,1.9,3.7,3.7,0,0,1-1.56,1.29l-9.68,4.36Z"/><path class="cls-27" d="M927.56,641.89l8.71-6.78-.68,9.68-8.42,6.59a1.08,1.08,0,0,1-.59.25,1.12,1.12,0,0,1-.62-.13,1.14,1.14,0,0,1-.44-.46,1.12,1.12,0,0,1-.1-.63v-4.74a4.66,4.66,0,0,1,.59-2.16A4.46,4.46,0,0,1,927.56,641.89Z"/><path class="cls-21" d="M935.2,635.6c0-.78,3-2.62,3-2.62a11.58,11.58,0,0,1-1,9.68l-2,1.94A42.31,42.31,0,0,0,935.2,635.6Z"/><path class="cls-28" d="M910.51,654.38a5.61,5.61,0,0,1-2.62,4.26,1.52,1.52,0,0,1-2.42-1.45,5.54,5.54,0,0,1,2.52-4.26,1.57,1.57,0,0,1,1.77-.15,1.65,1.65,0,0,1,.63.68A1.54,1.54,0,0,1,910.51,654.38Z"/><path class="cls-29" d="M911.19,655a5.36,5.36,0,0,1-2.52,4.17,1.57,1.57,0,0,1-.86.35,1.54,1.54,0,0,1-1.53-.89,1.53,1.53,0,0,1-.13-.92,5.43,5.43,0,0,1,2.62-4.16C910.12,652.74,911.19,653.32,911.19,655Z"/><path class="cls-23" d="M858.22,673.75l-1.75.87L874.68,683a5.33,5.33,0,0,0,4.55,0s45.71-18.21,60.91-34.57c.78-.87,1.17-1.94,0-2.62L937,643s0,1.94-.58,2.33a214.55,214.55,0,0,1-62.07,34.86Z"/><path class="cls-23" d="M888.82,681.4v2a1.68,1.68,0,0,1-.27.92,1.7,1.7,0,0,1-.7.63l-6.78,2.62a1.18,1.18,0,0,1-.46,0,1.07,1.07,0,0,1-.42-.19,1,1,0,0,1-.29-.36,1.17,1.17,0,0,1-.09-.45l5.72-2.23a1.52,1.52,0,0,0,.73-.62,1.46,1.46,0,0,0,.23-.93v-1.06l1.07-.49a1,1,0,0,1,.65-.18A1,1,0,0,1,888.82,681.4Z"/><path class="cls-30" d="M886.49,680.91V682a1.46,1.46,0,0,1-.23.93,1.52,1.52,0,0,1-.73.62l-5.72,2.23v-1.17a1.68,1.68,0,0,1,.29-.94,1.62,1.62,0,0,1,.78-.61Z"/><path class="cls-23" d="M938.3,652v1.16a1.84,1.84,0,0,1-.11.84,1.88,1.88,0,0,1-.47.71l-4.07,3.39s-.77,0-.77-.58l3.39-2.9a2.1,2.1,0,0,0,.52-.7A1.92,1.92,0,0,0,937,653v-.68l.58-.58S938.3,651.48,938.3,652Z"/><path class="cls-30" d="M937.24,652v.68a2.07,2.07,0,0,1-.16.85,2,2,0,0,1-.52.7l-3.39,2.9v-.77a2,2,0,0,1,.16-.85,1.89,1.89,0,0,1,.52-.7Z"/><path class="cls-31" d="M906.44,674.72v5.42a166.2,166.2,0,0,0,15.11-8.81,1,1,0,0,0,0-.49v-5c0-1-.77-1.36-1.65-.78l-12,7a3.66,3.66,0,0,0-1.45,2.71Z"/><path class="cls-16" d="M920.1,672.49a3.36,3.36,0,0,0,1.17-1.14,3.26,3.26,0,0,0,.47-1.57v-4.94c0-1-.68-1.36-1.64-.87l-12,7.07A3.61,3.61,0,0,0,907,672.2a3.69,3.69,0,0,0-.51,1.55v4.94c0,1,.78,1.35,1.65.87Z"/><path class="cls-32" d="M908.19,679.17l12-7a3,3,0,0,0,.95-1,3.06,3.06,0,0,0,.41-1.28V665c0-.87-.58-1.16-1.36-.67l-12,7a3.14,3.14,0,0,0-.88,1,3.08,3.08,0,0,0-.38,1.25v4.94C906.83,679.37,907.41,679.66,908.19,679.17Z"/><path class="cls-33" d="M906.83,673.75a3.07,3.07,0,0,1,.37-1.26,2.85,2.85,0,0,1,.89-1l12-7c.77-.49,1.35,0,1.35.58Z"/><path class="cls-33" d="M921.45,670a2.59,2.59,0,0,1-.38,1.3,2.62,2.62,0,0,1-1,.93l-12,7a.74.74,0,0,1-1.26-.58Z"/><path class="cls-21" d="M762.93,524.14l-63.91,37,18.79,8.23,67.78-39.22L771,523.75a9.17,9.17,0,0,0-4.07-.76A9,9,0,0,0,762.93,524.14Z"/><path class="cls-34" d="M876.33,669.1l10.65-5v3.39a3.82,3.82,0,0,1-.67,1.91,3.77,3.77,0,0,1-1.56,1.29l-7,3.2Z"/><path class="cls-34" d="M925.42,645.28a4.6,4.6,0,0,1,1.75-3.39l5.9-4.65v4.26a4.05,4.05,0,0,1-.49,1.73,4.21,4.21,0,0,1-1.15,1.37l-6,4.75Z"/><path class="cls-11" d="M785.88,530.14c-23.14,8.13-67.78,39.22-67.78,39.22l24.59-9.11,65.17-38.73S792,528.49,785.88,530.14Z"/><path class="cls-35" d="M742.89,559.29c29.72-19.85,53.26-32.44,53.26-32.44l-9.69,3.68a351,351,0,0,0-59.84,34.37A89.15,89.15,0,0,0,742.89,559.29Z"/><path class="cls-20" d="M937.24,633.37a309.7,309.7,0,0,1-60.91,34.47L819.87,629.1l67.79-39.21,50.74,42.8Z"/><path class="cls-11" d="M880,598.41s-2.33,7.36-19.37,16.94a56.81,56.81,0,0,1-25.95,9.21L819.58,629l67.11-39.41Z"/><path class="cls-11" d="M863.06,553.38A227.75,227.75,0,0,1,798.47,591s11.43,18.31,21.31,37.87a244.15,244.15,0,0,0,67.78-39.22S876.52,572.75,863.06,553.38Z"/><path class="cls-36" d="M800.11,591.44c3,4,11.82,19.36,20.25,36a243.27,243.27,0,0,0,65.94-38.15c-1.55-3.39-12.1-17.72-23.43-34.48l-2.23,1.94a189.33,189.33,0,0,1-16,11.43A304.47,304.47,0,0,1,800.11,591.44Z"/><path class="cls-20" d="M925.52,639.47,880,598.41s6.68-7.75,8.81-6.3a322.74,322.74,0,0,1,45,38.74Z"/><path class="cls-21" d="M925.52,639.47l-44.64-42.22,6.78-7.65a429.16,429.16,0,0,1,50.93,42.9Z"/><path class="cls-21" d="M877.78,667.26,819.87,629l15-4.45,57.42,34.57Z"/><path class="cls-37" d="M844.47,627.36l1.06.68a2.74,2.74,0,0,0,2.33,0l10.65-4.74c1.26-.59,1.36-1.65,0-2.13l-1-.49a3.24,3.24,0,0,0-2.13,0l-10.55,4.65C843.88,625.91,843.6,626.78,844.47,627.36Z"/><path class="cls-20" d="M849.21,627.85l-.87.29-4.65-2.62.68-.38Z"/><path class="cls-20" d="M851.44,627.07l-.87.2L846,624.65l.68-.38Z"/><path class="cls-20" d="M853.76,626.2l-.87.2-4.65-2.62.68-.29Z"/><path class="cls-20" d="M856,625.33l-.87.29L850.57,623l.68-.39Z"/><path class="cls-20" d="M858.12,624.36l-.87.29L852.6,622l.78-.39Z"/><path class="cls-20" d="M859.87,623.3l-.78.19-4.65-2.62.68-.38Z"/><path class="cls-37" d="M883.88,604.12l-1.07-.68a1.72,1.72,0,0,0-1-.29,1.75,1.75,0,0,0-1,.29L872.55,610a1.5,1.5,0,0,0-.53.53,1.43,1.43,0,0,0-.2.73,1.46,1.46,0,0,0,.2.73,1.5,1.5,0,0,0,.53.53l1,.48a2.12,2.12,0,0,0,1.84,0l8.13-6.29C884.65,606,884.75,604.7,883.88,604.12Z"/><path class="cls-20" d="M879.72,603.93l.67-.39,4.46,2.71-.48.49Z"/><path class="cls-20" d="M878,605.09l.68-.29,4.36,2.62-.48.58Z"/><path class="cls-20" d="M876.13,606.35l.68-.39,4.46,2.72-.49.48Z"/><path class="cls-20" d="M874.39,607.51l.68-.29,4.36,2.62-.49.58Z"/><path class="cls-20" d="M872.74,608.87l.68-.39,4.36,2.71-.48.49Z"/><path class="cls-20" d="M871.39,610.32l.68-.38,4.45,2.71-.58.58Z"/><path class="cls-38" d="M864.51,562.58l16.08,23.92-.49,2.81L867.8,582Z"/><path class="cls-38" d="M844.66,568.2l21.6,12.88-3.59-21.21-2-3.1A189.33,189.33,0,0,1,844.66,568.2Z"/><path class="cls-21" d="M807.86,521.91c2.62-1,55.2,31.47,55.2,31.47A223.56,223.56,0,0,1,798.47,591l-55.78-30.7A456.54,456.54,0,0,1,807.86,521.91Z"/><path class="cls-23" d="M690.21,578.56l3.39-4,.19,2.81,14.52,9-2.22,1.36Z"/><path class="cls-39" d="M695.63,565.49l.77.48a4.13,4.13,0,0,1,1,1.36,3.42,3.42,0,0,1,0,1.74v5.81a1.94,1.94,0,0,1,0,1.26h-1.16l-1.45-1c-.58,0,0,0-.78-.68v-2Z"/><path class="cls-12" d="M824.61,658.54v5.72l1.26-.78v-5.71Z"/><path class="cls-23" d="M856.47,675.59a45.09,45.09,0,0,0-13.07-13.07,10.44,10.44,0,0,0-12.1,1.35,11.11,11.11,0,0,0-3.1,7.56v3.68l-.58-7.27a11.05,11.05,0,0,1,8.6-9.64,10.83,10.83,0,0,1,4.57,0c12.2,1.74,19.36,16.65,19.36,16.65Z"/><path class="cls-11" d="M832.56,659.32a12.34,12.34,0,0,1,6.48-.58c12.21,1.64,18.89,17.33,18.89,17.33h-1.16a47.73,47.73,0,0,0-13.37-13.75,11.33,11.33,0,0,0-10.84,0c-1.45,0-3.59,4.07-4.26,12.3l-2.13-1.26C826.94,665.62,829,661.74,832.56,659.32Z"/><path class="cls-23" d="M705.7,588a19.32,19.32,0,0,1,12.49,2.23A29,29,0,0,1,729.62,608l1.94,7.35.77-.87s-.77-6.19-1.45-8.71a24.88,24.88,0,0,0-11-16.66,14.24,14.24,0,0,0-11.62-2.71Z"/><path class="cls-11" d="M730.88,619.13l-1.16-.77a36.71,36.71,0,0,0-.88-11.91,26.2,26.2,0,0,0-11.52-15.21,13.8,13.8,0,0,0-11.62-1.84,10.53,10.53,0,0,0-5.42,5.62c-.58,2.33-1.65-1-1.65-1l4.07-6.29h3a19.32,19.32,0,0,1,9,0,27.89,27.89,0,0,1,15,18.2,35.67,35.67,0,0,1,1.84,8.91l1.54,3.39Z"/><path class="cls-40" d="M832.75,648.38l2,1.16a1.81,1.81,0,0,1,.61.62,1.88,1.88,0,0,1,.26.83v.78a1.08,1.08,0,0,1-.16.42.9.9,0,0,1-.33.31.93.93,0,0,1-.43.12,1,1,0,0,1-.44-.08l-1.94-1.16a1.51,1.51,0,0,1-.65-.6,1.57,1.57,0,0,1-.22-.85v-.78a.91.91,0,0,1,.11-.42.84.84,0,0,1,.31-.31.86.86,0,0,1,.41-.13A.8.8,0,0,1,832.75,648.38Z"/><path class="cls-41" d="M832.36,648.67l2,1.16a1.56,1.56,0,0,1,.87,1.45v.78a.91.91,0,0,1-.11.42,1,1,0,0,1-.31.32.85.85,0,0,1-.41.12.8.8,0,0,1-.43-.09l-2-1.16a1.51,1.51,0,0,1-.65-.6,1.43,1.43,0,0,1-.22-.85v-.78a.78.78,0,0,1,.11-.42.75.75,0,0,1,.3-.31.77.77,0,0,1,.42-.13A.78.78,0,0,1,832.36,648.67Z"/><path class="cls-21" d="M877.1,668.81h-1.74a3.52,3.52,0,0,0-1.55,1.74c-.19.78-1,1.55-1.26,2.52a4.63,4.63,0,0,0-.37,1.79,4.55,4.55,0,0,0,.37,1.79s1.94,1.55,2.33,1.36l2.42-1.16A12,12,0,0,0,877.1,668.81Z"/><path class="cls-42" d="M873.91,587.47A19.37,19.37,0,0,0,885,587c.58,1.07,1.07,1.84,1.26,2.33a243.27,243.27,0,0,1-65.94,38.15l-3.59-6.87C829.65,612.64,846.31,603.06,873.91,587.47Z"/><path class="cls-11" d="M792,625.33a5.14,5.14,0,0,0,1,3.25,5.07,5.07,0,0,0,2.84,1.88,8.84,8.84,0,0,0,2.41,0c4.27,0,9.69,0,10.37-.68s4.94,0,4.94,0a3,3,0,0,0,.78-1,3,3,0,0,0,.28-1.23,3,3,0,0,0-1.06-2.23l-.88-.68h-2.51a5.13,5.13,0,0,0,0-1,8.31,8.31,0,0,0-9.69-4.07C790.72,622.33,792,625.33,792,625.33Z"/><path class="cls-11" d="M769.42,613.61l7,4.07c0-1.26,0-2-1.16-2.91a39.32,39.32,0,0,0-4.17-2.42C769.32,611.39,769.42,613.61,769.42,613.61Z"/><path class="cls-11" d="M738,594.73l7,4.07c0-1.36,0-2.13-1.16-2.91a42.76,42.76,0,0,0-4.07-2.42C737.85,592.5,738,594.73,738,594.73Z"/><line class="cls-52" x1="803.28" y1="329.08" x2="803.28" y2="332.05"/><line class="cls-53" x1="803.28" y1="338.06" x2="803.28" y2="539.46"/><line class="cls-52" x1="803.28" y1="542.47" x2="803.28" y2="545.44"/><g class="cls-54"><g class="cls-55"><path class="cls-56" d="M168.59,3907-2082,2610.4,282.3,1244.18,2532.88,2540.77Z"/><path class="cls-21" d="M.4,1395.9l-1695,978.88L-390.88,3129l1695-978.88Z"/><path class="cls-57" d="M-560.19,1717.72l-1134.38,657.06L-390.88,3129,743.49,2472Z"/><path class="cls-58" d="M853.79,1605.46v424.72L805.51,2058h-.08l-16.35-9.89L467.29,2234.29v18.36l-76,43.75V1871.68Z"/><path class="cls-59" d="M133.51,1157.26,853.79,1573-596.33,2408.64l-720.28-415.76Z"/><path class="cls-60" d="M-1272.27,1992.88,133.51,1182.83,809.45,1573-596.33,2383.07Z"/><path class="cls-61" d="M809.45,1573-596.33,2383.07l-24.56-14.16L719.76,1595.82l-610-352.47,23.8-60.52Z"/><path class="cls-62" d="M789.08,1919l-83.32,48.28v129.09L789.08,2048Z"/><path class="cls-63" d="M469.64,2075.28l-3.1-.17-4.19,5.12,1,.25,3.19,1.76v15.92L740.8,1941.5,754,2068.41l35.12-20.29V1893Z"/><path class="cls-64" d="M928.48,1786.51,359.16,2115.09l-107-61.69,139.23-42.75,444.93-257.08,17.51-10.14Z"/><path class="cls-65" d="M928.48,1786.51,359.16,2115.09v26.16l569.32-328.67Z"/><path class="cls-61" d="M239.38,1918.78l-117.1,10.65,92.79-75.52-482.9,49.87-474.68,259.6L-580,2248.62l294.21-26.74.5-.33,16.18-1.43,120-69.82,30.85-25.06Z"/><path class="cls-66" d="M255.3,1708.39l-305.11,160.1-53.48,385.67-417.1,537.38,617.61-58.42,52.3-107,159.77-225.48,231.85-55.49Z"/><path class="cls-67" d="M612.64,1676.79v747.36l-77.37,44.68-1.34.75v-1.51l-42.75-24.64-17.52,10.06L166.12,2630.85v51l-78.63,45.43V1979.89Z"/><path class="cls-68" d="M687.24,1949.8,117.92,2278.38,11,2216.69l-189-109.14,44.18-25.48L87.41,2209.81l507.71-293,17.52-10.15Z"/><path class="cls-69" d="M230.07,1897.41l30.18-17.35v257.33l-30.18,17.27Z"/><path class="cls-70" d="M175,1928.42l32.19-18.69v230.93L175,2159.27Z"/><path class="cls-71" d="M207.19,1883.41l22.88,14v257.25l-22.88-14Z"/></g></g></svg>