<svg xmlns="http://www.w3.org/2000/svg" xmlns:xlink="http://www.w3.org/1999/xlink" viewBox="0 0 1080 1920"><defs><style>.cls-1{fill:none;}.cls-2{fill:#00aeef;}.cls-3{fill:#06395b;}.cls-4{fill:#1595bc;}.cls-5{fill:#414c5c;}.cls-6{fill:#293237;}.cls-7{fill:url(#Namnlös_övertoning_68);}.cls-8{fill:#a1a1a1;}.cls-9{fill:url(#Namnlös_övertoning_69);}.cls-10{fill:#d3d3d3;}.cls-11{fill:#b6b6b6;}.cls-12{fill:url(#Namnlös_övertoning_68-2);}.cls-13{fill:url(#Namnlös_övertoning_69-2);}.cls-14{fill:#73a538;}.cls-15{fill:#79b53b;}.cls-16{fill:#577729;}.cls-17{fill:#546672;}.cls-18{fill:#409e4e;}.cls-19{fill:#529ba3;}.cls-20{fill:#141e25;}.cls-21{fill:#9cb7d2;}.cls-22{fill:#768a99;}.cls-23{fill:#c4c4c4;}.cls-24{fill:#bed5df;}.cls-25{fill:#12181d;}.cls-26{fill:#efec82;}.cls-27{fill:#d3a944;}.cls-28{fill:#e8f0f3;}.cls-29{fill:#88d5de;}.cls-30{fill:#3d7d87;}.cls-31{fill:#3e2f37;}.cls-32{fill:#95c9b1;}.cls-33{fill:#e08a35;}.cls-34{fill:#e06e18;}.cls-35{fill:#e0ab35;}.cls-36{fill:#5b949c;}.cls-37{fill:url(#Namnlös_övertoning_68-3);}.cls-38{fill:url(#Namnlös_övertoning_69-3);}.cls-39{fill:url(#Namnlös_övertoning_68-4);}.cls-40{fill:url(#Namnlös_övertoning_69-4);}.cls-41{clip-path:url(#clip-path);}.cls-42{clip-path:url(#clip-path-2);}.cls-43{fill:#6e7071;}.cls-44{fill:#c9c9c9;}.cls-45{fill:#efefef;}.cls-46{fill:#fff;}</style><linearGradient id="Namnlös_övertoning_68" x1="-1961.9" y1="-1208.98" x2="-1836.99" y2="-1208.98" gradientTransform="matrix(1, 0, 0, -1, 0, -275.91)" gradientUnits="userSpaceOnUse"><stop offset="0.16" stop-color="#3c4851"/><stop offset="0.56" stop-color="#556773"/><stop offset="0.87" stop-color="#51626e"/></linearGradient><linearGradient id="Namnlös_övertoning_69" x1="-614.29" y1="-2967.98" x2="-574.21" y2="-2918.19" gradientTransform="matrix(1, 0, 0, -1, 0, -275.91)" gradientUnits="userSpaceOnUse"><stop offset="0.16" stop-color="#e3e3e3"/><stop offset="0.56" stop-color="#ccc"/><stop offset="0.87" stop-color="#b7b7b7"/></linearGradient><linearGradient id="Namnlös_övertoning_68-2" x1="-1661.42" y1="-1130.8" x2="-1537.3" y2="-1130.8" xlink:href="#Namnlös_övertoning_68"/><linearGradient id="Namnlös_övertoning_69-2" x1="-558.14" y1="-2651.44" x2="-518.08" y2="-2601.61" xlink:href="#Namnlös_övertoning_69"/><linearGradient id="Namnlös_övertoning_68-3" x1="-2407.58" y1="-1053.09" x2="-2282.66" y2="-1053.09" xlink:href="#Namnlös_övertoning_68"/><linearGradient id="Namnlös_övertoning_69-3" x1="-1059.96" y1="-2812.1" x2="-1019.88" y2="-2762.3" xlink:href="#Namnlös_övertoning_69"/><linearGradient id="Namnlös_övertoning_68-4" x1="-2107.09" y1="-974.91" x2="-1982.97" y2="-974.91" xlink:href="#Namnlös_övertoning_68"/><linearGradient id="Namnlös_övertoning_69-4" x1="-1003.81" y1="-2495.56" x2="-963.75" y2="-2445.72" xlink:href="#Namnlös_övertoning_69"/><clipPath id="clip-path"><polygon class="cls-1" points="3586.53 143.51 2506.53 778.71 2506.53 1.23 3586.53 0 3586.53 143.51"/></clipPath><clipPath id="clip-path-2"><rect class="cls-1" x="2506.53" y="-5.52" width="1114.15" height="1120.09"/></clipPath></defs><title>ledtec-notext</title><g id="Lager_1" data-name="Lager 1"><rect class="cls-2" width="1080" height="1920"/><polygon class="cls-3" points="806.75 1391.33 625.97 1265.87 625.97 852.31 806.75 977.77 806.75 1391.33"/><polygon class="cls-4" points="897 1341.01 806.75 1391.33 806.75 976.8 897 926.48 897 1341.01"/><polygon class="cls-3" points="707.45 787.91 897 926.48 806.75 976.8 623.19 853.44 707.45 787.91"/><path class="cls-5" d="M840.12,834.38a9.68,9.68,0,0,1,.93-11.54c4-5.87,7.1-3.92,7.1-3.92a6.61,6.61,0,0,1,1.55,8.76c-1.85,3.5-3.71,8.35-5.05,8.35s-2,4.32-2,4.32l-3.81-3.92Z"/><path class="cls-6" d="M782.33,930l25.86-14.31L777,902.56Z"/><path class="cls-6" d="M645.85,851.68l25.86-14.32L640.5,824.28Z"/><path class="cls-7" d="M788.41,918.22l4.64,7.42,11,18.12,5.46,9,7.31-4.23a8,8,0,0,0,3.4-4.94v-1.24a2.84,2.84,0,0,0,0-.92v-1.86a31.5,31.5,0,0,0-14.63-24.41l-1.33-.72a10.33,10.33,0,0,0-8.87,0Z"/><path class="cls-5" d="M784.91,927.7a31.56,31.56,0,0,0,14.73,24.51c8,4.43,14.42.72,14.32-8.24a31.56,31.56,0,0,0-14.73-24.51C790.88,915,784.91,918.73,784.91,927.7Z"/><path class="cls-8" d="M788.82,930.07a13.24,13.24,0,0,0,0,2.67,24.15,24.15,0,0,0,3.2,7.83,22,22,0,0,0,3.39,4.12,13.86,13.86,0,0,0,3.51,2.68,9.15,9.15,0,0,0,2.88,1.13,4.51,4.51,0,0,0,6.08-1.85v-4.84a10.23,10.23,0,0,0,0-1.75,11.36,11.36,0,0,0,0-1.65,23,23,0,0,0-2.26-5.56l-.52-.83a30.31,30.31,0,0,0-2.68-3.5v-.62a17.36,17.36,0,0,0-2.68-2.16l-1-.62-1-.52h-2.47a7.92,7.92,0,0,0-1.54,0,3.49,3.49,0,0,0-1.45.63A5.55,5.55,0,0,0,790.3,927a5.61,5.61,0,0,0-1,2.39C789.16,929.58,789,929.82,788.82,930.07Z"/><path class="cls-6" d="M796.45,926.36a11,11,0,0,0,0,2.57,23.11,23.11,0,0,0,3.19,7.83A22.31,22.31,0,0,0,803,941a20.18,20.18,0,0,0,3.5,2.68l2.16.93v-5.25a11.36,11.36,0,0,0,0-1.65,20.25,20.25,0,0,0-2.26-5.56l-.52-.83a29.27,29.27,0,0,0-2.78-3.6v-.62a21,21,0,0,0-3.71-2.78l-1-.52h-1.13v.62A17.64,17.64,0,0,0,796.45,926.36Z"/><path class="cls-9" d="M792.53,923.27a7.08,7.08,0,0,0-1.75,2.69,7.3,7.3,0,0,0-.41,3.18,22.58,22.58,0,0,0,10.3,17.41,8.07,8.07,0,0,0,3.13,1.19,8.28,8.28,0,0,0,3.36-.16,6.91,6.91,0,0,1-8,0,22.32,22.32,0,0,1-10.3-17.31,6.6,6.6,0,0,1,3.71-7Z"/><path class="cls-8" d="M791.61,930.89,798,934.6l-2.88,9.48c0,.51,1.85,0,1.85,0l4.43-4.74,3.2,7.93c1,0,0,1.85,1.23,1.65a4.65,4.65,0,0,0,2-1.34l-2.27-8.76,3.5,2a10.23,10.23,0,0,0,0-1.75,15.12,15.12,0,0,0-.92-3.3l-3-2.26,1-2.06a30.42,30.42,0,0,0-2.68-3.51L802,929.65l-2.47-5-1-.52h-3.3l2.57,6.29L791,927.7s-1.75.82-1.75,1.75S791.5,930,791.61,930.89Z"/><path class="cls-10" d="M788.93,932l6.59,4.33-2.37,5.36a6.17,6.17,0,0,0,2.06,2.47l3.61-3.5,3.81,8a3.71,3.71,0,0,0,3.19,0l-2.47-7.52,5.87,3a7.85,7.85,0,0,0,0-2.27,10.23,10.23,0,0,0,0-1.75l-6.49-4.22,2.89-5.05a10.32,10.32,0,0,0-2.37-2.88l-3.82,3.6-4-8.34a3.87,3.87,0,0,0-2.88,0L795,931.1l-6.08-2.79a8.63,8.63,0,0,0,0,1.76A12.69,12.69,0,0,0,788.93,932Z"/><path class="cls-11" d="M796.86,934.6a5.08,5.08,0,0,0,.69,2.17,5,5,0,0,0,1.57,1.64,1.43,1.43,0,0,0,2.27-1.34,5.08,5.08,0,0,0-.69-2.17,5,5,0,0,0-1.58-1.64C797.89,932.64,796.86,933.16,796.86,934.6Z"/><path class="cls-12" d="M651.93,839.83l4.53,7.42,11.13,18.13,5.46,9,7.21-4.22a7.89,7.89,0,0,0,3.29-5,2.18,2.18,0,0,0,0-.72V863a5.78,5.78,0,0,0,0-1.44,30.87,30.87,0,0,0-14.73-24.41l-1.23-.73a10.31,10.31,0,0,0-8.86,0Z"/><path class="cls-5" d="M648.12,848.9a31.45,31.45,0,0,0,14.73,24.51c7.93,4.43,14.32.72,14.22-8.24a31.79,31.79,0,0,0-14.63-24.51C654.4,835.82,648,839.94,648.12,848.9Z"/><path class="cls-6" d="M660,847.56a11.13,11.13,0,0,0,0,2.58,19.57,19.57,0,0,0,3.19,7.82,19,19,0,0,0,3.4,4.23,17.81,17.81,0,0,0,3.5,2.67,10.06,10.06,0,0,0,2.16.93,3.62,3.62,0,0,1,0-.93V862.8a7.78,7.78,0,0,0,0-2.26,11.36,11.36,0,0,0,0-1.65,25,25,0,0,0-2.37-5.56,2.82,2.82,0,0,0,0-.82,29.37,29.37,0,0,0-2.78-3.61l-.61-.62a16.22,16.22,0,0,0-3.71-2.78l-.93-.52h-1.13v.62A17,17,0,0,0,660,847.56Z"/><path class="cls-13" d="M656,844.47a7.1,7.1,0,0,0-1.71,2.7,7.26,7.26,0,0,0-.35,3.17,22.4,22.4,0,0,0,10.3,17.41,8.14,8.14,0,0,0,6.49,1,6.91,6.91,0,0,1-8,0,22.25,22.25,0,0,1-10.3-17.31,6.39,6.39,0,0,1,.6-4.12A6.33,6.33,0,0,1,656,844.47Z"/><path class="cls-8" d="M655.12,852.09l6.39,3.71-3,9.48,2-.52,4.43-4.74L668.1,868c1,0,0,1.85,1.24,1.64a4.49,4.49,0,0,0,1.85-1.34l-1.85-7.93,3.5,2a10.23,10.23,0,0,0,0-1.75,13.87,13.87,0,0,0-.82-3.3L668.93,855l1-2.06a23.57,23.57,0,0,0-2.78-3.51l-1.34,1.76-2.58-5-.92-.52h-3.1l2.58,6.28-6.9-2.67s-1.65.82-1.65,1.75S654.92,851.17,655.12,852.09Z"/><path class="cls-10" d="M652.45,853.22l6.59,4.33-2.47,5.36a8,8,0,0,0,2.06,2.47l3.71-3.5,3.81,8a3.8,3.8,0,0,0,1.59.35,3.84,3.84,0,0,0,1.6-.35l-2.58-7.52,5.88,3a7.85,7.85,0,0,0,0-2.27,14.28,14.28,0,0,0,0-1.85l-6.49-4.12,2.78-5a10.41,10.41,0,0,0-2.27-2.88l-3.81,3.6-4.12-8.34a3.87,3.87,0,0,0-2.88,0l2.47,7.83-6-2.78a5.14,5.14,0,0,0,0,1.75A6.39,6.39,0,0,0,652.45,853.22Z"/><path class="cls-11" d="M660.38,855.8a5,5,0,0,0,.69,2.17,5,5,0,0,0,1.58,1.64,1.43,1.43,0,0,0,2.26-1.34,5.41,5.41,0,0,0-2.37-3.81C661.31,853.84,660.38,854.36,660.38,855.8Z"/><path class="cls-14" d="M639.16,820.57v7.83L647.81,841c.52-.62.93-1.24,1.44-1.75a10.23,10.23,0,0,1,3.3-2.17,10.44,10.44,0,0,1,3.71-.62,15.58,15.58,0,0,1,7.52,2.17,32.09,32.09,0,0,1,11.43,11.74,30.85,30.85,0,0,1,4.43,14.73,16.8,16.8,0,0,1-.72,5.36L782.54,930V927.7a13.62,13.62,0,0,1,3.3-9.69,9.51,9.51,0,0,1,2.37-1.75,10.34,10.34,0,0,1,4.63-1.13,15.73,15.73,0,0,1,7.52,2.27,33.39,33.39,0,0,1,12.26,13.08A31.66,31.66,0,0,1,816.33,944a19.24,19.24,0,0,1-.62,4.95l2.88,1.54,9.68-2.27,6.18-8.85-3.29-2.06,4-15.76-61.81-41.21A181.4,181.4,0,0,0,750.71,840c-12-11.43-59.33-32.65-59.33-32.65l-26.16,9.68-20-8.76L641.32,813Z"/><path class="cls-15" d="M641.22,813.36l192.1,108.88-60-41.31L665.12,817.48l-20-8.75Z"/><path class="cls-14" d="M679.43,865.07a16.8,16.8,0,0,1-.72,5.36L782.33,930V927.7a13.66,13.66,0,0,1,3.3-9.69,9.51,9.51,0,0,1,2.37-1.75L674.7,850.34A30.89,30.89,0,0,1,679.43,865.07Z"/><path class="cls-16" d="M762.66,914.82l.52-19.16,2.37-13.18-.93-.21-2.47,13.19-.42,17.71-44.08-24L715.9,870l3.09-16.8-.11-.1-17.3-30.07-.41.3-16.79,10v.2l-3.81,16.79,3.81,21.22.93-.1-3.71-21.12L685.31,834l15.86-9.47,16.68,28.94-3,16.48V870l1.85,19.88.21.1Z"/><path class="cls-17" d="M782.33,924.09v4.43L678.71,869.09a17,17,0,0,0,.72-4.12Z"/><path class="cls-18" d="M782.23,923.27a14.21,14.21,0,0,1,2.58-8.76l3.09,1.75a9.51,9.51,0,0,0-2.37,1.75,12.58,12.58,0,0,0-3.2,7.53C782.33,924.81,782.23,924,782.23,923.27Z"/><path class="cls-5" d="M782.33,925.53V930L678.71,870.43a15.38,15.38,0,0,0,.72-4Z"/><path class="cls-5" d="M635.45,827.27v6l2.06,6.18,5,5.15,2.27,6.39,1.13.72a12.92,12.92,0,0,1,0-2.78,14.82,14.82,0,0,1,1.85-7.93c.52-.62.93-1.24,1.44-1.75a10.23,10.23,0,0,1,3.3-2.17l-9.78-5.66-2.06-1.24Z"/><path class="cls-5" d="M673.25,822.32l3.2,8,7.31,4.12.82.51.83.52,2.26,1.34,1.76,1.13,1.23.62,1.55.93,1.23.72,25.75,15.45,3.3,2.06,34.71,20.8,1.55.93,8.75,5.25,1-5.56-14.21-26-1.55-2.88-4.63-8.44-52-28.54-.51-.41-1.76-.93Z"/><path class="cls-19" d="M694.78,814.19l-17,10.71.61,4.84,88.07,52.63.52-2.88-20-36.56Z"/><path class="cls-5" d="M684.79,834.58l1.13,1.24.83.41.82.51,11.33-20.9-.51-1.24-.62-.41-1.24.62Z"/><path class="cls-5" d="M717.13,854l3.3,1.95,5.66-24.82-3.29-1.65Z"/><path class="cls-5" d="M752.36,850.14v24.72l1.65.92.31-22.56-1.55-2.88Z"/><path class="cls-17" d="M779.76,911.53v6.07l-100.12-63,1.44-.72Z"/><path class="cls-5" d="M778.42,912.35v6.08l-98.78-57.79v-6.08Z"/><path class="cls-6" d="M898.21,898.34l1.55-13.7-65.51,36.67-2.88,14.52S874.83,925.23,898.21,898.34Z"/><path class="cls-6" d="M831.88,933.57V931.3a229.79,229.79,0,0,0,65.3-36.87c.52,0,.62-2.37.62-2.37v2.06s0,2-.62,2.37A226.61,226.61,0,0,1,831.88,933.57Z"/><path class="cls-6" d="M831.88,930.38v-2.27a229.58,229.58,0,0,0,65.3-36.88c.52,0,.62-2.36.62-2.36v2s0,2-.62,2.37A226.64,226.64,0,0,1,831.88,930.38Z"/><path class="cls-6" d="M831.88,927.18v-2.27A229.55,229.55,0,0,0,897.18,888c.52,0,.62-2.47.62-2.47v2.06s0,2.06-.62,2.47A229.53,229.53,0,0,1,831.88,927.18Z"/><path class="cls-17" d="M831.88,934.18v-2.36a225.49,225.49,0,0,0,65.3-36.77c.52,0,.62-2.48.62-2.48v2.06s0,2.06-.62,2.48A229.26,229.26,0,0,1,831.88,934.18Z"/><path class="cls-17" d="M831.88,931v-2.37a228.16,228.16,0,0,0,65.3-36.77c.52,0,.62-2.47.62-2.47v2.06s0,2.06-.62,2.47A229.53,229.53,0,0,1,831.88,931Z"/><path class="cls-17" d="M831.88,927.8v-2.37a226.49,226.49,0,0,0,65.3-36.87c.52,0,.62-2.37.62-2.37v2.06s0,2.06-.62,2.36A228.14,228.14,0,0,1,831.88,927.8Z"/><path class="cls-17" d="M832.29,922.24a229.67,229.67,0,0,0,65-36.57l.61,1.34v.52a227.92,227.92,0,0,1-65.71,37.07Z"/><path class="cls-20" d="M894.92,916.26,828.48,954,828,948.3l66.33-37.81Z"/><path class="cls-5" d="M815.81,944a18.41,18.41,0,0,1-.62,4.95l3,1.64,10.3,3.4L828,948.3H830c2.05,0,4,1.34,5.87,0l1.34-.62,61.8-35a6.39,6.39,0,0,0,1.75-1.44,6.74,6.74,0,0,0,1.13-3l.52-8.35-1.65.83-64.38,36.15-1.75.93-21.84-8.55v.93A31.46,31.46,0,0,1,815.81,944Z"/><path class="cls-6" d="M836.41,936.86v12.26l1.34-.62a204,204,0,0,0,28.33-12.67,179,179,0,0,0,16.07-9.37,172.14,172.14,0,0,0,17.2-13,8.56,8.56,0,0,0,1.75-1.54v-10.3Z"/><path class="cls-21" d="M833.42,923.58l12.06-5.67a1.39,1.39,0,0,1,.67-.1,1.49,1.49,0,0,1,.63.25,1.35,1.35,0,0,1,.43.52,1.29,1.29,0,0,1,.12.67v4.43a4,4,0,0,1-2.37,3.4l-10.3,4.63Z"/><path class="cls-21" d="M887.92,894.63l9.26-7.21-.72,10.3-9,7a1.15,1.15,0,0,1-.62.26,1.09,1.09,0,0,1-.66-.14,1.11,1.11,0,0,1-.47-.49,1.14,1.14,0,0,1-.1-.66v-5.05a4.74,4.74,0,0,1,.62-2.3A4.85,4.85,0,0,1,887.92,894.63Z"/><path class="cls-15" d="M896.05,887.94c0-.83,3.19-2.78,3.19-2.78a12.21,12.21,0,0,1,.62,5.26,12.39,12.39,0,0,1-1.65,5l-2.16,2.06A46.48,46.48,0,0,0,896.05,887.94Z"/><path class="cls-22" d="M869.78,907.92a5.93,5.93,0,0,1-.85,2.59,6.06,6.06,0,0,1-1.93,1.94c-1.44.72-2.57,0-2.57-1.54a5.74,5.74,0,0,1,.8-2.58,5.91,5.91,0,0,1,1.87-2A1.67,1.67,0,0,1,868,906a1.61,1.61,0,0,1,1.63.94A1.58,1.58,0,0,1,869.78,907.92Z"/><path class="cls-23" d="M870.51,908.54a5.7,5.7,0,0,1-2.68,4.43,1.7,1.7,0,0,1-.92.37,1.62,1.62,0,0,1-1-.21,1.69,1.69,0,0,1-.67-.73,1.65,1.65,0,0,1-.13-1,5.77,5.77,0,0,1,2.78-4.43C869.37,906.17,870.51,906.79,870.51,908.54Z"/><path class="cls-17" d="M814.16,928.52l-1.85.93,19.36,8.86a5.81,5.81,0,0,0,2.42.54,5.74,5.74,0,0,0,2.42-.54s48.62-19.37,64.79-36.78c.83-.92,1.24-2,0-2.78l-3.4-3s0,2.05-.61,2.47a228.09,228.09,0,0,1-66,37.08Z"/><path class="cls-17" d="M846.71,936.66v2.16a1.85,1.85,0,0,1-.28,1,1.82,1.82,0,0,1-.75.68l-7.21,2.78a1,1,0,0,1-.49,0,1.2,1.2,0,0,1-.45-.19,1.14,1.14,0,0,1-.3-.39,1.15,1.15,0,0,1-.1-.48l6.08-2.37a1.67,1.67,0,0,0,1-1.65v-1.13l1.13-.52a1.07,1.07,0,0,1,.69-.19A1,1,0,0,1,846.71,936.66Z"/><path class="cls-24" d="M844.24,936.14v1.14a1.67,1.67,0,0,1-.25,1,1.55,1.55,0,0,1-.78.65l-6.08,2.37v-1.23a1.77,1.77,0,0,1,.31-1,1.72,1.72,0,0,1,.83-.65Z"/><path class="cls-17" d="M899.35,905.35v1.23a2.07,2.07,0,0,1-.13.89,1.92,1.92,0,0,1-.49.76l-4.33,3.6s-.82,0-.82-.61l3.6-3.09a2.08,2.08,0,0,0,.55-.74,1.92,1.92,0,0,0,.17-.91v-.72l.62-.62S899.35,904.83,899.35,905.35Z"/><path class="cls-24" d="M898.21,905.35v.72a1.86,1.86,0,0,1-.17.9,2,2,0,0,1-.55.75l-3.6,3.08V910a2,2,0,0,1,.17-.91,2,2,0,0,1,.55-.74Z"/><path class="cls-25" d="M865.46,929.55v5.77a176.7,176.7,0,0,0,16.07-9.38,1.1,1.1,0,0,0,0-.51v-5.36c0-1-.83-1.44-1.75-.82L867,926.67a3.68,3.68,0,0,0-1.09,1.26A3.86,3.86,0,0,0,865.46,929.55Z"/><path class="cls-10" d="M880,927.18a3.45,3.45,0,0,0,1.75-2.88V919c0-1-.72-1.44-1.75-.92l-12.77,7.52a3.77,3.77,0,0,0-1.21,1.24,3.84,3.84,0,0,0-.54,1.64v5.26c0,1,.82,1.44,1.75.92Z"/><path class="cls-26" d="M867.31,934.29l12.77-7.42a3,3,0,0,0,1-1,3.12,3.12,0,0,0,.44-1.36v-5.25c0-.93-.62-1.24-1.45-.72l-12.77,7.41a3.31,3.31,0,0,0-.92,1,3.25,3.25,0,0,0-.42,1.32v5.26C865.87,934.5,866.49,934.81,867.31,934.29Z"/><path class="cls-27" d="M865.87,928.52a3.16,3.16,0,0,1,.4-1.34,3.09,3.09,0,0,1,.94-1L880,918.73c.83-.51,1.44,0,1.44.62Z"/><path class="cls-27" d="M881.42,924.5a2.77,2.77,0,0,1-.4,1.38,2.67,2.67,0,0,1-1,1l-12.77,7.42a.79.79,0,0,1-1.34-.62Z"/><path class="cls-15" d="M712.81,769.38l-68,39.35,20,8.75,72.1-41.71L721.36,769a9.74,9.74,0,0,0-4.33-.81A9.63,9.63,0,0,0,712.81,769.38Z"/><path class="cls-28" d="M833.42,923.58l11.33-5.36v3.61a3.91,3.91,0,0,1-.71,2,4,4,0,0,1-1.66,1.38L835,928.62Z"/><path class="cls-28" d="M885.65,898.24a4.84,4.84,0,0,1,1.85-3.61l6.29-4.94v4.53a4.44,4.44,0,0,1-.53,1.84,4.55,4.55,0,0,1-1.23,1.46l-6.38,5Z"/><path class="cls-5" d="M737.22,775.77c-24.62,8.65-72.1,41.71-72.1,41.71l26.16-9.68,69.32-41.2S743.71,774,737.22,775.77Z"/><path class="cls-29" d="M691.49,806.77c31.62-21.11,56.65-34.51,56.65-34.51l-10.3,3.92a374.27,374.27,0,0,0-63.66,36.56A94.72,94.72,0,0,0,691.49,806.77Z"/><path class="cls-14" d="M898.21,885.57a328.71,328.71,0,0,1-64.79,36.67l-60-41.21,72.11-41.71,54,45.53Z"/><path class="cls-5" d="M837.34,848.38s-2.47,7.83-20.6,18a60.4,60.4,0,0,1-27.61,9.79l-16.07,4.73L844.45,839Z"/><path class="cls-5" d="M819.31,800.49a242,242,0,0,1-68.7,40s12.15,19.47,22.66,40.28A259.43,259.43,0,0,0,845.37,839S833.63,821.09,819.31,800.49Z"/><path class="cls-30" d="M752.36,841c3.19,4.22,12.57,20.6,21.53,38.32A258.6,258.6,0,0,0,844,838.7c-1.65-3.6-12.87-18.85-24.92-36.67l-2.37,2.06a199.61,199.61,0,0,1-17,12.16A323.51,323.51,0,0,1,752.36,841Z"/><path class="cls-14" d="M885.75,892.06l-48.41-43.68s7.11-8.24,9.37-6.69a342.54,342.54,0,0,1,47.9,41.2Z"/><path class="cls-15" d="M885.75,892.06l-47.48-44.91,7.21-8.14a458.23,458.23,0,0,1,54.18,45.63Z"/><path class="cls-15" d="M835,921.62l-61.6-40.69,16-4.73L850.42,913Z"/><path class="cls-31" d="M799.54,879.18l1.13.72a2.86,2.86,0,0,0,2.47,0l11.33-5c1.34-.62,1.44-1.76,0-2.27l-1-.52a3.5,3.5,0,0,0-2.26,0L800,877C798.92,877.64,798.61,878.56,799.54,879.18Z"/><path class="cls-14" d="M804.58,879.7l-.93.3-4.94-2.77.72-.42Z"/><path class="cls-14" d="M807,878.87l-.93.21-4.84-2.78.73-.41Z"/><path class="cls-14" d="M809.42,878l-.92.2-5-2.78.73-.31Z"/><path class="cls-14" d="M811.79,877l-.92.31L806,874.55l.73-.42Z"/><path class="cls-14" d="M814.06,876l-.93.31-4.94-2.78.82-.42Z"/><path class="cls-14" d="M815.91,874.86l-.82.2-4.94-2.78.72-.41Z"/><path class="cls-31" d="M841.46,854.46l-1.13-.72a1.91,1.91,0,0,0-1-.31,1.86,1.86,0,0,0-1,.31l-8.86,7a1.46,1.46,0,0,0-.57.56,1.54,1.54,0,0,0,0,1.55,1.53,1.53,0,0,0,.57.56l1,.52a2.34,2.34,0,0,0,1,.22,2.38,2.38,0,0,0,1-.22l8.65-6.7C842.28,856.42,842.39,855.08,841.46,854.46Z"/><path class="cls-14" d="M837,854.25l.72-.41,4.74,2.89-.51.51Z"/><path class="cls-14" d="M835.18,855.49l.72-.31,4.63,2.78-.51.62Z"/><path class="cls-14" d="M833.22,856.83l.72-.41,4.74,2.88-.52.52Z"/><path class="cls-14" d="M831.37,858.07l.71-.31,4.64,2.78-.51.62Z"/><path class="cls-14" d="M829.61,859.51l.73-.41L835,862l-.52.51Z"/><path class="cls-14" d="M828.17,861.05l.72-.41,4.74,2.89-.62.61Z"/><path class="cls-32" d="M820.86,810.27,838,835.71l-.52,3-13.08-7.83Z"/><path class="cls-32" d="M799.74,816.25l23,13.7-3.81-22.56-2.16-3.3A199.61,199.61,0,0,1,799.74,816.25Z"/><path class="cls-15" d="M760.6,767c2.78-1,58.71,33.48,58.71,33.48a237.79,237.79,0,0,1-68.7,40L691.28,807.8A484.79,484.79,0,0,1,760.6,767Z"/><path class="cls-17" d="M635.45,827.27l3.61-4.22.2,3,15.45,9.58-2.37,1.44Z"/><path class="cls-33" d="M641.22,813.36l.82.52a4.43,4.43,0,0,1,1,1.44,3.66,3.66,0,0,1,0,1.86v6.17a2.05,2.05,0,0,1,0,1.34h-1.23l-1.55-1c-.62,0,0,0-.82-.72v-2.16Z"/><path class="cls-6" d="M778.42,912.35v6.08l1.34-.83v-6.07Z"/><path class="cls-17" d="M812.31,930.48a48,48,0,0,0-13.91-13.91A11.15,11.15,0,0,0,785.53,918a11.84,11.84,0,0,0-3.3,8V930l-.62-7.72a11.69,11.69,0,0,1,4.73-8.25,11.69,11.69,0,0,1,9.28-2c13,1.85,20.6,17.71,20.6,17.71Z"/><path class="cls-5" d="M786.87,913.17a13.07,13.07,0,0,1,6.9-.61c13,1.75,20.09,18.43,20.09,18.43h-1.24a50.79,50.79,0,0,0-14.22-14.62,12,12,0,0,0-11.53,0c-1.55,0-3.81,4.32-4.53,13.08l-2.27-1.34C780.89,919.87,783.06,915.75,786.87,913.17Z"/><path class="cls-17" d="M651.93,837.26a20.64,20.64,0,0,1,13.29,2.37,30.87,30.87,0,0,1,12.15,19l2.06,7.83.83-.93s-.83-6.59-1.55-9.27a26.47,26.47,0,0,0-11.64-17.71,15,15,0,0,0-5.86-2.8,15.16,15.16,0,0,0-6.5-.09Z"/><path class="cls-5" d="M678.71,870.43l-1.23-.83a39.16,39.16,0,0,0-.93-12.67,27.89,27.89,0,0,0-12.26-16.17,14.6,14.6,0,0,0-6-2.37,14.89,14.89,0,0,0-6.4.41,11.28,11.28,0,0,0-5.77,6c-.61,2.47-1.75-1-1.75-1l4.33-6.7h3.19a20.68,20.68,0,0,1,9.58,0,29.69,29.69,0,0,1,16,19.37,36.94,36.94,0,0,1,1.95,9.47l1.65,3.61Z"/><path class="cls-34" d="M787.07,901.53l2.17,1.24a1.94,1.94,0,0,1,.92,1.55v.82a1,1,0,0,1-.16.45,1,1,0,0,1-.35.33,1.06,1.06,0,0,1-.46.13,1,1,0,0,1-.47-.09l-2.06-1.23a1.58,1.58,0,0,1-.69-.64,1.62,1.62,0,0,1-.24-.91v-.82a1.16,1.16,0,0,1,.12-.45,1,1,0,0,1,.32-.34,1,1,0,0,1,.45-.13A.87.87,0,0,1,787.07,901.53Z"/><path class="cls-35" d="M786.66,901.84l2.16,1.24a1.7,1.7,0,0,1,.7.63,1.74,1.74,0,0,1,.23.91v.83a.89.89,0,0,1-.12.45.92.92,0,0,1-.32.33,1,1,0,0,1-.45.14.9.9,0,0,1-.45-.1L786.25,905a1.58,1.58,0,0,1-.69-.64,1.62,1.62,0,0,1-.24-.91v-.82a.89.89,0,0,1,.12-.45,1,1,0,0,1,.32-.34.9.9,0,0,1,.45-.13A.89.89,0,0,1,786.66,901.84Z"/><path class="cls-15" d="M834.25,923.27H832.4a3.69,3.69,0,0,0-1.65,1.85c-.21.82-1,1.65-1.34,2.68a4.85,4.85,0,0,0,0,3.81s2.06,1.65,2.47,1.44l2.57-1.23A12.74,12.74,0,0,0,834.25,923.27Z"/><path class="cls-36" d="M830.85,836.74a20.51,20.51,0,0,0,11.84-.51c.62,1.13,1.14,2,1.34,2.47a258.6,258.6,0,0,1-70.14,40.59L770.08,872C783.78,863.52,801.49,853.33,830.85,836.74Z"/><path class="cls-5" d="M743.71,877a5.47,5.47,0,0,0,4.12,5.46,10,10,0,0,0,2.57,0c4.54,0,10.31,0,11-.72s5.26,0,5.26,0a3.18,3.18,0,0,0,.83-1.06,3.14,3.14,0,0,0,.3-1.31,3.18,3.18,0,0,0-1.13-2.37l-.93-.72h-2.68a5.91,5.91,0,0,0,0-1,8.87,8.87,0,0,0-10.3-4.33C742.37,873.83,743.71,877,743.71,877Z"/><path class="cls-5" d="M719.71,864.56l7.41,4.32c0-1.34,0-2.16-1.23-3.09a39.87,39.87,0,0,0-4.43-2.57C719.61,862.19,719.71,864.56,719.71,864.56Z"/><path class="cls-5" d="M686.23,844.47l7.42,4.33c0-1.45,0-2.27-1.24-3.09a44.77,44.77,0,0,0-4.32-2.58C686.13,842.1,686.23,844.47,686.23,844.47Z"/><polygon class="cls-3" points="361.07 1391.33 180.3 1265.87 180.3 696.42 361.07 821.89 361.07 1391.33"/><polygon class="cls-4" points="451.32 1341.01 361.07 1391.33 361.07 820.91 451.32 770.6 451.32 1341.01"/><polygon class="cls-3" points="261.78 632.03 451.32 770.6 361.07 820.91 177.52 697.56 261.78 632.03"/><path class="cls-5" d="M394.45,678.49a9.67,9.67,0,0,1,.93-11.53c4-5.87,7.1-3.92,7.1-3.92A6.61,6.61,0,0,1,404,671.8c-1.86,3.5-3.71,8.34-5,8.34s-2,4.33-2,4.33l-3.81-3.92Z"/><path class="cls-6" d="M336.66,774.08l25.86-14.32-31.21-13.08Z"/><path class="cls-6" d="M200.18,695.8,226,681.48,194.83,668.4Z"/><path class="cls-37" d="M342.74,762.34l4.63,7.42,11,18.12,5.46,9,7.31-4.23a8,8,0,0,0,3.4-4.94v-1.24a2.9,2.9,0,0,0,0-.93v-1.85a31.5,31.5,0,0,0-14.63-24.41l-1.34-.72a10.31,10.31,0,0,0-8.86,0Z"/><path class="cls-5" d="M339.24,771.82A31.49,31.49,0,0,0,354,796.33c8,4.43,14.42.72,14.32-8.24a31.53,31.53,0,0,0-14.74-24.52C345.21,759.15,339.24,762.85,339.24,771.82Z"/><path class="cls-8" d="M343.15,774.18a13.33,13.33,0,0,0,0,2.68,24.35,24.35,0,0,0,3.19,7.83,22.46,22.46,0,0,0,3.4,4.12,13.92,13.92,0,0,0,3.51,2.68,9.06,9.06,0,0,0,2.88,1.13,4.51,4.51,0,0,0,6.08-1.85v-4.84a10.34,10.34,0,0,0,0-1.76,15,15,0,0,0,0-1.64,22.65,22.65,0,0,0-2.27-5.56l-.51-.83a31.47,31.47,0,0,0-2.68-3.5V772a17.36,17.36,0,0,0-2.68-2.16l-1-.62-1-.52h-2.47a8,8,0,0,0-1.55,0,3.63,3.63,0,0,0-1.44.62,5.68,5.68,0,0,0-1.92,1.73,5.61,5.61,0,0,0-1,2.39Z"/><path class="cls-6" d="M350.78,770.48a10,10,0,0,0,0,2.57,23,23,0,0,0,3.19,7.83,22.31,22.31,0,0,0,3.4,4.22,20.69,20.69,0,0,0,3.5,2.68l2.16.93v-5.26a11.22,11.22,0,0,0,0-1.64,20.76,20.76,0,0,0-2.26-5.57l-.52-.82a31.37,31.37,0,0,0-2.78-3.6v-.62a21,21,0,0,0-3.71-2.78l-1-.52H351.6v.62A15.3,15.3,0,0,0,350.78,770.48Z"/><path class="cls-38" d="M346.86,767.39a7.13,7.13,0,0,0-1.75,2.68,7.22,7.22,0,0,0-.41,3.19,22.54,22.54,0,0,0,10.3,17.4,7.93,7.93,0,0,0,3.13,1.2,8.11,8.11,0,0,0,3.36-.17,6.91,6.91,0,0,1-8,0,22.21,22.21,0,0,1-10.3-17.3,6.61,6.61,0,0,1,.69-4.12A6.48,6.48,0,0,1,346.86,767.39Z"/><path class="cls-8" d="M345.94,775l6.38,3.71-2.88,9.47c0,.52,1.85,0,1.85,0l4.43-4.74,3.19,7.93c1,0,0,1.86,1.24,1.65a4.48,4.48,0,0,0,2-1.34l-2.27-8.75,3.5,2a10.34,10.34,0,0,0,0-1.76,15.19,15.19,0,0,0-.92-3.29l-3-2.27,1-2.06a31.47,31.47,0,0,0-2.68-3.5l-1.44,1.75-2.47-5-1-.52h-3.3l2.57,6.28-6.8-2.67s-1.74.82-1.74,1.75S345.83,774.08,345.94,775Z"/><path class="cls-10" d="M343.26,776.14l6.59,4.33-2.37,5.35a6.06,6.06,0,0,0,2.06,2.48l3.61-3.51,3.8,8a3.74,3.74,0,0,0,3.2,0l-2.47-7.52,5.87,3a7.85,7.85,0,0,0,0-2.27,10.23,10.23,0,0,0,0-1.75l-6.49-4.22,2.88-5a10.15,10.15,0,0,0-2.37-2.88l-3.81,3.6-4-8.34a3.87,3.87,0,0,0-2.88,0l2.47,7.82-6.07-2.78a8.53,8.53,0,0,0,0,1.75A12.82,12.82,0,0,0,343.26,776.14Z"/><path class="cls-11" d="M351.19,778.72a4.9,4.9,0,0,0,.69,2.16,5.05,5.05,0,0,0,1.57,1.65c1.24.61,2.27,0,2.27-1.34A5,5,0,0,0,355,779a5,5,0,0,0-1.58-1.64C352.22,776.76,351.19,777.27,351.19,778.72Z"/><path class="cls-39" d="M206.26,684l4.53,7.42,11.13,18.13,5.46,9,7.21-4.22a8,8,0,0,0,3.29-5,2.18,2.18,0,0,0,0-.72v-1.44a5.78,5.78,0,0,0,0-1.44,30.87,30.87,0,0,0-14.73-24.41l-1.23-.73a10.31,10.31,0,0,0-8.86,0Z"/><path class="cls-5" d="M202.45,693a31.49,31.49,0,0,0,14.73,24.51c7.93,4.43,14.32.72,14.21-8.24a31.74,31.74,0,0,0-14.62-24.51C208.73,679.94,202.35,684.06,202.45,693Z"/><path class="cls-6" d="M214.29,691.68a11,11,0,0,0,0,2.57,19.78,19.78,0,0,0,3.2,7.83,19.5,19.5,0,0,0,3.4,4.23,17.52,17.52,0,0,0,3.5,2.67,10.59,10.59,0,0,0,2.16.93,2.9,2.9,0,0,1,0-.93v-2.06a8.55,8.55,0,0,0,0-2.26,11.36,11.36,0,0,0,0-1.65,25.5,25.5,0,0,0-2.37-5.56,2.89,2.89,0,0,0,0-.83,29.27,29.27,0,0,0-2.78-3.6l-.62-.62a16,16,0,0,0-3.7-2.78l-.93-.52H215v.62A19.18,19.18,0,0,0,214.29,691.68Z"/><path class="cls-40" d="M210.28,688.59a7.1,7.1,0,0,0-1.71,2.7,7,7,0,0,0-.35,3.17,22.4,22.4,0,0,0,10.3,17.41,8.07,8.07,0,0,0,3.13,1.19,8.28,8.28,0,0,0,3.36-.16,7,7,0,0,1-8,0,22.25,22.25,0,0,1-10.3-17.31,6.4,6.4,0,0,1,3.61-7Z"/><path class="cls-8" d="M209.45,696.21l6.39,3.71-3,9.47,2-.51,4.43-4.74,3.19,7.93c1,0,0,1.86,1.24,1.65a4.49,4.49,0,0,0,1.85-1.34l-1.85-7.93,3.5,2a10.23,10.23,0,0,0,0-1.75,13.87,13.87,0,0,0-.82-3.3l-3.09-2.26,1-2.06a23.63,23.63,0,0,0-2.79-3.51l-1.33,1.75-2.58-5-.93-.52h-3.09l2.58,6.28-6.9-2.67s-1.65.82-1.65,1.75S209.25,695.28,209.45,696.21Z"/><path class="cls-10" d="M206.78,697.34l6.59,4.33L210.9,707A8,8,0,0,0,213,709.5l3.7-3.5,3.82,8a3.8,3.8,0,0,0,1.59.35,3.84,3.84,0,0,0,1.6-.35l-2.58-7.52,5.87,3a7.2,7.2,0,0,0,0-2.27,11.43,11.43,0,0,0,0-1.85l-6.48-4.12,2.78-5a10.26,10.26,0,0,0-2.27-2.88l-3.81,3.6-4.12-8.34a3.9,3.9,0,0,0-2.89,0l2.48,7.83-6-2.79a5.2,5.2,0,0,0,0,1.76A6.39,6.39,0,0,0,206.78,697.34Z"/><path class="cls-11" d="M214.71,699.92a5.12,5.12,0,0,0,.69,2.17,5,5,0,0,0,1.57,1.64,1.43,1.43,0,0,0,2.27-1.34,5.6,5.6,0,0,0-.77-2.16,5.48,5.48,0,0,0-1.6-1.65C215.63,698,214.71,698.47,214.71,699.92Z"/><path class="cls-14" d="M193.49,664.69v7.83l8.65,12.57c.52-.62.93-1.24,1.44-1.76a9.37,9.37,0,0,1,7-2.78,15.61,15.61,0,0,1,7.52,2.17,32.09,32.09,0,0,1,11.43,11.74A30.93,30.93,0,0,1,234,709.19a17.09,17.09,0,0,1-.72,5.36l103.62,59.53v-2.26a13.62,13.62,0,0,1,3.3-9.69,9.51,9.51,0,0,1,2.37-1.75,10.34,10.34,0,0,1,4.63-1.13,15.73,15.73,0,0,1,7.52,2.27A33.46,33.46,0,0,1,367,774.6a31.81,31.81,0,0,1,3.71,13.49A19.11,19.11,0,0,1,370,793l2.88,1.55,9.68-2.27,6.18-8.86-3.29-2.05,4-15.77-61.81-41.2A181.8,181.8,0,0,0,305,684.16c-12-11.44-59.33-32.65-59.33-32.65l-26.16,9.68-20-8.76-3.92,4.64Z"/><path class="cls-15" d="M195.55,657.48l192.1,108.88L327.7,725.05,219.45,661.6l-20-8.75Z"/><path class="cls-14" d="M233.76,709.19a16.8,16.8,0,0,1-.72,5.36l103.62,59.53v-2.26a13.62,13.62,0,0,1,3.3-9.69,9.51,9.51,0,0,1,2.37-1.75L229,694.46A30.79,30.79,0,0,1,233.76,709.19Z"/><path class="cls-16" d="M317,758.94l.52-19.16,2.36-13.18-.92-.21-2.47,13.18-.42,17.72-44.08-24-1.75-19.16,3.09-16.79-.11-.1-17.3-30.08-.41.31-16.79,10v.21l-3.81,16.79,3.81,21.22.92-.1-3.7-21.12,3.7-16.38,15.87-9.47,16.68,28.94-3,16.48v.1L271.05,734l.2.11Z"/><path class="cls-17" d="M336.66,768.21v4.43L233,713.21a17,17,0,0,0,.72-4.13Z"/><path class="cls-18" d="M336.56,767.39a14.19,14.19,0,0,1,2.58-8.76l3.09,1.75a9.51,9.51,0,0,0-2.37,1.75,12.55,12.55,0,0,0-3.2,7.52C336.66,768.93,336.56,768.11,336.56,767.39Z"/><path class="cls-5" d="M336.66,769.65v4.43L233,714.55a15.38,15.38,0,0,0,.72-4Z"/><path class="cls-5" d="M189.78,671.38v6l2.06,6.18,5,5.15,2.26,6.39,1.14.72a11.75,11.75,0,0,1,0-2.78,14.71,14.71,0,0,1,1.85-7.93c.52-.62.93-1.24,1.44-1.76a10.37,10.37,0,0,1,3.3-2.16l-9.79-5.66L195,674.27Z"/><path class="cls-5" d="M227.58,666.44l3.2,8,7.31,4.12.82.51.83.52L242,681l1.75,1.14,1.24.62,1.54.92,1.24.72,25.75,15.45,3.3,2.07,34.71,20.8,1.55.93,8.75,5.25,1-5.56-14.22-26-1.54-2.88L302.47,686l-52-28.53-.52-.41-1.75-.93Z"/><path class="cls-19" d="M249.11,658.31l-17,10.71.62,4.84,88.07,52.63.52-2.88-20-36.57Z"/><path class="cls-5" d="M239.12,678.7l1.13,1.24.83.41.82.51L253.23,660l-.51-1.23-.62-.41-1.24.61Z"/><path class="cls-5" d="M271.46,698.07l3.3,1.95,5.66-24.82-3.29-1.65Z"/><path class="cls-5" d="M306.69,694.25V719l1.65.93.3-22.56-1.54-2.88Z"/><path class="cls-17" d="M334.09,755.64v6.08L234,698.68l1.44-.72Z"/><path class="cls-5" d="M332.75,756.47v6.08L234,704.76v-6.08Z"/><path class="cls-6" d="M452.54,742.46l1.55-13.7-65.51,36.67L385.69,780S429.16,769.34,452.54,742.46Z"/><path class="cls-6" d="M386.21,777.69v-2.27a229.58,229.58,0,0,0,65.3-36.88c.52,0,.62-2.37.62-2.37v2.07s0,2-.62,2.37A226.84,226.84,0,0,1,386.21,777.69Z"/><path class="cls-6" d="M386.21,774.49v-2.26a229.58,229.58,0,0,0,65.3-36.88c.52,0,.62-2.37.62-2.37V735s0,2-.62,2.37A226.38,226.38,0,0,1,386.21,774.49Z"/><path class="cls-6" d="M386.21,771.3V769a229.55,229.55,0,0,0,65.3-36.87c.52,0,.62-2.47.62-2.47v2.06s0,2.06-.62,2.47A229.53,229.53,0,0,1,386.21,771.3Z"/><path class="cls-17" d="M386.21,778.3v-2.36a225.65,225.65,0,0,0,65.3-36.78c.52,0,.62-2.47.62-2.47v2.06s0,2.06-.62,2.47A229.29,229.29,0,0,1,386.21,778.3Z"/><path class="cls-17" d="M386.21,775.11v-2.37A228.16,228.16,0,0,0,451.51,736c.52,0,.62-2.47.62-2.47v2.06s0,2.06-.62,2.47A229.53,229.53,0,0,1,386.21,775.11Z"/><path class="cls-17" d="M386.21,771.92v-2.37a226.55,226.55,0,0,0,65.3-36.88c.52,0,.62-2.37.62-2.37v2.07s0,2.06-.62,2.36A228.14,228.14,0,0,1,386.21,771.92Z"/><path class="cls-17" d="M386.62,766.36a229.81,229.81,0,0,0,65-36.57l.61,1.34v.51a227.72,227.72,0,0,1-65.71,37.08Z"/><path class="cls-20" d="M449.25,760.38l-66.44,37.7-.52-5.67,66.34-37.8Z"/><path class="cls-5" d="M370.14,788.09a18.29,18.29,0,0,1-.62,4.94l3,1.65,10.3,3.4-.52-5.67h2.06c2.06,0,4,1.34,5.87,0l1.34-.61,61.8-35a6.47,6.47,0,0,0,1.76-1.45,6.7,6.7,0,0,0,1.13-3l.51-8.35-1.64.83L390.74,781l-1.75.93-21.84-8.55v.93A31.6,31.6,0,0,1,370.14,788.09Z"/><path class="cls-6" d="M390.74,781v12.26l1.34-.62A203.38,203.38,0,0,0,420.4,780a179.13,179.13,0,0,0,16.08-9.37,172,172,0,0,0,17.19-13,8.13,8.13,0,0,0,1.76-1.55v-10.3Z"/><path class="cls-21" d="M387.75,767.69,399.8,762a1.45,1.45,0,0,1,.68-.1,1.49,1.49,0,0,1,.63.25,1.37,1.37,0,0,1,.43.52,1.4,1.4,0,0,1,.12.67v4.43a4,4,0,0,1-.72,2,4.08,4.08,0,0,1-1.65,1.37L389,775.83Z"/><path class="cls-21" d="M442.24,738.75l9.27-7.21-.72,10.3-9,7a1.15,1.15,0,0,1-.62.26,1.16,1.16,0,0,1-.66-.14,1.11,1.11,0,0,1-.47-.49,1.1,1.1,0,0,1-.1-.67v-5a4.74,4.74,0,0,1,.62-2.3A4.83,4.83,0,0,1,442.24,738.75Z"/><path class="cls-15" d="M450.38,732.06c0-.83,3.19-2.79,3.19-2.79a12.31,12.31,0,0,1-1,10.3l-2.16,2.07A46.48,46.48,0,0,0,450.38,732.06Z"/><path class="cls-22" d="M424.11,752a5.93,5.93,0,0,1-.85,2.59,6.06,6.06,0,0,1-1.93,1.94,1.62,1.62,0,0,1-2.57-1.55,5.81,5.81,0,0,1,.8-2.58,5.91,5.91,0,0,1,1.87-2,1.7,1.7,0,0,1,.92-.37,1.6,1.6,0,0,1,1,.21,1.69,1.69,0,0,1,.67.73A1.66,1.66,0,0,1,424.11,752Z"/><path class="cls-23" d="M424.84,752.65a5.7,5.7,0,0,1-2.68,4.44,1.7,1.7,0,0,1-.92.37,1.55,1.55,0,0,1-1-.22,1.61,1.61,0,0,1-.67-.72,1.66,1.66,0,0,1-.13-1,5.77,5.77,0,0,1,2.78-4.43C423.7,750.29,424.84,750.91,424.84,752.65Z"/><path class="cls-17" d="M368.49,772.64l-1.85.93L386,782.42a5.67,5.67,0,0,0,2.42.55,5.6,5.6,0,0,0,2.42-.55s48.62-19.36,64.79-36.77c.83-.93,1.24-2.06,0-2.78l-3.4-3s0,2.06-.61,2.48a228.32,228.32,0,0,1-66,37.08Z"/><path class="cls-17" d="M401,780.77v2.17a1.85,1.85,0,0,1-.28,1,1.82,1.82,0,0,1-.75.68l-7.21,2.78a1,1,0,0,1-.49,0,1.08,1.08,0,0,1-.45-.2,1.15,1.15,0,0,1-.31-.38,1.14,1.14,0,0,1-.09-.48l6.08-2.37a1.67,1.67,0,0,0,1-1.65v-1.13l1.13-.52a1.12,1.12,0,0,1,.69-.2A1.09,1.09,0,0,1,401,780.77Z"/><path class="cls-24" d="M398.57,780.26v1.14a1.67,1.67,0,0,1-1,1.64l-6.08,2.37v-1.24a1.81,1.81,0,0,1,.31-1,1.73,1.73,0,0,1,.82-.64Z"/><path class="cls-17" d="M453.67,749.46v1.24a1.93,1.93,0,0,1-.12.89,2,2,0,0,1-.49.76l-4.33,3.6s-.82,0-.82-.62l3.6-3.08a2,2,0,0,0,.55-.75,1.86,1.86,0,0,0,.17-.9v-.72l.62-.62S453.67,749,453.67,749.46Z"/><path class="cls-24" d="M452.54,749.46v.72a2,2,0,0,1-.17.91,1.92,1.92,0,0,1-.55.74l-3.6,3.09v-.82a1.92,1.92,0,0,1,.17-.91,2,2,0,0,1,.55-.74Z"/><path class="cls-25" d="M419.79,773.67v5.77a177.51,177.51,0,0,0,16.06-9.38,1.1,1.1,0,0,0,0-.51v-5.36c0-1-.82-1.44-1.74-.82l-12.78,7.42a3.68,3.68,0,0,0-1.09,1.26A3.82,3.82,0,0,0,419.79,773.67Z"/><path class="cls-10" d="M434.31,771.3a3.56,3.56,0,0,0,1.25-1.22,3.5,3.5,0,0,0,.5-1.66v-5.26c0-1-.72-1.44-1.75-.93l-12.77,7.53a3.79,3.79,0,0,0-1.75,2.88v5.25c0,1,.82,1.45,1.75.93Z"/><path class="cls-26" d="M421.64,778.41,434.41,771a3,3,0,0,0,1.44-2.37v-5.25c0-.93-.61-1.24-1.44-.72l-12.77,7.41a3.43,3.43,0,0,0-.93,1,3.28,3.28,0,0,0-.41,1.33v5.26C420.2,778.61,420.82,778.92,421.64,778.41Z"/><path class="cls-27" d="M420.2,772.64a3.15,3.15,0,0,1,.39-1.34,3.23,3.23,0,0,1,1-1l12.77-7.42c.83-.51,1.44,0,1.44.62Z"/><path class="cls-27" d="M435.75,768.62a2.8,2.8,0,0,1-.4,1.38,2.75,2.75,0,0,1-1,1l-12.77,7.42a.79.79,0,0,1-1.34-.62Z"/><path class="cls-15" d="M267.14,613.5l-68,39.35,20,8.75,72.1-41.72-15.56-6.79a9.5,9.5,0,0,0-8.54.41Z"/><path class="cls-28" d="M387.75,767.69l11.33-5.35v3.6a4,4,0,0,1-2.37,3.4l-7.41,3.4Z"/><path class="cls-28" d="M440,742.36a4.84,4.84,0,0,1,1.85-3.61l6.28-5v4.54a4.42,4.42,0,0,1-.52,1.84,4.55,4.55,0,0,1-1.23,1.46l-6.38,5Z"/><path class="cls-5" d="M291.55,619.88c-24.62,8.66-72.1,41.72-72.1,41.72l26.16-9.68,69.32-41.2S298,618.14,291.55,619.88Z"/><path class="cls-29" d="M245.81,650.89c31.63-21.12,56.66-34.51,56.66-34.51l-10.31,3.92a374.57,374.57,0,0,0-63.65,36.56A95.12,95.12,0,0,0,245.81,650.89Z"/><path class="cls-14" d="M452.54,729.69a329.5,329.5,0,0,1-64.79,36.67L327.7,725.15l72.1-41.71,54,45.52Z"/><path class="cls-5" d="M391.67,692.5s-2.47,7.83-20.61,18a60.24,60.24,0,0,1-27.6,9.78l-16.07,4.74,71.39-41.92Z"/><path class="cls-5" d="M373.64,644.6a242,242,0,0,1-68.7,40S317.09,704,327.6,724.85a259.67,259.67,0,0,0,72.1-41.72S388,665.21,373.64,644.6Z"/><path class="cls-30" d="M306.69,685.09c3.19,4.22,12.56,20.6,21.53,38.31a258.72,258.72,0,0,0,70.14-40.58c-1.65-3.6-12.87-18.85-24.93-36.67l-2.37,2.06a201.7,201.7,0,0,1-17,12.16A325.5,325.5,0,0,1,306.69,685.09Z"/><path class="cls-14" d="M440.08,736.17,391.67,692.5s7.11-8.24,9.37-6.69a343.11,343.11,0,0,1,47.9,41.2Z"/><path class="cls-15" d="M440.08,736.17l-47.49-44.9,7.21-8.14A457.52,457.52,0,0,1,454,728.76Z"/><path class="cls-15" d="M389.3,765.74l-61.6-40.69,16-4.74,61.08,36.78Z"/><path class="cls-31" d="M353.87,723.3,355,724a2.91,2.91,0,0,0,1.23.28,3,3,0,0,0,1.24-.28l11.33-5c1.34-.62,1.44-1.75,0-2.26l-1-.52a3.4,3.4,0,0,0-2.27,0l-11.22,4.95C353.24,721.76,352.94,722.68,353.87,723.3Z"/><path class="cls-14" d="M358.91,723.82l-.93.3L353,721.34l.72-.41Z"/><path class="cls-14" d="M361.28,723l-.93.21-4.84-2.78.72-.42Z"/><path class="cls-14" d="M363.75,722.06l-.93.21-4.94-2.78.72-.31Z"/><path class="cls-14" d="M366.12,721.14l-.93.31-4.84-2.79.73-.41Z"/><path class="cls-14" d="M368.39,720.11l-.93.31-4.94-2.79.82-.41Z"/><path class="cls-14" d="M370.24,719l-.82.21-4.95-2.78.72-.41Z"/><path class="cls-31" d="M395.79,698.58l-1.14-.72a1.78,1.78,0,0,0-1-.31,1.83,1.83,0,0,0-1,.31l-8.85,7a1.56,1.56,0,0,0-.57.57,1.52,1.52,0,0,0,0,1.54,1.56,1.56,0,0,0,.57.57l1,.51a2.18,2.18,0,0,0,2,0l8.66-6.69C396.61,700.54,396.72,699.2,395.79,698.58Z"/><path class="cls-14" d="M391.36,698.37l.72-.41,4.74,2.88-.52.52Z"/><path class="cls-14" d="M389.51,699.61l.71-.31,4.64,2.78-.51.62Z"/><path class="cls-14" d="M387.55,701l.72-.41,4.74,2.88-.52.52Z"/><path class="cls-14" d="M385.69,702.18l.72-.3,4.64,2.78-.51.62Z"/><path class="cls-14" d="M383.94,703.63l.72-.42,4.64,2.89-.52.51Z"/><path class="cls-14" d="M382.5,705.17l.72-.41,4.74,2.89-.62.61Z"/><path class="cls-32" d="M375.19,654.39l17.09,25.44-.51,3L378.69,675Z"/><path class="cls-32" d="M354.07,660.37l23,13.69-3.81-22.55-2.17-3.3A201.7,201.7,0,0,1,354.07,660.37Z"/><path class="cls-15" d="M314.93,611.13c2.78-1,58.71,33.47,58.71,33.47a237.82,237.82,0,0,1-68.7,40l-59.33-32.65A483.86,483.86,0,0,1,314.93,611.13Z"/><path class="cls-17" d="M189.78,671.38l3.61-4.22.2,3L209,679.73l-2.37,1.44Z"/><path class="cls-33" d="M195.55,657.48l.82.52a4.63,4.63,0,0,1,1,1.44,3.86,3.86,0,0,1,0,1.85v6.18a2.19,2.19,0,0,1,0,1.34h-1.23l-1.55-1c-.62,0,0,0-.82-.72V664.9Z"/><path class="cls-6" d="M332.75,756.47v6.08l1.34-.83v-6.08Z"/><path class="cls-17" d="M366.64,774.6a48,48,0,0,0-13.91-13.91,11.1,11.1,0,0,0-12.87,1.44,11.84,11.84,0,0,0-3.3,8v3.91l-.62-7.72a11.83,11.83,0,0,1,1.49-4.63,11.71,11.71,0,0,1,3.24-3.62,11.46,11.46,0,0,1,4.42-2,11.71,11.71,0,0,1,4.86-.05c13,1.86,20.6,17.72,20.6,17.72Z"/><path class="cls-5" d="M341.2,757.29a13.08,13.08,0,0,1,6.9-.62c13,1.75,20.08,18.44,20.08,18.44H367a50.79,50.79,0,0,0-14.22-14.62,12,12,0,0,0-11.53,0c-1.55,0-3.82,4.32-4.53,13.08l-2.27-1.34C335.22,764,337.38,759.87,341.2,757.29Z"/><path class="cls-17" d="M206.26,681.38a20.57,20.57,0,0,1,13.29,2.37,30.87,30.87,0,0,1,12.15,19l2.06,7.83.83-.93s-.83-6.59-1.55-9.27a26.52,26.52,0,0,0-11.64-17.72A15.11,15.11,0,0,0,209,679.73Z"/><path class="cls-5" d="M233,714.55l-1.23-.83a39.14,39.14,0,0,0-.93-12.67,27.89,27.89,0,0,0-12.26-16.17,14.61,14.61,0,0,0-12.36-2,11.21,11.21,0,0,0-5.77,6c-.62,2.47-1.75-1-1.75-1l4.33-6.7h3.19a20.68,20.68,0,0,1,9.58,0,29.69,29.69,0,0,1,16,19.37,37.37,37.37,0,0,1,1.95,9.47l1.65,3.61Z"/><path class="cls-34" d="M341.4,745.65l2.17,1.24a2.05,2.05,0,0,1,.65.66,2,2,0,0,1,.27.88v.83a1.06,1.06,0,0,1-.16.45,1.08,1.08,0,0,1-.81.46,1,1,0,0,1-.47-.09L341,748.85a1.73,1.73,0,0,1-.7-.64,1.69,1.69,0,0,1-.23-.91v-.82a.87.87,0,0,1,.12-.45,1,1,0,0,1,.32-.34.9.9,0,0,1,.45-.13A.89.89,0,0,1,341.4,745.65Z"/><path class="cls-35" d="M341,746l2.16,1.24a1.62,1.62,0,0,1,.93,1.54v.83a.92.92,0,0,1-.12.45,1,1,0,0,1-.32.33,1,1,0,0,1-.45.14,1,1,0,0,1-.45-.1l-2.16-1.24a1.56,1.56,0,0,1-.69-.63,1.64,1.64,0,0,1-.24-.91v-.83a.92.92,0,0,1,.12-.45,1,1,0,0,1,.32-.33,1,1,0,0,1,.45-.14A1,1,0,0,1,341,746Z"/><path class="cls-15" d="M388.58,767.39h-1.86a3.72,3.72,0,0,0-1.64,1.85c-.21.82-1,1.65-1.34,2.68a4.85,4.85,0,0,0,0,3.81s2.06,1.65,2.47,1.44l2.57-1.24A12.71,12.71,0,0,0,388.58,767.39Z"/><path class="cls-36" d="M385.18,680.86a20.51,20.51,0,0,0,11.84-.51c.62,1.13,1.13,1.95,1.34,2.47a258.72,258.72,0,0,1-70.14,40.58l-3.81-7.31C338.1,707.64,355.82,697.45,385.18,680.86Z"/><path class="cls-5" d="M298,721.14a5.5,5.5,0,0,0,1.11,3.45,5.43,5.43,0,0,0,3,2,9.22,9.22,0,0,0,2.57,0c4.53,0,10.3,0,11-.71s5.26,0,5.26,0a3.18,3.18,0,0,0,.83-1.06,3.1,3.1,0,0,0-.83-3.68l-.93-.72H317.4a5.9,5.9,0,0,0,0-1,8.84,8.84,0,0,0-10.3-4.33C296.7,718,298,721.14,298,721.14Z"/><path class="cls-5" d="M274,708.68l7.41,4.32c0-1.34,0-2.16-1.23-3.09a38.36,38.36,0,0,0-4.43-2.57C273.93,706.31,274,708.68,274,708.68Z"/><path class="cls-5" d="M240.56,688.59l7.42,4.32c0-1.44,0-2.26-1.24-3.08a44,44,0,0,0-4.32-2.58C240.46,686.22,240.56,688.59,240.56,688.59Z"/><g class="cls-41"><g class="cls-42"><path class="cls-43" d="M2558.52,1838,307.94,541.45,2672.22-824.77,4922.8,471.81Z"/><path class="cls-23" d="M3694,81.18,695.36,317.56l1303.69,754.23L3694,92.91Z"/><path class="cls-15" d="M2390.33-673l-1695,978.87,1303.69,754.23L3694,81.18Z"/><path class="cls-44" d="M1829.73-351.23,695.36,305.82l1303.69,754.23L3133.42,403Z"/><path class="cls-45" d="M2523.44-911.69l720.28,415.75L1793.6,339.69,1073.32-76.07Z"/></g></g><rect class="cls-46" x="1" y="1830" width="1078" height="90"/></g><g id="Ramar"><path d="M0,1.06v1920H1080V1.06ZM1109.2,1959.8H-29.2V-36.32H1109.2Z"/><path d="M0,1.06v1920H1080V1.06ZM1109.2,1959.8H-29.2V-36.32H1109.2Z"/></g></svg>