<svg xmlns="http://www.w3.org/2000/svg" xmlns:xlink="http://www.w3.org/1999/xlink" viewBox="0 0 1080 1920"><defs><style>.cls-1{fill:none;}.cls-2{fill:#fff;}.cls-18,.cls-2,.cls-3,.cls-4{stroke:#06395b;}.cls-3{fill:#06395b;}.cls-4{fill:#00aeef;}.cls-5{clip-path:url(#clip-path);}.cls-6{clip-path:url(#clip-path-2);}.cls-7{fill:#6e7071;}.cls-8{fill:#c4c4c4;}.cls-9{fill:#79b53b;}.cls-10{fill:#c9c9c9;}.cls-11{fill:#efefef;}.cls-12{fill:#b5ac96;}.cls-13{fill:#d1d1d1;}.cls-14{fill:#c6beb7;}.cls-15{fill:#417c23;}.cls-16{fill:#084985;}.cls-17{fill:#f5f5f5;}</style><clipPath id="clip-path"><polygon class="cls-1" points="2431.38 143.51 1351.38 778.71 1351.38 1.23 2431.38 0 2431.38 143.51"/></clipPath><clipPath id="clip-path-2"><rect class="cls-1" x="1351.38" y="-5.52" width="1114.15" height="1120.09"/></clipPath></defs><title>ledtec-notext</title><g id="Lager_1" data-name="Lager 1"><rect class="cls-2" width="1080" height="1920"/><rect class="cls-3" x="-0.59" y="1.23" width="1080.59" height="1918.77"/><path class="cls-4" d="M270.77,971.73s43.85-236.81,281.79-125.39c0,0,116.68-87.65,234,21.94,0,0,78.19,55.47,40.6,195.31,0,0,85.1,78.19,10.22,200,0,0-49.31,90.22-180.13,64.66,0,0-43.61,117.28-215,81.19,0,0-112.78-39.92-117.29-151.53,0,0-114.27-4.84-138.33-126.64S270.77,971.73,270.77,971.73Z"/><g class="cls-5"><g class="cls-6"><path class="cls-7" d="M1403.38,1838-847.21,541.45,1517.08-824.77,3767.66,471.81Z"/><path class="cls-8" d="M2538.87,81.18-459.78,317.56,843.9,1071.79l1695-978.88Z"/><path class="cls-9" d="M1235.18-673l-1695,978.87L843.9,1060.05l1695-978.87Z"/><path class="cls-10" d="M674.59-351.23-459.78,305.82,843.9,1060.05,1978.28,403Z"/><path class="cls-11" d="M1368.29-911.69l720.29,415.75L638.46,339.69-81.83-76.07Z"/><path class="cls-12" d="M-37.48-76.07,1368.29-886.13l676,390.19L638.46,314.12Z"/><path class="cls-13" d="M2044.24-495.94,638.46,314.12,613.9,300,1954.55-473.14,1344.49-825.61l23.8-60.52Z"/><path class="cls-13" d="M1474.16-150.17l-117.1,10.65L1449.85-215,967-165.17,492.27,94.42,654.8,179.67,949,152.93l.5-.33,16.18-1.43,120-69.82,30.84-25.07Z"/><path class="cls-14" d="M1490.09-360.56,1185-200.46,1131.5,185.2,714.4,722.59,1332,664.16l52.3-107,159.77-225.48,231.85-55.49Z"/><path class="cls-15" d="M1352.79,235.58,1056.73,64.67V38.51l296.06,170.92Z"/><path class="cls-16" d="M1922-119.16,1352.7,209.43l-107-61.7-189-109.13,44.17-25.48,221.29,127.74,507.71-293,17.52-10.14Z"/><path class="cls-17" d="M1014.73,1035l148.45,87.17,5-2.84L1023,1036.08l96.23-55.57L1264.36,1064l4.94-2.93-145.1-83.49L1220,922.25l32.19,18.61,2.68,1.59,36.38,21,2.6,1.5,36.38,21,2.68,1.51L1365,1006l4.52-2.6.5-.25-.5-.34-4.52-2.59-31.86-18.36-2.6-1.51-36.37-21-2.69-1.51-36.38-20.95-2.59-1.6L1225,919.4l-5-2.93Z"/></g></g><rect class="cls-2" x="1" y="1830" width="1078" height="90"/></g><g id="Ramar"><path class="cls-18" d="M0,1.06v1920H1080V1.06ZM1109.2,1959.8H-29.2V-36.32H1109.2Z"/><path class="cls-18" d="M0,1.06v1920H1080V1.06ZM1109.2,1959.8H-29.2V-36.32H1109.2Z"/></g></svg>