<svg xmlns="http://www.w3.org/2000/svg" viewBox="0 0 236.04 53.86"><defs><style>.cls-1{fill:#fff;}.cls-2{fill:#0d3658;}.cls-3{fill:#0070a1;}.cls-4{fill:#73b5dc;}.cls-5{fill:#a3d3f0;}.cls-6{fill:#dff2fd;}.cls-7{fill:#003d6d;}.cls-8{fill:#0075ab;}.cls-9{fill:#41a9d8;}.cls-10{fill:#5bc5f2;}.cls-11{fill:#cbe9fb;}.cls-12{fill:#005e95;}.cls-13{fill:#2f98c8;}.cls-14{fill:#92d5f6;}.cls-15{fill:#d4edfc;}.cls-16{fill:#003867;}.cls-17{fill:#008ccd;}.cls-18{fill:#49b2e1;}.cls-19{fill:#86c9ed;}.cls-20{fill:#004c7f;}.cls-21{fill:#0092d4;}.cls-22{fill:#afdff9;}</style></defs><g id="Layer_2" data-name="Layer 2"><g id="Ebene_1" data-name="Ebene 1"><rect class="cls-1" x="136.29" width="99.75" height="53.77"/><rect class="cls-2" x="216.38" y="1.23" width="18.37" height="9.19"/><rect class="cls-3" x="196.69" y="1.23" width="18.37" height="9.19"/><rect class="cls-4" x="177.01" y="1.23" width="18.37" height="9.19"/><rect class="cls-5" x="157.32" y="1.23" width="18.37" height="9.19"/><rect class="cls-6" x="137.64" y="1.23" width="18.37" height="9.19"/><rect class="cls-7" x="216.38" y="22.23" width="18.37" height="9.19"/><rect class="cls-8" x="196.69" y="22.23" width="18.37" height="9.19"/><rect class="cls-9" x="177.01" y="22.23" width="18.37" height="9.19"/><rect class="cls-10" x="157.32" y="22.23" width="18.37" height="9.19"/><rect class="cls-11" x="137.64" y="22.23" width="18.37" height="9.19"/><rect class="cls-2" x="216.38" y="43.23" width="18.37" height="9.19"/><rect class="cls-12" x="196.69" y="43.23" width="18.37" height="9.19"/><rect class="cls-13" x="177.01" y="43.23" width="18.37" height="9.19"/><rect class="cls-14" x="157.32" y="43.23" width="18.37" height="9.19"/><rect class="cls-15" x="137.64" y="43.23" width="18.37" height="9.19"/><rect class="cls-16" x="216.38" y="11.73" width="18.37" height="9.19"/><rect class="cls-17" x="196.69" y="11.73" width="18.37" height="9.19"/><rect class="cls-18" x="177.01" y="11.73" width="18.37" height="9.19"/><rect class="cls-19" x="157.32" y="11.73" width="18.37" height="9.19"/><rect class="cls-15" x="137.64" y="11.73" width="18.37" height="9.19"/><rect class="cls-2" x="216.38" y="32.73" width="18.37" height="9.19"/><rect class="cls-20" x="196.69" y="32.73" width="18.37" height="9.19"/><rect class="cls-21" x="177.01" y="32.73" width="18.37" height="9.19"/><rect class="cls-19" x="157.32" y="32.73" width="18.37" height="9.19"/><rect class="cls-22" x="137.64" y="32.73" width="18.37" height="9.19"/><path class="cls-1" d="M128.51,34.3a10.56,10.56,0,0,0-7.72-2.86,10.86,10.86,0,0,0-11.12,11.21,10.8,10.8,0,0,0,11.12,11.21,15.43,15.43,0,0,0,8-2.08V42.17H121.6v1.89h5v6.48a11,11,0,0,1-5.76,1.39c-5.48,0-8.86-4.31-8.86-9.28s3.38-9.31,8.86-9.31A8.14,8.14,0,0,1,127,35.81ZM90.07,32H87.36V53.32h2.17V35h.06L102,53.32h2.72V32h-2.17V50.15h-.07ZM81,32H78.83V53.32H81ZM60.69,32H58.52V53.32h2.17V42h0L71.39,53.32h3.19L63.22,41.65,74,32h-3.1L60.72,41.56h0ZM41.26,33.85h3.85c3.23,0,5.37,1,5.37,3.83,0,2.53-2,3.79-5.46,3.79H41.26Zm0,9.49h3.61l5.91,10h2.65L47.19,43.16c3.11-.33,5.46-2.32,5.46-5.48,0-4.16-3.08-5.7-7.3-5.7H39.09V53.32h2.17Zm-16.36-9,4.7,11.33H20.19ZM19.38,47.71h11l2.35,5.61h2.41L26,32H23.9L14.68,53.32h2.38ZM3.28,33.85H7c3.29,0,5.22,1.2,5.22,3.83S10.33,41.56,7,41.56H3.28ZM1.11,53.32H3.28V43.4H7.07c4.34,0,7.27-1.9,7.27-5.72S11.47,32,7.13,32h-6Z"/><path class="cls-1" d="M113,16.22l2.72-7.34,2.66,7.34Zm-.23-14.95-10.5,25.05h7l1.8-4.81h9.11l1.9,4.81h7.17l-10.4-25ZM82.65,13.69c0-4.24,2.76-7.2,6.71-7.2s6.76,3,6.76,7.2C96.12,18,93.34,21,89.36,21s-6.71-3-6.71-7.34m-6.88,0C75.77,21.51,81.36,27,89.36,27S103,21.51,103,13.69,97.52.62,89.36.62,75.77,5.87,75.77,13.69m-24,.07C51.76,21.42,57.42,27,65.22,27a12.54,12.54,0,0,0,9.72-4.14l.17-.2-4.54-4.26-.18.25a6,6,0,0,1-5,2.38c-3.93,0-6.68-3-6.68-7.24s2.86-7.24,6.79-7.24a5.83,5.83,0,0,1,4.72,2.14l.19.26L74.86,4.5l-.17-.19C72.75,2.07,69.07.62,65.32.62c-8,0-13.56,5.4-13.56,13.14m-12.93-7c3,0,4.41,1,4.41,2.93s-1.62,3.12-4.53,3.12H35.48v-6Zm.41-5.47H29V26.32h6.46V18.18h3.61c6.79,0,10.69-3.11,10.69-8.55S46.14,1.27,39.24,1.27m-28.51,15,2.72-7.34,2.66,7.34ZM0,26.32H7l1.79-4.81h9.11l1.9,4.81H27l-10.4-25H10.5Z"/></g></g></svg>