<?xml version="1.0" encoding="utf-8"?>
<!-- Generator: Adobe Illustrator 24.0.0, SVG Export Plug-In . SVG Version: 6.00 Build 0)  -->
<svg version="1.1" xmlns="http://www.w3.org/2000/svg" xmlns:xlink="http://www.w3.org/1999/xlink" x="0px" y="0px"
	 viewBox="0 0 536 1212.2" style="enable-background:new 0 0 536 1212.2;" xml:space="preserve">
<style type="text/css">
	.st0{fill:#FFFFFF;}
	.st1{fill:#00AEEF;}
	.st2{fill:#91651F;}
	.st3{fill:#AA7723;}
	.st4{fill:#855107;}
	.st5{fill:#567601;}
	.st6{fill:#638800;}
	.st7{fill:#769C11;}
	.st8{fill:#06395B;}
	.st9{fill:#414C5C;}
	.st10{fill:#293237;}
	.st11{fill:url(#SVGID_1_);}
	.st12{fill:#A1A1A1;}
	.st13{fill:url(#SVGID_2_);}
	.st14{fill:#D3D3D3;}
	.st15{fill:#B6B6B6;}
	.st16{fill:url(#SVGID_3_);}
	.st17{fill:url(#SVGID_4_);}
	.st18{fill:#73A538;}
	.st19{fill:#79B53B;}
	.st20{fill:#577729;}
	.st21{fill:#546672;}
	.st22{fill:#409E4E;}
	.st23{fill:#529BA3;}
	.st24{fill:#141E25;}
	.st25{fill:#9CB7D2;}
	.st26{fill:#768A99;}
	.st27{fill:#C4C4C4;}
	.st28{fill:#BED5DF;}
	.st29{fill:#12181D;}
	.st30{fill:#EFEC82;}
	.st31{fill:#D3A944;}
	.st32{fill:#E8F0F3;}
	.st33{fill:#88D5DE;}
	.st34{fill:#3D7D87;}
	.st35{fill:#3E2F37;}
	.st36{fill:#95C9B1;}
	.st37{fill:#E08A35;}
	.st38{fill:#E06E18;}
	.st39{fill:#E0AB35;}
	.st40{fill:#5B949C;}
	.st41{fill:none;stroke:#FFFFFF;stroke-width:1.4862;stroke-miterlimit:10;}
	.st42{fill:none;stroke:#FFFFFF;stroke-width:1.4862;stroke-miterlimit:10;stroke-dasharray:6.0118,6.0118;}
	.st43{fill:#00AEEF;stroke:#00AEEF;}
	.st44{clip-path:url(#SVGID_6_);}
	.st45{fill:#91651F;stroke:#00AEEF;}
	.st46{fill:#AA7723;stroke:#00AEEF;}
	.st47{fill:#855107;stroke:#00AEEF;}
	.st48{fill:#567601;stroke:#00AEEF;}
	.st49{fill:#638800;stroke:#00AEEF;}
	.st50{fill:#769C11;stroke:#00AEEF;}
	.st51{fill:#1595BC;}
	.st52{fill:url(#SVGID_7_);}
	.st53{fill:url(#SVGID_8_);}
	.st54{fill:url(#SVGID_9_);}
	.st55{fill:url(#SVGID_10_);}
	.st56{fill:url(#SVGID_11_);}
	.st57{fill:url(#SVGID_12_);}
	.st58{fill:url(#SVGID_13_);}
	.st59{fill:url(#SVGID_14_);}
	.st60{fill:#FFFFFF;stroke:#06395B;}
	.st61{fill:#06395B;stroke:#06395B;}
	.st62{fill:#00AEEF;stroke:#06395B;}
	.st63{fill:url(#SVGID_15_);}
	.st64{fill:url(#SVGID_16_);}
	.st65{fill:url(#SVGID_17_);}
	.st66{fill:url(#SVGID_18_);}
	.st67{fill:none;stroke:#FFFFFF;stroke-width:3;stroke-miterlimit:10;}
	.st68{fill:none;stroke:#FFFFFF;stroke-width:3;stroke-miterlimit:10;stroke-dasharray:12.135,12.135;}
	.st69{fill:url(#SVGID_19_);}
	.st70{fill:url(#SVGID_20_);}
	.st71{fill:url(#SVGID_21_);}
	.st72{fill:url(#SVGID_22_);}
	.st73{fill:url(#SVGID_23_);}
	.st74{fill:url(#SVGID_24_);}
	.st75{fill:url(#SVGID_25_);}
	.st76{fill:url(#SVGID_26_);}
	.st77{fill:url(#SVGID_27_);}
	.st78{fill:url(#SVGID_28_);}
	.st79{fill:url(#SVGID_29_);}
	.st80{fill:url(#SVGID_30_);}
	.st81{clip-path:url(#SVGID_32_);}
	.st82{clip-path:url(#SVGID_34_);}
	.st83{fill:#6E7071;}
	.st84{fill:#C9C9C9;}
	.st85{fill:#DBCC65;}
	.st86{fill:#EFEFEF;}
	.st87{fill:#B5AC96;}
	.st88{fill:#D1D1D1;}
	.st89{fill:#686868;}
	.st90{fill:url(#SVGID_35_);}
	.st91{fill:url(#SVGID_36_);}
	.st92{fill:#9C9C9C;}
	.st93{fill:#3D3D3D;}
	.st94{fill:url(#SVGID_37_);}
	.st95{fill:url(#SVGID_38_);}
	.st96{fill:url(#SVGID_39_);}
	.st97{fill:url(#SVGID_40_);}
	.st98{fill:url(#SVGID_41_);}
	.st99{fill:url(#SVGID_42_);}
	.st100{fill:#BABABA;}
	.st101{fill:url(#SVGID_43_);}
	.st102{fill:url(#SVGID_44_);}
	.st103{fill:#CECCCA;}
	.st104{fill:#96EB4B;}
	.st105{fill:#5AB42C;}
	.st106{fill:#ADA9A5;}
	.st107{fill:#C6BEB7;}
	.st108{fill:#E1D7AD;}
	.st109{fill:#E8D558;}
	.st110{fill:#CAC7D0;}
	.st111{fill:#AD964C;}
	.st112{fill:url(#SVGID_45_);}
	.st113{fill:url(#SVGID_46_);}
	.st114{fill:url(#SVGID_47_);}
	.st115{fill:url(#SVGID_48_);}
	.st116{fill:url(#SVGID_49_);}
	.st117{fill:url(#SVGID_50_);}
	.st118{fill:url(#SVGID_51_);}
	.st119{fill:url(#SVGID_52_);}
	.st120{fill:url(#SVGID_53_);}
	.st121{fill:url(#SVGID_54_);}
	.st122{fill:url(#SVGID_55_);}
	.st123{fill:url(#SVGID_56_);}
	.st124{fill:url(#SVGID_57_);}
	.st125{fill:url(#SVGID_58_);}
	.st126{fill:url(#SVGID_59_);}
	.st127{fill:url(#SVGID_60_);}
	.st128{fill:url(#SVGID_61_);}
	.st129{fill:#4F4743;}
	.st130{fill:#877A75;}
	.st131{fill:#322F36;}
	.st132{fill:#417C23;}
	.st133{fill:#053056;}
	.st134{fill:#084985;}
	.st135{fill:#0C5EAA;}
	.st136{fill:#C6CCDA;}
	.st137{fill:#ABA06F;}
	.st138{fill:#E8C589;}
	.st139{fill:#F5F5F5;}
	.st140{fill:url(#SVGID_62_);}
	.st141{fill:#FDCB54;}
	.st142{fill:#FFDA5B;}
	.st143{fill:#BB772D;}
	.st144{fill:#AD7434;}
	.st145{fill:#D8AD45;}
	.st146{fill:url(#SVGID_63_);}
	.st147{fill:url(#SVGID_64_);}
	.st148{fill:url(#SVGID_65_);}
	.st149{fill:url(#SVGID_66_);}
	.st150{fill:url(#SVGID_67_);}
	.st151{fill:#8BB3BA;}
	.st152{fill:#DFECF2;}
	.st153{fill:#87B9A2;}
	.st154{fill:#658975;}
	.st155{fill:#F5FAFF;}
	.st156{fill:url(#SVGID_68_);}
	.st157{fill:url(#SVGID_69_);}
	.st158{fill:url(#SVGID_70_);}
	.st159{fill:url(#SVGID_71_);}
	.st160{fill:url(#SVGID_72_);}
	.st161{fill:#918B86;}
	.st162{fill:#CACACA;}
	.st163{fill:#8B8B8B;}
	.st164{fill:#FF816F;}
	.st165{fill:url(#SVGID_73_);}
	.st166{fill:url(#SVGID_74_);}
	.st167{fill:#F0F0F0;}
	.st168{fill:url(#SVGID_75_);}
	.st169{fill:#B6BDCC;}
	.st170{fill:#C4A9AD;}
	.st171{fill:#B7A176;}
	.st172{fill:#C8BCA8;}
	.st173{fill:url(#SVGID_76_);}
	.st174{fill:url(#SVGID_77_);}
	.st175{fill:url(#SVGID_78_);}
	.st176{fill:url(#SVGID_79_);}
	.st177{fill:url(#SVGID_80_);}
	.st178{fill:url(#SVGID_81_);}
	.st179{fill:url(#SVGID_82_);}
	.st180{fill:url(#SVGID_83_);}
	.st181{fill:url(#SVGID_84_);}
	.st182{fill:url(#SVGID_85_);}
	.st183{fill:url(#SVGID_86_);}
	.st184{fill:url(#SVGID_87_);}
	.st185{fill:url(#SVGID_88_);}
	.st186{fill:#9F9E9E;}
	.st187{fill:#858482;}
	.st188{fill:#C0C0C0;}
	.st189{fill:#C8D4D4;}
	.st190{fill:#A2B3AF;}
	.st191{fill:#E1F0F0;}
	.st192{fill:#BDCCCC;}
	.st193{fill:#3A8ABF;}
	.st194{fill:#F4FAFC;}
	.st195{fill:url(#SVGID_89_);}
	.st196{fill:url(#SVGID_90_);}
	.st197{fill:url(#SVGID_91_);}
	.st198{fill:url(#SVGID_92_);}
	.st199{fill:url(#SVGID_93_);}
	.st200{fill:#BA9008;}
	.st201{fill:#F2D035;}
	.st202{fill:#B97005;}
	.st203{fill:#895005;}
	.st204{fill:#FFE642;}
	.st205{fill:#BB8131;}
	.st206{fill:url(#SVGID_94_);}
	.st207{fill:url(#SVGID_95_);}
	.st208{fill:url(#SVGID_96_);}
	.st209{fill:url(#SVGID_97_);}
	.st210{fill:url(#SVGID_98_);}
	.st211{fill:url(#SVGID_99_);}
	.st212{fill:url(#SVGID_100_);}
	.st213{fill:url(#SVGID_101_);}
	.st214{fill:url(#SVGID_102_);}
	.st215{fill:url(#SVGID_103_);}
	.st216{fill:#B5BBB8;}
	.st217{fill:url(#SVGID_104_);}
	.st218{fill:url(#SVGID_105_);}
	.st219{fill:url(#SVGID_106_);}
	.st220{fill:url(#SVGID_107_);}
	.st221{fill:url(#SVGID_108_);}
	.st222{fill:url(#SVGID_109_);}
	.st223{fill:url(#SVGID_110_);}
	.st224{fill:url(#SVGID_111_);}
	.st225{fill:url(#SVGID_112_);}
	.st226{fill:url(#SVGID_113_);}
	.st227{fill:#6EDAE0;}
	.st228{fill:#1184B4;}
	.st229{fill:#0D6990;}
	.st230{fill:#0D6991;}
	.st231{fill:#AD4848;}
	.st232{fill:#590404;}
	.st233{fill:#E03835;}
	.st234{fill:#E0C5A0;}
	.st235{fill:url(#SVGID_114_);}
	.st236{fill:url(#SVGID_115_);}
	.st237{fill:url(#SVGID_116_);}
	.st238{fill:url(#SVGID_117_);}
	.st239{fill:url(#SVGID_118_);}
	.st240{fill:#CF4242;}
	.st241{fill:#E35959;}
	.st242{fill:#B11414;}
	.st243{fill:#E45656;}
	.st244{fill:#266B76;}
	.st245{fill:url(#SVGID_119_);}
	.st246{fill:#4A4A4A;}
	.st247{fill:#595959;}
	.st248{fill:#6C6C6C;}
	.st249{fill:#7D7D7D;}
	.st250{fill:url(#SVGID_120_);}
	.st251{fill:url(#SVGID_121_);}
	.st252{fill:#919191;}
	.st253{fill:url(#SVGID_122_);}
	.st254{fill:url(#SVGID_123_);}
	.st255{fill:url(#SVGID_124_);}
	.st256{fill:url(#SVGID_125_);}
	.st257{fill:#6A6A6A;}
	.st258{fill:url(#SVGID_126_);}
	.st259{fill:url(#SVGID_127_);}
	.st260{fill:url(#SVGID_128_);}
	.st261{fill:url(#SVGID_129_);}
	.st262{fill:url(#SVGID_130_);}
	.st263{fill:url(#SVGID_131_);}
	.st264{fill:url(#SVGID_132_);}
	.st265{fill-rule:evenodd;clip-rule:evenodd;fill:url(#SVGID_133_);}
	.st266{fill:url(#SVGID_134_);}
	.st267{fill:url(#SVGID_135_);}
	.st268{fill:url(#SVGID_136_);}
	.st269{fill:url(#SVGID_137_);}
	.st270{fill:url(#SVGID_138_);}
	.st271{fill:url(#SVGID_139_);}
	.st272{fill-rule:evenodd;clip-rule:evenodd;fill:url(#SVGID_140_);}
	.st273{fill:url(#SVGID_141_);}
	.st274{fill:url(#SVGID_142_);}
	.st275{fill:url(#SVGID_143_);}
	.st276{fill:url(#SVGID_144_);}
	.st277{fill:url(#SVGID_145_);}
	.st278{fill:url(#SVGID_146_);}
	.st279{fill:url(#SVGID_147_);}
	.st280{fill-rule:evenodd;clip-rule:evenodd;fill:url(#SVGID_148_);}
	.st281{opacity:0.9;fill:#191919;enable-background:new    ;}
	.st282{fill:url(#SVGID_149_);}
	.st283{fill:url(#SVGID_150_);}
	.st284{fill:url(#SVGID_151_);}
	.st285{fill:url(#SVGID_152_);}
	.st286{fill:#363636;}
	.st287{fill:#242424;}
	.st288{fill:#191919;}
	.st289{fill:#171717;}
	.st290{fill-rule:evenodd;clip-rule:evenodd;fill:url(#SVGID_153_);}
	.st291{fill:url(#SVGID_154_);}
	.st292{fill:url(#SVGID_155_);}
	.st293{fill:url(#SVGID_156_);}
	.st294{fill:url(#SVGID_157_);}
	.st295{fill:url(#SVGID_158_);}
	.st296{fill:url(#SVGID_159_);}
	.st297{fill:#A2A2A2;}
	.st298{fill:url(#SVGID_160_);}
	.st299{fill:url(#SVGID_161_);}
	.st300{fill:url(#SVGID_162_);}
	.st301{fill:url(#SVGID_163_);}
	.st302{fill:url(#SVGID_164_);}
	.st303{fill:url(#SVGID_165_);}
	.st304{fill:url(#SVGID_166_);}
	.st305{fill:url(#SVGID_167_);}
	.st306{fill:#DBDBDB;}
	.st307{fill:url(#SVGID_168_);}
	.st308{fill:url(#SVGID_169_);}
	.st309{fill:url(#SVGID_170_);}
	.st310{fill:#818181;}
	.st311{fill:#808080;}
	.st312{fill:#8C8C8C;}
	.st313{fill:#A7A7A7;}
	.st314{fill:url(#SVGID_171_);}
	.st315{fill:url(#SVGID_172_);}
	.st316{fill:url(#SVGID_173_);}
	.st317{fill:url(#SVGID_174_);}
	.st318{fill:url(#SVGID_175_);}
	.st319{fill:url(#SVGID_176_);}
	.st320{fill:url(#SVGID_177_);}
	.st321{fill:url(#SVGID_178_);}
	.st322{fill:url(#SVGID_179_);}
	.st323{fill:url(#SVGID_180_);}
	.st324{fill:url(#SVGID_181_);}
	.st325{fill:url(#SVGID_182_);}
	.st326{fill:url(#SVGID_183_);}
	.st327{fill:url(#SVGID_184_);}
	.st328{fill:url(#SVGID_185_);}
	.st329{fill:#B3B3B3;}
	.st330{fill:url(#SVGID_186_);}
	.st331{fill:#BFBFBF;}
	.st332{fill:url(#SVGID_187_);}
	.st333{fill:#929292;}
	.st334{fill:#C2C2C2;}
	.st335{fill:url(#SVGID_188_);}
	.st336{fill:url(#SVGID_189_);}
	.st337{fill:url(#SVGID_190_);}
	.st338{fill:url(#SVGID_191_);}
	.st339{fill:url(#SVGID_192_);}
	.st340{fill:url(#SVGID_193_);}
	.st341{fill:url(#SVGID_194_);}
	.st342{fill:url(#SVGID_195_);}
	.st343{fill:url(#SVGID_196_);}
	.st344{fill:url(#SVGID_197_);}
	.st345{fill:url(#SVGID_198_);}
	.st346{fill:url(#SVGID_199_);}
	.st347{fill:url(#SVGID_200_);}
	.st348{fill:url(#SVGID_201_);}
	.st349{fill:url(#SVGID_202_);}
	.st350{fill:url(#SVGID_203_);}
	.st351{fill:url(#SVGID_204_);}
	.st352{fill:url(#SVGID_205_);}
	.st353{fill:url(#SVGID_206_);}
	.st354{fill:url(#SVGID_207_);}
	.st355{fill:url(#SVGID_208_);}
	.st356{fill:url(#SVGID_209_);}
	.st357{fill:url(#SVGID_210_);}
	.st358{fill:url(#SVGID_211_);}
	.st359{fill:url(#SVGID_212_);}
	.st360{fill:url(#SVGID_213_);}
	.st361{fill:url(#SVGID_214_);}
	.st362{fill:url(#SVGID_215_);}
	.st363{fill:#B0B0B0;}
	.st364{fill:#A4A4A4;}
	.st365{fill:url(#SVGID_216_);}
	.st366{fill:url(#SVGID_217_);}
	.st367{fill:#B5B5B5;}
	.st368{fill:url(#SVGID_218_);}
	.st369{fill:url(#SVGID_219_);}
	.st370{fill:url(#SVGID_220_);}
	.st371{fill:url(#SVGID_221_);}
	.st372{fill:url(#SVGID_222_);}
	.st373{fill:url(#SVGID_223_);}
	.st374{fill:url(#SVGID_224_);}
	.st375{fill:url(#SVGID_225_);}
	.st376{fill:url(#SVGID_226_);}
	.st377{fill:url(#SVGID_227_);}
	.st378{fill:url(#SVGID_228_);}
	.st379{fill:url(#SVGID_229_);}
	.st380{fill:url(#SVGID_230_);}
	.st381{fill:url(#SVGID_231_);}
	.st382{fill:url(#SVGID_232_);}
	.st383{fill:url(#SVGID_233_);}
	.st384{fill:url(#SVGID_234_);}
	.st385{fill:url(#SVGID_235_);}
	.st386{fill:url(#SVGID_236_);}
	.st387{fill:url(#SVGID_237_);}
	.st388{fill:url(#SVGID_238_);}
	.st389{fill:url(#SVGID_239_);}
	.st390{fill:url(#SVGID_240_);}
	.st391{fill:url(#SVGID_241_);}
	.st392{fill:url(#SVGID_242_);}
	.st393{fill:url(#SVGID_243_);}
	.st394{fill:url(#SVGID_244_);}
	.st395{fill:url(#SVGID_245_);}
	.st396{fill:url(#SVGID_246_);}
	.st397{fill:url(#SVGID_247_);}
	.st398{fill:url(#SVGID_248_);}
	.st399{fill:url(#SVGID_249_);}
	.st400{fill:url(#SVGID_250_);}
	.st401{fill:url(#SVGID_251_);}
	.st402{fill:url(#SVGID_252_);}
	.st403{fill:url(#SVGID_253_);}
	.st404{fill-rule:evenodd;clip-rule:evenodd;fill:#E7E7E7;}
	.st405{fill-rule:evenodd;clip-rule:evenodd;fill:url(#SVGID_254_);}
	.st406{opacity:0.35;}
	.st407{fill:url(#SVGID_255_);}
	.st408{fill:url(#SVGID_256_);}
	.st409{fill:url(#SVGID_257_);}
	.st410{fill:url(#SVGID_258_);}
	.st411{fill:url(#SVGID_259_);}
	.st412{fill:url(#SVGID_260_);}
	.st413{fill:url(#SVGID_261_);}
	.st414{fill:url(#SVGID_262_);}
	.st415{fill:url(#SVGID_263_);}
	.st416{fill:url(#SVGID_264_);}
	.st417{fill:url(#SVGID_265_);}
	.st418{fill:url(#SVGID_266_);}
	.st419{fill:url(#SVGID_267_);}
	.st420{fill:url(#SVGID_268_);}
	.st421{opacity:0.5;fill:#191919;enable-background:new    ;}
	.st422{fill:url(#SVGID_269_);}
	.st423{fill:#050603;}
	.st424{fill-rule:evenodd;clip-rule:evenodd;}
	.st425{fill:url(#SVGID_270_);}
	.st426{fill:url(#SVGID_271_);}
	.st427{fill:url(#SVGID_272_);}
	.st428{fill-rule:evenodd;clip-rule:evenodd;fill:#B3B3B3;}
	.st429{fill:url(#SVGID_273_);}
	.st430{opacity:0.75;fill:#191919;enable-background:new    ;}
	.st431{fill-rule:evenodd;clip-rule:evenodd;fill:url(#SVGID_274_);}
	.st432{fill:#690202;}
	.st433{fill:#CCCCCC;}
	.st434{fill:url(#SVGID_275_);}
	.st435{fill:url(#SVGID_276_);}
	.st436{fill:#DEDEDE;}
	.st437{fill:url(#SVGID_277_);}
	.st438{fill:url(#SVGID_278_);}
	.st439{opacity:0.23;}
	.st440{fill:url(#SVGID_279_);}
	.st441{fill:url(#SVGID_280_);}
	.st442{fill:url(#SVGID_281_);}
	.st443{fill:url(#SVGID_282_);}
	.st444{fill:url(#SVGID_283_);}
	.st445{fill:url(#SVGID_284_);}
	.st446{fill:url(#SVGID_285_);}
	.st447{fill:url(#SVGID_286_);}
	.st448{opacity:0.64;}
	.st449{fill:url(#SVGID_287_);}
	.st450{fill:url(#SVGID_288_);}
	.st451{fill:#040404;}
	.st452{fill:url(#SVGID_289_);}
	.st453{fill:url(#SVGID_290_);}
	.st454{fill:url(#SVGID_291_);}
	.st455{fill:url(#SVGID_292_);}
	.st456{fill:url(#SVGID_293_);}
	.st457{fill:url(#SVGID_294_);}
	.st458{fill:url(#SVGID_295_);}
	.st459{fill:url(#SVGID_296_);}
	.st460{fill:url(#SVGID_297_);}
	.st461{opacity:0.25;fill:url(#SVGID_298_);enable-background:new    ;}
	.st462{opacity:0.25;fill:url(#SVGID_299_);enable-background:new    ;}
	.st463{opacity:0.25;fill:url(#SVGID_300_);enable-background:new    ;}
	.st464{opacity:0.25;fill:url(#SVGID_301_);enable-background:new    ;}
	.st465{fill:#E6E6E6;}
	.st466{fill:#430202;}
	.st467{fill:#370202;}
	.st468{opacity:0.25;fill:url(#SVGID_302_);enable-background:new    ;}
	.st469{opacity:0.25;fill:url(#SVGID_303_);enable-background:new    ;}
	.st470{fill:url(#SVGID_304_);}
	.st471{fill:url(#SVGID_305_);}
	.st472{fill:url(#SVGID_306_);}
	.st473{fill:url(#SVGID_307_);}
	.st474{fill:url(#SVGID_308_);}
	.st475{fill:url(#SVGID_309_);}
	.st476{fill:url(#SVGID_310_);}
	.st477{fill:url(#SVGID_311_);}
	.st478{fill:url(#SVGID_312_);}
	.st479{fill:url(#SVGID_313_);}
	.st480{fill:url(#SVGID_314_);}
	.st481{fill:url(#SVGID_315_);}
	.st482{fill:url(#SVGID_316_);}
	.st483{fill:url(#SVGID_317_);}
	.st484{fill:url(#SVGID_318_);}
	.st485{fill:url(#SVGID_319_);}
	.st486{fill:url(#SVGID_320_);}
	.st487{fill:url(#SVGID_321_);}
	.st488{fill:url(#SVGID_322_);}
	.st489{fill:url(#SVGID_323_);}
	.st490{clip-path:url(#SVGID_325_);}
	.st491{clip-path:url(#SVGID_327_);}
	.st492{fill:url(#SVGID_328_);}
	.st493{fill:url(#SVGID_329_);}
	.st494{fill:url(#SVGID_330_);}
	.st495{fill:url(#SVGID_331_);}
	.st496{fill:url(#SVGID_332_);}
	.st497{fill:url(#SVGID_333_);}
	.st498{fill:url(#SVGID_334_);}
	.st499{fill:url(#SVGID_335_);}
	.st500{fill:url(#SVGID_336_);}
	.st501{fill:url(#SVGID_337_);}
	.st502{fill:url(#SVGID_338_);}
	.st503{fill:url(#SVGID_339_);}
	.st504{fill:url(#SVGID_340_);}
	.st505{fill:url(#SVGID_341_);}
	.st506{fill:url(#SVGID_342_);}
	.st507{fill:url(#SVGID_343_);}
	.st508{fill:url(#SVGID_344_);}
	.st509{fill:url(#SVGID_345_);}
	.st510{fill:url(#SVGID_346_);}
	.st511{fill:url(#SVGID_347_);}
	.st512{fill:url(#SVGID_348_);}
	.st513{fill:url(#SVGID_349_);}
	.st514{fill:url(#SVGID_350_);}
	.st515{fill:url(#SVGID_351_);}
	.st516{fill:url(#SVGID_352_);}
	.st517{fill:url(#SVGID_353_);}
	.st518{fill:url(#SVGID_354_);}
	.st519{fill:url(#SVGID_355_);}
	.st520{fill:url(#SVGID_356_);}
	.st521{fill:url(#SVGID_357_);}
	.st522{fill:url(#SVGID_358_);}
	.st523{fill:url(#SVGID_359_);}
	.st524{fill:url(#SVGID_360_);}
	.st525{fill:url(#SVGID_361_);}
	.st526{fill:url(#SVGID_362_);}
	.st527{fill:url(#SVGID_363_);}
	.st528{fill:url(#SVGID_364_);}
	.st529{fill:url(#SVGID_365_);}
	.st530{fill:url(#SVGID_366_);}
	.st531{fill:url(#SVGID_367_);}
	.st532{fill:url(#SVGID_368_);}
	.st533{fill:url(#SVGID_369_);}
	.st534{fill:url(#SVGID_370_);}
	.st535{fill:url(#SVGID_371_);}
	.st536{fill:url(#SVGID_372_);}
	.st537{fill:url(#SVGID_373_);}
	.st538{fill:url(#SVGID_374_);}
	.st539{fill:url(#SVGID_375_);}
	.st540{fill:url(#SVGID_376_);}
	.st541{fill:url(#SVGID_377_);}
	.st542{fill:url(#SVGID_378_);}
	.st543{fill:url(#SVGID_379_);}
	.st544{fill:url(#SVGID_380_);}
	.st545{fill:url(#SVGID_381_);}
	.st546{fill:url(#SVGID_382_);}
	.st547{fill:url(#SVGID_383_);}
	.st548{fill:url(#SVGID_384_);}
	.st549{fill:url(#SVGID_385_);}
	.st550{fill:url(#SVGID_386_);}
	.st551{fill:url(#SVGID_387_);}
	.st552{fill:url(#SVGID_388_);}
	.st553{fill:url(#SVGID_389_);}
	.st554{fill:url(#SVGID_390_);}
	.st555{fill:url(#SVGID_391_);}
	.st556{fill:url(#SVGID_392_);}
	.st557{fill:url(#SVGID_393_);}
	.st558{fill:url(#SVGID_394_);}
	.st559{fill:url(#SVGID_395_);}
	.st560{fill:url(#SVGID_396_);}
	.st561{fill:url(#SVGID_397_);}
	.st562{fill:url(#SVGID_398_);}
	.st563{fill:url(#SVGID_399_);}
	.st564{fill:url(#SVGID_400_);}
	.st565{fill:url(#SVGID_401_);}
	.st566{fill:url(#SVGID_402_);}
	.st567{fill:url(#SVGID_403_);}
	.st568{fill:url(#SVGID_404_);}
	.st569{fill:url(#SVGID_405_);}
	.st570{fill:url(#SVGID_406_);}
	.st571{fill:url(#SVGID_407_);}
	.st572{fill:url(#SVGID_408_);}
	.st573{fill:url(#SVGID_409_);}
	.st574{fill:url(#SVGID_410_);}
	.st575{fill:url(#SVGID_411_);}
	.st576{fill:url(#SVGID_412_);}
	.st577{fill:url(#SVGID_413_);}
	.st578{fill:url(#SVGID_414_);}
	.st579{fill:url(#SVGID_415_);}
	.st580{fill:url(#SVGID_416_);}
	.st581{fill:url(#SVGID_417_);}
	.st582{fill:url(#SVGID_418_);}
	.st583{fill:url(#SVGID_419_);}
	.st584{fill:url(#SVGID_420_);}
	.st585{fill:url(#SVGID_421_);}
	.st586{fill:url(#SVGID_422_);}
	.st587{fill:url(#SVGID_423_);}
	.st588{fill:url(#SVGID_424_);}
	.st589{fill:url(#SVGID_425_);}
	.st590{fill-rule:evenodd;clip-rule:evenodd;fill:url(#SVGID_426_);}
	.st591{fill:url(#SVGID_427_);}
	.st592{fill:url(#SVGID_428_);}
	.st593{fill:url(#SVGID_429_);}
	.st594{fill:url(#SVGID_430_);}
	.st595{fill:url(#SVGID_431_);}
	.st596{fill:url(#SVGID_432_);}
	.st597{fill-rule:evenodd;clip-rule:evenodd;fill:url(#SVGID_433_);}
	.st598{fill:url(#SVGID_434_);}
	.st599{fill:url(#SVGID_435_);}
	.st600{fill:url(#SVGID_436_);}
	.st601{fill:url(#SVGID_437_);}
	.st602{fill:url(#SVGID_438_);}
	.st603{fill:url(#SVGID_439_);}
	.st604{fill:url(#SVGID_440_);}
	.st605{fill-rule:evenodd;clip-rule:evenodd;fill:url(#SVGID_441_);}
	.st606{fill:url(#SVGID_442_);}
	.st607{fill:url(#SVGID_443_);}
	.st608{fill:url(#SVGID_444_);}
	.st609{fill:url(#SVGID_445_);}
	.st610{fill-rule:evenodd;clip-rule:evenodd;fill:url(#SVGID_446_);}
	.st611{fill:url(#SVGID_447_);}
	.st612{fill:url(#SVGID_448_);}
	.st613{fill:url(#SVGID_449_);}
	.st614{fill:url(#SVGID_450_);}
	.st615{fill:url(#SVGID_451_);}
	.st616{fill:url(#SVGID_452_);}
	.st617{fill:url(#SVGID_453_);}
	.st618{fill:url(#SVGID_454_);}
	.st619{fill:url(#SVGID_455_);}
	.st620{fill:url(#SVGID_456_);}
	.st621{fill:url(#SVGID_457_);}
	.st622{fill:url(#SVGID_458_);}
	.st623{fill:url(#SVGID_459_);}
	.st624{fill:url(#SVGID_460_);}
	.st625{fill:url(#SVGID_461_);}
	.st626{fill:url(#SVGID_462_);}
	.st627{fill:url(#SVGID_463_);}
	.st628{fill:url(#SVGID_464_);}
	.st629{fill:url(#SVGID_465_);}
	.st630{fill:url(#SVGID_466_);}
	.st631{fill:url(#SVGID_467_);}
	.st632{fill:url(#SVGID_468_);}
	.st633{fill:url(#SVGID_469_);}
	.st634{fill:url(#SVGID_470_);}
	.st635{fill:url(#SVGID_471_);}
	.st636{fill:url(#SVGID_472_);}
	.st637{fill:url(#SVGID_473_);}
	.st638{fill:url(#SVGID_474_);}
	.st639{fill:url(#SVGID_475_);}
	.st640{fill:url(#SVGID_476_);}
	.st641{fill:url(#SVGID_477_);}
	.st642{fill:url(#SVGID_478_);}
	.st643{fill:url(#SVGID_479_);}
	.st644{fill:url(#SVGID_480_);}
	.st645{fill:url(#SVGID_481_);}
	.st646{fill:url(#SVGID_482_);}
	.st647{fill:url(#SVGID_483_);}
	.st648{fill:url(#SVGID_484_);}
	.st649{fill:url(#SVGID_485_);}
	.st650{fill:url(#SVGID_486_);}
	.st651{fill:url(#SVGID_487_);}
	.st652{fill:url(#SVGID_488_);}
	.st653{fill:url(#SVGID_489_);}
	.st654{fill:url(#SVGID_490_);}
	.st655{fill:url(#SVGID_491_);}
	.st656{fill:url(#SVGID_492_);}
	.st657{fill:url(#SVGID_493_);}
	.st658{fill:url(#SVGID_494_);}
	.st659{fill:url(#SVGID_495_);}
	.st660{fill:url(#SVGID_496_);}
	.st661{fill:url(#SVGID_497_);}
	.st662{fill:url(#SVGID_498_);}
	.st663{fill:url(#SVGID_499_);}
	.st664{fill:url(#SVGID_500_);}
	.st665{fill:url(#SVGID_501_);}
	.st666{fill:url(#SVGID_502_);}
	.st667{fill:url(#SVGID_503_);}
	.st668{fill:url(#SVGID_504_);}
	.st669{fill:url(#SVGID_505_);}
	.st670{fill:url(#SVGID_506_);}
	.st671{fill:url(#SVGID_507_);}
	.st672{fill:url(#SVGID_508_);}
	.st673{fill:url(#SVGID_509_);}
	.st674{fill:url(#SVGID_510_);}
	.st675{fill:url(#SVGID_511_);}
	.st676{fill:url(#SVGID_512_);}
	.st677{fill:url(#SVGID_513_);}
	.st678{fill:url(#SVGID_514_);}
	.st679{fill:url(#SVGID_515_);}
	.st680{fill:url(#SVGID_516_);}
	.st681{fill:url(#SVGID_517_);}
	.st682{fill:url(#SVGID_518_);}
	.st683{fill:url(#SVGID_519_);}
	.st684{fill:url(#SVGID_520_);}
	.st685{fill:url(#SVGID_521_);}
	.st686{fill:url(#SVGID_522_);}
	.st687{fill:url(#SVGID_523_);}
	.st688{fill:url(#SVGID_524_);}
	.st689{fill:url(#SVGID_525_);}
	.st690{fill:url(#SVGID_526_);}
	.st691{fill:url(#SVGID_527_);}
	.st692{fill:url(#SVGID_528_);}
	.st693{fill:url(#SVGID_529_);}
	.st694{fill:url(#SVGID_530_);}
	.st695{fill:url(#SVGID_531_);}
	.st696{fill:url(#SVGID_532_);}
	.st697{fill:url(#SVGID_533_);}
	.st698{fill:url(#SVGID_534_);}
	.st699{fill:url(#SVGID_535_);}
	.st700{fill:url(#SVGID_536_);}
	.st701{fill:url(#SVGID_537_);}
	.st702{fill:url(#SVGID_538_);}
	.st703{fill:url(#SVGID_539_);}
	.st704{fill:url(#SVGID_540_);}
	.st705{fill:url(#SVGID_541_);}
	.st706{fill:url(#SVGID_542_);}
	.st707{fill:url(#SVGID_543_);}
	.st708{fill:url(#SVGID_544_);}
	.st709{fill:url(#SVGID_545_);}
	.st710{fill:url(#SVGID_546_);}
	.st711{fill-rule:evenodd;clip-rule:evenodd;fill:url(#SVGID_547_);}
	.st712{fill:url(#SVGID_548_);}
	.st713{fill:url(#SVGID_549_);}
	.st714{fill:url(#SVGID_550_);}
	.st715{fill:url(#SVGID_551_);}
	.st716{fill:url(#SVGID_552_);}
	.st717{fill:url(#SVGID_553_);}
	.st718{fill:url(#SVGID_554_);}
	.st719{fill:url(#SVGID_555_);}
	.st720{fill:url(#SVGID_556_);}
	.st721{fill:url(#SVGID_557_);}
	.st722{fill:url(#SVGID_558_);}
	.st723{fill:url(#SVGID_559_);}
	.st724{fill:url(#SVGID_560_);}
	.st725{fill:url(#SVGID_561_);}
	.st726{fill:url(#SVGID_562_);}
	.st727{fill:url(#SVGID_563_);}
	.st728{fill:url(#SVGID_564_);}
	.st729{fill:url(#SVGID_565_);}
	.st730{fill:url(#SVGID_566_);}
	.st731{fill-rule:evenodd;clip-rule:evenodd;fill:url(#SVGID_567_);}
	.st732{fill:url(#SVGID_568_);}
	.st733{fill:url(#SVGID_569_);}
	.st734{fill:url(#SVGID_570_);}
	.st735{fill:url(#SVGID_571_);}
	.st736{fill:url(#SVGID_572_);}
	.st737{fill:url(#SVGID_573_);}
	.st738{fill:url(#SVGID_574_);}
	.st739{fill:url(#SVGID_575_);}
	.st740{fill:url(#SVGID_576_);}
	.st741{fill:url(#SVGID_577_);}
	.st742{fill:url(#SVGID_578_);}
	.st743{fill:url(#SVGID_579_);}
	.st744{fill:url(#SVGID_580_);}
	.st745{fill:url(#SVGID_581_);}
	.st746{fill:url(#SVGID_582_);}
	.st747{fill:url(#SVGID_583_);}
	.st748{fill:url(#SVGID_584_);}
	.st749{fill:url(#SVGID_585_);}
	.st750{fill:url(#SVGID_586_);}
	.st751{fill:url(#SVGID_587_);}
	.st752{fill:url(#SVGID_588_);}
	.st753{fill:url(#SVGID_589_);}
	.st754{fill:url(#SVGID_590_);}
	.st755{opacity:0.25;fill:url(#SVGID_591_);enable-background:new    ;}
	.st756{opacity:0.25;fill:url(#SVGID_592_);enable-background:new    ;}
	.st757{opacity:0.25;fill:url(#SVGID_593_);enable-background:new    ;}
	.st758{opacity:0.25;fill:url(#SVGID_594_);enable-background:new    ;}
	.st759{opacity:0.25;fill:url(#SVGID_595_);enable-background:new    ;}
	.st760{opacity:0.25;fill:url(#SVGID_596_);enable-background:new    ;}
	.st761{fill:url(#SVGID_597_);}
	.st762{fill:url(#SVGID_598_);}
	.st763{fill:url(#SVGID_599_);}
	.st764{fill:url(#SVGID_600_);}
	.st765{fill:url(#SVGID_601_);}
	.st766{fill:url(#SVGID_602_);}
	.st767{fill:url(#SVGID_603_);}
	.st768{fill:url(#SVGID_604_);}
	.st769{fill:url(#SVGID_605_);}
	.st770{fill:url(#SVGID_606_);}
	.st771{fill:url(#SVGID_607_);}
	.st772{fill:url(#SVGID_608_);}
	.st773{fill:url(#SVGID_609_);}
	.st774{fill:url(#SVGID_610_);}
	.st775{fill:url(#SVGID_611_);}
	.st776{fill:url(#SVGID_612_);}
	.st777{clip-path:url(#SVGID_614_);}
	.st778{clip-path:url(#SVGID_616_);}
	.st779{fill:url(#SVGID_617_);}
	.st780{fill:url(#SVGID_618_);}
	.st781{fill:url(#SVGID_619_);}
	.st782{fill:url(#SVGID_620_);}
	.st783{fill:url(#SVGID_621_);}
	.st784{fill:url(#SVGID_622_);}
	.st785{fill:url(#SVGID_623_);}
	.st786{fill:url(#SVGID_624_);}
	.st787{fill:url(#SVGID_625_);}
	.st788{fill:url(#SVGID_626_);}
	.st789{fill:url(#SVGID_627_);}
	.st790{fill:url(#SVGID_628_);}
	.st791{fill:url(#SVGID_629_);}
	.st792{fill:url(#SVGID_630_);}
	.st793{fill:url(#SVGID_631_);}
	.st794{fill:url(#SVGID_632_);}
	.st795{fill:url(#SVGID_633_);}
	.st796{fill:url(#SVGID_634_);}
	.st797{fill:url(#SVGID_635_);}
	.st798{fill:url(#SVGID_636_);}
	.st799{fill:url(#SVGID_637_);}
	.st800{fill:url(#SVGID_638_);}
	.st801{fill:url(#SVGID_639_);}
	.st802{fill:url(#SVGID_640_);}
	.st803{fill:url(#SVGID_641_);}
	.st804{fill:url(#SVGID_642_);}
	.st805{fill:url(#SVGID_643_);}
	.st806{fill:url(#SVGID_644_);}
	.st807{fill:url(#SVGID_645_);}
	.st808{fill:url(#SVGID_646_);}
	.st809{fill:url(#SVGID_647_);}
	.st810{fill:url(#SVGID_648_);}
	.st811{fill:url(#SVGID_649_);}
	.st812{fill:url(#SVGID_650_);}
	.st813{fill:url(#SVGID_651_);}
	.st814{fill:url(#SVGID_652_);}
	.st815{fill:url(#SVGID_653_);}
	.st816{fill:url(#SVGID_654_);}
	.st817{fill:url(#SVGID_655_);}
	.st818{fill:url(#SVGID_656_);}
	.st819{fill:url(#SVGID_657_);}
	.st820{fill:url(#SVGID_658_);}
	.st821{fill:url(#SVGID_659_);}
	.st822{fill:url(#SVGID_660_);}
	.st823{fill:url(#SVGID_661_);}
	.st824{fill:url(#SVGID_662_);}
	.st825{fill:url(#SVGID_663_);}
	.st826{fill:url(#SVGID_664_);}
	.st827{fill:url(#SVGID_665_);}
	.st828{fill:url(#SVGID_666_);}
	.st829{fill:url(#SVGID_667_);}
	.st830{fill:url(#SVGID_668_);}
	.st831{fill:url(#SVGID_669_);}
	.st832{fill:url(#SVGID_670_);}
	.st833{fill:url(#SVGID_671_);}
	.st834{fill:url(#SVGID_672_);}
	.st835{fill:url(#SVGID_673_);}
	.st836{fill:url(#SVGID_674_);}
	.st837{fill:url(#SVGID_675_);}
	.st838{fill:url(#SVGID_676_);}
	.st839{fill:url(#SVGID_677_);}
	.st840{fill:url(#SVGID_678_);}
	.st841{fill:url(#SVGID_679_);}
	.st842{fill:url(#SVGID_680_);}
	.st843{fill:url(#SVGID_681_);}
	.st844{fill:url(#SVGID_682_);}
	.st845{fill:url(#SVGID_683_);}
	.st846{fill:url(#SVGID_684_);}
	.st847{fill:url(#SVGID_685_);}
	.st848{fill:url(#SVGID_686_);}
	.st849{fill:url(#SVGID_687_);}
	.st850{fill:url(#SVGID_688_);}
	.st851{fill:url(#SVGID_689_);}
	.st852{fill:url(#SVGID_690_);}
	.st853{fill:url(#SVGID_691_);}
	.st854{fill:url(#SVGID_692_);}
	.st855{fill:url(#SVGID_693_);}
	.st856{fill:url(#SVGID_694_);}
	.st857{fill:url(#SVGID_695_);}
	.st858{fill:url(#SVGID_696_);}
	.st859{fill:url(#SVGID_697_);}
	.st860{fill:url(#SVGID_698_);}
	.st861{fill:url(#SVGID_699_);}
	.st862{fill:url(#SVGID_700_);}
	.st863{fill:url(#SVGID_701_);}
	.st864{fill:url(#SVGID_702_);}
	.st865{fill:url(#SVGID_703_);}
	.st866{fill:url(#SVGID_704_);}
	.st867{fill:url(#SVGID_705_);}
	.st868{fill:url(#SVGID_706_);}
	.st869{fill:url(#SVGID_707_);}
	.st870{fill:url(#SVGID_708_);}
	.st871{fill:url(#SVGID_709_);}
	.st872{fill:url(#SVGID_710_);}
	.st873{fill:url(#SVGID_711_);}
	.st874{fill:url(#SVGID_712_);}
	.st875{fill:url(#SVGID_713_);}
	.st876{fill:url(#SVGID_714_);}
	.st877{fill-rule:evenodd;clip-rule:evenodd;fill:url(#SVGID_715_);}
	.st878{fill:url(#SVGID_716_);}
	.st879{fill:url(#SVGID_717_);}
	.st880{fill:url(#SVGID_718_);}
	.st881{fill:url(#SVGID_719_);}
	.st882{fill:url(#SVGID_720_);}
	.st883{fill:url(#SVGID_721_);}
	.st884{fill-rule:evenodd;clip-rule:evenodd;fill:url(#SVGID_722_);}
	.st885{fill:url(#SVGID_723_);}
	.st886{fill:url(#SVGID_724_);}
	.st887{fill:url(#SVGID_725_);}
	.st888{fill:url(#SVGID_726_);}
	.st889{fill:url(#SVGID_727_);}
	.st890{fill:url(#SVGID_728_);}
	.st891{fill:url(#SVGID_729_);}
	.st892{fill-rule:evenodd;clip-rule:evenodd;fill:url(#SVGID_730_);}
	.st893{fill:url(#SVGID_731_);}
	.st894{fill:url(#SVGID_732_);}
	.st895{fill:url(#SVGID_733_);}
	.st896{fill:url(#SVGID_734_);}
	.st897{fill-rule:evenodd;clip-rule:evenodd;fill:url(#SVGID_735_);}
	.st898{fill:url(#SVGID_736_);}
	.st899{fill:url(#SVGID_737_);}
	.st900{fill:url(#SVGID_738_);}
	.st901{fill:url(#SVGID_739_);}
	.st902{fill:url(#SVGID_740_);}
	.st903{fill:url(#SVGID_741_);}
	.st904{fill:url(#SVGID_742_);}
	.st905{fill:url(#SVGID_743_);}
	.st906{fill:url(#SVGID_744_);}
	.st907{fill:url(#SVGID_745_);}
	.st908{fill:url(#SVGID_746_);}
	.st909{fill:url(#SVGID_747_);}
	.st910{fill:url(#SVGID_748_);}
	.st911{fill:url(#SVGID_749_);}
	.st912{fill:url(#SVGID_750_);}
	.st913{fill:url(#SVGID_751_);}
	.st914{fill:url(#SVGID_752_);}
	.st915{fill:url(#SVGID_753_);}
	.st916{fill:url(#SVGID_754_);}
	.st917{fill:url(#SVGID_755_);}
	.st918{fill:url(#SVGID_756_);}
	.st919{fill:url(#SVGID_757_);}
	.st920{fill:url(#SVGID_758_);}
	.st921{fill:url(#SVGID_759_);}
	.st922{fill:url(#SVGID_760_);}
	.st923{fill:url(#SVGID_761_);}
	.st924{fill:url(#SVGID_762_);}
	.st925{fill:url(#SVGID_763_);}
	.st926{fill:url(#SVGID_764_);}
	.st927{fill:url(#SVGID_765_);}
	.st928{fill:url(#SVGID_766_);}
	.st929{fill:url(#SVGID_767_);}
	.st930{fill:url(#SVGID_768_);}
	.st931{fill:url(#SVGID_769_);}
	.st932{fill:url(#SVGID_770_);}
	.st933{fill:url(#SVGID_771_);}
	.st934{fill:url(#SVGID_772_);}
	.st935{fill:url(#SVGID_773_);}
	.st936{fill:url(#SVGID_774_);}
	.st937{fill:url(#SVGID_775_);}
	.st938{fill:url(#SVGID_776_);}
	.st939{fill:url(#SVGID_777_);}
	.st940{fill:url(#SVGID_778_);}
	.st941{fill:url(#SVGID_779_);}
	.st942{fill:url(#SVGID_780_);}
	.st943{fill:url(#SVGID_781_);}
	.st944{fill:url(#SVGID_782_);}
	.st945{fill:url(#SVGID_783_);}
	.st946{fill:url(#SVGID_784_);}
	.st947{fill:url(#SVGID_785_);}
	.st948{fill:url(#SVGID_786_);}
	.st949{fill:url(#SVGID_787_);}
	.st950{fill:url(#SVGID_788_);}
	.st951{fill:url(#SVGID_789_);}
	.st952{fill:url(#SVGID_790_);}
	.st953{fill:url(#SVGID_791_);}
	.st954{fill:url(#SVGID_792_);}
	.st955{fill:url(#SVGID_793_);}
	.st956{fill:url(#SVGID_794_);}
	.st957{fill:url(#SVGID_795_);}
	.st958{fill:url(#SVGID_796_);}
	.st959{fill:url(#SVGID_797_);}
	.st960{fill:url(#SVGID_798_);}
	.st961{fill:url(#SVGID_799_);}
	.st962{fill:url(#SVGID_800_);}
	.st963{fill:url(#SVGID_801_);}
	.st964{fill:url(#SVGID_802_);}
	.st965{fill:url(#SVGID_803_);}
	.st966{fill:url(#SVGID_804_);}
	.st967{fill:url(#SVGID_805_);}
	.st968{fill:url(#SVGID_806_);}
	.st969{fill:url(#SVGID_807_);}
	.st970{fill:url(#SVGID_808_);}
	.st971{fill:url(#SVGID_809_);}
	.st972{fill:url(#SVGID_810_);}
	.st973{fill:url(#SVGID_811_);}
	.st974{fill:url(#SVGID_812_);}
	.st975{fill:url(#SVGID_813_);}
	.st976{fill:url(#SVGID_814_);}
	.st977{fill:url(#SVGID_815_);}
	.st978{fill:url(#SVGID_816_);}
	.st979{fill:url(#SVGID_817_);}
	.st980{fill:url(#SVGID_818_);}
	.st981{fill:url(#SVGID_819_);}
	.st982{fill:url(#SVGID_820_);}
	.st983{fill:url(#SVGID_821_);}
	.st984{fill:url(#SVGID_822_);}
	.st985{fill:url(#SVGID_823_);}
	.st986{fill:url(#SVGID_824_);}
	.st987{fill:url(#SVGID_825_);}
	.st988{fill:url(#SVGID_826_);}
	.st989{fill:url(#SVGID_827_);}
	.st990{fill:url(#SVGID_828_);}
	.st991{fill:url(#SVGID_829_);}
	.st992{fill:url(#SVGID_830_);}
	.st993{fill:url(#SVGID_831_);}
	.st994{fill:url(#SVGID_832_);}
	.st995{fill:url(#SVGID_833_);}
	.st996{fill:url(#SVGID_834_);}
	.st997{fill:url(#SVGID_835_);}
	.st998{fill-rule:evenodd;clip-rule:evenodd;fill:url(#SVGID_836_);}
	.st999{fill:url(#SVGID_837_);}
	.st1000{fill:url(#SVGID_838_);}
	.st1001{fill:url(#SVGID_839_);}
	.st1002{fill:url(#SVGID_840_);}
	.st1003{fill:url(#SVGID_841_);}
	.st1004{fill:url(#SVGID_842_);}
	.st1005{fill:url(#SVGID_843_);}
	.st1006{fill:url(#SVGID_844_);}
	.st1007{fill:url(#SVGID_845_);}
	.st1008{fill:url(#SVGID_846_);}
	.st1009{fill:url(#SVGID_847_);}
	.st1010{fill:url(#SVGID_848_);}
	.st1011{fill:url(#SVGID_849_);}
	.st1012{fill:url(#SVGID_850_);}
	.st1013{fill:url(#SVGID_851_);}
	.st1014{fill:url(#SVGID_852_);}
	.st1015{fill:url(#SVGID_853_);}
	.st1016{fill:url(#SVGID_854_);}
	.st1017{fill:url(#SVGID_855_);}
	.st1018{fill-rule:evenodd;clip-rule:evenodd;fill:url(#SVGID_856_);}
	.st1019{fill:url(#SVGID_857_);}
	.st1020{fill:url(#SVGID_858_);}
	.st1021{fill:url(#SVGID_859_);}
	.st1022{fill:url(#SVGID_860_);}
	.st1023{fill:url(#SVGID_861_);}
	.st1024{fill:url(#SVGID_862_);}
	.st1025{fill:url(#SVGID_863_);}
	.st1026{fill:url(#SVGID_864_);}
	.st1027{fill:url(#SVGID_865_);}
	.st1028{fill:url(#SVGID_866_);}
	.st1029{fill:url(#SVGID_867_);}
	.st1030{fill:url(#SVGID_868_);}
	.st1031{fill:url(#SVGID_869_);}
	.st1032{fill:url(#SVGID_870_);}
	.st1033{fill:url(#SVGID_871_);}
	.st1034{fill:url(#SVGID_872_);}
	.st1035{fill:url(#SVGID_873_);}
	.st1036{fill:url(#SVGID_874_);}
	.st1037{fill:url(#SVGID_875_);}
	.st1038{fill:url(#SVGID_876_);}
	.st1039{fill:url(#SVGID_877_);}
	.st1040{fill:url(#SVGID_878_);}
	.st1041{fill:url(#SVGID_879_);}
	.st1042{opacity:0.25;fill:url(#SVGID_880_);enable-background:new    ;}
	.st1043{opacity:0.25;fill:url(#SVGID_881_);enable-background:new    ;}
	.st1044{opacity:0.25;fill:url(#SVGID_882_);enable-background:new    ;}
	.st1045{opacity:0.25;fill:url(#SVGID_883_);enable-background:new    ;}
	.st1046{opacity:0.25;fill:url(#SVGID_884_);enable-background:new    ;}
	.st1047{opacity:0.25;fill:url(#SVGID_885_);enable-background:new    ;}
	.st1048{fill:url(#SVGID_886_);}
	.st1049{fill:url(#SVGID_887_);}
	.st1050{fill:url(#SVGID_888_);}
	.st1051{fill:url(#SVGID_889_);}
	.st1052{stroke:#06395B;}
</style>
<g id="Lager_1">
	<g>
		<g>
			<g>
				<path class="st45" d="M372.6,794.2c-4.2,1.6-8.6,2.3-13.1,2c-18.8-2.5-3.3-36,0-46.3c3.3-10.2,4.5-19.3,7-28.3
					c2.5-9,9-25.4,12.7-38.5c0.2-0.4,0.3-0.8,0.3-1.2c0-0.4-0.1-0.9-0.3-1.2c-2.5,4.1-3.7,9-6.1,13.5c-2.5,4.5-5.3,11.1-7.8,16.8
					c-4.5,12.3-8.6,25-12.7,37.7c-11.7,33.1-27.9,64.5-47.9,93.4c-4.5,7.4-9,14.7-13.1,22.5c-8.3,12.5-14.4,26.4-18,41
					c-0.6,9.7-0.6,19.4,0,29.1c-0.3,7.3-1.3,14.6-2.9,21.7c-1.7,19.3-4.4,38.4-8.2,57.4l7.4-33.2c5.3-22.4,11.8-44.4,19.7-66
					c6.2-20.7,15.9-40.3,28.7-57.8c7.2-10.5,15.6-20.1,25-28.7c13-8.5,26.7-15.8,41-21.7c13.5-8.7,25.5-19.6,35.2-32.4
					c20-25,36.6-52.5,49.2-81.9c7.1-12.4,9.8-26.8,7.8-41c-11.9,19.1-22,39.3-30.3,60.2c-8.1,21-19.4,40.7-33.6,58.2
					C401.2,780.7,387.6,789.1,372.6,794.2z"/>
				<path class="st46" d="M269,973.6c0.2-1.1,0.2-2.2,0-3.3c1.5-7.3,2.5-14.7,2.9-22.1c-0.8-9.7-0.8-19.4,0-29.1
					c3.6-13.9,9.7-27.1,18-38.9c4.1-7.8,8.2-15.2,12.7-22.1c20.1-29.1,36.3-60.6,48.3-93.8c3.7-12.7,7.8-25.4,12.7-37.7
					c1.3-4,2.9-7.8,4.9-11.5c3.3-10.7,7.8-20.9,10.7-32c0.2-0.4,0.3-0.8,0.3-1.2c0-0.4-0.1-0.9-0.3-1.2l0,0c-2.5,4.1-3.7,9-6.1,13.5
					c-2.5,4.5-5.3,11.1-7.8,16.8c-4.5,12.3-8.6,25-12.7,37.7c-11.7,33.1-27.9,64.5-47.9,93.4c-4.5,7.4-9,14.7-13.1,22.5
					c-8.3,12.5-14.4,26.4-18,41c-0.6,9.7-0.6,19.4,0,29.1c-0.3,7.3-1.3,14.6-2.9,21.7c-1.7,19.3-4.4,38.4-8.2,57.4l7.4-33.2
					L269,973.6z"/>
				<path class="st45" d="M146.1,760.2c2.5,2.2,5.8,3.5,9.2,3.5c3.4,0,6.7-1.2,9.2-3.5c2.1-2.4,3.6-5.3,4.4-8.5
					c0.8-3.1,0.8-6.4,0.1-9.6c0-4.9-2-9.8-2.9-14.7c-4.1-20.9-8.6-41-13.1-62.7c-6.4-28.1-9.6-56.8-9.4-85.6c0,0,0,0,2,0
					c5.7,22.7,10.7,45.2,14.8,67.6c2.1,13.8,5.2,27.5,9,41c1.5,6.4,3.4,12.7,5.7,18.8c0,5.3,2.9,10.7,4.5,16
					c3.5,11.1,7.6,22.1,12.3,32.8c4.9,11.1,10.2,21.7,15.1,32.8c6.6,14.1,14,27.7,22.1,41c8.3,12.5,14.4,26.4,18,41
					c0.8,9.5,0.8,19.1,0,28.7c0.7,7.4,1.8,14.8,3.3,22.1c1.3,19.3,4.1,38.5,8.2,57.4c-2.9-11.1-5.3-22.1-7.8-33.2
					c-5.2-22.5-11.6-44.6-19.3-66.4c-6.4-20.7-16.3-40.2-29.1-57.8c-7.3-10.2-15.5-19.6-24.6-28.3c-9.6-6.3-19.6-12-29.9-17.2
					c-9.3-6.4-17.5-14.3-24.2-23.4c-21.5-20.6-35.9-47.6-41-77c2.6,7.7,6.6,14.8,11.9,20.9l19.3,28.3
					C122.8,737.8,133.6,749.9,146.1,760.2z"/>
				<path class="st46" d="M155.5,659.4c2.2,13.8,5.2,27.5,9,41c2,6.1,3.3,12.7,5.7,18.8c2.5,6.1,2.9,10.7,4.5,16
					c1.6,5.3,7.8,22.1,12.3,32.8c4.5,10.7,10.6,21.7,15.2,32.8c6.6,14.1,14,27.7,22.1,41c8.5,12.4,14.6,26.3,18,41
					c0.6,9.7,0.6,19.4,0,29.1c-0.4,2.3-0.4,4.7,0,7c2.5,9.4,5.3,19.3,7.4,29.1c2,9.8,4.9,22.1,7.8,33.2c-4.1-18.9-6.9-38.1-8.2-57.4
					c-1.5-7.3-2.6-14.7-3.3-22.1c0.8-9.5,0.8-19.1,0-28.7c-3.6-14.6-9.7-28.4-18-41c-8.1-13.2-15.5-26.9-22.1-41
					c-4.9-11.1-10.3-21.7-15.2-32.8c-4.7-10.7-8.8-21.6-12.3-32.8c0-5.3-2.9-10.7-4.5-16c-2.3-6.2-4.2-12.5-5.7-18.8
					c-3.8-13.5-6.9-27.1-9-41c-4.1-22.4-9-44.9-14.7-67.6c0,0,0,0-2,0c-0.4,7.6-0.4,15.3,0,22.9
					C148.2,621.3,152.3,640.2,155.5,659.4z"/>
				<path class="st45" d="M280.9,1195.2v2.5c0.2,0.9,0.2,1.9,0,2.9c-4.2,4.2-9.3,7.3-14.9,9.2c-5.6,1.8-11.6,2.4-17.5,1.5
					c-14.8,0-26.6-7-29.1-14.7c0,0,0-2,0-3.3c0.9-2.1,2-4.2,3.3-6.1c1.2-1.3,2.1-2.9,2.9-4.5l2-3.7c4.4-11.3,7.2-23.2,8.2-35.2
					c2-12.7,2.9-25.4,3.7-38.1c0-28.3,0-56.5,0-84.8c-2.5-70.9,0-141.7,2.9-212.6c0-5.3,0-10.7,0-16.4c0-15.2,0-30.7,2-45.9
					c2-15.2,0-33.2,2.9-49.6c0-2.9,0-5.3,0-8.2c0-2.9,0-9.4,0-13.9v-11.1c0.2-3.7,0.2-7.4,0-11.1c0-3.7,0-7.4,2-11.1
					c0.5-3.7,1.2-7.4,2.1-11.1c1.2-7.1,2.9-14,4.9-20.9c0,0,0-4.9,4.1-5.3c1.2,0.6,2.2,1.6,2.9,2.9c0,0,0,2.9,0,4.5
					c0,57.4,3.3,114.7,4.5,171.6c0,36.5,0,72.9-2,109.8c0,21.3,0,42.6,0,63.9c0,29.1,2.9,58.2,3.7,87.3c0.5,23-0.5,46-2.9,68.8
					c0,14.3-3.3,28.7-4.5,43.4v2.9c0.2,0.9,0.2,1.9,0,2.9c-0.2,1.9-0.2,3.8,0,5.7c-0.2,1.5-0.2,3,0,4.5c0.4,3.7,1.7,7.2,3.7,10.2
					l2.9,3.3L280.9,1195.2z"/>
				<path class="st47" d="M269,609.4c-5.2,19.2-8.9,38.8-11.1,58.6c-6.1,46.3-6.5,94.6-9,140.5c-3.7,70.9-5.3,141.7-2.9,212.6
					c0,28.3,0,56.5,0,84.8c-0.4,12.8-1.7,25.5-3.7,38.1c-1,12.1-3.8,23.9-8.2,35.2c-2.9,7.4-8.3,13.6-15.2,17.6c0,0,0-2,0-3.3
					c0.9-2.1,2-4.2,3.3-6.1c1.2-1.3,2.2-2.9,2.9-4.5l2-3.7c4.4-11.3,7.2-23.2,8.2-35.2c2-12.7,2.9-25.4,3.7-38.1
					c0-28.3,0-56.5,0-84.8c-2.5-70.9,0-141.7,2.9-212.6c0-5.3,0-10.7,0-16.4c0-15.2,0-30.7,2-45.9c2-15.2,0-33.2,2.9-49.6
					c0-2.9,0-5.3,0-8.2s0-9.4,0-13.9v-11.1c0.2-3.7,0.2-7.4,0-11.1c0-3.7,0-7.4,2-11.1c0.5-3.7,1.2-7.4,2-11.1
					c1.2-7,2.9-14,4.9-20.9c0,0,0-4.9,4.1-5.3h9V609.4z"/>
				<path class="st46" d="M280.9,1195.3v2.5c0.2,0.9,0.2,1.9,0,2.9h-4.5l-4.1-2.5c-2.9-1.3-5.5-3.1-7.8-5.3
					c-3.9-4.2-6.7-9.2-8.1-14.7c-1.4-5.5-1.5-11.3-0.1-16.8c0-14.7,2.5-29.1,4.1-43.4c2.3-22.9,3.4-45.8,3.3-68.8
					c0-29.1-2.9-58.2-3.7-87.3c0-21.3,0-41,0-63.9c0-36.5,2.5-73.3,0-109.8c-2.5-36.5,0-79.5-2.9-119.2v-37.7c1.2-7,2.9-14,4.9-20.9
					c0,0,0-4.9,4.1-5.3c1.2,0.6,2.2,1.6,2.9,2.9c0,0,0,2.9,0,4.5c0,57.4,3.3,114.7,4.5,171.6c0,36.5,0,72.9-2,109.8
					c0,21.3,0,42.6,0,63.9c0,29.1,2.9,58.2,3.7,87.3c0.5,23-0.5,46-2.9,68.8c0,14.3-3.3,28.7-4.5,43.4v2.9c0.2,0.9,0.2,1.9,0,2.9
					c-0.2,1.9-0.2,3.8,0,5.7c-0.2,1.5-0.2,3,0,4.5c0.4,3.7,1.7,7.2,3.7,10.2l2.9,3.3L280.9,1195.3z"/>
				<path class="st48" d="M50.3,473.8c-19.7-7.4-38.1-55.7-38.1-55.7c14.4-6.9,29.5-12.2,45.1-15.6v-7c-12,0.8-24.1,0.8-36.1,0
					c0,0,4.5-53.7,20.5-67.2l4.1-2.5c-17.9-12.6-33.3-28.6-45.1-47.1c17.1-11.7,36.1-20.4,56.1-25.8c-8.2-1.8-15.9-5.8-22.1-11.5
					c-14.3-15.6-9-67.2-9-67.2c10.6,0.1,21.1,1.1,31.6,2.9v-5.7l16.8,9.8c3,0.8,5.9,1.9,8.6,3.3c20.2-7.2,41.6-10.7,63.1-10.2
					c0,0,0,11.1,0,25h0.4c12.3,2.5,26.2,18.8,36,32c11-6.4,22.5-11.9,34.4-16.4c3.9,10.3,7,20.8,9.4,31.5c0,2,13.1,0,14.8,0
					c5-2.4,9.7-5.2,14.3-8.2c2.6-2,5.6-3.4,8.8-4.2c3.2-0.8,6.5-0.9,9.7-0.3c0.3-0.2,0.7-0.3,1-0.3c0.4,0,0.7,0.1,1,0.3
					c0.2,0.8,0.2,1.7,0,2.5c2,8.6,0,18.8,4.1,27.4c4.1,8.6,0,4.9,6.6,3.3h5.3c0,0,19.3,50.4,10.7,69.6c-1.8,3.4-4.2,6.4-7,9
					c0.2,14.5-3.8,28.7-11.5,41c10,5.7,19.6,12.1,28.7,19.3c-10,12.8-21.4,24.5-34,34.8c9.7,18.7,14.1,39.6,12.7,60.6
					c-1,2.7-2.6,5.2-4.5,7.4c15,16.4,25.9,36,31.9,57.4c-6.8,2.7-13.8,5-20.9,7c-0.6,3.1-0.6,6.3,0,9.4c0,6.6,8.6,8.2,14.7,11.5
					c6.1,3.3,0,0,0,0c-4.3,7.8-10,14.7-16.8,20.5c-4.5,3.7-11,5.7-13.5,11.1c-7,13.5,14.3,11.9,23.4,13.9c0,0-7.8,49.2-24.6,61.9
					v31.1c2.3,8.2,2.3,16.8,0,25V784l-6.6-3.7c-3.7,10.2-7.4,18-7.4,18s-48.8-17.6-56.5-37.3c-1.1-2.6-1.8-5.4-2-8.2
					c-10.7,9.4-22.2,17.7-34.4,25c-8.9-13.5-16.3-27.9-22.1-43c-1.6,1.9-3.4,3.5-5.3,4.9c-18.4,10.2-68-4.9-68-4.9
					c2.8-11.7,6.5-23.2,11-34.4c-15.7,4-31.8,6-47.9,6.1c0,0-4.1-52,10.2-67.2c2.6-2.9,5.8-5.2,9.4-6.6
					c-15.6-14.1-28.6-30.7-38.5-49.2c0,0,13.9-7,14.7-7.4c4.1-1.8,8.4-3.3,12.7-4.5c1.9-0.6,3.5-1.9,4.6-3.7c1-1.7,1.5-3.8,1.2-5.8
					c-1-2.8-2.7-5.4-4.9-7.4l-6.5-7c-0.2-0.9-0.2-1.9,0-2.9c-9.8-11.3-18.4-23.5-25.8-36.5c12.9-8.1,26.7-14.8,41-20.1v-10.7
					L50.3,473.8z"/>
				<path class="st49" d="M485.7,473.8c19.7-7.4,38.1-55.7,38.1-55.7c-14.4-6.9-29.5-12.2-45.1-15.6v-7c12,0.8,24,0.8,36,0
					c0,0-4.5-53.7-20.5-67.2l-4.1-2.5c17.9-12.6,33.2-28.6,45.1-47.1c-17.1-11.7-36.1-20.4-56.1-25.8c8.3-1.9,16.1-5.9,22.5-11.5
					c13.9-15.6,8.6-67.2,8.6-67.2c-10.6,0.1-21.1,1.1-31.5,2.9v-5.7l-16.8,9.8c-3,0.8-5.8,1.9-8.6,3.3
					c-20.2-7.2-41.6-10.7-63.1-10.2c-0.5,8.3-0.5,16.7,0,25h-2.9c-11.9,2.5-26.2,18.8-36.1,32c-11-6.4-22.5-11.9-34.4-16.4
					c-3.9,10.3-7,20.8-9.4,31.5c0,2-12.7,0-14.3,0c-5.1-2.3-10.1-5.1-14.7-8.2c-2.6-2-5.6-3.4-8.8-4.2c-3.2-0.8-6.5-0.9-9.7-0.3
					c-0.3-0.2-0.7-0.3-1-0.3c-0.3,0-0.7,0.1-1,0.3c-0.2,0.8-0.2,1.7,0,2.5c-2,8.6,0,18.8-4.1,27.4c-4.1,8.6,0,4.9-6.1,3.3H242
					c0,0-19.3,50.4-10.7,69.6c1.8,3.5,4.3,6.5,7.4,9c-0.5,14.5,3.3,28.7,11.1,41c-10,5.7-19.6,12.1-28.7,19.3
					c10,12.8,21.4,24.5,34,34.8c-9.7,18.7-14.1,39.6-12.7,60.6c1,2.7,2.6,5.2,4.5,7.4c-15,16.4-25.9,36-32,57.4
					c6.8,2.7,13.8,5,20.9,7c0.6,3.1,0.6,6.3,0,9.4c0,6.6-8.6,8.2-14.7,11.5c-6.2,3.3,0,0,0,0c4.3,7.8,10,14.7,16.8,20.5
					c4.5,3.7,11.1,5.7,13.9,11.1c6.5,13.5-14.8,11.9-23.8,13.9c0,0,7.8,49.2,24.6,61.9v31.1c-2.3,8.2-2.3,16.8,0,25V784l6.6-3.7
					c3.7,10.2,7.4,18,7.4,18s48.8-17.6,56.9-37.3c0.2-2.7,0.2-5.5,0-8.2c10.7,9.4,22.2,17.7,34.4,25c9.1-13.4,16.5-27.8,22.1-43
					c1.6,1.9,3.4,3.5,5.3,4.9c18.4,10.2,68-4.9,68-4.9c-2.8-11.7-6.5-23.2-11-34.4c15.7,4,31.8,6,47.9,6.1c0,0,4.1-52-10.3-67.2
					c-2.6-2.9-5.8-5.2-9.4-6.6c15.6-14.1,28.6-30.7,38.5-49.2c0,0-13.9-7-14.7-7.4c-4.1-1.9-8.3-3.4-12.7-4.5
					c-1.9-0.7-3.5-2-4.4-3.7c-1-1.7-1.3-3.8-0.9-5.7c0.7-2.9,2.3-5.5,4.5-7.4l6.5-7c0.2-0.9,0.2-1.9,0-2.9
					c9.8-11.3,18.4-23.5,25.8-36.5c-12.9-8.1-26.7-14.8-41-20.1v-10.7L485.7,473.8z"/>
				<path class="st50" d="M449.3,129.3h-6.5l-13.9-8.2c0.2-0.9,0.2-1.9,0-2.9c-3.3-22.5-51.2-56.9-51.2-56.9s-4.1,5.7-9.4,14.3
					c-5.3-22.5-55.7-53.3-55.7-53.3s-4.1,7-9,16.8c-14-14.8-29.8-27.8-47.1-38.5c-8.9,14.5-16.3,29.9-22.1,45.9
					c-3.3-8.6-6.1-14.3-6.1-14.3s-52.8,20.5-61.4,41c-1.1,5.4-1.1,11,0,16.4h-2c-19.7-1.2-39.4,0.4-58.6,4.9
					c1.3,8.8,3.1,17.6,5.3,26.2l-13.5,7.8c-5-2.4-10.5-3.5-16-3.3c-22.9,0-60.6,46.7-60.6,46.7s44.6,38.1,67.6,36
					c3.6-0.2,7.1-1.2,10.2-2.9h2c-0.2,1.2-0.2,2.5,0,3.7c2.9,22.9,49.6,55.3,49.6,55.3s7.4-9,15.6-21.3l8.6,4.9
					c9.2,19.1,21.3,36.8,35.6,52.4c7.1-6.3,13.8-13,20.1-20.1l7,3.7c1,2.3,2.4,4.3,4.1,6.1c7.5,6,16.4,9.9,25.8,11.5h3.7
					c14.6,2.8,29.4,4.3,44.2,4.5c0,0,0-13.1,0-29.1c7.9,8.3,16.3,16,25.4,22.9c13.5-16.8,24.2-35.6,31.9-55.7l6.6-4.1
					c9.2,9.6,19.1,18.7,29.5,27c14.8-18.4,26-39.4,33.2-61.9c5.2,2.3,10.8,3.4,16.4,3.3c22.9-2.5,59.8-48.3,59.8-48.3
					S473.8,127.3,449.3,129.3z"/>
			</g>
		</g>
	</g>
	<g>
		<g>
			<defs>
				<polygon id="SVGID_613_" points="3622.5,-514.9 2542.5,120.3 2542.5,-657.2 3622.5,-658.5 				"/>
			</defs>
			<clipPath id="SVGID_1_">
				<use xlink:href="#SVGID_613_"  style="overflow:visible;"/>
			</clipPath>
			<g style="clip-path:url(#SVGID_1_);">
				<defs>
					<rect id="SVGID_615_" x="2542.5" y="-664" width="1114.1" height="1120.1"/>
				</defs>
				<clipPath id="SVGID_2_">
					<use xlink:href="#SVGID_615_"  style="overflow:visible;"/>
				</clipPath>
				<g style="clip-path:url(#SVGID_2_);">
					<path class="st83" d="M2594.5,1179.6L343.9-117l2364.3-1366.2L4958.8-186.6L2594.5,1179.6z"/>
				</g>
			</g>
		</g>
	</g>
</g>
<g id="Ramar">
</g>
</svg>
