<?xml version="1.0" encoding="utf-8"?>
<!-- Generator: Adobe Illustrator 24.0.0, SVG Export Plug-In . SVG Version: 6.00 Build 0)  -->
<svg version="1.1" xmlns="http://www.w3.org/2000/svg" xmlns:xlink="http://www.w3.org/1999/xlink" x="0px" y="0px"
	 viewBox="0 0 1080 1920" style="enable-background:new 0 0 1080 1920;" xml:space="preserve">
<style type="text/css">
	.st0{fill:#FFFFFF;}
	.st1{fill:#00AEEF;}
	.st2{fill:#91651F;}
	.st3{fill:#AA7723;}
	.st4{fill:#855107;}
	.st5{fill:#567601;}
	.st6{fill:#638800;}
	.st7{fill:#769C11;}
	.st8{fill:#06395B;}
	.st9{fill:#414C5C;}
	.st10{fill:#293237;}
	.st11{fill:url(#SVGID_1_);}
	.st12{fill:#A1A1A1;}
	.st13{fill:url(#SVGID_2_);}
	.st14{fill:#D3D3D3;}
	.st15{fill:#B6B6B6;}
	.st16{fill:url(#SVGID_3_);}
	.st17{fill:url(#SVGID_4_);}
	.st18{fill:#73A538;}
	.st19{fill:#79B53B;}
	.st20{fill:#577729;}
	.st21{fill:#546672;}
	.st22{fill:#409E4E;}
	.st23{fill:#529BA3;}
	.st24{fill:#141E25;}
	.st25{fill:#9CB7D2;}
	.st26{fill:#768A99;}
	.st27{fill:#C4C4C4;}
	.st28{fill:#BED5DF;}
	.st29{fill:#12181D;}
	.st30{fill:#EFEC82;}
	.st31{fill:#D3A944;}
	.st32{fill:#E8F0F3;}
	.st33{fill:#88D5DE;}
	.st34{fill:#3D7D87;}
	.st35{fill:#3E2F37;}
	.st36{fill:#95C9B1;}
	.st37{fill:#E08A35;}
	.st38{fill:#E06E18;}
	.st39{fill:#E0AB35;}
	.st40{fill:#5B949C;}
	.st41{fill:none;stroke:#FFFFFF;stroke-width:1.4862;stroke-miterlimit:10;}
	.st42{fill:none;stroke:#FFFFFF;stroke-width:1.4862;stroke-miterlimit:10;stroke-dasharray:6.0118,6.0118;}
	.st43{fill:#00AEEF;stroke:#00AEEF;}
	.st44{fill:none;}
	.st45{fill:#06395B;stroke:#00AEEF;}
	.st46{font-family:'UnitPro-Bold';}
	.st47{font-size:76px;}
	.st48{clip-path:url(#SVGID_6_);}
	.st49{fill:#91651F;stroke:#00AEEF;}
	.st50{fill:#AA7723;stroke:#00AEEF;}
	.st51{fill:#855107;stroke:#00AEEF;}
	.st52{fill:#567601;stroke:#00AEEF;}
	.st53{fill:#638800;stroke:#00AEEF;}
	.st54{fill:#769C11;stroke:#00AEEF;}
	.st55{fill:#FFFFFF;stroke:#00AEEF;}
	.st56{font-size:200.7714px;}
	.st57{fill:#1595BC;}
	.st58{fill:url(#SVGID_7_);}
	.st59{fill:url(#SVGID_8_);}
	.st60{fill:url(#SVGID_9_);}
	.st61{fill:url(#SVGID_10_);}
	.st62{fill:url(#SVGID_11_);}
	.st63{fill:url(#SVGID_12_);}
	.st64{fill:url(#SVGID_13_);}
	.st65{fill:url(#SVGID_14_);}
	.st66{fill:#FFFFFF;stroke:#06395B;}
	.st67{fill:#06395B;stroke:#06395B;}
	.st68{fill:#00AEEF;stroke:#06395B;}
	.st69{fill:url(#SVGID_15_);}
	.st70{fill:url(#SVGID_16_);}
	.st71{fill:url(#SVGID_17_);}
	.st72{fill:url(#SVGID_18_);}
	.st73{fill:none;stroke:#FFFFFF;stroke-width:3;stroke-miterlimit:10;}
	.st74{fill:none;stroke:#FFFFFF;stroke-width:3;stroke-miterlimit:10;stroke-dasharray:12.135,12.135;}
	.st75{fill:url(#SVGID_19_);}
	.st76{fill:url(#SVGID_20_);}
	.st77{fill:url(#SVGID_21_);}
	.st78{fill:url(#SVGID_22_);}
	.st79{fill:url(#SVGID_23_);}
	.st80{fill:url(#SVGID_24_);}
	.st81{fill:url(#SVGID_25_);}
	.st82{fill:url(#SVGID_26_);}
	.st83{fill:url(#SVGID_27_);}
	.st84{fill:url(#SVGID_28_);}
	.st85{fill:url(#SVGID_29_);}
	.st86{fill:url(#SVGID_30_);}
	.st87{clip-path:url(#SVGID_32_);}
	.st88{clip-path:url(#SVGID_34_);}
	.st89{fill:#6E7071;}
	.st90{fill:#C9C9C9;}
	.st91{fill:#DBCC65;}
	.st92{fill:#EFEFEF;}
	.st93{fill:#B5AC96;}
	.st94{fill:#D1D1D1;}
	.st95{fill:#686868;}
	.st96{fill:url(#SVGID_35_);}
	.st97{fill:url(#SVGID_36_);}
	.st98{fill:#9C9C9C;}
	.st99{fill:#3D3D3D;}
	.st100{fill:url(#SVGID_37_);}
	.st101{fill:url(#SVGID_38_);}
	.st102{fill:url(#SVGID_39_);}
	.st103{fill:url(#SVGID_40_);}
	.st104{fill:url(#SVGID_41_);}
	.st105{fill:url(#SVGID_42_);}
	.st106{fill:#BABABA;}
	.st107{fill:url(#SVGID_43_);}
	.st108{fill:url(#SVGID_44_);}
	.st109{fill:#CECCCA;}
	.st110{fill:#96EB4B;}
	.st111{fill:#5AB42C;}
	.st112{fill:#ADA9A5;}
	.st113{fill:#C6BEB7;}
	.st114{fill:#E1D7AD;}
	.st115{fill:#E8D558;}
	.st116{fill:#CAC7D0;}
	.st117{fill:#AD964C;}
	.st118{fill:url(#SVGID_45_);}
	.st119{fill:url(#SVGID_46_);}
	.st120{fill:url(#SVGID_47_);}
	.st121{fill:url(#SVGID_48_);}
	.st122{fill:url(#SVGID_49_);}
	.st123{fill:url(#SVGID_50_);}
	.st124{fill:url(#SVGID_51_);}
	.st125{fill:url(#SVGID_52_);}
	.st126{fill:url(#SVGID_53_);}
	.st127{fill:url(#SVGID_54_);}
	.st128{fill:url(#SVGID_55_);}
	.st129{fill:url(#SVGID_56_);}
	.st130{fill:url(#SVGID_57_);}
	.st131{fill:url(#SVGID_58_);}
	.st132{fill:url(#SVGID_59_);}
	.st133{fill:url(#SVGID_60_);}
	.st134{fill:url(#SVGID_61_);}
	.st135{fill:#4F4743;}
	.st136{fill:#877A75;}
	.st137{fill:#322F36;}
	.st138{fill:#417C23;}
	.st139{fill:#053056;}
	.st140{fill:#084985;}
	.st141{fill:#0C5EAA;}
	.st142{fill:#C6CCDA;}
	.st143{fill:#ABA06F;}
	.st144{fill:#E8C589;}
	.st145{fill:#F5F5F5;}
	.st146{fill:url(#SVGID_62_);}
	.st147{fill:#FDCB54;}
	.st148{fill:#FFDA5B;}
	.st149{fill:#BB772D;}
	.st150{fill:#AD7434;}
	.st151{fill:#D8AD45;}
	.st152{fill:url(#SVGID_63_);}
	.st153{fill:url(#SVGID_64_);}
	.st154{fill:url(#SVGID_65_);}
	.st155{fill:url(#SVGID_66_);}
	.st156{fill:url(#SVGID_67_);}
	.st157{fill:#8BB3BA;}
	.st158{fill:#DFECF2;}
	.st159{fill:#87B9A2;}
	.st160{fill:#658975;}
	.st161{fill:#F5FAFF;}
	.st162{fill:url(#SVGID_68_);}
	.st163{fill:url(#SVGID_69_);}
	.st164{fill:url(#SVGID_70_);}
	.st165{fill:url(#SVGID_71_);}
	.st166{fill:url(#SVGID_72_);}
	.st167{fill:#918B86;}
	.st168{fill:#CACACA;}
	.st169{fill:#8B8B8B;}
	.st170{fill:#FF816F;}
	.st171{fill:url(#SVGID_73_);}
	.st172{fill:url(#SVGID_74_);}
	.st173{fill:#F0F0F0;}
	.st174{fill:url(#SVGID_75_);}
	.st175{fill:#B6BDCC;}
	.st176{fill:#C4A9AD;}
	.st177{fill:#B7A176;}
	.st178{fill:#C8BCA8;}
	.st179{fill:url(#SVGID_76_);}
	.st180{fill:url(#SVGID_77_);}
	.st181{fill:url(#SVGID_78_);}
	.st182{fill:url(#SVGID_79_);}
	.st183{fill:url(#SVGID_80_);}
	.st184{fill:url(#SVGID_81_);}
	.st185{fill:url(#SVGID_82_);}
	.st186{fill:url(#SVGID_83_);}
	.st187{fill:url(#SVGID_84_);}
	.st188{fill:url(#SVGID_85_);}
	.st189{fill:url(#SVGID_86_);}
	.st190{fill:url(#SVGID_87_);}
	.st191{fill:url(#SVGID_88_);}
	.st192{fill:#9F9E9E;}
	.st193{fill:#858482;}
	.st194{fill:#C0C0C0;}
	.st195{fill:#C8D4D4;}
	.st196{fill:#A2B3AF;}
	.st197{fill:#E1F0F0;}
	.st198{fill:#BDCCCC;}
	.st199{fill:#3A8ABF;}
	.st200{fill:#F4FAFC;}
	.st201{fill:url(#SVGID_89_);}
	.st202{fill:url(#SVGID_90_);}
	.st203{fill:url(#SVGID_91_);}
	.st204{fill:url(#SVGID_92_);}
	.st205{fill:url(#SVGID_93_);}
	.st206{fill:#BA9008;}
	.st207{fill:#F2D035;}
	.st208{fill:#B97005;}
	.st209{fill:#895005;}
	.st210{fill:#FFE642;}
	.st211{fill:#BB8131;}
	.st212{fill:url(#SVGID_94_);}
	.st213{fill:url(#SVGID_95_);}
	.st214{fill:url(#SVGID_96_);}
	.st215{fill:url(#SVGID_97_);}
	.st216{fill:url(#SVGID_98_);}
	.st217{fill:url(#SVGID_99_);}
	.st218{fill:url(#SVGID_100_);}
	.st219{fill:url(#SVGID_101_);}
	.st220{fill:url(#SVGID_102_);}
	.st221{fill:url(#SVGID_103_);}
	.st222{fill:#B5BBB8;}
	.st223{fill:url(#SVGID_104_);}
	.st224{fill:url(#SVGID_105_);}
	.st225{fill:url(#SVGID_106_);}
	.st226{fill:url(#SVGID_107_);}
	.st227{fill:url(#SVGID_108_);}
	.st228{fill:url(#SVGID_109_);}
	.st229{fill:url(#SVGID_110_);}
	.st230{fill:url(#SVGID_111_);}
	.st231{fill:url(#SVGID_112_);}
	.st232{fill:url(#SVGID_113_);}
	.st233{fill:#6EDAE0;}
	.st234{fill:#1184B4;}
	.st235{fill:#0D6990;}
	.st236{fill:#0D6991;}
	.st237{fill:#AD4848;}
	.st238{fill:#590404;}
	.st239{fill:#E03835;}
	.st240{fill:#E0C5A0;}
	.st241{fill:url(#SVGID_114_);}
	.st242{fill:url(#SVGID_115_);}
	.st243{fill:url(#SVGID_116_);}
	.st244{fill:url(#SVGID_117_);}
	.st245{fill:url(#SVGID_118_);}
	.st246{fill:#CF4242;}
	.st247{fill:#E35959;}
	.st248{fill:#B11414;}
	.st249{fill:#E45656;}
	.st250{fill:#266B76;}
	.st251{fill:url(#SVGID_119_);}
	.st252{fill:#4A4A4A;}
	.st253{fill:#595959;}
	.st254{fill:#6C6C6C;}
	.st255{fill:#7D7D7D;}
	.st256{fill:url(#SVGID_120_);}
	.st257{fill:url(#SVGID_121_);}
	.st258{fill:#919191;}
	.st259{fill:url(#SVGID_122_);}
	.st260{fill:url(#SVGID_123_);}
	.st261{fill:url(#SVGID_124_);}
	.st262{fill:url(#SVGID_125_);}
	.st263{fill:#6A6A6A;}
	.st264{fill:url(#SVGID_126_);}
	.st265{fill:url(#SVGID_127_);}
	.st266{fill:url(#SVGID_128_);}
	.st267{fill:url(#SVGID_129_);}
	.st268{fill:url(#SVGID_130_);}
	.st269{fill:url(#SVGID_131_);}
	.st270{fill:url(#SVGID_132_);}
	.st271{fill-rule:evenodd;clip-rule:evenodd;fill:url(#SVGID_133_);}
	.st272{fill:url(#SVGID_134_);}
	.st273{fill:url(#SVGID_135_);}
	.st274{fill:url(#SVGID_136_);}
	.st275{fill:url(#SVGID_137_);}
	.st276{fill:url(#SVGID_138_);}
	.st277{fill:url(#SVGID_139_);}
	.st278{fill-rule:evenodd;clip-rule:evenodd;fill:url(#SVGID_140_);}
	.st279{fill:url(#SVGID_141_);}
	.st280{fill:url(#SVGID_142_);}
	.st281{fill:url(#SVGID_143_);}
	.st282{fill:url(#SVGID_144_);}
	.st283{fill:url(#SVGID_145_);}
	.st284{fill:url(#SVGID_146_);}
	.st285{fill:url(#SVGID_147_);}
	.st286{fill-rule:evenodd;clip-rule:evenodd;fill:url(#SVGID_148_);}
	.st287{opacity:0.9;fill:#191919;enable-background:new    ;}
	.st288{fill:url(#SVGID_149_);}
	.st289{fill:url(#SVGID_150_);}
	.st290{fill:url(#SVGID_151_);}
	.st291{fill:url(#SVGID_152_);}
	.st292{fill:#363636;}
	.st293{fill:#242424;}
	.st294{fill:#191919;}
	.st295{fill:#171717;}
	.st296{fill-rule:evenodd;clip-rule:evenodd;fill:url(#SVGID_153_);}
	.st297{fill:url(#SVGID_154_);}
	.st298{fill:url(#SVGID_155_);}
	.st299{fill:url(#SVGID_156_);}
	.st300{fill:url(#SVGID_157_);}
	.st301{fill:url(#SVGID_158_);}
	.st302{fill:url(#SVGID_159_);}
	.st303{fill:#A2A2A2;}
	.st304{fill:url(#SVGID_160_);}
	.st305{fill:url(#SVGID_161_);}
	.st306{fill:url(#SVGID_162_);}
	.st307{fill:url(#SVGID_163_);}
	.st308{fill:url(#SVGID_164_);}
	.st309{fill:url(#SVGID_165_);}
	.st310{fill:url(#SVGID_166_);}
	.st311{fill:url(#SVGID_167_);}
	.st312{fill:#DBDBDB;}
	.st313{fill:url(#SVGID_168_);}
	.st314{fill:url(#SVGID_169_);}
	.st315{fill:url(#SVGID_170_);}
	.st316{fill:#818181;}
	.st317{fill:#808080;}
	.st318{fill:#8C8C8C;}
	.st319{fill:#A7A7A7;}
	.st320{fill:url(#SVGID_171_);}
	.st321{fill:url(#SVGID_172_);}
	.st322{fill:url(#SVGID_173_);}
	.st323{fill:url(#SVGID_174_);}
	.st324{fill:url(#SVGID_175_);}
	.st325{fill:url(#SVGID_176_);}
	.st326{fill:url(#SVGID_177_);}
	.st327{fill:url(#SVGID_178_);}
	.st328{fill:url(#SVGID_179_);}
	.st329{fill:url(#SVGID_180_);}
	.st330{fill:url(#SVGID_181_);}
	.st331{fill:url(#SVGID_182_);}
	.st332{fill:url(#SVGID_183_);}
	.st333{fill:url(#SVGID_184_);}
	.st334{fill:url(#SVGID_185_);}
	.st335{fill:#B3B3B3;}
	.st336{fill:url(#SVGID_186_);}
	.st337{fill:#BFBFBF;}
	.st338{fill:url(#SVGID_187_);}
	.st339{fill:#929292;}
	.st340{fill:#C2C2C2;}
	.st341{fill:url(#SVGID_188_);}
	.st342{fill:url(#SVGID_189_);}
	.st343{fill:url(#SVGID_190_);}
	.st344{fill:url(#SVGID_191_);}
	.st345{fill:url(#SVGID_192_);}
	.st346{fill:url(#SVGID_193_);}
	.st347{fill:url(#SVGID_194_);}
	.st348{fill:url(#SVGID_195_);}
	.st349{fill:url(#SVGID_196_);}
	.st350{fill:url(#SVGID_197_);}
	.st351{fill:url(#SVGID_198_);}
	.st352{fill:url(#SVGID_199_);}
	.st353{fill:url(#SVGID_200_);}
	.st354{fill:url(#SVGID_201_);}
	.st355{fill:url(#SVGID_202_);}
	.st356{fill:url(#SVGID_203_);}
	.st357{fill:url(#SVGID_204_);}
	.st358{fill:url(#SVGID_205_);}
	.st359{fill:url(#SVGID_206_);}
	.st360{fill:url(#SVGID_207_);}
	.st361{fill:url(#SVGID_208_);}
	.st362{fill:url(#SVGID_209_);}
	.st363{fill:url(#SVGID_210_);}
	.st364{fill:url(#SVGID_211_);}
	.st365{fill:url(#SVGID_212_);}
	.st366{fill:url(#SVGID_213_);}
	.st367{fill:url(#SVGID_214_);}
	.st368{fill:url(#SVGID_215_);}
	.st369{fill:#B0B0B0;}
	.st370{fill:#A4A4A4;}
	.st371{fill:url(#SVGID_216_);}
	.st372{fill:url(#SVGID_217_);}
	.st373{fill:#B5B5B5;}
	.st374{fill:url(#SVGID_218_);}
	.st375{fill:url(#SVGID_219_);}
	.st376{fill:url(#SVGID_220_);}
	.st377{fill:url(#SVGID_221_);}
	.st378{fill:url(#SVGID_222_);}
	.st379{fill:url(#SVGID_223_);}
	.st380{fill:url(#SVGID_224_);}
	.st381{fill:url(#SVGID_225_);}
	.st382{fill:url(#SVGID_226_);}
	.st383{fill:url(#SVGID_227_);}
	.st384{fill:url(#SVGID_228_);}
	.st385{fill:url(#SVGID_229_);}
	.st386{fill:url(#SVGID_230_);}
	.st387{fill:url(#SVGID_231_);}
	.st388{fill:url(#SVGID_232_);}
	.st389{fill:url(#SVGID_233_);}
	.st390{fill:url(#SVGID_234_);}
	.st391{fill:url(#SVGID_235_);}
	.st392{fill:url(#SVGID_236_);}
	.st393{fill:url(#SVGID_237_);}
	.st394{fill:url(#SVGID_238_);}
	.st395{fill:url(#SVGID_239_);}
	.st396{fill:url(#SVGID_240_);}
	.st397{fill:url(#SVGID_241_);}
	.st398{fill:url(#SVGID_242_);}
	.st399{fill:url(#SVGID_243_);}
	.st400{fill:url(#SVGID_244_);}
	.st401{fill:url(#SVGID_245_);}
	.st402{fill:url(#SVGID_246_);}
	.st403{fill:url(#SVGID_247_);}
	.st404{fill:url(#SVGID_248_);}
	.st405{fill:url(#SVGID_249_);}
	.st406{fill:url(#SVGID_250_);}
	.st407{fill:url(#SVGID_251_);}
	.st408{fill:url(#SVGID_252_);}
	.st409{fill:url(#SVGID_253_);}
	.st410{fill-rule:evenodd;clip-rule:evenodd;fill:#E7E7E7;}
	.st411{fill-rule:evenodd;clip-rule:evenodd;fill:url(#SVGID_254_);}
	.st412{opacity:0.35;}
	.st413{fill:url(#SVGID_255_);}
	.st414{fill:url(#SVGID_256_);}
	.st415{fill:url(#SVGID_257_);}
	.st416{fill:url(#SVGID_258_);}
	.st417{fill:url(#SVGID_259_);}
	.st418{fill:url(#SVGID_260_);}
	.st419{fill:url(#SVGID_261_);}
	.st420{fill:url(#SVGID_262_);}
	.st421{fill:url(#SVGID_263_);}
	.st422{fill:url(#SVGID_264_);}
	.st423{fill:url(#SVGID_265_);}
	.st424{fill:url(#SVGID_266_);}
	.st425{fill:url(#SVGID_267_);}
	.st426{fill:url(#SVGID_268_);}
	.st427{opacity:0.5;fill:#191919;enable-background:new    ;}
	.st428{fill:url(#SVGID_269_);}
	.st429{fill:#050603;}
	.st430{fill-rule:evenodd;clip-rule:evenodd;}
	.st431{fill:url(#SVGID_270_);}
	.st432{fill:url(#SVGID_271_);}
	.st433{fill:url(#SVGID_272_);}
	.st434{fill-rule:evenodd;clip-rule:evenodd;fill:#B3B3B3;}
	.st435{fill:url(#SVGID_273_);}
	.st436{opacity:0.75;fill:#191919;enable-background:new    ;}
	.st437{fill-rule:evenodd;clip-rule:evenodd;fill:url(#SVGID_274_);}
	.st438{fill:#690202;}
	.st439{fill:#CCCCCC;}
	.st440{fill:url(#SVGID_275_);}
	.st441{fill:url(#SVGID_276_);}
	.st442{fill:#DEDEDE;}
	.st443{fill:url(#SVGID_277_);}
	.st444{fill:url(#SVGID_278_);}
	.st445{opacity:0.23;}
	.st446{fill:url(#SVGID_279_);}
	.st447{fill:url(#SVGID_280_);}
	.st448{fill:url(#SVGID_281_);}
	.st449{fill:url(#SVGID_282_);}
	.st450{fill:url(#SVGID_283_);}
	.st451{fill:url(#SVGID_284_);}
	.st452{fill:url(#SVGID_285_);}
	.st453{fill:url(#SVGID_286_);}
	.st454{opacity:0.64;}
	.st455{fill:url(#SVGID_287_);}
	.st456{fill:url(#SVGID_288_);}
	.st457{fill:#040404;}
	.st458{fill:url(#SVGID_289_);}
	.st459{fill:url(#SVGID_290_);}
	.st460{fill:url(#SVGID_291_);}
	.st461{fill:url(#SVGID_292_);}
	.st462{fill:url(#SVGID_293_);}
	.st463{fill:url(#SVGID_294_);}
	.st464{fill:url(#SVGID_295_);}
	.st465{fill:url(#SVGID_296_);}
	.st466{fill:url(#SVGID_297_);}
	.st467{opacity:0.25;fill:url(#SVGID_298_);enable-background:new    ;}
	.st468{opacity:0.25;fill:url(#SVGID_299_);enable-background:new    ;}
	.st469{opacity:0.25;fill:url(#SVGID_300_);enable-background:new    ;}
	.st470{opacity:0.25;fill:url(#SVGID_301_);enable-background:new    ;}
	.st471{fill:#E6E6E6;}
	.st472{fill:#430202;}
	.st473{fill:#370202;}
	.st474{opacity:0.25;fill:url(#SVGID_302_);enable-background:new    ;}
	.st475{opacity:0.25;fill:url(#SVGID_303_);enable-background:new    ;}
	.st476{fill:url(#SVGID_304_);}
	.st477{fill:url(#SVGID_305_);}
	.st478{fill:url(#SVGID_306_);}
	.st479{fill:url(#SVGID_307_);}
	.st480{fill:url(#SVGID_308_);}
	.st481{fill:url(#SVGID_309_);}
	.st482{fill:url(#SVGID_310_);}
	.st483{fill:url(#SVGID_311_);}
	.st484{fill:url(#SVGID_312_);}
	.st485{fill:url(#SVGID_313_);}
	.st486{fill:url(#SVGID_314_);}
	.st487{fill:url(#SVGID_315_);}
	.st488{fill:url(#SVGID_316_);}
	.st489{fill:url(#SVGID_317_);}
	.st490{fill:url(#SVGID_318_);}
	.st491{fill:url(#SVGID_319_);}
	.st492{fill:url(#SVGID_320_);}
	.st493{fill:url(#SVGID_321_);}
	.st494{fill:url(#SVGID_322_);}
	.st495{fill:url(#SVGID_323_);}
	.st496{clip-path:url(#SVGID_325_);}
	.st497{clip-path:url(#SVGID_327_);}
	.st498{fill:url(#SVGID_328_);}
	.st499{fill:url(#SVGID_329_);}
	.st500{fill:url(#SVGID_330_);}
	.st501{fill:url(#SVGID_331_);}
	.st502{fill:url(#SVGID_332_);}
	.st503{fill:url(#SVGID_333_);}
	.st504{fill:url(#SVGID_334_);}
	.st505{fill:url(#SVGID_335_);}
	.st506{fill:url(#SVGID_336_);}
	.st507{fill:url(#SVGID_337_);}
	.st508{fill:url(#SVGID_338_);}
	.st509{fill:url(#SVGID_339_);}
	.st510{fill:url(#SVGID_340_);}
	.st511{fill:url(#SVGID_341_);}
	.st512{fill:url(#SVGID_342_);}
	.st513{fill:url(#SVGID_343_);}
	.st514{fill:url(#SVGID_344_);}
	.st515{fill:url(#SVGID_345_);}
	.st516{fill:url(#SVGID_346_);}
	.st517{fill:url(#SVGID_347_);}
	.st518{fill:url(#SVGID_348_);}
	.st519{fill:url(#SVGID_349_);}
	.st520{fill:url(#SVGID_350_);}
	.st521{fill:url(#SVGID_351_);}
	.st522{fill:url(#SVGID_352_);}
	.st523{fill:url(#SVGID_353_);}
	.st524{fill:url(#SVGID_354_);}
	.st525{fill:url(#SVGID_355_);}
	.st526{fill:url(#SVGID_356_);}
	.st527{fill:url(#SVGID_357_);}
	.st528{fill:url(#SVGID_358_);}
	.st529{fill:url(#SVGID_359_);}
	.st530{fill:url(#SVGID_360_);}
	.st531{fill:url(#SVGID_361_);}
	.st532{fill:url(#SVGID_362_);}
	.st533{fill:url(#SVGID_363_);}
	.st534{fill:url(#SVGID_364_);}
	.st535{fill:url(#SVGID_365_);}
	.st536{fill:url(#SVGID_366_);}
	.st537{fill:url(#SVGID_367_);}
	.st538{fill:url(#SVGID_368_);}
	.st539{fill:url(#SVGID_369_);}
	.st540{fill:url(#SVGID_370_);}
	.st541{fill:url(#SVGID_371_);}
	.st542{fill:url(#SVGID_372_);}
	.st543{fill:url(#SVGID_373_);}
	.st544{fill:url(#SVGID_374_);}
	.st545{fill:url(#SVGID_375_);}
	.st546{fill:url(#SVGID_376_);}
	.st547{fill:url(#SVGID_377_);}
	.st548{fill:url(#SVGID_378_);}
	.st549{fill:url(#SVGID_379_);}
	.st550{fill:url(#SVGID_380_);}
	.st551{fill:url(#SVGID_381_);}
	.st552{fill:url(#SVGID_382_);}
	.st553{fill:url(#SVGID_383_);}
	.st554{fill:url(#SVGID_384_);}
	.st555{fill:url(#SVGID_385_);}
	.st556{fill:url(#SVGID_386_);}
	.st557{fill:url(#SVGID_387_);}
	.st558{fill:url(#SVGID_388_);}
	.st559{fill:url(#SVGID_389_);}
	.st560{fill:url(#SVGID_390_);}
	.st561{fill:url(#SVGID_391_);}
	.st562{fill:url(#SVGID_392_);}
	.st563{fill:url(#SVGID_393_);}
	.st564{fill:url(#SVGID_394_);}
	.st565{fill:url(#SVGID_395_);}
	.st566{fill:url(#SVGID_396_);}
	.st567{fill:url(#SVGID_397_);}
	.st568{fill:url(#SVGID_398_);}
	.st569{fill:url(#SVGID_399_);}
	.st570{fill:url(#SVGID_400_);}
	.st571{fill:url(#SVGID_401_);}
	.st572{fill:url(#SVGID_402_);}
	.st573{fill:url(#SVGID_403_);}
	.st574{fill:url(#SVGID_404_);}
	.st575{fill:url(#SVGID_405_);}
	.st576{fill:url(#SVGID_406_);}
	.st577{fill:url(#SVGID_407_);}
	.st578{fill:url(#SVGID_408_);}
	.st579{fill:url(#SVGID_409_);}
	.st580{fill:url(#SVGID_410_);}
	.st581{fill:url(#SVGID_411_);}
	.st582{fill:url(#SVGID_412_);}
	.st583{fill:url(#SVGID_413_);}
	.st584{fill:url(#SVGID_414_);}
	.st585{fill:url(#SVGID_415_);}
	.st586{fill:url(#SVGID_416_);}
	.st587{fill:url(#SVGID_417_);}
	.st588{fill:url(#SVGID_418_);}
	.st589{fill:url(#SVGID_419_);}
	.st590{fill:url(#SVGID_420_);}
	.st591{fill:url(#SVGID_421_);}
	.st592{fill:url(#SVGID_422_);}
	.st593{fill:url(#SVGID_423_);}
	.st594{fill:url(#SVGID_424_);}
	.st595{fill:url(#SVGID_425_);}
	.st596{fill-rule:evenodd;clip-rule:evenodd;fill:url(#SVGID_426_);}
	.st597{fill:url(#SVGID_427_);}
	.st598{fill:url(#SVGID_428_);}
	.st599{fill:url(#SVGID_429_);}
	.st600{fill:url(#SVGID_430_);}
	.st601{fill:url(#SVGID_431_);}
	.st602{fill:url(#SVGID_432_);}
	.st603{fill-rule:evenodd;clip-rule:evenodd;fill:url(#SVGID_433_);}
	.st604{fill:url(#SVGID_434_);}
	.st605{fill:url(#SVGID_435_);}
	.st606{fill:url(#SVGID_436_);}
	.st607{fill:url(#SVGID_437_);}
	.st608{fill:url(#SVGID_438_);}
	.st609{fill:url(#SVGID_439_);}
	.st610{fill:url(#SVGID_440_);}
	.st611{fill-rule:evenodd;clip-rule:evenodd;fill:url(#SVGID_441_);}
	.st612{fill:url(#SVGID_442_);}
	.st613{fill:url(#SVGID_443_);}
	.st614{fill:url(#SVGID_444_);}
	.st615{fill:url(#SVGID_445_);}
	.st616{fill-rule:evenodd;clip-rule:evenodd;fill:url(#SVGID_446_);}
	.st617{fill:url(#SVGID_447_);}
	.st618{fill:url(#SVGID_448_);}
	.st619{fill:url(#SVGID_449_);}
	.st620{fill:url(#SVGID_450_);}
	.st621{fill:url(#SVGID_451_);}
	.st622{fill:url(#SVGID_452_);}
	.st623{fill:url(#SVGID_453_);}
	.st624{fill:url(#SVGID_454_);}
	.st625{fill:url(#SVGID_455_);}
	.st626{fill:url(#SVGID_456_);}
	.st627{fill:url(#SVGID_457_);}
	.st628{fill:url(#SVGID_458_);}
	.st629{fill:url(#SVGID_459_);}
	.st630{fill:url(#SVGID_460_);}
	.st631{fill:url(#SVGID_461_);}
	.st632{fill:url(#SVGID_462_);}
	.st633{fill:url(#SVGID_463_);}
	.st634{fill:url(#SVGID_464_);}
	.st635{fill:url(#SVGID_465_);}
	.st636{fill:url(#SVGID_466_);}
	.st637{fill:url(#SVGID_467_);}
	.st638{fill:url(#SVGID_468_);}
	.st639{fill:url(#SVGID_469_);}
	.st640{fill:url(#SVGID_470_);}
	.st641{fill:url(#SVGID_471_);}
	.st642{fill:url(#SVGID_472_);}
	.st643{fill:url(#SVGID_473_);}
	.st644{fill:url(#SVGID_474_);}
	.st645{fill:url(#SVGID_475_);}
	.st646{fill:url(#SVGID_476_);}
	.st647{fill:url(#SVGID_477_);}
	.st648{fill:url(#SVGID_478_);}
	.st649{fill:url(#SVGID_479_);}
	.st650{fill:url(#SVGID_480_);}
	.st651{fill:url(#SVGID_481_);}
	.st652{fill:url(#SVGID_482_);}
	.st653{fill:url(#SVGID_483_);}
	.st654{fill:url(#SVGID_484_);}
	.st655{fill:url(#SVGID_485_);}
	.st656{fill:url(#SVGID_486_);}
	.st657{fill:url(#SVGID_487_);}
	.st658{fill:url(#SVGID_488_);}
	.st659{fill:url(#SVGID_489_);}
	.st660{fill:url(#SVGID_490_);}
	.st661{fill:url(#SVGID_491_);}
	.st662{fill:url(#SVGID_492_);}
	.st663{fill:url(#SVGID_493_);}
	.st664{fill:url(#SVGID_494_);}
	.st665{fill:url(#SVGID_495_);}
	.st666{fill:url(#SVGID_496_);}
	.st667{fill:url(#SVGID_497_);}
	.st668{fill:url(#SVGID_498_);}
	.st669{fill:url(#SVGID_499_);}
	.st670{fill:url(#SVGID_500_);}
	.st671{fill:url(#SVGID_501_);}
	.st672{fill:url(#SVGID_502_);}
	.st673{fill:url(#SVGID_503_);}
	.st674{fill:url(#SVGID_504_);}
	.st675{fill:url(#SVGID_505_);}
	.st676{fill:url(#SVGID_506_);}
	.st677{fill:url(#SVGID_507_);}
	.st678{fill:url(#SVGID_508_);}
	.st679{fill:url(#SVGID_509_);}
	.st680{fill:url(#SVGID_510_);}
	.st681{fill:url(#SVGID_511_);}
	.st682{fill:url(#SVGID_512_);}
	.st683{fill:url(#SVGID_513_);}
	.st684{fill:url(#SVGID_514_);}
	.st685{fill:url(#SVGID_515_);}
	.st686{fill:url(#SVGID_516_);}
	.st687{fill:url(#SVGID_517_);}
	.st688{fill:url(#SVGID_518_);}
	.st689{fill:url(#SVGID_519_);}
	.st690{fill:url(#SVGID_520_);}
	.st691{fill:url(#SVGID_521_);}
	.st692{fill:url(#SVGID_522_);}
	.st693{fill:url(#SVGID_523_);}
	.st694{fill:url(#SVGID_524_);}
	.st695{fill:url(#SVGID_525_);}
	.st696{fill:url(#SVGID_526_);}
	.st697{fill:url(#SVGID_527_);}
	.st698{fill:url(#SVGID_528_);}
	.st699{fill:url(#SVGID_529_);}
	.st700{fill:url(#SVGID_530_);}
	.st701{fill:url(#SVGID_531_);}
	.st702{fill:url(#SVGID_532_);}
	.st703{fill:url(#SVGID_533_);}
	.st704{fill:url(#SVGID_534_);}
	.st705{fill:url(#SVGID_535_);}
	.st706{fill:url(#SVGID_536_);}
	.st707{fill:url(#SVGID_537_);}
	.st708{fill:url(#SVGID_538_);}
	.st709{fill:url(#SVGID_539_);}
	.st710{fill:url(#SVGID_540_);}
	.st711{fill:url(#SVGID_541_);}
	.st712{fill:url(#SVGID_542_);}
	.st713{fill:url(#SVGID_543_);}
	.st714{fill:url(#SVGID_544_);}
	.st715{fill:url(#SVGID_545_);}
	.st716{fill:url(#SVGID_546_);}
	.st717{fill-rule:evenodd;clip-rule:evenodd;fill:url(#SVGID_547_);}
	.st718{fill:url(#SVGID_548_);}
	.st719{fill:url(#SVGID_549_);}
	.st720{fill:url(#SVGID_550_);}
	.st721{fill:url(#SVGID_551_);}
	.st722{fill:url(#SVGID_552_);}
	.st723{fill:url(#SVGID_553_);}
	.st724{fill:url(#SVGID_554_);}
	.st725{fill:url(#SVGID_555_);}
	.st726{fill:url(#SVGID_556_);}
	.st727{fill:url(#SVGID_557_);}
	.st728{fill:url(#SVGID_558_);}
	.st729{fill:url(#SVGID_559_);}
	.st730{fill:url(#SVGID_560_);}
	.st731{fill:url(#SVGID_561_);}
	.st732{fill:url(#SVGID_562_);}
	.st733{fill:url(#SVGID_563_);}
	.st734{fill:url(#SVGID_564_);}
	.st735{fill:url(#SVGID_565_);}
	.st736{fill:url(#SVGID_566_);}
	.st737{fill-rule:evenodd;clip-rule:evenodd;fill:url(#SVGID_567_);}
	.st738{fill:url(#SVGID_568_);}
	.st739{fill:url(#SVGID_569_);}
	.st740{fill:url(#SVGID_570_);}
	.st741{fill:url(#SVGID_571_);}
	.st742{fill:url(#SVGID_572_);}
	.st743{fill:url(#SVGID_573_);}
	.st744{fill:url(#SVGID_574_);}
	.st745{fill:url(#SVGID_575_);}
	.st746{fill:url(#SVGID_576_);}
	.st747{fill:url(#SVGID_577_);}
	.st748{fill:url(#SVGID_578_);}
	.st749{fill:url(#SVGID_579_);}
	.st750{fill:url(#SVGID_580_);}
	.st751{fill:url(#SVGID_581_);}
	.st752{fill:url(#SVGID_582_);}
	.st753{fill:url(#SVGID_583_);}
	.st754{fill:url(#SVGID_584_);}
	.st755{fill:url(#SVGID_585_);}
	.st756{fill:url(#SVGID_586_);}
	.st757{fill:url(#SVGID_587_);}
	.st758{fill:url(#SVGID_588_);}
	.st759{fill:url(#SVGID_589_);}
	.st760{fill:url(#SVGID_590_);}
	.st761{opacity:0.25;fill:url(#SVGID_591_);enable-background:new    ;}
	.st762{opacity:0.25;fill:url(#SVGID_592_);enable-background:new    ;}
	.st763{opacity:0.25;fill:url(#SVGID_593_);enable-background:new    ;}
	.st764{opacity:0.25;fill:url(#SVGID_594_);enable-background:new    ;}
	.st765{opacity:0.25;fill:url(#SVGID_595_);enable-background:new    ;}
	.st766{opacity:0.25;fill:url(#SVGID_596_);enable-background:new    ;}
	.st767{fill:url(#SVGID_597_);}
	.st768{fill:url(#SVGID_598_);}
	.st769{fill:url(#SVGID_599_);}
	.st770{fill:url(#SVGID_600_);}
	.st771{stroke:#06395B;}
</style>
<g id="Lager_1">
	<rect x="1" y="1830" class="st0" width="1078" height="90"/>
	<g>
		<rect class="st43" width="1080" height="1830"/>
		<rect x="158.4" y="282.6" class="st44" width="763.1" height="338"/>
		<text transform="matrix(1 0 0 1 435.8432 338.2658)"><tspan x="0" y="0" class="st45 st46 st47">Antal </tspan><tspan x="-159.3" y="91.2" class="st45 st46 st47">miljöklassade </tspan><tspan x="-31.3" y="182.4" class="st45 st46 st47">fordon</tspan></text>
		<g>
			<defs>
				<rect id="SVGID_5_" x="18.6" y="646.1" width="972.9" height="1183.9"/>
			</defs>
			<clipPath id="SVGID_1_">
				<use xlink:href="#SVGID_5_"  style="overflow:visible;"/>
			</clipPath>
			<g style="clip-path:url(#SVGID_1_);">
				<path class="st49" d="M658.5,1445c-4.2,1.6-8.6,2.3-13.1,2c-18.8-2.5-3.3-36,0-46.3c3.3-10.2,4.5-19.3,7-28.3
					c2.5-9,9-25.4,12.7-38.5c0.2-0.4,0.3-0.8,0.3-1.2c0-0.4-0.1-0.9-0.3-1.2c-2.5,4.1-3.7,9-6.1,13.5c-2.5,4.5-5.3,11.1-7.8,16.8
					c-4.5,12.3-8.6,25-12.7,37.7c-11.7,33.1-27.9,64.5-47.9,93.4c-4.5,7.4-9,14.7-13.1,22.5c-8.3,12.5-14.4,26.4-18,41
					c-0.6,9.7-0.6,19.4,0,29.1c-0.3,7.3-1.3,14.6-2.9,21.7c-1.7,19.3-4.4,38.4-8.2,57.4l7.4-33.2c5.3-22.4,11.8-44.4,19.7-66
					c6.2-20.7,15.9-40.3,28.7-57.8c7.2-10.5,15.6-20.1,25-28.7c13-8.5,26.7-15.8,41-21.7c13.5-8.7,25.5-19.6,35.2-32.4
					c20-25,36.6-52.5,49.2-81.9c7.1-12.4,9.8-26.8,7.8-41c-11.9,19.1-22,39.3-30.3,60.2c-8.1,21-19.4,40.7-33.6,58.2
					C687,1431.5,673.4,1439.9,658.5,1445z"/>
				<path class="st50" d="M554.9,1624.4c0.2-1.1,0.2-2.2,0-3.3c1.5-7.3,2.5-14.7,2.9-22.1c-0.8-9.7-0.8-19.4,0-29.1
					c3.6-13.9,9.7-27.1,18-38.9c4.1-7.8,8.2-15.2,12.7-22.1c20.1-29.1,36.3-60.6,48.3-93.8c3.7-12.7,7.8-25.4,12.7-37.7
					c1.3-4,2.9-7.8,4.9-11.5c3.3-10.7,7.8-20.9,10.7-32c0.2-0.4,0.3-0.8,0.3-1.2c0-0.4-0.1-0.9-0.3-1.2l0,0c-2.5,4.1-3.7,9-6.1,13.5
					c-2.5,4.5-5.3,11.1-7.8,16.8c-4.5,12.3-8.6,25-12.7,37.7c-11.7,33.1-27.9,64.5-47.9,93.4c-4.5,7.4-9,14.7-13.1,22.5
					c-8.3,12.5-14.4,26.4-18,41c-0.6,9.7-0.6,19.4,0,29.1c-0.3,7.3-1.3,14.6-2.9,21.7c-1.7,19.3-4.4,38.4-8.2,57.4l7.4-33.2
					L554.9,1624.4z"/>
				<path class="st49" d="M432,1411c2.5,2.2,5.8,3.5,9.2,3.5c3.4,0,6.7-1.2,9.2-3.5c2.1-2.4,3.6-5.3,4.4-8.5
					c0.8-3.1,0.8-6.4,0.1-9.6c0-4.9-2-9.8-2.9-14.7c-4.1-20.9-8.6-41-13.1-62.7c-6.4-28.1-9.6-56.8-9.4-85.6c0,0,0,0,2,0
					c5.7,22.7,10.7,45.2,14.8,67.6c2.1,13.8,5.2,27.5,9,41c1.5,6.4,3.4,12.7,5.7,18.8c0,5.3,2.9,10.7,4.5,16
					c3.5,11.1,7.6,22.1,12.3,32.8c4.9,11.1,10.2,21.7,15.1,32.8c6.6,14.1,14,27.7,22.1,41c8.3,12.5,14.4,26.4,18,41
					c0.8,9.5,0.8,19.1,0,28.7c0.7,7.4,1.8,14.8,3.3,22.1c1.3,19.3,4.1,38.5,8.2,57.4c-2.9-11.1-5.3-22.1-7.8-33.2
					c-5.2-22.5-11.6-44.6-19.3-66.4c-6.4-20.7-16.3-40.2-29.1-57.8c-7.3-10.2-15.5-19.6-24.6-28.3c-9.6-6.3-19.6-12-29.9-17.2
					c-9.3-6.4-17.5-14.3-24.2-23.4c-21.5-20.6-35.9-47.6-41-77c2.6,7.7,6.6,14.8,11.9,20.9l19.3,28.3
					C408.7,1388.6,419.5,1400.7,432,1411z"/>
				<path class="st50" d="M441.4,1310.2c2.2,13.8,5.2,27.5,9,41c2,6.1,3.3,12.7,5.7,18.8c2.5,6.1,2.9,10.7,4.5,16
					c1.6,5.3,7.8,22.1,12.3,32.8c4.5,10.7,10.6,21.7,15.2,32.8c6.6,14.1,14,27.7,22.1,41c8.5,12.4,14.6,26.3,18,41
					c0.6,9.7,0.6,19.4,0,29.1c-0.4,2.3-0.4,4.7,0,7c2.5,9.4,5.3,19.3,7.4,29.1c2,9.8,4.9,22.1,7.8,33.2c-4.1-18.9-6.9-38.1-8.2-57.4
					c-1.5-7.3-2.6-14.7-3.3-22.1c0.8-9.5,0.8-19.1,0-28.7c-3.6-14.6-9.7-28.4-18-41c-8.1-13.2-15.5-26.9-22.1-41
					c-4.9-11.1-10.3-21.7-15.2-32.8c-4.7-10.7-8.8-21.6-12.3-32.8c0-5.3-2.9-10.7-4.5-16c-2.3-6.2-4.2-12.5-5.7-18.8
					c-3.8-13.5-6.9-27.1-9-41c-4.1-22.4-9-44.9-14.7-67.6c0,0,0,0-2,0c-0.4,7.6-0.4,15.3,0,22.9C434,1272.1,438.1,1291,441.4,1310.2
					z"/>
				<path class="st49" d="M566.8,1846v2.5c0.2,0.9,0.2,1.9,0,2.9c-4.2,4.2-9.3,7.3-14.9,9.2c-5.6,1.8-11.6,2.4-17.5,1.5
					c-14.8,0-26.6-7-29.1-14.7c0,0,0-2,0-3.3c0.9-2.1,2-4.2,3.3-6.1c1.2-1.3,2.1-2.9,2.9-4.5l2-3.7c4.4-11.3,7.2-23.2,8.2-35.2
					c2-12.7,2.9-25.4,3.7-38.1c0-28.3,0-56.5,0-84.8c-2.5-70.9,0-141.7,2.9-212.6c0-5.3,0-10.7,0-16.4c0-15.2,0-30.7,2-45.9
					c2-15.2,0-33.2,2.9-49.6c0-2.9,0-5.3,0-8.2s0-9.4,0-13.9v-11.1c0.2-3.7,0.2-7.4,0-11.1c0-3.7,0-7.4,2-11.1
					c0.5-3.7,1.2-7.4,2.1-11.1c1.2-7.1,2.9-14,4.9-20.9c0,0,0-4.9,4.1-5.3c1.2,0.6,2.2,1.6,2.9,2.9c0,0,0,2.9,0,4.5
					c0,57.4,3.3,114.7,4.5,171.6c0,36.5,0,72.9-2,109.8c0,21.3,0,42.6,0,63.9c0,29.1,2.9,58.2,3.7,87.3c0.5,23-0.5,46-2.9,68.8
					c0,14.3-3.3,28.7-4.5,43.4v2.9c0.2,0.9,0.2,1.9,0,2.9c-0.2,1.9-0.2,3.8,0,5.7c-0.2,1.5-0.2,3,0,4.5c0.4,3.7,1.7,7.2,3.7,10.2
					l2.9,3.3L566.8,1846z"/>
				<path class="st51" d="M554.9,1260.2c-5.2,19.2-8.9,38.8-11.1,58.6c-6.1,46.3-6.5,94.6-9,140.5c-3.7,70.9-5.3,141.7-2.9,212.6
					c0,28.3,0,56.5,0,84.8c-0.4,12.8-1.7,25.5-3.7,38.1c-1,12.1-3.8,23.9-8.2,35.2c-2.9,7.4-8.3,13.6-15.2,17.6c0,0,0-2,0-3.3
					c0.9-2.1,2-4.2,3.3-6.1c1.2-1.3,2.2-2.9,2.9-4.5l2-3.7c4.4-11.3,7.2-23.2,8.2-35.2c2-12.7,2.9-25.4,3.7-38.1
					c0-28.3,0-56.5,0-84.8c-2.5-70.9,0-141.7,2.9-212.6c0-5.3,0-10.7,0-16.4c0-15.2,0-30.7,2-45.9c2-15.2,0-33.2,2.9-49.6
					c0-2.9,0-5.3,0-8.2c0-2.9,0-9.4,0-13.9v-11.1c0.2-3.7,0.2-7.4,0-11.1c0-3.7,0-7.4,2-11.1c0.5-3.7,1.2-7.4,2-11.1
					c1.2-7,2.9-14,4.9-20.9c0,0,0-4.9,4.1-5.3h9V1260.2z"/>
				<path class="st50" d="M566.8,1846v2.5c0.2,0.9,0.2,1.9,0,2.9h-4.5l-4.1-2.5c-2.9-1.3-5.5-3.1-7.8-5.3c-3.9-4.2-6.7-9.2-8.1-14.7
					c-1.4-5.5-1.5-11.3-0.1-16.8c0-14.7,2.5-29.1,4.1-43.4c2.3-22.9,3.4-45.8,3.3-68.8c0-29.1-2.9-58.2-3.7-87.3c0-21.3,0-41,0-63.9
					c0-36.5,2.5-73.3,0-109.8c-2.5-36.5,0-79.5-2.9-119.2v-37.7c1.2-7,2.9-14,4.9-20.9c0,0,0-4.9,4.1-5.3c1.2,0.6,2.2,1.6,2.9,2.9
					c0,0,0,2.9,0,4.5c0,57.4,3.3,114.7,4.5,171.6c0,36.5,0,72.9-2,109.8c0,21.3,0,42.6,0,63.9c0,29.1,2.9,58.2,3.7,87.3
					c0.5,23-0.5,46-2.9,68.8c0,14.3-3.3,28.7-4.5,43.4v2.9c0.2,0.9,0.2,1.9,0,2.9c-0.2,1.9-0.2,3.8,0,5.7c-0.2,1.5-0.2,3,0,4.5
					c0.4,3.7,1.7,7.2,3.7,10.2l2.9,3.3L566.8,1846z"/>
				<path class="st52" d="M336.1,1124.6c-19.7-7.4-38.1-55.7-38.1-55.7c14.4-6.9,29.5-12.2,45.1-15.6v-7c-12,0.8-24.1,0.8-36.1,0
					c0,0,4.5-53.7,20.5-67.2l4.1-2.5c-17.9-12.6-33.3-28.6-45.1-47.1c17.1-11.7,36.1-20.4,56.1-25.8c-8.2-1.8-15.9-5.8-22.1-11.5
					c-14.3-15.6-9-67.2-9-67.2c10.6,0.1,21.1,1.1,31.6,2.9v-5.7l16.8,9.8c3,0.8,5.9,1.9,8.6,3.3c20.2-7.3,41.6-10.7,63.1-10.2
					c0,0,0,11.1,0,25h0.4c12.3,2.5,26.2,18.8,36,32c11-6.4,22.5-11.9,34.4-16.4c3.9,10.3,7,20.8,9.4,31.5c0,2,13.1,0,14.8,0
					c5-2.4,9.7-5.2,14.3-8.2c2.6-2,5.6-3.4,8.8-4.2c3.2-0.8,6.5-0.9,9.7-0.3c0.3-0.2,0.7-0.3,1-0.3c0.4,0,0.7,0.1,1,0.3
					c0.2,0.8,0.2,1.7,0,2.5c2,8.6,0,18.8,4.1,27.4c4.1,8.6,0,4.9,6.6,3.3h5.3c0,0,19.3,50.4,10.7,69.6c-1.8,3.4-4.2,6.4-7,9
					c0.2,14.5-3.8,28.7-11.5,41c10,5.7,19.6,12.1,28.7,19.3c-10,12.8-21.4,24.5-34,34.8c9.7,18.7,14.1,39.6,12.7,60.6
					c-1,2.7-2.6,5.2-4.5,7.4c15,16.4,25.9,36,31.9,57.4c-6.8,2.7-13.8,5-20.9,7c-0.6,3.1-0.6,6.3,0,9.4c0,6.6,8.6,8.2,14.7,11.5
					c6.1,3.3,0,0,0,0c-4.3,7.8-10,14.7-16.8,20.5c-4.5,3.7-11,5.7-13.5,11.1c-7,13.5,14.3,11.9,23.4,13.9c0,0-7.8,49.2-24.6,61.9
					v31.1c2.3,8.2,2.3,16.8,0,25v26.6l-6.6-3.7c-3.7,10.2-7.4,18-7.4,18s-48.8-17.6-56.5-37.3c-1.1-2.6-1.8-5.4-2-8.2
					c-10.7,9.4-22.2,17.7-34.4,25c-8.9-13.5-16.3-27.9-22.1-43c-1.6,1.9-3.4,3.5-5.3,4.9c-18.4,10.2-68-4.9-68-4.9
					c2.8-11.7,6.5-23.2,11-34.4c-15.7,4-31.8,6-47.9,6.1c0,0-4.1-52,10.2-67.2c2.6-2.9,5.8-5.2,9.4-6.6
					c-15.6-14.1-28.6-30.7-38.5-49.2c0,0,13.9-7,14.7-7.4c4.1-1.8,8.4-3.3,12.7-4.5c1.9-0.6,3.5-1.9,4.6-3.7c1-1.7,1.5-3.8,1.2-5.8
					c-1-2.8-2.7-5.4-4.9-7.4l-6.5-7c-0.2-0.9-0.2-1.9,0-2.9c-9.8-11.3-18.4-23.5-25.8-36.5c12.9-8.1,26.7-14.8,41-20.1v-10.7
					L336.1,1124.6z"/>
				<path class="st53" d="M771.6,1124.6c19.7-7.4,38.1-55.7,38.1-55.7c-14.4-6.9-29.5-12.2-45.1-15.6v-7c12,0.8,24,0.8,36,0
					c0,0-4.5-53.7-20.5-67.2l-4.1-2.5c17.9-12.6,33.2-28.6,45.1-47.1C804,918,785.1,909.2,765,903.8c8.3-1.9,16.1-5.9,22.5-11.5
					c13.9-15.6,8.6-67.2,8.6-67.2c-10.6,0.1-21.1,1.1-31.5,2.9v-5.7l-16.8,9.8c-3,0.8-5.8,1.9-8.6,3.3
					c-20.2-7.3-41.6-10.7-63.1-10.2c-0.5,8.3-0.5,16.7,0,25h-2.9c-11.9,2.5-26.2,18.8-36.1,32c-11-6.4-22.5-11.9-34.4-16.4
					c-3.9,10.3-7,20.8-9.4,31.5c0,2-12.7,0-14.3,0c-5.1-2.3-10.1-5.1-14.7-8.2c-2.6-2-5.6-3.4-8.8-4.2c-3.2-0.8-6.5-0.9-9.7-0.3
					c-0.3-0.2-0.7-0.3-1-0.3c-0.3,0-0.7,0.1-1,0.3c-0.2,0.8-0.2,1.7,0,2.5c-2,8.6,0,18.8-4.1,27.4c-4.1,8.6,0,4.9-6.1,3.3h-5.7
					c0,0-19.3,50.4-10.7,69.6c1.8,3.5,4.3,6.5,7.4,9c-0.5,14.5,3.3,28.7,11.1,41c-10,5.7-19.6,12.1-28.7,19.3
					c10,12.8,21.4,24.5,34,34.8c-9.7,18.7-14.1,39.6-12.7,60.6c1,2.7,2.6,5.2,4.5,7.4c-15,16.4-25.9,36-32,57.4
					c6.8,2.7,13.8,5,20.9,7c0.6,3.1,0.6,6.3,0,9.4c0,6.6-8.6,8.2-14.7,11.5c-6.2,3.3,0,0,0,0c4.3,7.8,10,14.7,16.8,20.5
					c4.5,3.7,11.1,5.7,13.9,11.1c6.5,13.5-14.8,11.9-23.8,13.9c0,0,7.8,49.2,24.6,61.9v31.1c-2.3,8.2-2.3,16.8,0,25v26.6l6.6-3.7
					c3.7,10.2,7.4,18,7.4,18s48.8-17.6,56.9-37.3c0.2-2.7,0.2-5.5,0-8.2c10.7,9.4,22.2,17.7,34.4,25c9.1-13.4,16.5-27.8,22.1-43
					c1.6,1.9,3.4,3.5,5.3,4.9c18.4,10.2,68-4.9,68-4.9c-2.8-11.7-6.5-23.2-11-34.4c15.7,4,31.8,6,47.9,6.1c0,0,4.1-52-10.3-67.2
					c-2.6-2.9-5.8-5.2-9.4-6.6c15.6-14.1,28.6-30.7,38.5-49.2c0,0-13.9-7-14.7-7.4c-4.1-1.9-8.3-3.4-12.7-4.5
					c-1.9-0.7-3.5-2-4.4-3.7c-1-1.7-1.3-3.8-0.9-5.7c0.7-2.9,2.3-5.5,4.5-7.4l6.5-7c0.2-0.9,0.2-1.9,0-2.9
					c9.8-11.3,18.4-23.5,25.8-36.5c-12.9-8.1-26.7-14.8-41-20.1v-10.7L771.6,1124.6z"/>
				<path class="st54" d="M735.1,780.1h-6.5l-13.9-8.2c0.2-0.9,0.2-1.9,0-2.9c-3.3-22.5-51.2-56.9-51.2-56.9s-4.1,5.7-9.4,14.3
					c-5.3-22.5-55.7-53.3-55.7-53.3s-4.1,7-9,16.8c-14-14.8-29.8-27.8-47.1-38.5c-8.9,14.5-16.3,29.9-22.1,45.9
					c-3.3-8.6-6.1-14.3-6.1-14.3s-52.8,20.5-61.4,41c-1.1,5.4-1.1,11,0,16.4h-2c-19.7-1.2-39.4,0.4-58.6,4.9
					c1.3,8.8,3.1,17.6,5.3,26.2l-13.5,7.8c-5-2.4-10.5-3.5-16-3.3c-22.9,0-60.6,46.7-60.6,46.7s44.6,38.1,67.6,36
					c3.6-0.2,7.1-1.2,10.2-2.9h2c-0.2,1.2-0.2,2.5,0,3.7c2.9,22.9,49.6,55.3,49.6,55.3s7.4-9,15.6-21.3l8.6,4.9
					c9.2,19.1,21.3,36.8,35.6,52.4c7.1-6.3,13.8-13,20.1-20.1l7,3.7c1,2.3,2.4,4.3,4.1,6.1c7.5,6,16.4,9.9,25.8,11.5h3.7
					c14.6,2.8,29.4,4.3,44.2,4.5c0,0,0-13.1,0-29.1c7.9,8.3,16.3,16,25.4,22.9c13.5-16.8,24.2-35.6,31.9-55.7l6.6-4.1
					c9.2,9.6,19.1,18.7,29.5,27c14.8-18.4,26-39.4,33.2-61.9c5.2,2.3,10.8,3.4,16.4,3.3c22.9-2.5,59.8-48.3,59.8-48.3
					S759.7,778.1,735.1,780.1z"/>
			</g>
			<use xlink:href="#SVGID_5_"  style="overflow:visible;fill:none;stroke:#00AEEF;"/>
		</g>
		<text transform="matrix(1 0 0 1 350.2638 1234.5479)" class="st55 st46 st56">38%</text>
	</g>
	<g>
		<defs>
			<polygon id="SVGID_31_" points="3586.5,2258.5 2506.5,2893.7 2506.5,2116.2 3586.5,2115 			"/>
		</defs>
		<clipPath id="SVGID_2_">
			<use xlink:href="#SVGID_31_"  style="overflow:visible;"/>
		</clipPath>
		<g style="clip-path:url(#SVGID_2_);">
			<defs>
				<rect id="SVGID_33_" x="2506.5" y="2109.4" width="1114.1" height="1120.1"/>
			</defs>
			<clipPath id="SVGID_3_">
				<use xlink:href="#SVGID_33_"  style="overflow:visible;"/>
			</clipPath>
			<g style="clip-path:url(#SVGID_3_);">
				<path class="st89" d="M2558.5,3953L307.9,2656.4l2364.3-1366.2l2250.6,1296.6L2558.5,3953z"/>
				<path class="st19" d="M2390.3,1441.9l-1695,978.9L1999,3175l1695-978.9L2390.3,1441.9z"/>
				<path class="st90" d="M1829.7,1763.7L695.4,2420.8L1999,3175L3133.4,2518L1829.7,1763.7z"/>
				<path class="st92" d="M2523.4,1203.3l720.3,415.8l-1450.1,835.6l-720.3-415.8L2523.4,1203.3z"/>
			</g>
		</g>
	</g>
</g>
<g id="Ramar">
	<path d="M0-0.7v1920h1080V-0.7H0z M1109.2,1958.1H-29.2V-38.1h1138.4V1958.1z"/>
</g>
</svg>
