<?xml version="1.0" encoding="utf-8"?>
<!-- Generator: Adobe Illustrator 24.0.0, SVG Export Plug-In . SVG Version: 6.00 Build 0)  -->
<svg version="1.1" xmlns="http://www.w3.org/2000/svg" xmlns:xlink="http://www.w3.org/1999/xlink" x="0px" y="0px"
	 viewBox="0 0 1080 1920" style="enable-background:new 0 0 1080 1920;" xml:space="preserve">
<style type="text/css">
	.st0{fill:#FFFFFF;}
	.st1{fill:#00AEEF;}
	.st2{fill:#91651F;}
	.st3{fill:#AA7723;}
	.st4{fill:#855107;}
	.st5{fill:#567601;}
	.st6{fill:#638800;}
	.st7{fill:#769C11;}
	.st8{fill:#06395B;}
	.st9{fill:#414C5C;}
	.st10{fill:#293237;}
	.st11{fill:url(#SVGID_1_);}
	.st12{fill:#A1A1A1;}
	.st13{fill:url(#SVGID_2_);}
	.st14{fill:#D3D3D3;}
	.st15{fill:#B6B6B6;}
	.st16{fill:url(#SVGID_3_);}
	.st17{fill:url(#SVGID_4_);}
	.st18{fill:#73A538;}
	.st19{fill:#79B53B;}
	.st20{fill:#577729;}
	.st21{fill:#546672;}
	.st22{fill:#409E4E;}
	.st23{fill:#529BA3;}
	.st24{fill:#141E25;}
	.st25{fill:#9CB7D2;}
	.st26{fill:#768A99;}
	.st27{fill:#C4C4C4;}
	.st28{fill:#BED5DF;}
	.st29{fill:#12181D;}
	.st30{fill:#EFEC82;}
	.st31{fill:#D3A944;}
	.st32{fill:#E8F0F3;}
	.st33{fill:#88D5DE;}
	.st34{fill:#3D7D87;}
	.st35{fill:#3E2F37;}
	.st36{fill:#95C9B1;}
	.st37{fill:#E08A35;}
	.st38{fill:#E06E18;}
	.st39{fill:#E0AB35;}
	.st40{fill:#5B949C;}
	.st41{fill:none;stroke:#FFFFFF;stroke-width:1.4862;stroke-miterlimit:10;}
	.st42{fill:none;stroke:#FFFFFF;stroke-width:1.4862;stroke-miterlimit:10;stroke-dasharray:6.0118,6.0118;}
	.st43{fill:#00AEEF;stroke:#00AEEF;}
	.st44{clip-path:url(#SVGID_6_);}
	.st45{fill:#91651F;stroke:#00AEEF;}
	.st46{fill:#AA7723;stroke:#00AEEF;}
	.st47{fill:#855107;stroke:#00AEEF;}
	.st48{fill:#567601;stroke:#00AEEF;}
	.st49{fill:#638800;stroke:#00AEEF;}
	.st50{fill:#769C11;stroke:#00AEEF;}
	.st51{font-family:'UnitPro-Bold';}
	.st52{font-size:117.8917px;}
	.st53{fill:#1595BC;}
	.st54{fill:url(#SVGID_7_);}
	.st55{fill:url(#SVGID_8_);}
	.st56{fill:url(#SVGID_9_);}
	.st57{fill:url(#SVGID_10_);}
	.st58{fill:url(#SVGID_11_);}
	.st59{fill:url(#SVGID_12_);}
	.st60{fill:url(#SVGID_13_);}
	.st61{fill:url(#SVGID_14_);}
	.st62{font-size:67.9268px;}
	.st63{font-family:'UnitPro';}
	.st64{font-size:101px;}
	.st65{fill:#FFFFFF;stroke:#06395B;}
	.st66{fill:#06395B;stroke:#06395B;}
	.st67{fill:#00AEEF;stroke:#06395B;}
	.st68{fill:url(#SVGID_15_);}
	.st69{fill:url(#SVGID_16_);}
	.st70{fill:url(#SVGID_17_);}
	.st71{fill:url(#SVGID_18_);}
	.st72{fill:none;stroke:#FFFFFF;stroke-width:3;stroke-miterlimit:10;}
	.st73{fill:none;stroke:#FFFFFF;stroke-width:3;stroke-miterlimit:10;stroke-dasharray:12.135,12.135;}
	.st74{fill:url(#SVGID_19_);}
	.st75{fill:url(#SVGID_20_);}
	.st76{fill:url(#SVGID_21_);}
	.st77{fill:url(#SVGID_22_);}
	.st78{fill:url(#SVGID_23_);}
	.st79{fill:url(#SVGID_24_);}
	.st80{fill:url(#SVGID_25_);}
	.st81{fill:url(#SVGID_26_);}
	.st82{fill:url(#SVGID_27_);}
	.st83{fill:url(#SVGID_28_);}
	.st84{fill:url(#SVGID_29_);}
	.st85{fill:url(#SVGID_30_);}
	.st86{clip-path:url(#SVGID_32_);}
	.st87{clip-path:url(#SVGID_34_);}
	.st88{fill:#6E7071;}
	.st89{fill:#C9C9C9;}
	.st90{fill:#DBCC65;}
	.st91{fill:#EFEFEF;}
	.st92{fill:#B5AC96;}
	.st93{fill:#D1D1D1;}
	.st94{fill:#686868;}
	.st95{fill:url(#SVGID_35_);}
	.st96{fill:url(#SVGID_36_);}
	.st97{fill:#9C9C9C;}
	.st98{fill:#3D3D3D;}
	.st99{fill:url(#SVGID_37_);}
	.st100{fill:url(#SVGID_38_);}
	.st101{fill:url(#SVGID_39_);}
	.st102{fill:url(#SVGID_40_);}
	.st103{fill:url(#SVGID_41_);}
	.st104{fill:url(#SVGID_42_);}
	.st105{fill:#BABABA;}
	.st106{fill:url(#SVGID_43_);}
	.st107{fill:url(#SVGID_44_);}
	.st108{fill:#CECCCA;}
	.st109{fill:#96EB4B;}
	.st110{fill:#5AB42C;}
	.st111{fill:#ADA9A5;}
	.st112{fill:#C6BEB7;}
	.st113{fill:#E1D7AD;}
	.st114{fill:#E8D558;}
	.st115{fill:#CAC7D0;}
	.st116{fill:#AD964C;}
	.st117{fill:url(#SVGID_45_);}
	.st118{fill:url(#SVGID_46_);}
	.st119{fill:url(#SVGID_47_);}
	.st120{fill:url(#SVGID_48_);}
	.st121{fill:url(#SVGID_49_);}
	.st122{fill:url(#SVGID_50_);}
	.st123{fill:url(#SVGID_51_);}
	.st124{fill:url(#SVGID_52_);}
	.st125{fill:url(#SVGID_53_);}
	.st126{fill:url(#SVGID_54_);}
	.st127{fill:url(#SVGID_55_);}
	.st128{fill:url(#SVGID_56_);}
	.st129{fill:url(#SVGID_57_);}
	.st130{fill:url(#SVGID_58_);}
	.st131{fill:url(#SVGID_59_);}
	.st132{fill:url(#SVGID_60_);}
	.st133{fill:url(#SVGID_61_);}
	.st134{fill:#4F4743;}
	.st135{fill:#877A75;}
	.st136{fill:#322F36;}
	.st137{fill:#417C23;}
	.st138{fill:#053056;}
	.st139{fill:#084985;}
	.st140{fill:#0C5EAA;}
	.st141{fill:#C6CCDA;}
	.st142{fill:#ABA06F;}
	.st143{fill:#E8C589;}
	.st144{fill:#F5F5F5;}
	.st145{fill:url(#SVGID_62_);}
	.st146{fill:#FDCB54;}
	.st147{fill:#FFDA5B;}
	.st148{fill:#BB772D;}
	.st149{fill:#AD7434;}
	.st150{fill:#D8AD45;}
	.st151{fill:url(#SVGID_63_);}
	.st152{fill:url(#SVGID_64_);}
	.st153{fill:url(#SVGID_65_);}
	.st154{fill:url(#SVGID_66_);}
	.st155{fill:url(#SVGID_67_);}
	.st156{fill:#8BB3BA;}
	.st157{fill:#DFECF2;}
	.st158{fill:#87B9A2;}
	.st159{fill:#658975;}
	.st160{fill:#F5FAFF;}
	.st161{fill:url(#SVGID_68_);}
	.st162{fill:url(#SVGID_69_);}
	.st163{fill:url(#SVGID_70_);}
	.st164{fill:url(#SVGID_71_);}
	.st165{fill:url(#SVGID_72_);}
	.st166{fill:#918B86;}
	.st167{fill:#CACACA;}
	.st168{fill:#8B8B8B;}
	.st169{fill:#FF816F;}
	.st170{fill:url(#SVGID_73_);}
	.st171{fill:url(#SVGID_74_);}
	.st172{fill:#F0F0F0;}
	.st173{fill:url(#SVGID_75_);}
	.st174{fill:#B6BDCC;}
	.st175{fill:#C4A9AD;}
	.st176{fill:#B7A176;}
	.st177{fill:#C8BCA8;}
	.st178{fill:url(#SVGID_76_);}
	.st179{fill:url(#SVGID_77_);}
	.st180{fill:url(#SVGID_78_);}
	.st181{fill:url(#SVGID_79_);}
	.st182{fill:url(#SVGID_80_);}
	.st183{fill:url(#SVGID_81_);}
	.st184{fill:url(#SVGID_82_);}
	.st185{fill:url(#SVGID_83_);}
	.st186{fill:url(#SVGID_84_);}
	.st187{fill:url(#SVGID_85_);}
	.st188{fill:url(#SVGID_86_);}
	.st189{fill:url(#SVGID_87_);}
	.st190{fill:url(#SVGID_88_);}
	.st191{fill:#9F9E9E;}
	.st192{fill:#858482;}
	.st193{fill:#C0C0C0;}
	.st194{fill:#C8D4D4;}
	.st195{fill:#A2B3AF;}
	.st196{fill:#E1F0F0;}
	.st197{fill:#BDCCCC;}
	.st198{fill:#3A8ABF;}
	.st199{fill:#F4FAFC;}
	.st200{fill:url(#SVGID_89_);}
	.st201{fill:url(#SVGID_90_);}
	.st202{fill:url(#SVGID_91_);}
	.st203{fill:url(#SVGID_92_);}
	.st204{fill:url(#SVGID_93_);}
	.st205{fill:#BA9008;}
	.st206{fill:#F2D035;}
	.st207{fill:#B97005;}
	.st208{fill:#895005;}
	.st209{fill:#FFE642;}
	.st210{fill:#BB8131;}
	.st211{fill:url(#SVGID_94_);}
	.st212{fill:url(#SVGID_95_);}
	.st213{fill:url(#SVGID_96_);}
	.st214{fill:url(#SVGID_97_);}
	.st215{fill:url(#SVGID_98_);}
	.st216{fill:url(#SVGID_99_);}
	.st217{fill:url(#SVGID_100_);}
	.st218{fill:url(#SVGID_101_);}
	.st219{fill:url(#SVGID_102_);}
	.st220{fill:url(#SVGID_103_);}
	.st221{fill:#B5BBB8;}
	.st222{fill:url(#SVGID_104_);}
	.st223{fill:url(#SVGID_105_);}
	.st224{fill:url(#SVGID_106_);}
	.st225{fill:url(#SVGID_107_);}
	.st226{fill:url(#SVGID_108_);}
	.st227{fill:url(#SVGID_109_);}
	.st228{fill:url(#SVGID_110_);}
	.st229{fill:url(#SVGID_111_);}
	.st230{fill:url(#SVGID_112_);}
	.st231{fill:url(#SVGID_113_);}
	.st232{fill:#6EDAE0;}
	.st233{fill:#1184B4;}
	.st234{fill:#0D6990;}
	.st235{fill:#0D6991;}
	.st236{fill:#AD4848;}
	.st237{fill:#590404;}
	.st238{fill:#E03835;}
	.st239{fill:#E0C5A0;}
	.st240{fill:url(#SVGID_114_);}
	.st241{fill:url(#SVGID_115_);}
	.st242{fill:url(#SVGID_116_);}
	.st243{fill:url(#SVGID_117_);}
	.st244{fill:url(#SVGID_118_);}
	.st245{fill:#CF4242;}
	.st246{fill:#E35959;}
	.st247{fill:#B11414;}
	.st248{fill:#E45656;}
	.st249{fill:#266B76;}
	.st250{fill:url(#SVGID_119_);}
	.st251{fill:#4A4A4A;}
	.st252{fill:#595959;}
	.st253{fill:#6C6C6C;}
	.st254{fill:#7D7D7D;}
	.st255{fill:url(#SVGID_120_);}
	.st256{fill:url(#SVGID_121_);}
	.st257{fill:#919191;}
	.st258{fill:url(#SVGID_122_);}
	.st259{fill:url(#SVGID_123_);}
	.st260{fill:url(#SVGID_124_);}
	.st261{fill:url(#SVGID_125_);}
	.st262{fill:#6A6A6A;}
	.st263{fill:url(#SVGID_126_);}
	.st264{fill:url(#SVGID_127_);}
	.st265{fill:url(#SVGID_128_);}
	.st266{fill:url(#SVGID_129_);}
	.st267{fill:url(#SVGID_130_);}
	.st268{fill:url(#SVGID_131_);}
	.st269{fill:url(#SVGID_132_);}
	.st270{fill-rule:evenodd;clip-rule:evenodd;fill:url(#SVGID_133_);}
	.st271{fill:url(#SVGID_134_);}
	.st272{fill:url(#SVGID_135_);}
	.st273{fill:url(#SVGID_136_);}
	.st274{fill:url(#SVGID_137_);}
	.st275{fill:url(#SVGID_138_);}
	.st276{fill:url(#SVGID_139_);}
	.st277{fill-rule:evenodd;clip-rule:evenodd;fill:url(#SVGID_140_);}
	.st278{fill:url(#SVGID_141_);}
	.st279{fill:url(#SVGID_142_);}
	.st280{fill:url(#SVGID_143_);}
	.st281{fill:url(#SVGID_144_);}
	.st282{fill:url(#SVGID_145_);}
	.st283{fill:url(#SVGID_146_);}
	.st284{fill:url(#SVGID_147_);}
	.st285{fill-rule:evenodd;clip-rule:evenodd;fill:url(#SVGID_148_);}
	.st286{opacity:0.9;fill:#191919;enable-background:new    ;}
	.st287{fill:url(#SVGID_149_);}
	.st288{fill:url(#SVGID_150_);}
	.st289{fill:url(#SVGID_151_);}
	.st290{fill:url(#SVGID_152_);}
	.st291{fill:#363636;}
	.st292{fill:#242424;}
	.st293{fill:#191919;}
	.st294{fill:#171717;}
	.st295{fill-rule:evenodd;clip-rule:evenodd;fill:url(#SVGID_153_);}
	.st296{fill:url(#SVGID_154_);}
	.st297{fill:url(#SVGID_155_);}
	.st298{fill:url(#SVGID_156_);}
	.st299{fill:url(#SVGID_157_);}
	.st300{fill:url(#SVGID_158_);}
	.st301{fill:url(#SVGID_159_);}
	.st302{fill:#A2A2A2;}
	.st303{fill:url(#SVGID_160_);}
	.st304{fill:url(#SVGID_161_);}
	.st305{fill:url(#SVGID_162_);}
	.st306{fill:url(#SVGID_163_);}
	.st307{fill:url(#SVGID_164_);}
	.st308{fill:url(#SVGID_165_);}
	.st309{fill:url(#SVGID_166_);}
	.st310{fill:url(#SVGID_167_);}
	.st311{fill:#DBDBDB;}
	.st312{fill:url(#SVGID_168_);}
	.st313{fill:url(#SVGID_169_);}
	.st314{fill:url(#SVGID_170_);}
	.st315{fill:#818181;}
	.st316{fill:#808080;}
	.st317{fill:#8C8C8C;}
	.st318{fill:#A7A7A7;}
	.st319{fill:url(#SVGID_171_);}
	.st320{fill:url(#SVGID_172_);}
	.st321{fill:url(#SVGID_173_);}
	.st322{fill:url(#SVGID_174_);}
	.st323{fill:url(#SVGID_175_);}
	.st324{fill:url(#SVGID_176_);}
	.st325{fill:url(#SVGID_177_);}
	.st326{fill:url(#SVGID_178_);}
	.st327{fill:url(#SVGID_179_);}
	.st328{fill:url(#SVGID_180_);}
	.st329{fill:url(#SVGID_181_);}
	.st330{fill:url(#SVGID_182_);}
	.st331{fill:url(#SVGID_183_);}
	.st332{fill:url(#SVGID_184_);}
	.st333{fill:url(#SVGID_185_);}
	.st334{fill:#B3B3B3;}
	.st335{fill:url(#SVGID_186_);}
	.st336{fill:#BFBFBF;}
	.st337{fill:url(#SVGID_187_);}
	.st338{fill:#929292;}
	.st339{fill:#C2C2C2;}
	.st340{fill:url(#SVGID_188_);}
	.st341{fill:url(#SVGID_189_);}
	.st342{fill:url(#SVGID_190_);}
	.st343{fill:url(#SVGID_191_);}
	.st344{fill:url(#SVGID_192_);}
	.st345{fill:url(#SVGID_193_);}
	.st346{fill:url(#SVGID_194_);}
	.st347{fill:url(#SVGID_195_);}
	.st348{fill:url(#SVGID_196_);}
	.st349{fill:url(#SVGID_197_);}
	.st350{fill:url(#SVGID_198_);}
	.st351{fill:url(#SVGID_199_);}
	.st352{fill:url(#SVGID_200_);}
	.st353{fill:url(#SVGID_201_);}
	.st354{fill:url(#SVGID_202_);}
	.st355{fill:url(#SVGID_203_);}
	.st356{fill:url(#SVGID_204_);}
	.st357{fill:url(#SVGID_205_);}
	.st358{fill:url(#SVGID_206_);}
	.st359{fill:url(#SVGID_207_);}
	.st360{fill:url(#SVGID_208_);}
	.st361{fill:url(#SVGID_209_);}
	.st362{fill:url(#SVGID_210_);}
	.st363{fill:url(#SVGID_211_);}
	.st364{fill:url(#SVGID_212_);}
	.st365{fill:url(#SVGID_213_);}
	.st366{fill:url(#SVGID_214_);}
	.st367{fill:url(#SVGID_215_);}
	.st368{fill:#B0B0B0;}
	.st369{fill:#A4A4A4;}
	.st370{fill:url(#SVGID_216_);}
	.st371{fill:url(#SVGID_217_);}
	.st372{fill:#B5B5B5;}
	.st373{fill:url(#SVGID_218_);}
	.st374{fill:url(#SVGID_219_);}
	.st375{fill:url(#SVGID_220_);}
	.st376{fill:url(#SVGID_221_);}
	.st377{fill:url(#SVGID_222_);}
	.st378{fill:url(#SVGID_223_);}
	.st379{fill:url(#SVGID_224_);}
	.st380{fill:url(#SVGID_225_);}
	.st381{fill:url(#SVGID_226_);}
	.st382{fill:url(#SVGID_227_);}
	.st383{fill:url(#SVGID_228_);}
	.st384{fill:url(#SVGID_229_);}
	.st385{fill:url(#SVGID_230_);}
	.st386{fill:url(#SVGID_231_);}
	.st387{fill:url(#SVGID_232_);}
	.st388{fill:url(#SVGID_233_);}
	.st389{fill:url(#SVGID_234_);}
	.st390{fill:url(#SVGID_235_);}
	.st391{fill:url(#SVGID_236_);}
	.st392{fill:url(#SVGID_237_);}
	.st393{fill:url(#SVGID_238_);}
	.st394{fill:url(#SVGID_239_);}
	.st395{fill:url(#SVGID_240_);}
	.st396{fill:url(#SVGID_241_);}
	.st397{fill:url(#SVGID_242_);}
	.st398{fill:url(#SVGID_243_);}
	.st399{fill:url(#SVGID_244_);}
	.st400{fill:url(#SVGID_245_);}
	.st401{fill:url(#SVGID_246_);}
	.st402{fill:url(#SVGID_247_);}
	.st403{fill:url(#SVGID_248_);}
	.st404{fill:url(#SVGID_249_);}
	.st405{fill:url(#SVGID_250_);}
	.st406{fill:url(#SVGID_251_);}
	.st407{fill:url(#SVGID_252_);}
	.st408{fill:url(#SVGID_253_);}
	.st409{fill-rule:evenodd;clip-rule:evenodd;fill:#E7E7E7;}
	.st410{fill-rule:evenodd;clip-rule:evenodd;fill:url(#SVGID_254_);}
	.st411{opacity:0.35;}
	.st412{fill:url(#SVGID_255_);}
	.st413{fill:url(#SVGID_256_);}
	.st414{fill:url(#SVGID_257_);}
	.st415{fill:url(#SVGID_258_);}
	.st416{fill:url(#SVGID_259_);}
	.st417{fill:url(#SVGID_260_);}
	.st418{fill:url(#SVGID_261_);}
	.st419{fill:url(#SVGID_262_);}
	.st420{fill:url(#SVGID_263_);}
	.st421{fill:url(#SVGID_264_);}
	.st422{fill:url(#SVGID_265_);}
	.st423{fill:url(#SVGID_266_);}
	.st424{fill:url(#SVGID_267_);}
	.st425{fill:url(#SVGID_268_);}
	.st426{opacity:0.5;fill:#191919;enable-background:new    ;}
	.st427{fill:url(#SVGID_269_);}
	.st428{fill:#050603;}
	.st429{fill-rule:evenodd;clip-rule:evenodd;}
	.st430{fill:url(#SVGID_270_);}
	.st431{fill:url(#SVGID_271_);}
	.st432{fill:url(#SVGID_272_);}
	.st433{fill-rule:evenodd;clip-rule:evenodd;fill:#B3B3B3;}
	.st434{fill:url(#SVGID_273_);}
	.st435{opacity:0.75;fill:#191919;enable-background:new    ;}
	.st436{fill-rule:evenodd;clip-rule:evenodd;fill:url(#SVGID_274_);}
	.st437{fill:#690202;}
	.st438{fill:#CCCCCC;}
	.st439{fill:url(#SVGID_275_);}
	.st440{fill:url(#SVGID_276_);}
	.st441{fill:#DEDEDE;}
	.st442{fill:url(#SVGID_277_);}
	.st443{fill:url(#SVGID_278_);}
	.st444{opacity:0.23;}
	.st445{fill:url(#SVGID_279_);}
	.st446{fill:url(#SVGID_280_);}
	.st447{fill:url(#SVGID_281_);}
	.st448{fill:url(#SVGID_282_);}
	.st449{fill:url(#SVGID_283_);}
	.st450{fill:url(#SVGID_284_);}
	.st451{fill:url(#SVGID_285_);}
	.st452{fill:url(#SVGID_286_);}
	.st453{opacity:0.64;}
	.st454{fill:url(#SVGID_287_);}
	.st455{fill:url(#SVGID_288_);}
	.st456{fill:#040404;}
	.st457{fill:url(#SVGID_289_);}
	.st458{fill:url(#SVGID_290_);}
	.st459{fill:url(#SVGID_291_);}
	.st460{fill:url(#SVGID_292_);}
	.st461{fill:url(#SVGID_293_);}
	.st462{fill:url(#SVGID_294_);}
	.st463{fill:url(#SVGID_295_);}
	.st464{fill:url(#SVGID_296_);}
	.st465{fill:url(#SVGID_297_);}
	.st466{opacity:0.25;fill:url(#SVGID_298_);enable-background:new    ;}
	.st467{opacity:0.25;fill:url(#SVGID_299_);enable-background:new    ;}
	.st468{opacity:0.25;fill:url(#SVGID_300_);enable-background:new    ;}
	.st469{opacity:0.25;fill:url(#SVGID_301_);enable-background:new    ;}
	.st470{fill:#E6E6E6;}
	.st471{fill:#430202;}
	.st472{fill:#370202;}
	.st473{opacity:0.25;fill:url(#SVGID_302_);enable-background:new    ;}
	.st474{opacity:0.25;fill:url(#SVGID_303_);enable-background:new    ;}
	.st475{fill:url(#SVGID_304_);}
	.st476{fill:url(#SVGID_305_);}
	.st477{fill:url(#SVGID_306_);}
	.st478{fill:url(#SVGID_307_);}
	.st479{fill:url(#SVGID_308_);}
	.st480{fill:url(#SVGID_309_);}
	.st481{fill:url(#SVGID_310_);}
	.st482{fill:url(#SVGID_311_);}
	.st483{fill:url(#SVGID_312_);}
	.st484{fill:url(#SVGID_313_);}
	.st485{fill:url(#SVGID_314_);}
	.st486{fill:url(#SVGID_315_);}
	.st487{fill:url(#SVGID_316_);}
	.st488{fill:url(#SVGID_317_);}
	.st489{fill:url(#SVGID_318_);}
	.st490{fill:url(#SVGID_319_);}
	.st491{fill:url(#SVGID_320_);}
	.st492{fill:url(#SVGID_321_);}
	.st493{fill:url(#SVGID_322_);}
	.st494{fill:url(#SVGID_323_);}
	.st495{clip-path:url(#SVGID_325_);}
	.st496{clip-path:url(#SVGID_327_);}
	.st497{fill:url(#SVGID_328_);}
	.st498{fill:url(#SVGID_329_);}
	.st499{fill:url(#SVGID_330_);}
	.st500{fill:url(#SVGID_331_);}
	.st501{fill:url(#SVGID_332_);}
	.st502{fill:url(#SVGID_333_);}
	.st503{fill:url(#SVGID_334_);}
	.st504{fill:url(#SVGID_335_);}
	.st505{fill:url(#SVGID_336_);}
	.st506{fill:url(#SVGID_337_);}
	.st507{fill:url(#SVGID_338_);}
	.st508{fill:url(#SVGID_339_);}
	.st509{fill:url(#SVGID_340_);}
	.st510{fill:url(#SVGID_341_);}
	.st511{fill:url(#SVGID_342_);}
	.st512{fill:url(#SVGID_343_);}
	.st513{fill:url(#SVGID_344_);}
	.st514{fill:url(#SVGID_345_);}
	.st515{fill:url(#SVGID_346_);}
	.st516{fill:url(#SVGID_347_);}
	.st517{fill:url(#SVGID_348_);}
	.st518{fill:url(#SVGID_349_);}
	.st519{fill:url(#SVGID_350_);}
	.st520{fill:url(#SVGID_351_);}
	.st521{fill:url(#SVGID_352_);}
	.st522{fill:url(#SVGID_353_);}
	.st523{fill:url(#SVGID_354_);}
	.st524{fill:url(#SVGID_355_);}
	.st525{fill:url(#SVGID_356_);}
	.st526{fill:url(#SVGID_357_);}
	.st527{fill:url(#SVGID_358_);}
	.st528{fill:url(#SVGID_359_);}
	.st529{fill:url(#SVGID_360_);}
	.st530{fill:url(#SVGID_361_);}
	.st531{fill:url(#SVGID_362_);}
	.st532{fill:url(#SVGID_363_);}
	.st533{fill:url(#SVGID_364_);}
	.st534{fill:url(#SVGID_365_);}
	.st535{fill:url(#SVGID_366_);}
	.st536{fill:url(#SVGID_367_);}
	.st537{fill:url(#SVGID_368_);}
	.st538{fill:url(#SVGID_369_);}
	.st539{fill:url(#SVGID_370_);}
	.st540{fill:url(#SVGID_371_);}
	.st541{fill:url(#SVGID_372_);}
	.st542{fill:url(#SVGID_373_);}
	.st543{fill:url(#SVGID_374_);}
	.st544{fill:url(#SVGID_375_);}
	.st545{fill:url(#SVGID_376_);}
	.st546{fill:url(#SVGID_377_);}
	.st547{fill:url(#SVGID_378_);}
	.st548{fill:url(#SVGID_379_);}
	.st549{fill:url(#SVGID_380_);}
	.st550{fill:url(#SVGID_381_);}
	.st551{fill:url(#SVGID_382_);}
	.st552{fill:url(#SVGID_383_);}
	.st553{fill:url(#SVGID_384_);}
	.st554{fill:url(#SVGID_385_);}
	.st555{fill:url(#SVGID_386_);}
	.st556{fill:url(#SVGID_387_);}
	.st557{fill:url(#SVGID_388_);}
	.st558{fill:url(#SVGID_389_);}
	.st559{fill:url(#SVGID_390_);}
	.st560{fill:url(#SVGID_391_);}
	.st561{fill:url(#SVGID_392_);}
	.st562{fill:url(#SVGID_393_);}
	.st563{fill:url(#SVGID_394_);}
	.st564{fill:url(#SVGID_395_);}
	.st565{fill:url(#SVGID_396_);}
	.st566{fill:url(#SVGID_397_);}
	.st567{fill:url(#SVGID_398_);}
	.st568{fill:url(#SVGID_399_);}
	.st569{fill:url(#SVGID_400_);}
	.st570{fill:url(#SVGID_401_);}
	.st571{fill:url(#SVGID_402_);}
	.st572{fill:url(#SVGID_403_);}
	.st573{fill:url(#SVGID_404_);}
	.st574{fill:url(#SVGID_405_);}
	.st575{fill:url(#SVGID_406_);}
	.st576{fill:url(#SVGID_407_);}
	.st577{fill:url(#SVGID_408_);}
	.st578{fill:url(#SVGID_409_);}
	.st579{fill:url(#SVGID_410_);}
	.st580{fill:url(#SVGID_411_);}
	.st581{fill:url(#SVGID_412_);}
	.st582{fill:url(#SVGID_413_);}
	.st583{fill:url(#SVGID_414_);}
	.st584{fill:url(#SVGID_415_);}
	.st585{fill:url(#SVGID_416_);}
	.st586{fill:url(#SVGID_417_);}
	.st587{fill:url(#SVGID_418_);}
	.st588{fill:url(#SVGID_419_);}
	.st589{fill:url(#SVGID_420_);}
	.st590{fill:url(#SVGID_421_);}
	.st591{fill:url(#SVGID_422_);}
	.st592{fill:url(#SVGID_423_);}
	.st593{fill:url(#SVGID_424_);}
	.st594{fill:url(#SVGID_425_);}
	.st595{fill-rule:evenodd;clip-rule:evenodd;fill:url(#SVGID_426_);}
	.st596{fill:url(#SVGID_427_);}
	.st597{fill:url(#SVGID_428_);}
	.st598{fill:url(#SVGID_429_);}
	.st599{fill:url(#SVGID_430_);}
	.st600{fill:url(#SVGID_431_);}
	.st601{fill:url(#SVGID_432_);}
	.st602{fill-rule:evenodd;clip-rule:evenodd;fill:url(#SVGID_433_);}
	.st603{fill:url(#SVGID_434_);}
	.st604{fill:url(#SVGID_435_);}
	.st605{fill:url(#SVGID_436_);}
	.st606{fill:url(#SVGID_437_);}
	.st607{fill:url(#SVGID_438_);}
	.st608{fill:url(#SVGID_439_);}
	.st609{fill:url(#SVGID_440_);}
	.st610{fill-rule:evenodd;clip-rule:evenodd;fill:url(#SVGID_441_);}
	.st611{fill:url(#SVGID_442_);}
	.st612{fill:url(#SVGID_443_);}
	.st613{fill:url(#SVGID_444_);}
	.st614{fill:url(#SVGID_445_);}
	.st615{fill-rule:evenodd;clip-rule:evenodd;fill:url(#SVGID_446_);}
	.st616{fill:url(#SVGID_447_);}
	.st617{fill:url(#SVGID_448_);}
	.st618{fill:url(#SVGID_449_);}
	.st619{fill:url(#SVGID_450_);}
	.st620{fill:url(#SVGID_451_);}
	.st621{fill:url(#SVGID_452_);}
	.st622{fill:url(#SVGID_453_);}
	.st623{fill:url(#SVGID_454_);}
	.st624{fill:url(#SVGID_455_);}
	.st625{fill:url(#SVGID_456_);}
	.st626{fill:url(#SVGID_457_);}
	.st627{fill:url(#SVGID_458_);}
	.st628{fill:url(#SVGID_459_);}
	.st629{fill:url(#SVGID_460_);}
	.st630{fill:url(#SVGID_461_);}
	.st631{fill:url(#SVGID_462_);}
	.st632{fill:url(#SVGID_463_);}
	.st633{fill:url(#SVGID_464_);}
	.st634{fill:url(#SVGID_465_);}
	.st635{fill:url(#SVGID_466_);}
	.st636{fill:url(#SVGID_467_);}
	.st637{fill:url(#SVGID_468_);}
	.st638{fill:url(#SVGID_469_);}
	.st639{fill:url(#SVGID_470_);}
	.st640{fill:url(#SVGID_471_);}
	.st641{fill:url(#SVGID_472_);}
	.st642{fill:url(#SVGID_473_);}
	.st643{fill:url(#SVGID_474_);}
	.st644{fill:url(#SVGID_475_);}
	.st645{fill:url(#SVGID_476_);}
	.st646{fill:url(#SVGID_477_);}
	.st647{fill:url(#SVGID_478_);}
	.st648{fill:url(#SVGID_479_);}
	.st649{fill:url(#SVGID_480_);}
	.st650{fill:url(#SVGID_481_);}
	.st651{fill:url(#SVGID_482_);}
	.st652{fill:url(#SVGID_483_);}
	.st653{fill:url(#SVGID_484_);}
	.st654{fill:url(#SVGID_485_);}
	.st655{fill:url(#SVGID_486_);}
	.st656{fill:url(#SVGID_487_);}
	.st657{fill:url(#SVGID_488_);}
	.st658{fill:url(#SVGID_489_);}
	.st659{fill:url(#SVGID_490_);}
	.st660{fill:url(#SVGID_491_);}
	.st661{fill:url(#SVGID_492_);}
	.st662{fill:url(#SVGID_493_);}
	.st663{fill:url(#SVGID_494_);}
	.st664{fill:url(#SVGID_495_);}
	.st665{fill:url(#SVGID_496_);}
	.st666{fill:url(#SVGID_497_);}
	.st667{fill:url(#SVGID_498_);}
	.st668{fill:url(#SVGID_499_);}
	.st669{fill:url(#SVGID_500_);}
	.st670{fill:url(#SVGID_501_);}
	.st671{fill:url(#SVGID_502_);}
	.st672{fill:url(#SVGID_503_);}
	.st673{fill:url(#SVGID_504_);}
	.st674{fill:url(#SVGID_505_);}
	.st675{fill:url(#SVGID_506_);}
	.st676{fill:url(#SVGID_507_);}
	.st677{fill:url(#SVGID_508_);}
	.st678{fill:url(#SVGID_509_);}
	.st679{fill:url(#SVGID_510_);}
	.st680{fill:url(#SVGID_511_);}
	.st681{fill:url(#SVGID_512_);}
	.st682{fill:url(#SVGID_513_);}
	.st683{fill:url(#SVGID_514_);}
	.st684{fill:url(#SVGID_515_);}
	.st685{fill:url(#SVGID_516_);}
	.st686{fill:url(#SVGID_517_);}
	.st687{fill:url(#SVGID_518_);}
	.st688{fill:url(#SVGID_519_);}
	.st689{fill:url(#SVGID_520_);}
	.st690{fill:url(#SVGID_521_);}
	.st691{fill:url(#SVGID_522_);}
	.st692{fill:url(#SVGID_523_);}
	.st693{fill:url(#SVGID_524_);}
	.st694{fill:url(#SVGID_525_);}
	.st695{fill:url(#SVGID_526_);}
	.st696{fill:url(#SVGID_527_);}
	.st697{fill:url(#SVGID_528_);}
	.st698{fill:url(#SVGID_529_);}
	.st699{fill:url(#SVGID_530_);}
	.st700{fill:url(#SVGID_531_);}
	.st701{fill:url(#SVGID_532_);}
	.st702{fill:url(#SVGID_533_);}
	.st703{fill:url(#SVGID_534_);}
	.st704{fill:url(#SVGID_535_);}
	.st705{fill:url(#SVGID_536_);}
	.st706{fill:url(#SVGID_537_);}
	.st707{fill:url(#SVGID_538_);}
	.st708{fill:url(#SVGID_539_);}
	.st709{fill:url(#SVGID_540_);}
	.st710{fill:url(#SVGID_541_);}
	.st711{fill:url(#SVGID_542_);}
	.st712{fill:url(#SVGID_543_);}
	.st713{fill:url(#SVGID_544_);}
	.st714{fill:url(#SVGID_545_);}
	.st715{fill:url(#SVGID_546_);}
	.st716{fill-rule:evenodd;clip-rule:evenodd;fill:url(#SVGID_547_);}
	.st717{fill:url(#SVGID_548_);}
	.st718{fill:url(#SVGID_549_);}
	.st719{fill:url(#SVGID_550_);}
	.st720{fill:url(#SVGID_551_);}
	.st721{fill:url(#SVGID_552_);}
	.st722{fill:url(#SVGID_553_);}
	.st723{fill:url(#SVGID_554_);}
	.st724{fill:url(#SVGID_555_);}
	.st725{fill:url(#SVGID_556_);}
	.st726{fill:url(#SVGID_557_);}
	.st727{fill:url(#SVGID_558_);}
	.st728{fill:url(#SVGID_559_);}
	.st729{fill:url(#SVGID_560_);}
	.st730{fill:url(#SVGID_561_);}
	.st731{fill:url(#SVGID_562_);}
	.st732{fill:url(#SVGID_563_);}
	.st733{fill:url(#SVGID_564_);}
	.st734{fill:url(#SVGID_565_);}
	.st735{fill:url(#SVGID_566_);}
	.st736{fill-rule:evenodd;clip-rule:evenodd;fill:url(#SVGID_567_);}
	.st737{fill:url(#SVGID_568_);}
	.st738{fill:url(#SVGID_569_);}
	.st739{fill:url(#SVGID_570_);}
	.st740{fill:url(#SVGID_571_);}
	.st741{fill:url(#SVGID_572_);}
	.st742{fill:url(#SVGID_573_);}
	.st743{fill:url(#SVGID_574_);}
	.st744{fill:url(#SVGID_575_);}
	.st745{fill:url(#SVGID_576_);}
	.st746{fill:url(#SVGID_577_);}
	.st747{fill:url(#SVGID_578_);}
	.st748{fill:url(#SVGID_579_);}
	.st749{fill:url(#SVGID_580_);}
	.st750{fill:url(#SVGID_581_);}
	.st751{fill:url(#SVGID_582_);}
	.st752{fill:url(#SVGID_583_);}
	.st753{fill:url(#SVGID_584_);}
	.st754{fill:url(#SVGID_585_);}
	.st755{fill:url(#SVGID_586_);}
	.st756{fill:url(#SVGID_587_);}
	.st757{fill:url(#SVGID_588_);}
	.st758{fill:url(#SVGID_589_);}
	.st759{fill:url(#SVGID_590_);}
	.st760{opacity:0.25;fill:url(#SVGID_591_);enable-background:new    ;}
	.st761{opacity:0.25;fill:url(#SVGID_592_);enable-background:new    ;}
	.st762{opacity:0.25;fill:url(#SVGID_593_);enable-background:new    ;}
	.st763{opacity:0.25;fill:url(#SVGID_594_);enable-background:new    ;}
	.st764{opacity:0.25;fill:url(#SVGID_595_);enable-background:new    ;}
	.st765{opacity:0.25;fill:url(#SVGID_596_);enable-background:new    ;}
	.st766{fill:url(#SVGID_597_);}
	.st767{fill:url(#SVGID_598_);}
	.st768{fill:url(#SVGID_599_);}
	.st769{fill:url(#SVGID_600_);}
	.st770{stroke:#06395B;}
</style>
<g id="Lager_1">
	<g>
		<rect x="0" class="st1" width="1080" height="1920"/>
		<text transform="matrix(1 0 0 1 166.4048 483.7989)" class="st0 st51 st52">CO2 påverkan</text>
		<g>
			<polygon class="st8" points="806.7,1391.3 626,1265.9 626,852.3 806.7,977.8 			"/>
			<polygon class="st53" points="897,1341 806.7,1391.3 806.7,976.8 897,926.5 			"/>
			<polygon class="st8" points="707.4,787.9 897,926.5 806.7,976.8 623.2,853.4 			"/>
			<g>
				<path class="st9" d="M840.1,834.4c-1.1-1.8-1.6-3.8-1.4-5.9c0.2-2.1,1-4,2.4-5.6c4-5.9,7.1-3.9,7.1-3.9c1.3,1,2.2,2.5,2.5,4.1
					c0.3,1.6,0,3.3-0.9,4.7c-1.9,3.5-3.7,8.3-5,8.3c-1.3,0-2,4.3-2,4.3l-3.8-3.9L840.1,834.4z"/>
				<path class="st10" d="M782.3,930l25.9-14.3L777,902.6L782.3,930z"/>
				<path class="st10" d="M645.9,851.7l25.9-14.3l-31.2-13.1L645.9,851.7z"/>
				
					<linearGradient id="SVGID_1_" gradientUnits="userSpaceOnUse" x1="-1961.9047" y1="-1208.9751" x2="-1836.991" y2="-1208.9751" gradientTransform="matrix(1 0 0 -1 0 -275.9076)">
					<stop  offset="0.16" style="stop-color:#3C4851"/>
					<stop  offset="0.56" style="stop-color:#556773"/>
					<stop  offset="0.87" style="stop-color:#51626E"/>
				</linearGradient>
				<path class="st11" d="M788.4,918.2l4.6,7.4l11,18.1l5.5,9l7.3-4.2c1.7-1.1,2.9-2.9,3.4-4.9c0,0,0-0.5,0-0.7v-0.5
					c0-0.3,0-0.6,0-0.9v-1.9c-0.4-4.9-1.9-9.7-4.4-14c-2.5-4.2-6-7.8-10.2-10.5l-1.3-0.7c-1.4-0.7-2.9-1-4.4-1c-1.5,0-3,0.3-4.4,1
					L788.4,918.2z"/>
				<path class="st9" d="M784.9,927.7c0.3,5,1.9,9.8,4.4,14c2.6,4.3,6.1,7.9,10.3,10.5c8,4.4,14.4,0.7,14.3-8.2
					c-0.4-5-1.9-9.8-4.4-14s-6.1-7.9-10.3-10.5C790.9,915,784.9,918.7,784.9,927.7z"/>
				<path class="st12" d="M788.8,930.1c-0.1,0.9-0.1,1.8,0,2.7c0.6,2.8,1.7,5.4,3.2,7.8c1,1.5,2.1,2.9,3.4,4.1c1,1.1,2.2,2,3.5,2.7
					c0.9,0.5,1.9,0.9,2.9,1.1c1.4,0.5,2.9,0.5,4.2,0c0.8-0.5,1.4-1.1,1.9-1.9v-0.5c0,0,0-0.7,0-1.1c0,0,0-0.8,0-1.2
					c0-0.4,0-0.9,0-1.4c0-0.5,0,0,0-0.5c0.1-0.6,0.1-1.2,0-1.8c0-0.5,0-1.1,0-1.6c-0.5-1.9-1.3-3.8-2.3-5.6l-0.5-0.8
					c-0.8-1.2-1.7-2.4-2.7-3.5v-0.6c-0.8-0.8-1.7-1.5-2.7-2.2l-1-0.6l-1-0.5h-1.1h-0.8h-0.5c-0.5-0.1-1-0.1-1.5,0
					c-0.5,0.1-1,0.3-1.4,0.6c-0.8,0.4-1.4,1-1.9,1.7c-0.5,0.7-0.8,1.5-1,2.4C789.2,929.6,789,929.8,788.8,930.1z"/>
				<path class="st10" d="M796.4,926.4c-0.1,0.9-0.1,1.7,0,2.6c0.6,2.8,1.7,5.4,3.2,7.8c1,1.5,2.1,3,3.4,4.2c1.1,1,2.2,1.9,3.5,2.7
					l2.2,0.9v-0.9c0,0,0,0,0-0.6c0-0.6,0-0.9,0-1.4c0-0.5,0-1.5,0-2.3c0-0.5,0-1.1,0-1.6c-0.5-2-1.2-3.8-2.3-5.6l-0.5-0.8
					c-0.8-1.3-1.8-2.5-2.8-3.6v-0.6c-1.1-1.1-2.4-2-3.7-2.8l-1-0.5h-1.1c0,0,0,0,0,0.6C797,925,796.7,925.7,796.4,926.4z"/>
				
					<linearGradient id="SVGID_2_" gradientUnits="userSpaceOnUse" x1="-614.2886" y1="-2967.9846" x2="-574.2122" y2="-2918.186" gradientTransform="matrix(1 0 0 -1 0 -275.9076)">
					<stop  offset="0.16" style="stop-color:#E3E3E3"/>
					<stop  offset="0.56" style="stop-color:#CCCCCC"/>
					<stop  offset="0.87" style="stop-color:#B7B7B7"/>
				</linearGradient>
				<path class="st13" d="M792.5,923.3c-0.8,0.8-1.4,1.7-1.8,2.7c-0.4,1-0.5,2.1-0.4,3.2c0.2,3.5,1.3,6.9,3.1,9.9
					c1.8,3,4.3,5.6,7.2,7.5c1,0.6,2,1,3.1,1.2c1.1,0.2,2.3,0.1,3.4-0.2c-1.2,0.8-2.6,1.3-4,1.3c-1.4,0-2.8-0.4-4-1.3
					c-3-1.9-5.4-4.4-7.2-7.4c-1.8-3-2.8-6.4-3.1-9.9c-0.2-1.4,0-2.9,0.7-4.1C790.2,924.9,791.2,923.9,792.5,923.3z"/>
				<path class="st12" d="M791.6,930.9l6.4,3.7l-2.9,9.5c0,0.5,1.9,0,1.9,0l4.4-4.7l3.2,7.9c1,0,0,1.9,1.2,1.7
					c0.8-0.3,1.4-0.7,2-1.3l-2.3-8.8l3.5,2c0-0.6,0-1.2,0-1.8c-0.2-1.1-0.5-2.2-0.9-3.3l-3-2.3l1-2.1c-0.8-1.2-1.7-2.4-2.7-3.5
					l-1.4,1.8l-2.5-5l-1-0.5h-1.1h-0.8h-1.3l2.6,6.3l-6.8-2.7c0,0-1.7,0.8-1.7,1.8C789.2,930.4,791.5,930,791.6,930.9z"/>
				<path class="st14" d="M788.9,932l6.6,4.3l-2.4,5.4c0.5,1,1.2,1.8,2.1,2.5l3.6-3.5l3.8,8c0.5,0.2,1,0.4,1.6,0.4
					c0.6,0,1.1-0.1,1.6-0.4l-2.5-7.5l5.9,3c0.1-0.8,0.1-1.5,0-2.3c0.1-0.6,0.1-1.2,0-1.7l-6.5-4.2l2.9-5c-0.6-1.1-1.4-2.1-2.4-2.9
					l-3.8,3.6l-4-8.3c-0.9-0.4-2-0.4-2.9,0l2.5,7.8l-6.1-2.8c-0.1,0.6-0.1,1.2,0,1.8C788.9,930.7,788.9,931.4,788.9,932z"/>
				<path class="st15" d="M796.9,934.6c0.1,0.8,0.3,1.5,0.7,2.2c0.4,0.7,0.9,1.2,1.6,1.6c1.2,0.6,2.3,0,2.3-1.3
					c-0.1-0.8-0.3-1.5-0.7-2.2c-0.4-0.7-0.9-1.2-1.6-1.6C797.9,932.6,796.9,933.2,796.9,934.6z"/>
				
					<linearGradient id="SVGID_3_" gradientUnits="userSpaceOnUse" x1="-1661.4166" y1="-1130.7954" x2="-1537.2952" y2="-1130.7954" gradientTransform="matrix(1 0 0 -1 0 -275.9076)">
					<stop  offset="0.16" style="stop-color:#3C4851"/>
					<stop  offset="0.56" style="stop-color:#556773"/>
					<stop  offset="0.87" style="stop-color:#51626E"/>
				</linearGradient>
				<path class="st16" d="M651.9,839.8l4.5,7.4l11.1,18.1l5.5,9l7.2-4.2c1.7-1.2,2.9-2.9,3.3-4.9c0-0.2,0-0.5,0-0.7v-0.5
					c0,0,0-0.6,0-0.9c0.1-0.5,0.1-1,0-1.4c-0.3-5-1.8-9.8-4.4-14c-2.6-4.2-6.1-7.8-10.3-10.4l-1.2-0.7c-1.4-0.7-2.9-1-4.4-1
					s-3,0.3-4.4,1L651.9,839.8z"/>
				<path class="st9" d="M648.1,848.9c0.3,5,1.9,9.8,4.4,14c2.6,4.3,6.1,7.9,10.3,10.5c7.9,4.4,14.3,0.7,14.2-8.2
					c-0.4-4.9-1.9-9.7-4.4-14c-2.5-4.3-6-7.9-10.2-10.5C654.4,835.8,648,839.9,648.1,848.9z"/>
				<path class="st10" d="M660,847.6c-0.1,0.9-0.1,1.7,0,2.6c0.5,2.8,1.6,5.5,3.2,7.8c0.9,1.6,2.1,3,3.4,4.2c1,1,2.2,1.9,3.5,2.7
					c0.7,0.4,1.4,0.7,2.2,0.9c0-0.3,0-0.6,0-0.9c0,0,0,0,0-0.6v-1.4c0.1-0.8,0.1-1.5,0-2.3c0-0.5,0-1.1,0-1.6
					c-0.6-1.9-1.4-3.8-2.4-5.6c0-0.3,0-0.5,0-0.8c-0.8-1.3-1.8-2.5-2.8-3.6l-0.6-0.6c-1.1-1.1-2.3-2-3.7-2.8l-0.9-0.5h-1.1
					c0,0,0,0,0,0.6C660.4,846.2,660.2,846.9,660,847.6z"/>
				
					<linearGradient id="SVGID_4_" gradientUnits="userSpaceOnUse" x1="-558.1423" y1="-2651.4412" x2="-518.0803" y2="-2601.6055" gradientTransform="matrix(1 0 0 -1 0 -275.9076)">
					<stop  offset="0.16" style="stop-color:#E3E3E3"/>
					<stop  offset="0.56" style="stop-color:#CCCCCC"/>
					<stop  offset="0.87" style="stop-color:#B7B7B7"/>
				</linearGradient>
				<path class="st17" d="M655.9,844.5c-0.8,0.8-1.3,1.7-1.7,2.7s-0.5,2.1-0.4,3.2c0.2,3.5,1.3,6.9,3.1,9.9c1.8,3,4.3,5.6,7.2,7.5
					c1,0.6,2,1,3.1,1.2c1.1,0.2,2.3,0.1,3.4-0.2c-1.2,0.8-2.6,1.3-4,1.3c-1.4,0-2.8-0.4-4-1.3c-3-1.9-5.4-4.4-7.2-7.4
					c-1.8-3-2.8-6.4-3.1-9.9c-0.3-1.4-0.1-2.9,0.6-4.1C653.6,846.1,654.7,845.1,655.9,844.5z"/>
				<path class="st12" d="M655.1,852.1l6.4,3.7l-3,9.5l2-0.5l4.4-4.7l3.2,7.9c1,0,0,1.9,1.2,1.6c0.7-0.3,1.4-0.7,1.9-1.3l-1.9-7.9
					l3.5,2c0-0.6,0-1.2,0-1.8c-0.1-1.1-0.4-2.2-0.8-3.3l-3.1-2.3l1-2.1c-0.8-1.3-1.7-2.4-2.8-3.5l-1.3,1.8l-2.6-5l-0.9-0.5h-1.1
					h-0.8h-1.1l2.6,6.3l-6.9-2.7c0,0-1.6,0.8-1.6,1.8C653.3,851.9,654.9,851.2,655.1,852.1z"/>
				<path class="st14" d="M652.4,853.2l6.6,4.3l-2.5,5.4c0.5,1,1.2,1.8,2.1,2.5l3.7-3.5l3.8,8c0.5,0.2,1,0.4,1.6,0.4
					c0.6,0,1.1-0.1,1.6-0.4l-2.6-7.5l5.9,3c0.1-0.8,0.1-1.5,0-2.3c0-0.6,0-1.2,0-1.9l-6.5-4.1l2.8-5c-0.6-1.1-1.3-2.1-2.3-2.9
					l-3.8,3.6l-4.1-8.3c-0.9-0.4-2-0.4-2.9,0l2.5,7.8l-6-2.8c-0.1,0.6-0.1,1.2,0,1.8C652.3,851.9,652.3,852.6,652.4,853.2z"/>
				<path class="st15" d="M660.4,855.8c0.1,0.8,0.3,1.5,0.7,2.2c0.4,0.7,0.9,1.2,1.6,1.6c1.2,0.6,2.3,0,2.3-1.3
					c-0.1-0.8-0.4-1.5-0.8-2.2c-0.4-0.7-1-1.2-1.6-1.7C661.3,853.8,660.4,854.4,660.4,855.8z"/>
				<path class="st18" d="M639.2,820.6v7.8l8.7,12.6c0.5-0.6,0.9-1.2,1.4-1.8c0.9-0.9,2.1-1.7,3.3-2.2c1.2-0.4,2.4-0.6,3.7-0.6
					c2.6,0.1,5.2,0.8,7.5,2.2c4.8,2.9,8.7,6.9,11.4,11.7c2.7,4.5,4.2,9.5,4.4,14.7c0,1.8-0.2,3.6-0.7,5.4L782.5,930
					c0-0.7,0-1.4,0-2.3c-0.2-3.5,1-7,3.3-9.7c0.7-0.7,1.5-1.3,2.4-1.8c1.4-0.7,3-1.1,4.6-1.1c2.7,0.1,5.2,0.9,7.5,2.3
					c5.2,3.2,9.4,7.7,12.3,13.1c2.2,4.2,3.5,8.8,3.7,13.5c0,1.7-0.2,3.3-0.6,4.9l2.9,1.5l9.7-2.3l6.2-8.9l-3.3-2.1l4-15.8
					l-61.8-41.2c-5.8-14.3-13.4-27.9-22.7-40.3c-11.9-11.4-59.3-32.7-59.3-32.7l-26.2,9.7l-20-8.8l-3.9,4.6L639.2,820.6z"/>
				<path class="st19" d="M641.2,813.4l192.1,108.9l-59.9-41.3l-108.3-63.4l-20-8.8L641.2,813.4z"/>
				<path class="st18" d="M679.4,865.1c0,1.8-0.2,3.6-0.7,5.4L782.3,930c0-0.7,0-1.4,0-2.3c-0.2-3.5,1-7,3.3-9.7
					c0.7-0.7,1.5-1.3,2.4-1.8l-113.3-65.9C677.5,854.8,679.1,859.8,679.4,865.1z"/>
				<path class="st20" d="M762.7,914.8l0.5-19.2l2.4-13.2l-0.9-0.2l-2.5,13.2l-0.4,17.7l-44.1-24l-1.8-19.2l3.1-16.8l-0.1-0.1
					L701.6,823l-0.4,0.3l-16.8,10v0.2l-3.8,16.8l3.8,21.2l0.9-0.1l-3.7-21.1l3.7-16.4l15.9-9.5l16.7,28.9l-3,16.5v0.1l1.9,19.9
					l0.2,0.1L762.7,914.8z"/>
				<path class="st21" d="M782.3,924.1c0,0.7,0,1.4,0,2.2c0,0.7,0,1.5,0,2.3l-103.6-59.4c0.4-1.3,0.6-2.7,0.7-4.1L782.3,924.1z"/>
				<path class="st22" d="M782.2,923.3c-0.1-3.1,0.8-6.2,2.6-8.8l3.1,1.7c-0.9,0.5-1.7,1-2.4,1.8c-1.9,2.1-3,4.7-3.2,7.5
					C782.3,924.8,782.2,924,782.2,923.3z"/>
				<path class="st9" d="M782.3,925.5c0,0.7,0,1.4,0,2.2c0,0.7,0,1.5,0,2.3l-103.6-59.5c0.4-1.3,0.7-2.7,0.7-4L782.3,925.5z"/>
				<path class="st9" d="M635.5,827.3v6l2.1,6.2l5,5.1l2.3,6.4l1.1,0.7c-0.1-0.9-0.1-1.9,0-2.8c-0.1-2.8,0.5-5.5,1.9-7.9
					c0.5-0.6,0.9-1.2,1.4-1.8c0.9-0.9,2.1-1.7,3.3-2.2l-9.8-5.7l-2.1-1.2L635.5,827.3z"/>
				<path class="st9" d="M673.3,822.3l3.2,8l7.3,4.1l0.8,0.5l0.8,0.5l2.3,1.3l1.8,1.1l1.2,0.6l1.5,0.9l1.2,0.7l25.8,15.5l3.3,2.1
					l34.7,20.8l1.5,0.9l8.8,5.3l1-5.6l-14.2-26l-1.5-2.9l-4.6-8.4l-52-28.5l-0.5-0.4l-1.8-0.9L673.3,822.3z"/>
				<path class="st23" d="M694.8,814.2l-17,10.7l0.6,4.8l88.1,52.6l0.5-2.9l-20-36.6L694.8,814.2z"/>
				<path class="st9" d="M684.8,834.6l1.1,1.2l0.8,0.4l0.8,0.5l11.3-20.9l-0.5-1.2l-0.6-0.4l-1.2,0.6L684.8,834.6z"/>
				<path class="st9" d="M717.1,853.9l3.3,2l5.7-24.8l-3.3-1.6L717.1,853.9z"/>
				<path class="st9" d="M752.4,850.1v24.7l1.7,0.9l0.3-22.6l-1.5-2.9L752.4,850.1z"/>
				<path class="st21" d="M779.8,911.5v6.1l-100.1-63l1.4-0.7L779.8,911.5z"/>
				<path class="st9" d="M778.4,912.3v6.1l-98.8-57.8v-6.1L778.4,912.3z"/>
				<path class="st10" d="M898.2,898.3l1.5-13.7l-65.5,36.7l-2.9,14.5C831.4,935.8,874.8,925.2,898.2,898.3z"/>
				<path class="st10" d="M831.9,933.6v-2.3c23.6-8.6,45.7-21.1,65.3-36.9c0.5,0,0.6-2.4,0.6-2.4v2.1c0,0,0,2-0.6,2.4
					C877.6,912.4,855.6,924.9,831.9,933.6z"/>
				<path class="st10" d="M831.9,930.4v-2.3c23.6-8.6,45.7-21.1,65.3-36.9c0.5,0,0.6-2.4,0.6-2.4v2.1c0,0,0,2-0.6,2.4
					C877.6,909.2,855.6,921.7,831.9,930.4z"/>
				<path class="st10" d="M831.9,927.2v-2.3c23.6-8.6,45.7-21.1,65.3-36.9c0.5,0,0.6-2.5,0.6-2.5v2.1c0,0,0,2.1-0.6,2.5
					C877.6,906,855.5,918.5,831.9,927.2z"/>
				<path class="st21" d="M831.9,934.2v-2.4c23.7-8.5,45.7-21,65.3-36.8c0.5,0,0.6-2.5,0.6-2.5v2.1c0,0,0,2.1-0.6,2.5
					C877.6,913,855.5,925.5,831.9,934.2z"/>
				<path class="st21" d="M831.9,931v-2.4c23.6-8.6,45.7-21,65.3-36.8c0.5,0,0.6-2.5,0.6-2.5v2.1c0,0,0,2.1-0.6,2.5
					C877.6,909.8,855.5,922.3,831.9,931z"/>
				<path class="st21" d="M831.9,927.8v-2.4c23.7-8.6,45.7-21,65.3-36.9c0.5,0,0.6-2.4,0.6-2.4v2.1c0,0,0,2.1-0.6,2.4
					C877.6,906.5,855.6,919.1,831.9,927.8z"/>
				<path class="st21" d="M832.3,922.2c23.5-8.6,45.5-20.9,65-36.6l0.6,1.3v0.5c-19.7,15.9-41.9,28.5-65.7,37.1L832.3,922.2z"/>
				<path class="st24" d="M894.9,916.3L828.5,954l-0.5-5.7l66.3-37.8L894.9,916.3z"/>
				<path class="st9" d="M815.8,944c0,1.7-0.2,3.3-0.6,4.9l3,1.6l10.3,3.4l-0.5-5.7h2.1c2.1,0,4,1.3,5.9,0l1.3-0.6l61.8-35
					c0.7-0.4,1.3-0.9,1.8-1.4c0.6-0.9,1-1.9,1.1-3l0.5-8.3l-1.6,0.8l-64.4,36.2l-1.8,0.9l-21.8-8.6v0.9
					C814.8,934.5,815.9,939.2,815.8,944z"/>
				<path class="st10" d="M836.4,936.9v12.3l1.3-0.6c9.7-3.5,19.2-7.7,28.3-12.7c5.5-2.8,10.9-6,16.1-9.4c6-4,11.7-8.3,17.2-13
					c0.7-0.4,1.2-1,1.8-1.5v-10.3L836.4,936.9z"/>
				<path class="st25" d="M833.4,923.6l12.1-5.7c0.2-0.1,0.4-0.1,0.7-0.1c0.2,0,0.4,0.1,0.6,0.2c0.2,0.1,0.3,0.3,0.4,0.5
					c0.1,0.2,0.1,0.4,0.1,0.7v4.4c-0.1,0.7-0.3,1.4-0.7,2c-0.4,0.6-1,1.1-1.7,1.4l-10.3,4.6L833.4,923.6z"/>
				<path class="st25" d="M887.9,894.6l9.3-7.2l-0.7,10.3l-9,7c-0.2,0.1-0.4,0.2-0.6,0.3c-0.2,0-0.5,0-0.7-0.1
					c-0.2-0.1-0.4-0.3-0.5-0.5c-0.1-0.2-0.1-0.4-0.1-0.7v-5c0-0.8,0.2-1.6,0.6-2.3C886.7,895.7,887.2,895.1,887.9,894.6z"/>
				<path class="st19" d="M896,887.9c0-0.8,3.2-2.8,3.2-2.8c0.6,1.7,0.8,3.5,0.6,5.3c-0.2,1.8-0.7,3.5-1.6,5l-2.2,2.1
					C896.4,894.3,896.4,891.1,896,887.9z"/>
				<path class="st26" d="M869.8,907.9c-0.1,0.9-0.4,1.8-0.9,2.6c-0.5,0.8-1.1,1.4-1.9,1.9c-1.4,0.7-2.6,0-2.6-1.5
					c0.1-0.9,0.3-1.8,0.8-2.6c0.5-0.8,1.1-1.5,1.9-1.9c0.3-0.2,0.6-0.3,0.9-0.4c0.3,0,0.7,0,1,0.2c0.3,0.2,0.5,0.4,0.7,0.7
					C869.8,907.2,869.8,907.6,869.8,907.9z"/>
				<path class="st27" d="M870.5,908.5c-0.1,0.9-0.3,1.8-0.8,2.5c-0.5,0.8-1.1,1.4-1.9,1.9c-0.3,0.2-0.6,0.3-0.9,0.4
					c-0.3,0-0.7,0-1-0.2c-0.3-0.2-0.5-0.4-0.7-0.7c-0.1-0.3-0.2-0.6-0.1-1c0.1-0.9,0.4-1.8,0.9-2.5c0.5-0.8,1.1-1.4,1.9-1.9
					C869.4,906.2,870.5,906.8,870.5,908.5z"/>
				<path class="st21" d="M814.2,928.5l-1.9,0.9l19.4,8.9c0.8,0.4,1.6,0.5,2.4,0.5c0.8,0,1.7-0.2,2.4-0.5c0,0,48.6-19.4,64.8-36.8
					c0.8-0.9,1.2-2.1,0-2.8l-3.4-3c0,0,0,2.1-0.6,2.5c-19.8,16-42.1,28.5-66,37.1L814.2,928.5z"/>
				<path class="st21" d="M846.7,936.7v2.2c0,0.3-0.1,0.7-0.3,1c-0.2,0.3-0.4,0.5-0.7,0.7l-7.2,2.8c-0.2,0.1-0.3,0.1-0.5,0
					c-0.2,0-0.3-0.1-0.4-0.2c-0.1-0.1-0.2-0.2-0.3-0.4c-0.1-0.1-0.1-0.3-0.1-0.5l6.1-2.4c0.3-0.1,0.6-0.4,0.8-0.7
					c0.2-0.3,0.3-0.6,0.2-1v-1.1l1.1-0.5c0.2-0.1,0.4-0.2,0.7-0.2C846.3,936.4,846.5,936.5,846.7,936.7z"/>
				<path class="st28" d="M844.2,936.1v1.1c0,0.3-0.1,0.7-0.2,1c-0.2,0.3-0.5,0.5-0.8,0.7l-6.1,2.4v-1.2c0-0.4,0.1-0.7,0.3-1
					c0.2-0.3,0.5-0.5,0.8-0.6L844.2,936.1z"/>
				<path class="st21" d="M899.3,905.3v1.2c0,0.3,0,0.6-0.1,0.9s-0.3,0.5-0.5,0.8l-4.3,3.6c0,0-0.8,0-0.8-0.6l3.6-3.1
					c0.2-0.2,0.4-0.5,0.5-0.7c0.1-0.3,0.2-0.6,0.2-0.9v-0.7l0.6-0.6C898.5,905.1,899.3,904.8,899.3,905.3z"/>
				<path class="st28" d="M898.2,905.3v0.7c0,0.3,0,0.6-0.2,0.9c-0.1,0.3-0.3,0.5-0.6,0.7l-3.6,3.1V910c0-0.3,0-0.6,0.2-0.9
					s0.3-0.5,0.5-0.7L898.2,905.3z"/>
				<path class="st29" d="M865.5,929.6v5.8c5.5-2.8,10.9-6,16.1-9.4c0-0.2,0-0.3,0-0.5v-5.4c0-1-0.8-1.4-1.7-0.8l-12.8,7.4
					c-0.5,0.3-0.8,0.8-1.1,1.3C865.6,928.4,865.5,929,865.5,929.6z"/>
				<path class="st14" d="M880,927.2c0.5-0.3,0.9-0.7,1.2-1.2c0.3-0.5,0.5-1.1,0.5-1.7V919c0-1-0.7-1.4-1.8-0.9l-12.8,7.5
					c-0.5,0.3-0.9,0.7-1.2,1.2c-0.3,0.5-0.5,1.1-0.5,1.6v5.3c0,1,0.8,1.4,1.8,0.9L880,927.2z"/>
				<path class="st30" d="M867.3,934.3l12.8-7.4c0.4-0.3,0.8-0.6,1-1c0.2-0.4,0.4-0.9,0.4-1.4v-5.3c0-0.9-0.6-1.2-1.4-0.7l-12.8,7.4
					c-0.4,0.3-0.7,0.6-0.9,1c-0.2,0.4-0.4,0.9-0.4,1.3v5.3C865.9,934.5,866.5,934.8,867.3,934.3z"/>
				<path class="st31" d="M865.9,928.5c0-0.5,0.2-0.9,0.4-1.3c0.2-0.4,0.6-0.8,0.9-1l12.8-7.4c0.8-0.5,1.4,0,1.4,0.6L865.9,928.5z"
					/>
				<path class="st31" d="M881.4,924.5c0,0.5-0.1,1-0.4,1.4c-0.3,0.4-0.6,0.8-1,1l-12.8,7.4c-0.7,0.5-1.3,0-1.3-0.6L881.4,924.5z"/>
				<path class="st19" d="M712.8,769.4l-68,39.3l20,8.8l72.1-41.7l-15.6-6.8c-1.4-0.6-2.8-0.9-4.3-0.8
					C715.6,768.2,714.1,768.7,712.8,769.4z"/>
				<path class="st32" d="M833.4,923.6l11.3-5.4v3.6c0,0.7-0.3,1.4-0.7,2c-0.4,0.6-1,1.1-1.7,1.4l-7.4,3.4L833.4,923.6z"/>
				<path class="st32" d="M885.6,898.2c0-0.7,0.2-1.4,0.5-2c0.3-0.6,0.8-1.2,1.3-1.6l6.3-4.9v4.5c0,0.6-0.2,1.3-0.5,1.8
					c-0.3,0.6-0.7,1.1-1.2,1.5l-6.4,5V898.2z"/>
				<path class="st9" d="M737.2,775.8c-24.6,8.7-72.1,41.7-72.1,41.7l26.2-9.7l69.3-41.2C760.6,766.6,743.7,774,737.2,775.8z"/>
				<path class="st33" d="M691.5,806.8c31.6-21.1,56.7-34.5,56.7-34.5l-10.3,3.9c-22.4,10.1-43.7,22.3-63.7,36.6
					C680.1,811.3,685.9,809.3,691.5,806.8z"/>
				<path class="st18" d="M898.2,885.6c-20.1,14.6-41.9,26.9-64.8,36.7L773.4,881l72.1-41.7l54,45.5L898.2,885.6z"/>
				<path class="st9" d="M837.3,848.4c0,0-2.5,7.8-20.6,18c-8.3,5.5-17.7,8.8-27.6,9.8l-16.1,4.7l71.4-41.9L837.3,848.4z"/>
				<path class="st9" d="M819.3,800.5c-20.5,17-43.8,30.5-68.7,40c0,0,12.2,19.5,22.7,40.3c26.1-9.9,50.5-24,72.1-41.7
					C845.4,839,833.6,821.1,819.3,800.5z"/>
				<path class="st34" d="M752.4,841c3.2,4.2,12.6,20.6,21.5,38.3c25.4-9.8,49-23.5,70.1-40.6c-1.7-3.6-12.9-18.8-24.9-36.7
					l-2.4,2.1c-5.4,4.3-11.1,8.4-17,12.2C784.7,825.8,768.8,834,752.4,841z"/>
				<path class="st18" d="M885.8,892.1l-48.4-43.7c0,0,7.1-8.2,9.4-6.7c17.2,12.2,33.2,26,47.9,41.2L885.8,892.1z"/>
				<path class="st19" d="M885.8,892.1l-47.5-44.9l7.2-8.1c19.2,13.8,37.3,29,54.2,45.6L885.8,892.1z"/>
				<path class="st19" d="M835,921.6l-61.6-40.7l16-4.7l61.1,36.8L835,921.6z"/>
				<path class="st35" d="M799.5,879.2l1.1,0.7c0.4,0.2,0.8,0.3,1.2,0.3c0.4,0,0.8-0.1,1.2-0.3l11.3-5c1.3-0.6,1.4-1.8,0-2.3l-1-0.5
					c-0.7-0.3-1.5-0.3-2.3,0l-11.2,4.9C798.9,877.6,798.6,878.6,799.5,879.2z"/>
				<path class="st18" d="M804.6,879.7l-0.9,0.3l-4.9-2.8l0.7-0.4L804.6,879.7z"/>
				<path class="st18" d="M807,878.9l-0.9,0.2l-4.8-2.8l0.7-0.4L807,878.9z"/>
				<path class="st18" d="M809.4,877.9l-0.9,0.2l-4.9-2.8l0.7-0.3L809.4,877.9z"/>
				<path class="st18" d="M811.8,877l-0.9,0.3l-4.8-2.8l0.7-0.4L811.8,877z"/>
				<path class="st18" d="M814.1,876l-0.9,0.3l-4.9-2.8l0.8-0.4L814.1,876z"/>
				<path class="st18" d="M815.9,874.9l-0.8,0.2l-4.9-2.8l0.7-0.4L815.9,874.9z"/>
				<path class="st35" d="M841.5,854.5l-1.1-0.7c-0.3-0.2-0.7-0.3-1-0.3c-0.4,0-0.7,0.1-1,0.3l-8.9,7c-0.2,0.1-0.4,0.3-0.6,0.6
					c-0.1,0.2-0.2,0.5-0.2,0.8c0,0.3,0.1,0.5,0.2,0.8c0.1,0.2,0.3,0.4,0.6,0.6l1,0.5c0.3,0.1,0.6,0.2,1,0.2s0.7-0.1,1-0.2l8.7-6.7
					C842.3,856.4,842.4,855.1,841.5,854.5z"/>
				<g>
					<path class="st18" d="M837,854.3l0.7-0.4l4.7,2.9l-0.5,0.5L837,854.3z"/>
					<path class="st18" d="M835.2,855.5l0.7-0.3l4.6,2.8l-0.5,0.6L835.2,855.5z"/>
					<path class="st18" d="M833.2,856.8l0.7-0.4l4.7,2.9l-0.5,0.5L833.2,856.8z"/>
					<path class="st18" d="M831.4,858.1l0.7-0.3l4.6,2.8l-0.5,0.6L831.4,858.1z"/>
					<path class="st18" d="M829.6,859.5l0.7-0.4l4.6,2.9l-0.5,0.5L829.6,859.5z"/>
					<path class="st18" d="M828.2,861.1l0.7-0.4l4.7,2.9l-0.6,0.6L828.2,861.1z"/>
				</g>
				<path class="st36" d="M820.9,810.3l17.1,25.4l-0.5,3l-13.1-7.8L820.9,810.3z"/>
				<path class="st36" d="M799.7,816.2l23,13.7l-3.8-22.6l-2.2-3.3C811.3,808.4,805.6,812.5,799.7,816.2z"/>
				<path class="st19" d="M760.6,767c2.8-1,58.7,33.5,58.7,33.5c-20.5,17.1-43.7,30.6-68.7,40l-59.3-32.7
					C713.2,792.3,736.4,778.7,760.6,767z"/>
				<path class="st21" d="M635.5,827.3l3.6-4.2l0.2,3l15.5,9.6l-2.4,1.4L635.5,827.3z"/>
				<path class="st37" d="M641.2,813.4l0.8,0.5c0.4,0.4,0.8,0.9,1,1.4c0.2,0.6,0.2,1.2,0,1.9v6.2c0.1,0.4,0.1,0.9,0,1.3
					c0,0-0.9,0-1.2,0l-1.5-1c-0.6,0,0,0-0.8-0.7v-2.2L641.2,813.4z"/>
				<path class="st10" d="M778.4,912.3v6.1l1.3-0.8v-6.1L778.4,912.3z"/>
				<path class="st21" d="M812.3,930.5c-3.6-5.5-8.4-10.3-13.9-13.9c-2-1.1-4.4-1.6-6.7-1.3c-2.3,0.3-4.5,1.2-6.2,2.8
					c-2.1,2.2-3.3,5-3.3,8v3.9l-0.6-7.7c0.2-1.6,0.7-3.2,1.5-4.6c0.8-1.4,1.9-2.7,3.2-3.6c1.3-1,2.8-1.7,4.4-2
					c1.6-0.4,3.3-0.4,4.9,0c13,1.9,20.6,17.7,20.6,17.7L812.3,930.5z"/>
				<path class="st9" d="M786.9,913.2c2.2-0.8,4.6-1,6.9-0.6c13,1.7,20.1,18.4,20.1,18.4h-1.2c-3.7-5.8-8.5-10.8-14.2-14.6
					c-1.8-1-3.8-1.5-5.8-1.5s-4,0.5-5.8,1.5c-1.5,0-3.8,4.3-4.5,13.1l-2.3-1.3C780.9,919.9,783.1,915.7,786.9,913.2z"/>
				<path class="st21" d="M651.9,837.3c4.6-0.7,9.3,0.1,13.3,2.4c6.3,4.6,10.6,11.3,12.2,19l2.1,7.8l0.8-0.9c0,0-0.8-6.6-1.5-9.3
					c-0.6-3.6-2-7-4-10.1c-2-3-4.6-5.7-7.7-7.6c-1.7-1.3-3.7-2.3-5.9-2.8c-2.1-0.5-4.4-0.5-6.5-0.1L651.9,837.3z"/>
				<path class="st9" d="M678.7,870.4l-1.2-0.8c0.4-4.2,0.1-8.5-0.9-12.7c-1.9-6.7-6.3-12.5-12.3-16.2c-1.8-1.2-3.8-2-6-2.4
					c-2.1-0.3-4.3-0.2-6.4,0.4c-2.6,1.2-4.7,3.3-5.8,6c-0.6,2.5-1.8-1-1.8-1l4.3-6.7h3.2c3.1-0.8,6.4-0.8,9.6,0
					c3.9,1.9,7.4,4.6,10.1,7.9c2.8,3.3,4.8,7.3,5.8,11.5c1.1,3.1,1.7,6.2,2,9.5l1.6,3.6L678.7,870.4z"/>
				<path class="st38" d="M787.1,901.5l2.2,1.2c0.3,0.2,0.5,0.4,0.6,0.7c0.2,0.3,0.3,0.6,0.3,0.9v0.8c0,0.2-0.1,0.3-0.2,0.5
					c-0.1,0.1-0.2,0.2-0.4,0.3c-0.1,0.1-0.3,0.1-0.5,0.1c-0.2,0-0.3,0-0.5-0.1l-2.1-1.2c-0.3-0.1-0.5-0.4-0.7-0.6
					c-0.2-0.3-0.2-0.6-0.2-0.9v-0.8c0-0.2,0-0.3,0.1-0.4c0.1-0.1,0.2-0.3,0.3-0.3c0.1-0.1,0.3-0.1,0.4-0.1
					C786.8,901.4,786.9,901.5,787.1,901.5z"/>
				<path class="st39" d="M786.7,901.8l2.2,1.2c0.3,0.1,0.5,0.4,0.7,0.6c0.2,0.3,0.2,0.6,0.2,0.9v0.8c0,0.2,0,0.3-0.1,0.4
					c-0.1,0.1-0.2,0.3-0.3,0.3c-0.1,0.1-0.3,0.1-0.4,0.1c-0.2,0-0.3,0-0.5-0.1l-2.2-1.2c-0.3-0.1-0.5-0.4-0.7-0.6
					c-0.2-0.3-0.2-0.6-0.2-0.9v-0.8c0-0.2,0-0.3,0.1-0.4c0.1-0.1,0.2-0.3,0.3-0.3c0.1-0.1,0.3-0.1,0.4-0.1
					C786.4,901.7,786.5,901.8,786.7,901.8z"/>
				<path class="st19" d="M834.2,923.3h-0.8c0,0-0.8,0-1,0c-0.2,0-1.4,1-1.6,1.9c-0.2,0.8-1,1.6-1.3,2.7c-0.3,0.6-0.4,1.3-0.4,1.9
					c0,0.7,0.1,1.3,0.4,1.9c0,0,2.1,1.6,2.5,1.4l2.6-1.2C835.4,929,835.3,926,834.2,923.3z"/>
				<path class="st40" d="M830.9,836.7c3.9,1,8,0.8,11.8-0.5c0.6,1.1,1.1,2,1.3,2.5c-21.1,17.1-44.8,30.8-70.1,40.6l-3.8-7.3
					C783.8,863.5,801.5,853.3,830.9,836.7z"/>
				<path class="st9" d="M743.7,877c0,1.2,0.4,2.5,1.1,3.5c0.7,1,1.8,1.7,3,2c0.9,0.1,1.7,0.1,2.6,0c4.5,0,10.3,0,11-0.7
					c0.7-0.7,5.3,0,5.3,0c0.4-0.3,0.6-0.6,0.8-1.1c0.2-0.4,0.3-0.9,0.3-1.3c0-0.5-0.1-0.9-0.3-1.3c-0.2-0.4-0.5-0.8-0.8-1.1
					l-0.9-0.7h-2.7c0-0.3,0-0.7,0-1c-1-1.8-2.5-3.2-4.4-4s-4-0.9-5.9-0.3C742.4,873.8,743.7,877,743.7,877z"/>
				<path class="st9" d="M719.7,864.6l7.4,4.3c0-1.3,0-2.2-1.2-3.1c-1.4-1-2.9-1.8-4.4-2.6C719.6,862.2,719.7,864.6,719.7,864.6z"/>
				<path class="st9" d="M686.2,844.5l7.4,4.3c0-1.4,0-2.3-1.2-3.1c-1.4-0.9-2.8-1.8-4.3-2.6C686.1,842.1,686.2,844.5,686.2,844.5z"
					/>
			</g>
		</g>
		<g>
			<polygon class="st8" points="361.1,1391.3 180.3,1265.9 180.3,696.4 361.1,821.9 			"/>
			<polygon class="st53" points="451.3,1341 361.1,1391.3 361.1,820.9 451.3,770.6 			"/>
			<polygon class="st8" points="261.8,632 451.3,770.6 361.1,820.9 177.5,697.6 			"/>
			<g>
				<path class="st9" d="M394.4,678.5c-1.1-1.8-1.6-3.8-1.4-5.9c0.2-2.1,1-4,2.4-5.6c4-5.9,7.1-3.9,7.1-3.9c1.3,1,2.2,2.5,2.5,4.1
					c0.3,1.6,0,3.3-0.9,4.7c-1.9,3.5-3.7,8.3-5,8.3c-1.3,0-2,4.3-2,4.3l-3.8-3.9L394.4,678.5z"/>
				<path class="st10" d="M336.7,774.1l25.9-14.3l-31.2-13.1L336.7,774.1z"/>
				<path class="st10" d="M200.2,695.8l25.9-14.3l-31.2-13.1L200.2,695.8z"/>
				
					<linearGradient id="SVGID_6_" gradientUnits="userSpaceOnUse" x1="-2407.5762" y1="-1053.0931" x2="-2282.6626" y2="-1053.0931" gradientTransform="matrix(1 0 0 -1 0 -275.9076)">
					<stop  offset="0.16" style="stop-color:#3C4851"/>
					<stop  offset="0.56" style="stop-color:#556773"/>
					<stop  offset="0.87" style="stop-color:#51626E"/>
				</linearGradient>
				<path style="fill:url(#SVGID_6_);" d="M342.7,762.3l4.6,7.4l11,18.1l5.5,9l7.3-4.2c1.7-1.1,2.9-2.9,3.4-4.9c0,0,0-0.5,0-0.7
					v-0.5c0-0.3,0-0.6,0-0.9v-1.9c-0.4-4.9-1.9-9.7-4.4-14c-2.5-4.2-6-7.8-10.2-10.5l-1.3-0.7c-1.4-0.7-2.9-1-4.4-1
					c-1.5,0-3,0.3-4.4,1L342.7,762.3z"/>
				<path class="st9" d="M339.2,771.8c0.3,5,1.9,9.8,4.4,14c2.6,4.3,6.1,7.9,10.3,10.5c8,4.4,14.4,0.7,14.3-8.2
					c-0.4-5-1.9-9.8-4.4-14s-6.1-7.9-10.3-10.5C345.2,759.1,339.2,762.9,339.2,771.8z"/>
				<path class="st12" d="M343.2,774.2c-0.1,0.9-0.1,1.8,0,2.7c0.6,2.8,1.7,5.4,3.2,7.8c1,1.5,2.1,2.9,3.4,4.1c1,1.1,2.2,2,3.5,2.7
					c0.9,0.5,1.9,0.9,2.9,1.1c1.4,0.5,2.9,0.5,4.2,0c0.8-0.5,1.4-1.1,1.9-1.9v-0.5c0,0,0-0.7,0-1.1c0,0,0-0.8,0-1.2
					c0-0.4,0-0.9,0-1.4c0-0.5,0,0,0-0.5c0.1-0.6,0.1-1.2,0-1.8c0-0.5,0-1.1,0-1.6c-0.5-1.9-1.3-3.8-2.3-5.6l-0.5-0.8
					c-0.8-1.2-1.7-2.4-2.7-3.5V772c-0.8-0.8-1.7-1.5-2.7-2.2l-1-0.6l-1-0.5h-1.1h-0.8h-0.5c-0.5-0.1-1-0.1-1.5,0
					c-0.5,0.1-1,0.3-1.4,0.6c-0.8,0.4-1.4,1-1.9,1.7c-0.5,0.7-0.8,1.5-1,2.4C343.5,773.7,343.3,773.9,343.2,774.2z"/>
				<path class="st10" d="M350.8,770.5c-0.1,0.9-0.1,1.7,0,2.6c0.6,2.8,1.7,5.4,3.2,7.8c1,1.5,2.1,3,3.4,4.2c1.1,1,2.2,1.9,3.5,2.7
					l2.2,0.9v-0.9c0,0,0,0,0-0.6c0-0.6,0-0.9,0-1.4s0-1.5,0-2.3c0-0.5,0-1.1,0-1.6c-0.5-2-1.2-3.8-2.3-5.6l-0.5-0.8
					c-0.8-1.3-1.8-2.5-2.8-3.6v-0.6c-1.1-1.1-2.4-2-3.7-2.8l-1-0.5h-1.1c0,0,0,0,0,0.6C351.3,769.2,351,769.8,350.8,770.5z"/>
				
					<linearGradient id="SVGID_7_" gradientUnits="userSpaceOnUse" x1="-1059.9602" y1="-2812.1025" x2="-1019.8838" y2="-2762.304" gradientTransform="matrix(1 0 0 -1 0 -275.9076)">
					<stop  offset="0.16" style="stop-color:#E3E3E3"/>
					<stop  offset="0.56" style="stop-color:#CCCCCC"/>
					<stop  offset="0.87" style="stop-color:#B7B7B7"/>
				</linearGradient>
				<path class="st54" d="M346.9,767.4c-0.8,0.8-1.4,1.7-1.8,2.7c-0.4,1-0.5,2.1-0.4,3.2c0.2,3.5,1.3,6.9,3.1,9.9
					c1.8,3,4.3,5.6,7.2,7.5c1,0.6,2,1,3.1,1.2c1.1,0.2,2.3,0.1,3.4-0.2c-1.2,0.8-2.6,1.3-4,1.3c-1.4,0-2.8-0.4-4-1.3
					c-3-1.9-5.4-4.4-7.2-7.4c-1.8-3-2.8-6.4-3.1-9.9c-0.2-1.4,0-2.9,0.7-4.1C344.5,769,345.6,768,346.9,767.4z"/>
				<path class="st12" d="M345.9,775l6.4,3.7l-2.9,9.5c0,0.5,1.9,0,1.9,0l4.4-4.7l3.2,7.9c1,0,0,1.9,1.2,1.7c0.8-0.3,1.4-0.7,2-1.3
					l-2.3-8.8l3.5,2c0-0.6,0-1.2,0-1.8c-0.2-1.1-0.5-2.2-0.9-3.3l-3-2.3l1-2.1c-0.8-1.2-1.7-2.4-2.7-3.5l-1.4,1.8l-2.5-5l-1-0.5
					h-1.1h-0.8h-1.3l2.6,6.3l-6.8-2.7c0,0-1.7,0.8-1.7,1.8C343.6,774.5,345.8,774.1,345.9,775z"/>
				<path class="st14" d="M343.3,776.1l6.6,4.3l-2.4,5.4c0.5,1,1.2,1.8,2.1,2.5l3.6-3.5l3.8,8c0.5,0.2,1,0.4,1.6,0.4
					c0.6,0,1.1-0.1,1.6-0.4l-2.5-7.5l5.9,3c0.1-0.8,0.1-1.5,0-2.3c0.1-0.6,0.1-1.2,0-1.7l-6.5-4.2l2.9-5c-0.6-1.1-1.4-2.1-2.4-2.9
					l-3.8,3.6l-4-8.3c-0.9-0.4-2-0.4-2.9,0l2.5,7.8l-6.1-2.8c-0.1,0.6-0.1,1.2,0,1.8C343.2,774.8,343.2,775.5,343.3,776.1z"/>
				<path class="st15" d="M351.2,778.7c0.1,0.8,0.3,1.5,0.7,2.2c0.4,0.7,0.9,1.2,1.6,1.6c1.2,0.6,2.3,0,2.3-1.3
					c-0.1-0.8-0.3-1.5-0.7-2.2c-0.4-0.7-0.9-1.2-1.6-1.6C352.2,776.8,351.2,777.3,351.2,778.7z"/>
				
					<linearGradient id="SVGID_8_" gradientUnits="userSpaceOnUse" x1="-2107.0881" y1="-974.9135" x2="-1982.9668" y2="-974.9135" gradientTransform="matrix(1 0 0 -1 0 -275.9076)">
					<stop  offset="0.16" style="stop-color:#3C4851"/>
					<stop  offset="0.56" style="stop-color:#556773"/>
					<stop  offset="0.87" style="stop-color:#51626E"/>
				</linearGradient>
				<path class="st55" d="M206.3,684l4.5,7.4l11.1,18.1l5.5,9l7.2-4.2c1.7-1.2,2.9-2.9,3.3-4.9c0-0.2,0-0.5,0-0.7v-0.5
					c0,0,0-0.6,0-0.9c0.1-0.5,0.1-1,0-1.4c-0.3-5-1.8-9.8-4.4-14c-2.6-4.2-6.1-7.8-10.3-10.4l-1.2-0.7c-1.4-0.7-2.9-1-4.4-1
					c-1.5,0-3,0.3-4.4,1L206.3,684z"/>
				<path class="st9" d="M202.4,693c0.3,5,1.9,9.8,4.4,14c2.6,4.3,6.1,7.9,10.3,10.5c7.9,4.4,14.3,0.7,14.2-8.2
					c-0.4-4.9-1.9-9.7-4.4-14c-2.5-4.3-6-7.9-10.2-10.5C208.7,679.9,202.3,684.1,202.4,693z"/>
				<path class="st10" d="M214.3,691.7c-0.1,0.9-0.1,1.7,0,2.6c0.5,2.8,1.6,5.5,3.2,7.8c0.9,1.6,2.1,3,3.4,4.2c1,1,2.2,1.9,3.5,2.7
					c0.7,0.4,1.4,0.7,2.2,0.9c0-0.3,0-0.6,0-0.9c0,0,0,0,0-0.6v-1.4c0.1-0.8,0.1-1.5,0-2.3c0-0.5,0-1.1,0-1.6
					c-0.6-1.9-1.4-3.8-2.4-5.6c0-0.3,0-0.5,0-0.8c-0.8-1.3-1.8-2.5-2.8-3.6l-0.6-0.6c-1.1-1.1-2.3-2-3.7-2.8l-0.9-0.5H215
					c0,0,0,0,0,0.6C214.7,690.4,214.5,691,214.3,691.7z"/>
				
					<linearGradient id="SVGID_9_" gradientUnits="userSpaceOnUse" x1="-1003.8138" y1="-2495.5591" x2="-963.7519" y2="-2445.7236" gradientTransform="matrix(1 0 0 -1 0 -275.9076)">
					<stop  offset="0.16" style="stop-color:#E3E3E3"/>
					<stop  offset="0.56" style="stop-color:#CCCCCC"/>
					<stop  offset="0.87" style="stop-color:#B7B7B7"/>
				</linearGradient>
				<path class="st56" d="M210.3,688.6c-0.8,0.8-1.3,1.7-1.7,2.7c-0.4,1-0.5,2.1-0.4,3.2c0.2,3.5,1.3,6.9,3.1,9.9
					c1.8,3,4.3,5.6,7.2,7.5c1,0.6,2,1,3.1,1.2c1.1,0.2,2.3,0.1,3.4-0.2c-1.2,0.8-2.6,1.3-4,1.3c-1.4,0-2.8-0.4-4-1.3
					c-3-1.9-5.4-4.4-7.2-7.4c-1.8-3-2.8-6.4-3.1-9.9c-0.3-1.4-0.1-2.9,0.6-4.1C207.9,690.2,209,689.2,210.3,688.6z"/>
				<path class="st12" d="M209.5,696.2l6.4,3.7l-3,9.5l2-0.5l4.4-4.7l3.2,7.9c1,0,0,1.9,1.2,1.6c0.7-0.3,1.4-0.7,1.9-1.3l-1.9-7.9
					l3.5,2c0-0.6,0-1.2,0-1.8c-0.1-1.1-0.4-2.2-0.8-3.3l-3.1-2.3l1-2.1c-0.8-1.3-1.7-2.4-2.8-3.5l-1.3,1.8l-2.6-5l-0.9-0.5h-1.1
					h-0.8h-1.1l2.6,6.3l-6.9-2.7c0,0-1.6,0.8-1.6,1.8C207.6,696,209.2,695.3,209.5,696.2z"/>
				<path class="st14" d="M206.8,697.3l6.6,4.3l-2.5,5.4c0.5,1,1.2,1.8,2.1,2.5l3.7-3.5l3.8,8c0.5,0.2,1,0.4,1.6,0.4
					c0.6,0,1.1-0.1,1.6-0.4l-2.6-7.5l5.9,3c0.1-0.8,0.1-1.5,0-2.3c0-0.6,0-1.2,0-1.9l-6.5-4.1l2.8-5c-0.6-1.1-1.3-2.1-2.3-2.9
					l-3.8,3.6l-4.1-8.3c-0.9-0.4-2-0.4-2.9,0l2.5,7.8l-6-2.8c-0.1,0.6-0.1,1.2,0,1.8C206.6,696,206.6,696.7,206.8,697.3z"/>
				<path class="st15" d="M214.7,699.9c0.1,0.8,0.3,1.5,0.7,2.2c0.4,0.7,0.9,1.2,1.6,1.6c1.2,0.6,2.3,0,2.3-1.3
					c-0.1-0.8-0.4-1.5-0.8-2.2c-0.4-0.7-1-1.2-1.6-1.7C215.6,698,214.7,698.5,214.7,699.9z"/>
				<path class="st18" d="M193.5,664.7v7.8l8.7,12.6c0.5-0.6,0.9-1.2,1.4-1.8c0.9-0.9,2.1-1.7,3.3-2.2c1.2-0.4,2.4-0.6,3.7-0.6
					c2.6,0.1,5.2,0.8,7.5,2.2c4.8,2.9,8.7,6.9,11.4,11.7c2.7,4.5,4.2,9.5,4.4,14.7c0,1.8-0.2,3.6-0.7,5.4l103.6,59.5
					c0-0.7,0-1.4,0-2.3c-0.2-3.5,1-7,3.3-9.7c0.7-0.7,1.5-1.3,2.4-1.8c1.4-0.7,3-1.1,4.6-1.1c2.7,0.1,5.2,0.9,7.5,2.3
					c5.2,3.2,9.4,7.7,12.3,13.1c2.2,4.2,3.5,8.8,3.7,13.5c0,1.7-0.2,3.3-0.6,4.9l2.9,1.5l9.7-2.3l6.2-8.9l-3.3-2.1l4-15.8
					l-61.8-41.2c-5.8-14.3-13.4-27.9-22.7-40.3c-11.9-11.4-59.3-32.7-59.3-32.7l-26.2,9.7l-20-8.8l-3.9,4.6L193.5,664.7z"/>
				<path class="st19" d="M195.5,657.5l192.1,108.9L327.7,725l-108.3-63.4l-20-8.8L195.5,657.5z"/>
				<path class="st18" d="M233.8,709.2c0,1.8-0.2,3.6-0.7,5.4l103.6,59.5c0-0.7,0-1.4,0-2.3c-0.2-3.5,1-7,3.3-9.7
					c0.7-0.7,1.5-1.3,2.4-1.8L229,694.5C231.8,698.9,233.5,704,233.8,709.2z"/>
				<path class="st20" d="M317,758.9l0.5-19.2l2.4-13.2l-0.9-0.2l-2.5,13.2l-0.4,17.7l-44.1-24l-1.8-19.2l3.1-16.8l-0.1-0.1
					l-17.3-30.1l-0.4,0.3l-16.8,10v0.2l-3.8,16.8l3.8,21.2l0.9-0.1l-3.7-21.1l3.7-16.4l15.9-9.5l16.7,28.9l-3,16.5v0.1l1.9,19.9
					l0.2,0.1L317,758.9z"/>
				<path class="st21" d="M336.7,768.2c0,0.7,0,1.4,0,2.2c0,0.7,0,1.5,0,2.3L233,713.2c0.4-1.3,0.6-2.7,0.7-4.1L336.7,768.2z"/>
				<path class="st22" d="M336.6,767.4c-0.1-3.1,0.8-6.2,2.6-8.8l3.1,1.7c-0.9,0.5-1.7,1-2.4,1.8c-1.9,2.1-3,4.7-3.2,7.5
					C336.7,768.9,336.6,768.1,336.6,767.4z"/>
				<path class="st9" d="M336.7,769.6c0,0.7,0,1.4,0,2.2c0,0.7,0,1.5,0,2.3L233,714.5c0.4-1.3,0.7-2.7,0.7-4L336.7,769.6z"/>
				<path class="st9" d="M189.8,671.4v6l2.1,6.2l5,5.1l2.3,6.4l1.1,0.7c-0.1-0.9-0.1-1.9,0-2.8c-0.1-2.8,0.5-5.5,1.9-7.9
					c0.5-0.6,0.9-1.2,1.4-1.8c0.9-0.9,2.1-1.7,3.3-2.2l-9.8-5.7l-2.1-1.2L189.8,671.4z"/>
				<path class="st9" d="M227.6,666.4l3.2,8l7.3,4.1l0.8,0.5l0.8,0.5l2.3,1.3l1.8,1.1l1.2,0.6l1.5,0.9l1.2,0.7l25.8,15.5l3.3,2.1
					l34.7,20.8l1.5,0.9l8.8,5.3l1-5.6l-14.2-26l-1.5-2.9l-4.6-8.4l-52-28.5l-0.5-0.4l-1.8-0.9L227.6,666.4z"/>
				<path class="st23" d="M249.1,658.3l-17,10.7l0.6,4.8l88.1,52.6l0.5-2.9l-20-36.6L249.1,658.3z"/>
				<path class="st9" d="M239.1,678.7l1.1,1.2l0.8,0.4l0.8,0.5l11.3-20.9l-0.5-1.2l-0.6-0.4l-1.2,0.6L239.1,678.7z"/>
				<path class="st9" d="M271.5,698.1l3.3,2l5.7-24.8l-3.3-1.6L271.5,698.1z"/>
				<path class="st9" d="M306.7,694.3V719l1.7,0.9l0.3-22.6l-1.5-2.9L306.7,694.3z"/>
				<path class="st21" d="M334.1,755.6v6.1l-100.1-63l1.4-0.7L334.1,755.6z"/>
				<path class="st9" d="M332.7,756.5v6.1L234,704.8v-6.1L332.7,756.5z"/>
				<path class="st10" d="M452.5,742.5l1.5-13.7l-65.5,36.7l-2.9,14.5C385.7,780,429.2,769.3,452.5,742.5z"/>
				<path class="st10" d="M386.2,777.7v-2.3c23.6-8.6,45.7-21.1,65.3-36.9c0.5,0,0.6-2.4,0.6-2.4v2.1c0,0,0,2-0.6,2.4
					C432,756.5,409.9,769,386.2,777.7z"/>
				<path class="st10" d="M386.2,774.5v-2.3c23.6-8.6,45.7-21.1,65.3-36.9c0.5,0,0.6-2.4,0.6-2.4v2.1c0,0,0,2-0.6,2.4
					C432,753.3,409.9,765.8,386.2,774.5z"/>
				<path class="st10" d="M386.2,771.3V769c23.6-8.6,45.7-21.1,65.3-36.9c0.5,0,0.6-2.5,0.6-2.5v2.1c0,0,0,2.1-0.6,2.5
					C431.9,750.1,409.9,762.6,386.2,771.3z"/>
				<path class="st21" d="M386.2,778.3v-2.4c23.7-8.5,45.7-21,65.3-36.8c0.5,0,0.6-2.5,0.6-2.5v2.1c0,0,0,2.1-0.6,2.5
					C431.9,757.1,409.9,769.6,386.2,778.3z"/>
				<path class="st21" d="M386.2,775.1v-2.4c23.6-8.6,45.7-21,65.3-36.8c0.5,0,0.6-2.5,0.6-2.5v2.1c0,0,0,2.1-0.6,2.5
					C431.9,753.9,409.9,766.4,386.2,775.1z"/>
				<path class="st21" d="M386.2,771.9v-2.4c23.7-8.6,45.7-21,65.3-36.9c0.5,0,0.6-2.4,0.6-2.4v2.1c0,0,0,2.1-0.6,2.4
					C431.9,750.7,409.9,763.2,386.2,771.9z"/>
				<path class="st21" d="M386.6,766.4c23.5-8.6,45.5-20.9,65-36.6l0.6,1.3v0.5c-19.7,15.9-41.9,28.5-65.7,37.1L386.6,766.4z"/>
				<path class="st24" d="M449.2,760.4l-66.4,37.7l-0.5-5.7l66.3-37.8L449.2,760.4z"/>
				<path class="st9" d="M370.1,788.1c0,1.7-0.2,3.3-0.6,4.9l3,1.6l10.3,3.4l-0.5-5.7h2.1c2.1,0,4,1.3,5.9,0l1.3-0.6l61.8-35
					c0.7-0.4,1.3-0.9,1.8-1.4c0.6-0.9,1-1.9,1.1-3l0.5-8.3l-1.6,0.8L390.7,781l-1.8,0.9l-21.8-8.6v0.9
					C369.2,778.6,370.2,783.3,370.1,788.1z"/>
				<path class="st10" d="M390.7,781v12.3l1.3-0.6c9.7-3.5,19.2-7.7,28.3-12.7c5.5-2.8,10.9-6,16.1-9.4c6-4,11.7-8.3,17.2-13
					c0.7-0.4,1.2-1,1.8-1.5v-10.3L390.7,781z"/>
				<path class="st25" d="M387.8,767.7l12.1-5.7c0.2-0.1,0.4-0.1,0.7-0.1c0.2,0,0.4,0.1,0.6,0.2c0.2,0.1,0.3,0.3,0.4,0.5
					c0.1,0.2,0.1,0.4,0.1,0.7v4.4c-0.1,0.7-0.3,1.4-0.7,2c-0.4,0.6-1,1.1-1.7,1.4l-10.3,4.6L387.8,767.7z"/>
				<path class="st25" d="M442.2,738.8l9.3-7.2l-0.7,10.3l-9,7c-0.2,0.1-0.4,0.2-0.6,0.3c-0.2,0-0.5,0-0.7-0.1
					c-0.2-0.1-0.4-0.3-0.5-0.5c-0.1-0.2-0.1-0.4-0.1-0.7v-5c0-0.8,0.2-1.6,0.6-2.3C441,739.8,441.6,739.2,442.2,738.8z"/>
				<path class="st19" d="M450.4,732.1c0-0.8,3.2-2.8,3.2-2.8c0.6,1.7,0.8,3.5,0.6,5.3c-0.2,1.8-0.7,3.5-1.6,5l-2.2,2.1
					C450.7,738.4,450.7,735.2,450.4,732.1z"/>
				<path class="st26" d="M424.1,752c-0.1,0.9-0.4,1.8-0.9,2.6c-0.5,0.8-1.1,1.4-1.9,1.9c-1.4,0.7-2.6,0-2.6-1.5
					c0.1-0.9,0.3-1.8,0.8-2.6c0.5-0.8,1.1-1.5,1.9-1.9c0.3-0.2,0.6-0.3,0.9-0.4c0.3,0,0.7,0,1,0.2c0.3,0.2,0.5,0.4,0.7,0.7
					C424.1,751.4,424.2,751.7,424.1,752z"/>
				<path class="st27" d="M424.8,752.7c-0.1,0.9-0.3,1.8-0.8,2.5c-0.5,0.8-1.1,1.4-1.9,1.9c-0.3,0.2-0.6,0.3-0.9,0.4
					c-0.3,0-0.7,0-1-0.2c-0.3-0.2-0.5-0.4-0.7-0.7c-0.1-0.3-0.2-0.6-0.1-1c0.1-0.9,0.4-1.8,0.9-2.5c0.5-0.8,1.1-1.4,1.9-1.9
					C423.7,750.3,424.8,750.9,424.8,752.7z"/>
				<path class="st21" d="M368.5,772.6l-1.9,0.9l19.4,8.9c0.8,0.4,1.6,0.5,2.4,0.5c0.8,0,1.7-0.2,2.4-0.5c0,0,48.6-19.4,64.8-36.8
					c0.8-0.9,1.2-2.1,0-2.8l-3.4-3c0,0,0,2.1-0.6,2.5c-19.8,16-42.1,28.5-66,37.1L368.5,772.6z"/>
				<path class="st21" d="M401,780.8v2.2c0,0.3-0.1,0.7-0.3,1c-0.2,0.3-0.4,0.5-0.7,0.7l-7.2,2.8c-0.2,0.1-0.3,0.1-0.5,0
					c-0.2,0-0.3-0.1-0.4-0.2c-0.1-0.1-0.2-0.2-0.3-0.4c-0.1-0.1-0.1-0.3-0.1-0.5l6.1-2.4c0.3-0.1,0.6-0.4,0.8-0.7
					c0.2-0.3,0.3-0.6,0.2-1v-1.1l1.1-0.5c0.2-0.1,0.4-0.2,0.7-0.2C400.6,780.5,400.9,780.6,401,780.8z"/>
				<path class="st28" d="M398.6,780.3v1.1c0,0.3-0.1,0.7-0.2,1c-0.2,0.3-0.5,0.5-0.8,0.7l-6.1,2.4v-1.2c0-0.4,0.1-0.7,0.3-1
					c0.2-0.3,0.5-0.5,0.8-0.6L398.6,780.3z"/>
				<path class="st21" d="M453.7,749.5v1.2c0,0.3,0,0.6-0.1,0.9c-0.1,0.3-0.3,0.5-0.5,0.8l-4.3,3.6c0,0-0.8,0-0.8-0.6l3.6-3.1
					c0.2-0.2,0.4-0.5,0.5-0.7c0.1-0.3,0.2-0.6,0.2-0.9v-0.7l0.6-0.6C452.8,749.3,453.7,748.9,453.7,749.5z"/>
				<path class="st28" d="M452.5,749.5v0.7c0,0.3,0,0.6-0.2,0.9c-0.1,0.3-0.3,0.5-0.6,0.7l-3.6,3.1v-0.8c0-0.3,0-0.6,0.2-0.9
					c0.1-0.3,0.3-0.5,0.5-0.7L452.5,749.5z"/>
				<path class="st29" d="M419.8,773.7v5.8c5.5-2.8,10.9-6,16.1-9.4c0-0.2,0-0.3,0-0.5v-5.4c0-1-0.8-1.4-1.7-0.8l-12.8,7.4
					c-0.5,0.3-0.8,0.8-1.1,1.3C420,772.6,419.8,773.1,419.8,773.7z"/>
				<path class="st14" d="M434.3,771.3c0.5-0.3,0.9-0.7,1.2-1.2c0.3-0.5,0.5-1.1,0.5-1.7v-5.3c0-1-0.7-1.4-1.8-0.9l-12.8,7.5
					c-0.5,0.3-0.9,0.7-1.2,1.2c-0.3,0.5-0.5,1.1-0.5,1.6v5.3c0,1,0.8,1.4,1.8,0.9L434.3,771.3z"/>
				<path class="st30" d="M421.6,778.4l12.8-7.4c0.4-0.3,0.8-0.6,1-1c0.2-0.4,0.4-0.9,0.4-1.4v-5.3c0-0.9-0.6-1.2-1.4-0.7l-12.8,7.4
					c-0.4,0.3-0.7,0.6-0.9,1c-0.2,0.4-0.4,0.9-0.4,1.3v5.3C420.2,778.6,420.8,778.9,421.6,778.4z"/>
				<path class="st31" d="M420.2,772.6c0-0.5,0.2-0.9,0.4-1.3c0.2-0.4,0.6-0.8,0.9-1l12.8-7.4c0.8-0.5,1.4,0,1.4,0.6L420.2,772.6z"
					/>
				<path class="st31" d="M435.8,768.6c0,0.5-0.1,1-0.4,1.4c-0.3,0.4-0.6,0.8-1,1l-12.8,7.4c-0.7,0.5-1.3,0-1.3-0.6L435.8,768.6z"/>
				<path class="st19" d="M267.1,613.5l-68,39.3l20,8.8l72.1-41.7l-15.6-6.8c-1.4-0.6-2.8-0.9-4.3-0.8
					C269.9,612.4,268.4,612.8,267.1,613.5z"/>
				<path class="st32" d="M387.8,767.7l11.3-5.4v3.6c0,0.7-0.3,1.4-0.7,2s-1,1.1-1.7,1.4l-7.4,3.4L387.8,767.7z"/>
				<path class="st32" d="M440,742.4c0-0.7,0.2-1.4,0.5-2c0.3-0.6,0.8-1.2,1.3-1.6l6.3-4.9v4.5c0,0.6-0.2,1.3-0.5,1.8
					c-0.3,0.6-0.7,1.1-1.2,1.5l-6.4,5V742.4z"/>
				<path class="st9" d="M291.5,619.9c-24.6,8.7-72.1,41.7-72.1,41.7l26.2-9.7l69.3-41.2C314.9,610.7,298,618.1,291.5,619.9z"/>
				<path class="st33" d="M245.8,650.9c31.6-21.1,56.7-34.5,56.7-34.5l-10.3,3.9c-22.4,10.1-43.7,22.3-63.7,36.6
					C234.5,655.4,240.3,653.4,245.8,650.9z"/>
				<path class="st18" d="M452.5,729.7c-20.1,14.6-41.9,26.9-64.8,36.7l-60.1-41.2l72.1-41.7l54,45.5L452.5,729.7z"/>
				<path class="st9" d="M391.7,692.5c0,0-2.5,7.8-20.6,18c-8.3,5.5-17.7,8.8-27.6,9.8l-16.1,4.7l71.4-41.9L391.7,692.5z"/>
				<path class="st9" d="M373.6,644.6c-20.5,17-43.8,30.5-68.7,40c0,0,12.2,19.5,22.7,40.3c26.1-9.9,50.5-24,72.1-41.7
					C399.7,683.1,388,665.2,373.6,644.6z"/>
				<path class="st34" d="M306.7,685.1c3.2,4.2,12.6,20.6,21.5,38.3c25.4-9.8,49-23.5,70.1-40.6c-1.7-3.6-12.9-18.8-24.9-36.7
					l-2.4,2.1c-5.4,4.3-11.1,8.4-17,12.2C339,669.9,323.1,678.2,306.7,685.1z"/>
				<path class="st18" d="M440.1,736.2l-48.4-43.7c0,0,7.1-8.2,9.4-6.7c17.2,12.2,33.2,26,47.9,41.2L440.1,736.2z"/>
				<path class="st19" d="M440.1,736.2l-47.5-44.9l7.2-8.1c19.2,13.8,37.3,29,54.2,45.6L440.1,736.2z"/>
				<path class="st19" d="M389.3,765.7L327.7,725l16-4.7l61.1,36.8L389.3,765.7z"/>
				<path class="st35" d="M353.9,723.3l1.1,0.7c0.4,0.2,0.8,0.3,1.2,0.3s0.8-0.1,1.2-0.3l11.3-5c1.3-0.6,1.4-1.8,0-2.3l-1-0.5
					c-0.7-0.3-1.5-0.3-2.3,0l-11.2,4.9C353.2,721.8,352.9,722.7,353.9,723.3z"/>
				<path class="st18" d="M358.9,723.8l-0.9,0.3l-4.9-2.8l0.7-0.4L358.9,723.8z"/>
				<path class="st18" d="M361.3,723l-0.9,0.2l-4.8-2.8l0.7-0.4L361.3,723z"/>
				<path class="st18" d="M363.8,722.1l-0.9,0.2l-4.9-2.8l0.7-0.3L363.8,722.1z"/>
				<path class="st18" d="M366.1,721.1l-0.9,0.3l-4.8-2.8l0.7-0.4L366.1,721.1z"/>
				<path class="st18" d="M368.4,720.1l-0.9,0.3l-4.9-2.8l0.8-0.4L368.4,720.1z"/>
				<path class="st18" d="M370.2,719l-0.8,0.2l-4.9-2.8l0.7-0.4L370.2,719z"/>
				<path class="st35" d="M395.8,698.6l-1.1-0.7c-0.3-0.2-0.7-0.3-1-0.3c-0.4,0-0.7,0.1-1,0.3l-8.9,7c-0.2,0.1-0.4,0.3-0.6,0.6
					c-0.1,0.2-0.2,0.5-0.2,0.8c0,0.3,0.1,0.5,0.2,0.8c0.1,0.2,0.3,0.4,0.6,0.6l1,0.5c0.3,0.1,0.6,0.2,1,0.2s0.7-0.1,1-0.2l8.7-6.7
					C396.6,700.5,396.7,699.2,395.8,698.6z"/>
				<g>
					<path class="st18" d="M391.4,698.4l0.7-0.4l4.7,2.9l-0.5,0.5L391.4,698.4z"/>
					<path class="st18" d="M389.5,699.6l0.7-0.3l4.6,2.8l-0.5,0.6L389.5,699.6z"/>
					<path class="st18" d="M387.5,701l0.7-0.4l4.7,2.9l-0.5,0.5L387.5,701z"/>
					<path class="st18" d="M385.7,702.2l0.7-0.3l4.6,2.8l-0.5,0.6L385.7,702.2z"/>
					<path class="st18" d="M383.9,703.6l0.7-0.4l4.6,2.9l-0.5,0.5L383.9,703.6z"/>
					<path class="st18" d="M382.5,705.2l0.7-0.4l4.7,2.9l-0.6,0.6L382.5,705.2z"/>
				</g>
				<path class="st36" d="M375.2,654.4l17.1,25.4l-0.5,3l-13.1-7.8L375.2,654.4z"/>
				<path class="st36" d="M354.1,660.4l23,13.7l-3.8-22.6l-2.2-3.3C365.6,652.6,359.9,656.6,354.1,660.4z"/>
				<path class="st19" d="M314.9,611.1c2.8-1,58.7,33.5,58.7,33.5c-20.5,17.1-43.7,30.6-68.7,40l-59.3-32.7
					C267.5,636.4,290.7,622.8,314.9,611.1z"/>
				<path class="st21" d="M189.8,671.4l3.6-4.2l0.2,3l15.5,9.6l-2.4,1.4L189.8,671.4z"/>
				<path class="st37" d="M195.5,657.5l0.8,0.5c0.4,0.4,0.8,0.9,1,1.4c0.2,0.6,0.2,1.2,0,1.9v6.2c0.1,0.4,0.1,0.9,0,1.3
					c0,0-0.9,0-1.2,0l-1.5-1c-0.6,0,0,0-0.8-0.7v-2.2L195.5,657.5z"/>
				<path class="st10" d="M332.7,756.5v6.1l1.3-0.8v-6.1L332.7,756.5z"/>
				<path class="st21" d="M366.6,774.6c-3.6-5.5-8.4-10.3-13.9-13.9c-2-1.1-4.4-1.6-6.7-1.3c-2.3,0.3-4.5,1.2-6.2,2.8
					c-2.1,2.2-3.3,5-3.3,8v3.9l-0.6-7.7c0.2-1.6,0.7-3.2,1.5-4.6c0.8-1.4,1.9-2.7,3.2-3.6c1.3-1,2.8-1.7,4.4-2
					c1.6-0.4,3.3-0.4,4.9,0c13,1.9,20.6,17.7,20.6,17.7L366.6,774.6z"/>
				<path class="st9" d="M341.2,757.3c2.2-0.8,4.6-1,6.9-0.6c13,1.7,20.1,18.4,20.1,18.4h-1.2c-3.7-5.8-8.5-10.8-14.2-14.6
					c-1.8-1-3.8-1.5-5.8-1.5c-2,0-4,0.5-5.8,1.5c-1.5,0-3.8,4.3-4.5,13.1l-2.3-1.3C335.2,764,337.4,759.9,341.2,757.3z"/>
				<path class="st21" d="M206.3,681.4c4.6-0.7,9.3,0.1,13.3,2.4c6.3,4.6,10.6,11.3,12.2,19l2.1,7.8l0.8-0.9c0,0-0.8-6.6-1.5-9.3
					c-0.6-3.6-2-7-4-10.1s-4.6-5.7-7.7-7.6c-1.7-1.3-3.7-2.3-5.9-2.8c-2.1-0.5-4.4-0.5-6.5-0.1L206.3,681.4z"/>
				<path class="st9" d="M233,714.5l-1.2-0.8c0.4-4.2,0.1-8.5-0.9-12.7c-1.9-6.7-6.3-12.5-12.3-16.2c-1.8-1.2-3.8-2-6-2.4
					c-2.1-0.3-4.3-0.2-6.4,0.4c-2.6,1.2-4.7,3.3-5.8,6c-0.6,2.5-1.8-1-1.8-1l4.3-6.7h3.2c3.1-0.8,6.4-0.8,9.6,0
					c3.9,1.9,7.4,4.6,10.1,7.9c2.8,3.3,4.8,7.3,5.8,11.5c1.1,3.1,1.7,6.2,2,9.5l1.6,3.6L233,714.5z"/>
				<path class="st38" d="M341.4,745.7l2.2,1.2c0.3,0.2,0.5,0.4,0.6,0.7c0.2,0.3,0.3,0.6,0.3,0.9v0.8c0,0.2-0.1,0.3-0.2,0.5
					c-0.1,0.1-0.2,0.2-0.4,0.3c-0.1,0.1-0.3,0.1-0.5,0.1c-0.2,0-0.3,0-0.5-0.1l-2.1-1.2c-0.3-0.1-0.5-0.4-0.7-0.6
					c-0.2-0.3-0.2-0.6-0.2-0.9v-0.8c0-0.2,0-0.3,0.1-0.4c0.1-0.1,0.2-0.3,0.3-0.3c0.1-0.1,0.3-0.1,0.4-0.1
					C341.1,745.6,341.3,745.6,341.4,745.7z"/>
				<path class="st39" d="M341,746l2.2,1.2c0.3,0.1,0.5,0.4,0.7,0.6c0.2,0.3,0.2,0.6,0.2,0.9v0.8c0,0.2,0,0.3-0.1,0.4
					c-0.1,0.1-0.2,0.3-0.3,0.3c-0.1,0.1-0.3,0.1-0.4,0.1c-0.2,0-0.3,0-0.5-0.1l-2.2-1.2c-0.3-0.1-0.5-0.4-0.7-0.6
					c-0.2-0.3-0.2-0.6-0.2-0.9v-0.8c0-0.2,0-0.3,0.1-0.4c0.1-0.1,0.2-0.3,0.3-0.3c0.1-0.1,0.3-0.1,0.4-0.1
					C340.7,745.9,340.8,745.9,341,746z"/>
				<path class="st19" d="M388.6,767.4h-0.8c0,0-0.8,0-1,0c-0.2,0-1.4,1-1.6,1.9c-0.2,0.8-1,1.6-1.3,2.7c-0.3,0.6-0.4,1.3-0.4,1.9
					c0,0.7,0.1,1.3,0.4,1.9c0,0,2.1,1.6,2.5,1.4l2.6-1.2C389.7,773.1,389.6,770.1,388.6,767.4z"/>
				<path class="st40" d="M385.2,680.9c3.9,1,8,0.8,11.8-0.5c0.6,1.1,1.1,2,1.3,2.5c-21.1,17.1-44.8,30.8-70.1,40.6l-3.8-7.3
					C338.1,707.6,355.8,697.4,385.2,680.9z"/>
				<path class="st9" d="M298,721.1c0,1.2,0.4,2.5,1.1,3.5c0.7,1,1.8,1.7,3,2c0.9,0.1,1.7,0.1,2.6,0c4.5,0,10.3,0,11-0.7
					c0.7-0.7,5.3,0,5.3,0c0.4-0.3,0.6-0.6,0.8-1.1c0.2-0.4,0.3-0.9,0.3-1.3c0-0.5-0.1-0.9-0.3-1.3c-0.2-0.4-0.5-0.8-0.8-1.1
					l-0.9-0.7h-2.7c0-0.3,0-0.7,0-1c-1-1.8-2.5-3.2-4.4-4c-1.9-0.8-4-0.9-5.9-0.3C296.7,717.9,298,721.1,298,721.1z"/>
				<path class="st9" d="M274,708.7l7.4,4.3c0-1.3,0-2.2-1.2-3.1c-1.4-1-2.9-1.8-4.4-2.6C273.9,706.3,274,708.7,274,708.7z"/>
				<path class="st9" d="M240.6,688.6l7.4,4.3c0-1.4,0-2.3-1.2-3.1c-1.4-0.9-2.8-1.8-4.3-2.6C240.5,686.2,240.6,688.6,240.6,688.6z"
					/>
			</g>
		</g>
		<text transform="matrix(1 0 0 1 211.3054 1664.3284)" class="st8 st51 st62">Xx kg</text>
		<text transform="matrix(1 0 0 1 227.4816 1581.9143)" class="st0 st63 st64">Juli</text>
		<text transform="matrix(1 0 0 1 656.9768 1664.3284)" class="st8 st51 st62">Xx kg</text>
		<text transform="matrix(1 0 0 1 581.9009 1581.9143)" class="st0 st63 st64">Augusti</text>
	</g>
	<g>
		<defs>
			<polygon id="SVGID_31_" points="3586.5,143.5 2506.5,778.7 2506.5,1.2 3586.5,0 			"/>
		</defs>
		<clipPath id="SVGID_10_">
			<use xlink:href="#SVGID_31_"  style="overflow:visible;"/>
		</clipPath>
		<g style="clip-path:url(#SVGID_10_);">
			<defs>
				<rect id="SVGID_33_" x="2506.5" y="-5.5" width="1114.1" height="1120.1"/>
			</defs>
			<clipPath id="SVGID_11_">
				<use xlink:href="#SVGID_33_"  style="overflow:visible;"/>
			</clipPath>
			<g style="clip-path:url(#SVGID_11_);">
				<path class="st88" d="M2558.5,1838L307.9,541.4L2672.2-824.8L4922.8,471.8L2558.5,1838z"/>
				<path class="st27" d="M3694,81.2L695.4,317.6L1999,1071.8L3694,92.9V81.2z"/>
				<path class="st19" d="M2390.3-673.1l-1695,978.9L1999,1060.1L3694,81.2L2390.3-673.1z"/>
				<path class="st89" d="M1829.7-351.2L695.4,305.8L1999,1060.1L3133.4,403L1829.7-351.2z"/>
				<path class="st91" d="M2523.4-911.7l720.3,415.8L1793.6,339.7L1073.3-76.1L2523.4-911.7z"/>
			</g>
		</g>
	</g>
	<rect x="1" y="1830" class="st0" width="1078" height="90"/>
</g>
<g id="Ramar">
	<g>
		<path d="M0,1.1v1920h1080V1.1H0z M1109.2,1959.8H-29.2V-36.3h1138.4V1959.8z"/>
		<g>
			<path d="M0,1.1v1920h1080V1.1H0z M1109.2,1959.8H-29.2V-36.3h1138.4V1959.8z"/>
		</g>
	</g>
</g>
</svg>
