<?xml version="1.0" encoding="utf-8"?>
<!-- Generator: Adobe Illustrator 24.0.0, SVG Export Plug-In . SVG Version: 6.00 Build 0)  -->
<svg version="1.1" xmlns="http://www.w3.org/2000/svg" xmlns:xlink="http://www.w3.org/1999/xlink" x="0px" y="0px"
	 viewBox="0 0 1080 1920" style="enable-background:new 0 0 1080 1920;" xml:space="preserve">
<style type="text/css">
	.st0{fill:#FFFFFF;}
	.st1{fill:#00AEEF;}
	.st2{fill:#91651F;}
	.st3{fill:#AA7723;}
	.st4{fill:#855107;}
	.st5{fill:#567601;}
	.st6{fill:#638800;}
	.st7{fill:#769C11;}
	.st8{fill:#06395B;}
	.st9{fill:#414C5C;}
	.st10{fill:#293237;}
	.st11{fill:url(#SVGID_1_);}
	.st12{fill:#A1A1A1;}
	.st13{fill:url(#SVGID_2_);}
	.st14{fill:#D3D3D3;}
	.st15{fill:#B6B6B6;}
	.st16{fill:url(#SVGID_3_);}
	.st17{fill:url(#SVGID_4_);}
	.st18{fill:#73A538;}
	.st19{fill:#79B53B;}
	.st20{fill:#577729;}
	.st21{fill:#546672;}
	.st22{fill:#409E4E;}
	.st23{fill:#529BA3;}
	.st24{fill:#141E25;}
	.st25{fill:#9CB7D2;}
	.st26{fill:#768A99;}
	.st27{fill:#C4C4C4;}
	.st28{fill:#BED5DF;}
	.st29{fill:#12181D;}
	.st30{fill:#EFEC82;}
	.st31{fill:#D3A944;}
	.st32{fill:#E8F0F3;}
	.st33{fill:#88D5DE;}
	.st34{fill:#3D7D87;}
	.st35{fill:#3E2F37;}
	.st36{fill:#95C9B1;}
	.st37{fill:#E08A35;}
	.st38{fill:#E06E18;}
	.st39{fill:#E0AB35;}
	.st40{fill:#5B949C;}
	.st41{fill:none;stroke:#FFFFFF;stroke-width:1.4862;stroke-miterlimit:10;}
	.st42{fill:none;stroke:#FFFFFF;stroke-width:1.4862;stroke-miterlimit:10;stroke-dasharray:6.0118,6.0118;}
	.st43{fill:#00AEEF;stroke:#00AEEF;}
	.st44{clip-path:url(#SVGID_6_);}
	.st45{fill:#91651F;stroke:#00AEEF;}
	.st46{fill:#AA7723;stroke:#00AEEF;}
	.st47{fill:#855107;stroke:#00AEEF;}
	.st48{fill:#567601;stroke:#00AEEF;}
	.st49{fill:#638800;stroke:#00AEEF;}
	.st50{fill:#769C11;stroke:#00AEEF;}
	.st51{fill:#1595BC;}
	.st52{fill:url(#SVGID_7_);}
	.st53{fill:url(#SVGID_8_);}
	.st54{fill:url(#SVGID_9_);}
	.st55{fill:url(#SVGID_10_);}
	.st56{fill:url(#SVGID_11_);}
	.st57{fill:url(#SVGID_12_);}
	.st58{fill:url(#SVGID_13_);}
	.st59{fill:url(#SVGID_14_);}
	.st60{fill:#FFFFFF;stroke:#06395B;}
	.st61{fill:#06395B;stroke:#06395B;}
	.st62{fill:#00AEEF;stroke:#06395B;}
	.st63{font-family:'UnitPro-Bold';}
	.st64{font-size:124.5719px;}
	.st65{font-family:'UnitPro';}
	.st66{font-size:59.7897px;}
	.st67{fill:url(#SVGID_15_);}
	.st68{fill:url(#SVGID_16_);}
	.st69{fill:url(#SVGID_17_);}
	.st70{fill:url(#SVGID_18_);}
	.st71{font-size:117.8917px;}
	.st72{fill:none;stroke:#FFFFFF;stroke-width:3;stroke-miterlimit:10;}
	.st73{fill:none;stroke:#FFFFFF;stroke-width:3;stroke-miterlimit:10;stroke-dasharray:12.135,12.135;}
	.st74{fill:url(#SVGID_19_);}
	.st75{fill:url(#SVGID_20_);}
	.st76{fill:url(#SVGID_21_);}
	.st77{fill:url(#SVGID_22_);}
	.st78{fill:url(#SVGID_23_);}
	.st79{fill:url(#SVGID_24_);}
	.st80{fill:url(#SVGID_25_);}
	.st81{fill:url(#SVGID_26_);}
	.st82{fill:url(#SVGID_27_);}
	.st83{fill:url(#SVGID_28_);}
	.st84{fill:url(#SVGID_29_);}
	.st85{fill:url(#SVGID_30_);}
	.st86{clip-path:url(#SVGID_32_);}
	.st87{clip-path:url(#SVGID_34_);}
	.st88{fill:#6E7071;}
	.st89{fill:#C9C9C9;}
	.st90{fill:#DBCC65;}
	.st91{fill:#EFEFEF;}
	.st92{fill:#B5AC96;}
	.st93{fill:#D1D1D1;}
	.st94{fill:#686868;}
	.st95{fill:url(#SVGID_35_);}
	.st96{fill:url(#SVGID_36_);}
	.st97{fill:#9C9C9C;}
	.st98{fill:#3D3D3D;}
	.st99{fill:url(#SVGID_37_);}
	.st100{fill:url(#SVGID_38_);}
	.st101{fill:url(#SVGID_39_);}
	.st102{fill:url(#SVGID_40_);}
	.st103{fill:url(#SVGID_41_);}
	.st104{fill:url(#SVGID_42_);}
	.st105{fill:#BABABA;}
	.st106{fill:url(#SVGID_43_);}
	.st107{fill:url(#SVGID_44_);}
	.st108{fill:#CECCCA;}
	.st109{fill:#96EB4B;}
	.st110{fill:#5AB42C;}
	.st111{fill:#ADA9A5;}
	.st112{fill:#C6BEB7;}
	.st113{fill:#E1D7AD;}
	.st114{fill:#E8D558;}
	.st115{fill:#CAC7D0;}
	.st116{fill:#AD964C;}
	.st117{fill:url(#SVGID_45_);}
	.st118{fill:url(#SVGID_46_);}
	.st119{fill:url(#SVGID_47_);}
	.st120{fill:url(#SVGID_48_);}
	.st121{fill:url(#SVGID_49_);}
	.st122{fill:url(#SVGID_50_);}
	.st123{fill:url(#SVGID_51_);}
	.st124{fill:url(#SVGID_52_);}
	.st125{fill:url(#SVGID_53_);}
	.st126{fill:url(#SVGID_54_);}
	.st127{fill:url(#SVGID_55_);}
	.st128{fill:url(#SVGID_56_);}
	.st129{fill:url(#SVGID_57_);}
	.st130{fill:url(#SVGID_58_);}
	.st131{fill:url(#SVGID_59_);}
	.st132{fill:url(#SVGID_60_);}
	.st133{fill:url(#SVGID_61_);}
	.st134{fill:#4F4743;}
	.st135{fill:#877A75;}
	.st136{fill:#322F36;}
	.st137{fill:#417C23;}
	.st138{fill:#053056;}
	.st139{fill:#084985;}
	.st140{fill:#0C5EAA;}
	.st141{fill:#C6CCDA;}
	.st142{fill:#ABA06F;}
	.st143{fill:#E8C589;}
	.st144{fill:#F5F5F5;}
	.st145{fill:url(#SVGID_62_);}
	.st146{fill:#FDCB54;}
	.st147{fill:#FFDA5B;}
	.st148{fill:#BB772D;}
	.st149{fill:#AD7434;}
	.st150{fill:#D8AD45;}
	.st151{fill:url(#SVGID_63_);}
	.st152{fill:url(#SVGID_64_);}
	.st153{fill:url(#SVGID_65_);}
	.st154{fill:url(#SVGID_66_);}
	.st155{fill:url(#SVGID_67_);}
	.st156{fill:#8BB3BA;}
	.st157{fill:#DFECF2;}
	.st158{fill:#87B9A2;}
	.st159{fill:#658975;}
	.st160{fill:#F5FAFF;}
	.st161{fill:url(#SVGID_68_);}
	.st162{fill:url(#SVGID_69_);}
	.st163{fill:url(#SVGID_70_);}
	.st164{fill:url(#SVGID_71_);}
	.st165{fill:url(#SVGID_72_);}
	.st166{fill:#918B86;}
	.st167{fill:#CACACA;}
	.st168{fill:#8B8B8B;}
	.st169{fill:#FF816F;}
	.st170{fill:url(#SVGID_73_);}
	.st171{fill:url(#SVGID_74_);}
	.st172{fill:#F0F0F0;}
	.st173{fill:url(#SVGID_75_);}
	.st174{fill:#B6BDCC;}
	.st175{fill:#C4A9AD;}
	.st176{fill:#B7A176;}
	.st177{fill:#C8BCA8;}
	.st178{fill:url(#SVGID_76_);}
	.st179{fill:url(#SVGID_77_);}
	.st180{fill:url(#SVGID_78_);}
	.st181{fill:url(#SVGID_79_);}
	.st182{fill:url(#SVGID_80_);}
	.st183{fill:url(#SVGID_81_);}
	.st184{fill:url(#SVGID_82_);}
	.st185{fill:url(#SVGID_83_);}
	.st186{fill:url(#SVGID_84_);}
	.st187{fill:url(#SVGID_85_);}
	.st188{fill:url(#SVGID_86_);}
	.st189{fill:url(#SVGID_87_);}
	.st190{fill:url(#SVGID_88_);}
	.st191{fill:#9F9E9E;}
	.st192{fill:#858482;}
	.st193{fill:#C0C0C0;}
	.st194{fill:#C8D4D4;}
	.st195{fill:#A2B3AF;}
	.st196{fill:#E1F0F0;}
	.st197{fill:#BDCCCC;}
	.st198{fill:#3A8ABF;}
	.st199{fill:#F4FAFC;}
	.st200{fill:url(#SVGID_89_);}
	.st201{fill:url(#SVGID_90_);}
	.st202{fill:url(#SVGID_91_);}
	.st203{fill:url(#SVGID_92_);}
	.st204{fill:url(#SVGID_93_);}
	.st205{fill:#BA9008;}
	.st206{fill:#F2D035;}
	.st207{fill:#B97005;}
	.st208{fill:#895005;}
	.st209{fill:#FFE642;}
	.st210{fill:#BB8131;}
	.st211{fill:url(#SVGID_94_);}
	.st212{fill:url(#SVGID_95_);}
	.st213{fill:url(#SVGID_96_);}
	.st214{fill:url(#SVGID_97_);}
	.st215{fill:url(#SVGID_98_);}
	.st216{fill:url(#SVGID_99_);}
	.st217{fill:url(#SVGID_100_);}
	.st218{fill:url(#SVGID_101_);}
	.st219{fill:url(#SVGID_102_);}
	.st220{fill:url(#SVGID_103_);}
	.st221{fill:#B5BBB8;}
	.st222{fill:url(#SVGID_104_);}
	.st223{fill:url(#SVGID_105_);}
	.st224{fill:url(#SVGID_106_);}
	.st225{fill:url(#SVGID_107_);}
	.st226{fill:url(#SVGID_108_);}
	.st227{fill:url(#SVGID_109_);}
	.st228{fill:url(#SVGID_110_);}
	.st229{fill:url(#SVGID_111_);}
	.st230{fill:url(#SVGID_112_);}
	.st231{fill:url(#SVGID_113_);}
	.st232{fill:#6EDAE0;}
	.st233{fill:#1184B4;}
	.st234{fill:#0D6990;}
	.st235{fill:#0D6991;}
	.st236{fill:#AD4848;}
	.st237{fill:#590404;}
	.st238{fill:#E03835;}
	.st239{fill:#E0C5A0;}
	.st240{fill:url(#SVGID_114_);}
	.st241{fill:url(#SVGID_115_);}
	.st242{fill:url(#SVGID_116_);}
	.st243{fill:url(#SVGID_117_);}
	.st244{fill:url(#SVGID_118_);}
	.st245{fill:#CF4242;}
	.st246{fill:#E35959;}
	.st247{fill:#B11414;}
	.st248{fill:#E45656;}
	.st249{fill:#266B76;}
	.st250{fill:url(#SVGID_119_);}
	.st251{fill:#4A4A4A;}
	.st252{fill:#595959;}
	.st253{fill:#6C6C6C;}
	.st254{fill:#7D7D7D;}
	.st255{fill:url(#SVGID_120_);}
	.st256{fill:url(#SVGID_121_);}
	.st257{fill:#919191;}
	.st258{fill:url(#SVGID_122_);}
	.st259{fill:url(#SVGID_123_);}
	.st260{fill:url(#SVGID_124_);}
	.st261{fill:url(#SVGID_125_);}
	.st262{fill:#6A6A6A;}
	.st263{fill:url(#SVGID_126_);}
	.st264{fill:url(#SVGID_127_);}
	.st265{fill:url(#SVGID_128_);}
	.st266{fill:url(#SVGID_129_);}
	.st267{fill:url(#SVGID_130_);}
	.st268{fill:url(#SVGID_131_);}
	.st269{fill:url(#SVGID_132_);}
	.st270{fill-rule:evenodd;clip-rule:evenodd;fill:url(#SVGID_133_);}
	.st271{fill:url(#SVGID_134_);}
	.st272{fill:url(#SVGID_135_);}
	.st273{fill:url(#SVGID_136_);}
	.st274{fill:url(#SVGID_137_);}
	.st275{fill:url(#SVGID_138_);}
	.st276{fill:url(#SVGID_139_);}
	.st277{fill-rule:evenodd;clip-rule:evenodd;fill:url(#SVGID_140_);}
	.st278{fill:url(#SVGID_141_);}
	.st279{fill:url(#SVGID_142_);}
	.st280{fill:url(#SVGID_143_);}
	.st281{fill:url(#SVGID_144_);}
	.st282{fill:url(#SVGID_145_);}
	.st283{fill:url(#SVGID_146_);}
	.st284{fill:url(#SVGID_147_);}
	.st285{fill-rule:evenodd;clip-rule:evenodd;fill:url(#SVGID_148_);}
	.st286{opacity:0.9;fill:#191919;enable-background:new    ;}
	.st287{fill:url(#SVGID_149_);}
	.st288{fill:url(#SVGID_150_);}
	.st289{fill:url(#SVGID_151_);}
	.st290{fill:url(#SVGID_152_);}
	.st291{fill:#363636;}
	.st292{fill:#242424;}
	.st293{fill:#191919;}
	.st294{fill:#171717;}
	.st295{fill-rule:evenodd;clip-rule:evenodd;fill:url(#SVGID_153_);}
	.st296{fill:url(#SVGID_154_);}
	.st297{fill:url(#SVGID_155_);}
	.st298{fill:url(#SVGID_156_);}
	.st299{fill:url(#SVGID_157_);}
	.st300{fill:url(#SVGID_158_);}
	.st301{fill:url(#SVGID_159_);}
	.st302{fill:#A2A2A2;}
	.st303{fill:url(#SVGID_160_);}
	.st304{fill:url(#SVGID_161_);}
	.st305{fill:url(#SVGID_162_);}
	.st306{fill:url(#SVGID_163_);}
	.st307{fill:url(#SVGID_164_);}
	.st308{fill:url(#SVGID_165_);}
	.st309{fill:url(#SVGID_166_);}
	.st310{fill:url(#SVGID_167_);}
	.st311{fill:#DBDBDB;}
	.st312{fill:url(#SVGID_168_);}
	.st313{fill:url(#SVGID_169_);}
	.st314{fill:url(#SVGID_170_);}
	.st315{fill:#818181;}
	.st316{fill:#808080;}
	.st317{fill:#8C8C8C;}
	.st318{fill:#A7A7A7;}
	.st319{fill:url(#SVGID_171_);}
	.st320{fill:url(#SVGID_172_);}
	.st321{fill:url(#SVGID_173_);}
	.st322{fill:url(#SVGID_174_);}
	.st323{fill:url(#SVGID_175_);}
	.st324{fill:url(#SVGID_176_);}
	.st325{fill:url(#SVGID_177_);}
	.st326{fill:url(#SVGID_178_);}
	.st327{fill:url(#SVGID_179_);}
	.st328{fill:url(#SVGID_180_);}
	.st329{fill:url(#SVGID_181_);}
	.st330{fill:url(#SVGID_182_);}
	.st331{fill:url(#SVGID_183_);}
	.st332{fill:url(#SVGID_184_);}
	.st333{fill:url(#SVGID_185_);}
	.st334{fill:#B3B3B3;}
	.st335{fill:url(#SVGID_186_);}
	.st336{fill:#BFBFBF;}
	.st337{fill:url(#SVGID_187_);}
	.st338{fill:#929292;}
	.st339{fill:#C2C2C2;}
	.st340{fill:url(#SVGID_188_);}
	.st341{fill:url(#SVGID_189_);}
	.st342{fill:url(#SVGID_190_);}
	.st343{fill:url(#SVGID_191_);}
	.st344{fill:url(#SVGID_192_);}
	.st345{fill:url(#SVGID_193_);}
	.st346{fill:url(#SVGID_194_);}
	.st347{fill:url(#SVGID_195_);}
	.st348{fill:url(#SVGID_196_);}
	.st349{fill:url(#SVGID_197_);}
	.st350{fill:url(#SVGID_198_);}
	.st351{fill:url(#SVGID_199_);}
	.st352{fill:url(#SVGID_200_);}
	.st353{fill:url(#SVGID_201_);}
	.st354{fill:url(#SVGID_202_);}
	.st355{fill:url(#SVGID_203_);}
	.st356{fill:url(#SVGID_204_);}
	.st357{fill:url(#SVGID_205_);}
	.st358{fill:url(#SVGID_206_);}
	.st359{fill:url(#SVGID_207_);}
	.st360{fill:url(#SVGID_208_);}
	.st361{fill:url(#SVGID_209_);}
	.st362{fill:url(#SVGID_210_);}
	.st363{fill:url(#SVGID_211_);}
	.st364{fill:url(#SVGID_212_);}
	.st365{fill:url(#SVGID_213_);}
	.st366{fill:url(#SVGID_214_);}
	.st367{fill:url(#SVGID_215_);}
	.st368{fill:#B0B0B0;}
	.st369{fill:#A4A4A4;}
	.st370{fill:url(#SVGID_216_);}
	.st371{fill:url(#SVGID_217_);}
	.st372{fill:#B5B5B5;}
	.st373{fill:url(#SVGID_218_);}
	.st374{fill:url(#SVGID_219_);}
	.st375{fill:url(#SVGID_220_);}
	.st376{fill:url(#SVGID_221_);}
	.st377{fill:url(#SVGID_222_);}
	.st378{fill:url(#SVGID_223_);}
	.st379{fill:url(#SVGID_224_);}
	.st380{fill:url(#SVGID_225_);}
	.st381{fill:url(#SVGID_226_);}
	.st382{fill:url(#SVGID_227_);}
	.st383{fill:url(#SVGID_228_);}
	.st384{fill:url(#SVGID_229_);}
	.st385{fill:url(#SVGID_230_);}
	.st386{fill:url(#SVGID_231_);}
	.st387{fill:url(#SVGID_232_);}
	.st388{fill:url(#SVGID_233_);}
	.st389{fill:url(#SVGID_234_);}
	.st390{fill:url(#SVGID_235_);}
	.st391{fill:url(#SVGID_236_);}
	.st392{fill:url(#SVGID_237_);}
	.st393{fill:url(#SVGID_238_);}
	.st394{fill:url(#SVGID_239_);}
	.st395{fill:url(#SVGID_240_);}
	.st396{fill:url(#SVGID_241_);}
	.st397{fill:url(#SVGID_242_);}
	.st398{fill:url(#SVGID_243_);}
	.st399{fill:url(#SVGID_244_);}
	.st400{fill:url(#SVGID_245_);}
	.st401{fill:url(#SVGID_246_);}
	.st402{fill:url(#SVGID_247_);}
	.st403{fill:url(#SVGID_248_);}
	.st404{fill:url(#SVGID_249_);}
	.st405{fill:url(#SVGID_250_);}
	.st406{fill:url(#SVGID_251_);}
	.st407{fill:url(#SVGID_252_);}
	.st408{fill:url(#SVGID_253_);}
	.st409{fill-rule:evenodd;clip-rule:evenodd;fill:#E7E7E7;}
	.st410{fill-rule:evenodd;clip-rule:evenodd;fill:url(#SVGID_254_);}
	.st411{opacity:0.35;}
	.st412{fill:url(#SVGID_255_);}
	.st413{fill:url(#SVGID_256_);}
	.st414{fill:url(#SVGID_257_);}
	.st415{fill:url(#SVGID_258_);}
	.st416{fill:url(#SVGID_259_);}
	.st417{fill:url(#SVGID_260_);}
	.st418{fill:url(#SVGID_261_);}
	.st419{fill:url(#SVGID_262_);}
	.st420{fill:url(#SVGID_263_);}
	.st421{fill:url(#SVGID_264_);}
	.st422{fill:url(#SVGID_265_);}
	.st423{fill:url(#SVGID_266_);}
	.st424{fill:url(#SVGID_267_);}
	.st425{fill:url(#SVGID_268_);}
	.st426{opacity:0.5;fill:#191919;enable-background:new    ;}
	.st427{fill:url(#SVGID_269_);}
	.st428{fill:#050603;}
	.st429{fill-rule:evenodd;clip-rule:evenodd;}
	.st430{fill:url(#SVGID_270_);}
	.st431{fill:url(#SVGID_271_);}
	.st432{fill:url(#SVGID_272_);}
	.st433{fill-rule:evenodd;clip-rule:evenodd;fill:#B3B3B3;}
	.st434{fill:url(#SVGID_273_);}
	.st435{opacity:0.75;fill:#191919;enable-background:new    ;}
	.st436{fill-rule:evenodd;clip-rule:evenodd;fill:url(#SVGID_274_);}
	.st437{fill:#690202;}
	.st438{fill:#CCCCCC;}
	.st439{fill:url(#SVGID_275_);}
	.st440{fill:url(#SVGID_276_);}
	.st441{fill:#DEDEDE;}
	.st442{fill:url(#SVGID_277_);}
	.st443{fill:url(#SVGID_278_);}
	.st444{opacity:0.23;}
	.st445{fill:url(#SVGID_279_);}
	.st446{fill:url(#SVGID_280_);}
	.st447{fill:url(#SVGID_281_);}
	.st448{fill:url(#SVGID_282_);}
	.st449{fill:url(#SVGID_283_);}
	.st450{fill:url(#SVGID_284_);}
	.st451{fill:url(#SVGID_285_);}
	.st452{fill:url(#SVGID_286_);}
	.st453{opacity:0.64;}
	.st454{fill:url(#SVGID_287_);}
	.st455{fill:url(#SVGID_288_);}
	.st456{fill:#040404;}
	.st457{fill:url(#SVGID_289_);}
	.st458{fill:url(#SVGID_290_);}
	.st459{fill:url(#SVGID_291_);}
	.st460{fill:url(#SVGID_292_);}
	.st461{fill:url(#SVGID_293_);}
	.st462{fill:url(#SVGID_294_);}
	.st463{fill:url(#SVGID_295_);}
	.st464{fill:url(#SVGID_296_);}
	.st465{fill:url(#SVGID_297_);}
	.st466{opacity:0.25;fill:url(#SVGID_298_);enable-background:new    ;}
	.st467{opacity:0.25;fill:url(#SVGID_299_);enable-background:new    ;}
	.st468{opacity:0.25;fill:url(#SVGID_300_);enable-background:new    ;}
	.st469{opacity:0.25;fill:url(#SVGID_301_);enable-background:new    ;}
	.st470{fill:#E6E6E6;}
	.st471{fill:#430202;}
	.st472{fill:#370202;}
	.st473{opacity:0.25;fill:url(#SVGID_302_);enable-background:new    ;}
	.st474{opacity:0.25;fill:url(#SVGID_303_);enable-background:new    ;}
	.st475{fill:url(#SVGID_304_);}
	.st476{fill:url(#SVGID_305_);}
	.st477{fill:url(#SVGID_306_);}
	.st478{fill:url(#SVGID_307_);}
	.st479{fill:url(#SVGID_308_);}
	.st480{fill:url(#SVGID_309_);}
	.st481{fill:url(#SVGID_310_);}
	.st482{fill:url(#SVGID_311_);}
	.st483{fill:url(#SVGID_312_);}
	.st484{fill:url(#SVGID_313_);}
	.st485{fill:url(#SVGID_314_);}
	.st486{fill:url(#SVGID_315_);}
	.st487{fill:url(#SVGID_316_);}
	.st488{fill:url(#SVGID_317_);}
	.st489{fill:url(#SVGID_318_);}
	.st490{fill:url(#SVGID_319_);}
	.st491{fill:url(#SVGID_320_);}
	.st492{fill:url(#SVGID_321_);}
	.st493{fill:url(#SVGID_322_);}
	.st494{fill:url(#SVGID_323_);}
	.st495{clip-path:url(#SVGID_325_);}
	.st496{clip-path:url(#SVGID_327_);}
	.st497{fill:url(#SVGID_328_);}
	.st498{fill:url(#SVGID_329_);}
	.st499{fill:url(#SVGID_330_);}
	.st500{fill:url(#SVGID_331_);}
	.st501{fill:url(#SVGID_332_);}
	.st502{fill:url(#SVGID_333_);}
	.st503{fill:url(#SVGID_334_);}
	.st504{fill:url(#SVGID_335_);}
	.st505{fill:url(#SVGID_336_);}
	.st506{fill:url(#SVGID_337_);}
	.st507{fill:url(#SVGID_338_);}
	.st508{fill:url(#SVGID_339_);}
	.st509{fill:url(#SVGID_340_);}
	.st510{fill:url(#SVGID_341_);}
	.st511{fill:url(#SVGID_342_);}
	.st512{fill:url(#SVGID_343_);}
	.st513{fill:url(#SVGID_344_);}
	.st514{fill:url(#SVGID_345_);}
	.st515{fill:url(#SVGID_346_);}
	.st516{fill:url(#SVGID_347_);}
	.st517{fill:url(#SVGID_348_);}
	.st518{fill:url(#SVGID_349_);}
	.st519{fill:url(#SVGID_350_);}
	.st520{fill:url(#SVGID_351_);}
	.st521{fill:url(#SVGID_352_);}
	.st522{fill:url(#SVGID_353_);}
	.st523{fill:url(#SVGID_354_);}
	.st524{fill:url(#SVGID_355_);}
	.st525{fill:url(#SVGID_356_);}
	.st526{fill:url(#SVGID_357_);}
	.st527{fill:url(#SVGID_358_);}
	.st528{fill:url(#SVGID_359_);}
	.st529{fill:url(#SVGID_360_);}
	.st530{fill:url(#SVGID_361_);}
	.st531{fill:url(#SVGID_362_);}
	.st532{fill:url(#SVGID_363_);}
	.st533{fill:url(#SVGID_364_);}
	.st534{fill:url(#SVGID_365_);}
	.st535{fill:url(#SVGID_366_);}
	.st536{fill:url(#SVGID_367_);}
	.st537{fill:url(#SVGID_368_);}
	.st538{fill:url(#SVGID_369_);}
	.st539{fill:url(#SVGID_370_);}
	.st540{fill:url(#SVGID_371_);}
	.st541{fill:url(#SVGID_372_);}
	.st542{fill:url(#SVGID_373_);}
	.st543{fill:url(#SVGID_374_);}
	.st544{fill:url(#SVGID_375_);}
	.st545{fill:url(#SVGID_376_);}
	.st546{fill:url(#SVGID_377_);}
	.st547{fill:url(#SVGID_378_);}
	.st548{fill:url(#SVGID_379_);}
	.st549{fill:url(#SVGID_380_);}
	.st550{fill:url(#SVGID_381_);}
	.st551{fill:url(#SVGID_382_);}
	.st552{fill:url(#SVGID_383_);}
	.st553{fill:url(#SVGID_384_);}
	.st554{fill:url(#SVGID_385_);}
	.st555{fill:url(#SVGID_386_);}
	.st556{fill:url(#SVGID_387_);}
	.st557{fill:url(#SVGID_388_);}
	.st558{fill:url(#SVGID_389_);}
	.st559{fill:url(#SVGID_390_);}
	.st560{fill:url(#SVGID_391_);}
	.st561{fill:url(#SVGID_392_);}
	.st562{fill:url(#SVGID_393_);}
	.st563{fill:url(#SVGID_394_);}
	.st564{fill:url(#SVGID_395_);}
	.st565{fill:url(#SVGID_396_);}
	.st566{fill:url(#SVGID_397_);}
	.st567{fill:url(#SVGID_398_);}
	.st568{fill:url(#SVGID_399_);}
	.st569{fill:url(#SVGID_400_);}
	.st570{fill:url(#SVGID_401_);}
	.st571{fill:url(#SVGID_402_);}
	.st572{fill:url(#SVGID_403_);}
	.st573{fill:url(#SVGID_404_);}
	.st574{fill:url(#SVGID_405_);}
	.st575{fill:url(#SVGID_406_);}
	.st576{fill:url(#SVGID_407_);}
	.st577{fill:url(#SVGID_408_);}
	.st578{fill:url(#SVGID_409_);}
	.st579{fill:url(#SVGID_410_);}
	.st580{fill:url(#SVGID_411_);}
	.st581{fill:url(#SVGID_412_);}
	.st582{fill:url(#SVGID_413_);}
	.st583{fill:url(#SVGID_414_);}
	.st584{fill:url(#SVGID_415_);}
	.st585{fill:url(#SVGID_416_);}
	.st586{fill:url(#SVGID_417_);}
	.st587{fill:url(#SVGID_418_);}
	.st588{fill:url(#SVGID_419_);}
	.st589{fill:url(#SVGID_420_);}
	.st590{fill:url(#SVGID_421_);}
	.st591{fill:url(#SVGID_422_);}
	.st592{fill:url(#SVGID_423_);}
	.st593{fill:url(#SVGID_424_);}
	.st594{fill:url(#SVGID_425_);}
	.st595{fill-rule:evenodd;clip-rule:evenodd;fill:url(#SVGID_426_);}
	.st596{fill:url(#SVGID_427_);}
	.st597{fill:url(#SVGID_428_);}
	.st598{fill:url(#SVGID_429_);}
	.st599{fill:url(#SVGID_430_);}
	.st600{fill:url(#SVGID_431_);}
	.st601{fill:url(#SVGID_432_);}
	.st602{fill-rule:evenodd;clip-rule:evenodd;fill:url(#SVGID_433_);}
	.st603{fill:url(#SVGID_434_);}
	.st604{fill:url(#SVGID_435_);}
	.st605{fill:url(#SVGID_436_);}
	.st606{fill:url(#SVGID_437_);}
	.st607{fill:url(#SVGID_438_);}
	.st608{fill:url(#SVGID_439_);}
	.st609{fill:url(#SVGID_440_);}
	.st610{fill-rule:evenodd;clip-rule:evenodd;fill:url(#SVGID_441_);}
	.st611{fill:url(#SVGID_442_);}
	.st612{fill:url(#SVGID_443_);}
	.st613{fill:url(#SVGID_444_);}
	.st614{fill:url(#SVGID_445_);}
	.st615{fill-rule:evenodd;clip-rule:evenodd;fill:url(#SVGID_446_);}
	.st616{fill:url(#SVGID_447_);}
	.st617{fill:url(#SVGID_448_);}
	.st618{fill:url(#SVGID_449_);}
	.st619{fill:url(#SVGID_450_);}
	.st620{fill:url(#SVGID_451_);}
	.st621{fill:url(#SVGID_452_);}
	.st622{fill:url(#SVGID_453_);}
	.st623{fill:url(#SVGID_454_);}
	.st624{fill:url(#SVGID_455_);}
	.st625{fill:url(#SVGID_456_);}
	.st626{fill:url(#SVGID_457_);}
	.st627{fill:url(#SVGID_458_);}
	.st628{fill:url(#SVGID_459_);}
	.st629{fill:url(#SVGID_460_);}
	.st630{fill:url(#SVGID_461_);}
	.st631{fill:url(#SVGID_462_);}
	.st632{fill:url(#SVGID_463_);}
	.st633{fill:url(#SVGID_464_);}
	.st634{fill:url(#SVGID_465_);}
	.st635{fill:url(#SVGID_466_);}
	.st636{fill:url(#SVGID_467_);}
	.st637{fill:url(#SVGID_468_);}
	.st638{fill:url(#SVGID_469_);}
	.st639{fill:url(#SVGID_470_);}
	.st640{fill:url(#SVGID_471_);}
	.st641{fill:url(#SVGID_472_);}
	.st642{fill:url(#SVGID_473_);}
	.st643{fill:url(#SVGID_474_);}
	.st644{fill:url(#SVGID_475_);}
	.st645{fill:url(#SVGID_476_);}
	.st646{fill:url(#SVGID_477_);}
	.st647{fill:url(#SVGID_478_);}
	.st648{fill:url(#SVGID_479_);}
	.st649{fill:url(#SVGID_480_);}
	.st650{fill:url(#SVGID_481_);}
	.st651{fill:url(#SVGID_482_);}
	.st652{fill:url(#SVGID_483_);}
	.st653{fill:url(#SVGID_484_);}
	.st654{fill:url(#SVGID_485_);}
	.st655{fill:url(#SVGID_486_);}
	.st656{fill:url(#SVGID_487_);}
	.st657{fill:url(#SVGID_488_);}
	.st658{fill:url(#SVGID_489_);}
	.st659{fill:url(#SVGID_490_);}
	.st660{fill:url(#SVGID_491_);}
	.st661{fill:url(#SVGID_492_);}
	.st662{fill:url(#SVGID_493_);}
	.st663{fill:url(#SVGID_494_);}
	.st664{fill:url(#SVGID_495_);}
	.st665{fill:url(#SVGID_496_);}
	.st666{fill:url(#SVGID_497_);}
	.st667{fill:url(#SVGID_498_);}
	.st668{fill:url(#SVGID_499_);}
	.st669{fill:url(#SVGID_500_);}
	.st670{fill:url(#SVGID_501_);}
	.st671{fill:url(#SVGID_502_);}
	.st672{fill:url(#SVGID_503_);}
	.st673{fill:url(#SVGID_504_);}
	.st674{fill:url(#SVGID_505_);}
	.st675{fill:url(#SVGID_506_);}
	.st676{fill:url(#SVGID_507_);}
	.st677{fill:url(#SVGID_508_);}
	.st678{fill:url(#SVGID_509_);}
	.st679{fill:url(#SVGID_510_);}
	.st680{fill:url(#SVGID_511_);}
	.st681{fill:url(#SVGID_512_);}
	.st682{fill:url(#SVGID_513_);}
	.st683{fill:url(#SVGID_514_);}
	.st684{fill:url(#SVGID_515_);}
	.st685{fill:url(#SVGID_516_);}
	.st686{fill:url(#SVGID_517_);}
	.st687{fill:url(#SVGID_518_);}
	.st688{fill:url(#SVGID_519_);}
	.st689{fill:url(#SVGID_520_);}
	.st690{fill:url(#SVGID_521_);}
	.st691{fill:url(#SVGID_522_);}
	.st692{fill:url(#SVGID_523_);}
	.st693{fill:url(#SVGID_524_);}
	.st694{fill:url(#SVGID_525_);}
	.st695{fill:url(#SVGID_526_);}
	.st696{fill:url(#SVGID_527_);}
	.st697{fill:url(#SVGID_528_);}
	.st698{fill:url(#SVGID_529_);}
	.st699{fill:url(#SVGID_530_);}
	.st700{fill:url(#SVGID_531_);}
	.st701{fill:url(#SVGID_532_);}
	.st702{fill:url(#SVGID_533_);}
	.st703{fill:url(#SVGID_534_);}
	.st704{fill:url(#SVGID_535_);}
	.st705{fill:url(#SVGID_536_);}
	.st706{fill:url(#SVGID_537_);}
	.st707{fill:url(#SVGID_538_);}
	.st708{fill:url(#SVGID_539_);}
	.st709{fill:url(#SVGID_540_);}
	.st710{fill:url(#SVGID_541_);}
	.st711{fill:url(#SVGID_542_);}
	.st712{fill:url(#SVGID_543_);}
	.st713{fill:url(#SVGID_544_);}
	.st714{fill:url(#SVGID_545_);}
	.st715{fill:url(#SVGID_546_);}
	.st716{fill-rule:evenodd;clip-rule:evenodd;fill:url(#SVGID_547_);}
	.st717{fill:url(#SVGID_548_);}
	.st718{fill:url(#SVGID_549_);}
	.st719{fill:url(#SVGID_550_);}
	.st720{fill:url(#SVGID_551_);}
	.st721{fill:url(#SVGID_552_);}
	.st722{fill:url(#SVGID_553_);}
	.st723{fill:url(#SVGID_554_);}
	.st724{fill:url(#SVGID_555_);}
	.st725{fill:url(#SVGID_556_);}
	.st726{fill:url(#SVGID_557_);}
	.st727{fill:url(#SVGID_558_);}
	.st728{fill:url(#SVGID_559_);}
	.st729{fill:url(#SVGID_560_);}
	.st730{fill:url(#SVGID_561_);}
	.st731{fill:url(#SVGID_562_);}
	.st732{fill:url(#SVGID_563_);}
	.st733{fill:url(#SVGID_564_);}
	.st734{fill:url(#SVGID_565_);}
	.st735{fill:url(#SVGID_566_);}
	.st736{fill-rule:evenodd;clip-rule:evenodd;fill:url(#SVGID_567_);}
	.st737{fill:url(#SVGID_568_);}
	.st738{fill:url(#SVGID_569_);}
	.st739{fill:url(#SVGID_570_);}
	.st740{fill:url(#SVGID_571_);}
	.st741{fill:url(#SVGID_572_);}
	.st742{fill:url(#SVGID_573_);}
	.st743{fill:url(#SVGID_574_);}
	.st744{fill:url(#SVGID_575_);}
	.st745{fill:url(#SVGID_576_);}
	.st746{fill:url(#SVGID_577_);}
	.st747{fill:url(#SVGID_578_);}
	.st748{fill:url(#SVGID_579_);}
	.st749{fill:url(#SVGID_580_);}
	.st750{fill:url(#SVGID_581_);}
	.st751{fill:url(#SVGID_582_);}
	.st752{fill:url(#SVGID_583_);}
	.st753{fill:url(#SVGID_584_);}
	.st754{fill:url(#SVGID_585_);}
	.st755{fill:url(#SVGID_586_);}
	.st756{fill:url(#SVGID_587_);}
	.st757{fill:url(#SVGID_588_);}
	.st758{fill:url(#SVGID_589_);}
	.st759{fill:url(#SVGID_590_);}
	.st760{opacity:0.25;fill:url(#SVGID_591_);enable-background:new    ;}
	.st761{opacity:0.25;fill:url(#SVGID_592_);enable-background:new    ;}
	.st762{opacity:0.25;fill:url(#SVGID_593_);enable-background:new    ;}
	.st763{opacity:0.25;fill:url(#SVGID_594_);enable-background:new    ;}
	.st764{opacity:0.25;fill:url(#SVGID_595_);enable-background:new    ;}
	.st765{opacity:0.25;fill:url(#SVGID_596_);enable-background:new    ;}
	.st766{fill:url(#SVGID_597_);}
	.st767{fill:url(#SVGID_598_);}
	.st768{fill:url(#SVGID_599_);}
	.st769{fill:url(#SVGID_600_);}
	.st770{stroke:#06395B;}
</style>
<g id="Lager_1">
	<g>
		<rect class="st8" width="1080" height="1830"/>
		<g>
			<text transform="matrix(1 0 0 1 407.2495 1630.175)" class="st0 st63 st64">Xx kg</text>
			<text transform="matrix(1 0 0 1 398.998 1702.541)" class="st0 st65 st66">22 aug 2021</text>
		</g>
		<g>
			<path class="st9" d="M686.6,1172.4c-2.1-3.4-3.1-7.3-2.8-11.2c0.3-3.9,1.9-7.7,4.5-10.7c7.6-11.1,13.5-7.4,13.5-7.4
				c2.5,1.9,4.2,4.7,4.7,7.7c0.5,3.1-0.1,6.2-1.8,8.9c-3.5,6.7-7,15.8-9.6,15.8s-3.7,8.2-3.7,8.2l-7.2-7.4L686.6,1172.4z"/>
			<path class="st10" d="M576.9,1353.8l49.1-27.2l-59.2-24.8L576.9,1353.8z"/>
			<path class="st10" d="M317.9,1205.3l49.1-27.2l-59.2-24.8L317.9,1205.3z"/>
			
				<linearGradient id="SVGID_1_" gradientUnits="userSpaceOnUse" x1="-4630.7461" y1="2594.2866" x2="-4393.7007" y2="2594.2866" gradientTransform="matrix(1 0 0 -1 0 3954)">
				<stop  offset="0.16" style="stop-color:#3C4851"/>
				<stop  offset="0.56" style="stop-color:#556773"/>
				<stop  offset="0.87" style="stop-color:#51626E"/>
			</linearGradient>
			<path class="st11" d="M588.5,1331.5l8.8,14.1l20.9,34.4l10.4,17l13.9-8c3.3-2.2,5.6-5.5,6.5-9.4c0,0,0-1,0-1.4v-1
				c0.1-0.6,0.1-1.2,0-1.8v-3.5c-0.7-9.4-3.5-18.4-8.4-26.5c-4.8-8-11.5-14.8-19.4-19.8l-2.5-1.4c-2.6-1.3-5.5-1.9-8.4-1.9
				c-2.9,0-5.8,0.7-8.4,1.9L588.5,1331.5z"/>
			<path class="st9" d="M581.8,1349.5c0.7,9.4,3.5,18.5,8.4,26.6c4.9,8.1,11.6,14.9,19.6,19.9c15.2,8.4,27.4,1.4,27.2-15.6
				c-0.7-9.4-3.5-18.5-8.4-26.6c-4.9-8.1-11.6-14.9-19.6-19.9C593.2,1325.5,581.8,1332.5,581.8,1349.5z"/>
			<path class="st12" d="M589.2,1354c-0.2,1.7-0.2,3.4,0,5.1c1.1,5.3,3.2,10.3,6.1,14.9c1.8,2.9,4,5.5,6.5,7.8
				c1.9,2,4.2,3.8,6.7,5.1c1.7,1,3.5,1.7,5.5,2.1c2.6,1,5.4,1,8,0c1.4-0.9,2.6-2.1,3.5-3.5v-1c0,0,0-1.4,0-2.1c0,0,0-1.6,0-2.3
				c0-0.8,0-1.8,0-2.7c0-1,0,0,0-1c0.1-1.1,0.1-2.2,0-3.3c0.1-1,0.1-2.1,0-3.1c-1-3.7-2.4-7.2-4.3-10.6l-1-1.6
				c-1.5-2.3-3.2-4.6-5.1-6.6v-1.2c-1.6-1.5-3.3-2.9-5.1-4.1l-2-1.2l-2-1h-2.1h-1.6h-1c-1-0.1-2-0.1-2.9,0c-1,0.2-1.9,0.6-2.7,1.2
				c-1.5,0.8-2.7,1.9-3.7,3.3c-0.9,1.4-1.6,2.9-1.8,4.5C589.9,1353.1,589.6,1353.6,589.2,1354z"/>
			<path class="st10" d="M603.7,1347c-0.2,1.6-0.2,3.3,0,4.9c1.1,5.3,3.1,10.3,6.1,14.9c1.8,2.9,4,5.6,6.5,8c2,1.9,4.3,3.6,6.6,5.1
				l4.1,1.8v-1.8c0,0,0,0,0-1.2c0-1.2,0-1.8,0-2.7c0-1,0-2.9,0-4.3c0.1-1,0.1-2.1,0-3.1c-0.9-3.7-2.4-7.3-4.3-10.6l-1-1.6
				c-1.6-2.4-3.4-4.7-5.3-6.8v-1.2c-2.1-2-4.5-3.8-7-5.3l-2-1h-2.2c0,0,0,0,0,1.2C604.7,1344.5,604.2,1345.7,603.7,1347z"/>
			
				<linearGradient id="SVGID_2_" gradientUnits="userSpaceOnUse" x1="-2073.408" y1="-743.743" x2="-1997.3558" y2="-649.2415" gradientTransform="matrix(1 0 0 -1 0 3954)">
				<stop  offset="0.16" style="stop-color:#E3E3E3"/>
				<stop  offset="0.56" style="stop-color:#CCCCCC"/>
				<stop  offset="0.87" style="stop-color:#B7B7B7"/>
			</linearGradient>
			<path class="st13" d="M596.3,1341.1c-1.5,1.4-2.6,3.2-3.3,5.1c-0.7,1.9-1,4-0.8,6c0.5,6.6,2.5,13.1,5.9,18.8
				c3.4,5.7,8.1,10.6,13.7,14.2c1.8,1.2,3.8,1.9,6,2.3c2.1,0.3,4.3,0.2,6.4-0.3c-2.2,1.6-4.9,2.4-7.6,2.4c-2.7,0-5.4-0.9-7.6-2.4
				c-5.6-3.6-10.3-8.4-13.7-14.1c-3.4-5.7-5.4-12.1-5.8-18.8c-0.4-2.7,0-5.4,1.3-7.8C591.8,1344.2,593.8,1342.3,596.3,1341.1z"/>
			<path class="st12" d="M594.5,1355.6l12.1,7l-5.5,18c0,1,3.5,0,3.5,0l8.4-9l6.1,15c2,0,0,3.5,2.3,3.1c1.4-0.5,2.7-1.4,3.7-2.5
				l-4.3-16.6l6.7,3.7c0.1-1.1,0.1-2.2,0-3.3c-0.3-2.1-0.9-4.2-1.8-6.2l-5.7-4.3l2-3.9c-1.5-2.3-3.2-4.6-5.1-6.7l-2.7,3.3l-4.7-9.6
				l-2-1h-2.1h-1.6h-2.5l4.9,11.9l-12.9-5.1c0,0-3.3,1.6-3.3,3.3S594.3,1353.8,594.5,1355.6z"/>
			<path class="st14" d="M589.4,1357.7l12.5,8.2l-4.5,10.2c0.9,1.9,2.2,3.5,3.9,4.7l6.8-6.6l7.2,15.2c0.9,0.5,2,0.7,3,0.7
				c1,0,2.1-0.2,3-0.7l-4.7-14.3l11.1,5.7c0.2-1.4,0.2-2.9,0-4.3c0.1-1.1,0.1-2.2,0-3.3l-12.3-8l5.5-9.6c-1.2-2.1-2.7-3.9-4.5-5.5
				l-7.2,6.8l-7.6-15.8c-1.8-0.7-3.7-0.7-5.5,0l4.7,14.9l-11.5-5.3c-0.1,1.1-0.1,2.2,0,3.3C589.4,1355.3,589.4,1356.5,589.4,1357.7z
				"/>
			<path class="st15" d="M604.5,1362.6c0.1,1.5,0.6,2.9,1.3,4.1c0.7,1.3,1.8,2.3,3,3.1c2.3,1.2,4.3,0,4.3-2.5
				c-0.1-1.4-0.6-2.9-1.3-4.1c-0.7-1.3-1.8-2.3-3-3.1C606.4,1358.9,604.5,1359.9,604.5,1362.6z"/>
			
				<linearGradient id="SVGID_3_" gradientUnits="userSpaceOnUse" x1="-4060.5176" y1="2742.6462" x2="-3824.9751" y2="2742.6462" gradientTransform="matrix(1 0 0 -1 0 3954)">
				<stop  offset="0.16" style="stop-color:#3C4851"/>
				<stop  offset="0.56" style="stop-color:#556773"/>
				<stop  offset="0.87" style="stop-color:#51626E"/>
			</linearGradient>
			<path class="st16" d="M329.5,1182.8l8.6,14.1l21.1,34.4l10.4,17l13.7-8c3.2-2.2,5.5-5.6,6.3-9.4c0.1-0.5,0.1-0.9,0-1.4v-1
				c0,0,0-1.2,0-1.8c0.1-0.9,0.1-1.8,0-2.7c-0.6-9.4-3.4-18.5-8.3-26.6c-4.9-8.1-11.6-14.8-19.6-19.7l-2.3-1.4
				c-2.6-1.2-5.5-1.9-8.4-1.9c-2.9,0-5.8,0.7-8.4,1.9L329.5,1182.8z"/>
			<path class="st9" d="M322.2,1200c0.7,9.4,3.5,18.5,8.4,26.6c4.9,8.1,11.6,14.9,19.6,19.9c15.1,8.4,27.2,1.4,27-15.6
				c-0.7-9.4-3.5-18.5-8.4-26.6c-4.8-8.1-11.5-14.9-19.4-20C334.2,1175.2,322,1183,322.2,1200z"/>
			<path class="st10" d="M344.7,1197.4c-0.2,1.6-0.2,3.3,0,4.9c0.9,5.3,3,10.4,6.1,14.9c1.8,3,3.9,5.7,6.5,8c2,2,4.2,3.7,6.6,5.1
				c1.3,0.7,2.7,1.3,4.1,1.8c-0.1-0.6-0.1-1.2,0-1.8c0,0,0,0,0-1.2v-2.7c0.2-1.4,0.2-2.9,0-4.3c0.1-1,0.1-2.1,0-3.1
				c-1.1-3.7-2.6-7.2-4.5-10.6c0.1-0.5,0.1-1,0-1.6c-1.6-2.4-3.4-4.7-5.3-6.8l-1.2-1.2c-2.1-2.1-4.4-3.9-7-5.3l-1.8-1h-2.1
				c0,0,0,0,0,1.2C345.6,1194.9,345.1,1196.2,344.7,1197.4z"/>
			
				<linearGradient id="SVGID_4_" gradientUnits="userSpaceOnUse" x1="-1966.8604" y1="-143.0463" x2="-1890.8357" y2="-48.4745" gradientTransform="matrix(1 0 0 -1 0 3954)">
				<stop  offset="0.16" style="stop-color:#E3E3E3"/>
				<stop  offset="0.56" style="stop-color:#CCCCCC"/>
				<stop  offset="0.87" style="stop-color:#B7B7B7"/>
			</linearGradient>
			<path class="st17" d="M337.1,1191.6c-1.5,1.4-2.6,3.2-3.2,5.1c-0.7,1.9-0.9,4-0.7,6c0.4,6.7,2.4,13.1,5.8,18.9
				c3.4,5.7,8.1,10.6,13.7,14.2c1.8,1.2,3.8,1.9,6,2.3c2.1,0.3,4.3,0.2,6.4-0.3c-2.2,1.6-4.9,2.4-7.6,2.4c-2.7,0-5.4-0.9-7.6-2.4
				c-5.6-3.5-10.3-8.4-13.7-14.1c-3.4-5.7-5.4-12.1-5.8-18.8c-0.5-2.7-0.1-5.4,1.1-7.8C332.6,1194.6,334.6,1192.7,337.1,1191.6z"/>
			<path class="st12" d="M335.5,1206.1l12.1,7l-5.7,18l3.7-1l8.4-9l6.1,15.1c2,0,0,3.5,2.3,3.1c1.4-0.5,2.6-1.4,3.5-2.5l-3.5-15
				l6.6,3.7c0.1-1.1,0.1-2.2,0-3.3c-0.3-2.1-0.8-4.2-1.6-6.2l-5.9-4.3l2-3.9c-1.5-2.4-3.3-4.6-5.3-6.7l-2.5,3.3l-4.9-9.6l-1.8-1
				h-2.2h-1.6h-2.2l4.9,11.9l-13.1-5.1c0,0-3.1,1.6-3.1,3.3C332,1205.7,335.1,1204.3,335.5,1206.1z"/>
			<path class="st14" d="M330.4,1208.2l12.5,8.2l-4.7,10.2c1,1.8,2.3,3.4,3.9,4.7l7-6.6l7.2,15.2c0.9,0.4,2,0.7,3,0.7
				c1,0,2.1-0.2,3-0.7l-4.9-14.3l11.1,5.7c0.2-1.4,0.2-2.9,0-4.3c0.1-1.2,0.1-2.3,0-3.5l-12.3-7.8l5.3-9.6c-1.1-2.1-2.6-3.9-4.3-5.5
				l-7.2,6.8l-7.8-15.8c-1.8-0.7-3.7-0.7-5.5,0l4.7,14.9l-11.3-5.3c-0.2,1.1-0.2,2.2,0,3.3C330.1,1205.7,330.2,1207,330.4,1208.2z"
				/>
			<path class="st15" d="M345.5,1213.1c0.1,1.5,0.6,2.9,1.3,4.1c0.7,1.3,1.8,2.3,3,3.1c2.3,1.2,4.3,0,4.3-2.5
				c-0.2-1.5-0.7-2.9-1.5-4.1c-0.8-1.2-1.8-2.3-3-3.1C347.3,1209.4,345.5,1210.3,345.5,1213.1z"/>
			<path class="st18" d="M305.2,1146.2v14.9l16.4,23.8c1-1.2,1.8-2.3,2.7-3.3c1.8-1.8,3.9-3.2,6.3-4.1c2.3-0.8,4.6-1.2,7-1.2
				c5,0.1,9.9,1.5,14.3,4.1c9,5.4,16.5,13.1,21.7,22.3c5.1,8.5,8,18.1,8.4,27.9c0.1,3.4-0.4,6.9-1.4,10.2l196.6,113
				c0-1.4,0-2.7,0-4.3c-0.4-6.7,1.9-13.3,6.3-18.4c1.3-1.3,2.8-2.5,4.5-3.3c2.7-1.4,5.7-2.1,8.8-2.1c5,0.2,10,1.7,14.3,4.3
				c9.9,6,17.9,14.6,23.3,24.8c4.2,7.9,6.6,16.6,7,25.6c0,3.2-0.4,6.3-1.2,9.4l5.5,2.9l18.4-4.3l11.7-16.8l-6.3-3.9l7.6-29.9
				l-117.3-78.2c-11-27.2-25.5-52.9-43-76.4c-22.7-21.7-112.6-62-112.6-62l-49.6,18.4l-37.9-16.6l-7.4,8.8L305.2,1146.2z"/>
			<path class="st19" d="M309.1,1132.6l364.5,206.6l-113.8-78.4l-205.4-120.4l-37.9-16.6L309.1,1132.6z"/>
			<path class="st18" d="M381.7,1230.7c0.1,3.4-0.4,6.9-1.4,10.2l196.6,113c0-1.4,0-2.7,0-4.3c-0.4-6.7,1.9-13.3,6.3-18.4
				c1.3-1.3,2.8-2.5,4.5-3.3l-215-125.1C378,1211.1,381.1,1220.8,381.7,1230.7z"/>
			<path class="st20" d="M539.6,1325.1l1-36.4l4.5-25l-1.8-0.4l-4.7,25l-0.8,33.6l-83.7-45.5l-3.3-36.4l5.9-31.9l-0.2-0.2
				l-32.8-57.1l-0.8,0.6l-31.9,19v0.4l-7.2,31.9l7.2,40.3l1.8-0.2l-7-40.1l7-31.1l30.1-18l31.7,54.9l-5.7,31.3v0.2l3.5,37.7l0.4,0.2
				L539.6,1325.1z"/>
			<path class="st21" d="M576.9,1342.7c0,1.4,0,2.7,0,4.1c0,1.4,0,2.9,0,4.3l-196.6-112.8c0.8-2.5,1.2-5.2,1.4-7.8L576.9,1342.7z"/>
			<path class="st22" d="M576.7,1341.1c-0.2-5.9,1.5-11.8,4.9-16.6l5.9,3.3c-1.7,0.9-3.2,2-4.5,3.3c-3.6,3.9-5.7,9-6.1,14.3
				C576.9,1344,576.7,1342.5,576.7,1341.1z"/>
			<path class="st9" d="M576.9,1345.4c0,1.4,0,2.7,0,4.1c0,1.4,0,2.9,0,4.3l-196.6-113c0.8-2.5,1.2-5,1.4-7.6L576.9,1345.4z"/>
			<path class="st9" d="M298.2,1158.9v11.3l3.9,11.7l9.6,9.8l4.3,12.1l2.2,1.4c-0.2-1.8-0.2-3.5,0-5.3c-0.3-5.2,1-10.5,3.5-15
				c1-1.2,1.8-2.3,2.7-3.3c1.8-1.8,3.9-3.2,6.3-4.1l-18.6-10.8l-3.9-2.3L298.2,1158.9z"/>
			<path class="st9" d="M369.9,1149.6l6.1,15.2l13.9,7.8l1.6,1l1.6,1l4.3,2.5l3.3,2.2l2.3,1.2l2.9,1.8l2.3,1.4l48.9,29.3l6.3,3.9
				l65.9,39.5l2.9,1.8l16.6,10l2-10.6l-27-49.3l-2.9-5.5l-8.8-16l-98.7-54.1l-1-0.8l-3.3-1.8L369.9,1149.6z"/>
			<path class="st23" d="M410.8,1134.1l-32.3,20.3l1.2,9.2l167.1,99.9l1-5.5l-37.9-69.4L410.8,1134.1z"/>
			<path class="st9" d="M391.8,1172.8l2.2,2.3l1.6,0.8l1.6,1l21.5-39.7l-1-2.3l-1.2-0.8l-2.3,1.2L391.8,1172.8z"/>
			<path class="st9" d="M453.2,1209.6l6.3,3.7l10.7-47.1l-6.3-3.1L453.2,1209.6z"/>
			<path class="st9" d="M520,1202.3v46.9l3.1,1.8l0.6-42.8l-2.9-5.5L520,1202.3z"/>
			<path class="st21" d="M572,1318.8v11.5l-190-119.6l2.7-1.4L572,1318.8z"/>
			<path class="st9" d="M569.5,1320.4v11.5l-187.5-109.7v-11.5L569.5,1320.4z"/>
			<path class="st10" d="M796.8,1293.8l2.9-26l-124.3,69.6L670,1365C670,1365,752.5,1344.8,796.8,1293.8z"/>
			<path class="st10" d="M671,1360.7v-4.3c44.9-16.4,86.7-40,123.9-70c1,0,1.2-4.5,1.2-4.5v3.9c0,0,0,3.7-1.2,4.5
				C757.8,1320.5,715.9,1344.3,671,1360.7z"/>
			<path class="st10" d="M671,1354.6v-4.3c44.9-16.4,86.7-40,123.9-70c1,0,1.2-4.5,1.2-4.5v3.9c0,0,0,3.7-1.2,4.5
				C757.8,1314.4,715.9,1338.2,671,1354.6z"/>
			<path class="st10" d="M671,1348.5v-4.3c44.9-16.4,86.7-40,123.9-70c1,0,1.2-4.7,1.2-4.7v3.9c0,0,0,3.9-1.2,4.7
				C757.7,1308.3,715.8,1332.1,671,1348.5z"/>
			<path class="st21" d="M671,1361.8v-4.5c44.9-16.2,86.8-39.8,123.9-69.8c1,0,1.2-4.7,1.2-4.7v3.9c0,0,0,3.9-1.2,4.7
				C757.7,1321.6,715.8,1345.3,671,1361.8z"/>
			<path class="st21" d="M671,1355.8v-4.5c44.9-16.3,86.7-39.9,123.9-69.8c1,0,1.2-4.7,1.2-4.7v3.9c0,0,0,3.9-1.2,4.7
				C757.7,1315.5,715.8,1339.3,671,1355.8z"/>
			<path class="st21" d="M671,1349.7v-4.5c44.9-16.3,86.8-39.9,123.9-70c1,0,1.2-4.5,1.2-4.5v3.9c0,0,0,3.9-1.2,4.5
				C757.8,1309.4,715.9,1333.2,671,1349.7z"/>
			<path class="st21" d="M671.7,1339.2c44.6-16.3,86.3-39.7,123.3-69.4l1.2,2.5v1c-37.4,30.2-79.5,54-124.7,70.4L671.7,1339.2z"/>
			<path class="st24" d="M790.6,1327.8l-126.1,71.5l-1-10.8l125.9-71.7L790.6,1327.8z"/>
			<path class="st9" d="M640.5,1380.4c0,3.2-0.4,6.3-1.2,9.4l5.7,3.1l19.6,6.5l-1-10.8h3.9c3.9,0,7.6,2.5,11.1,0l2.5-1.2l117.3-66.5
				c1.3-0.7,2.4-1.6,3.3-2.7c1.2-1.7,1.9-3.6,2.1-5.7l1-15.8l-3.1,1.6l-122.2,68.6l-3.3,1.8l-41.4-16.2v1.8
				C638.6,1362.4,640.6,1371.4,640.5,1380.4z"/>
			<path class="st10" d="M679.6,1366.9v23.3l2.5-1.2c18.5-6.6,36.5-14.7,53.7-24c10.5-5.4,20.6-11.3,30.5-17.8
				c11.4-7.5,22.3-15.7,32.6-24.6c1.2-0.8,2.4-1.8,3.3-2.9v-19.5L679.6,1366.9z"/>
			<path class="st25" d="M673.9,1341.7l22.9-10.7c0.4-0.2,0.8-0.2,1.3-0.2c0.4,0.1,0.8,0.2,1.2,0.5c0.4,0.2,0.6,0.6,0.8,1
				c0.2,0.4,0.3,0.8,0.2,1.3v8.4c-0.1,1.4-0.6,2.7-1.4,3.8c-0.8,1.1-1.9,2-3.1,2.6l-19.6,8.8L673.9,1341.7z"/>
			<path class="st25" d="M777.3,1286.8l17.6-13.7l-1.4,19.5l-17,13.3c-0.3,0.3-0.7,0.5-1.2,0.5c-0.4,0-0.9,0-1.3-0.3
				c-0.4-0.2-0.7-0.5-0.9-0.9c-0.2-0.4-0.3-0.8-0.2-1.3v-9.6c0-1.5,0.4-3,1.2-4.4C774.9,1288.7,776,1287.6,777.3,1286.8z"/>
			<path class="st19" d="M792.7,1274.1c0-1.6,6.1-5.3,6.1-5.3c1.1,3.2,1.5,6.6,1.2,10c-0.3,3.4-1.4,6.6-3.1,9.6l-4.1,3.9
				C793.4,1286.2,793.4,1280.1,792.7,1274.1z"/>
			<path class="st26" d="M742.9,1312c-0.2,1.7-0.7,3.4-1.6,4.9c-0.9,1.5-2.2,2.8-3.7,3.7c-2.7,1.4-4.9,0-4.9-2.9
				c0.1-1.7,0.6-3.4,1.5-4.9c0.9-1.5,2.1-2.8,3.6-3.7c0.5-0.4,1.1-0.7,1.7-0.7c0.6-0.1,1.3,0.1,1.8,0.4c0.5,0.3,1,0.8,1.3,1.4
				C742.9,1310.7,743,1311.4,742.9,1312z"/>
			<path class="st27" d="M744.3,1313.2c-0.1,1.7-0.6,3.4-1.5,4.8c-0.9,1.5-2.1,2.7-3.6,3.6c-0.5,0.4-1.1,0.7-1.7,0.7
				c-0.6,0.1-1.3-0.1-1.8-0.4c-0.6-0.3-1-0.8-1.3-1.4c-0.3-0.6-0.4-1.2-0.2-1.9c0.2-1.7,0.7-3.4,1.6-4.8c0.9-1.5,2.2-2.7,3.6-3.6
				C742.1,1308.7,744.3,1309.8,744.3,1313.2z"/>
			<path class="st21" d="M637.3,1351.1l-3.5,1.8l36.7,16.8c1.4,0.7,3,1,4.6,1c1.6,0,3.2-0.4,4.6-1c0,0,92.3-36.7,123-69.8
				c1.6-1.8,2.3-3.9,0-5.3l-6.5-5.7c0,0,0,3.9-1.2,4.7c-37.6,30.3-79.9,54.1-125.3,70.4L637.3,1351.1z"/>
			<path class="st21" d="M699.1,1366.5v4.1c0,0.7-0.2,1.3-0.5,1.8c-0.3,0.5-0.8,1-1.4,1.3l-13.7,5.3c-0.3,0.1-0.6,0.1-0.9,0.1
				c-0.3-0.1-0.6-0.2-0.9-0.4c-0.2-0.2-0.4-0.4-0.6-0.7c-0.1-0.3-0.2-0.6-0.2-0.9l11.5-4.5c0.6-0.2,1.1-0.7,1.5-1.2
				c0.4-0.6,0.5-1.2,0.5-1.9v-2.2l2.2-1c0.4-0.3,0.8-0.4,1.3-0.4C698.3,1366,698.8,1366.2,699.1,1366.5z"/>
			<path class="st28" d="M694.4,1365.5v2.2c0,0.7-0.1,1.3-0.5,1.9c-0.4,0.6-0.9,1-1.5,1.2l-11.5,4.5v-2.3c0-0.7,0.2-1.3,0.6-1.9
				c0.4-0.6,0.9-1,1.6-1.2L694.4,1365.5z"/>
			<path class="st21" d="M799,1307.1v2.3c0,0.6,0,1.2-0.2,1.7c-0.2,0.5-0.5,1-0.9,1.4l-8.2,6.8c0,0-1.6,0-1.6-1.2l6.8-5.9
				c0.5-0.4,0.8-0.9,1-1.4c0.2-0.5,0.4-1.1,0.3-1.7v-1.4l1.2-1.2C797.4,1306.7,799,1306.1,799,1307.1z"/>
			<path class="st28" d="M796.8,1307.1v1.4c0,0.6-0.1,1.2-0.3,1.7c-0.2,0.5-0.6,1-1,1.4l-6.8,5.9v-1.6c0-0.6,0.1-1.2,0.3-1.7
				c0.2-0.5,0.6-1,1-1.4L796.8,1307.1z"/>
			<path class="st29" d="M734.7,1353v10.9c10.5-5.4,20.6-11.3,30.5-17.8c0.1-0.3,0.1-0.7,0-1v-10.2c0-2-1.6-2.7-3.3-1.6l-24.2,14.1
				c-0.9,0.6-1.6,1.5-2.1,2.4C735,1350.9,734.7,1352,734.7,1353z"/>
			<path class="st14" d="M762.2,1348.5c1-0.6,1.8-1.4,2.4-2.3c0.6-1,0.9-2.1,1-3.2v-10c0-2-1.4-2.7-3.3-1.8l-24.2,14.3
				c-0.9,0.6-1.7,1.4-2.3,2.3c-0.6,0.9-0.9,2-1,3.1v10c0,2,1.6,2.7,3.3,1.8L762.2,1348.5z"/>
			<path class="st30" d="M738.2,1362l24.2-14.1c0.8-0.5,1.4-1.1,1.9-1.9c0.5-0.8,0.8-1.7,0.8-2.6v-10c0-1.8-1.2-2.3-2.7-1.4
				l-24.2,14.1c-0.7,0.5-1.3,1.2-1.8,2c-0.4,0.8-0.7,1.6-0.8,2.5v10C735.5,1362.4,736.6,1363,738.2,1362z"/>
			<path class="st31" d="M735.5,1351.1c0.1-0.9,0.3-1.8,0.7-2.5c0.4-0.8,1.1-1.4,1.8-2l24.2-14.1c1.6-1,2.7,0,2.7,1.2L735.5,1351.1z
				"/>
			<path class="st31" d="M765,1343.5c0,0.9-0.3,1.8-0.8,2.6c-0.5,0.8-1.2,1.4-2,1.9L738,1362c-1.4,1-2.5,0-2.5-1.2L765,1343.5z"/>
			<path class="st19" d="M445,1049.1l-129,74.7l37.9,16.6l136.8-79.2l-29.5-12.9c-2.6-1.1-5.4-1.7-8.2-1.5
				C450.2,1046.9,447.5,1047.7,445,1049.1z"/>
			<path class="st32" d="M673.9,1341.7l21.5-10.2v6.8c-0.1,1.4-0.6,2.7-1.4,3.8c-0.8,1.1-1.9,2-3.1,2.6l-14.1,6.5L673.9,1341.7z"/>
			<path class="st32" d="M773,1293.6c0.1-1.3,0.4-2.6,1-3.8c0.6-1.2,1.5-2.2,2.5-3l11.9-9.4v8.6c-0.1,1.2-0.4,2.4-1,3.5
				c-0.6,1.1-1.4,2-2.3,2.8l-12.1,9.6V1293.6z"/>
			<path class="st9" d="M491.3,1061.2c-46.7,16.4-136.8,79.2-136.8,79.2l49.6-18.4l131.6-78.2
				C535.7,1043.8,503.6,1057.9,491.3,1061.2z"/>
			<path class="st33" d="M404.5,1120c60-40.1,107.5-65.5,107.5-65.5l-19.6,7.4c-42.4,19.1-82.9,42.4-120.8,69.4
				C383,1128.7,394,1124.9,404.5,1120z"/>
			<path class="st18" d="M796.8,1269.6c-38.2,27.8-79.5,51.1-122.9,69.6l-114-78.2l136.8-79.2l102.4,86.4L796.8,1269.6z"/>
			<path class="st9" d="M681.3,1199c0,0-4.7,14.9-39.1,34.2c-15.7,10.4-33.7,16.8-52.4,18.6l-30.5,9l135.5-79.6L681.3,1199z"/>
			<path class="st9" d="M647.1,1108.1c-39,32.3-83,57.9-130.4,75.8c0,0,23.1,36.9,43,76.4c49.6-18.8,95.8-45.6,136.8-79.2
				C696.6,1181.2,674.3,1147.2,647.1,1108.1z"/>
			<path class="st34" d="M520,1184.9c6.1,8,23.8,39.1,40.9,72.7c48.1-18.5,93.1-44.5,133.1-77c-3.1-6.8-24.4-35.8-47.3-69.6
				l-4.5,3.9c-10.3,8.2-21.1,15.9-32.3,23.1C581.3,1156.1,551.3,1171.8,520,1184.9z"/>
			<path class="st18" d="M773.2,1281.9l-91.9-82.9c0,0,13.5-15.6,17.8-12.7c32.6,23.2,63.1,49.4,90.9,78.2L773.2,1281.9z"/>
			<path class="st19" d="M773.2,1281.9l-90.1-85.2l13.7-15.4c36.5,26.2,70.8,55.1,102.8,86.6L773.2,1281.9z"/>
			<path class="st19" d="M676.8,1338l-116.9-77.2l30.3-9l115.9,69.8L676.8,1338z"/>
			<path class="st35" d="M609.6,1257.5l2.1,1.4c0.7,0.3,1.5,0.5,2.3,0.5s1.6-0.2,2.3-0.5l21.5-9.6c2.5-1.2,2.7-3.3,0-4.3l-2-1
				c-1.4-0.5-2.9-0.5-4.3,0l-21.3,9.4C608.4,1254.5,607.8,1256.3,609.6,1257.5z"/>
			<path class="st18" d="M619.1,1258.4l-1.8,0.6l-9.4-5.3l1.4-0.8L619.1,1258.4z"/>
			<path class="st18" d="M623.6,1256.9l-1.8,0.4l-9.2-5.3l1.4-0.8L623.6,1256.9z"/>
			<path class="st18" d="M628.3,1255.1l-1.8,0.4l-9.4-5.3l1.4-0.6L628.3,1255.1z"/>
			<path class="st18" d="M632.8,1253.3l-1.8,0.6l-9.2-5.3l1.4-0.8L632.8,1253.3z"/>
			<path class="st18" d="M637.1,1251.4l-1.8,0.6l-9.4-5.3l1.6-0.8L637.1,1251.4z"/>
			<path class="st18" d="M640.7,1249.2l-1.6,0.4l-9.4-5.3l1.4-0.8L640.7,1249.2z"/>
			<path class="st35" d="M689.1,1210.5l-2.2-1.4c-0.6-0.4-1.3-0.6-2-0.6c-0.7,0-1.4,0.2-2,0.6l-16.8,13.3c-0.5,0.3-0.8,0.6-1.1,1.1
				c-0.3,0.4-0.4,0.9-0.4,1.5c0,0.5,0.1,1,0.4,1.5c0.3,0.5,0.6,0.8,1.1,1.1l2,1c0.6,0.3,1.2,0.4,1.9,0.4s1.3-0.1,1.9-0.4l16.4-12.7
				C690.7,1214.3,690.9,1211.7,689.1,1210.5z"/>
			<g>
				<path class="st18" d="M680.7,1210.2l1.4-0.8l9,5.5l-1,1L680.7,1210.2z"/>
				<path class="st18" d="M677.2,1212.5l1.4-0.6l8.8,5.3l-1,1.2L677.2,1212.5z"/>
				<path class="st18" d="M673.5,1215l1.4-0.8l9,5.5l-1,1L673.5,1215z"/>
				<path class="st18" d="M670,1217.4l1.4-0.6l8.8,5.3l-1,1.2L670,1217.4z"/>
				<path class="st18" d="M666.6,1220.1l1.4-0.8l8.8,5.5l-1,1L666.6,1220.1z"/>
				<path class="st18" d="M663.9,1223.1l1.4-0.8l9,5.5l-1.2,1.2L663.9,1223.1z"/>
			</g>
			<path class="st36" d="M650,1126.7l32.4,48.3l-1,5.7l-24.8-14.9L650,1126.7z"/>
			<path class="st36" d="M610,1138l43.6,26l-7.2-42.8l-4.1-6.2C631.9,1123.2,621.1,1130.9,610,1138z"/>
			<path class="st19" d="M535.7,1044.6c5.3-2,111.4,63.5,111.4,63.5c-38.9,32.4-83,58.1-130.4,75.8l-112.6-62
				C445.8,1092.6,489.8,1066.7,535.7,1044.6z"/>
			<path class="st21" d="M298.2,1158.9l6.8-8l0.4,5.7l29.3,18.2l-4.5,2.7L298.2,1158.9z"/>
			<path class="st37" d="M309.1,1132.6l1.6,1c0.8,0.8,1.5,1.7,2,2.7c0.3,1.2,0.3,2.4,0,3.5v11.7c0.3,0.8,0.3,1.7,0,2.5
				c0,0-1.8,0-2.3,0l-2.9-2c-1.2,0,0,0-1.6-1.4v-4.1L309.1,1132.6z"/>
			<path class="st10" d="M569.5,1320.4v11.5l2.5-1.6v-11.5L569.5,1320.4z"/>
			<path class="st21" d="M633.8,1354.8c-6.9-10.5-15.9-19.5-26.4-26.4c-3.9-2.2-8.3-3-12.7-2.6c-4.4,0.5-8.5,2.3-11.8,5.3
				c-3.9,4.1-6.2,9.6-6.3,15.2v7.4l-1.2-14.7c0.3-3.1,1.3-6.1,2.8-8.8c1.5-2.7,3.6-5,6.1-6.9c2.5-1.8,5.4-3.1,8.4-3.8
				c3-0.7,6.2-0.7,9.2-0.1c24.6,3.5,39.1,33.6,39.1,33.6L633.8,1354.8z"/>
			<path class="st9" d="M585.5,1322c4.2-1.6,8.7-2,13.1-1.2c24.6,3.3,38.1,35,38.1,35h-2.3c-7-11-16.2-20.4-27-27.8
				c-3.4-1.8-7.1-2.8-10.9-2.8s-7.6,1-10.9,2.8c-2.9,0-7.2,8.2-8.6,24.8l-4.3-2.5C574.2,1334.7,578.3,1326.8,585.5,1322z"/>
			<path class="st21" d="M329.5,1177.9c8.7-1.4,17.6,0.2,25.2,4.5c11.9,8.7,20.2,21.5,23.1,36l3.9,14.9l1.6-1.8
				c0,0-1.6-12.5-2.9-17.6c-1.2-6.8-3.7-13.3-7.5-19.1s-8.8-10.7-14.6-14.5c-3.3-2.6-7.1-4.4-11.1-5.3c-4-0.9-8.3-1-12.3-0.2
				L329.5,1177.9z"/>
			<path class="st9" d="M380.3,1240.8l-2.3-1.6c0.7-8.1,0.1-16.2-1.8-24c-3.6-12.8-11.9-23.7-23.3-30.7c-3.4-2.3-7.3-3.8-11.3-4.5
				c-4.1-0.6-8.2-0.4-12.1,0.8c-5,2.2-8.9,6.3-10.9,11.3c-1.2,4.7-3.3-2-3.3-2l8.2-12.7h6.1c6-1.4,12.2-1.4,18.2,0
				c7.4,3.5,14,8.7,19.2,15c5.2,6.4,9,13.8,11.1,21.7c2,5.8,3.3,11.8,3.7,18l3.1,6.8L380.3,1240.8z"/>
			<path class="st38" d="M585.9,1299.9l4.1,2.3c0.5,0.3,0.9,0.7,1.2,1.3c0.3,0.5,0.5,1.1,0.5,1.7v1.6c0,0.3-0.1,0.6-0.3,0.9
				c-0.2,0.3-0.4,0.5-0.7,0.6c-0.3,0.2-0.6,0.2-0.9,0.3c-0.3,0-0.6,0-0.9-0.2l-3.9-2.3c-0.5-0.3-1-0.7-1.3-1.2
				c-0.3-0.5-0.5-1.1-0.4-1.7v-1.6c0-0.3,0.1-0.6,0.2-0.9c0.1-0.3,0.4-0.5,0.6-0.6c0.3-0.2,0.5-0.2,0.8-0.3
				C585.4,1299.7,585.7,1299.7,585.9,1299.9z"/>
			<path class="st39" d="M585.1,1300.5l4.1,2.3c0.5,0.3,1,0.7,1.3,1.2c0.3,0.5,0.5,1.1,0.4,1.7v1.6c0,0.3-0.1,0.6-0.2,0.9
				c-0.1,0.3-0.4,0.5-0.6,0.6c-0.3,0.2-0.5,0.2-0.8,0.3c-0.3,0-0.6,0-0.9-0.2l-4.1-2.3c-0.5-0.3-1-0.7-1.3-1.2
				c-0.3-0.5-0.5-1.1-0.4-1.7v-1.6c0-0.3,0.1-0.6,0.2-0.9c0.1-0.3,0.4-0.5,0.6-0.6c0.3-0.2,0.5-0.2,0.8-0.3
				C584.6,1300.3,584.9,1300.3,585.1,1300.5z"/>
			<path class="st19" d="M675.4,1341.1h-1.6c0,0-1.6,0-2,0c-0.4,0-2.7,2-3.1,3.5c-0.4,1.6-2,3.1-2.5,5.1c-0.5,1.1-0.7,2.4-0.7,3.6
				c0,1.2,0.2,2.5,0.7,3.6c0,0,3.9,3.1,4.7,2.7l4.9-2.3C677.6,1352.1,677.4,1346.3,675.4,1341.1z"/>
			<path class="st40" d="M669,1176.9c7.4,1.9,15.2,1.5,22.5-1c1.2,2.1,2.1,3.7,2.5,4.7c-40.1,32.5-85,58.5-133.1,77l-7.2-13.9
				C579.7,1227.7,613.3,1208.4,669,1176.9z"/>
			<path class="st9" d="M503.6,1253.3c-0.1,2.4,0.7,4.7,2.1,6.6c1.4,1.9,3.4,3.2,5.7,3.8c1.6,0.2,3.3,0.2,4.9,0
				c8.6,0,19.6,0,20.9-1.4c1.4-1.4,10,0,10,0c0.7-0.5,1.2-1.2,1.6-2c0.4-0.8,0.6-1.6,0.6-2.5c0-0.9-0.2-1.7-0.6-2.5
				c-0.4-0.8-0.9-1.5-1.6-2l-1.8-1.4h-5.1c0.1-0.7,0.1-1.3,0-2c-1.8-3.4-4.8-6.1-8.3-7.6c-3.6-1.5-7.5-1.7-11.2-0.6
				C501.1,1247.3,503.6,1253.3,503.6,1253.3z"/>
			<path class="st9" d="M458.1,1229.7l14.1,8.2c0-2.5,0-4.1-2.3-5.9c-2.7-1.8-5.5-3.4-8.4-4.9
				C457.9,1225.2,458.1,1229.7,458.1,1229.7z"/>
			<path class="st9" d="M394.6,1191.6l14.1,8.2c0-2.7,0-4.3-2.3-5.9c-2.6-1.8-5.4-3.4-8.2-4.9
				C394.4,1187.1,394.6,1191.6,394.6,1191.6z"/>
		</g>
		<text transform="matrix(1 0 0 1 166.4043 433.7823)" class="st0 st63 st71">CO2 påverkan</text>
		<text transform="matrix(1 0 0 1 412.3838 574.7993)" class="st1 st65 st71">idag</text>
		<g>
			<g>
				<line class="st72" x1="526.4" y1="655.4" x2="526.4" y2="661.4"/>
				<line class="st73" x1="526.4" y1="673.5" x2="526.4" y2="1080"/>
				<line class="st72" x1="526.4" y1="1086.1" x2="526.4" y2="1092.1"/>
			</g>
		</g>
	</g>
	<g>
		<defs>
			<polygon id="SVGID_31_" points="2431.4,2258.5 1351.4,2893.7 1351.4,2116.2 2431.4,2115 			"/>
		</defs>
		<clipPath id="SVGID_6_">
			<use xlink:href="#SVGID_31_"  style="overflow:visible;"/>
		</clipPath>
		<g class="st44">
			<defs>
				<rect id="SVGID_33_" x="1351.4" y="2109.4" width="1114.1" height="1120.1"/>
			</defs>
			<clipPath id="SVGID_7_">
				<use xlink:href="#SVGID_33_"  style="overflow:visible;"/>
			</clipPath>
			<g style="clip-path:url(#SVGID_7_);">
				<path class="st88" d="M1403.4,3953L-847.2,2656.4l2364.3-1366.2l2250.6,1296.6L1403.4,3953z"/>
				<path class="st19" d="M1235.2,1441.9l-1695,978.9L843.9,3175l1695-978.9L1235.2,1441.9z"/>
				<path class="st89" d="M674.6,1763.7l-1134.4,657.1L843.9,3175L1978.3,2518L674.6,1763.7z"/>
				<path class="st91" d="M1368.3,1203.3l720.3,415.8L638.5,2454.6l-720.3-415.8L1368.3,1203.3z"/>
				<g>
					<path class="st92" d="M-37.5,2038.9l1405.8-810.1l675.9,390.2L638.5,2429.1L-37.5,2038.9z"/>
				</g>
				<g>
					<path class="st93" d="M2044.2,1619L638.5,2429.1l-24.6-14.2l1340.7-773.1l-610.1-352.5l23.8-60.5L2044.2,1619z"/>
				</g>
				<g>
					<path class="st93" d="M1474.2,1964.8l-117.1,10.6l92.8-75.5L967,1949.8l-474.7,259.6l162.5,85.2l294.2-26.7l0.5-0.3l16.2-1.4
						l120-69.8l30.8-25.1L1474.2,1964.8z"/>
				</g>
				<g>
					<path class="st112" d="M1490.1,1754.4L1185,1914.5l-53.5,385.7l-417.1,537.4l617.6-58.4l52.3-107l159.8-225.5l231.9-55.5
						L1490.1,1754.4z"/>
				</g>
			</g>
		</g>
	</g>
</g>
<g id="Ramar">
	<g>
		<path d="M0-0.7v1920h1080V-0.7H0z M1109.2,1958.1H-29.2V-38.1h1138.4V1958.1z"/>
		<g>
			<path d="M0-0.7v1920h1080V-0.7H0z M1109.2,1958.1H-29.2V-38.1h1138.4V1958.1z"/>
		</g>
	</g>
</g>
</svg>
