<?xml version="1.0" encoding="utf-8"?>
<!-- Generator: Adobe Illustrator 24.0.0, SVG Export Plug-In . SVG Version: 6.00 Build 0)  -->
<svg version="1.1" xmlns="http://www.w3.org/2000/svg" xmlns:xlink="http://www.w3.org/1999/xlink" x="0px" y="0px"
	 viewBox="0 0 1080 1920" style="enable-background:new 0 0 1080 1920;" xml:space="preserve">
<style type="text/css">
	.st0{fill:#FFFFFF;}
	.st1{fill:#00AEEF;}
	.st2{fill:#91651F;}
	.st3{fill:#AA7723;}
	.st4{fill:#855107;}
	.st5{fill:#567601;}
	.st6{fill:#638800;}
	.st7{fill:#769C11;}
	.st8{fill:#06395B;}
	.st9{fill:#414C5C;}
	.st10{fill:#293237;}
	.st11{fill:url(#SVGID_1_);}
	.st12{fill:#A1A1A1;}
	.st13{fill:url(#SVGID_2_);}
	.st14{fill:#D3D3D3;}
	.st15{fill:#B6B6B6;}
	.st16{fill:url(#SVGID_3_);}
	.st17{fill:url(#SVGID_4_);}
	.st18{fill:#73A538;}
	.st19{fill:#79B53B;}
	.st20{fill:#577729;}
	.st21{fill:#546672;}
	.st22{fill:#409E4E;}
	.st23{fill:#529BA3;}
	.st24{fill:#141E25;}
	.st25{fill:#9CB7D2;}
	.st26{fill:#768A99;}
	.st27{fill:#C4C4C4;}
	.st28{fill:#BED5DF;}
	.st29{fill:#12181D;}
	.st30{fill:#EFEC82;}
	.st31{fill:#D3A944;}
	.st32{fill:#E8F0F3;}
	.st33{fill:#88D5DE;}
	.st34{fill:#3D7D87;}
	.st35{fill:#3E2F37;}
	.st36{fill:#95C9B1;}
	.st37{fill:#E08A35;}
	.st38{fill:#E06E18;}
	.st39{fill:#E0AB35;}
	.st40{fill:#5B949C;}
	.st41{fill:none;stroke:#FFFFFF;stroke-width:1.4862;stroke-miterlimit:10;}
	.st42{fill:none;stroke:#FFFFFF;stroke-width:1.4862;stroke-miterlimit:10;stroke-dasharray:6.0118,6.0118;}
	.st43{fill:#00AEEF;stroke:#00AEEF;}
	.st44{clip-path:url(#SVGID_6_);}
	.st45{fill:#91651F;stroke:#00AEEF;}
	.st46{fill:#AA7723;stroke:#00AEEF;}
	.st47{fill:#855107;stroke:#00AEEF;}
	.st48{fill:#567601;stroke:#00AEEF;}
	.st49{fill:#638800;stroke:#00AEEF;}
	.st50{fill:#769C11;stroke:#00AEEF;}
	.st51{fill:#1595BC;}
	.st52{fill:url(#SVGID_7_);}
	.st53{fill:url(#SVGID_8_);}
	.st54{fill:url(#SVGID_9_);}
	.st55{fill:url(#SVGID_10_);}
	.st56{fill:url(#SVGID_11_);}
	.st57{fill:url(#SVGID_12_);}
	.st58{fill:url(#SVGID_13_);}
	.st59{fill:url(#SVGID_14_);}
	.st60{fill:#FFFFFF;stroke:#06395B;}
	.st61{fill:#06395B;stroke:#06395B;}
	.st62{fill:#00AEEF;stroke:#06395B;}
	.st63{fill:url(#SVGID_15_);}
	.st64{fill:url(#SVGID_16_);}
	.st65{fill:url(#SVGID_17_);}
	.st66{fill:url(#SVGID_18_);}
	.st67{fill:none;stroke:#FFFFFF;stroke-width:3;stroke-miterlimit:10;}
	.st68{fill:none;stroke:#FFFFFF;stroke-width:3;stroke-miterlimit:10;stroke-dasharray:12.135,12.135;}
	.st69{fill:url(#SVGID_19_);}
	.st70{fill:url(#SVGID_20_);}
	.st71{fill:url(#SVGID_21_);}
	.st72{fill:url(#SVGID_22_);}
	.st73{fill:url(#SVGID_23_);}
	.st74{fill:url(#SVGID_24_);}
	.st75{fill:url(#SVGID_25_);}
	.st76{fill:url(#SVGID_26_);}
	.st77{fill:url(#SVGID_27_);}
	.st78{fill:url(#SVGID_28_);}
	.st79{fill:url(#SVGID_29_);}
	.st80{fill:url(#SVGID_30_);}
	.st81{clip-path:url(#SVGID_32_);}
	.st82{clip-path:url(#SVGID_34_);}
	.st83{fill:#6E7071;}
	.st84{fill:#C9C9C9;}
	.st85{fill:#DBCC65;}
	.st86{fill:#EFEFEF;}
	.st87{fill:#B5AC96;}
	.st88{fill:#D1D1D1;}
	.st89{fill:#686868;}
	.st90{fill:url(#SVGID_35_);}
	.st91{fill:url(#SVGID_36_);}
	.st92{fill:#9C9C9C;}
	.st93{fill:#3D3D3D;}
	.st94{fill:url(#SVGID_37_);}
	.st95{fill:url(#SVGID_38_);}
	.st96{fill:url(#SVGID_39_);}
	.st97{fill:url(#SVGID_40_);}
	.st98{fill:url(#SVGID_41_);}
	.st99{fill:url(#SVGID_42_);}
	.st100{fill:#BABABA;}
	.st101{fill:url(#SVGID_43_);}
	.st102{fill:url(#SVGID_44_);}
	.st103{fill:#CECCCA;}
	.st104{fill:#96EB4B;}
	.st105{fill:#5AB42C;}
	.st106{fill:#ADA9A5;}
	.st107{fill:#C6BEB7;}
	.st108{fill:#E1D7AD;}
	.st109{fill:#E8D558;}
	.st110{fill:#CAC7D0;}
	.st111{fill:#AD964C;}
	.st112{fill:url(#SVGID_45_);}
	.st113{fill:url(#SVGID_46_);}
	.st114{fill:url(#SVGID_47_);}
	.st115{fill:url(#SVGID_48_);}
	.st116{fill:url(#SVGID_49_);}
	.st117{fill:url(#SVGID_50_);}
	.st118{fill:url(#SVGID_51_);}
	.st119{fill:url(#SVGID_52_);}
	.st120{fill:url(#SVGID_53_);}
	.st121{fill:url(#SVGID_54_);}
	.st122{fill:url(#SVGID_55_);}
	.st123{fill:url(#SVGID_56_);}
	.st124{fill:url(#SVGID_57_);}
	.st125{fill:url(#SVGID_58_);}
	.st126{fill:url(#SVGID_59_);}
	.st127{fill:url(#SVGID_60_);}
	.st128{fill:url(#SVGID_61_);}
	.st129{fill:#4F4743;}
	.st130{fill:#877A75;}
	.st131{fill:#322F36;}
	.st132{fill:#417C23;}
	.st133{fill:#053056;}
	.st134{fill:#084985;}
	.st135{fill:#0C5EAA;}
	.st136{fill:#C6CCDA;}
	.st137{fill:#ABA06F;}
	.st138{fill:#E8C589;}
	.st139{fill:#F5F5F5;}
	.st140{fill:url(#SVGID_62_);}
	.st141{fill:#FDCB54;}
	.st142{fill:#FFDA5B;}
	.st143{fill:#BB772D;}
	.st144{fill:#AD7434;}
	.st145{fill:#D8AD45;}
	.st146{fill:url(#SVGID_63_);}
	.st147{fill:url(#SVGID_64_);}
	.st148{fill:url(#SVGID_65_);}
	.st149{fill:url(#SVGID_66_);}
	.st150{fill:url(#SVGID_67_);}
	.st151{fill:#8BB3BA;}
	.st152{fill:#DFECF2;}
	.st153{fill:#87B9A2;}
	.st154{fill:#658975;}
	.st155{fill:#F5FAFF;}
	.st156{fill:url(#SVGID_68_);}
	.st157{fill:url(#SVGID_69_);}
	.st158{fill:url(#SVGID_70_);}
	.st159{fill:url(#SVGID_71_);}
	.st160{fill:url(#SVGID_72_);}
	.st161{fill:#918B86;}
	.st162{fill:#CACACA;}
	.st163{fill:#8B8B8B;}
	.st164{fill:#FF816F;}
	.st165{fill:url(#SVGID_73_);}
	.st166{fill:url(#SVGID_74_);}
	.st167{fill:#F0F0F0;}
	.st168{fill:url(#SVGID_75_);}
	.st169{fill:#B6BDCC;}
	.st170{fill:#C4A9AD;}
	.st171{fill:#B7A176;}
	.st172{fill:#C8BCA8;}
	.st173{fill:url(#SVGID_76_);}
	.st174{fill:url(#SVGID_77_);}
	.st175{fill:url(#SVGID_78_);}
	.st176{fill:url(#SVGID_79_);}
	.st177{fill:url(#SVGID_80_);}
	.st178{fill:url(#SVGID_81_);}
	.st179{fill:url(#SVGID_82_);}
	.st180{fill:url(#SVGID_83_);}
	.st181{fill:url(#SVGID_84_);}
	.st182{fill:url(#SVGID_85_);}
	.st183{fill:url(#SVGID_86_);}
	.st184{fill:url(#SVGID_87_);}
	.st185{fill:url(#SVGID_88_);}
	.st186{fill:#9F9E9E;}
	.st187{fill:#858482;}
	.st188{fill:#C0C0C0;}
	.st189{fill:#C8D4D4;}
	.st190{fill:#A2B3AF;}
	.st191{fill:#E1F0F0;}
	.st192{fill:#BDCCCC;}
	.st193{fill:#3A8ABF;}
	.st194{fill:#F4FAFC;}
	.st195{fill:url(#SVGID_89_);}
	.st196{fill:url(#SVGID_90_);}
	.st197{fill:url(#SVGID_91_);}
	.st198{fill:url(#SVGID_92_);}
	.st199{fill:url(#SVGID_93_);}
	.st200{fill:#BA9008;}
	.st201{fill:#F2D035;}
	.st202{fill:#B97005;}
	.st203{fill:#895005;}
	.st204{fill:#FFE642;}
	.st205{fill:#BB8131;}
	.st206{fill:url(#SVGID_94_);}
	.st207{fill:url(#SVGID_95_);}
	.st208{fill:url(#SVGID_96_);}
	.st209{fill:url(#SVGID_97_);}
	.st210{fill:url(#SVGID_98_);}
	.st211{fill:url(#SVGID_99_);}
	.st212{fill:url(#SVGID_100_);}
	.st213{fill:url(#SVGID_101_);}
	.st214{fill:url(#SVGID_102_);}
	.st215{fill:url(#SVGID_103_);}
	.st216{fill:#B5BBB8;}
	.st217{fill:url(#SVGID_104_);}
	.st218{fill:url(#SVGID_105_);}
	.st219{fill:url(#SVGID_106_);}
	.st220{fill:url(#SVGID_107_);}
	.st221{fill:url(#SVGID_108_);}
	.st222{fill:url(#SVGID_109_);}
	.st223{fill:url(#SVGID_110_);}
	.st224{fill:url(#SVGID_111_);}
	.st225{fill:url(#SVGID_112_);}
	.st226{fill:url(#SVGID_113_);}
	.st227{fill:#6EDAE0;}
	.st228{fill:#1184B4;}
	.st229{fill:#0D6990;}
	.st230{fill:#0D6991;}
	.st231{fill:#AD4848;}
	.st232{fill:#590404;}
	.st233{fill:#E03835;}
	.st234{fill:#E0C5A0;}
	.st235{fill:url(#SVGID_114_);}
	.st236{fill:url(#SVGID_115_);}
	.st237{fill:url(#SVGID_116_);}
	.st238{fill:url(#SVGID_117_);}
	.st239{fill:url(#SVGID_118_);}
	.st240{fill:#CF4242;}
	.st241{fill:#E35959;}
	.st242{fill:#B11414;}
	.st243{fill:#E45656;}
	.st244{fill:#266B76;}
	.st245{fill:url(#SVGID_119_);}
	.st246{fill:#4A4A4A;}
	.st247{fill:#595959;}
	.st248{fill:#6C6C6C;}
	.st249{fill:#7D7D7D;}
	.st250{fill:url(#SVGID_120_);}
	.st251{fill:url(#SVGID_121_);}
	.st252{fill:#919191;}
	.st253{fill:url(#SVGID_122_);}
	.st254{fill:url(#SVGID_123_);}
	.st255{fill:url(#SVGID_124_);}
	.st256{fill:url(#SVGID_125_);}
	.st257{fill:#6A6A6A;}
	.st258{fill:url(#SVGID_126_);}
	.st259{fill:url(#SVGID_127_);}
	.st260{fill:url(#SVGID_128_);}
	.st261{fill:url(#SVGID_129_);}
	.st262{fill:url(#SVGID_130_);}
	.st263{fill:url(#SVGID_131_);}
	.st264{fill:url(#SVGID_132_);}
	.st265{fill-rule:evenodd;clip-rule:evenodd;fill:url(#SVGID_133_);}
	.st266{fill:url(#SVGID_134_);}
	.st267{fill:url(#SVGID_135_);}
	.st268{fill:url(#SVGID_136_);}
	.st269{fill:url(#SVGID_137_);}
	.st270{fill:url(#SVGID_138_);}
	.st271{fill:url(#SVGID_139_);}
	.st272{fill-rule:evenodd;clip-rule:evenodd;fill:url(#SVGID_140_);}
	.st273{fill:url(#SVGID_141_);}
	.st274{fill:url(#SVGID_142_);}
	.st275{fill:url(#SVGID_143_);}
	.st276{fill:url(#SVGID_144_);}
	.st277{fill:url(#SVGID_145_);}
	.st278{fill:url(#SVGID_146_);}
	.st279{fill:url(#SVGID_147_);}
	.st280{fill-rule:evenodd;clip-rule:evenodd;fill:url(#SVGID_148_);}
	.st281{opacity:0.9;fill:#191919;enable-background:new    ;}
	.st282{fill:url(#SVGID_149_);}
	.st283{fill:url(#SVGID_150_);}
	.st284{fill:url(#SVGID_151_);}
	.st285{fill:url(#SVGID_152_);}
	.st286{fill:#363636;}
	.st287{fill:#242424;}
	.st288{fill:#191919;}
	.st289{fill:#171717;}
	.st290{fill-rule:evenodd;clip-rule:evenodd;fill:url(#SVGID_153_);}
	.st291{fill:url(#SVGID_154_);}
	.st292{fill:url(#SVGID_155_);}
	.st293{fill:url(#SVGID_156_);}
	.st294{fill:url(#SVGID_157_);}
	.st295{fill:url(#SVGID_158_);}
	.st296{fill:url(#SVGID_159_);}
	.st297{fill:#A2A2A2;}
	.st298{fill:url(#SVGID_160_);}
	.st299{fill:url(#SVGID_161_);}
	.st300{fill:url(#SVGID_162_);}
	.st301{fill:url(#SVGID_163_);}
	.st302{fill:url(#SVGID_164_);}
	.st303{fill:url(#SVGID_165_);}
	.st304{fill:url(#SVGID_166_);}
	.st305{fill:url(#SVGID_167_);}
	.st306{fill:#DBDBDB;}
	.st307{fill:url(#SVGID_168_);}
	.st308{fill:url(#SVGID_169_);}
	.st309{fill:url(#SVGID_170_);}
	.st310{fill:#818181;}
	.st311{fill:#808080;}
	.st312{fill:#8C8C8C;}
	.st313{fill:#A7A7A7;}
	.st314{fill:url(#SVGID_171_);}
	.st315{fill:url(#SVGID_172_);}
	.st316{fill:url(#SVGID_173_);}
	.st317{fill:url(#SVGID_174_);}
	.st318{fill:url(#SVGID_175_);}
	.st319{fill:url(#SVGID_176_);}
	.st320{fill:url(#SVGID_177_);}
	.st321{fill:url(#SVGID_178_);}
	.st322{fill:url(#SVGID_179_);}
	.st323{fill:url(#SVGID_180_);}
	.st324{fill:url(#SVGID_181_);}
	.st325{fill:url(#SVGID_182_);}
	.st326{fill:url(#SVGID_183_);}
	.st327{fill:url(#SVGID_184_);}
	.st328{fill:url(#SVGID_185_);}
	.st329{fill:#B3B3B3;}
	.st330{fill:url(#SVGID_186_);}
	.st331{fill:#BFBFBF;}
	.st332{fill:url(#SVGID_187_);}
	.st333{fill:#929292;}
	.st334{fill:#C2C2C2;}
	.st335{fill:url(#SVGID_188_);}
	.st336{fill:url(#SVGID_189_);}
	.st337{fill:url(#SVGID_190_);}
	.st338{fill:url(#SVGID_191_);}
	.st339{fill:url(#SVGID_192_);}
	.st340{fill:url(#SVGID_193_);}
	.st341{fill:url(#SVGID_194_);}
	.st342{fill:url(#SVGID_195_);}
	.st343{fill:url(#SVGID_196_);}
	.st344{fill:url(#SVGID_197_);}
	.st345{fill:url(#SVGID_198_);}
	.st346{fill:url(#SVGID_199_);}
	.st347{fill:url(#SVGID_200_);}
	.st348{fill:url(#SVGID_201_);}
	.st349{fill:url(#SVGID_202_);}
	.st350{fill:url(#SVGID_203_);}
	.st351{fill:url(#SVGID_204_);}
	.st352{fill:url(#SVGID_205_);}
	.st353{fill:url(#SVGID_206_);}
	.st354{fill:url(#SVGID_207_);}
	.st355{fill:url(#SVGID_208_);}
	.st356{fill:url(#SVGID_209_);}
	.st357{fill:url(#SVGID_210_);}
	.st358{fill:url(#SVGID_211_);}
	.st359{fill:url(#SVGID_212_);}
	.st360{fill:url(#SVGID_213_);}
	.st361{fill:url(#SVGID_214_);}
	.st362{fill:url(#SVGID_215_);}
	.st363{fill:#B0B0B0;}
	.st364{fill:#A4A4A4;}
	.st365{fill:url(#SVGID_216_);}
	.st366{fill:url(#SVGID_217_);}
	.st367{fill:#B5B5B5;}
	.st368{fill:url(#SVGID_218_);}
	.st369{fill:url(#SVGID_219_);}
	.st370{fill:url(#SVGID_220_);}
	.st371{fill:url(#SVGID_221_);}
	.st372{fill:url(#SVGID_222_);}
	.st373{fill:url(#SVGID_223_);}
	.st374{fill:url(#SVGID_224_);}
	.st375{fill:url(#SVGID_225_);}
	.st376{fill:url(#SVGID_226_);}
	.st377{fill:url(#SVGID_227_);}
	.st378{fill:url(#SVGID_228_);}
	.st379{fill:url(#SVGID_229_);}
	.st380{fill:url(#SVGID_230_);}
	.st381{fill:url(#SVGID_231_);}
	.st382{fill:url(#SVGID_232_);}
	.st383{fill:url(#SVGID_233_);}
	.st384{fill:url(#SVGID_234_);}
	.st385{fill:url(#SVGID_235_);}
	.st386{fill:url(#SVGID_236_);}
	.st387{fill:url(#SVGID_237_);}
	.st388{fill:url(#SVGID_238_);}
	.st389{fill:url(#SVGID_239_);}
	.st390{fill:url(#SVGID_240_);}
	.st391{fill:url(#SVGID_241_);}
	.st392{fill:url(#SVGID_242_);}
	.st393{fill:url(#SVGID_243_);}
	.st394{fill:url(#SVGID_244_);}
	.st395{fill:url(#SVGID_245_);}
	.st396{fill:url(#SVGID_246_);}
	.st397{fill:url(#SVGID_247_);}
	.st398{fill:url(#SVGID_248_);}
	.st399{fill:url(#SVGID_249_);}
	.st400{fill:url(#SVGID_250_);}
	.st401{fill:url(#SVGID_251_);}
	.st402{fill:url(#SVGID_252_);}
	.st403{fill:url(#SVGID_253_);}
	.st404{fill-rule:evenodd;clip-rule:evenodd;fill:#E7E7E7;}
	.st405{fill-rule:evenodd;clip-rule:evenodd;fill:url(#SVGID_254_);}
	.st406{opacity:0.35;}
	.st407{fill:url(#SVGID_255_);}
	.st408{fill:url(#SVGID_256_);}
	.st409{fill:url(#SVGID_257_);}
	.st410{fill:url(#SVGID_258_);}
	.st411{fill:url(#SVGID_259_);}
	.st412{fill:url(#SVGID_260_);}
	.st413{fill:url(#SVGID_261_);}
	.st414{fill:url(#SVGID_262_);}
	.st415{fill:url(#SVGID_263_);}
	.st416{fill:url(#SVGID_264_);}
	.st417{fill:url(#SVGID_265_);}
	.st418{fill:url(#SVGID_266_);}
	.st419{fill:url(#SVGID_267_);}
	.st420{fill:url(#SVGID_268_);}
	.st421{opacity:0.5;fill:#191919;enable-background:new    ;}
	.st422{fill:url(#SVGID_269_);}
	.st423{fill:#050603;}
	.st424{fill-rule:evenodd;clip-rule:evenodd;}
	.st425{fill:url(#SVGID_270_);}
	.st426{fill:url(#SVGID_271_);}
	.st427{fill:url(#SVGID_272_);}
	.st428{fill-rule:evenodd;clip-rule:evenodd;fill:#B3B3B3;}
	.st429{fill:url(#SVGID_273_);}
	.st430{opacity:0.75;fill:#191919;enable-background:new    ;}
	.st431{fill-rule:evenodd;clip-rule:evenodd;fill:url(#SVGID_274_);}
	.st432{fill:#690202;}
	.st433{fill:#CCCCCC;}
	.st434{fill:url(#SVGID_275_);}
	.st435{fill:url(#SVGID_276_);}
	.st436{fill:#DEDEDE;}
	.st437{fill:url(#SVGID_277_);}
	.st438{fill:url(#SVGID_278_);}
	.st439{opacity:0.23;}
	.st440{fill:url(#SVGID_279_);}
	.st441{fill:url(#SVGID_280_);}
	.st442{fill:url(#SVGID_281_);}
	.st443{fill:url(#SVGID_282_);}
	.st444{fill:url(#SVGID_283_);}
	.st445{fill:url(#SVGID_284_);}
	.st446{fill:url(#SVGID_285_);}
	.st447{fill:url(#SVGID_286_);}
	.st448{opacity:0.64;}
	.st449{fill:url(#SVGID_287_);}
	.st450{fill:url(#SVGID_288_);}
	.st451{fill:#040404;}
	.st452{fill:url(#SVGID_289_);}
	.st453{fill:url(#SVGID_290_);}
	.st454{fill:url(#SVGID_291_);}
	.st455{fill:url(#SVGID_292_);}
	.st456{fill:url(#SVGID_293_);}
	.st457{fill:url(#SVGID_294_);}
	.st458{fill:url(#SVGID_295_);}
	.st459{fill:url(#SVGID_296_);}
	.st460{fill:url(#SVGID_297_);}
	.st461{opacity:0.25;fill:url(#SVGID_298_);enable-background:new    ;}
	.st462{opacity:0.25;fill:url(#SVGID_299_);enable-background:new    ;}
	.st463{opacity:0.25;fill:url(#SVGID_300_);enable-background:new    ;}
	.st464{opacity:0.25;fill:url(#SVGID_301_);enable-background:new    ;}
	.st465{fill:#E6E6E6;}
	.st466{fill:#430202;}
	.st467{fill:#370202;}
	.st468{opacity:0.25;fill:url(#SVGID_302_);enable-background:new    ;}
	.st469{opacity:0.25;fill:url(#SVGID_303_);enable-background:new    ;}
	.st470{fill:url(#SVGID_304_);}
	.st471{fill:url(#SVGID_305_);}
	.st472{fill:url(#SVGID_306_);}
	.st473{fill:url(#SVGID_307_);}
	.st474{fill:url(#SVGID_308_);}
	.st475{fill:url(#SVGID_309_);}
	.st476{fill:url(#SVGID_310_);}
	.st477{fill:url(#SVGID_311_);}
	.st478{fill:url(#SVGID_312_);}
	.st479{fill:url(#SVGID_313_);}
	.st480{fill:url(#SVGID_314_);}
	.st481{fill:url(#SVGID_315_);}
	.st482{fill:url(#SVGID_316_);}
	.st483{fill:url(#SVGID_317_);}
	.st484{fill:url(#SVGID_318_);}
	.st485{fill:url(#SVGID_319_);}
	.st486{fill:none;}
	.st487{font-family:'UnitPro-Bold';}
	.st488{font-size:37.6514px;}
	.st489{font-size:99.4647px;}
	.st490{font-size:51.7366px;}
	.st491{font-family:'UnitPro';}
	.st492{font-size:58.4051px;}
	.st493{font-family:'UnitPro-Medi';}
	.st494{font-size:78.713px;}
	.st495{font-size:161.1256px;}
	.st496{font-size:61.7145px;}
	.st497{font-size:30.0278px;}
	.st498{fill:url(#SVGID_320_);}
	.st499{fill:url(#SVGID_321_);}
	.st500{fill:url(#SVGID_322_);}
	.st501{fill:url(#SVGID_323_);}
	.st502{font-size:52.2383px;}
	.st503{font-size:44.8383px;}
	.st504{clip-path:url(#SVGID_325_);}
	.st505{clip-path:url(#SVGID_327_);}
	.st506{fill:url(#SVGID_328_);}
	.st507{fill:url(#SVGID_329_);}
	.st508{fill:url(#SVGID_330_);}
	.st509{fill:url(#SVGID_331_);}
	.st510{fill:url(#SVGID_332_);}
	.st511{fill:url(#SVGID_333_);}
	.st512{fill:url(#SVGID_334_);}
	.st513{fill:url(#SVGID_335_);}
	.st514{fill:url(#SVGID_336_);}
	.st515{fill:url(#SVGID_337_);}
	.st516{fill:url(#SVGID_338_);}
	.st517{fill:url(#SVGID_339_);}
	.st518{fill:url(#SVGID_340_);}
	.st519{fill:url(#SVGID_341_);}
	.st520{fill:url(#SVGID_342_);}
	.st521{fill:url(#SVGID_343_);}
	.st522{fill:url(#SVGID_344_);}
	.st523{fill:url(#SVGID_345_);}
	.st524{fill:url(#SVGID_346_);}
	.st525{fill:url(#SVGID_347_);}
	.st526{fill:url(#SVGID_348_);}
	.st527{fill:url(#SVGID_349_);}
	.st528{fill:url(#SVGID_350_);}
	.st529{fill:url(#SVGID_351_);}
	.st530{fill:url(#SVGID_352_);}
	.st531{fill:url(#SVGID_353_);}
	.st532{fill:url(#SVGID_354_);}
	.st533{fill:url(#SVGID_355_);}
	.st534{fill:url(#SVGID_356_);}
	.st535{fill:url(#SVGID_357_);}
	.st536{fill:url(#SVGID_358_);}
	.st537{fill:url(#SVGID_359_);}
	.st538{fill:url(#SVGID_360_);}
	.st539{fill:url(#SVGID_361_);}
	.st540{fill:url(#SVGID_362_);}
	.st541{fill:url(#SVGID_363_);}
	.st542{fill:url(#SVGID_364_);}
	.st543{fill:url(#SVGID_365_);}
	.st544{fill:url(#SVGID_366_);}
	.st545{fill:url(#SVGID_367_);}
	.st546{fill:url(#SVGID_368_);}
	.st547{fill:url(#SVGID_369_);}
	.st548{fill:url(#SVGID_370_);}
	.st549{fill:url(#SVGID_371_);}
	.st550{fill:url(#SVGID_372_);}
	.st551{fill:url(#SVGID_373_);}
	.st552{fill:url(#SVGID_374_);}
	.st553{fill:url(#SVGID_375_);}
	.st554{fill:url(#SVGID_376_);}
	.st555{fill:url(#SVGID_377_);}
	.st556{fill:url(#SVGID_378_);}
	.st557{fill:url(#SVGID_379_);}
	.st558{fill:url(#SVGID_380_);}
	.st559{fill:url(#SVGID_381_);}
	.st560{fill:url(#SVGID_382_);}
	.st561{fill:url(#SVGID_383_);}
	.st562{fill:url(#SVGID_384_);}
	.st563{fill:url(#SVGID_385_);}
	.st564{fill:url(#SVGID_386_);}
	.st565{fill:url(#SVGID_387_);}
	.st566{fill:url(#SVGID_388_);}
	.st567{fill:url(#SVGID_389_);}
	.st568{fill:url(#SVGID_390_);}
	.st569{fill:url(#SVGID_391_);}
	.st570{fill:url(#SVGID_392_);}
	.st571{fill:url(#SVGID_393_);}
	.st572{fill:url(#SVGID_394_);}
	.st573{fill:url(#SVGID_395_);}
	.st574{fill:url(#SVGID_396_);}
	.st575{fill:url(#SVGID_397_);}
	.st576{fill:url(#SVGID_398_);}
	.st577{fill:url(#SVGID_399_);}
	.st578{fill:url(#SVGID_400_);}
	.st579{fill:url(#SVGID_401_);}
	.st580{fill:url(#SVGID_402_);}
	.st581{fill:url(#SVGID_403_);}
	.st582{fill:url(#SVGID_404_);}
	.st583{fill:url(#SVGID_405_);}
	.st584{fill:url(#SVGID_406_);}
	.st585{fill:url(#SVGID_407_);}
	.st586{fill:url(#SVGID_408_);}
	.st587{fill:url(#SVGID_409_);}
	.st588{fill:url(#SVGID_410_);}
	.st589{fill:url(#SVGID_411_);}
	.st590{fill:url(#SVGID_412_);}
	.st591{fill:url(#SVGID_413_);}
	.st592{fill:url(#SVGID_414_);}
	.st593{fill:url(#SVGID_415_);}
	.st594{fill:url(#SVGID_416_);}
	.st595{fill:url(#SVGID_417_);}
	.st596{fill:url(#SVGID_418_);}
	.st597{fill:url(#SVGID_419_);}
	.st598{fill:url(#SVGID_420_);}
	.st599{fill:url(#SVGID_421_);}
	.st600{fill:url(#SVGID_422_);}
	.st601{fill:url(#SVGID_423_);}
	.st602{fill:url(#SVGID_424_);}
	.st603{fill:url(#SVGID_425_);}
	.st604{fill-rule:evenodd;clip-rule:evenodd;fill:url(#SVGID_426_);}
	.st605{fill:url(#SVGID_427_);}
	.st606{fill:url(#SVGID_428_);}
	.st607{fill:url(#SVGID_429_);}
	.st608{fill:url(#SVGID_430_);}
	.st609{fill:url(#SVGID_431_);}
	.st610{fill:url(#SVGID_432_);}
	.st611{fill-rule:evenodd;clip-rule:evenodd;fill:url(#SVGID_433_);}
	.st612{fill:url(#SVGID_434_);}
	.st613{fill:url(#SVGID_435_);}
	.st614{fill:url(#SVGID_436_);}
	.st615{fill:url(#SVGID_437_);}
	.st616{fill:url(#SVGID_438_);}
	.st617{fill:url(#SVGID_439_);}
	.st618{fill:url(#SVGID_440_);}
	.st619{fill-rule:evenodd;clip-rule:evenodd;fill:url(#SVGID_441_);}
	.st620{fill:url(#SVGID_442_);}
	.st621{fill:url(#SVGID_443_);}
	.st622{fill:url(#SVGID_444_);}
	.st623{fill:url(#SVGID_445_);}
	.st624{fill-rule:evenodd;clip-rule:evenodd;fill:url(#SVGID_446_);}
	.st625{fill:url(#SVGID_447_);}
	.st626{fill:url(#SVGID_448_);}
	.st627{fill:url(#SVGID_449_);}
	.st628{fill:url(#SVGID_450_);}
	.st629{fill:url(#SVGID_451_);}
	.st630{fill:url(#SVGID_452_);}
	.st631{fill:url(#SVGID_453_);}
	.st632{fill:url(#SVGID_454_);}
	.st633{fill:url(#SVGID_455_);}
	.st634{fill:url(#SVGID_456_);}
	.st635{fill:url(#SVGID_457_);}
	.st636{fill:url(#SVGID_458_);}
	.st637{fill:url(#SVGID_459_);}
	.st638{fill:url(#SVGID_460_);}
	.st639{fill:url(#SVGID_461_);}
	.st640{fill:url(#SVGID_462_);}
	.st641{fill:url(#SVGID_463_);}
	.st642{fill:url(#SVGID_464_);}
	.st643{fill:url(#SVGID_465_);}
	.st644{fill:url(#SVGID_466_);}
	.st645{fill:url(#SVGID_467_);}
	.st646{fill:url(#SVGID_468_);}
	.st647{fill:url(#SVGID_469_);}
	.st648{fill:url(#SVGID_470_);}
	.st649{fill:url(#SVGID_471_);}
	.st650{fill:url(#SVGID_472_);}
	.st651{fill:url(#SVGID_473_);}
	.st652{fill:url(#SVGID_474_);}
	.st653{fill:url(#SVGID_475_);}
	.st654{fill:url(#SVGID_476_);}
	.st655{fill:url(#SVGID_477_);}
	.st656{fill:url(#SVGID_478_);}
	.st657{fill:url(#SVGID_479_);}
	.st658{fill:url(#SVGID_480_);}
	.st659{fill:url(#SVGID_481_);}
	.st660{fill:url(#SVGID_482_);}
	.st661{fill:url(#SVGID_483_);}
	.st662{fill:url(#SVGID_484_);}
	.st663{fill:url(#SVGID_485_);}
	.st664{fill:url(#SVGID_486_);}
	.st665{fill:url(#SVGID_487_);}
	.st666{fill:url(#SVGID_488_);}
	.st667{fill:url(#SVGID_489_);}
	.st668{fill:url(#SVGID_490_);}
	.st669{fill:url(#SVGID_491_);}
	.st670{fill:url(#SVGID_492_);}
	.st671{fill:url(#SVGID_493_);}
	.st672{fill:url(#SVGID_494_);}
	.st673{fill:url(#SVGID_495_);}
	.st674{fill:url(#SVGID_496_);}
	.st675{fill:url(#SVGID_497_);}
	.st676{fill:url(#SVGID_498_);}
	.st677{fill:url(#SVGID_499_);}
	.st678{fill:url(#SVGID_500_);}
	.st679{fill:url(#SVGID_501_);}
	.st680{fill:url(#SVGID_502_);}
	.st681{fill:url(#SVGID_503_);}
	.st682{fill:url(#SVGID_504_);}
	.st683{fill:url(#SVGID_505_);}
	.st684{fill:url(#SVGID_506_);}
	.st685{fill:url(#SVGID_507_);}
	.st686{fill:url(#SVGID_508_);}
	.st687{fill:url(#SVGID_509_);}
	.st688{fill:url(#SVGID_510_);}
	.st689{fill:url(#SVGID_511_);}
	.st690{fill:url(#SVGID_512_);}
	.st691{fill:url(#SVGID_513_);}
	.st692{fill:url(#SVGID_514_);}
	.st693{fill:url(#SVGID_515_);}
	.st694{fill:url(#SVGID_516_);}
	.st695{fill:url(#SVGID_517_);}
	.st696{fill:url(#SVGID_518_);}
	.st697{fill:url(#SVGID_519_);}
	.st698{fill:url(#SVGID_520_);}
	.st699{fill:url(#SVGID_521_);}
	.st700{fill:url(#SVGID_522_);}
	.st701{fill:url(#SVGID_523_);}
	.st702{fill:url(#SVGID_524_);}
	.st703{fill:url(#SVGID_525_);}
	.st704{fill:url(#SVGID_526_);}
	.st705{fill:url(#SVGID_527_);}
	.st706{fill:url(#SVGID_528_);}
	.st707{fill:url(#SVGID_529_);}
	.st708{fill:url(#SVGID_530_);}
	.st709{fill:url(#SVGID_531_);}
	.st710{fill:url(#SVGID_532_);}
	.st711{fill:url(#SVGID_533_);}
	.st712{fill:url(#SVGID_534_);}
	.st713{fill:url(#SVGID_535_);}
	.st714{fill:url(#SVGID_536_);}
	.st715{fill:url(#SVGID_537_);}
	.st716{fill:url(#SVGID_538_);}
	.st717{fill:url(#SVGID_539_);}
	.st718{fill:url(#SVGID_540_);}
	.st719{fill:url(#SVGID_541_);}
	.st720{fill:url(#SVGID_542_);}
	.st721{fill:url(#SVGID_543_);}
	.st722{fill:url(#SVGID_544_);}
	.st723{fill:url(#SVGID_545_);}
	.st724{fill:url(#SVGID_546_);}
	.st725{fill-rule:evenodd;clip-rule:evenodd;fill:url(#SVGID_547_);}
	.st726{fill:url(#SVGID_548_);}
	.st727{fill:url(#SVGID_549_);}
	.st728{fill:url(#SVGID_550_);}
	.st729{fill:url(#SVGID_551_);}
	.st730{fill:url(#SVGID_552_);}
	.st731{fill:url(#SVGID_553_);}
	.st732{fill:url(#SVGID_554_);}
	.st733{fill:url(#SVGID_555_);}
	.st734{fill:url(#SVGID_556_);}
	.st735{fill:url(#SVGID_557_);}
	.st736{fill:url(#SVGID_558_);}
	.st737{fill:url(#SVGID_559_);}
	.st738{fill:url(#SVGID_560_);}
	.st739{fill:url(#SVGID_561_);}
	.st740{fill:url(#SVGID_562_);}
	.st741{fill:url(#SVGID_563_);}
	.st742{fill:url(#SVGID_564_);}
	.st743{fill:url(#SVGID_565_);}
	.st744{fill:url(#SVGID_566_);}
	.st745{fill-rule:evenodd;clip-rule:evenodd;fill:url(#SVGID_567_);}
	.st746{fill:url(#SVGID_568_);}
	.st747{fill:url(#SVGID_569_);}
	.st748{fill:url(#SVGID_570_);}
	.st749{fill:url(#SVGID_571_);}
	.st750{fill:url(#SVGID_572_);}
	.st751{fill:url(#SVGID_573_);}
	.st752{fill:url(#SVGID_574_);}
	.st753{fill:url(#SVGID_575_);}
	.st754{fill:url(#SVGID_576_);}
	.st755{fill:url(#SVGID_577_);}
	.st756{fill:url(#SVGID_578_);}
	.st757{fill:url(#SVGID_579_);}
	.st758{fill:url(#SVGID_580_);}
	.st759{fill:url(#SVGID_581_);}
	.st760{fill:url(#SVGID_582_);}
	.st761{fill:url(#SVGID_583_);}
	.st762{fill:url(#SVGID_584_);}
	.st763{fill:url(#SVGID_585_);}
	.st764{fill:url(#SVGID_586_);}
	.st765{fill:url(#SVGID_587_);}
	.st766{fill:url(#SVGID_588_);}
	.st767{fill:url(#SVGID_589_);}
	.st768{fill:url(#SVGID_590_);}
	.st769{opacity:0.25;fill:url(#SVGID_591_);enable-background:new    ;}
	.st770{opacity:0.25;fill:url(#SVGID_592_);enable-background:new    ;}
	.st771{opacity:0.25;fill:url(#SVGID_593_);enable-background:new    ;}
	.st772{opacity:0.25;fill:url(#SVGID_594_);enable-background:new    ;}
	.st773{opacity:0.25;fill:url(#SVGID_595_);enable-background:new    ;}
	.st774{opacity:0.25;fill:url(#SVGID_596_);enable-background:new    ;}
	.st775{fill:url(#SVGID_597_);}
	.st776{fill:url(#SVGID_598_);}
	.st777{fill:url(#SVGID_599_);}
	.st778{fill:url(#SVGID_600_);}
	.st779{stroke:#06395B;}
</style>
<g id="Lager_1">
	<rect y="1830" class="st1" width="1080" height="90"/>
	<g>
		<g>
			<rect y="0" class="st1" width="540" height="915"/>
			<rect x="81" y="121.9" class="st486" width="378.1" height="167.4"/>
			<text transform="matrix(1 0 0 1 218.3972 149.4849)"><tspan x="0" y="0" class="st8 st487 st488">Antal </tspan><tspan x="-78.9" y="45.2" class="st8 st487 st488">miljöklassade </tspan><tspan x="-15.5" y="90.4" class="st8 st487 st488">fordon</tspan></text>
			<g>
				<path class="st2" d="M328.7,708.2c-2.1,0.8-4.3,1.2-6.5,1c-9.3-1.2-1.6-17.9,0-22.9c1.6-5.1,2.2-9.5,3.4-14
					c1.2-4.5,4.5-12.6,6.3-19.1c0.1-0.2,0.2-0.4,0.2-0.6c0-0.2-0.1-0.4-0.2-0.6c-1.2,2-1.8,4.5-3,6.7c-1.2,2.2-2.6,5.5-3.9,8.3
					c-2.2,6.1-4.3,12.4-6.3,18.7c-5.8,16.4-13.8,32-23.7,46.3c-2.2,3.7-4.5,7.3-6.5,11.2c-4.1,6.2-7.2,13.1-8.9,20.3
					c-0.3,4.8-0.3,9.6,0,14.4c-0.2,3.6-0.6,7.2-1.4,10.8c-0.8,9.5-2.2,19-4.1,28.4l3.7-16.4c2.6-11.1,5.9-22,9.7-32.7
					c3.1-10.3,7.9-20,14.2-28.6c3.6-5.2,7.7-10,12.4-14.2c6.4-4.2,13.2-7.8,20.3-10.8c6.7-4.3,12.6-9.7,17.5-16
					c9.9-12.4,18.1-26,24.4-40.6c3.5-6.1,4.9-13.3,3.9-20.3c-5.9,9.5-10.9,19.5-15,29.8c-4,10.4-9.6,20.1-16.6,28.8
					C342.8,701.5,336.1,705.7,328.7,708.2z"/>
				<path class="st3" d="M277.4,797.1c0.1-0.5,0.1-1.1,0-1.6c0.8-3.6,1.2-7.3,1.4-11c-0.4-4.8-0.4-9.6,0-14.4
					c1.8-6.9,4.8-13.4,8.9-19.3c2-3.9,4.1-7.5,6.3-11c10-14.4,18-30,23.9-46.5c1.8-6.3,3.9-12.6,6.3-18.7c0.6-2,1.5-3.9,2.4-5.7
					c1.6-5.3,3.9-10.4,5.3-15.8c0.1-0.2,0.2-0.4,0.2-0.6c0-0.2-0.1-0.4-0.2-0.6l0,0c-1.2,2-1.8,4.5-3,6.7c-1.2,2.2-2.6,5.5-3.9,8.3
					c-2.2,6.1-4.3,12.4-6.3,18.7c-5.8,16.4-13.8,32-23.7,46.3c-2.2,3.7-4.5,7.3-6.5,11.2c-4.1,6.2-7.2,13.1-8.9,20.3
					c-0.3,4.8-0.3,9.6,0,14.4c-0.2,3.6-0.6,7.2-1.4,10.8c-0.8,9.5-2.2,19-4.1,28.4l3.7-16.4L277.4,797.1z"/>
				<path class="st2" d="M216.5,691.3c1.3,1.1,2.9,1.7,4.6,1.7c1.7,0,3.3-0.6,4.6-1.7c1.1-1.2,1.8-2.6,2.2-4.2
					c0.4-1.6,0.4-3.2,0.1-4.7c0-2.4-1-4.9-1.4-7.3c-2-10.4-4.3-20.3-6.5-31.1c-3.2-13.9-4.7-28.1-4.7-42.4c0,0,0,0,1,0
					c2.8,11.2,5.3,22.4,7.3,33.5c1.1,6.9,2.6,13.6,4.5,20.3c0.8,3.2,1.7,6.3,2.8,9.3c0,2.6,1.4,5.3,2.2,7.9
					c1.7,5.5,3.8,10.9,6.1,16.2c2.4,5.5,5.1,10.8,7.5,16.2c3.3,7,6.9,13.7,11,20.3c4.1,6.2,7.1,13.1,8.9,20.3
					c0.4,4.7,0.4,9.5,0,14.2c0.3,3.7,0.9,7.3,1.6,11c0.7,9.6,2,19.1,4.1,28.4c-1.4-5.5-2.6-11-3.9-16.4c-2.6-11.1-5.7-22.1-9.5-32.9
					c-3.2-10.3-8.1-19.9-14.4-28.6c-3.6-5-7.7-9.7-12.2-14c-4.8-3.1-9.7-6-14.8-8.5c-4.6-3.2-8.7-7.1-12-11.6
					c-10.7-10.2-17.8-23.6-20.3-38.2c1.3,3.8,3.3,7.3,5.9,10.4l9.5,14C205,680.2,210.3,686.3,216.5,691.3z"/>
				<path class="st3" d="M221.2,641.4c1.1,6.8,2.6,13.6,4.5,20.3c1,3,1.6,6.3,2.8,9.3c1.2,3,1.4,5.3,2.2,7.9
					c0.8,2.6,3.9,11,6.1,16.2c2.2,5.3,5.3,10.8,7.5,16.2c3.3,7,6.9,13.7,11,20.3c4.2,6.1,7.3,13,8.9,20.3c0.3,4.8,0.3,9.6,0,14.4
					c-0.2,1.1-0.2,2.3,0,3.5c1.2,4.7,2.6,9.5,3.7,14.4c1,4.9,2.4,11,3.9,16.4c-2.1-9.4-3.4-18.9-4.1-28.4c-0.8-3.6-1.3-7.3-1.6-11
					c0.4-4.7,0.4-9.5,0-14.2c-1.8-7.2-4.8-14.1-8.9-20.3c-4-6.6-7.7-13.3-11-20.3c-2.4-5.5-5.1-10.8-7.5-16.2
					c-2.3-5.3-4.4-10.7-6.1-16.2c0-2.6-1.4-5.3-2.2-7.9c-1.1-3.1-2.1-6.2-2.8-9.3c-1.9-6.7-3.4-13.4-4.5-20.3
					c-2-11.1-4.5-22.3-7.3-33.5c0,0,0,0-1,0c-0.2,3.8-0.2,7.6,0,11.4C217.5,622.5,219.5,631.9,221.2,641.4z"/>
				<path class="st2" d="M283.3,906.9v1.2c0.1,0.5,0.1,1,0,1.4c-2.1,2.1-4.6,3.6-7.4,4.6c-2.8,0.9-5.7,1.2-8.6,0.7
					c-7.3,0-13.2-3.5-14.4-7.3c0,0,0-1,0-1.6c0.5-1.1,1-2.1,1.6-3c0.6-0.7,1.1-1.4,1.4-2.2l1-1.8c2.2-5.6,3.6-11.5,4.1-17.5
					c1-6.3,1.4-12.6,1.8-18.9c0-14,0-28,0-42c-1.2-35.1,0-70.2,1.4-105.3c0-2.6,0-5.3,0-8.1c0-7.5,0-15.2,1-22.7
					c1-7.5,0-16.4,1.4-24.6c0-1.4,0-2.6,0-4.1s0-4.7,0-6.9v-5.5c0.1-1.8,0.1-3.7,0-5.5c0-1.8,0-3.7,1-5.5c0.2-1.8,0.6-3.7,1-5.5
					c0.6-3.5,1.4-6.9,2.4-10.4c0,0,0-2.4,2-2.6c0.6,0.3,1.1,0.8,1.4,1.4c0,0,0,1.4,0,2.2c0,28.4,1.6,56.8,2.2,85
					c0,18.1,0,36.1-1,54.4c0,10.6,0,21.1,0,31.7c0,14.4,1.4,28.8,1.8,43.2c0.2,11.4-0.2,22.8-1.4,34.1c0,7.1-1.6,14.2-2.2,21.5v1.4
					c0.1,0.5,0.1,1,0,1.4c-0.1,0.9-0.1,1.9,0,2.8c-0.1,0.7-0.1,1.5,0,2.2c0.2,1.8,0.8,3.5,1.8,5.1l1.4,1.6L283.3,906.9z"/>
				<path class="st4" d="M277.4,616.7c-2.6,9.5-4.4,19.2-5.5,29c-3,22.9-3.2,46.9-4.5,69.6c-1.8,35.1-2.6,70.2-1.4,105.3
					c0,14,0,28,0,42c-0.2,6.3-0.8,12.6-1.8,18.9c-0.5,6-1.9,11.9-4.1,17.5c-1.5,3.7-4.1,6.7-7.5,8.7c0,0,0-1,0-1.6
					c0.5-1.1,1-2.1,1.6-3c0.6-0.7,1.1-1.4,1.4-2.2l1-1.8c2.2-5.6,3.6-11.5,4.1-17.5c1-6.3,1.4-12.6,1.8-18.9c0-14,0-28,0-42
					c-1.2-35.1,0-70.2,1.4-105.3c0-2.6,0-5.3,0-8.1c0-7.5,0-15.2,1-22.7c1-7.5,0-16.4,1.4-24.6c0-1.4,0-2.6,0-4.1s0-4.7,0-6.9v-5.5
					c0.1-1.8,0.1-3.7,0-5.5c0-1.8,0-3.7,1-5.5c0.2-1.8,0.6-3.7,1-5.5c0.6-3.5,1.4-6.9,2.4-10.4c0,0,0-2.4,2-2.6h4.5V616.7z"/>
				<path class="st3" d="M283.3,906.9v1.2c0.1,0.5,0.1,1,0,1.4H281l-2-1.2c-1.4-0.6-2.7-1.5-3.9-2.6c-1.9-2.1-3.3-4.6-4-7.3
					c-0.7-2.7-0.7-5.6,0-8.3c0-7.3,1.2-14.4,2-21.5c1.2-11.3,1.7-22.7,1.6-34.1c0-14.4-1.4-28.8-1.8-43.2c0-10.6,0-20.3,0-31.7
					c0-18.1,1.2-36.3,0-54.4c-1.2-18.1,0-39.4-1.4-59.1v-18.7c0.6-3.5,1.4-6.9,2.4-10.4c0,0,0-2.4,2-2.6c0.6,0.3,1.1,0.8,1.4,1.4
					c0,0,0,1.4,0,2.2c0,28.4,1.6,56.8,2.2,85c0,18.1,0,36.1-1,54.4c0,10.6,0,21.1,0,31.7c0,14.4,1.4,28.8,1.8,43.2
					c0.2,11.4-0.2,22.8-1.4,34.1c0,7.1-1.6,14.2-2.2,21.5v1.4c0.1,0.5,0.1,1,0,1.4c-0.1,0.9-0.1,1.9,0,2.8c-0.1,0.7-0.1,1.5,0,2.2
					c0.2,1.8,0.8,3.5,1.8,5.1l1.4,1.6L283.3,906.9z"/>
				<path class="st5" d="M169,549.5c-9.7-3.7-18.9-27.6-18.9-27.6c7.1-3.4,14.6-6,22.3-7.7v-3.5c-5.9,0.4-11.9,0.4-17.9,0
					c0,0,2.2-26.6,10.2-33.3l2-1.2c-8.9-6.3-16.5-14.2-22.3-23.3c8.5-5.8,17.9-10.1,27.8-12.8c-4.1-0.9-7.9-2.9-11-5.7
					c-7.1-7.7-4.5-33.3-4.5-33.3c5.2,0.1,10.5,0.5,15.6,1.4v-2.8l8.3,4.9c1.5,0.4,2.9,0.9,4.3,1.6c10-3.6,20.6-5.3,31.3-5.1
					c0,0,0,5.5,0,12.4h0.2c6.1,1.2,13,9.3,17.9,15.8c5.5-3.2,11.1-5.9,17-8.1c1.9,5.1,3.5,10.3,4.7,15.6c0,1,6.5,0,7.3,0
					c2.5-1.2,4.8-2.6,7.1-4.1c1.3-1,2.8-1.7,4.3-2.1c1.6-0.4,3.2-0.4,4.8-0.2c0.2-0.1,0.3-0.1,0.5-0.1c0.2,0,0.4,0,0.5,0.1
					c0.1,0.4,0.1,0.8,0,1.2c1,4.3,0,9.3,2,13.6c2,4.3,0,2.4,3.3,1.6h2.6c0,0,9.5,25,5.3,34.5c-0.9,1.7-2.1,3.2-3.5,4.5
					c0.1,7.2-1.9,14.2-5.7,20.3c5,2.8,9.7,6,14.2,9.5c-5,6.3-10.6,12.1-16.8,17.3c4.8,9.2,7,19.6,6.3,30c-0.5,1.3-1.3,2.6-2.2,3.7
					c7.4,8.1,12.8,17.8,15.8,28.4c-3.4,1.3-6.8,2.5-10.3,3.5c-0.3,1.5-0.3,3.1,0,4.7c0,3.2,4.3,4.1,7.3,5.7c3,1.6,0,0,0,0
					c-2.2,3.8-5,7.3-8.3,10.1c-2.2,1.8-5.5,2.8-6.7,5.5c-3.4,6.7,7.1,5.9,11.6,6.9c0,0-3.9,24.4-12.2,30.6v15.4
					c1.1,4,1.1,8.3,0,12.4v13.2l-3.3-1.8c-1.8,5.1-3.6,8.9-3.6,8.9s-24.2-8.7-28-18.5c-0.6-1.3-0.9-2.7-1-4.1
					c-5.3,4.6-11,8.8-17,12.4c-4.4-6.7-8.1-13.8-11-21.3c-0.8,0.9-1.7,1.7-2.6,2.4c-9.1,5.1-33.7-2.4-33.7-2.4
					c1.4-5.8,3.2-11.5,5.5-17c-7.8,2-15.7,3-23.7,3c0,0-2-25.8,5.1-33.3c1.3-1.4,2.9-2.6,4.7-3.2c-7.7-7-14.2-15.2-19.1-24.4
					c0,0,6.9-3.5,7.3-3.7c2-0.9,4.1-1.6,6.3-2.2c0.9-0.3,1.7-1,2.3-1.8c0.5-0.9,0.7-1.9,0.6-2.8c-0.5-1.4-1.3-2.7-2.4-3.7l-3.2-3.5
					c-0.1-0.5-0.1-1,0-1.4c-4.8-5.6-9.1-11.6-12.8-18.1c6.4-4,13.2-7.3,20.3-9.9v-5.3L169,549.5z"/>
				<path class="st6" d="M384.7,549.5c9.7-3.7,18.9-27.6,18.9-27.6c-7.1-3.4-14.6-6-22.3-7.7v-3.5c5.9,0.4,11.9,0.4,17.9,0
					c0,0-2.2-26.6-10.1-33.3l-2-1.2c8.9-6.3,16.5-14.2,22.3-23.3c-8.5-5.8-17.9-10.1-27.8-12.8c4.1-1,8-2.9,11.2-5.7
					c6.9-7.7,4.3-33.3,4.3-33.3c-5.2,0.1-10.5,0.5-15.6,1.4v-2.8l-8.3,4.9c-1.5,0.4-2.9,1-4.3,1.6c-10-3.6-20.6-5.3-31.2-5.1
					c-0.2,4.1-0.2,8.3,0,12.4H336c-5.9,1.2-13,9.3-17.9,15.8c-5.4-3.2-11.1-5.9-17-8.1c-1.9,5.1-3.5,10.3-4.7,15.6c0,1-6.3,0-7.1,0
					c-2.5-1.2-5-2.5-7.3-4.1c-1.3-1-2.8-1.7-4.3-2.1c-1.6-0.4-3.2-0.4-4.8-0.2c-0.2-0.1-0.3-0.1-0.5-0.1c-0.2,0-0.4,0-0.5,0.1
					c-0.1,0.4-0.1,0.8,0,1.2c-1,4.3,0,9.3-2,13.6c-2,4.3,0,2.4-3,1.6H264c0,0-9.5,25-5.3,34.5c0.9,1.7,2.1,3.2,3.7,4.5
					c-0.3,7.2,1.7,14.2,5.5,20.3c-5,2.8-9.7,6-14.2,9.5c5,6.3,10.6,12.1,16.8,17.3c-4.8,9.2-7,19.6-6.3,30c0.5,1.3,1.3,2.6,2.2,3.7
					c-7.4,8.1-12.8,17.8-15.8,28.4c3.4,1.3,6.8,2.5,10.4,3.5c0.3,1.5,0.3,3.1,0,4.7c0,3.2-4.3,4.1-7.3,5.7c-3.1,1.6,0,0,0,0
					c2.1,3.8,5,7.3,8.3,10.1c2.2,1.8,5.5,2.8,6.9,5.5c3.2,6.7-7.3,5.9-11.8,6.9c0,0,3.9,24.4,12.2,30.6v15.4c-1.1,4-1.1,8.3,0,12.4
					v13.2l3.3-1.8c1.8,5.1,3.6,8.9,3.6,8.9s24.2-8.7,28.2-18.5c0.1-1.4,0.1-2.7,0-4.1c5.3,4.6,11,8.8,17,12.4
					c4.5-6.6,8.2-13.8,11-21.3c0.8,0.9,1.7,1.7,2.6,2.4c9.1,5.1,33.7-2.4,33.7-2.4c-1.4-5.8-3.2-11.5-5.5-17c7.8,2,15.7,3,23.7,3
					c0,0,2-25.8-5.1-33.3c-1.3-1.4-2.9-2.6-4.7-3.2c7.7-7,14.2-15.2,19.1-24.4c0,0-6.9-3.5-7.3-3.7c-2-0.9-4.1-1.7-6.3-2.2
					c-0.9-0.3-1.7-1-2.2-1.8c-0.5-0.9-0.6-1.9-0.4-2.8c0.3-1.4,1.1-2.7,2.2-3.7l3.2-3.5c0.1-0.5,0.1-1,0-1.4
					c4.8-5.6,9.1-11.6,12.8-18.1c-6.4-4-13.2-7.3-20.3-9.9v-5.3L384.7,549.5z"/>
				<path class="st7" d="M366.7,378.8h-3.2l-6.9-4.1c0.1-0.5,0.1-1,0-1.4c-1.6-11.2-25.4-28.2-25.4-28.2s-2,2.8-4.7,7.1
					c-2.6-11.2-27.6-26.4-27.6-26.4s-2,3.5-4.5,8.3c-6.9-7.3-14.8-13.8-23.3-19.1c-4.4,7.2-8.1,14.8-11,22.7c-1.6-4.3-3-7.1-3-7.1
					s-26.2,10.1-30.4,20.3c-0.5,2.7-0.5,5.4,0,8.1h-1c-9.7-0.6-19.5,0.2-29,2.4c0.7,4.4,1.5,8.7,2.6,13l-6.7,3.9
					c-2.5-1.2-5.2-1.7-7.9-1.6c-11.4,0-30,23.1-30,23.1s22.1,18.9,33.5,17.9c1.8-0.1,3.5-0.6,5.1-1.4h1c-0.1,0.6-0.1,1.2,0,1.8
					c1.4,11.4,24.6,27.4,24.6,27.4s3.7-4.5,7.7-10.6l4.3,2.4c4.6,9.5,10.5,18.2,17.7,26c3.5-3.1,6.8-6.5,9.9-9.9l3.4,1.8
					c0.5,1.1,1.2,2.1,2,3c3.7,3,8.1,4.9,12.8,5.7h1.8c7.2,1.4,14.6,2.2,21.9,2.2c0,0,0-6.5,0-14.4c3.9,4.1,8.1,7.9,12.6,11.4
					c6.7-8.3,12-17.6,15.8-27.6l3.3-2c4.6,4.8,9.5,9.2,14.6,13.4c7.3-9.1,12.9-19.5,16.4-30.6c2.6,1.1,5.3,1.7,8.1,1.6
					c11.4-1.2,29.6-23.9,29.6-23.9S378.8,377.8,366.7,378.8z"/>
			</g>
			<text transform="matrix(1 0 0 1 175.9997 571.2274)" class="st0 st487 st489">38%</text>
		</g>
		<g>
			<rect y="915" class="st8" width="540" height="915"/>
			<path class="st1" d="M136.8,1381.8c0,0,21.7-117.3,139.6-62.1c0,0,57.8-43.4,115.9,10.9c0,0,38.7,27.5,20.1,96.8
				c0,0,42.2,38.7,5.1,99.1c0,0-24.4,44.7-89.2,32c0,0-21.6,58.1-106.5,40.2c0,0-55.9-19.8-58.1-75.1c0,0-56.6-2.4-68.5-62.7
				S136.8,1381.8,136.8,1381.8z"/>
			<text transform="matrix(1 0 0 1 152.3918 1210.5903)" class="st0 st487 st490">påverkan</text>
			<text transform="matrix(1 0 0 1 123.0237 1721.433)" class="st1 st491 st492">per månad</text>
			<g>
				<text transform="matrix(1 0 0 1 169.6311 1473.2471)" class="st0 st493 st494">Xx kg</text>
			</g>
			<text transform="matrix(1 0 0 1 139.5188 1150.896)" class="st0 st487 st495">CO2 </text>
		</g>
		<g>
			<rect x="540" y="0" class="st8" width="540" height="915"/>
			<g>
				<text transform="matrix(1 0 0 1 744.2317 789.5126)" class="st0 st487 st496">Xx kg</text>
				<text transform="matrix(1 0 0 1 739.1042 825.4827)" class="st0 st491 st497">22 aug 2021</text>
			</g>
			<g>
				<path class="st9" d="M882.6,562.7c-1-1.7-1.5-3.6-1.4-5.6c0.2-2,0.9-3.8,2.2-5.3c3.8-5.5,6.7-3.7,6.7-3.7
					c1.2,0.9,2.1,2.3,2.3,3.8c0.3,1.5,0,3.1-0.9,4.4c-1.7,3.3-3.5,7.8-4.7,7.8s-1.8,4.1-1.8,4.1l-3.6-3.7L882.6,562.7z"/>
				<path class="st10" d="M828.3,652.6l24.3-13.5l-29.3-12.3L828.3,652.6z"/>
				<path class="st10" d="M700,579l24.3-13.5L695,553.2L700,579z"/>
				
					<linearGradient id="SVGID_1_" gradientUnits="userSpaceOnUse" x1="-1751.6542" y1="3206.4768" x2="-1634.2188" y2="3206.4768" gradientTransform="matrix(1 0 0 -1 0 3862)">
					<stop  offset="0.16" style="stop-color:#3C4851"/>
					<stop  offset="0.56" style="stop-color:#556773"/>
					<stop  offset="0.87" style="stop-color:#51626E"/>
				</linearGradient>
				<path class="st11" d="M834,641.6l4.4,7l10.4,17l5.1,8.4l6.9-4c1.6-1.1,2.8-2.7,3.2-4.6c0,0,0-0.5,0-0.7v-0.5c0-0.3,0-0.6,0-0.9
					v-1.7c-0.3-4.6-1.8-9.1-4.1-13.1c-2.4-4-5.7-7.4-9.6-9.8l-1.3-0.7c-1.3-0.6-2.7-0.9-4.2-0.9c-1.4,0-2.9,0.3-4.2,0.9L834,641.6z"
					/>
				<path class="st9" d="M830.7,650.5c0.3,4.7,1.8,9.2,4.2,13.2c2.4,4,5.7,7.4,9.7,9.9c7.6,4.2,13.6,0.7,13.5-7.7
					c-0.3-4.7-1.8-9.2-4.2-13.2c-2.4-4-5.7-7.4-9.7-9.9C836.3,638.6,830.7,642,830.7,650.5z"/>
				<path class="st12" d="M834.4,652.7c-0.1,0.8-0.1,1.7,0,2.5c0.6,2.6,1.6,5.1,3,7.4c0.9,1.4,2,2.7,3.2,3.9c1,1,2.1,1.9,3.3,2.5
					c0.8,0.5,1.8,0.9,2.7,1.1c1.3,0.5,2.7,0.5,4,0c0.7-0.4,1.3-1,1.7-1.7v-0.5c0,0,0-0.7,0-1.1c0,0,0-0.8,0-1.2c0-0.4,0-0.9,0-1.4
					c0-0.5,0,0,0-0.5c0-0.5,0-1.1,0-1.6c0-0.5,0-1,0-1.5c-0.5-1.8-1.2-3.6-2.1-5.2l-0.5-0.8c-0.8-1.2-1.6-2.3-2.5-3.3v-0.6
					c-0.8-0.8-1.6-1.4-2.5-2l-1-0.6l-1-0.5h-1.1h-0.8h-0.5c-0.5,0-1,0-1.5,0c-0.5,0.1-1,0.3-1.4,0.6c-0.7,0.4-1.3,0.9-1.8,1.6
					c-0.5,0.7-0.8,1.4-0.9,2.3C834.7,652.2,834.6,652.5,834.4,652.7z"/>
				<path class="st10" d="M841.6,649.2c-0.1,0.8-0.1,1.6,0,2.4c0.5,2.6,1.6,5.1,3,7.4c0.9,1.4,2,2.8,3.2,4c1,1,2.1,1.8,3.3,2.5
					l2,0.9v-0.9c0,0,0,0,0-0.6c0-0.6,0-0.9,0-1.4s0-1.5,0-2.1c0-0.5,0-1,0-1.5c-0.4-1.8-1.2-3.6-2.1-5.2l-0.5-0.8
					c-0.8-1.2-1.7-2.3-2.6-3.4v-0.6c-1.1-1-2.2-1.9-3.5-2.6l-1-0.5h-1.1c0,0,0,0,0,0.6C842,648,841.8,648.6,841.6,649.2z"/>
				
					<linearGradient id="SVGID_2_" gradientUnits="userSpaceOnUse" x1="-484.7159" y1="1552.774" x2="-447.0387" y2="1599.5914" gradientTransform="matrix(1 0 0 -1 0 3862)">
					<stop  offset="0.16" style="stop-color:#E3E3E3"/>
					<stop  offset="0.56" style="stop-color:#CCCCCC"/>
					<stop  offset="0.87" style="stop-color:#B7B7B7"/>
				</linearGradient>
				<path class="st13" d="M837.9,646.3c-0.7,0.7-1.3,1.6-1.6,2.5c-0.4,1-0.5,2-0.4,3c0.2,3.3,1.2,6.5,2.9,9.3c1.7,2.8,4,5.3,6.8,7
					c0.9,0.6,1.9,1,2.9,1.1c1.1,0.2,2.1,0.1,3.2-0.2c-1.1,0.8-2.4,1.2-3.8,1.2c-1.4,0-2.7-0.4-3.8-1.2c-2.8-1.8-5.1-4.1-6.8-7
					c-1.7-2.8-2.7-6-2.9-9.3c-0.2-1.3,0-2.7,0.6-3.9C835.7,647.8,836.7,646.9,837.9,646.3z"/>
				<path class="st12" d="M837,653.5l6,3.5l-2.7,8.9c0,0.5,1.7,0,1.7,0l4.2-4.5l3,7.5c1,0,0,1.7,1.2,1.6c0.7-0.3,1.3-0.7,1.8-1.3
					l-2.1-8.2l3.3,1.8c0-0.5,0-1.1,0-1.6c-0.2-1.1-0.5-2.1-0.9-3.1l-2.8-2.1l1-1.9c-0.8-1.2-1.6-2.3-2.5-3.3l-1.4,1.6l-2.3-4.7
					l-1-0.5h-1.1h-0.8h-1.3l2.4,5.9l-6.4-2.5c0,0-1.6,0.8-1.6,1.6C834.8,653,836.9,652.6,837,653.5z"/>
				<path class="st14" d="M834.5,654.5l6.2,4.1l-2.2,5c0.4,0.9,1.1,1.7,1.9,2.3l3.4-3.3l3.6,7.6c0.5,0.2,1,0.3,1.5,0.3
					c0.5,0,1-0.1,1.5-0.3l-2.3-7.1l5.5,2.8c0.1-0.7,0.1-1.4,0-2.1c0-0.5,0-1.1,0-1.6l-6.1-4l2.7-4.7c-0.6-1-1.3-2-2.2-2.7l-3.6,3.4
					l-3.8-7.8c-0.9-0.3-1.8-0.3-2.7,0l2.3,7.4l-5.7-2.6c-0.1,0.5-0.1,1.1,0,1.6C834.4,653.3,834.4,653.9,834.5,654.5z"/>
				<path class="st15" d="M841.9,657c0.1,0.7,0.3,1.4,0.7,2c0.4,0.6,0.9,1.1,1.5,1.5c1.2,0.6,2.1,0,2.1-1.3c-0.1-0.7-0.3-1.4-0.7-2
					c-0.4-0.6-0.9-1.1-1.5-1.5C842.9,655.1,841.9,655.6,841.9,657z"/>
				
					<linearGradient id="SVGID_3_" gradientUnits="userSpaceOnUse" x1="-1469.1554" y1="3279.9761" x2="-1352.4647" y2="3279.9761" gradientTransform="matrix(1 0 0 -1 0 3862)">
					<stop  offset="0.16" style="stop-color:#3C4851"/>
					<stop  offset="0.56" style="stop-color:#556773"/>
					<stop  offset="0.87" style="stop-color:#51626E"/>
				</linearGradient>
				<path class="st16" d="M705.7,567.9l4.3,7l10.5,17l5.1,8.4l6.8-4c1.6-1.1,2.7-2.8,3.1-4.6c0-0.2,0-0.5,0-0.7v-0.5
					c0,0,0-0.6,0-0.9c0.1-0.4,0.1-0.9,0-1.4c-0.3-4.7-1.7-9.2-4.1-13.2c-2.4-4-5.7-7.3-9.7-9.8l-1.2-0.7c-1.3-0.6-2.7-0.9-4.2-0.9
					c-1.4,0-2.9,0.3-4.2,0.9L705.7,567.9z"/>
				<path class="st9" d="M702.1,576.4c0.3,4.7,1.8,9.2,4.2,13.2c2.4,4,5.7,7.4,9.7,9.9c7.5,4.2,13.5,0.7,13.4-7.7
					c-0.3-4.6-1.7-9.2-4.1-13.2c-2.4-4-5.7-7.4-9.6-9.9C708,564.1,702,568,702.1,576.4z"/>
				<path class="st10" d="M713.3,575.1c-0.1,0.8-0.1,1.6,0,2.4c0.5,2.6,1.5,5.2,3,7.4c0.9,1.5,1.9,2.8,3.2,4c1,1,2.1,1.8,3.3,2.5
					c0.6,0.4,1.3,0.7,2,0.9c0-0.3,0-0.6,0-0.9c0,0,0,0,0-0.6v-1.4c0.1-0.7,0.1-1.4,0-2.1c0-0.5,0-1,0-1.5c-0.5-1.8-1.3-3.6-2.2-5.2
					c0-0.3,0-0.5,0-0.8c-0.8-1.2-1.7-2.3-2.6-3.4l-0.6-0.6c-1-1-2.2-1.9-3.5-2.6l-0.9-0.5h-1.1c0,0,0,0,0,0.6
					C713.7,573.9,713.4,574.5,713.3,575.1z"/>
				
					<linearGradient id="SVGID_4_" gradientUnits="userSpaceOnUse" x1="-431.9308" y1="1850.3669" x2="-394.2672" y2="1897.2191" gradientTransform="matrix(1 0 0 -1 0 3862)">
					<stop  offset="0.16" style="stop-color:#E3E3E3"/>
					<stop  offset="0.56" style="stop-color:#CCCCCC"/>
					<stop  offset="0.87" style="stop-color:#B7B7B7"/>
				</linearGradient>
				<path class="st17" d="M709.5,572.2c-0.7,0.7-1.3,1.6-1.6,2.5c-0.3,1-0.4,2-0.3,3c0.2,3.3,1.2,6.5,2.9,9.3c1.7,2.8,4,5.3,6.8,7
					c0.9,0.6,1.9,1,2.9,1.1c1.1,0.2,2.1,0.1,3.2-0.2c-1.1,0.8-2.4,1.2-3.8,1.2c-1.4,0-2.7-0.4-3.8-1.2c-2.8-1.8-5.1-4.1-6.8-7
					c-1.7-2.8-2.7-6-2.9-9.3c-0.3-1.3-0.1-2.7,0.6-3.9C707.3,573.7,708.3,572.8,709.5,572.2z"/>
				<path class="st12" d="M708.7,579.4l6,3.5l-2.8,8.9l1.8-0.5l4.2-4.5l3,7.5c1,0,0,1.7,1.2,1.5c0.7-0.3,1.3-0.7,1.7-1.3l-1.7-7.5
					l3.3,1.8c0-0.5,0-1.1,0-1.6c-0.1-1.1-0.4-2.1-0.8-3.1l-2.9-2.1l1-1.9c-0.8-1.2-1.6-2.3-2.6-3.3l-1.3,1.6l-2.4-4.7l-0.9-0.5h-1.1
					h-0.8h-1.1l2.4,5.9l-6.5-2.5c0,0-1.5,0.8-1.5,1.6C707,579.2,708.5,578.5,708.7,579.4z"/>
				<path class="st14" d="M706.2,580.5l6.2,4.1l-2.3,5c0.5,0.9,1.1,1.7,1.9,2.3l3.5-3.3l3.6,7.6c0.5,0.2,1,0.3,1.5,0.3
					c0.5,0,1-0.1,1.5-0.3l-2.4-7.1l5.5,2.8c0.1-0.7,0.1-1.4,0-2.1c0-0.6,0-1.2,0-1.7l-6.1-3.9l2.6-4.7c-0.5-1-1.3-1.9-2.1-2.7
					l-3.6,3.4l-3.9-7.8c-0.9-0.3-1.8-0.3-2.7,0l2.3,7.4l-5.6-2.6c-0.1,0.5-0.1,1.1,0,1.6C706,579.2,706.1,579.9,706.2,580.5z"/>
				<path class="st15" d="M713.6,582.9c0.1,0.7,0.3,1.4,0.7,2c0.4,0.6,0.9,1.1,1.5,1.5c1.2,0.6,2.1,0,2.1-1.3
					c-0.1-0.7-0.3-1.4-0.7-2c-0.4-0.6-0.9-1.1-1.5-1.6C714.5,581,713.6,581.5,713.6,582.9z"/>
				<path class="st18" d="M693.7,549.8v7.4l8.1,11.8c0.5-0.6,0.9-1.2,1.4-1.6c0.9-0.9,1.9-1.6,3.1-2c1.1-0.4,2.3-0.6,3.5-0.6
					c2.5,0.1,4.9,0.8,7.1,2c4.5,2.7,8.2,6.5,10.7,11c2.5,4.2,4,9,4.2,13.8c0,1.7-0.2,3.4-0.7,5l97.4,56c0-0.7,0-1.4,0-2.1
					c-0.2-3.3,0.9-6.6,3.1-9.1c0.6-0.7,1.4-1.2,2.2-1.6c1.3-0.7,2.8-1.1,4.4-1.1c2.5,0.1,4.9,0.8,7.1,2.1c4.9,3,8.9,7.2,11.5,12.3
					c2.1,3.9,3.3,8.2,3.5,12.7c0,1.6-0.2,3.1-0.6,4.7l2.7,1.5l9.1-2.1l5.8-8.3l-3.1-1.9l3.8-14.8l-58.1-38.7
					c-5.5-13.5-12.6-26.2-21.3-37.9c-11.2-10.8-55.8-30.7-55.8-30.7l-24.6,9.1l-18.8-8.2l-3.7,4.4L693.7,549.8z"/>
				<path class="st19" d="M695.6,543l180.6,102.4l-56.4-38.8l-101.8-59.7l-18.8-8.2L695.6,543z"/>
				<path class="st18" d="M731.6,591.6c0,1.7-0.2,3.4-0.7,5l97.4,56c0-0.7,0-1.4,0-2.1c-0.2-3.3,0.9-6.6,3.1-9.1
					c0.7-0.7,1.4-1.2,2.2-1.6l-106.5-62C729.7,581.9,731.3,586.7,731.6,591.6z"/>
				<path class="st20" d="M809.8,638.4l0.5-18l2.2-12.4l-0.9-0.2l-2.3,12.4l-0.4,16.7l-41.4-22.6l-1.6-18l2.9-15.8l-0.1-0.1
					l-16.3-28.3l-0.4,0.3l-15.8,9.4v0.2l-3.6,15.8l3.6,19.9l0.9-0.1l-3.5-19.9l3.5-15.4l14.9-8.9l15.7,27.2l-2.8,15.5v0.1l1.7,18.7
					l0.2,0.1L809.8,638.4z"/>
				<path class="st21" d="M828.3,647.1c0,0.7,0,1.4,0,2c0,0.7,0,1.5,0,2.1l-97.4-55.9c0.4-1.3,0.6-2.6,0.7-3.9L828.3,647.1z"/>
				<path class="st22" d="M828.2,646.3c-0.1-2.9,0.7-5.8,2.4-8.2l2.9,1.6c-0.8,0.4-1.6,1-2.2,1.6c-1.8,2-2.8,4.4-3,7.1
					C828.3,647.8,828.2,647,828.2,646.3z"/>
				<path class="st9" d="M828.3,648.4c0,0.7,0,1.4,0,2c0,0.7,0,1.5,0,2.1l-97.4-56c0.4-1.2,0.6-2.5,0.7-3.8L828.3,648.4z"/>
				<path class="st9" d="M690.2,556.1v5.6l1.9,5.8l4.7,4.8l2.1,6l1.1,0.7c-0.1-0.9-0.1-1.7,0-2.6c-0.1-2.6,0.5-5.2,1.7-7.5
					c0.5-0.6,0.9-1.2,1.4-1.6c0.9-0.9,1.9-1.6,3.1-2l-9.2-5.3l-1.9-1.2L690.2,556.1z"/>
				<path class="st9" d="M725.7,551.4l3,7.6l6.9,3.9l0.8,0.5l0.8,0.5l2.1,1.3l1.6,1.1l1.2,0.6l1.5,0.9l1.2,0.7l24.2,14.5l3.1,1.9
					l32.6,19.6l1.5,0.9l8.2,4.9l1-5.2L802,580.5l-1.5-2.7l-4.4-7.9L747.2,543l-0.5-0.4l-1.6-0.9L725.7,551.4z"/>
				<path class="st23" d="M746,543.8l-16,10.1l0.6,4.6l82.8,49.5l0.5-2.7l-18.8-34.4L746,543.8z"/>
				<path class="st9" d="M736.6,562.9l1.1,1.2l0.8,0.4l0.8,0.5l10.7-19.7l-0.5-1.2l-0.6-0.4l-1.2,0.6L736.6,562.9z"/>
				<path class="st9" d="M767,581.1l3.1,1.8l5.3-23.3l-3.1-1.5L767,581.1z"/>
				<path class="st9" d="M800.1,577.6v23.2l1.6,0.9l0.3-21.2l-1.5-2.7L800.1,577.6z"/>
				<path class="st21" d="M825.9,635.3v5.7l-94.1-59.3l1.4-0.7L825.9,635.3z"/>
				<path class="st9" d="M824.6,636v5.7l-92.9-54.3v-5.7L824.6,636z"/>
				<path class="st10" d="M937.2,622.9l1.5-12.9l-61.6,34.5l-2.7,13.7C874.4,658.1,915.3,648.2,937.2,622.9z"/>
				<path class="st10" d="M874.9,656v-2.1c22.2-8.1,43-19.8,61.4-34.7c0.5,0,0.6-2.2,0.6-2.2v1.9c0,0,0,1.8-0.6,2.2
					C917.9,636.1,897.1,647.9,874.9,656z"/>
				<path class="st10" d="M874.9,653v-2.1c22.2-8.1,43-19.8,61.4-34.7c0.5,0,0.6-2.2,0.6-2.2v1.9c0,0,0,1.8-0.6,2.2
					C917.9,633.1,897.1,644.9,874.9,653z"/>
				<path class="st10" d="M874.9,650v-2.1c22.2-8.1,43-19.8,61.4-34.7c0.5,0,0.6-2.3,0.6-2.3v1.9c0,0,0,1.9-0.6,2.3
					C917.9,630,897.1,641.8,874.9,650z"/>
				<path class="st21" d="M874.9,656.6v-2.2c22.2-8,43-19.7,61.4-34.6c0.5,0,0.6-2.3,0.6-2.3v1.9c0,0,0,1.9-0.6,2.3
					C917.9,636.6,897.1,648.4,874.9,656.6z"/>
				<path class="st21" d="M874.9,653.6v-2.2c22.2-8.1,43-19.7,61.4-34.6c0.5,0,0.6-2.3,0.6-2.3v1.9c0,0,0,1.9-0.6,2.3
					C917.9,633.6,897.1,645.4,874.9,653.6z"/>
				<path class="st21" d="M874.9,650.6v-2.2c22.2-8.1,43-19.8,61.4-34.7c0.5,0,0.6-2.2,0.6-2.2v1.9c0,0,0,1.9-0.6,2.2
					C917.9,630.6,897.1,642.4,874.9,650.6z"/>
				<path class="st21" d="M875.3,645.3c22.1-8.1,42.7-19.7,61.1-34.4l0.6,1.3v0.5c-18.5,15-39.4,26.7-61.8,34.9L875.3,645.3z"/>
				<path class="st24" d="M934.1,639.7l-62.5,35.4l-0.5-5.3l62.4-35.5L934.1,639.7z"/>
				<path class="st9" d="M859.8,665.8c0,1.6-0.2,3.1-0.6,4.6l2.8,1.5l9.7,3.2l-0.5-5.3h1.9c1.9,0,3.8,1.3,5.5,0l1.3-0.6l58.1-32.9
					c0.6-0.4,1.2-0.8,1.6-1.4c0.6-0.8,0.9-1.8,1.1-2.8l0.5-7.8l-1.5,0.8l-60.5,34l-1.6,0.9l-20.5-8v0.9
					C858.9,656.9,859.8,661.3,859.8,665.8z"/>
				<path class="st10" d="M879.1,659.1v11.5l1.3-0.6c9.2-3.3,18.1-7.3,26.6-11.9c5.2-2.7,10.2-5.6,15.1-8.8
					c5.6-3.7,11-7.8,16.2-12.2c0.6-0.4,1.2-0.9,1.6-1.5V626L879.1,659.1z"/>
				<path class="st25" d="M876.3,646.6l11.3-5.3c0.2-0.1,0.4-0.1,0.6-0.1c0.2,0,0.4,0.1,0.6,0.2c0.2,0.1,0.3,0.3,0.4,0.5
					c0.1,0.2,0.1,0.4,0.1,0.6v4.2c0,0.7-0.3,1.3-0.7,1.9c-0.4,0.6-0.9,1-1.6,1.3l-9.7,4.4L876.3,646.6z"/>
				<path class="st25" d="M927.6,619.4l8.7-6.8l-0.7,9.7l-8.4,6.6c-0.2,0.1-0.4,0.2-0.6,0.2c-0.2,0-0.4,0-0.6-0.1
					c-0.2-0.1-0.3-0.3-0.4-0.5c-0.1-0.2-0.1-0.4-0.1-0.6v-4.7c0-0.8,0.2-1.5,0.6-2.2C926.4,620.3,926.9,619.8,927.6,619.4z"/>
				<path class="st19" d="M935.2,613.1c0-0.8,3-2.6,3-2.6c0.5,1.6,0.7,3.3,0.6,4.9c-0.2,1.7-0.7,3.3-1.5,4.7l-2,1.9
					C935.5,619.1,935.5,616.1,935.2,613.1z"/>
				<path class="st26" d="M910.5,631.9c-0.1,0.9-0.4,1.7-0.8,2.4c-0.5,0.7-1.1,1.4-1.8,1.8c-1.4,0.7-2.4,0-2.4-1.5
					c0.1-0.9,0.3-1.7,0.8-2.4c0.4-0.7,1-1.4,1.8-1.8c0.2-0.2,0.5-0.3,0.9-0.4c0.3,0,0.6,0,0.9,0.2c0.3,0.2,0.5,0.4,0.6,0.7
					C910.5,631.2,910.6,631.6,910.5,631.9z"/>
				<path class="st27" d="M911.2,632.5c-0.1,0.8-0.3,1.7-0.8,2.4c-0.4,0.7-1,1.3-1.8,1.8c-0.2,0.2-0.5,0.3-0.9,0.4
					c-0.3,0-0.6,0-0.9-0.2c-0.3-0.2-0.5-0.4-0.6-0.7c-0.1-0.3-0.2-0.6-0.1-0.9c0.1-0.9,0.4-1.7,0.8-2.4c0.5-0.7,1.1-1.3,1.8-1.8
					C910.1,630.2,911.2,630.8,911.2,632.5z"/>
				<path class="st21" d="M858.2,651.2l-1.7,0.9l18.2,8.3c0.7,0.3,1.5,0.5,2.3,0.5c0.8,0,1.6-0.2,2.3-0.5c0,0,45.7-18.2,60.9-34.6
					c0.8-0.9,1.2-1.9,0-2.6l-3.2-2.8c0,0,0,1.9-0.6,2.3c-18.6,15-39.6,26.8-62.1,34.9L858.2,651.2z"/>
				<path class="st21" d="M888.8,658.9v2c0,0.3-0.1,0.6-0.3,0.9c-0.2,0.3-0.4,0.5-0.7,0.6l-6.8,2.6c-0.1,0-0.3,0.1-0.5,0
					c-0.2,0-0.3-0.1-0.4-0.2c-0.1-0.1-0.2-0.2-0.3-0.4c-0.1-0.1-0.1-0.3-0.1-0.5l5.7-2.2c0.3-0.1,0.6-0.3,0.7-0.6
					c0.2-0.3,0.3-0.6,0.2-0.9v-1.1l1.1-0.5c0.2-0.1,0.4-0.2,0.6-0.2C888.4,658.6,888.7,658.7,888.8,658.9z"/>
				<path class="st28" d="M886.5,658.4v1.1c0,0.3-0.1,0.7-0.2,0.9c-0.2,0.3-0.4,0.5-0.7,0.6l-5.7,2.2v-1.2c0-0.3,0.1-0.7,0.3-0.9
					c0.2-0.3,0.5-0.5,0.8-0.6L886.5,658.4z"/>
				<path class="st21" d="M938.3,629.5v1.2c0,0.3,0,0.6-0.1,0.8c-0.1,0.3-0.3,0.5-0.5,0.7l-4.1,3.4c0,0-0.8,0-0.8-0.6l3.4-2.9
					c0.2-0.2,0.4-0.4,0.5-0.7c0.1-0.3,0.2-0.6,0.2-0.9v-0.7l0.6-0.6C937.5,629.3,938.3,629,938.3,629.5z"/>
				<path class="st28" d="M937.2,629.5v0.7c0,0.3,0,0.6-0.2,0.9c-0.1,0.3-0.3,0.5-0.5,0.7l-3.4,2.9v-0.8c0-0.3,0-0.6,0.2-0.9
					s0.3-0.5,0.5-0.7L937.2,629.5z"/>
				<path class="st29" d="M906.4,652.2v5.4c5.2-2.7,10.2-5.6,15.1-8.8c0-0.2,0-0.3,0-0.5v-5c0-1-0.8-1.4-1.6-0.8l-12,7
					c-0.4,0.3-0.8,0.7-1,1.2C906.6,651.2,906.5,651.7,906.4,652.2z"/>
				<path class="st14" d="M920.1,650c0.5-0.3,0.9-0.7,1.2-1.1c0.3-0.5,0.5-1,0.5-1.6v-4.9c0-1-0.7-1.4-1.6-0.9l-12,7.1
					c-0.5,0.3-0.9,0.7-1.1,1.2c-0.3,0.5-0.5,1-0.5,1.5v4.9c0,1,0.8,1.4,1.6,0.9L920.1,650z"/>
				<path class="st30" d="M908.2,656.7l12-7c0.4-0.2,0.7-0.6,0.9-1c0.2-0.4,0.4-0.8,0.4-1.3v-4.9c0-0.9-0.6-1.2-1.4-0.7l-12,7
					c-0.4,0.3-0.7,0.6-0.9,1c-0.2,0.4-0.4,0.8-0.4,1.2v4.9C906.8,656.9,907.4,657.2,908.2,656.7z"/>
				<path class="st31" d="M906.8,651.2c0-0.4,0.2-0.9,0.4-1.3c0.2-0.4,0.5-0.7,0.9-1l12-7c0.8-0.5,1.4,0,1.4,0.6L906.8,651.2z"/>
				<path class="st31" d="M921.5,647.5c0,0.5-0.1,0.9-0.4,1.3c-0.2,0.4-0.6,0.7-1,0.9l-12,7c-0.7,0.5-1.3,0-1.3-0.6L921.5,647.5z"/>
				<path class="st19" d="M762.9,501.6l-63.9,37l18.8,8.2l67.8-39.2l-14.6-6.4c-1.3-0.6-2.7-0.8-4.1-0.8
					C765.5,500.6,764.2,501,762.9,501.6z"/>
				<path class="st32" d="M876.3,646.6l10.7-5v3.4c0,0.7-0.3,1.3-0.7,1.9s-0.9,1-1.6,1.3l-7,3.2L876.3,646.6z"/>
				<path class="st32" d="M925.4,622.8c0-0.7,0.2-1.3,0.5-1.9c0.3-0.6,0.7-1.1,1.2-1.5l5.9-4.7v4.3c0,0.6-0.2,1.2-0.5,1.7
					c-0.3,0.5-0.7,1-1.2,1.4l-6,4.7V622.8z"/>
				<path class="st9" d="M785.9,507.6c-23.1,8.1-67.8,39.2-67.8,39.2l24.6-9.1l65.2-38.7C807.9,499,792,506,785.9,507.6z"/>
				<path class="st33" d="M742.9,536.8c29.7-19.8,53.3-32.4,53.3-32.4l-9.7,3.7c-21,9.5-41.1,21-59.8,34.4
					C732.2,541.1,737.7,539.2,742.9,536.8z"/>
				<path class="st18" d="M937.2,610.9c-18.9,13.8-39.4,25.3-60.9,34.5l-56.5-38.7l67.8-39.2l50.7,42.8L937.2,610.9z"/>
				<path class="st9" d="M880,575.9c0,0-2.3,7.4-19.4,16.9c-7.8,5.2-16.7,8.3-26,9.2l-15.1,4.5l67.1-39.4L880,575.9z"/>
				<path class="st9" d="M863.1,530.9c-19.3,16-41.1,28.7-64.6,37.6c0,0,11.4,18.3,21.3,37.9c24.6-9.3,47.4-22.6,67.8-39.2
					C887.6,567.1,876.5,550.2,863.1,530.9z"/>
				<path class="st34" d="M800.1,568.9c3,4,11.8,19.4,20.2,36c23.8-9.2,46.1-22.1,65.9-38.2c-1.6-3.4-12.1-17.7-23.4-34.5l-2.2,1.9
					c-5.1,4.1-10.5,7.9-16,11.4C830.5,554.7,815.6,562.4,800.1,568.9z"/>
				<path class="st18" d="M925.5,617L880,575.9c0,0,6.7-7.7,8.8-6.3c16.2,11.5,31.2,24.5,45,38.7L925.5,617z"/>
				<path class="st19" d="M925.5,617l-44.6-42.2l6.8-7.7c18.1,13,35.1,27.3,50.9,42.9L925.5,617z"/>
				<path class="st19" d="M877.8,644.8l-57.9-38.3l15-4.5l57.4,34.6L877.8,644.8z"/>
				<path class="st35" d="M844.5,604.9l1.1,0.7c0.4,0.2,0.8,0.3,1.2,0.3s0.8-0.1,1.2-0.3l10.7-4.7c1.3-0.6,1.4-1.6,0-2.1l-1-0.5
					c-0.7-0.2-1.4-0.2-2.1,0l-10.6,4.6C843.9,603.4,843.6,604.3,844.5,604.9z"/>
				<path class="st18" d="M849.2,605.3l-0.9,0.3l-4.6-2.6l0.7-0.4L849.2,605.3z"/>
				<path class="st18" d="M851.4,604.6l-0.9,0.2l-4.6-2.6l0.7-0.4L851.4,604.6z"/>
				<path class="st18" d="M853.8,603.7l-0.9,0.2l-4.6-2.6l0.7-0.3L853.8,603.7z"/>
				<path class="st18" d="M856,602.8l-0.9,0.3l-4.6-2.6l0.7-0.4L856,602.8z"/>
				<path class="st18" d="M858.1,601.9l-0.9,0.3l-4.6-2.6l0.8-0.4L858.1,601.9z"/>
				<path class="st18" d="M859.9,600.8l-0.8,0.2l-4.6-2.6l0.7-0.4L859.9,600.8z"/>
				<path class="st35" d="M883.9,581.6l-1.1-0.7c-0.3-0.2-0.6-0.3-1-0.3c-0.3,0-0.7,0.1-1,0.3l-8.3,6.6c-0.2,0.1-0.4,0.3-0.5,0.5
					c-0.1,0.2-0.2,0.5-0.2,0.7c0,0.3,0.1,0.5,0.2,0.7c0.1,0.2,0.3,0.4,0.5,0.5l1,0.5c0.3,0.1,0.6,0.2,0.9,0.2s0.6-0.1,0.9-0.2
					l8.1-6.3C884.7,583.5,884.8,582.2,883.9,581.6z"/>
				<g>
					<path class="st18" d="M879.7,581.4l0.7-0.4l4.5,2.7l-0.5,0.5L879.7,581.4z"/>
					<path class="st18" d="M878,582.6l0.7-0.3l4.4,2.6l-0.5,0.6L878,582.6z"/>
					<path class="st18" d="M876.1,583.9l0.7-0.4l4.5,2.7l-0.5,0.5L876.1,583.9z"/>
					<path class="st18" d="M874.4,585l0.7-0.3l4.4,2.6l-0.5,0.6L874.4,585z"/>
					<path class="st18" d="M872.7,586.4l0.7-0.4l4.4,2.7l-0.5,0.5L872.7,586.4z"/>
					<path class="st18" d="M871.4,587.8l0.7-0.4l4.5,2.7l-0.6,0.6L871.4,587.8z"/>
				</g>
				<path class="st36" d="M864.5,540.1l16.1,23.9l-0.5,2.8l-12.3-7.4L864.5,540.1z"/>
				<path class="st36" d="M844.7,545.7l21.6,12.9l-3.6-21.2l-2-3.1C855.5,538.4,850.2,542.2,844.7,545.7z"/>
				<path class="st19" d="M807.9,499.4c2.6-1,55.2,31.5,55.2,31.5c-19.3,16.1-41.1,28.8-64.6,37.6l-55.8-30.7
					C763.3,523.2,785.1,510.4,807.9,499.4z"/>
				<path class="st21" d="M690.2,556.1l3.4-4l0.2,2.8l14.5,9l-2.2,1.4L690.2,556.1z"/>
				<path class="st37" d="M695.6,543l0.8,0.5c0.4,0.4,0.7,0.8,1,1.4c0.1,0.6,0.1,1.2,0,1.7v5.8c0.1,0.4,0.1,0.9,0,1.3
					c0,0-0.9,0-1.2,0l-1.5-1c-0.6,0,0,0-0.8-0.7v-2L695.6,543z"/>
				<path class="st10" d="M824.6,636v5.7l1.3-0.8v-5.7L824.6,636z"/>
				<path class="st21" d="M856.5,653.1c-3.4-5.2-7.9-9.7-13.1-13.1c-1.9-1.1-4.1-1.5-6.3-1.3c-2.2,0.2-4.2,1.2-5.8,2.6
					c-2,2-3.1,4.7-3.1,7.6v3.7l-0.6-7.3c0.2-1.5,0.6-3,1.4-4.3c0.8-1.3,1.8-2.5,3-3.4c1.2-0.9,2.7-1.6,4.2-1.9
					c1.5-0.3,3.1-0.3,4.6,0c12.2,1.7,19.4,16.7,19.4,16.7L856.5,653.1z"/>
				<path class="st9" d="M832.6,636.8c2.1-0.8,4.3-1,6.5-0.6c12.2,1.6,18.9,17.3,18.9,17.3h-1.2c-3.5-5.4-8-10.1-13.4-13.8
					c-1.7-0.9-3.5-1.4-5.4-1.4c-1.9,0-3.8,0.5-5.4,1.4c-1.5,0-3.6,4.1-4.3,12.3l-2.1-1.3C826.9,643.1,829,639.2,832.6,636.8z"/>
				<path class="st21" d="M705.7,565.5c4.3-0.7,8.7,0.1,12.5,2.2c5.9,4.3,10,10.7,11.4,17.8l1.9,7.4l0.8-0.9c0,0-0.8-6.2-1.5-8.7
					c-0.6-3.4-1.8-6.6-3.7-9.5s-4.3-5.3-7.2-7.2c-1.6-1.3-3.5-2.2-5.5-2.6c-2-0.5-4.1-0.5-6.1-0.1L705.7,565.5z"/>
				<path class="st9" d="M730.9,596.6l-1.2-0.8c0.4-4,0.1-8-0.9-11.9c-1.8-6.3-5.9-11.8-11.5-15.2c-1.7-1.1-3.6-1.9-5.6-2.2
					c-2-0.3-4.1-0.2-6,0.4c-2.5,1.1-4.4,3.1-5.4,5.6c-0.6,2.3-1.6-1-1.6-1l4.1-6.3h3c3-0.7,6-0.7,9,0c3.7,1.8,6.9,4.3,9.5,7.4
					c2.6,3.1,4.5,6.8,5.5,10.8c1,2.9,1.6,5.9,1.8,8.9l1.5,3.4L730.9,596.6z"/>
				<path class="st38" d="M832.7,625.9l2,1.2c0.3,0.2,0.5,0.4,0.6,0.6c0.2,0.3,0.2,0.5,0.3,0.8v0.8c0,0.2-0.1,0.3-0.2,0.4
					c-0.1,0.1-0.2,0.2-0.3,0.3c-0.1,0.1-0.3,0.1-0.4,0.1c-0.2,0-0.3,0-0.4-0.1l-1.9-1.2c-0.3-0.1-0.5-0.3-0.7-0.6
					c-0.2-0.3-0.2-0.6-0.2-0.9v-0.8c0-0.1,0-0.3,0.1-0.4c0.1-0.1,0.2-0.2,0.3-0.3c0.1-0.1,0.3-0.1,0.4-0.1
					C832.5,625.8,832.6,625.8,832.7,625.9z"/>
				<path class="st39" d="M832.4,626.2l2,1.2c0.3,0.1,0.5,0.3,0.7,0.6c0.2,0.3,0.2,0.6,0.2,0.9v0.8c0,0.1,0,0.3-0.1,0.4
					c-0.1,0.1-0.2,0.2-0.3,0.3c-0.1,0.1-0.3,0.1-0.4,0.1c-0.1,0-0.3,0-0.4-0.1l-2-1.2c-0.3-0.1-0.5-0.3-0.7-0.6
					c-0.2-0.3-0.2-0.6-0.2-0.9v-0.8c0-0.1,0-0.3,0.1-0.4c0.1-0.1,0.2-0.2,0.3-0.3c0.1-0.1,0.3-0.1,0.4-0.1
					C832.1,626.1,832.2,626.1,832.4,626.2z"/>
				<path class="st19" d="M877.1,646.3h-0.8c0,0-0.8,0-1,0c-0.2,0-1.4,1-1.5,1.7c-0.2,0.8-1,1.5-1.3,2.5c-0.2,0.6-0.4,1.2-0.4,1.8
					c0,0.6,0.1,1.2,0.4,1.8c0,0,1.9,1.5,2.3,1.4l2.4-1.2C878.2,651.7,878.1,648.9,877.1,646.3z"/>
				<path class="st40" d="M873.9,565c3.7,0.9,7.6,0.8,11.1-0.5c0.6,1.1,1.1,1.8,1.3,2.3c-19.8,16.1-42.1,29-65.9,38.2l-3.6-6.9
					C829.7,590.1,846.3,580.6,873.9,565z"/>
				<path class="st9" d="M792,602.8c0,1.2,0.3,2.3,1,3.2c0.7,0.9,1.7,1.6,2.8,1.9c0.8,0.1,1.6,0.1,2.4,0c4.3,0,9.7,0,10.4-0.7
					c0.7-0.7,4.9,0,4.9,0c0.3-0.3,0.6-0.6,0.8-1c0.2-0.4,0.3-0.8,0.3-1.2c0-0.4-0.1-0.8-0.3-1.2c-0.2-0.4-0.4-0.7-0.8-1l-0.9-0.7
					h-2.5c0-0.3,0-0.6,0-1c-0.9-1.7-2.4-3-4.1-3.8c-1.8-0.7-3.7-0.9-5.6-0.3C790.7,599.8,792,602.8,792,602.8z"/>
				<path class="st9" d="M769.4,591.1l7,4.1c0-1.3,0-2-1.2-2.9c-1.3-0.9-2.7-1.7-4.2-2.4C769.3,588.9,769.4,591.1,769.4,591.1z"/>
				<path class="st9" d="M737.9,572.2l7,4.1c0-1.4,0-2.1-1.2-2.9c-1.3-0.9-2.7-1.7-4.1-2.4C737.9,570,737.9,572.2,737.9,572.2z"/>
			</g>
			<text transform="matrix(1 0 0 1 624.9143 196.8041)" class="st0 st487 st492">CO2 påverkan</text>
			<text transform="matrix(1 0 0 1 746.7756 266.6664)" class="st1 st491 st492">idag</text>
			<g>
				<g>
					<line class="st41" x1="803.3" y1="306.6" x2="803.3" y2="309.6"/>
					<line class="st42" x1="803.3" y1="315.6" x2="803.3" y2="517"/>
					<line class="st41" x1="803.3" y1="520" x2="803.3" y2="522.9"/>
				</g>
			</g>
		</g>
	</g>
	<g>
		<rect x="540" y="915" class="st0" width="540" height="915"/>
		<text transform="matrix(1 0 0 1 706.7864 1118.3842)"><tspan x="0" y="0" class="st8 st487 st502">ändrade</tspan><tspan x="-34.1" y="62.7" class="st8 st487 st502">öppettider</tspan></text>
		<text transform="matrix(1 0 0 1 720.301 1315.7059)"><tspan x="0" y="0" class="st1 st491 st503">mån–fre</tspan><tspan x="30.2" y="53.8" class="st8 st491 st503">06–22</tspan><tspan x="14.1" y="107.6" class="st1 st491 st503">lördag</tspan><tspan x="30.2" y="161.4" class="st8 st491 st503">07–22</tspan><tspan x="11.6" y="215.2" class="st1 st491 st503">söndag</tspan><tspan x="30.2" y="269" class="st8 st491 st503">07–22</tspan></text>
	</g>
	<g>
		<g>
			<defs>
				<polygon id="SVGID_324_" points="1837.5,71.6 1299.3,388.1 1299.3,0.7 1837.5,0 				"/>
			</defs>
			<clipPath id="SVGID_6_">
				<use xlink:href="#SVGID_324_"  style="overflow:visible;"/>
			</clipPath>
			<g class="st44">
				<defs>
					<rect id="SVGID_326_" x="1299.3" y="-2.7" width="555.2" height="558.2"/>
				</defs>
				<clipPath id="SVGID_7_">
					<use xlink:href="#SVGID_326_"  style="overflow:visible;"/>
				</clipPath>
				<g style="clip-path:url(#SVGID_7_);">
					<path class="st83" d="M1325.2,916L203.6,269.9L1381.8-411l1121.6,646.1L1325.2,916z"/>
					<path class="st27" d="M1891,40.5L396.7,158.3l649.7,375.9L1891,46.4V40.5z"/>
					<path class="st19" d="M1241.4-335.4L396.7,152.5l649.7,375.9L1891,40.5L1241.4-335.4z"/>
					<path class="st84" d="M962-175L396.7,152.5l649.7,375.9l565.3-327.4L962-175z"/>
					<path class="st86" d="M1307.7-454.3l358.9,207.2L944,169.3L585-37.9L1307.7-454.3z"/>
					<g>
						<path class="st87" d="M607.1-37.9l700.6-403.7l336.9,194.4L944,156.6L607.1-37.9z"/>
					</g>
					<g>
						<path class="st88" d="M1644.5-247.1L944,156.6l-12.2-7.1l668.1-385.3l-304-175.7l11.9-30.2L1644.5-247.1z"/>
					</g>
					<g>
						<path class="st88" d="M1360.4-74.8l-58.4,5.3l46.2-37.6l-240.6,24.9L871.1,47.1l81,42.5l146.6-13.3l0.3-0.2l8.1-0.7l59.8-34.8
							l15.4-12.5L1360.4-74.8z"/>
					</g>
					<g>
						<path class="st107" d="M1368.4-179.6l-152.1,79.8l-26.7,192.2L981.8,360.1l307.8-29.1l26.1-53.3l79.6-112.4l115.5-27.7
							L1368.4-179.6z"/>
					</g>
				</g>
			</g>
		</g>
	</g>
</g>
<g id="Ramar">
	<g>
		<path d="M0,0v1920h1080V0H0z M1109.2,1958.8H-29.2V-37.3h1138.4V1958.8z"/>
		<g>
			<path d="M0,0v1920h1080V0H0z M1109.2,1958.8H-29.2V-37.3h1138.4V1958.8z"/>
		</g>
	</g>
</g>
</svg>
